<svg preserveAspectRatio="xMidYMid meet" width="272" height="116" overflow="visible" style="display: block;" viewBox="0 0 272 116" fill="none" xmlns="http://www.w3.org/2000/svg">
<g id="Group">
<path id="Vector" d="M3.65002 110.242C2.52002 109.632 1.61997 108.782 0.969971 107.702C0.319971 106.622 0 105.392 0 104.032C0 102.672 0.319971 101.442 0.969971 100.362C1.61997 99.2823 2.51002 98.4323 3.65002 97.8223C4.78002 97.2123 6.05998 96.9121 7.47998 96.9121C8.66998 96.9121 9.74997 97.122 10.72 97.542C11.68 97.962 12.49 98.5621 13.15 99.3521L11.1 101.242C10.17 100.162 9.01001 99.6323 7.64001 99.6323C6.79001 99.6323 6.02999 99.8219 5.35999 100.192C4.68999 100.562 4.16993 101.092 3.79993 101.752C3.42993 102.422 3.23999 103.182 3.23999 104.032C3.23999 104.882 3.42993 105.642 3.79993 106.312C4.16993 106.982 4.69999 107.502 5.35999 107.872C6.02999 108.242 6.79001 108.432 7.64001 108.432C9.02001 108.432 10.17 107.892 11.1 106.802L13.15 108.692C12.49 109.492 11.68 110.102 10.71 110.522C9.73996 110.942 8.65996 111.152 7.45996 111.152C6.05996 111.152 4.79002 110.852 3.65002 110.242Z" fill="var(--fill-0, #781029)"/>
<path id="Vector_2" d="M27.9299 97.1523V110.922H24.74V105.272H18.48V110.922H15.29V97.1523H18.48V102.582H24.74V97.1523H27.9299Z" fill="var(--fill-0, #781029)"/>
<path id="Vector_3" d="M41.86 108.372V110.922H31.2V97.1523H41.61V99.7119H34.36V102.702H40.76V105.182H34.36V108.372H41.86Z" fill="var(--fill-0, #781029)"/>
<path id="Vector_4" d="M53.1799 110.922L50.52 107.082H47.59V110.922H44.4V97.1421H50.36C51.58 97.1421 52.64 97.342 53.54 97.752C54.44 98.162 55.13 98.7319 55.62 99.4819C56.11 100.232 56.35 101.112 56.35 102.142C56.35 103.172 56.1 104.052 55.61 104.792C55.12 105.532 54.42 106.102 53.51 106.492L56.6 110.922H53.1799ZM52.37 100.372C51.87 99.9621 51.1399 99.752 50.1799 99.752H47.58V104.552H50.1799C51.1399 104.552 51.87 104.342 52.37 103.922C52.87 103.502 53.12 102.912 53.12 102.152C53.12 101.392 52.87 100.782 52.37 100.372Z" fill="var(--fill-0, #781029)"/>
<path id="Vector_5" d="M175.55 99.9819H171.14V97.3823H183.15V99.9819H178.74V111.162H175.55V99.9819Z" fill="var(--fill-0, #781029)"/>
<path id="Vector_6" d="M193.64 111.162L190.98 107.322H188.05V111.162H184.86V97.3823H190.82C192.04 97.3823 193.1 97.5822 194 97.9922C194.9 98.4022 195.59 98.9722 196.08 99.7222C196.57 100.472 196.81 101.352 196.81 102.382C196.81 103.412 196.56 104.292 196.07 105.032C195.58 105.772 194.88 106.342 193.97 106.732L197.06 111.162H193.64ZM192.83 100.602C192.33 100.192 191.6 99.9819 190.64 99.9819H188.04V104.782H190.64C191.6 104.782 192.33 104.572 192.83 104.152C193.33 103.732 193.58 103.142 193.58 102.382C193.58 101.622 193.33 101.012 192.83 100.602Z" fill="var(--fill-0, #781029)"/>
<path id="Vector_7" d="M208.4 108.212H202L200.78 111.162H197.51L203.65 97.3823H206.8L212.96 111.162H209.61L208.39 108.212H208.4ZM207.39 105.792L205.2 100.522L203.02 105.792H207.39Z" fill="var(--fill-0, #781029)"/>
<path id="Vector_8" d="M217.59 97.3823H214.4V111.162H217.59V97.3823Z" fill="var(--fill-0, #781029)"/>
<path id="Vector_9" d="M233.49 97.3823V111.162H230.87L224 102.792V111.162H220.85V97.3823H223.49L230.34 105.752V97.3823H233.49Z" fill="var(--fill-0, #781029)"/>
<path id="Vector_10" d="M239.95 97.3823H236.76V111.162H239.95V97.3823Z" fill="var(--fill-0, #781029)"/>
<path id="Vector_11" d="M255.85 97.3823V111.162H253.23L246.36 102.792V111.162H243.21V97.3823H245.85L252.7 105.752V97.3823H255.85Z" fill="var(--fill-0, #781029)"/>
<path id="Vector_12" d="M268.42 104.052H271.33V109.642C270.58 110.202 269.72 110.642 268.73 110.942C267.75 111.242 266.76 111.392 265.76 111.392C264.33 111.392 263.04 111.092 261.9 110.482C260.76 109.872 259.86 109.022 259.21 107.942C258.56 106.862 258.24 105.632 258.24 104.272C258.24 102.912 258.56 101.682 259.21 100.602C259.86 99.5221 260.76 98.672 261.92 98.062C263.07 97.452 264.37 97.1523 265.82 97.1523C267.03 97.1523 268.12 97.3522 269.11 97.7622C270.09 98.1722 270.92 98.7622 271.59 99.5322L269.54 101.422C268.56 100.382 267.37 99.8721 265.98 99.8721C265.1 99.8721 264.32 100.052 263.64 100.422C262.96 100.792 262.43 101.302 262.05 101.972C261.67 102.642 261.48 103.412 261.48 104.272C261.48 105.132 261.67 105.882 262.05 106.552C262.43 107.222 262.96 107.742 263.63 108.112C264.31 108.482 265.08 108.672 265.94 108.672C266.86 108.672 267.68 108.472 268.42 108.082V104.052Z" fill="var(--fill-0, #781029)"/>
<path id="Vector_13" d="M62.14 74.0122C60.02 74.7522 57.69 75.1621 55.2 75.1621C46.55 75.1621 38.8 71.0422 33.36 63.5522L32.78 62.7622L28.87 66.2119L29.34 66.8623C35.52 75.4223 44.67 80.1323 55.09 80.1323C57.53 80.1323 59.8599 79.8121 62.0599 79.2021C62.0399 78.6321 62.03 78.062 62.03 77.502V77.292C62.03 76.192 62.07 75.0922 62.13 73.9922" fill="var(--fill-0, #781029)"/>
<path id="Vector_14" d="M45.15 39.582L46.63 42.6719H50.0599C56.3199 42.6719 65.65 43.7621 70.36 49.6421C70.46 49.7621 70.55 49.8922 70.64 50.0122C70.73 50.1422 70.8299 50.2621 70.9199 50.3921C72.0499 52.0321 72.84 54.0123 73.16 56.4023C73.19 56.6523 73.22 56.9121 73.24 57.1821C73.27 57.4721 73.28 57.762 73.29 58.062C73.29 58.312 73.3099 58.552 73.3099 58.812V59.022C73.3099 62.742 72.02 66.082 69.83 68.752C69.4 71.132 69.15 73.5822 69.09 76.0322C74.81 72.2022 78.46 66.0219 78.46 58.9219V58.7119C78.46 56.2419 78.09 53.9623 77.39 51.8823C77.34 51.7223 77.28 51.5623 77.22 51.4023C77.16 51.2423 77.1 51.0919 77.04 50.9419C76.37 49.2819 75.48 47.7721 74.36 46.4121C74.26 46.2921 74.1699 46.182 74.0699 46.062C73.9699 45.952 73.87 45.8419 73.77 45.7319C69.49 41.0219 62.39 38.242 52.91 37.752L77.16 8.80225L77.37 8.55225V4.8623H32.85V9.95215H70.02L45.16 39.5923L45.15 39.582Z" fill="var(--fill-0, #781029)"/>
<path id="Vector_15" d="M77.71 50.2319C81.47 46.4619 86.32 44.1323 92.22 44.1323C99.2 44.1323 104.76 47.5119 108.78 52.6719C108.88 52.8019 108.97 52.932 109.07 53.062C109.17 53.192 109.27 53.3121 109.36 53.4521C110.52 55.0621 111.55 56.8219 112.43 58.6919C112.51 58.8719 112.59 59.0519 112.68 59.2319C112.76 59.4119 112.85 59.592 112.93 59.772C115.26 65.162 116.46 71.3619 116.46 77.4219V77.6323C116.46 83.7023 115.33 89.7923 113.12 95.0723C113.99 97.0323 115.01 98.872 116.19 100.542C119.84 93.852 121.71 85.6722 121.71 77.5322V77.3223C121.71 69.0923 119.81 60.8321 116.08 54.1021C116 53.9621 115.92 53.8119 115.84 53.6719C115.76 53.5319 115.68 53.392 115.59 53.252C114.67 51.692 113.66 50.2321 112.54 48.8721C112.44 48.7521 112.35 48.632 112.25 48.522C112.15 48.402 112.05 48.3021 111.95 48.1821C107.14 42.6821 100.57 39.1621 92.33 39.1621C85.34 39.1621 79.56 41.692 75.03 45.812C76.14 47.152 77.04 48.6322 77.73 50.2422" fill="var(--fill-0, #781029)"/>
<path id="Vector_16" d="M92.41 110.702C76.74 110.702 68.2499 93.7121 68.1799 77.6421C68.1799 77.5721 68.1799 77.4919 68.1799 77.4219V77.2119C68.1799 77.2119 68.1799 77.1523 68.1799 77.1323C68.1799 76.9623 68.1799 76.7823 68.1799 76.6123C68.2099 74.3823 68.39 72.1519 68.71 69.9619C68.75 69.7119 68.79 69.4622 68.83 69.2222C68.88 68.9322 68.93 68.6421 68.98 68.3521C69.67 64.6321 70.81 61.0721 72.37 57.8721C72.23 55.1821 71.4799 52.9921 70.3199 51.2021C66.2299 57.1821 63.81 64.8023 63.13 72.6523C63.12 72.8223 63.1 72.9823 63.09 73.1523C63.08 73.3223 63.0599 73.4823 63.0499 73.6523C62.9699 74.8723 62.9199 76.0922 62.9199 77.3022V77.5122C62.9199 77.9922 62.9299 78.4721 62.9399 78.9521C62.9399 79.1021 62.94 79.2621 62.95 79.4121C62.95 79.5621 62.97 79.7221 62.97 79.8721C63.77 98.0321 73.81 115.672 92.29 115.672C100.54 115.672 107.1 112.152 111.91 106.652C110.8 105.312 109.78 103.872 108.87 102.342C104.9 107.412 99.38 110.682 92.39 110.682" fill="var(--fill-0, #781029)"/>
<path id="Vector_17" d="M132.74 39.1523C124.49 39.1523 117.93 42.6719 113.11 48.1719C114.22 49.5119 115.24 50.9519 116.15 52.4819C120.12 47.4119 125.64 44.1421 132.63 44.1421C148.37 44.1421 156.87 61.2919 156.87 77.4219V77.6323C156.87 94.0723 148.61 110.712 132.83 110.712C125.85 110.712 120.29 107.332 116.27 102.172C116.17 102.042 116.08 101.912 115.98 101.782C115.88 101.652 115.78 101.522 115.69 101.392C114.53 99.7821 113.5 98.0323 112.62 96.1523C112.54 95.9723 112.46 95.7923 112.37 95.6123C112.29 95.4323 112.2 95.2523 112.12 95.0723C109.79 89.6823 108.59 83.4819 108.59 77.4219V77.2119C108.59 71.1419 109.72 65.052 111.93 59.772C111.06 57.812 110.04 55.9722 108.86 54.3022C105.21 60.9922 103.34 69.172 103.34 77.312V77.522C103.34 85.752 105.24 94.0122 108.97 100.742C109.05 100.882 109.13 101.032 109.21 101.172C109.29 101.312 109.37 101.452 109.46 101.592C110.38 103.152 111.39 104.622 112.51 105.972C112.61 106.092 112.7 106.212 112.8 106.322C112.9 106.442 113 106.542 113.1 106.662C117.92 112.162 124.48 115.682 132.73 115.682C152.02 115.682 162.11 96.482 162.11 77.522V77.312C162.11 58.352 152.02 39.1523 132.73 39.1523" fill="var(--fill-0, #781029)"/>
<path id="Vector_18" d="M79.48 32.792V28.522C79.48 27.782 79.28 27.1822 78.89 26.7422C78.5 26.2922 77.93 26.0723 77.2 26.0723C76.84 26.0723 76.51 26.1322 76.21 26.2622C75.91 26.3922 75.6499 26.562 75.4199 26.792C75.1899 27.022 75.02 27.2921 74.89 27.6021C74.76 27.9121 74.7 28.2623 74.7 28.6323V32.792H74.01V22.502H74.7V26.9419C74.94 26.5219 75.2699 26.1621 75.6899 25.8721C76.0999 25.5821 76.6399 25.4321 77.2999 25.4321C77.7499 25.4321 78.15 25.5023 78.51 25.6523C78.87 25.8023 79.1699 26.0022 79.4199 26.2622C79.6699 26.5222 79.86 26.8421 79.98 27.2021C80.11 27.5621 80.1699 27.9621 80.1699 28.3921V32.792H79.48Z" fill="var(--fill-0, #781029)"/>
<path id="Vector_19" d="M89.26 30.6323C89.08 31.0823 88.82 31.482 88.49 31.832C88.16 32.182 87.7599 32.4523 87.3099 32.6523C86.8599 32.8523 86.37 32.9521 85.83 32.9521C85.29 32.9521 84.8 32.8523 84.36 32.6523C83.91 32.4523 83.53 32.1823 83.2 31.8423C82.87 31.5023 82.6099 31.1121 82.4299 30.6621C82.2499 30.2121 82.16 29.7322 82.16 29.2222V29.1919C82.16 28.6819 82.2499 28.202 82.4299 27.752C82.6099 27.302 82.87 26.9022 83.2 26.5522C83.53 26.2022 83.93 25.9319 84.38 25.7319C84.83 25.5319 85.32 25.4321 85.86 25.4321C86.4 25.4321 86.89 25.5319 87.33 25.7319C87.78 25.9319 88.16 26.202 88.49 26.542C88.82 26.882 89.08 27.2722 89.26 27.7222C89.44 28.1722 89.53 28.6521 89.53 29.1621V29.1919C89.53 29.7019 89.44 30.1823 89.26 30.6323ZM88.8099 29.1919C88.8099 28.7619 88.73 28.3519 88.58 27.9819C88.43 27.6019 88.22 27.2722 87.95 26.9922C87.68 26.7122 87.37 26.492 87 26.332C86.64 26.172 86.25 26.0923 85.83 26.0923C85.41 26.0923 85.01 26.1723 84.65 26.3423C84.29 26.5023 83.97 26.722 83.72 27.002C83.46 27.282 83.26 27.6022 83.11 27.9722C82.96 28.3422 82.89 28.7421 82.89 29.1621V29.1919C82.89 29.6219 82.97 30.0323 83.12 30.4023C83.27 30.7823 83.48 31.1121 83.75 31.3921C84.02 31.6721 84.34 31.8922 84.7 32.0522C85.06 32.2122 85.45 32.292 85.87 32.292C86.29 32.292 86.6899 32.212 87.0499 32.042C87.4099 31.882 87.73 31.6623 87.98 31.3823C88.24 31.1023 88.44 30.7823 88.59 30.4023C88.74 30.0323 88.8099 29.6319 88.8099 29.2119V29.1821V29.1919Z" fill="var(--fill-0, #781029)"/>
<path id="Vector_20" d="M96.99 32.792V31.4521C96.75 31.8721 96.42 32.232 96 32.522C95.59 32.812 95.05 32.9619 94.39 32.9619C93.94 32.9619 93.5399 32.8922 93.1799 32.7422C92.8199 32.5922 92.52 32.3923 92.27 32.1323C92.02 31.8723 91.83 31.5519 91.71 31.1919C91.58 30.8319 91.52 30.432 91.52 30.002V25.6021H92.21V29.8721C92.21 30.6121 92.4099 31.2123 92.7999 31.6523C93.1899 32.1023 93.76 32.3223 94.49 32.3223C94.84 32.3223 95.16 32.2623 95.47 32.1323C95.78 32.0023 96.04 31.8321 96.27 31.6021C96.5 31.3821 96.6699 31.112 96.7999 30.792C96.9299 30.472 96.99 30.132 96.99 29.752V25.5923H97.6799V32.7822H96.99V32.792Z" fill="var(--fill-0, #781029)"/>
<path id="Vector_21" d="M104.11 26.252C103.7 26.252 103.3 26.332 102.93 26.482C102.55 26.632 102.22 26.8719 101.94 27.1719C101.65 27.4819 101.43 27.8523 101.26 28.3023C101.09 28.7523 101.01 29.2623 101.01 29.8423V32.7823H100.32V25.5923H101.01V27.6324C101.15 27.3124 101.33 27.0222 101.55 26.7422C101.77 26.4722 102.01 26.242 102.28 26.042C102.55 25.852 102.85 25.7021 103.17 25.6021C103.49 25.5021 103.83 25.4622 104.19 25.4722V26.232H104.12L104.11 26.252Z" fill="var(--fill-0, #781029)"/>
<path id="Vector_22" d="M157.87 19.7422C156.91 19.5322 155.63 19.4922 154.45 19.7822C151.84 20.4422 151.06 22.3921 151.06 22.3921C151.1 22.7121 151.33 22.5819 151.82 22.4819C152.31 22.3719 153.71 23.0122 153.71 23.0122C153.71 23.0122 155.75 23.5621 157.3 22.1221C158.85 20.6821 159.78 20.4922 159.78 20.4922C159.78 20.4922 159.04 20.0022 157.87 19.7422ZM154.9 22.6621C154.21 22.6621 153.65 22.1021 153.65 21.4121C153.65 20.9221 153.93 20.492 154.35 20.292C154.62 20.252 154.87 20.2121 155.1 20.1821C155.69 20.2821 156.15 20.7921 156.15 21.4121C156.15 22.1021 155.59 22.6621 154.9 22.6621ZM152.69 22.3022C152.01 22.0422 151.43 22.3022 151.43 22.3022C151.43 22.3022 152.01 21.0021 153.92 20.3921C153.65 20.6521 153.48 21.0119 153.48 21.4219C153.48 22.0219 153.85 22.5322 154.38 22.7422C153.73 22.7122 153.2 22.502 152.69 22.312M156.51 22.1323C156.25 22.2923 156.03 22.412 155.81 22.502C156.12 22.242 156.32 21.8521 156.32 21.4121C156.32 20.8421 155.99 20.3523 155.51 20.1323C155.76 20.1023 155.99 20.0923 156.22 20.0923C157.82 20.1223 158.65 20.562 158.65 20.562C158.49 20.572 158 20.8822 157.48 21.2822C157.24 21.4622 156.79 21.9421 156.51 22.1221" fill="var(--fill-0, #781029)"/>
<path id="Vector_23" d="M155.5 21.4219C155.5 21.7519 155.23 22.022 154.9 22.022C154.57 22.022 154.3 21.7519 154.3 21.4219C154.3 21.0919 154.57 20.8223 154.9 20.8223C155.23 20.8223 155.5 21.0919 155.5 21.4219Z" fill="var(--fill-0, #781029)"/>
<path id="Vector_24" d="M141.61 19.6525C140.44 19.3525 139.15 19.3925 138.19 19.6125C137.02 19.8725 136.28 20.3625 136.28 20.3625C136.28 20.3625 137.21 20.5424 138.76 21.9924C140.31 23.4324 142.35 22.8825 142.35 22.8825C142.35 22.8825 143.75 22.2422 144.24 22.3522C144.73 22.4622 144.96 22.5824 145 22.2624C145 22.2624 144.22 20.3125 141.61 19.6525ZM141.16 22.5422C140.47 22.5422 139.91 21.9822 139.91 21.2922C139.91 20.6722 140.36 20.1522 140.96 20.0622C141.19 20.0922 141.44 20.1321 141.71 20.1721C142.12 20.3721 142.41 20.8022 142.41 21.2922C142.41 21.9822 141.85 22.5422 141.16 22.5422ZM138.58 21.1623C138.06 20.7623 137.58 20.4521 137.41 20.4421C137.41 20.4421 138.24 20.0023 139.84 19.9723C140.07 19.9723 140.3 19.9824 140.55 20.0124C140.07 20.2424 139.74 20.7222 139.74 21.2922C139.74 21.7322 139.94 22.1225 140.25 22.3825C140.03 22.2925 139.81 22.1724 139.55 22.0124C139.26 21.8324 138.82 21.3521 138.58 21.1721M143.37 22.1823C142.86 22.3723 142.33 22.5825 141.68 22.6125C142.21 22.4025 142.58 21.8922 142.58 21.2922C142.58 20.8922 142.41 20.5224 142.14 20.2624C144.05 20.8724 144.63 22.1721 144.63 22.1721C144.63 22.1721 144.05 21.9221 143.37 22.1721" fill="var(--fill-0, #781029)"/>
<path id="Vector_25" d="M140.56 21.292C140.56 21.622 140.83 21.8921 141.16 21.8921C141.49 21.8921 141.76 21.622 141.76 21.292C141.76 20.962 141.49 20.6919 141.16 20.6919C140.83 20.6919 140.56 20.962 140.56 21.292Z" fill="var(--fill-0, #781029)"/>
<path id="Vector_26" d="M157 15.7224C157 15.7224 159.01 14.1225 157.7 10.3025C156.52 7.09249 154.29 6.35235 153.53 4.41235C152.78 2.51235 152.15 0.312193 148.15 0.502193C148.69 0.812193 149.31 1.08227 149.68 1.08227C150.31 1.08227 150.73 1.19247 151.04 1.53247C151.35 1.87247 151.35 2.48255 151.43 2.86255C151.5 3.20255 151.63 3.49243 151.63 3.49243C151.63 3.49243 151.87 4.04251 152.08 4.57251C152.5 5.60251 151.9 6.00219 151.9 6.00219C152.3 5.44219 151.75 4.15223 151.49 3.79223C151.23 3.43223 151.16 3.23213 150.98 2.44213C150.8 1.65213 150.22 1.50219 150.22 1.50219C150.05 1.45219 149.38 1.42231 149.26 1.37231C146.95 0.552311 147.15 0.0321935 146.08 0.00219346C145.53 -0.0178065 145.07 0.102408 144.75 0.222408C144.62 0.292408 144.52 0.362369 144.43 0.432369C144.3 0.542369 144.21 0.632154 144.15 0.712154C144.05 0.852154 143.92 0.962252 143.78 1.06225C143.12 1.50225 141.53 2.86251 142.36 5.32251C142.36 5.32251 142.87 7.64221 146.82 9.52221C147.26 9.73221 147.67 9.92255 148.05 10.1125C147.67 10.6825 147.12 11.7225 146.97 13.0725C146.9 13.7325 146.96 14.3521 147.09 14.9221C146.72 14.6721 146.33 14.3822 145.93 14.0422C141.88 10.6022 139.53 11.0623 138.7 11.1223C137.87 11.1823 134.01 12.2724 134.47 15.7624C134.96 19.5224 139.11 18.9024 140.35 19.0124C141.45 19.1024 143.95 19.1923 146.88 20.8723C148.15 21.4423 149.49 21.2424 150.64 20.7424C150.9 20.6324 154.84 18.2325 157.74 19.2825C160.64 20.3325 161.24 22.5326 160.25 24.6326C159.26 26.7326 154.8 27.8122 151.16 26.2322C146.8 24.3422 144.88 26.5521 144.38 27.4421C143.87 28.3321 144.19 29.1526 144.68 29.1526C144.68 29.1526 145 29.1722 145.13 28.7522C145.26 28.3322 145.41 27.4325 147.12 27.0725C148.84 26.7125 150.43 27.5825 151.26 27.8625C152.09 28.1425 154.06 28.8422 156.63 28.5022C159.2 28.1622 163.21 26.1723 163.72 21.3323C163.76 16.3023 157.71 15.7124 157.01 15.7424M157.22 14.9822C156.61 15.9022 155.56 15.7522 155.56 15.7522C154.71 15.5622 155.09 14.5024 155.6 14.4924C156.11 14.4924 157.26 14.0426 157.52 13.6326C157.6 13.5026 157.83 14.0522 157.22 14.9822ZM157.57 13.1023C157.1 13.9623 155.53 14.1023 155.53 14.1023C155.09 14.1023 154.7 13.1222 155.45 12.7322C156.51 12.6422 157.43 11.9423 157.53 11.8523C157.63 11.7623 158.04 12.2523 157.57 13.1023ZM156.89 10.0325C157.06 9.79247 157.47 10.2121 157.59 10.6921C157.7 11.1821 157.49 11.6522 156.73 12.0222C155.97 12.3922 155.47 12.2922 155.47 12.2922C155.47 12.2922 154.83 12.2924 154.61 11.9924C154.35 11.6524 154.31 11.3023 155.08 11.1223C155.85 10.9423 156.72 10.2725 156.89 10.0325ZM156.64 9.08227C156.74 9.36227 156.82 9.90235 155.87 10.4123C155.25 10.7523 154.75 10.8921 154.32 10.9221C153.38 11.0221 152.67 10.0822 153.4 10.0222C154.13 9.96221 155.28 9.15237 155.65 8.68237C156.02 8.21237 156.55 8.80251 156.65 9.07251M155.41 8.43237C155.24 8.69237 154.97 8.92229 154.71 9.10229C154.16 9.49229 153.45 9.66245 153.02 9.76245C152.76 9.82245 152.34 9.83233 152.08 9.64233C151.69 9.36233 151.54 8.81241 152.04 8.72241C152.04 8.72241 153.47 8.56247 154.73 7.28247C154.89 7.11247 155.94 7.63212 155.41 8.42212M150.77 13.0823C150.69 12.3923 150.51 11.7825 150.3 11.2825C151.72 12.1125 152.32 12.8322 152.32 14.0222C152.32 15.0822 151.59 16.0423 150.25 16.0823C150.61 15.2523 150.89 14.2223 150.76 13.0823M152.9 5.92212C153.06 5.75212 154.76 6.51249 154.23 7.30249C154.06 7.56249 153.55 7.83221 153.13 8.02221C152.52 8.30221 151.92 8.51245 151.31 8.51245C151.05 8.51245 150.52 8.46221 150.25 8.27221C149.86 7.99221 149.71 7.44229 150.21 7.35229C150.21 7.35229 151.64 7.19235 152.9 5.91235M148.16 6.04223C148.42 5.80223 149.02 5.77221 149.02 5.77221C149.02 5.77221 149.32 5.88241 149.51 5.97241C149.92 6.17241 150.56 6.72223 150.72 6.79223C150.52 6.83223 149.58 7.08243 148.88 6.99243C148.48 6.94243 148.19 6.68217 148.08 6.48217C147.96 6.29217 148.05 6.13247 148.16 6.03247M147.23 5.59253C146.53 5.40253 146.63 4.78247 146.63 4.78247C146.69 4.50247 147.71 4.62231 147.71 4.62231C148.07 5.37231 148.5 5.49243 148.5 5.49243C148.5 5.49243 147.93 5.79253 147.24 5.59253M149.06 3.81225C149.06 3.81225 149.46 3.79229 149.4 4.35229C149.4 4.35229 149.04 4.25255 148.98 4.11255C148.92 3.97255 149.06 3.81225 149.06 3.81225ZM148.32 3.92212C148.55 4.75212 149.4 4.91235 149.4 4.91235C150.08 5.08235 150.23 5.57219 150.65 6.00219C151.07 6.43219 151.71 6.20239 151.71 6.20239C151.71 6.20239 151.25 6.48225 150.79 6.31225C150.33 6.14225 149.99 5.51253 149.54 5.34253C149.08 5.17253 148.36 4.86215 148.26 4.46215C147.98 3.32215 147.12 2.18237 147.12 2.18237C147.43 2.38237 148.09 3.09212 148.32 3.92212ZM147.41 3.76245C147.48 4.02245 147.53 4.15258 147.53 4.15258C147.53 4.15258 146.56 4.34233 146.32 3.89233C146.08 3.45233 146.26 3.26239 146.32 3.20239C146.57 2.99239 147 3.10231 147.08 3.12231C147.08 3.12231 147.34 3.51245 147.41 3.76245ZM146.84 2.71215C146.84 2.71215 145.73 2.64227 145.84 1.83227C145.84 1.83227 146.59 2.26215 146.84 2.71215ZM146.67 9.16235C142.57 7.02235 142.09 4.11229 143.13 2.35229C143.61 1.53229 144.19 1.11255 144.73 1.11255C145.64 1.11255 146.1 1.51245 146.1 1.51245C146.1 1.51245 145.54 1.36253 145.02 1.34253C144.25 1.32253 143.21 1.98227 143.03 3.58227C142.75 6.11227 144.5 7.57233 145.79 8.39233C146.73 8.99233 147.96 9.72227 149.26 10.3323L148.46 10.0222C147.89 9.75221 147.38 9.54212 146.67 9.17212M147.79 12.4822C148 11.6322 148.34 11.0825 148.56 10.7825C148.7 10.6025 148.87 10.3923 148.87 10.3923C148.87 10.3923 149.03 10.5922 149.16 10.7522C149.39 11.0422 149.74 11.6122 149.95 12.4822C150 12.7022 150.05 12.9123 150.08 13.1423C149.82 12.7423 149.38 12.4724 148.86 12.4724C148.34 12.4724 147.9 12.7423 147.64 13.1423C147.67 12.9223 147.72 12.7022 147.77 12.4822M148.87 12.6423C149.57 12.6423 150.14 13.2123 150.14 13.9123C150.14 14.6123 149.57 15.1824 148.87 15.1824C148.17 15.1824 147.6 14.6123 147.6 13.9123C147.6 13.2123 148.17 12.6423 148.87 12.6423ZM150.1 14.6326C150.01 15.3326 149.76 16.1225 149.28 17.0925C149.18 17.2925 148.87 17.8323 148.87 17.8323C148.87 17.8323 148.56 17.2823 148.45 17.0823C147.97 16.1123 147.72 15.3226 147.63 14.6326C147.88 15.0526 148.34 15.3323 148.87 15.3323C149.4 15.3323 149.85 15.0526 150.11 14.6326M161.78 24.4026C161.04 26.1226 159.17 27.5222 156.56 27.9622C153.95 28.4122 150.68 26.8625 150.68 26.8625C150.68 26.8625 148.33 25.6323 146.33 26.5823C144.33 27.5323 144.6 28.6423 144.6 28.6423L144.56 28.7024C144.11 27.6224 145.84 25.9925 147.73 25.8625C149.62 25.7325 150 26.5424 153 27.1824C156 27.8224 158.18 27.2524 160.1 25.4924C161.67 24.0524 161.06 21.6225 160.98 21.0725C160.9 20.5325 161.29 20.9124 161.4 20.4724C161.51 20.0324 159.36 17.4123 155.94 17.3723C152.52 17.3323 151.36 18.3921 150.78 18.9421C150.21 19.4921 150.42 20.2122 150.42 20.2122C150.42 20.2122 149.3 20.6623 148.45 20.6623C147.6 20.6623 146.82 20.2424 146.82 20.2424C147.67 19.4324 147.16 18.3523 146.27 18.1223C145.38 17.8923 143.86 17.7723 140.76 17.6023C139.81 17.5523 137.52 17.2822 136.49 15.9822C135.96 15.3322 135.5 14.1222 136.06 13.2722C137.81 10.6222 141.61 11.8226 142.37 12.1326C143.13 12.4526 143.79 12.7421 145.9 14.4421C146.83 15.2021 147.3 15.8123 147.49 16.1023C147.51 16.1523 147.53 16.2022 147.56 16.2522C146.05 15.2622 142.44 14.0823 141.02 14.0823C139.6 14.0823 138.6 14.6326 138.6 14.6326C140.64 14.5426 143.33 15.1424 145.88 16.4324C146.73 16.8624 147.48 17.1425 148.12 17.3025C148.21 17.4625 148.3 17.6022 148.37 17.7122C148.49 18.8522 148.11 18.8425 147.86 18.8625C147.55 18.8825 147.3 18.2824 147.84 18.2224C147.84 18.2224 147.56 18.0825 147.36 18.3625C147.16 18.6325 147.43 19.1626 147.95 19.1526C148.45 19.1526 148.88 18.6823 148.88 17.8523H148.89C148.89 18.6823 149.29 19.1721 149.86 19.1721C150.38 19.1721 150.59 18.6425 150.39 18.3625C150.19 18.0825 149.93 18.2224 149.93 18.2224C150.46 18.2824 150.26 18.8523 149.93 18.8523C149.65 18.8523 149.28 18.8522 149.4 17.7122C149.44 17.6422 149.48 17.5622 149.53 17.4822C150.08 17.4822 150.5 17.3724 150.8 17.2224C151.6 16.8324 158.03 14.7126 161.19 17.4026C164.35 20.0926 163.32 22.7424 163.32 22.7424C163.32 22.7424 162.54 22.6723 161.79 24.3923" fill="var(--fill-0, #781029)"/>
<path id="Vector_27" d="M148.87 14.4819C149.2 14.4819 149.47 14.2123 149.47 13.8823C149.47 13.5523 149.2 13.2822 148.87 13.2822C148.54 13.2822 148.27 13.5523 148.27 13.8823C148.27 14.2123 148.54 14.4819 148.87 14.4819Z" fill="var(--fill-0, #781029)"/>
</g>
</svg>
