<svg preserveAspectRatio="xMidYMid meet" width="8" height="15" overflow="visible" style="display: block;" viewBox="0 0 8 15" fill="none" xmlns="http://www.w3.org/2000/svg">
<path id="Vector" d="M3.82706 3.449H6.88242V3.85849H3.82706V11.8435C3.82706 12.4656 3.9373 12.9067 4.16566 13.1823C4.39403 13.4579 4.71689 13.5918 5.14999 13.5918C5.5831 13.5918 5.93747 13.4185 6.24458 13.072C6.54382 12.7255 6.80366 12.1665 7.0084 11.379L7.41789 11.4813C7.07141 13.3791 6.18156 14.3239 4.7405 14.3239C4.27589 14.3239 3.89006 14.2688 3.58295 14.1586C3.28371 14.0483 3.01596 13.8752 2.77972 13.6468C2.48049 13.3397 2.26788 12.9695 2.14976 12.5364C2.03164 12.0954 1.97649 11.5048 1.97649 10.7646V3.85849H0V3.449H1.97649V0.291454C2.74821 0.26783 3.36247 0.165367 3.83494 0V3.44131L3.82706 3.449Z" fill="var(--fill-0, #781029)"/>
</svg>
