<svg preserveAspectRatio="xMidYMid meet" width="9" height="4" overflow="visible" style="display: block;" viewBox="0 0 9 4" fill="none" xmlns="http://www.w3.org/2000/svg">
<path id="Vector" d="M6.9612 0.174215C5.97687 -0.0462753 4.66968 -0.0856023 3.46486 0.221508C0.795357 0.898727 0 2.89073 0 2.89073C0.0393732 3.22147 0.275597 3.08788 0.771699 2.97763C1.27568 2.86739 2.70099 3.52093 2.70099 3.52093C2.70099 3.52093 4.7878 4.08778 6.3706 2.60735C7.9534 1.1348 8.91409 0.945913 8.91409 0.945913C8.91409 0.945913 8.15814 0.449642 6.9612 0.181905M3.92155 3.16642C3.22071 3.16642 2.64587 2.59936 2.64587 1.89064C2.64587 1.38666 2.93725 0.953788 3.36248 0.749047C3.6381 0.709674 3.89007 0.670378 4.13418 0.631005C4.74053 0.7255 5.20512 1.25279 5.20512 1.89064C5.20512 2.59936 4.63028 3.16642 3.92944 3.16642M1.66942 2.79653C0.976451 2.53667 0.385849 2.79653 0.385849 2.79653C0.385849 2.79653 0.97648 1.46573 2.92939 0.843635C2.65378 1.11137 2.48053 1.48116 2.48053 1.89064C2.48053 2.50486 2.86637 3.02494 3.40185 3.23755C2.7325 3.20606 2.18914 2.9934 1.66942 2.79653ZM5.56737 2.62312C5.30751 2.78849 5.07129 2.91446 4.8508 3.00109C5.17366 2.73335 5.37051 2.33949 5.37051 1.89064C5.37051 1.30792 5.0319 0.812075 4.5358 0.583711C4.78779 0.552212 5.03189 0.536232 5.26813 0.544107C6.90606 0.575606 7.75654 1.02474 7.75654 1.02474C7.59118 1.03261 7.09506 1.35543 6.55958 1.76491C6.31547 1.9539 5.85873 2.4422 5.56737 2.63119" fill="var(--fill-0, #781029)"/>
</svg>
