<svg preserveAspectRatio="none" width="100%" height="100%" overflow="visible" style="display: block;" viewBox="0 0 313 155" fill="none" xmlns="http://www.w3.org/2000/svg">
<g id="300-hour-logo">
<path d="M190.46 72.46C180.13 72.46 171.72 64.0502 171.72 53.7202C171.72 43.3902 180.13 34.98 190.46 34.98C200.79 34.98 209.2 43.3902 209.2 53.7202C209.2 64.0502 200.79 72.46 190.46 72.46ZM190.46 35.3604C180.34 35.3604 172.1 43.6002 172.1 53.7202C172.1 63.8402 180.34 72.0801 190.46 72.0801C200.58 72.0801 208.82 63.8502 208.82 53.7202C208.82 43.5902 200.58 35.3604 190.46 35.3604Z" fill="var(--fill-0, #781029)"/>
<path d="M190.46 91.0103C180.13 91.0103 171.72 82.6 171.72 72.27C171.72 61.94 180.13 53.5303 190.46 53.5303C200.79 53.5303 209.2 61.94 209.2 72.27C209.2 82.6 200.79 91.0103 190.46 91.0103ZM190.46 53.9102C180.34 53.9102 172.1 62.15 172.1 72.27C172.1 82.39 180.34 90.6304 190.46 90.6304C200.58 90.6304 208.82 82.4 208.82 72.27C208.82 62.14 200.58 53.9102 190.46 53.9102Z" fill="var(--fill-0, #781029)"/>
<path d="M190.46 53.9204C180.13 53.9204 171.72 45.5102 171.72 35.1802C171.72 24.8502 180.13 16.4399 190.46 16.4399C200.79 16.4399 209.2 24.8502 209.2 35.1802C209.2 45.5102 200.79 53.9204 190.46 53.9204ZM190.46 16.8203C180.34 16.8203 172.1 25.0602 172.1 35.1802C172.1 45.3002 180.34 53.54 190.46 53.54C200.58 53.54 208.82 45.3002 208.82 35.1802C208.82 25.0602 200.58 16.8203 190.46 16.8203Z" fill="var(--fill-0, #781029)"/>
<path d="M206.52 63.1899C196.19 63.1899 187.78 54.7802 187.78 44.4502C187.78 34.1202 196.19 25.71 206.52 25.71C216.85 25.71 225.26 34.1202 225.26 44.4502C225.26 54.7802 216.85 63.1899 206.52 63.1899ZM206.52 26.0903C196.4 26.0903 188.16 34.3302 188.16 44.4502C188.16 54.5702 196.4 62.8101 206.52 62.8101C216.64 62.8101 224.88 54.5802 224.88 44.4502C224.88 34.3202 216.64 26.0903 206.52 26.0903Z" fill="var(--fill-0, #781029)"/>
<path d="M206.52 81.73C196.19 81.73 187.78 73.3202 187.78 62.9902C187.78 52.6602 196.19 44.25 206.52 44.25C216.85 44.25 225.26 52.6602 225.26 62.9902C225.26 73.3202 216.85 81.73 206.52 81.73ZM206.52 44.6304C196.4 44.6304 188.16 52.8602 188.16 62.9902C188.16 73.1202 196.4 81.3501 206.52 81.3501C216.64 81.3501 224.88 73.1202 224.88 62.9902C224.88 52.8602 216.64 44.6304 206.52 44.6304Z" fill="var(--fill-0, #781029)"/>
<path d="M174.4 81.7402C164.07 81.7402 155.66 73.33 155.66 63C155.66 52.67 164.07 44.2603 174.4 44.2603C184.73 44.2603 193.14 52.67 193.14 63C193.14 73.33 184.73 81.7402 174.4 81.7402ZM174.4 44.6401C164.28 44.6401 156.04 52.88 156.04 63C156.04 73.12 164.28 81.3604 174.4 81.3604C184.52 81.3604 192.76 73.13 192.76 63C192.76 52.87 184.52 44.6401 174.4 44.6401Z" fill="var(--fill-0, #781029)"/>
<path d="M174.4 63.1899C164.07 63.1899 155.66 54.7802 155.66 44.4502C155.66 34.1202 164.07 25.71 174.4 25.71C184.73 25.71 193.14 34.1202 193.14 44.4502C193.14 54.7802 184.73 63.1899 174.4 63.1899ZM174.4 26.0903C164.28 26.0903 156.04 34.3302 156.04 44.4502C156.04 54.5702 164.28 62.8101 174.4 62.8101C184.52 62.8101 192.76 54.5802 192.76 44.4502C192.76 34.3202 184.52 26.0903 174.4 26.0903Z" fill="var(--fill-0, #781029)"/>
<path d="M190.5 91.23L190.34 90.9502L158.13 35.1602H222.88L222.72 35.4502L190.51 91.2402L190.5 91.23ZM158.79 35.54L190.51 90.48L222.23 35.5503H158.8L158.79 35.54Z" fill="var(--fill-0, #781029)"/>
<path d="M206.37 63.1704L190.39 35.46L190.55 35.3701L190.38 35.2803L190.54 34.96L206.7 62.98L206.37 63.1704Z" fill="var(--fill-0, #781029)"/>
<path d="M174.05 63.54L174.34 62.98L190.38 35.25L190.73 35.4102L190.55 35.3501L190.71 35.4399L174.67 63.1704L174.56 63.1104L174.64 63.2202L174.05 63.54Z" fill="var(--fill-0, #781029)"/>
<path d="M206.55 63.29L174.5 63.2803L174.52 62.9102H206.55V63.29Z" fill="var(--fill-0, #781029)"/>
<path d="M175.05 62.9399C175.05 63.3599 174.71 63.7002 174.29 63.7002C173.87 63.7002 173.53 63.3599 173.53 62.9399C173.53 62.5199 173.87 62.1802 174.29 62.1802C174.71 62.1802 175.05 62.5199 175.05 62.9399Z" fill="var(--fill-0, #781029)"/>
<path d="M175.2 81.5503C175.2 81.9703 174.86 82.3101 174.44 82.3101C174.02 82.3101 173.68 81.9703 173.68 81.5503C173.68 81.1303 174.02 80.79 174.44 80.79C174.86 80.79 175.2 81.1303 175.2 81.5503Z" fill="var(--fill-0, #781029)"/>
<path d="M207.3 81.5503C207.3 81.9703 206.96 82.3101 206.54 82.3101C206.12 82.3101 205.78 81.9703 205.78 81.5503C205.78 81.1303 206.12 80.79 206.54 80.79C206.96 80.79 207.3 81.1303 207.3 81.5503Z" fill="var(--fill-0, #781029)"/>
<path d="M207.31 63.02C207.31 63.44 206.97 63.7803 206.55 63.7803C206.13 63.7803 205.79 63.44 205.79 63.02C205.79 62.6 206.13 62.2603 206.55 62.2603C206.97 62.2603 207.31 62.6 207.31 63.02Z" fill="var(--fill-0, #781029)"/>
<path d="M165.93 46.9399C165.93 47.3599 165.59 47.7002 165.17 47.7002C164.75 47.7002 164.41 47.3599 164.41 46.9399C164.41 46.5199 164.75 46.1802 165.17 46.1802C165.59 46.1802 165.93 46.5199 165.93 46.9399Z" fill="var(--fill-0, #781029)"/>
<path d="M159.13 53.7603C159.13 54.1803 158.79 54.52 158.37 54.52C157.95 54.52 157.61 54.1803 157.61 53.7603C157.61 53.3403 157.95 53 158.37 53C158.79 53 159.13 53.3403 159.13 53.7603Z" fill="var(--fill-0, #781029)"/>
<path d="M223.33 53.7603C223.33 54.1803 222.99 54.52 222.57 54.52C222.15 54.52 221.81 54.1803 221.81 53.7603C221.81 53.3403 222.15 53 222.57 53C222.99 53 223.33 53.3403 223.33 53.7603Z" fill="var(--fill-0, #781029)"/>
<path d="M172.67 35.29C172.67 35.71 172.33 36.0503 171.91 36.0503C171.49 36.0503 171.15 35.71 171.15 35.29C171.15 34.87 171.49 34.5303 171.91 34.5303C172.33 34.5303 172.67 34.87 172.67 35.29Z" fill="var(--fill-0, #781029)"/>
<path d="M209.8 35.3301C209.8 35.7501 209.46 36.0903 209.04 36.0903C208.62 36.0903 208.28 35.7501 208.28 35.3301C208.28 34.9101 208.62 34.5703 209.04 34.5703C209.46 34.5703 209.8 34.9101 209.8 35.3301Z" fill="var(--fill-0, #781029)"/>
<path d="M216.59 46.98C216.59 47.4 216.25 47.7402 215.83 47.7402C215.41 47.7402 215.07 47.4 215.07 46.98C215.07 46.56 215.41 46.2202 215.83 46.2202C216.25 46.2202 216.59 46.56 216.59 46.98Z" fill="var(--fill-0, #781029)"/>
<path d="M191.27 72.29C191.27 72.71 190.93 73.0503 190.51 73.0503C190.09 73.0503 189.75 72.71 189.75 72.29C189.75 71.87 190.09 71.5303 190.51 71.5303C190.93 71.5303 191.27 71.87 191.27 72.29Z" fill="var(--fill-0, #781029)"/>
<path d="M191.29 90.8604C191.29 91.2804 190.95 91.6201 190.53 91.6201C190.11 91.6201 189.77 91.2804 189.77 90.8604C189.77 90.4404 190.11 90.1001 190.53 90.1001C190.95 90.1001 191.29 90.4404 191.29 90.8604Z" fill="var(--fill-0, #781029)"/>
<path d="M191.19 53.7402C191.19 54.1602 190.85 54.5 190.43 54.5C190.01 54.5 189.67 54.1602 189.67 53.7402C189.67 53.3202 190.01 52.98 190.43 52.98C190.85 52.98 191.19 53.3202 191.19 53.7402Z" fill="var(--fill-0, #781029)"/>
<path d="M159.12 35.29C159.12 35.71 158.78 36.0503 158.36 36.0503C157.94 36.0503 157.6 35.71 157.6 35.29C157.6 34.87 157.94 34.5303 158.36 34.5303C158.78 34.5303 159.12 34.87 159.12 35.29Z" fill="var(--fill-0, #781029)"/>
<path d="M223.35 35.3501C223.35 35.7701 223.01 36.1104 222.59 36.1104C222.17 36.1104 221.83 35.7701 221.83 35.3501C221.83 34.9301 222.17 34.5903 222.59 34.5903C223.01 34.5903 223.35 34.9301 223.35 35.3501Z" fill="var(--fill-0, #781029)"/>
<path d="M191.23 35.21C191.23 35.63 190.89 35.9702 190.47 35.9702C190.05 35.9702 189.71 35.63 189.71 35.21C189.71 34.79 190.05 34.4502 190.47 34.4502C190.89 34.4502 191.23 34.79 191.23 35.21Z" fill="var(--fill-0, #781029)"/>
<path d="M193.4 21.1304L194.21 10.2202C194.21 10.1102 194.13 10.01 194.02 10C193.91 10 193.81 10.0799 193.8 10.1899L193.01 20.8501C193.14 20.9401 193.27 21.0304 193.4 21.1304Z" fill="var(--fill-0, #781029)"/>
<path d="M195.81 23.4601L199.38 0.900537C199.4 0.790537 199.32 0.680303 199.21 0.660303C199.1 0.640303 198.99 0.720225 198.98 0.830225L195.46 23.0304C195.58 23.1704 195.7 23.3103 195.81 23.4503" fill="var(--fill-0, #781029)"/>
<path d="M190.91 19.6201L190.89 0.209961C190.89 0.0999609 190.8 0 190.68 0C190.57 0 190.47 0.0899609 190.47 0.209961L190.49 19.4302C190.63 19.4902 190.77 19.5601 190.9 19.6201" fill="var(--fill-0, #781029)"/>
<path d="M151.84 74.8604C151.74 74.9104 151.7 75.0401 151.76 75.1401C151.8 75.2101 151.87 75.25 151.94 75.25C151.97 75.25 152.01 75.25 152.04 75.23L160.69 70.5703C160.69 70.4103 160.69 70.2601 160.69 70.1001L151.84 74.8604Z" fill="var(--fill-0, #781029)"/>
<path d="M152.18 32.8201C152.08 32.7701 151.96 32.8002 151.9 32.9002C151.85 33.0002 151.88 33.12 151.98 33.18L160.51 37.8499C160.51 37.6999 160.51 37.5499 160.53 37.3899L152.18 32.8201Z" fill="var(--fill-0, #781029)"/>
<path d="M206.99 24.0303L216.25 6.62019C216.3 6.52019 216.27 6.40041 216.17 6.34041C216.07 6.29041 215.95 6.33025 215.89 6.43025L206.53 24.0303C206.68 24.0303 206.83 24.0303 206.99 24.0303Z" fill="var(--fill-0, #781029)"/>
<path d="M207.94 13.5801L203.3 24.3902C203.46 24.3502 203.63 24.3203 203.79 24.2803L208.32 13.7403C208.36 13.6403 208.32 13.5203 208.21 13.4703C208.11 13.4303 207.99 13.4701 207.94 13.5801Z" fill="var(--fill-0, #781029)"/>
<path d="M197.69 26.5905L201.41 11.3903C201.44 11.2803 201.37 11.1703 201.26 11.1403C201.15 11.1103 201.04 11.1802 201.01 11.2902L197.41 25.9904C197.51 26.1804 197.6 26.3805 197.69 26.5905Z" fill="var(--fill-0, #781029)"/>
<path d="M200.61 25.3206L208.06 3.07055C208.1 2.96055 208.04 2.8503 207.93 2.8103C207.82 2.7703 207.71 2.83018 207.67 2.94018L200.1 25.5505C200.27 25.4705 200.44 25.4006 200.61 25.3206Z" fill="var(--fill-0, #781029)"/>
<path d="M146.67 53.8003C146.56 53.8003 146.46 53.89 146.46 54C146.46 54.11 146.55 54.21 146.66 54.21L155.89 54.2402C155.89 54.2402 155.89 54.22 155.88 54.21C155.94 54.08 156 53.9601 156.06 53.8301L146.66 53.8003H146.67Z" fill="var(--fill-0, #781029)"/>
<path d="M148.83 68.4204C148.86 68.5104 148.94 68.5601 149.02 68.5601C149.04 68.5601 149.06 68.5603 149.09 68.5503L161.99 64.1602C162.07 63.9802 162.15 63.8101 162.24 63.6401L148.96 68.1602C148.85 68.2002 148.8 68.3104 148.83 68.4204Z" fill="var(--fill-0, #781029)"/>
<path d="M166.15 17.33C166.06 17.39 166.03 17.5203 166.09 17.6103L171.9 26.3002C171.96 26.1502 172.03 26.0103 172.1 25.8603L166.44 17.3803C166.38 17.2903 166.25 17.2603 166.16 17.3203" fill="var(--fill-0, #781029)"/>
<path d="M155.76 81.29C155.8 81.34 155.86 81.3701 155.92 81.3701C155.96 81.3701 156.01 81.3601 156.05 81.3301L165.8 73.7603C165.63 73.7203 165.45 73.6901 165.28 73.6401L155.79 81C155.7 81.07 155.68 81.2 155.75 81.29" fill="var(--fill-0, #781029)"/>
<path d="M210.11 29.2403L223.73 11.4801C223.8 11.3901 223.78 11.26 223.69 11.19C223.6 11.12 223.47 11.1401 223.4 11.2301L209.97 28.7301C210.02 28.9001 210.06 29.0703 210.1 29.2403" fill="var(--fill-0, #781029)"/>
<path d="M147.05 61.3101C147.07 61.4101 147.15 61.48 147.25 61.48C147.26 61.48 147.27 61.48 147.28 61.48L160.01 59.3901C159.87 59.2801 159.72 59.16 159.58 59.04L147.21 61.0703C147.1 61.0903 147.02 61.1901 147.04 61.3101" fill="var(--fill-0, #781029)"/>
<path d="M155.94 26.7805C155.87 26.8705 155.89 27.0005 155.97 27.0705L165.5 34.5705C165.67 34.5305 165.85 34.4902 166.02 34.4602L156.22 26.7502C156.13 26.6802 156 26.7005 155.93 26.7805" fill="var(--fill-0, #781029)"/>
<path d="M160.7 21.9002C160.62 21.8202 160.49 21.8102 160.41 21.9002C160.33 21.9802 160.32 22.1098 160.41 22.1898L170.55 32.9798C170.55 32.7898 170.57 32.6 170.58 32.41L160.71 21.91L160.7 21.9002Z" fill="var(--fill-0, #781029)"/>
<path d="M160.71 86.6899C160.71 86.6899 160.8 86.7402 160.85 86.7402C160.91 86.7402 160.96 86.7204 161 86.6704L170.95 75.8804C170.95 75.6704 170.95 75.46 170.97 75.25L160.69 86.3804C160.61 86.4604 160.62 86.5904 160.7 86.6704" fill="var(--fill-0, #781029)"/>
<path d="M148.92 39.6003C148.88 39.7103 148.94 39.8206 149.05 39.8606L161.97 44.3503C161.89 44.1803 161.8 44.0103 161.73 43.8303L149.19 39.4705C149.08 39.4305 148.97 39.4903 148.93 39.6003" fill="var(--fill-0, #781029)"/>
<path d="M147.33 46.5304C147.22 46.5104 147.11 46.5903 147.09 46.7003C147.07 46.8103 147.15 46.9201 147.26 46.9401L159.81 49.0802C159.95 48.9602 160.1 48.8504 160.25 48.7404L147.33 46.5304Z" fill="var(--fill-0, #781029)"/>
<path d="M214.69 16.9205C214.59 16.8605 214.47 16.8901 214.41 16.9801L208.79 25.7101C208.86 25.8501 208.94 25.9905 209.01 26.1305L214.75 17.2003C214.81 17.1003 214.78 16.9805 214.69 16.9205Z" fill="var(--fill-0, #781029)"/>
<path d="M220.52 86.6401C220.52 86.6401 220.62 86.71 220.67 86.71C220.72 86.71 220.77 86.6902 220.81 86.6602C220.89 86.5802 220.9 86.4501 220.82 86.3701L210.85 75.6001C210.85 75.8001 210.85 76.0002 210.85 76.2002L220.53 86.6602L220.52 86.6401Z" fill="var(--fill-0, #781029)"/>
<path d="M232.53 39.5501C232.49 39.4401 232.38 39.3902 232.27 39.4202L219.54 43.8699C219.46 44.0499 219.39 44.2199 219.31 44.3899L232.41 39.8099C232.52 39.7699 232.57 39.6601 232.54 39.5501" fill="var(--fill-0, #781029)"/>
<path d="M212.49 34.1502L230.33 17.5101C230.41 17.4301 230.42 17.3001 230.34 17.2201C230.26 17.1401 230.13 17.1301 230.05 17.2201L211.9 34.14C212.1 34.14 212.29 34.14 212.49 34.16" fill="var(--fill-0, #781029)"/>
<path d="M225.5 26.7402C225.43 26.6502 225.3 26.6399 225.21 26.7099L215.34 34.4902C215.52 34.5202 215.69 34.56 215.86 34.6L225.46 27.0302C225.55 26.9602 225.56 26.8302 225.49 26.7402" fill="var(--fill-0, #781029)"/>
<path d="M220.52 21.6706C220.6 21.5906 220.59 21.4605 220.51 21.3805C220.43 21.3005 220.3 21.3103 220.22 21.3903L210.46 32.1305C210.46 32.3405 210.46 32.5402 210.46 32.7502L220.53 21.6603L220.52 21.6706Z" fill="var(--fill-0, #781029)"/>
<path d="M223.99 51.4397L244.49 49.6399C244.6 49.6399 244.69 49.5302 244.68 49.4202C244.68 49.3102 244.57 49.2198 244.46 49.2298L223.69 51.0501C223.8 51.1801 223.9 51.3097 224 51.4397" fill="var(--fill-0, #781029)"/>
<path d="M229.55 32.8499C229.5 32.7499 229.37 32.7099 229.27 32.7699L220.76 37.4398C220.77 37.5898 220.78 37.7402 220.78 37.9002L229.47 33.1302C229.57 33.0802 229.61 32.9499 229.55 32.8499Z" fill="var(--fill-0, #781029)"/>
<path d="M234.37 46.6403C234.35 46.5303 234.24 46.4504 234.13 46.4704L221.18 48.7003C221.33 48.8103 221.48 48.9302 221.62 49.0402L234.2 46.8703C234.31 46.8503 234.39 46.7405 234.37 46.6305" fill="var(--fill-0, #781029)"/>
<path d="M214.92 91.2002C214.92 91.2002 215 91.1904 215.03 91.1704C215.12 91.1104 215.15 90.9801 215.09 90.8901L209.34 82.1304C209.27 82.2704 209.2 82.4103 209.12 82.5503L214.75 91.1201C214.79 91.1801 214.86 91.21 214.92 91.21" fill="var(--fill-0, #781029)"/>
<path d="M218.68 47.1305L243.01 40.8302C243.12 40.8002 243.19 40.6902 243.16 40.5802C243.13 40.4702 243.02 40.4003 242.91 40.4303L218.13 46.8502C218.32 46.9402 218.5 47.0405 218.68 47.1305Z" fill="var(--fill-0, #781029)"/>
<path d="M234.81 54.1504C234.92 54.1504 235.02 54.0599 235.01 53.9399C235 53.8199 234.92 53.7402 234.8 53.7402L225.44 53.7803C225.46 53.8303 225.49 53.8802 225.52 53.9302C225.48 54.0202 225.44 54.0999 225.4 54.1899L234.81 54.1504Z" fill="var(--fill-0, #781029)"/>
<path d="M220.44 41.1505L240.1 32.3902C240.2 32.3402 240.25 32.2202 240.2 32.1202C240.15 32.0202 240.03 31.9701 239.93 32.0201L220.55 40.6505C220.52 40.8205 220.48 40.9805 220.44 41.1505Z" fill="var(--fill-0, #781029)"/>
<path d="M218.98 35.7001L235.83 24.54C235.92 24.48 235.95 24.3502 235.89 24.2602C235.83 24.1702 235.7 24.1401 235.61 24.2001L218.55 35.4902C218.7 35.5602 218.84 35.6301 218.98 35.7001Z" fill="var(--fill-0, #781029)"/>
<path d="M232.47 68.5103C232.56 68.5103 232.64 68.4601 232.66 68.3701C232.7 68.2601 232.64 68.1504 232.53 68.1104L219.35 63.6401C219.43 63.8101 219.52 63.9802 219.6 64.1602L232.41 68.5C232.41 68.5 232.45 68.5103 232.48 68.5103" fill="var(--fill-0, #781029)"/>
<path d="M229.47 75.1802C229.47 75.1802 229.53 75.2002 229.57 75.2002C229.64 75.2002 229.71 75.1603 229.75 75.0903C229.8 74.9903 229.77 74.8701 229.67 74.8101L220.97 70.1401C220.97 70.2901 220.97 70.4504 220.97 70.6104L229.47 75.1704V75.1802Z" fill="var(--fill-0, #781029)"/>
<path d="M234.2 61.4204C234.2 61.4204 234.22 61.4204 234.23 61.4204C234.33 61.4204 234.42 61.35 234.43 61.25C234.45 61.14 234.37 61.0303 234.26 61.0103L221.67 58.96C221.52 59.08 221.37 59.1903 221.22 59.3003L234.2 61.4102V61.4204Z" fill="var(--fill-0, #781029)"/>
<path d="M225.59 81.3203C225.65 81.3203 225.71 81.2902 225.75 81.2402C225.82 81.1502 225.8 81.0202 225.71 80.9502L216.04 73.4702C215.86 73.5102 215.69 73.5401 215.51 73.5801L225.46 81.2803C225.46 81.2803 225.54 81.3203 225.59 81.3203Z" fill="var(--fill-0, #781029)"/>
<path d="M183.68 81.2002L179.72 96.8203C179.69 96.9303 179.76 97.0403 179.87 97.0703C179.89 97.0703 179.9 97.0703 179.92 97.0703C180.01 97.0703 180.1 97.0104 180.12 96.9204L183.96 81.77C183.86 81.58 183.77 81.3899 183.68 81.1899" fill="var(--fill-0, #781029)"/>
<path d="M195.7 84.96L199.47 107.39C199.49 107.49 199.57 107.56 199.67 107.56C199.68 107.56 199.69 107.56 199.7 107.56C199.81 107.54 199.89 107.44 199.87 107.32L196.05 84.5601C195.94 84.7001 195.82 84.82 195.7 84.96Z" fill="var(--fill-0, #781029)"/>
<path d="M193.3 87.21L194.21 98.0801C194.21 98.1901 194.31 98.27 194.41 98.27H194.43C194.54 98.27 194.63 98.1603 194.62 98.0503L193.69 86.9004C193.56 87.0004 193.44 87.11 193.3 87.21Z" fill="var(--fill-0, #781029)"/>
<path d="M197.94 81.6001C197.85 81.7901 197.76 81.9702 197.66 82.1602L201.42 96.9204C201.44 97.0104 201.53 97.0703 201.62 97.0703C201.64 97.0703 201.65 97.0703 201.67 97.0703C201.78 97.0403 201.85 96.9303 201.82 96.8203L197.95 81.6104L197.94 81.6001Z" fill="var(--fill-0, #781029)"/>
<path d="M190.56 88.3701V108.1C190.57 108.21 190.67 108.31 190.78 108.31C190.89 108.31 190.99 108.22 190.98 108.1V88.5503C190.83 88.4903 190.69 88.4301 190.56 88.3701Z" fill="var(--fill-0, #781029)"/>
<path d="M185.51 84.2803L181.67 107.33C181.65 107.44 181.73 107.55 181.84 107.57C181.85 107.57 181.86 107.57 181.87 107.57C181.97 107.57 182.06 107.5 182.07 107.4L185.85 84.7202C185.73 84.5802 185.62 84.4303 185.51 84.2803Z" fill="var(--fill-0, #781029)"/>
<path d="M173.21 94.5801L177.98 83.7202C177.82 83.7602 177.65 83.7903 177.49 83.8203L172.84 94.4102C172.79 94.5102 172.84 94.6302 172.95 94.6802C172.98 94.6902 173 94.7002 173.03 94.7002C173.11 94.7002 173.18 94.6501 173.22 94.5801" fill="var(--fill-0, #781029)"/>
<path d="M180.67 82.8203L173.02 105.1C172.98 105.21 173.04 105.32 173.15 105.36C173.17 105.36 173.19 105.37 173.22 105.37C173.31 105.37 173.39 105.32 173.41 105.23L181.19 82.5801C181.02 82.6601 180.85 82.7403 180.67 82.8203Z" fill="var(--fill-0, #781029)"/>
<path d="M187.85 86.7002L186.91 98.0503C186.91 98.1603 186.98 98.26 187.1 98.27C187.1 98.27 187.11 98.27 187.12 98.27C187.23 98.27 187.32 98.1901 187.32 98.0801L188.23 86.9902C188.1 86.8902 187.97 86.7899 187.84 86.6899" fill="var(--fill-0, #781029)"/>
<path d="M200.76 82.5703C200.58 82.4903 200.41 82.4001 200.24 82.3101L208.14 105.21C208.17 105.3 208.25 105.35 208.33 105.35C208.35 105.35 208.37 105.35 208.4 105.34C208.51 105.3 208.56 105.19 208.53 105.08L200.76 82.5703Z" fill="var(--fill-0, #781029)"/>
<path d="M212.52 73.8203C212.31 73.8203 212.1 73.8103 211.88 73.8003L230.38 90.7402C230.38 90.7402 230.47 90.79 230.52 90.79C230.58 90.79 230.63 90.7702 230.67 90.7202C230.75 90.6402 230.74 90.5102 230.66 90.4302L212.52 73.8203Z" fill="var(--fill-0, #781029)"/>
<path d="M203.97 83.6602C203.8 83.6202 203.63 83.5903 203.47 83.5503L208.32 94.5703C208.35 94.6503 208.43 94.6899 208.51 94.6899C208.54 94.6899 208.57 94.6904 208.59 94.6704C208.69 94.6204 208.74 94.5004 208.69 94.4004L203.96 83.6602H203.97Z" fill="var(--fill-0, #781029)"/>
<path d="M243.13 66.9902L218.53 60.8604C218.33 60.9504 218.13 61.0401 217.92 61.1201C217.92 61.1201 217.92 61.1301 217.92 61.1401L243.02 67.3901C243.02 67.3901 243.05 67.3901 243.07 67.3901C243.16 67.3901 243.25 67.33 243.27 67.23C243.3 67.12 243.23 67.01 243.12 66.98" fill="var(--fill-0, #781029)"/>
<path d="M244.53 58.1704L224 56.5601C223.9 56.6901 223.8 56.8202 223.7 56.9502L244.49 58.5801C244.49 58.5801 244.5 58.5801 244.51 58.5801C244.62 58.5801 244.71 58.5001 244.71 58.3901C244.71 58.2801 244.63 58.1804 244.52 58.1704" fill="var(--fill-0, #781029)"/>
<path d="M236.1 83.3403L219.14 72.3403C219 72.4103 218.86 72.4901 218.72 72.5601L235.88 83.6899C235.88 83.6899 235.95 83.7202 235.99 83.7202C236.06 83.7202 236.12 83.6904 236.16 83.6304C236.22 83.5304 236.19 83.4101 236.1 83.3501" fill="var(--fill-0, #781029)"/>
<path d="M240.3 75.46L220.55 66.8804C220.59 67.0404 220.63 67.2104 220.66 67.3804L240.13 75.8403C240.13 75.8403 240.18 75.8604 240.21 75.8604C240.29 75.8604 240.37 75.8102 240.4 75.7402C240.44 75.6402 240.4 75.5102 240.29 75.4702" fill="var(--fill-0, #781029)"/>
<path d="M174.29 84.0801L164.86 101.48C164.81 101.58 164.84 101.7 164.94 101.76C164.97 101.78 165.01 101.79 165.04 101.79C165.11 101.79 165.18 101.75 165.22 101.68L174.76 84.0801C174.61 84.0801 174.45 84.0801 174.29 84.0801Z" fill="var(--fill-0, #781029)"/>
<path d="M207.18 83.96C207.02 83.96 206.87 83.96 206.71 83.96L216.32 101.64C216.36 101.71 216.43 101.75 216.5 101.75C216.53 101.75 216.57 101.75 216.6 101.72C216.7 101.67 216.74 101.54 216.68 101.44L207.17 83.9502L207.18 83.96Z" fill="var(--fill-0, #781029)"/>
<path d="M210.46 79.0303C210.42 79.2003 210.38 79.37 210.33 79.54L223.81 96.77C223.85 96.82 223.91 96.8501 223.97 96.8501C224.01 96.8501 224.06 96.8401 224.1 96.8101C224.19 96.7401 224.21 96.61 224.14 96.52L210.47 79.0303H210.46Z" fill="var(--fill-0, #781029)"/>
<path d="M141.35 32.4599L160.8 41.1C160.76 40.94 160.73 40.7703 160.7 40.6103L141.51 32.0903C141.41 32.0403 141.28 32.0901 141.24 32.2001C141.19 32.3001 141.24 32.4201 141.34 32.4701" fill="var(--fill-0, #781029)"/>
<path d="M145.61 24.6104L162.38 35.6802C162.52 35.6102 162.67 35.54 162.82 35.48L145.84 24.2701C145.75 24.2101 145.62 24.2301 145.55 24.3301C145.49 24.4201 145.51 24.5504 145.61 24.6104Z" fill="var(--fill-0, #781029)"/>
<path d="M170.92 29.56C170.95 29.38 170.99 29.21 171.03 29.04L157.33 11.8002C157.26 11.7102 157.13 11.6999 157.04 11.7699C156.95 11.8399 156.94 11.97 157.01 12.06L170.93 29.56H170.92Z" fill="var(--fill-0, #781029)"/>
<path d="M177.02 24.19C177.19 24.22 177.35 24.2503 177.51 24.2803L172.83 13.8804C172.78 13.7804 172.66 13.7303 172.56 13.7803C172.46 13.8303 172.41 13.9504 172.46 14.0504L177.03 24.19H177.02Z" fill="var(--fill-0, #781029)"/>
<path d="M168.99 34.2004C169.2 34.2004 169.41 34.2201 169.62 34.2301L151.38 17.2604C151.3 17.1804 151.17 17.1902 151.09 17.2702C151.01 17.3502 151.02 17.4802 151.1 17.5602L168.99 34.2004Z" fill="var(--fill-0, #781029)"/>
<path d="M173.82 24.0301C173.97 24.0201 174.13 24.0101 174.28 24.0101L164.78 6.86997C164.73 6.76997 164.6 6.72989 164.5 6.78989C164.4 6.84989 164.37 6.97016 164.42 7.07016L173.82 24.0301Z" fill="var(--fill-0, #781029)"/>
<path d="M171.26 78.8003L157.4 96.5703C157.33 96.6603 157.35 96.7904 157.44 96.8604C157.48 96.8904 157.52 96.9004 157.57 96.9004C157.63 96.9004 157.69 96.8703 157.73 96.8203L171.39 79.3101C171.35 79.1401 171.31 78.9703 171.27 78.8003" fill="var(--fill-0, #781029)"/>
<path d="M185.49 23.2003L181.58 0.990381C181.56 0.880381 181.45 0.800459 181.34 0.820459C181.23 0.840459 181.15 0.950205 181.17 1.06021L185.14 23.6105C185.25 23.4705 185.37 23.3301 185.48 23.1901" fill="var(--fill-0, #781029)"/>
<path d="M187.9 20.93L186.92 10.2498C186.91 10.1398 186.81 10.0498 186.7 10.0598C186.59 10.0698 186.5 10.1701 186.51 10.2801L187.51 21.22C187.64 21.12 187.77 21.0202 187.9 20.9202" fill="var(--fill-0, #781029)"/>
<path d="M183.24 26.4704C183.34 26.3004 183.43 26.1301 183.53 25.9601L179.72 11.4801C179.69 11.3701 179.58 11.3002 179.47 11.3302C179.36 11.3602 179.29 11.4702 179.32 11.5802L183.24 26.4704Z" fill="var(--fill-0, #781029)"/>
<path d="M180.26 25.1702C180.44 25.2502 180.61 25.3202 180.78 25.4002L172.93 3.22978C172.89 3.11978 172.78 3.06989 172.67 3.09989C172.56 3.13989 172.51 3.26015 172.54 3.36015L180.26 25.16V25.1702Z" fill="var(--fill-0, #781029)"/>
<path d="M162.16 72.5L145.41 83.4004C145.31 83.4604 145.29 83.5902 145.35 83.6802C145.39 83.7402 145.46 83.77 145.52 83.77C145.56 83.77 145.6 83.7602 145.63 83.7402L162.59 72.71C162.44 72.64 162.3 72.57 162.16 72.5Z" fill="var(--fill-0, #781029)"/>
<path d="M162.49 61.0103L138.36 67.0503C138.25 67.0803 138.18 67.1903 138.21 67.3003C138.23 67.3903 138.32 67.46 138.41 67.46C138.43 67.46 138.44 67.46 138.46 67.46L163.03 61.3101C162.85 61.2201 162.67 61.12 162.49 61.02" fill="var(--fill-0, #781029)"/>
<path d="M161.07 66.8604L141.21 75.52C141.11 75.56 141.06 75.69 141.1 75.79C141.13 75.87 141.21 75.9102 141.29 75.9102C141.32 75.9102 141.35 75.9101 141.37 75.8901L160.96 67.3501C160.99 67.1801 161.03 67.0204 161.06 66.8604" fill="var(--fill-0, #781029)"/>
<path d="M166.49 91.2002C166.49 91.2002 166.56 91.23 166.6 91.23C166.67 91.23 166.73 91.2001 166.77 91.1401L172.54 82.3203C172.47 82.1803 172.4 82.0401 172.33 81.8901L166.43 90.9102C166.37 91.0002 166.39 91.1299 166.49 91.1899" fill="var(--fill-0, #781029)"/>
<path d="M168.67 74.1304L150.86 90.48C150.78 90.56 150.77 90.69 150.85 90.77C150.89 90.81 150.95 90.8403 151 90.8403C151.05 90.8403 151.1 90.82 151.14 90.79L169.26 74.1602C169.06 74.1602 168.87 74.1601 168.67 74.1401" fill="var(--fill-0, #781029)"/>
<path d="M138.45 40.9005L162.84 47.1803C163.03 47.0903 163.23 47.0003 163.43 46.9103L138.55 40.5001C138.44 40.4701 138.33 40.5405 138.3 40.6505C138.27 40.7605 138.34 40.8705 138.45 40.9005Z" fill="var(--fill-0, #781029)"/>
<path d="M157.28 56.6201L136.95 58.2402C136.84 58.2402 136.75 58.35 136.76 58.46C136.76 58.57 136.86 58.6504 136.96 58.6504C136.96 58.6504 136.97 58.6504 136.98 58.6504L157.58 57.0103C157.48 56.8803 157.38 56.7501 157.28 56.6201Z" fill="var(--fill-0, #781029)"/>
<path d="M136.98 49.71L157.49 51.48C157.59 51.35 157.69 51.2203 157.79 51.0903L137.02 49.29C136.91 49.29 136.81 49.36 136.8 49.48C136.8 49.59 136.87 49.6902 136.99 49.7002" fill="var(--fill-0, #781029)"/>
<path d="M0 135.67V138.27H4.41003V149.44H7.59009V138.27H12V135.67H0Z" fill="var(--fill-0, #781029)"/>
<path d="M24.38 146.89V149.44H13.7101V135.67H24.13V138.23H16.88V141.22H23.28V143.7H16.88V146.89H24.38Z" fill="var(--fill-0, #781029)"/>
<path d="M35.99 146.49H29.5901L28.37 149.44H25.1L31.24 135.66H34.39L40.55 149.44H37.2001L35.98 146.49H35.99ZM34.99 144.07L32.8 138.8L30.62 144.07H34.99Z" fill="var(--fill-0, #781029)"/>
<path d="M44.5801 148.76C43.4501 148.15 42.55 147.3 41.9 146.22C41.25 145.14 40.9301 143.91 40.9301 142.55C40.9301 141.19 41.25 139.96 41.9 138.88C42.55 137.8 43.4401 136.95 44.5801 136.34C45.7101 135.73 46.99 135.43 48.41 135.43C49.6 135.43 50.68 135.64 51.65 136.06C52.61 136.48 53.4201 137.08 54.0801 137.87L52.03 139.76C51.1 138.68 49.9401 138.15 48.5701 138.15C47.7201 138.15 46.96 138.34 46.29 138.71C45.62 139.08 45.1 139.61 44.73 140.27C44.36 140.94 44.17 141.7 44.17 142.55C44.17 143.4 44.36 144.16 44.73 144.83C45.1 145.5 45.63 146.02 46.29 146.39C46.96 146.76 47.7201 146.95 48.5701 146.95C49.9501 146.95 51.1 146.41 52.03 145.32L54.0801 147.21C53.4201 148.01 52.61 148.62 51.64 149.04C50.67 149.46 49.59 149.67 48.39 149.67C46.99 149.67 45.7201 149.37 44.5801 148.76Z" fill="var(--fill-0, #781029)"/>
<path d="M68.86 135.67V149.44H65.67V143.79H59.41V149.44H56.2201V135.67H59.41V141.1H65.67V135.67H68.86Z" fill="var(--fill-0, #781029)"/>
<path d="M82.79 146.89V149.44H72.13V135.67H82.54V138.23H75.29V141.22H81.6901V143.7H75.29V146.89H82.79Z" fill="var(--fill-0, #781029)"/>
<path d="M94.11 149.44L91.4501 145.6H88.52V149.44H85.3301V135.66H91.29C92.51 135.66 93.5701 135.86 94.4701 136.27C95.3701 136.68 96.06 137.25 96.55 138C97.04 138.75 97.28 139.63 97.28 140.66C97.28 141.69 97.03 142.57 96.54 143.31C96.05 144.05 95.3501 144.62 94.4401 145.01L97.53 149.44H94.11ZM93.3 138.89C92.8 138.48 92.07 138.27 91.11 138.27H88.51V143.07H91.11C92.07 143.07 92.8 142.86 93.3 142.44C93.8 142.02 94.05 141.43 94.05 140.67C94.05 139.91 93.8 139.3 93.3 138.89Z" fill="var(--fill-0, #781029)"/>
<path d="M216.48 138.5H212.07V135.9H224.08V138.5H219.67V149.68H216.48V138.5Z" fill="var(--fill-0, #781029)"/>
<path d="M234.57 149.68L231.91 145.84H228.98V149.68H225.79V135.9H231.75C232.97 135.9 234.03 136.1 234.93 136.51C235.83 136.92 236.52 137.49 237.01 138.24C237.5 138.99 237.74 139.87 237.74 140.9C237.74 141.93 237.49 142.81 237 143.55C236.51 144.29 235.81 144.86 234.9 145.25L237.99 149.68H234.57ZM233.76 139.12C233.26 138.71 232.53 138.5 231.57 138.5H228.97V143.3H231.57C232.53 143.3 233.26 143.09 233.76 142.67C234.26 142.25 234.51 141.66 234.51 140.9C234.51 140.14 234.26 139.53 233.76 139.12Z" fill="var(--fill-0, #781029)"/>
<path d="M249.33 146.73H242.93L241.71 149.68H238.44L244.58 135.9H247.73L253.89 149.68H250.54L249.32 146.73H249.33ZM248.32 144.31L246.13 139.04L243.95 144.31H248.32Z" fill="var(--fill-0, #781029)"/>
<path d="M258.52 135.9H255.33V149.68H258.52V135.9Z" fill="var(--fill-0, #781029)"/>
<path d="M274.42 135.9V149.68H271.8L264.93 141.31V149.68H261.78V135.9H264.42L271.27 144.27V135.9H274.42Z" fill="var(--fill-0, #781029)"/>
<path d="M280.88 135.9H277.69V149.68H280.88V135.9Z" fill="var(--fill-0, #781029)"/>
<path d="M296.78 135.9V149.68H294.16L287.29 141.31V149.68H284.14V135.9H286.78L293.63 144.27V135.9H296.78Z" fill="var(--fill-0, #781029)"/>
<path d="M309.35 142.57H312.26V148.16C311.51 148.72 310.65 149.16 309.66 149.46C308.68 149.76 307.69 149.91 306.69 149.91C305.26 149.91 303.97 149.61 302.83 149C301.69 148.39 300.79 147.54 300.14 146.46C299.49 145.38 299.17 144.15 299.17 142.79C299.17 141.43 299.49 140.2 300.14 139.12C300.79 138.04 301.69 137.19 302.85 136.58C304 135.97 305.3 135.67 306.75 135.67C307.96 135.67 309.05 135.87 310.04 136.28C311.02 136.69 311.85 137.28 312.52 138.05L310.47 139.94C309.49 138.9 308.3 138.39 306.91 138.39C306.03 138.39 305.25 138.57 304.57 138.94C303.89 139.31 303.36 139.82 302.98 140.49C302.6 141.16 302.41 141.93 302.41 142.79C302.41 143.65 302.6 144.4 302.98 145.07C303.36 145.74 303.89 146.26 304.56 146.63C305.24 147 306.01 147.19 306.87 147.19C307.79 147.19 308.61 146.99 309.35 146.6V142.57Z" fill="var(--fill-0, #781029)"/>
<path d="M103.07 112.53C100.95 113.27 98.62 113.68 96.13 113.68C87.48 113.68 79.73 109.56 74.29 102.07L73.7101 101.28L69.8 104.73L70.27 105.38C76.45 113.94 85.6 118.65 96.02 118.65C98.46 118.65 100.79 118.33 102.99 117.72C102.97 117.15 102.96 116.58 102.96 116.02V115.81C102.96 114.71 103 113.61 103.06 112.51" fill="var(--fill-0, #781029)"/>
<path d="M86.0801 78.1001L87.5601 81.1899H90.99C97.25 81.1899 106.58 82.2802 111.29 88.1602C111.39 88.2802 111.48 88.4103 111.57 88.5303C111.66 88.6603 111.76 88.7802 111.85 88.9102C112.98 90.5502 113.77 92.5304 114.09 94.9204C114.12 95.1704 114.15 95.4302 114.17 95.7002C114.2 95.9902 114.21 96.2801 114.22 96.5801C114.22 96.8301 114.24 97.0701 114.24 97.3301V97.54C114.24 101.26 112.95 104.6 110.76 107.27C110.33 109.65 110.08 112.1 110.02 114.55C115.74 110.72 119.39 104.54 119.39 97.4399V97.23C119.39 94.76 119.02 92.4804 118.32 90.4004C118.27 90.2404 118.21 90.0804 118.15 89.9204C118.09 89.7604 118.03 89.61 117.97 89.46C117.3 87.8 116.41 86.2902 115.29 84.9302C115.19 84.8102 115.1 84.7001 115 84.5801C114.9 84.4701 114.8 84.36 114.7 84.25C110.42 79.54 103.32 76.76 93.8401 76.27L118.09 47.3203L118.3 47.0703V43.3804H73.78V48.4702H110.95L86.0901 78.1104L86.0801 78.1001Z" fill="var(--fill-0, #781029)"/>
<path d="M118.64 88.75C122.4 84.98 127.25 82.6504 133.15 82.6504C140.13 82.6504 145.69 86.0299 149.71 91.1899C149.81 91.3199 149.9 91.4501 150 91.5801C150.1 91.7101 150.2 91.8302 150.29 91.9702C151.45 93.5802 152.48 95.34 153.36 97.21C153.44 97.39 153.52 97.57 153.61 97.75C153.69 97.93 153.78 98.11 153.86 98.29C156.19 103.68 157.39 109.88 157.39 115.94V116.15C157.39 122.22 156.26 128.31 154.05 133.59C154.92 135.55 155.94 137.39 157.12 139.06C160.77 132.37 162.64 124.19 162.64 116.05V115.84C162.64 107.61 160.74 99.3501 157.01 92.6201C156.93 92.4801 156.85 92.3299 156.77 92.1899C156.69 92.0499 156.61 91.91 156.52 91.77C155.6 90.21 154.59 88.7501 153.47 87.3901C153.37 87.2701 153.28 87.15 153.18 87.04C153.08 86.92 152.98 86.8202 152.88 86.7002C148.07 81.2002 141.5 77.6802 133.26 77.6802C126.27 77.6802 120.49 80.2101 115.96 84.3301C117.07 85.6701 117.97 87.1503 118.66 88.7603" fill="var(--fill-0, #781029)"/>
<path d="M133.34 149.22C117.67 149.22 109.18 132.23 109.11 116.16C109.11 116.09 109.11 116.01 109.11 115.94V115.73C109.11 115.73 109.11 115.67 109.11 115.65C109.11 115.48 109.11 115.3 109.11 115.13C109.14 112.9 109.32 110.67 109.64 108.48C109.68 108.23 109.72 107.98 109.76 107.74C109.81 107.45 109.86 107.16 109.91 106.87C110.6 103.15 111.74 99.5901 113.3 96.3901C113.16 93.7001 112.41 91.5102 111.25 89.7202C107.16 95.7002 104.74 103.32 104.06 111.17C104.05 111.34 104.03 111.5 104.02 111.67C104.01 111.84 103.99 112 103.98 112.17C103.9 113.39 103.85 114.61 103.85 115.82V116.03C103.85 116.51 103.86 116.99 103.87 117.47C103.87 117.62 103.87 117.78 103.88 117.93C103.88 118.08 103.9 118.24 103.9 118.39C104.7 136.55 114.74 154.19 133.22 154.19C141.47 154.19 148.03 150.67 152.84 145.17C151.73 143.83 150.71 142.39 149.8 140.86C145.83 145.93 140.31 149.2 133.32 149.2" fill="var(--fill-0, #781029)"/>
<path d="M173.67 77.6704C165.42 77.6704 158.86 81.1899 154.04 86.6899C155.15 88.0299 156.17 89.47 157.08 91C161.05 85.93 166.57 82.6602 173.56 82.6602C189.3 82.6602 197.8 99.8099 197.8 115.94V116.15C197.8 132.59 189.54 149.23 173.76 149.23C166.78 149.23 161.22 145.85 157.2 140.69C157.1 140.56 157.01 140.43 156.91 140.3C156.81 140.17 156.71 140.04 156.62 139.91C155.46 138.3 154.43 136.55 153.55 134.67C153.47 134.49 153.39 134.31 153.3 134.13C153.22 133.95 153.13 133.77 153.05 133.59C150.72 128.2 149.52 122 149.52 115.94V115.73C149.52 109.66 150.65 103.57 152.86 98.29C151.99 96.33 150.97 94.4903 149.79 92.8203C146.14 99.5103 144.27 107.69 144.27 115.83V116.04C144.27 124.27 146.17 132.53 149.9 139.26C149.98 139.4 150.06 139.55 150.14 139.69C150.22 139.83 150.3 139.97 150.39 140.11C151.31 141.67 152.32 143.14 153.44 144.49C153.54 144.61 153.63 144.73 153.73 144.84C153.83 144.96 153.93 145.06 154.03 145.18C158.85 150.68 165.41 154.2 173.66 154.2C192.95 154.2 203.04 135 203.04 116.04V115.83C203.04 96.8701 192.95 77.6704 173.66 77.6704" fill="var(--fill-0, #781029)"/>
<path d="M120.41 71.3101V67.04C120.41 66.3 120.21 65.7003 119.82 65.2603C119.43 64.8103 118.86 64.5903 118.13 64.5903C117.77 64.5903 117.44 64.6503 117.14 64.7803C116.84 64.9103 116.58 65.0801 116.35 65.3101C116.12 65.5401 115.95 65.8101 115.82 66.1201C115.69 66.4301 115.63 66.7804 115.63 67.1504V71.3101H114.94V61.02H115.63V65.46C115.87 65.04 116.2 64.6801 116.62 64.3901C117.03 64.1001 117.57 63.9502 118.23 63.9502C118.68 63.9502 119.08 64.0204 119.44 64.1704C119.8 64.3204 120.1 64.5203 120.35 64.7803C120.6 65.0403 120.79 65.3602 120.91 65.7202C121.04 66.0802 121.1 66.4802 121.1 66.9102V71.3101H120.41Z" fill="var(--fill-0, #781029)"/>
<path d="M130.19 69.1504C130.01 69.6004 129.75 70.0001 129.42 70.3501C129.09 70.7001 128.69 70.9704 128.24 71.1704C127.79 71.3704 127.3 71.4702 126.76 71.4702C126.22 71.4702 125.73 71.3704 125.29 71.1704C124.84 70.9704 124.46 70.7004 124.13 70.3604C123.8 70.0204 123.54 69.6302 123.36 69.1802C123.18 68.7302 123.09 68.2502 123.09 67.7402V67.71C123.09 67.2 123.18 66.72 123.36 66.27C123.54 65.82 123.8 65.4203 124.13 65.0703C124.46 64.7203 124.86 64.45 125.31 64.25C125.76 64.05 126.25 63.9502 126.79 63.9502C127.33 63.9502 127.82 64.05 128.26 64.25C128.71 64.45 129.09 64.7201 129.42 65.0601C129.75 65.4001 130.01 65.7902 130.19 66.2402C130.37 66.6902 130.46 67.1702 130.46 67.6802V67.71C130.46 68.22 130.37 68.7004 130.19 69.1504ZM129.74 67.71C129.74 67.28 129.66 66.87 129.51 66.5C129.36 66.12 129.15 65.7903 128.88 65.5103C128.61 65.2303 128.3 65.0101 127.93 64.8501C127.57 64.6901 127.18 64.6104 126.76 64.6104C126.34 64.6104 125.94 64.6904 125.58 64.8604C125.22 65.0204 124.9 65.24 124.65 65.52C124.39 65.8 124.19 66.1202 124.04 66.4902C123.89 66.8602 123.82 67.2602 123.82 67.6802V67.71C123.82 68.14 123.9 68.5504 124.05 68.9204C124.2 69.3004 124.41 69.6302 124.68 69.9102C124.95 70.1902 125.27 70.4103 125.63 70.5703C125.99 70.7303 126.38 70.8101 126.8 70.8101C127.22 70.8101 127.62 70.7301 127.98 70.5601C128.34 70.4001 128.66 70.1804 128.91 69.9004C129.17 69.6204 129.37 69.3004 129.52 68.9204C129.67 68.5504 129.74 68.15 129.74 67.73V67.7002V67.71Z" fill="var(--fill-0, #781029)"/>
<path d="M137.92 71.3101V69.9702C137.68 70.3902 137.35 70.75 136.93 71.04C136.52 71.33 135.98 71.48 135.32 71.48C134.87 71.48 134.47 71.4103 134.11 71.2603C133.75 71.1103 133.45 70.9104 133.2 70.6504C132.95 70.3904 132.76 70.07 132.64 69.71C132.51 69.35 132.45 68.95 132.45 68.52V64.1201H133.14V68.3901C133.14 69.1301 133.34 69.7304 133.73 70.1704C134.12 70.6204 134.69 70.8403 135.42 70.8403C135.77 70.8403 136.09 70.7804 136.4 70.6504C136.71 70.5204 136.97 70.3501 137.2 70.1201C137.43 69.9001 137.6 69.6301 137.73 69.3101C137.86 68.9901 137.92 68.65 137.92 68.27V64.1104H138.61V71.3003H137.92V71.3101Z" fill="var(--fill-0, #781029)"/>
<path d="M145.04 64.7701C144.63 64.7701 144.23 64.85 143.86 65C143.48 65.15 143.15 65.39 142.87 65.69C142.58 66 142.36 66.3703 142.19 66.8203C142.02 67.2703 141.94 67.7804 141.94 68.3604V71.3003H141.25V64.1104H141.94V66.1504C142.08 65.8304 142.26 65.5403 142.48 65.2603C142.7 64.9903 142.94 64.7601 143.21 64.5601C143.48 64.3701 143.78 64.2201 144.1 64.1201C144.42 64.0201 144.76 63.9803 145.12 63.9903V64.75H145.05L145.04 64.7701Z" fill="var(--fill-0, #781029)"/>
<path d="M198.8 58.2603C197.84 58.0503 196.56 58.0103 195.38 58.3003C192.77 58.9603 191.99 60.9102 191.99 60.9102C192.03 61.2302 192.26 61.1 192.75 61C193.24 60.89 194.64 61.5303 194.64 61.5303C194.64 61.5303 196.68 62.0801 198.23 60.6401C199.78 59.2001 200.71 59.0103 200.71 59.0103C200.71 59.0103 199.97 58.5203 198.8 58.2603ZM195.83 61.1802C195.14 61.1802 194.58 60.6202 194.58 59.9302C194.58 59.4402 194.86 59.0101 195.28 58.8101C195.55 58.7701 195.8 58.7302 196.03 58.7002C196.62 58.8002 197.08 59.3102 197.08 59.9302C197.08 60.6202 196.52 61.1802 195.83 61.1802ZM193.62 60.8203C192.94 60.5603 192.36 60.8203 192.36 60.8203C192.36 60.8203 192.94 59.5202 194.85 58.9102C194.58 59.1702 194.41 59.5299 194.41 59.9399C194.41 60.5399 194.78 61.0503 195.31 61.2603C194.66 61.2303 194.13 61.0201 193.62 60.8301M197.44 60.6504C197.18 60.8104 196.96 60.93 196.74 61.02C197.05 60.76 197.25 60.3702 197.25 59.9302C197.25 59.3602 196.92 58.8704 196.44 58.6504C196.69 58.6204 196.92 58.6104 197.15 58.6104C198.75 58.6404 199.58 59.0801 199.58 59.0801C199.42 59.0901 198.93 59.4003 198.41 59.8003C198.17 59.9803 197.72 60.4601 197.44 60.6401" fill="var(--fill-0, #781029)"/>
<path d="M196.43 59.9399C196.43 60.2699 196.16 60.54 195.83 60.54C195.5 60.54 195.23 60.2699 195.23 59.9399C195.23 59.6099 195.5 59.3403 195.83 59.3403C196.16 59.3403 196.43 59.6099 196.43 59.9399Z" fill="var(--fill-0, #781029)"/>
<path d="M182.54 58.1706C181.37 57.8706 180.08 57.9105 179.12 58.1305C177.95 58.3905 177.21 58.8805 177.21 58.8805C177.21 58.8805 178.14 59.0604 179.69 60.5104C181.24 61.9504 183.28 61.4006 183.28 61.4006C183.28 61.4006 184.68 60.7603 185.17 60.8703C185.66 60.9803 185.89 61.1004 185.93 60.7804C185.93 60.7804 185.15 58.8306 182.54 58.1706ZM182.09 61.0602C181.4 61.0602 180.84 60.5002 180.84 59.8102C180.84 59.1902 181.29 58.6703 181.89 58.5803C182.12 58.6103 182.37 58.6501 182.64 58.6901C183.05 58.8901 183.34 59.3202 183.34 59.8102C183.34 60.5002 182.78 61.0602 182.09 61.0602ZM179.51 59.6804C178.99 59.2804 178.51 58.9701 178.34 58.9601C178.34 58.9601 179.17 58.5204 180.77 58.4904C181 58.4904 181.23 58.5004 181.48 58.5304C181 58.7604 180.67 59.2402 180.67 59.8102C180.67 60.2502 180.87 60.6406 181.18 60.9006C180.96 60.8106 180.74 60.6904 180.48 60.5304C180.19 60.3504 179.75 59.8701 179.51 59.6901M184.3 60.7004C183.79 60.8904 183.26 61.1005 182.61 61.1305C183.14 60.9205 183.51 60.4102 183.51 59.8102C183.51 59.4102 183.34 59.0404 183.07 58.7804C184.98 59.3904 185.56 60.6901 185.56 60.6901C185.56 60.6901 184.98 60.4401 184.3 60.6901" fill="var(--fill-0, #781029)"/>
<path d="M181.49 59.8101C181.49 60.1401 181.76 60.4102 182.09 60.4102C182.42 60.4102 182.69 60.1401 182.69 59.8101C182.69 59.4801 182.42 59.21 182.09 59.21C181.76 59.21 181.49 59.4801 181.49 59.8101Z" fill="var(--fill-0, #781029)"/>
<path d="M197.93 54.2405C197.93 54.2405 199.94 52.6406 198.63 48.8206C197.45 45.6106 195.22 44.8704 194.46 42.9304C193.71 41.0304 193.08 38.8303 189.08 39.0203C189.62 39.3303 190.24 39.6003 190.61 39.6003C191.24 39.6003 191.66 39.7105 191.97 40.0505C192.28 40.3905 192.28 41.0006 192.36 41.3806C192.43 41.7206 192.56 42.0105 192.56 42.0105C192.56 42.0105 192.8 42.5606 193.01 43.0906C193.43 44.1206 192.83 44.5203 192.83 44.5203C193.23 43.9603 192.68 42.6703 192.42 42.3103C192.16 41.9503 192.09 41.7502 191.91 40.9602C191.73 40.1702 191.15 40.0203 191.15 40.0203C190.98 39.9703 190.31 39.9404 190.19 39.8904C187.88 39.0704 188.08 38.5503 187.01 38.5203C186.46 38.5003 186 38.6205 185.68 38.7405C185.55 38.8105 185.45 38.8804 185.36 38.9504C185.23 39.0604 185.14 39.1502 185.08 39.2302C184.98 39.3702 184.85 39.4803 184.71 39.5803C184.05 40.0203 182.46 41.3806 183.29 43.8406C183.29 43.8406 183.8 46.1603 187.75 48.0403C188.19 48.2503 188.6 48.4406 188.98 48.6306C188.6 49.2006 188.05 50.2406 187.9 51.5906C187.83 52.2506 187.89 52.8702 188.02 53.4402C187.65 53.1902 187.26 52.9003 186.86 52.5603C182.81 49.1203 180.46 49.5804 179.63 49.6404C178.8 49.7004 174.94 50.7905 175.4 54.2805C175.89 58.0405 180.04 57.4205 181.28 57.5305C182.38 57.6205 184.88 57.7104 187.81 59.3904C189.08 59.9604 190.42 59.7605 191.57 59.2605C191.83 59.1505 195.77 56.7505 198.67 57.8005C201.57 58.8505 202.17 61.0506 201.18 63.1506C200.19 65.2506 195.73 66.3302 192.09 64.7502C187.73 62.8602 185.81 65.0702 185.31 65.9602C184.8 66.8502 185.12 67.6707 185.61 67.6707C185.61 67.6707 185.93 67.6903 186.06 67.2703C186.19 66.8503 186.34 65.9506 188.05 65.5906C189.77 65.2306 191.36 66.1006 192.19 66.3806C193.02 66.6606 194.99 67.3603 197.56 67.0203C200.13 66.6803 204.14 64.6903 204.65 59.8503C204.69 54.8203 198.64 54.2305 197.94 54.2605M198.15 53.5002C197.54 54.4202 196.49 54.2703 196.49 54.2703C195.64 54.0803 196.02 53.0205 196.53 53.0105C197.04 53.0105 198.19 52.5606 198.45 52.1506C198.53 52.0206 198.76 52.5702 198.15 53.5002ZM198.5 51.6204C198.03 52.4804 196.46 52.6204 196.46 52.6204C196.02 52.6204 195.63 51.6402 196.38 51.2502C197.44 51.1602 198.36 50.4604 198.46 50.3704C198.56 50.2804 198.97 50.7704 198.5 51.6204ZM197.82 48.5505C197.99 48.3105 198.4 48.7302 198.52 49.2102C198.63 49.7002 198.42 50.1703 197.66 50.5403C196.9 50.9103 196.4 50.8103 196.4 50.8103C196.4 50.8103 195.76 50.8105 195.54 50.5105C195.28 50.1705 195.24 49.8204 196.01 49.6404C196.78 49.4604 197.65 48.7905 197.82 48.5505ZM197.57 47.6003C197.67 47.8803 197.75 48.4204 196.8 48.9304C196.18 49.2704 195.68 49.4102 195.25 49.4402C194.31 49.5402 193.6 48.6003 194.33 48.5403C195.06 48.4803 196.21 47.6704 196.58 47.2004C196.95 46.7304 197.48 47.3206 197.58 47.5906M196.34 46.9504C196.17 47.2104 195.9 47.4404 195.64 47.6204C195.09 48.0104 194.38 48.1805 193.95 48.2805C193.69 48.3405 193.27 48.3504 193.01 48.1604C192.62 47.8804 192.47 47.3305 192.97 47.2405C192.97 47.2405 194.4 47.0805 195.66 45.8005C195.82 45.6305 196.87 46.1502 196.34 46.9402M191.7 51.6003C191.62 50.9103 191.44 50.3005 191.23 49.8005C192.65 50.6305 193.25 51.3503 193.25 52.5403C193.25 53.6003 192.52 54.5603 191.18 54.6003C191.54 53.7703 191.82 52.7403 191.69 51.6003M193.83 44.4402C193.99 44.2702 195.69 45.0306 195.16 45.8206C194.99 46.0806 194.48 46.3503 194.06 46.5403C193.45 46.8203 192.85 47.0305 192.24 47.0305C191.98 47.0305 191.45 46.9803 191.18 46.7903C190.79 46.5103 190.64 45.9604 191.14 45.8704C191.14 45.8704 192.57 45.7104 193.83 44.4304M189.09 44.5603C189.35 44.3203 189.95 44.2903 189.95 44.2903C189.95 44.2903 190.25 44.4005 190.44 44.4905C190.85 44.6905 191.49 45.2403 191.65 45.3103C191.45 45.3503 190.51 45.6005 189.81 45.5105C189.41 45.4605 189.12 45.2002 189.01 45.0002C188.89 44.8102 188.98 44.6505 189.09 44.5505M188.16 44.1106C187.46 43.9206 187.56 43.3005 187.56 43.3005C187.62 43.0205 188.64 43.1404 188.64 43.1404C189 43.8904 189.43 44.0105 189.43 44.0105C189.43 44.0105 188.86 44.3106 188.17 44.1106M189.99 42.3303C189.99 42.3303 190.39 42.3104 190.33 42.8704C190.33 42.8704 189.97 42.7706 189.91 42.6306C189.85 42.4906 189.99 42.3303 189.99 42.3303ZM189.25 42.4402C189.48 43.2702 190.33 43.4304 190.33 43.4304C191.01 43.6004 191.16 44.0903 191.58 44.5203C192 44.9503 192.64 44.7205 192.64 44.7205C192.64 44.7205 192.18 45.0003 191.72 44.8303C191.26 44.6603 190.92 44.0306 190.47 43.8606C190.01 43.6906 189.29 43.3802 189.19 42.9802C188.91 41.8402 188.05 40.7004 188.05 40.7004C188.36 40.9004 189.02 41.6102 189.25 42.4402ZM188.34 42.2805C188.41 42.5405 188.46 42.6707 188.46 42.6707C188.46 42.6707 187.49 42.8604 187.25 42.4104C187.01 41.9704 187.19 41.7805 187.25 41.7205C187.5 41.5105 187.93 41.6204 188.01 41.6404C188.01 41.6404 188.27 42.0305 188.34 42.2805ZM187.77 41.2302C187.77 41.2302 186.66 41.1603 186.77 40.3503C186.77 40.3503 187.52 40.7802 187.77 41.2302ZM187.6 47.6804C183.5 45.5404 183.02 42.6304 184.06 40.8704C184.54 40.0504 185.12 39.6306 185.66 39.6306C186.57 39.6306 187.03 40.0305 187.03 40.0305C187.03 40.0305 186.47 39.8806 185.95 39.8606C185.18 39.8406 184.14 40.5003 183.96 42.1003C183.68 44.6303 185.43 46.0904 186.72 46.9104C187.66 47.5104 188.89 48.2403 190.19 48.8503L189.39 48.5403C188.82 48.2703 188.31 48.0602 187.6 47.6902M188.72 51.0002C188.93 50.1502 189.27 49.6005 189.49 49.3005C189.63 49.1205 189.8 48.9104 189.8 48.9104C189.8 48.9104 189.96 49.1103 190.09 49.2703C190.32 49.5603 190.67 50.1302 190.88 51.0002C190.93 51.2202 190.98 51.4304 191.01 51.6604C190.75 51.2604 190.31 50.9905 189.79 50.9905C189.27 50.9905 188.83 51.2604 188.57 51.6604C188.6 51.4404 188.65 51.2202 188.7 51.0002M189.8 51.1604C190.5 51.1604 191.07 51.7304 191.07 52.4304C191.07 53.1304 190.5 53.7004 189.8 53.7004C189.1 53.7004 188.53 53.1304 188.53 52.4304C188.53 51.7304 189.1 51.1604 189.8 51.1604ZM191.03 53.1506C190.94 53.8506 190.69 54.6406 190.21 55.6106C190.11 55.8106 189.8 56.3503 189.8 56.3503C189.8 56.3503 189.49 55.8003 189.38 55.6003C188.9 54.6303 188.65 53.8406 188.56 53.1506C188.81 53.5706 189.27 53.8503 189.8 53.8503C190.33 53.8503 190.78 53.5706 191.04 53.1506M202.71 62.9207C201.97 64.6406 200.1 66.0402 197.49 66.4802C194.88 66.9302 191.61 65.3806 191.61 65.3806C191.61 65.3806 189.26 64.1503 187.26 65.1003C185.26 66.0503 185.53 67.1604 185.53 67.1604L185.49 67.2205C185.04 66.1405 186.77 64.5106 188.66 64.3806C190.55 64.2506 190.93 65.0604 193.93 65.7004C196.93 66.3404 199.11 65.7705 201.03 64.0105C202.6 62.5705 201.99 60.1406 201.91 59.5906C201.83 59.0506 202.22 59.4305 202.33 58.9905C202.44 58.5505 200.29 55.9304 196.87 55.8904C193.45 55.8504 192.29 56.9102 191.71 57.4602C191.14 58.0102 191.35 58.7302 191.35 58.7302C191.35 58.7302 190.23 59.1804 189.38 59.1804C188.53 59.1804 187.75 58.7605 187.75 58.7605C188.6 57.9505 188.09 56.8704 187.2 56.6404C186.31 56.4104 184.79 56.2904 181.69 56.1204C180.74 56.0704 178.45 55.8002 177.42 54.5002C176.89 53.8502 176.43 52.6403 176.99 51.7903C178.74 49.1403 182.54 50.3406 183.3 50.6506C184.06 50.9706 184.72 51.2602 186.83 52.9602C187.76 53.7202 188.23 54.3304 188.42 54.6204C188.44 54.6704 188.46 54.7203 188.49 54.7703C186.98 53.7803 183.37 52.6003 181.95 52.6003C180.53 52.6003 179.53 53.1506 179.53 53.1506C181.57 53.0606 184.26 53.6604 186.81 54.9504C187.66 55.3804 188.41 55.6606 189.05 55.8206C189.14 55.9806 189.23 56.1202 189.3 56.2302C189.42 57.3702 189.04 57.3606 188.79 57.3806C188.48 57.4006 188.23 56.8005 188.77 56.7405C188.77 56.7405 188.49 56.6006 188.29 56.8806C188.09 57.1506 188.36 57.6807 188.88 57.6707C189.38 57.6707 189.81 57.2004 189.81 56.3704H189.82C189.82 57.2004 190.22 57.6902 190.79 57.6902C191.31 57.6902 191.52 57.1606 191.32 56.8806C191.12 56.6006 190.86 56.7405 190.86 56.7405C191.39 56.8005 191.19 57.3704 190.86 57.3704C190.58 57.3704 190.21 57.3702 190.33 56.2302C190.37 56.1602 190.41 56.0802 190.46 56.0002C191.01 56.0002 191.43 55.8905 191.73 55.7405C192.53 55.3505 198.96 53.2306 202.12 55.9207C205.28 58.6107 204.25 61.2605 204.25 61.2605C204.25 61.2605 203.47 61.1904 202.72 62.9104" fill="var(--fill-0, #781029)"/>
<path d="M189.8 53C190.13 53 190.4 52.7304 190.4 52.4004C190.4 52.0704 190.13 51.8003 189.8 51.8003C189.47 51.8003 189.2 52.0704 189.2 52.4004C189.2 52.7304 189.47 53 189.8 53Z" fill="var(--fill-0, #781029)"/>
</g>
</svg>
