<svg preserveAspectRatio="xMidYMid meet" width="108" height="109" overflow="visible" style="display: block;" viewBox="0 0 108 109" fill="none" xmlns="http://www.w3.org/2000/svg">
<g id="Group">
<path id="Vector" d="M56.6407 21.1304L57.4508 10.2202C57.4508 10.1102 57.3707 10.01 57.2607 10C57.1507 10 57.0508 10.0799 57.0408 10.1899L56.2507 20.8501C56.3807 20.9401 56.5107 21.0304 56.6407 21.1304Z" fill="var(--fill-0, #781029)"/>
<path id="Vector_2" d="M59.0508 23.4601L62.6207 0.900537C62.6407 0.790537 62.5608 0.680303 62.4508 0.660303C62.3408 0.640303 62.2307 0.720225 62.2207 0.830225L58.7008 23.0304C58.8208 23.1704 58.9408 23.3103 59.0508 23.4503" fill="var(--fill-0, #781029)"/>
<path id="Vector_3" d="M54.1508 19.6201L54.1307 0.209961C54.1307 0.0999609 54.0408 0 53.9208 0C53.8108 0 53.7108 0.0899609 53.7108 0.209961L53.7307 19.4302C53.8707 19.4902 54.0107 19.5601 54.1407 19.6201" fill="var(--fill-0, #781029)"/>
<path id="Vector_4" d="M15.0808 74.8604C14.9808 74.9104 14.9407 75.0401 15.0007 75.1401C15.0407 75.2101 15.1108 75.25 15.1808 75.25C15.2108 75.25 15.2507 75.25 15.2807 75.23L23.9308 70.5703C23.9308 70.4103 23.9308 70.2601 23.9308 70.1001L15.0808 74.8604Z" fill="var(--fill-0, #781029)"/>
<path id="Vector_5" d="M15.4207 32.8201C15.3207 32.7701 15.2007 32.8002 15.1407 32.9002C15.0907 33.0002 15.1207 33.12 15.2207 33.18L23.7507 37.8499C23.7507 37.6999 23.7507 37.5499 23.7707 37.3899L15.4207 32.8201Z" fill="var(--fill-0, #781029)"/>
<path id="Vector_6" d="M70.2307 24.0303L79.4907 6.62019C79.5407 6.52019 79.5108 6.40041 79.4108 6.34041C79.3108 6.29041 79.1907 6.33025 79.1307 6.43025L69.7708 24.0303C69.9208 24.0303 70.0707 24.0303 70.2307 24.0303Z" fill="var(--fill-0, #781029)"/>
<path id="Vector_7" d="M71.1808 13.5801L66.5408 24.3902C66.7008 24.3502 66.8708 24.3203 67.0308 24.2803L71.5608 13.7403C71.6008 13.6403 71.5608 13.5203 71.4508 13.4703C71.3508 13.4303 71.2308 13.4701 71.1808 13.5801Z" fill="var(--fill-0, #781029)"/>
<path id="Vector_8" d="M60.9308 26.5905L64.6508 11.3903C64.6808 11.2803 64.6107 11.1703 64.5007 11.1403C64.3907 11.1103 64.2807 11.1802 64.2507 11.2902L60.6508 25.9904C60.7508 26.1804 60.8408 26.3805 60.9308 26.5905Z" fill="var(--fill-0, #781029)"/>
<path id="Vector_9" d="M63.8507 25.3206L71.3008 3.07055C71.3408 2.96055 71.2808 2.8503 71.1708 2.8103C71.0608 2.7703 70.9508 2.83018 70.9108 2.94018L63.3407 25.5505C63.5107 25.4705 63.6807 25.4006 63.8507 25.3206Z" fill="var(--fill-0, #781029)"/>
<path id="Vector_10" d="M9.91077 53.8003C9.80077 53.8003 9.70081 53.89 9.70081 54C9.70081 54.11 9.79076 54.21 9.90076 54.21L19.1307 54.2402C19.1307 54.2402 19.1307 54.22 19.1207 54.21C19.1807 54.08 19.2408 53.9601 19.3008 53.8301L9.90076 53.8003H9.91077Z" fill="var(--fill-0, #781029)"/>
<path id="Vector_11" d="M12.0708 68.4204C12.1008 68.5104 12.1808 68.5601 12.2608 68.5601C12.2808 68.5601 12.3008 68.5603 12.3308 68.5503L25.2307 64.1602C25.3107 63.9802 25.3907 63.8101 25.4807 63.6401L12.2008 68.1602C12.0908 68.2002 12.0408 68.3104 12.0708 68.4204Z" fill="var(--fill-0, #781029)"/>
<path id="Vector_12" d="M29.3907 17.33C29.3007 17.39 29.2708 17.5203 29.3308 17.6103L35.1407 26.3002C35.2007 26.1502 35.2707 26.0103 35.3407 25.8603L29.6808 17.3803C29.6208 17.2903 29.4907 17.2603 29.4007 17.3203" fill="var(--fill-0, #781029)"/>
<path id="Vector_13" d="M19.0007 81.29C19.0407 81.34 19.1007 81.3701 19.1607 81.3701C19.2007 81.3701 19.2507 81.3601 19.2907 81.3301L29.0407 73.7603C28.8707 73.7203 28.6907 73.6901 28.5207 73.6401L19.0307 81C18.9407 81.07 18.9207 81.2 18.9907 81.29" fill="var(--fill-0, #781029)"/>
<path id="Vector_14" d="M73.3507 29.2403L86.9707 11.4801C87.0407 11.3901 87.0208 11.26 86.9308 11.19C86.8408 11.12 86.7107 11.1401 86.6407 11.2301L73.2108 28.7301C73.2608 28.9001 73.3007 29.0703 73.3407 29.2403" fill="var(--fill-0, #781029)"/>
<path id="Vector_15" d="M10.2908 61.3101C10.3108 61.4101 10.3907 61.48 10.4907 61.48C10.5007 61.48 10.5108 61.48 10.5208 61.48L23.2508 59.3901C23.1108 59.2801 22.9608 59.16 22.8208 59.04L10.4508 61.0703C10.3408 61.0903 10.2608 61.1901 10.2808 61.3101" fill="var(--fill-0, #781029)"/>
<path id="Vector_16" d="M19.1808 26.7805C19.1108 26.8705 19.1309 27.0005 19.2109 27.0705L28.7408 34.5705C28.9108 34.5305 29.0908 34.4902 29.2608 34.4602L19.4609 26.7502C19.3709 26.6802 19.2408 26.7005 19.1708 26.7805" fill="var(--fill-0, #781029)"/>
<path id="Vector_17" d="M23.9408 21.9002C23.8608 21.8202 23.7307 21.8102 23.6507 21.9002C23.5707 21.9802 23.5607 22.1098 23.6507 22.1898L33.7907 32.9798C33.7907 32.7898 33.8108 32.6 33.8208 32.41L23.9508 21.91L23.9408 21.9002Z" fill="var(--fill-0, #781029)"/>
<path id="Vector_18" d="M23.9509 86.6899C23.9509 86.6899 24.0408 86.7402 24.0908 86.7402C24.1508 86.7402 24.2008 86.7204 24.2408 86.6704L34.1908 75.8804C34.1908 75.6704 34.1909 75.46 34.2109 75.25L23.9308 86.3804C23.8508 86.4604 23.8608 86.5904 23.9408 86.6704" fill="var(--fill-0, #781029)"/>
<path id="Vector_19" d="M12.1607 39.6003C12.1207 39.7103 12.1808 39.8206 12.2908 39.8606L25.2108 44.3503C25.1308 44.1803 25.0407 44.0103 24.9707 43.8303L12.4308 39.4705C12.3208 39.4305 12.2108 39.4903 12.1708 39.6003" fill="var(--fill-0, #781029)"/>
<path id="Vector_20" d="M10.5708 46.5304C10.4608 46.5104 10.3508 46.5903 10.3308 46.7003C10.3108 46.8103 10.3908 46.9201 10.5008 46.9401L23.0508 49.0802C23.1908 48.9602 23.3407 48.8504 23.4907 48.7404L10.5708 46.5304Z" fill="var(--fill-0, #781029)"/>
<path id="Vector_21" d="M77.9308 16.9205C77.8308 16.8605 77.7108 16.8901 77.6508 16.9801L72.0308 25.7101C72.1008 25.8501 72.1807 25.9905 72.2507 26.1305L77.9907 17.2003C78.0507 17.1003 78.0208 16.9805 77.9308 16.9205Z" fill="var(--fill-0, #781029)"/>
<path id="Vector_22" d="M83.7607 86.6401C83.7607 86.6401 83.8608 86.71 83.9108 86.71C83.9608 86.71 84.0108 86.6902 84.0508 86.6602C84.1308 86.5802 84.1408 86.4501 84.0608 86.3701L74.0907 75.6001C74.0907 75.8001 74.0907 76.0002 74.0907 76.2002L83.7708 86.6602L83.7607 86.6401Z" fill="var(--fill-0, #781029)"/>
<path id="Vector_23" d="M95.7708 39.5501C95.7308 39.4401 95.6207 39.3902 95.5107 39.4202L82.7808 43.8699C82.7008 44.0499 82.6308 44.2199 82.5508 44.3899L95.6508 39.8099C95.7608 39.7699 95.8108 39.6601 95.7808 39.5501" fill="var(--fill-0, #781029)"/>
<path id="Vector_24" d="M75.7307 34.1502L93.5708 17.5101C93.6508 17.4301 93.6608 17.3001 93.5808 17.2201C93.5008 17.1401 93.3708 17.1301 93.2908 17.2201L75.1407 34.14C75.3407 34.14 75.5307 34.14 75.7307 34.16" fill="var(--fill-0, #781029)"/>
<path id="Vector_25" d="M88.7407 26.7402C88.6707 26.6502 88.5408 26.6399 88.4508 26.7099L78.5808 34.4902C78.7608 34.5202 78.9307 34.56 79.1007 34.6L88.7008 27.0302C88.7908 26.9602 88.8007 26.8302 88.7307 26.7402" fill="var(--fill-0, #781029)"/>
<path id="Vector_26" d="M83.7607 21.6706C83.8407 21.5906 83.8307 21.4605 83.7507 21.3805C83.6707 21.3005 83.5408 21.3103 83.4608 21.3903L73.7008 32.1305C73.7008 32.3405 73.7008 32.5402 73.7008 32.7502L83.7708 21.6603L83.7607 21.6706Z" fill="var(--fill-0, #781029)"/>
<path id="Vector_27" d="M87.2307 51.4397L107.731 49.6399C107.841 49.6399 107.931 49.5302 107.921 49.4202C107.921 49.3102 107.811 49.2198 107.701 49.2298L86.9308 51.0501C87.0408 51.1801 87.1407 51.3097 87.2407 51.4397" fill="var(--fill-0, #781029)"/>
<path id="Vector_28" d="M92.7908 32.8499C92.7408 32.7499 92.6107 32.7099 92.5107 32.7699L84.0007 37.4398C84.0107 37.5898 84.0208 37.7402 84.0208 37.9002L92.7108 33.1302C92.8108 33.0802 92.8508 32.9499 92.7908 32.8499Z" fill="var(--fill-0, #781029)"/>
<path id="Vector_29" d="M97.6107 46.6403C97.5907 46.5303 97.4807 46.4504 97.3707 46.4704L84.4208 48.7003C84.5708 48.8103 84.7207 48.9302 84.8607 49.0402L97.4408 46.8703C97.5508 46.8503 97.6307 46.7405 97.6107 46.6305" fill="var(--fill-0, #781029)"/>
<path id="Vector_30" d="M78.1608 91.2002C78.1608 91.2002 78.2408 91.1904 78.2708 91.1704C78.3608 91.1104 78.3908 90.9801 78.3308 90.8901L72.5808 82.1304C72.5108 82.2704 72.4407 82.4103 72.3607 82.5503L77.9907 91.1201C78.0307 91.1801 78.1008 91.21 78.1608 91.21" fill="var(--fill-0, #781029)"/>
<path id="Vector_31" d="M81.9208 47.1305L106.251 40.8302C106.361 40.8002 106.431 40.6902 106.401 40.5802C106.371 40.4702 106.261 40.4003 106.151 40.4303L81.3707 46.8502C81.5607 46.9402 81.7408 47.0405 81.9208 47.1305Z" fill="var(--fill-0, #781029)"/>
<path id="Vector_32" d="M98.0508 54.1504C98.1608 54.1504 98.2607 54.0599 98.2507 53.9399C98.2407 53.8199 98.1608 53.7402 98.0408 53.7402L88.6808 53.7803C88.7008 53.8303 88.7307 53.8802 88.7607 53.9302C88.7207 54.0202 88.6807 54.0999 88.6407 54.1899L98.0508 54.1504Z" fill="var(--fill-0, #781029)"/>
<path id="Vector_33" d="M83.6808 41.1505L103.341 32.3902C103.441 32.3402 103.491 32.2202 103.441 32.1202C103.391 32.0202 103.271 31.9701 103.171 32.0201L83.7908 40.6505C83.7608 40.8205 83.7208 40.9805 83.6808 41.1505Z" fill="var(--fill-0, #781029)"/>
<path id="Vector_34" d="M82.2207 35.7001L99.0708 24.54C99.1608 24.48 99.1907 24.3502 99.1307 24.2602C99.0707 24.1702 98.9407 24.1401 98.8507 24.2001L81.7908 35.4902C81.9408 35.5602 82.0807 35.6301 82.2207 35.7001Z" fill="var(--fill-0, #781029)"/>
<path id="Vector_35" d="M95.7108 68.5103C95.8008 68.5103 95.8808 68.4601 95.9008 68.3701C95.9408 68.2601 95.8808 68.1504 95.7708 68.1104L82.5907 63.6401C82.6707 63.8101 82.7607 63.9802 82.8407 64.1602L95.6508 68.5C95.6508 68.5 95.6907 68.5103 95.7207 68.5103" fill="var(--fill-0, #781029)"/>
<path id="Vector_36" d="M92.7108 75.1802C92.7108 75.1802 92.7708 75.2002 92.8108 75.2002C92.8808 75.2002 92.9507 75.1603 92.9907 75.0903C93.0407 74.9903 93.0108 74.8701 92.9108 74.8101L84.2108 70.1401C84.2108 70.2901 84.2108 70.4504 84.2108 70.6104L92.7108 75.1704V75.1802Z" fill="var(--fill-0, #781029)"/>
<path id="Vector_37" d="M97.4408 61.4204C97.4408 61.4204 97.4607 61.4204 97.4707 61.4204C97.5707 61.4204 97.6608 61.35 97.6708 61.25C97.6908 61.14 97.6107 61.0303 97.5007 61.0103L84.9108 58.96C84.7608 59.08 84.6108 59.1903 84.4608 59.3003L97.4408 61.4102V61.4204Z" fill="var(--fill-0, #781029)"/>
<path id="Vector_38" d="M88.8308 81.3203C88.8908 81.3203 88.9507 81.2902 88.9907 81.2402C89.0607 81.1502 89.0408 81.0202 88.9508 80.9502L79.2808 73.4702C79.1008 73.5102 78.9307 73.5401 78.7507 73.5801L88.7008 81.2803C88.7008 81.2803 88.7808 81.3203 88.8308 81.3203Z" fill="var(--fill-0, #781029)"/>
<path id="Vector_39" d="M46.9208 81.2002L42.9608 96.8203C42.9308 96.9303 43.0007 97.0403 43.1107 97.0703C43.1307 97.0703 43.1408 97.0703 43.1608 97.0703C43.2508 97.0703 43.3407 97.0104 43.3607 96.9204L47.2008 81.77C47.1008 81.58 47.0108 81.3899 46.9208 81.1899" fill="var(--fill-0, #781029)"/>
<path id="Vector_40" d="M58.9408 84.96L62.7108 107.39C62.7308 107.49 62.8108 107.56 62.9108 107.56C62.9208 107.56 62.9308 107.56 62.9408 107.56C63.0508 107.54 63.1307 107.44 63.1107 107.32L59.2908 84.5601C59.1808 84.7001 59.0608 84.82 58.9408 84.96Z" fill="var(--fill-0, #781029)"/>
<path id="Vector_41" d="M56.5408 87.21L57.4508 98.0801C57.4508 98.1901 57.5508 98.27 57.6508 98.27H57.6708C57.7808 98.27 57.8707 98.1603 57.8607 98.0503L56.9308 86.9004C56.8008 87.0004 56.6808 87.11 56.5408 87.21Z" fill="var(--fill-0, #781029)"/>
<path id="Vector_42" d="M61.1808 81.6001C61.0908 81.7901 61.0008 81.9702 60.9008 82.1602L64.6608 96.9204C64.6808 97.0104 64.7707 97.0703 64.8607 97.0703C64.8807 97.0703 64.8908 97.0703 64.9108 97.0703C65.0208 97.0403 65.0908 96.9303 65.0608 96.8203L61.1908 81.6104L61.1808 81.6001Z" fill="var(--fill-0, #781029)"/>
<path id="Vector_43" d="M53.8008 88.3701V108.1C53.8108 108.21 53.9108 108.31 54.0208 108.31C54.1308 108.31 54.2307 108.22 54.2207 108.1V88.5503C54.0707 88.4903 53.9308 88.4301 53.8008 88.3701Z" fill="var(--fill-0, #781029)"/>
<path id="Vector_44" d="M48.7508 84.2803L44.9108 107.33C44.8908 107.44 44.9708 107.55 45.0808 107.57C45.0908 107.57 45.1007 107.57 45.1107 107.57C45.2107 107.57 45.3008 107.5 45.3108 107.4L49.0907 84.7202C48.9707 84.5802 48.8608 84.4303 48.7508 84.2803Z" fill="var(--fill-0, #781029)"/>
<path id="Vector_45" d="M36.4508 94.5801L41.2207 83.7202C41.0607 83.7602 40.8907 83.7903 40.7307 83.8203L36.0808 94.4102C36.0308 94.5102 36.0808 94.6302 36.1908 94.6802C36.2208 94.6902 36.2408 94.7002 36.2708 94.7002C36.3508 94.7002 36.4208 94.6501 36.4608 94.5801" fill="var(--fill-0, #781029)"/>
<path id="Vector_46" d="M43.9107 82.8203L36.2607 105.1C36.2207 105.21 36.2807 105.32 36.3907 105.36C36.4107 105.36 36.4308 105.37 36.4608 105.37C36.5508 105.37 36.6307 105.32 36.6507 105.23L44.4308 82.5801C44.2608 82.6601 44.0907 82.7403 43.9107 82.8203Z" fill="var(--fill-0, #781029)"/>
<path id="Vector_47" d="M51.0907 86.7002L50.1508 98.0503C50.1508 98.1603 50.2207 98.26 50.3407 98.27C50.3407 98.27 50.3507 98.27 50.3607 98.27C50.4707 98.27 50.5608 98.1901 50.5608 98.0801L51.4707 86.9902C51.3407 86.8902 51.2108 86.7899 51.0808 86.6899" fill="var(--fill-0, #781029)"/>
<path id="Vector_48" d="M64.0007 82.5703C63.8207 82.4903 63.6507 82.4001 63.4807 82.3101L71.3807 105.21C71.4107 105.3 71.4908 105.35 71.5708 105.35C71.5908 105.35 71.6107 105.35 71.6407 105.34C71.7507 105.3 71.8008 105.19 71.7708 105.08L64.0007 82.5703Z" fill="var(--fill-0, #781029)"/>
<path id="Vector_49" d="M75.7607 73.8203C75.5507 73.8203 75.3407 73.8103 75.1207 73.8003L93.6207 90.7402C93.6207 90.7402 93.7107 90.79 93.7607 90.79C93.8207 90.79 93.8708 90.7702 93.9108 90.7202C93.9908 90.6402 93.9808 90.5102 93.9008 90.4302L75.7607 73.8203Z" fill="var(--fill-0, #781029)"/>
<path id="Vector_50" d="M67.2108 83.6602C67.0408 83.6202 66.8708 83.5903 66.7108 83.5503L71.5608 94.5703C71.5908 94.6503 71.6707 94.6899 71.7507 94.6899C71.7807 94.6899 71.8108 94.6904 71.8308 94.6704C71.9308 94.6204 71.9808 94.5004 71.9308 94.4004L67.2008 83.6602H67.2108Z" fill="var(--fill-0, #781029)"/>
<path id="Vector_51" d="M106.371 66.9902L81.7708 60.8604C81.5708 60.9504 81.3708 61.0401 81.1608 61.1201C81.1608 61.1201 81.1608 61.1301 81.1608 61.1401L106.261 67.3901C106.261 67.3901 106.291 67.3901 106.311 67.3901C106.401 67.3901 106.491 67.33 106.511 67.23C106.541 67.12 106.471 67.01 106.361 66.98" fill="var(--fill-0, #781029)"/>
<path id="Vector_52" d="M107.771 58.1704L87.2407 56.5601C87.1407 56.6901 87.0408 56.8202 86.9408 56.9502L107.731 58.5801C107.731 58.5801 107.741 58.5801 107.751 58.5801C107.861 58.5801 107.951 58.5001 107.951 58.3901C107.951 58.2801 107.871 58.1804 107.761 58.1704" fill="var(--fill-0, #781029)"/>
<path id="Vector_53" d="M99.3407 83.3403L82.3807 72.3403C82.2407 72.4103 82.1008 72.4901 81.9608 72.5601L99.1207 83.6899C99.1207 83.6899 99.1907 83.7202 99.2307 83.7202C99.3007 83.7202 99.3608 83.6904 99.4008 83.6304C99.4608 83.5304 99.4307 83.4101 99.3407 83.3501" fill="var(--fill-0, #781029)"/>
<path id="Vector_54" d="M103.541 75.46L83.7908 66.8804C83.8308 67.0404 83.8708 67.2104 83.9008 67.3804L103.371 75.8403C103.371 75.8403 103.421 75.8604 103.451 75.8604C103.531 75.8604 103.611 75.8102 103.641 75.7402C103.681 75.6402 103.641 75.5102 103.531 75.4702" fill="var(--fill-0, #781029)"/>
<path id="Vector_55" d="M37.5308 84.0801L28.1008 101.48C28.0508 101.58 28.0808 101.7 28.1808 101.76C28.2108 101.78 28.2508 101.79 28.2808 101.79C28.3508 101.79 28.4209 101.75 28.4609 101.68L38.0008 84.0801C37.8508 84.0801 37.6908 84.0801 37.5308 84.0801Z" fill="var(--fill-0, #781029)"/>
<path id="Vector_56" d="M70.4208 83.96C70.2608 83.96 70.1108 83.96 69.9508 83.96L79.5608 101.64C79.6008 101.71 79.6707 101.75 79.7407 101.75C79.7707 101.75 79.8107 101.75 79.8407 101.72C79.9407 101.67 79.9808 101.54 79.9208 101.44L70.4108 83.9502L70.4208 83.96Z" fill="var(--fill-0, #781029)"/>
<path id="Vector_57" d="M73.7008 79.0303C73.6608 79.2003 73.6208 79.37 73.5708 79.54L87.0508 96.77C87.0908 96.82 87.1508 96.8501 87.2108 96.8501C87.2508 96.8501 87.3007 96.8401 87.3407 96.8101C87.4307 96.7401 87.4507 96.61 87.3807 96.52L73.7108 79.0303H73.7008Z" fill="var(--fill-0, #781029)"/>
<path id="Vector_58" d="M4.59064 32.4599L24.0407 41.1C24.0007 40.94 23.9707 40.7703 23.9407 40.6103L4.75068 32.0903C4.65068 32.0403 4.52066 32.0901 4.48066 32.2001C4.43066 32.3001 4.48076 32.4201 4.58076 32.4701" fill="var(--fill-0, #781029)"/>
<path id="Vector_59" d="M8.85066 24.6104L25.6207 35.6802C25.7607 35.6102 25.9107 35.54 26.0607 35.48L9.08077 24.2701C8.99077 24.2101 8.86073 24.2301 8.79073 24.3301C8.73073 24.4201 8.75066 24.5504 8.85066 24.6104Z" fill="var(--fill-0, #781029)"/>
<path id="Vector_60" d="M34.1608 29.56C34.1908 29.38 34.2308 29.21 34.2708 29.04L20.5708 11.8002C20.5008 11.7102 20.3708 11.6999 20.2808 11.7699C20.1908 11.8399 20.1808 11.97 20.2508 12.06L34.1708 29.56H34.1608Z" fill="var(--fill-0, #781029)"/>
<path id="Vector_61" d="M40.2607 24.19C40.4307 24.22 40.5907 24.2503 40.7507 24.2803L36.0708 13.8804C36.0208 13.7804 35.9007 13.7303 35.8007 13.7803C35.7007 13.8303 35.6508 13.9504 35.7008 14.0504L40.2707 24.19H40.2607Z" fill="var(--fill-0, #781029)"/>
<path id="Vector_62" d="M32.2307 34.2004C32.4407 34.2004 32.6507 34.2201 32.8607 34.2301L14.6207 17.2604C14.5407 17.1804 14.4108 17.1902 14.3308 17.2702C14.2508 17.3502 14.2607 17.4802 14.3407 17.5602L32.2307 34.2004Z" fill="var(--fill-0, #781029)"/>
<path id="Vector_63" d="M37.0608 24.0301C37.2108 24.0201 37.3707 24.0101 37.5207 24.0101L28.0207 6.86997C27.9707 6.76997 27.8407 6.72989 27.7407 6.78989C27.6407 6.84989 27.6107 6.97016 27.6607 7.07016L37.0608 24.0301Z" fill="var(--fill-0, #781029)"/>
<path id="Vector_64" d="M34.5007 78.8003L20.6407 96.5703C20.5707 96.6603 20.5908 96.7904 20.6808 96.8604C20.7208 96.8904 20.7608 96.9004 20.8108 96.9004C20.8708 96.9004 20.9307 96.8703 20.9707 96.8203L34.6307 79.3101C34.5907 79.1401 34.5507 78.9703 34.5107 78.8003" fill="var(--fill-0, #781029)"/>
<path id="Vector_65" d="M48.7307 23.2003L44.8208 0.990381C44.8008 0.880381 44.6908 0.800459 44.5808 0.820459C44.4708 0.840459 44.3908 0.950205 44.4108 1.06021L48.3808 23.6105C48.4908 23.4705 48.6107 23.3301 48.7207 23.1901" fill="var(--fill-0, #781029)"/>
<path id="Vector_66" d="M51.1408 20.93L50.1608 10.2498C50.1508 10.1398 50.0508 10.0498 49.9408 10.0598C49.8308 10.0698 49.7408 10.1701 49.7508 10.2801L50.7508 21.22C50.8808 21.12 51.0108 21.0202 51.1408 20.9202" fill="var(--fill-0, #781029)"/>
<path id="Vector_67" d="M46.4807 26.4704C46.5807 26.3004 46.6708 26.1301 46.7708 25.9601L42.9608 11.4801C42.9308 11.3701 42.8208 11.3002 42.7108 11.3302C42.6008 11.3602 42.5308 11.4702 42.5608 11.5802L46.4807 26.4704Z" fill="var(--fill-0, #781029)"/>
<path id="Vector_68" d="M43.5008 25.1702C43.6808 25.2502 43.8508 25.3202 44.0208 25.4002L36.1708 3.22978C36.1308 3.11978 36.0208 3.06989 35.9108 3.09989C35.8008 3.13989 35.7508 3.26015 35.7808 3.36015L43.5008 25.16V25.1702Z" fill="var(--fill-0, #781029)"/>
<path id="Vector_69" d="M25.4008 72.5L8.6508 83.4004C8.5508 83.4604 8.53074 83.5902 8.59074 83.6802C8.63074 83.7402 8.70078 83.77 8.76078 83.77C8.80078 83.77 8.84077 83.7602 8.87077 83.7402L25.8309 72.71C25.6809 72.64 25.5408 72.57 25.4008 72.5Z" fill="var(--fill-0, #781029)"/>
<path id="Vector_70" d="M25.7307 61.0103L1.60072 67.0503C1.49072 67.0803 1.42082 67.1903 1.45082 67.3003C1.47082 67.3903 1.56077 67.46 1.65077 67.46C1.67077 67.46 1.68082 67.46 1.70082 67.46L26.2708 61.3101C26.0908 61.2201 25.9107 61.12 25.7307 61.02" fill="var(--fill-0, #781029)"/>
<path id="Vector_71" d="M24.3108 66.8604L4.45081 75.52C4.35081 75.56 4.3007 75.69 4.3407 75.79C4.3707 75.87 4.45076 75.9102 4.53076 75.9102C4.56076 75.9102 4.59072 75.9101 4.61072 75.8901L24.2008 67.3501C24.2308 67.1801 24.2708 67.0204 24.3008 66.8604" fill="var(--fill-0, #781029)"/>
<path id="Vector_72" d="M29.7307 91.2002C29.7307 91.2002 29.8007 91.23 29.8407 91.23C29.9107 91.23 29.9707 91.2001 30.0107 91.1401L35.7807 82.3203C35.7107 82.1803 35.6408 82.0401 35.5708 81.8901L29.6707 90.9102C29.6107 91.0002 29.6307 91.1299 29.7307 91.1899" fill="var(--fill-0, #781029)"/>
<path id="Vector_73" d="M31.9108 74.1304L14.1008 90.48C14.0208 90.56 14.0108 90.69 14.0908 90.77C14.1308 90.81 14.1908 90.8403 14.2408 90.8403C14.2908 90.8403 14.3408 90.82 14.3808 90.79L32.5008 74.1602C32.3008 74.1602 32.1108 74.1601 31.9108 74.1401" fill="var(--fill-0, #781029)"/>
<path id="Vector_74" d="M1.6908 40.9005L26.0808 47.1803C26.2708 47.0903 26.4708 47.0003 26.6708 46.9103L1.79078 40.5001C1.68078 40.4701 1.57078 40.5405 1.54078 40.6505C1.51078 40.7605 1.5808 40.8705 1.6908 40.9005Z" fill="var(--fill-0, #781029)"/>
<path id="Vector_75" d="M20.5208 56.6201L0.190823 58.2402C0.0808233 58.2402 -0.00924017 58.35 0.000759834 58.46C0.000759834 58.57 0.100833 58.6504 0.200833 58.6504C0.200833 58.6504 0.210731 58.6504 0.220731 58.6504L20.8208 57.0103C20.7208 56.8803 20.6208 56.7501 20.5208 56.6201Z" fill="var(--fill-0, #781029)"/>
<path id="Vector_76" d="M0.220703 49.71L20.7307 51.48C20.8307 51.35 20.9308 51.2203 21.0308 51.0903L0.260742 49.29C0.150742 49.29 0.0507715 49.36 0.0407715 49.48C0.0407715 49.59 0.110713 49.6902 0.230713 49.7002" fill="var(--fill-0, #781029)"/>
</g>
</svg>
