<svg preserveAspectRatio="xMidYMid meet" width="14" height="15" overflow="visible" style="display: block;" viewBox="0 0 14 15" fill="none" xmlns="http://www.w3.org/2000/svg">
<path id="Vector" d="M12.1663 13.4184C11.7647 13.7334 11.3316 14.0088 10.8591 14.2293C10.3866 14.4577 9.86692 14.6311 9.29994 14.7492C8.73297 14.8673 8.10297 14.9226 7.40213 14.9226C6.34693 14.9226 5.36261 14.7336 4.45702 14.3478C3.55144 13.9619 2.76398 13.4343 2.10251 12.7728C1.44104 12.1035 0.929176 11.316 0.559068 10.4104C0.18896 9.50485 0 8.53593 0 7.50436V7.46514C0 6.43356 0.18896 5.46484 0.559068 4.56713C0.929176 3.66943 1.44892 2.87427 2.10251 2.19705C2.76398 1.51984 3.55145 0.984329 4.47279 0.590598C5.39412 0.196866 6.40995 0 7.52815 0C8.19749 0 8.81956 0.0550917 9.37079 0.165337C9.92989 0.275581 10.4338 0.425261 10.8827 0.622127C11.3394 0.811118 11.7568 1.04746 12.1427 1.32308C12.5285 1.59869 12.8829 1.89785 13.2136 2.22858L11.1898 4.55944C10.6229 4.05547 10.0559 3.65385 9.46528 3.36248C8.88256 3.07112 8.22109 2.92953 7.49662 2.92953C6.89027 2.92953 6.33117 3.04761 5.81932 3.27597C5.30747 3.51221 4.85861 3.83505 4.4885 4.24454C4.1184 4.65402 3.82705 5.13423 3.62231 5.67758C3.41757 6.22093 3.31519 6.80362 3.31519 7.41784V7.45745C3.31519 8.07167 3.41757 8.66225 3.62231 9.21348C3.82705 9.7647 4.11056 10.2447 4.48067 10.6542C4.8429 11.0637 5.28388 11.3946 5.8036 11.6309C6.32333 11.875 6.89028 11.9931 7.5045 11.9931C8.33134 11.9931 9.02433 11.8434 9.59918 11.5363C10.1662 11.237 10.7331 10.8198 11.3001 10.3001L13.3239 12.3395C12.9538 12.7411 12.5679 13.0953 12.1663 13.4103" fill="var(--fill-0, #781029)"/>
</svg>
