<svg preserveAspectRatio="xMidYMid meet" width="51" height="74" overflow="visible" style="display: block;" viewBox="0 0 51 74" fill="none" xmlns="http://www.w3.org/2000/svg">
<path id="Vector" d="M6.67768 0.0157646H47.0273V5.15004H11.4025L9.65431 32.0499C11.9773 30.8845 14.3791 29.9471 16.8439 29.2227C19.3086 28.5061 22.2143 28.1437 25.5689 28.1437C28.9235 28.1437 32.2939 28.6714 35.2705 29.7344C38.2471 30.7975 40.8457 32.2861 43.0743 34.1997C45.2949 36.1132 47.0431 38.4047 48.3109 41.0742C49.5787 43.7437 50.2087 46.6888 50.2087 49.9017C50.2087 53.3271 49.5787 56.4531 48.3109 59.2958C47.0431 62.1386 45.2949 64.58 43.0743 66.6353C40.8457 68.6905 38.2156 70.2813 35.1681 71.4073C32.1206 72.5334 28.7897 73.1003 25.1595 73.1003C20.2299 73.1003 15.5918 71.974 11.245 69.714C6.8982 67.454 3.14985 64.7217 0 61.501L3.79558 57.7052C7.0793 60.9889 10.5363 63.572 14.1665 65.4541C17.7967 67.3361 21.5214 68.2732 25.3563 68.2732C28.2306 68.2732 30.8449 67.8084 33.2073 66.8871C35.5697 65.9658 37.5856 64.6821 39.2629 63.0363C40.9402 61.3905 42.2553 59.4615 43.216 57.233C44.1767 55.0123 44.6492 52.6342 44.6492 50.0985C44.6492 47.5629 44.1688 45.2554 43.216 43.1686C42.2553 41.0818 40.9087 39.2865 39.1605 37.7825C37.4124 36.2784 35.3256 35.0972 32.9003 34.2389C30.467 33.3806 27.8211 32.9554 24.9468 32.9554C21.5922 32.9554 18.6157 33.404 16.017 34.2939C13.4184 35.1837 10.9851 36.2468 8.72511 37.4753L4.61452 34.806L6.66979 0L6.67768 0.0157646Z" fill="var(--fill-0, #781029)"/>
</svg>
