<svg preserveAspectRatio="xMidYMid meet" width="9" height="11" overflow="visible" style="display: block;" viewBox="0 0 9 11" fill="none" xmlns="http://www.w3.org/2000/svg">
<path id="Vector" d="M7.77226 0.496394C8.12662 0.81138 8.2999 1.19702 8.2999 1.65375C8.2999 2.00811 8.18962 2.31534 7.97701 2.56733C7.76439 2.81932 7.48093 2.9453 7.1187 2.9453C6.81947 2.9453 6.55957 2.85071 6.34695 2.65384C6.13434 2.46485 6.02412 2.19712 6.02412 1.86638C6.02412 1.40965 6.26037 1.03942 6.72497 0.755934C6.63047 0.622065 6.48082 0.551378 6.29183 0.551378C5.75635 0.551378 5.26813 0.76384 4.82716 1.1812C4.38618 1.59855 4.03969 2.11056 3.79558 2.7169C3.54359 3.32325 3.4255 3.89016 3.4255 4.42564V8.79591C3.4255 9.42588 3.60661 9.86699 3.96885 10.119C4.33108 10.3631 4.88227 10.4893 5.60674 10.4893V10.9222L5.11063 10.8988C3.70895 10.8594 2.81127 10.8357 2.43328 10.8357C2.07105 10.8357 1.26782 10.8594 0 10.9145V10.4812C0.574848 10.4812 0.98436 10.3787 1.21272 10.1582C1.44896 9.94559 1.56704 9.55975 1.56704 8.99277V2.5358C1.56704 1.90583 1.44896 1.44123 1.21272 1.15774C0.976486 0.866379 0.574848 0.724405 0 0.724405V0.291454C0.44098 0.330827 0.866206 0.354512 1.27569 0.354512C2.1419 0.354512 2.85851 0.259924 3.41761 0.0630586V2.63808C3.6696 1.95299 4.06334 1.3387 4.60669 0.803228C5.15004 0.267753 5.7485 0 6.40996 0C6.96119 0 7.41002 0.15757 7.76438 0.472555" fill="var(--fill-0, #781029)"/>
</svg>
