<svg preserveAspectRatio="none" width="100%" height="100%" overflow="visible" style="display: block;" viewBox="0 0 199 165" fill="none" xmlns="http://www.w3.org/2000/svg">
<g id="75-hour-logo">
<path d="M76.5102 110.466L77.0142 103.662C77.0142 103.591 76.967 103.528 76.8961 103.528C76.8252 103.528 76.7622 103.575 76.7622 103.646L76.2661 110.293C76.3449 110.348 76.4315 110.41 76.5102 110.466Z" fill="var(--fill-0, #781029)"/>
<path d="M78.0146 111.915L80.2432 97.8586C80.2511 97.7877 80.2038 97.7248 80.1329 97.709C80.0621 97.7011 79.9991 97.7483 79.9833 97.8113L77.7941 111.647C77.865 111.734 77.9438 111.82 78.0146 111.907" fill="var(--fill-0, #781029)"/>
<path d="M74.9667 109.521V97.4252C74.9588 97.3544 74.8958 97.2995 74.825 97.2995C74.7541 97.2995 74.699 97.3544 74.699 97.4252V109.403C74.7934 109.442 74.8801 109.482 74.9667 109.521Z" fill="var(--fill-0, #781029)"/>
<path d="M50.611 143.949C50.548 143.98 50.5244 144.059 50.5559 144.122C50.5795 144.161 50.6268 144.193 50.6662 144.193C50.6898 144.193 50.7055 144.193 50.7291 144.177L56.1233 141.271C56.1233 141.177 56.1233 141.074 56.1233 140.98L50.611 143.949Z" fill="var(--fill-0, #781029)"/>
<path d="M50.8233 117.749C50.7603 117.718 50.6815 117.742 50.65 117.797C50.6185 117.86 50.6422 117.939 50.6973 117.97L56.0127 120.876C56.0127 120.781 56.0127 120.687 56.0205 120.592L50.8154 117.749H50.8233Z" fill="var(--fill-0, #781029)"/>
<path d="M84.9836 112.269L90.7557 101.418C90.7872 101.355 90.7636 101.276 90.7006 101.245C90.6376 101.213 90.5588 101.237 90.5274 101.299L84.7001 112.269C84.7946 112.269 84.8891 112.269 84.9915 112.269" fill="var(--fill-0, #781029)"/>
<path d="M85.5744 105.757L82.6844 112.49C82.7868 112.466 82.8892 112.442 82.9915 112.427L85.8107 105.859C85.8422 105.796 85.8106 105.717 85.7398 105.694C85.6689 105.67 85.598 105.694 85.5744 105.765" fill="var(--fill-0, #781029)"/>
<path d="M79.1883 113.868L81.5034 104.394C81.5192 104.324 81.4798 104.253 81.4089 104.237C81.338 104.221 81.2672 104.26 81.2514 104.331L79.0072 113.489C79.0702 113.608 79.1253 113.734 79.1804 113.86" fill="var(--fill-0, #781029)"/>
<path d="M81.0072 113.072L85.6454 99.205C85.669 99.1341 85.6296 99.0633 85.5666 99.0397C85.4957 99.016 85.4249 99.0551 85.4013 99.1181L80.6844 113.214C80.7867 113.167 80.897 113.119 80.9993 113.072" fill="var(--fill-0, #781029)"/>
<path d="M47.3899 130.822C47.319 130.822 47.2639 130.877 47.2639 130.948C47.2639 131.019 47.319 131.074 47.3899 131.074L53.1462 131.089C53.1462 131.089 53.1462 131.074 53.1383 131.074C53.1777 130.995 53.2092 130.916 53.2486 130.837L47.3899 130.822Z" fill="var(--fill-0, #781029)"/>
<path d="M48.7367 139.933C48.7525 139.988 48.8076 140.019 48.8548 140.019C48.8706 140.019 48.8785 140.019 48.8942 140.019L56.9342 137.279C56.9815 137.169 57.0366 137.058 57.0917 136.956L48.8155 139.775C48.7525 139.799 48.7131 139.87 48.7367 139.941" fill="var(--fill-0, #781029)"/>
<path d="M59.5327 108.095C59.4776 108.135 59.4618 108.214 59.5012 108.277L63.1157 113.694C63.1551 113.6 63.1944 113.513 63.2416 113.419L59.7138 108.135C59.6745 108.08 59.5957 108.064 59.5327 108.103" fill="var(--fill-0, #781029)"/>
<path d="M53.0524 147.949C53.0524 147.949 53.1154 147.996 53.1547 147.996C53.1784 147.996 53.2098 147.988 53.2335 147.973L59.3127 143.256C59.2025 143.232 59.0922 143.209 58.9898 143.185L53.076 147.768C53.0209 147.815 53.013 147.894 53.0524 147.949Z" fill="var(--fill-0, #781029)"/>
<path d="M86.9291 115.513L95.4179 104.449C95.4573 104.394 95.4494 104.315 95.3943 104.268C95.3392 104.221 95.2604 104.237 95.2132 104.292L86.8503 115.198C86.8818 115.301 86.9054 115.411 86.9291 115.513Z" fill="var(--fill-0, #781029)"/>
<path d="M47.626 135.499C47.6338 135.562 47.689 135.609 47.752 135.609C47.752 135.609 47.7677 135.609 47.7756 135.609L55.7053 134.31C55.6187 134.239 55.5242 134.168 55.4376 134.098L47.7283 135.357C47.6575 135.365 47.6102 135.436 47.626 135.507" fill="var(--fill-0, #781029)"/>
<path d="M53.1702 113.986C53.1229 114.041 53.1387 114.12 53.1938 114.167L59.1313 118.836C59.2415 118.813 59.3439 118.789 59.462 118.765L53.3513 113.962C53.2962 113.915 53.2174 113.931 53.1702 113.986Z" fill="var(--fill-0, #781029)"/>
<path d="M56.139 110.946C56.0917 110.89 56.013 110.89 55.9579 110.946C55.9028 110.993 55.9028 111.072 55.9579 111.127L62.2812 117.852C62.2812 117.734 62.2891 117.616 62.2969 117.498L56.1469 110.954L56.139 110.946Z" fill="var(--fill-0, #781029)"/>
<path d="M56.1388 151.319C56.1388 151.319 56.194 151.351 56.2255 151.351C56.257 151.351 56.2963 151.335 56.32 151.311L62.5252 144.586C62.5252 144.46 62.5251 144.327 62.5409 144.193L56.1388 151.13C56.0916 151.185 56.0916 151.264 56.1388 151.311" fill="var(--fill-0, #781029)"/>
<path d="M48.792 121.97C48.7684 122.033 48.8077 122.112 48.8707 122.136L56.9186 124.939C56.8635 124.837 56.8163 124.727 56.769 124.617L48.9573 121.9C48.8944 121.876 48.8156 121.915 48.792 121.978" fill="var(--fill-0, #781029)"/>
<path d="M47.8074 126.294C47.7365 126.286 47.6735 126.325 47.6577 126.396C47.642 126.467 47.6892 126.53 47.7601 126.546L55.5796 127.884C55.6662 127.813 55.7607 127.743 55.8552 127.672L47.7995 126.294H47.8074Z" fill="var(--fill-0, #781029)"/>
<path d="M89.7789 107.836C89.7159 107.796 89.6371 107.812 89.6056 107.875L86.1093 113.316C86.1565 113.403 86.2038 113.49 86.2432 113.584L89.8261 108.017C89.8655 107.954 89.8498 107.875 89.7868 107.843" fill="var(--fill-0, #781029)"/>
<path d="M93.4095 151.288C93.4095 151.288 93.4725 151.327 93.504 151.327C93.5355 151.327 93.567 151.319 93.5906 151.296C93.6458 151.249 93.6458 151.17 93.5906 151.115L87.3776 144.397C87.3776 144.523 87.3776 144.65 87.3776 144.768L93.4095 151.288Z" fill="var(--fill-0, #781029)"/>
<path d="M100.899 121.939C100.875 121.876 100.804 121.837 100.733 121.861L92.8034 124.632C92.7561 124.743 92.7089 124.845 92.6538 124.955L100.82 122.105C100.883 122.081 100.922 122.01 100.899 121.939Z" fill="var(--fill-0, #781029)"/>
<path d="M88.409 118.577L99.528 108.205C99.5831 108.158 99.5831 108.079 99.528 108.024C99.4807 107.969 99.402 107.969 99.3468 108.024L88.0389 118.569C88.157 118.569 88.283 118.569 88.4011 118.577" fill="var(--fill-0, #781029)"/>
<path d="M96.5203 113.954C96.473 113.899 96.3943 113.891 96.3392 113.93L90.1891 118.781C90.2993 118.805 90.4095 118.828 90.5119 118.852L96.4966 114.135C96.5517 114.088 96.5596 114.009 96.5203 113.954Z" fill="var(--fill-0, #781029)"/>
<path d="M93.4096 110.796C93.4568 110.741 93.4568 110.662 93.4017 110.615C93.3465 110.568 93.2678 110.568 93.2206 110.623L87.1413 117.317C87.1413 117.443 87.1413 117.576 87.1413 117.702L93.4174 110.796H93.4096Z" fill="var(--fill-0, #781029)"/>
<path d="M95.575 129.349L108.356 128.231C108.426 128.231 108.482 128.16 108.474 128.089C108.474 128.018 108.403 127.971 108.332 127.971L95.386 129.105C95.449 129.183 95.512 129.262 95.575 129.341" fill="var(--fill-0, #781029)"/>
<path d="M99.0394 117.765C99.0079 117.702 98.9291 117.679 98.8661 117.718L93.5587 120.632C93.5665 120.726 93.5665 120.821 93.5744 120.915L98.9922 117.947C99.0552 117.915 99.0788 117.837 99.0394 117.774" fill="var(--fill-0, #781029)"/>
<path d="M102.048 126.364C102.032 126.294 101.969 126.246 101.898 126.262L93.8267 127.648C93.9212 127.719 94.0078 127.79 94.1023 127.861L101.945 126.514C102.016 126.506 102.064 126.435 102.048 126.364Z" fill="var(--fill-0, #781029)"/>
<path d="M89.9208 154.131C89.9208 154.131 89.9681 154.13 89.9917 154.107C90.0468 154.067 90.0704 153.989 90.0311 153.934L86.4481 148.469C86.4009 148.555 86.3615 148.642 86.3142 148.728L89.8184 154.068C89.8184 154.068 89.8814 154.123 89.9287 154.123" fill="var(--fill-0, #781029)"/>
<path d="M92.268 126.664L107.435 122.734C107.505 122.719 107.545 122.648 107.529 122.577C107.513 122.506 107.442 122.467 107.372 122.483L91.9294 126.483C92.0475 126.538 92.1577 126.601 92.2759 126.656" fill="var(--fill-0, #781029)"/>
<path d="M102.316 131.042C102.386 131.042 102.442 130.987 102.442 130.916C102.442 130.845 102.386 130.79 102.316 130.79L96.4804 130.814C96.4804 130.814 96.5119 130.877 96.5277 130.908C96.504 130.963 96.4804 131.018 96.4489 131.074L102.316 131.05V131.042Z" fill="var(--fill-0, #781029)"/>
<path d="M93.362 122.939L105.615 117.482C105.678 117.451 105.709 117.38 105.678 117.317C105.646 117.254 105.576 117.222 105.513 117.254L93.4329 122.632C93.4093 122.735 93.3935 122.837 93.3699 122.939" fill="var(--fill-0, #781029)"/>
<path d="M92.4568 119.545L102.962 112.592C103.017 112.552 103.04 112.474 103.001 112.418C102.962 112.355 102.883 112.34 102.828 112.379L92.1969 119.419C92.2914 119.458 92.378 119.506 92.4646 119.553" fill="var(--fill-0, #781029)"/>
<path d="M100.867 139.988C100.922 139.988 100.969 139.956 100.985 139.901C101.008 139.83 100.969 139.759 100.906 139.736L92.6929 136.948C92.748 137.05 92.7953 137.161 92.8425 137.271L100.827 139.98C100.827 139.98 100.851 139.98 100.867 139.98" fill="var(--fill-0, #781029)"/>
<path d="M98.9923 144.145C98.9923 144.145 99.0317 144.161 99.0553 144.161C99.1025 144.161 99.1419 144.138 99.1656 144.09C99.1971 144.027 99.1734 143.948 99.1104 143.917L93.6927 141.004C93.6927 141.098 93.6927 141.2 93.6927 141.295L98.9923 144.138V144.145Z" fill="var(--fill-0, #781029)"/>
<path d="M101.945 135.57C101.945 135.57 101.961 135.57 101.969 135.57C102.032 135.57 102.087 135.523 102.095 135.46C102.103 135.389 102.056 135.326 101.993 135.31L94.1415 134.035C94.047 134.105 93.9525 134.176 93.858 134.247L101.945 135.562V135.57Z" fill="var(--fill-0, #781029)"/>
<path d="M96.5752 147.972C96.5752 147.972 96.654 147.957 96.6776 147.926C96.717 147.87 96.7091 147.791 96.654 147.744L90.6299 143.082C90.5196 143.106 90.4094 143.13 90.2991 143.145L96.5043 147.941C96.5043 147.941 96.5516 147.965 96.5831 147.965" fill="var(--fill-0, #781029)"/>
<path d="M70.4554 147.894L67.9906 157.635C67.9749 157.705 68.0142 157.776 68.0851 157.792C68.093 157.792 68.1087 157.792 68.1166 157.792C68.1717 157.792 68.2268 157.753 68.2426 157.698L70.6365 148.256C70.5735 148.138 70.5183 148.02 70.4632 147.894" fill="var(--fill-0, #781029)"/>
<path d="M77.9512 150.241L80.2979 164.218C80.3057 164.281 80.3609 164.328 80.4239 164.328C80.4239 164.328 80.4396 164.328 80.4474 164.328C80.5183 164.312 80.5656 164.249 80.5498 164.178L78.1638 149.996C78.093 150.083 78.0221 150.162 77.9433 150.248" fill="var(--fill-0, #781029)"/>
<path d="M76.4481 151.642L77.0151 158.422C77.0151 158.485 77.0781 158.54 77.1411 158.54H77.149C77.2199 158.54 77.2749 158.469 77.2671 158.399L76.6843 151.445C76.6056 151.508 76.5269 151.579 76.4402 151.642" fill="var(--fill-0, #781029)"/>
<path d="M79.3458 148.146C79.2906 148.264 79.2276 148.382 79.1725 148.492L81.5113 157.69C81.527 157.745 81.5743 157.784 81.6373 157.784C81.6451 157.784 81.6609 157.784 81.6688 157.784C81.7397 157.768 81.779 157.698 81.7633 157.627L79.3536 148.146H79.3458Z" fill="var(--fill-0, #781029)"/>
<path d="M74.7386 152.366V164.659C74.7465 164.73 74.8016 164.785 74.8725 164.785C74.9434 164.785 74.9985 164.73 74.9985 164.659V152.477C74.904 152.437 74.8174 152.406 74.7307 152.366" fill="var(--fill-0, #781029)"/>
<path d="M71.5969 149.815L69.203 164.179C69.1951 164.249 69.2424 164.312 69.3054 164.328C69.3054 164.328 69.3211 164.328 69.329 164.328C69.392 164.328 69.4471 164.281 69.455 164.218L71.8095 150.083C71.7386 149.996 71.6678 149.902 71.5969 149.807" fill="var(--fill-0, #781029)"/>
<path d="M63.927 156.241L66.8958 149.469C66.7934 149.493 66.691 149.516 66.5887 149.532L63.6908 156.138C63.6593 156.201 63.6908 156.28 63.7538 156.304C63.7696 156.304 63.7853 156.312 63.809 156.312C63.8562 156.312 63.9034 156.28 63.927 156.233" fill="var(--fill-0, #781029)"/>
<path d="M68.5812 148.91L63.8091 162.793C63.7855 162.856 63.8249 162.935 63.8879 162.958C63.9036 162.958 63.9194 162.958 63.9272 162.958C63.9824 162.958 64.0296 162.927 64.0454 162.872L68.8961 148.752C68.7938 148.807 68.6835 148.855 68.5733 148.902" fill="var(--fill-0, #781029)"/>
<path d="M73.0537 151.327L72.471 158.406C72.471 158.477 72.5182 158.54 72.5891 158.548H72.597C72.66 158.548 72.7151 158.501 72.7229 158.43L73.2899 151.524C73.2112 151.461 73.1246 151.398 73.0458 151.335" fill="var(--fill-0, #781029)"/>
<path d="M81.1016 148.752C80.9914 148.697 80.8812 148.65 80.7788 148.595L85.7004 162.864C85.7162 162.919 85.7713 162.95 85.8185 162.95C85.8343 162.95 85.8501 162.95 85.8579 162.95C85.9209 162.926 85.9603 162.856 85.9367 162.785L81.0937 148.76L81.1016 148.752Z" fill="var(--fill-0, #781029)"/>
<path d="M88.4326 143.295C88.2987 143.295 88.1727 143.287 88.0389 143.279L99.5674 153.839C99.5674 153.839 99.6225 153.871 99.654 153.871C99.6855 153.871 99.7248 153.855 99.7485 153.832C99.7957 153.776 99.7957 153.697 99.7406 153.65L88.4326 143.295Z" fill="var(--fill-0, #781029)"/>
<path d="M83.1016 149.429C82.9993 149.406 82.889 149.382 82.7866 149.359L85.8105 156.225C85.8341 156.272 85.8814 156.304 85.9286 156.304C85.9444 156.304 85.9601 156.304 85.9837 156.296C86.0467 156.265 86.0783 156.194 86.0468 156.131L83.1016 149.437V149.429Z" fill="var(--fill-0, #781029)"/>
<path d="M107.505 139.035L92.1733 135.216C92.0473 135.271 91.9214 135.326 91.7954 135.373C91.7954 135.373 91.7954 135.373 91.7954 135.381L107.442 139.279C107.442 139.279 107.466 139.279 107.474 139.279C107.529 139.279 107.584 139.24 107.6 139.185C107.616 139.114 107.576 139.043 107.505 139.027" fill="var(--fill-0, #781029)"/>
<path d="M108.38 133.539L95.5911 132.539C95.5281 132.617 95.473 132.704 95.41 132.782L108.364 133.798C108.435 133.798 108.49 133.751 108.498 133.68C108.498 133.609 108.45 133.546 108.38 133.546" fill="var(--fill-0, #781029)"/>
<path d="M103.127 149.232L92.559 142.374C92.4724 142.421 92.3858 142.46 92.2913 142.507L102.985 149.445C102.985 149.445 103.032 149.469 103.056 149.469C103.095 149.469 103.143 149.445 103.166 149.414C103.206 149.351 103.19 149.272 103.127 149.24" fill="var(--fill-0, #781029)"/>
<path d="M105.741 144.319L93.4329 138.972C93.4566 139.074 93.4802 139.176 93.5038 139.279L105.639 144.547C105.639 144.547 105.67 144.555 105.686 144.555C105.733 144.555 105.78 144.523 105.804 144.476C105.835 144.413 105.804 144.334 105.741 144.311" fill="var(--fill-0, #781029)"/>
<path d="M64.6041 149.689L58.7297 160.533C58.6982 160.596 58.7218 160.675 58.7848 160.706C58.8006 160.714 58.8242 160.722 58.8478 160.722C58.895 160.722 58.9344 160.698 58.958 160.659L64.9034 149.689C64.8089 149.689 64.7144 149.689 64.612 149.689" fill="var(--fill-0, #781029)"/>
<path d="M85.102 149.619C85.0075 149.619 84.9051 149.619 84.8106 149.619L90.8032 160.643C90.8269 160.682 90.8741 160.706 90.9135 160.706C90.9371 160.706 90.9529 160.706 90.9765 160.69C91.0395 160.659 91.0631 160.58 91.0237 160.517L85.102 149.619Z" fill="var(--fill-0, #781029)"/>
<path d="M87.1408 146.548C87.1172 146.65 87.0936 146.76 87.0621 146.862L95.4643 157.603C95.4643 157.603 95.5273 157.651 95.5667 157.651C95.5903 157.651 95.6218 157.643 95.6455 157.627C95.7006 157.58 95.7084 157.501 95.6691 157.446L87.1487 146.548H87.1408Z" fill="var(--fill-0, #781029)"/>
<path d="M44.0748 117.521L56.2018 122.9C56.1781 122.797 56.1624 122.695 56.1387 122.593L44.1772 117.285C44.1142 117.254 44.0355 117.285 44.0118 117.348C43.9803 117.411 44.0118 117.49 44.0748 117.514" fill="var(--fill-0, #781029)"/>
<path d="M46.7285 112.623L57.1781 119.521C57.2647 119.482 57.3592 119.435 57.4537 119.395L46.8702 112.411C46.8151 112.371 46.7285 112.387 46.697 112.45C46.6576 112.513 46.6733 112.592 46.7363 112.631" fill="var(--fill-0, #781029)"/>
<path d="M62.5098 115.718C62.5335 115.608 62.5571 115.498 62.5807 115.395L54.0446 104.654C53.9973 104.599 53.9186 104.591 53.8635 104.63C53.8084 104.678 53.8005 104.757 53.8398 104.812L62.5098 115.718Z" fill="var(--fill-0, #781029)"/>
<path d="M66.3052 112.371C66.4076 112.387 66.5099 112.411 66.6123 112.427L63.6908 105.946C63.6593 105.883 63.5884 105.851 63.5175 105.883C63.4545 105.914 63.4231 105.985 63.4546 106.048L66.2973 112.371H66.3052Z" fill="var(--fill-0, #781029)"/>
<path d="M61.3044 118.608C61.4383 118.608 61.5643 118.616 61.6981 118.624L50.3271 108.048C50.272 108.001 50.1933 108.001 50.146 108.048C50.0988 108.103 50.0988 108.182 50.146 108.229L61.2966 118.6L61.3044 118.608Z" fill="var(--fill-0, #781029)"/>
<path d="M64.3125 112.269C64.407 112.269 64.5016 112.261 64.5961 112.253L58.6743 101.567C58.6428 101.504 58.564 101.481 58.501 101.52C58.438 101.552 58.4144 101.63 58.4538 101.693L64.3125 112.269Z" fill="var(--fill-0, #781029)"/>
<path d="M62.7141 146.398L54.0756 157.469C54.0362 157.524 54.0441 157.603 54.0993 157.65C54.1229 157.666 54.1465 157.674 54.178 157.674C54.2174 157.674 54.2567 157.658 54.2804 157.627L62.7928 146.713C62.7692 146.61 62.7377 146.5 62.7141 146.39" fill="var(--fill-0, #781029)"/>
<path d="M71.5892 111.749L69.1481 97.9058C69.1323 97.8349 69.0693 97.7874 68.9984 97.8031C68.9276 97.8189 68.8803 97.8818 68.8961 97.9527L71.3687 112.009C71.4396 111.922 71.5105 111.836 71.5813 111.749" fill="var(--fill-0, #781029)"/>
<path d="M73.0851 110.332L72.4709 103.678C72.4709 103.607 72.4 103.552 72.3291 103.56C72.2583 103.56 72.2032 103.631 72.211 103.701L72.8331 110.521C72.9119 110.458 72.9906 110.395 73.0772 110.332" fill="var(--fill-0, #781029)"/>
<path d="M70.1872 113.789C70.2502 113.687 70.3053 113.576 70.3683 113.474L67.9902 104.449C67.9745 104.378 67.9036 104.339 67.8327 104.355C67.7618 104.371 67.7225 104.442 67.7382 104.512L70.1793 113.789H70.1872Z" fill="var(--fill-0, #781029)"/>
<path d="M68.3291 112.978C68.4393 113.025 68.5495 113.072 68.6519 113.127L63.7618 99.3073C63.7382 99.2443 63.6673 99.2048 63.5964 99.2284C63.5334 99.2521 63.494 99.3229 63.5176 99.3938L68.3291 112.978Z" fill="var(--fill-0, #781029)"/>
<path d="M57.0446 142.476L46.6028 149.272C46.5477 149.311 46.5241 149.39 46.5635 149.445C46.5871 149.484 46.6265 149.5 46.6737 149.5C46.6973 149.5 46.7209 149.5 46.7446 149.477L57.3124 142.602C57.2179 142.563 57.1312 142.515 57.0446 142.476Z" fill="var(--fill-0, #781029)"/>
<path d="M57.2495 135.318L42.2089 139.082C42.138 139.098 42.0987 139.169 42.1144 139.24C42.1302 139.295 42.1774 139.334 42.2404 139.334C42.2483 139.334 42.264 139.334 42.2719 139.334L57.5881 135.499C57.4778 135.444 57.3597 135.381 57.2495 135.318Z" fill="var(--fill-0, #781029)"/>
<path d="M56.3667 138.964L43.9877 144.358C43.9247 144.39 43.8933 144.46 43.9248 144.523C43.9484 144.571 43.9956 144.602 44.0429 144.602C44.0586 144.602 44.0744 144.602 44.0901 144.594L56.3037 139.271C56.3273 139.169 56.3431 139.066 56.3667 138.964Z" fill="var(--fill-0, #781029)"/>
<path d="M59.7455 154.123C59.7455 154.123 59.7928 154.146 59.8164 154.146C59.8558 154.146 59.8951 154.123 59.9266 154.091L63.5253 148.595C63.4781 148.508 63.4387 148.422 63.3915 148.327L59.7141 153.95C59.6747 154.005 59.6904 154.091 59.7534 154.123" fill="var(--fill-0, #781029)"/>
<path d="M61.0997 143.492L49.9965 153.682C49.9414 153.729 49.9413 153.807 49.9886 153.863C50.0122 153.886 50.0516 153.902 50.0831 153.902C50.1146 153.902 50.1461 153.894 50.1697 153.871L61.4619 143.508C61.336 143.508 61.2179 143.508 61.0997 143.492Z" fill="var(--fill-0, #781029)"/>
<path d="M42.2636 122.782L57.4695 126.695C57.5877 126.64 57.7137 126.577 57.8397 126.53L42.3345 122.537C42.2637 122.522 42.1928 122.561 42.177 122.632C42.1613 122.703 42.2006 122.774 42.2715 122.789" fill="var(--fill-0, #781029)"/>
<path d="M54.005 132.578L41.3347 133.586C41.2638 133.586 41.2087 133.657 41.2166 133.72C41.2166 133.791 41.2796 133.838 41.3426 133.838C41.3426 133.838 41.3426 133.838 41.3505 133.838L54.1861 132.814C54.1231 132.735 54.0601 132.657 53.9971 132.57" fill="var(--fill-0, #781029)"/>
<path d="M41.3501 128.27L54.1307 129.373C54.1937 129.294 54.2566 129.207 54.3196 129.129L41.3737 128.01C41.3029 128.01 41.2399 128.058 41.232 128.129C41.232 128.199 41.2793 128.262 41.3501 128.27Z" fill="var(--fill-0, #781029)"/>
<path d="M100.189 62.6507C100.189 79.7308 86.2903 93.6294 69.2102 93.6294C52.1301 93.6294 38.2313 79.7308 38.2313 62.6507C38.2313 45.5706 52.1301 31.6716 69.2102 31.6716C86.2903 31.6716 100.189 45.5706 100.189 62.6507ZM99.559 62.6507C99.559 45.9171 85.9438 32.3018 69.2102 32.3018C52.4766 32.3018 38.8613 45.9171 38.8613 62.6507C38.8613 79.3843 52.4766 92.9996 69.2102 92.9996C85.9438 92.9996 99.559 79.3843 99.559 62.6507Z" fill="var(--fill-0, #781029)"/>
<path d="M100.189 31.9865C100.189 49.0666 86.2903 62.9656 69.2102 62.9656C52.1301 62.9656 38.2313 49.0666 38.2313 31.9865C38.2313 14.9064 52.1301 1.01591 69.2102 1.01591C86.2903 1.01591 100.189 14.9143 100.189 31.9865ZM99.559 31.9865C99.559 15.2529 85.9438 1.63804 69.2102 1.63804C52.4766 1.63804 38.8613 15.2529 38.8613 31.9865C38.8613 48.7201 52.4766 62.3354 69.2102 62.3354C85.9438 62.3354 99.559 48.7201 99.559 31.9865Z" fill="var(--fill-0, #781029)"/>
<path d="M100.189 93.2986C100.189 110.379 86.2903 124.277 69.2102 124.277C52.1301 124.277 38.2313 110.379 38.2313 93.2986C38.2313 76.2185 52.1301 62.3195 69.2102 62.3195C86.2903 62.3195 100.189 76.2185 100.189 93.2986ZM99.559 93.2986C99.559 76.565 85.9438 62.9497 69.2102 62.9497C52.4766 62.9497 38.8613 76.565 38.8613 93.2986C38.8613 110.032 52.4766 123.647 69.2102 123.647C85.9438 123.647 99.559 110.032 99.559 93.2986Z" fill="var(--fill-0, #781029)"/>
<path d="M126.734 77.9747C126.734 95.0548 112.836 108.953 95.7554 108.953C78.6754 108.953 64.7767 95.0548 64.7767 77.9747C64.7767 60.8947 78.6754 46.9957 95.7554 46.9957C112.836 46.9957 126.734 60.8947 126.734 77.9747ZM126.112 77.9747C126.112 61.2411 112.497 47.6259 95.7633 47.6259C79.0297 47.6259 65.4145 61.2411 65.4145 77.9747C65.4145 94.7083 79.0297 108.324 95.7633 108.324C112.497 108.324 126.112 94.7083 126.112 77.9747Z" fill="var(--fill-0, #781029)"/>
<path d="M126.734 47.3187C126.734 64.3987 112.836 78.2974 95.7554 78.2974C78.6754 78.2974 64.7767 64.3987 64.7767 47.3187C64.7767 30.2386 78.6754 16.34 95.7554 16.34C112.836 16.34 126.734 30.2386 126.734 47.3187ZM126.112 47.3187C126.112 30.5851 112.497 16.9698 95.7633 16.9698C79.0297 16.9698 65.4145 30.5851 65.4145 47.3187C65.4145 64.0523 79.0297 77.6675 95.7633 77.6675C112.497 77.6675 126.112 64.0523 126.112 47.3187Z" fill="var(--fill-0, #781029)"/>
<path d="M73.6436 47.311C73.6436 64.3911 59.7449 78.2897 42.6648 78.2897C25.5847 78.2897 11.686 64.3911 11.686 47.311C11.686 30.2309 25.5847 16.34 42.6648 16.34C59.7449 16.34 73.6436 30.2388 73.6436 47.311ZM73.0137 47.311C73.0137 30.5774 59.3984 16.9621 42.6648 16.9621C25.9312 16.9621 12.316 30.5774 12.316 47.311C12.316 64.0446 25.9312 77.6595 42.6648 77.6595C59.3984 77.6595 73.0137 64.0446 73.0137 47.311Z" fill="var(--fill-0, #781029)"/>
<path d="M73.6436 77.9747C73.6436 95.0548 59.7449 108.953 42.6648 108.953C25.5847 108.953 11.686 95.0548 11.686 77.9747C11.686 60.8947 25.5847 46.9957 42.6648 46.9957C59.7449 46.9957 73.6436 60.8947 73.6436 77.9747ZM73.0137 77.9747C73.0137 61.2411 59.3984 47.6259 42.6648 47.6259C25.9312 47.6259 12.316 61.2411 12.316 77.9747C12.316 94.7083 25.9312 108.324 42.6648 108.324C59.3984 108.324 73.0137 94.7083 73.0137 77.9747Z" fill="var(--fill-0, #781029)"/>
<path d="M122.522 92.8576L122.79 93.3301H15.7575L69.2735 0.63782L122.522 92.8576ZM121.711 92.6999L69.2813 1.88976L16.8521 92.6999H121.719H121.711Z" fill="var(--fill-0, #781029)"/>
<path d="M95.5033 47.0194L69.0839 92.8338L69.3517 92.9914L69.0839 93.1568L69.3674 93.5978L96.0467 47.3343L95.5033 47.0194Z" fill="var(--fill-0, #781029)"/>
<path d="M42.0035 46.3576L69.0843 93.1805L69.6513 92.9364L69.3599 93.0148L69.6198 92.8652L43.1059 47.0193L42.9641 47.0982L43.0586 46.9405L42.0035 46.3576Z" fill="var(--fill-0, #781029)"/>
<path d="M95.8107 46.8303H42.9561L42.8223 46.8384L42.8537 47.4605L42.9719 47.4525L95.8107 47.4605V46.8303Z" fill="var(--fill-0, #781029)"/>
<path d="M43.728 47.405C43.728 46.712 43.161 46.1453 42.4681 46.1453C41.7751 46.1453 41.2081 46.712 41.2081 47.405C41.2081 48.0979 41.7751 48.665 42.4681 48.665C43.161 48.665 43.728 48.0979 43.728 47.405Z" fill="var(--fill-0, #781029)"/>
<path d="M43.9794 16.6468C43.9794 15.9459 43.4125 15.3872 42.7195 15.3872C42.0265 15.3872 41.4596 15.9538 41.4596 16.6468C41.4596 17.3398 42.0265 17.9068 42.7195 17.9068C43.4125 17.9068 43.9794 17.3398 43.9794 16.6468Z" fill="var(--fill-0, #781029)"/>
<path d="M97.055 16.6468C97.055 15.9459 96.488 15.3872 95.795 15.3872C95.1021 15.3872 94.5351 15.9538 94.5351 16.6468C94.5351 17.3398 95.1021 17.9068 95.795 17.9068C96.488 17.9068 97.055 17.3398 97.055 16.6468Z" fill="var(--fill-0, #781029)"/>
<path d="M97.0628 47.2713C97.0628 46.5784 96.4958 46.0113 95.8028 46.0113C95.1098 46.0113 94.5429 46.5784 94.5429 47.2713C94.5429 47.9643 95.1098 48.5313 95.8028 48.5313C96.4958 48.5313 97.0628 47.9643 97.0628 47.2713Z" fill="var(--fill-0, #781029)"/>
<path d="M28.6556 73.8639C28.6556 73.163 28.0886 72.6038 27.3957 72.6038C26.7027 72.6038 26.1357 73.1709 26.1357 73.8639C26.1357 74.5568 26.7027 75.1239 27.3957 75.1239C28.0886 75.1239 28.6556 74.5568 28.6556 73.8639Z" fill="var(--fill-0, #781029)"/>
<path d="M17.4111 62.5876C17.4111 61.8867 16.8442 61.3275 16.1512 61.3275C15.4582 61.3275 14.8912 61.8946 14.8912 62.5876C14.8912 63.2805 15.4582 63.8476 16.1512 63.8476C16.8442 63.8476 17.4111 63.2805 17.4111 62.5876Z" fill="var(--fill-0, #781029)"/>
<path d="M123.537 62.5876C123.537 61.8867 122.97 61.3275 122.277 61.3275C121.584 61.3275 121.017 61.8946 121.017 62.5876C121.017 63.2805 121.584 63.8476 122.277 63.8476C122.97 63.8476 123.537 63.2805 123.537 62.5876Z" fill="var(--fill-0, #781029)"/>
<path d="M39.8062 93.1095C39.8062 92.4086 39.2393 91.8495 38.5463 91.8495C37.8533 91.8495 37.2863 92.4165 37.2863 93.1095C37.2863 93.8024 37.8533 94.3695 38.5463 94.3695C39.2393 94.3695 39.8062 93.8024 39.8062 93.1095Z" fill="var(--fill-0, #781029)"/>
<path d="M101.174 93.0388C101.174 92.3458 100.607 91.7788 99.9139 91.7788C99.2209 91.7788 98.654 92.3458 98.654 93.0388C98.654 93.7318 99.2209 94.2988 99.9139 94.2988C100.607 94.2988 101.174 93.7318 101.174 93.0388Z" fill="var(--fill-0, #781029)"/>
<path d="M112.411 73.7932C112.411 73.1002 111.844 72.5332 111.151 72.5332C110.458 72.5332 109.891 73.1002 109.891 73.7932C109.891 74.4861 110.458 75.0532 111.151 75.0532C111.844 75.0532 112.411 74.4861 112.411 73.7932Z" fill="var(--fill-0, #781029)"/>
<path d="M70.5488 31.9473C70.5488 31.2464 69.9817 30.6872 69.2888 30.6872C68.5958 30.6872 68.0289 31.2543 68.0289 31.9473C68.0289 32.6402 68.5958 33.2073 69.2888 33.2073C69.9817 33.2073 70.5488 32.6402 70.5488 31.9473Z" fill="var(--fill-0, #781029)"/>
<path d="M70.5805 1.26002C70.5805 0.567051 70.0136 0 69.3206 0C68.6276 0 68.0607 0.567051 68.0607 1.26002C68.0607 1.95299 68.6276 2.51965 69.3206 2.51965C70.0136 2.51965 70.5805 1.95299 70.5805 1.26002Z" fill="var(--fill-0, #781029)"/>
<path d="M70.4073 62.6191C70.4073 61.9183 69.8404 61.3591 69.1474 61.3591C68.4545 61.3591 67.8875 61.9261 67.8875 62.6191C67.8875 63.3121 68.4545 63.8787 69.1474 63.8787C69.8404 63.8787 70.4073 63.3121 70.4073 62.6191Z" fill="var(--fill-0, #781029)"/>
<path d="M17.4028 93.1095C17.4028 92.4086 16.8358 91.8495 16.1428 91.8495C15.4499 91.8495 14.8829 92.4165 14.8829 93.1095C14.8829 93.8024 15.4499 94.3695 16.1428 94.3695C16.8358 94.3695 17.4028 93.8024 17.4028 93.1095Z" fill="var(--fill-0, #781029)"/>
<path d="M123.577 93.0149C123.577 92.322 123.01 91.7553 122.317 91.7553C121.624 91.7553 121.057 92.322 121.057 93.0149C121.057 93.7079 121.624 94.275 122.317 94.275C123.01 94.275 123.577 93.7079 123.577 93.0149Z" fill="var(--fill-0, #781029)"/>
<path d="M70.4705 93.2434C70.4705 92.5425 69.9035 91.9837 69.2106 91.9837C68.5176 91.9837 67.9506 92.5504 67.9506 93.2434C67.9506 93.9363 68.5176 94.5034 69.2106 94.5034C69.9035 94.5034 70.4705 93.9363 70.4705 93.2434Z" fill="var(--fill-0, #781029)"/>
<path d="M66.9734 64.9657V60.7604C66.9734 60.0281 66.7766 59.4454 66.3907 59.0044C66.0049 58.5634 65.4458 58.343 64.7292 58.343C64.3748 58.343 64.052 58.4062 63.7606 58.5322C63.4614 58.6582 63.2093 58.8312 62.981 59.0517C62.7605 59.2722 62.5873 59.5401 62.4613 59.8472C62.3353 60.1543 62.2723 60.493 62.2723 60.8631V64.9576H61.5951V54.831H62.2723V59.2012C62.5164 58.7839 62.8393 58.4375 63.2409 58.1462C63.6503 57.8627 64.1779 57.7132 64.8237 57.7132C65.2646 57.7132 65.6663 57.7841 66.0127 57.9258C66.3671 58.0676 66.6585 58.2723 66.9105 58.5322C67.1546 58.7921 67.3435 59.0991 67.4617 59.4535C67.5876 59.8078 67.6506 60.2014 67.6506 60.6266V64.9576H66.9734V64.9657Z" fill="var(--fill-0, #781029)"/>
<path d="M76.6045 62.8476C76.4234 63.2885 76.1714 63.6823 75.8407 64.0288C75.5099 64.3674 75.1241 64.6428 74.6831 64.8397C74.2421 65.0365 73.7539 65.1388 73.2263 65.1388C72.6987 65.1388 72.2184 65.0365 71.7774 64.8397C71.3364 64.6428 70.9584 64.3753 70.6355 64.0445C70.3127 63.7138 70.0607 63.3201 69.8796 62.8791C69.6984 62.4381 69.6119 61.9654 69.6119 61.4614V61.4299C69.6119 60.9338 69.6984 60.4615 69.8796 60.0126C70.0607 59.5716 70.3127 59.1779 70.6434 58.8314C70.9742 58.4928 71.36 58.217 71.801 58.0201C72.242 57.8232 72.7302 57.721 73.2578 57.721C73.7854 57.721 74.2657 57.8232 74.7067 58.0201C75.1477 58.217 75.5257 58.4849 75.8485 58.8157C76.1714 59.1464 76.4234 59.5401 76.6045 59.9811C76.7857 60.4221 76.8722 60.8944 76.8722 61.3984V61.4299C76.8722 61.926 76.7857 62.3987 76.6045 62.8476ZM76.1557 61.4299C76.1557 61.0047 76.0848 60.6109 75.9352 60.2329C75.7855 59.8628 75.5808 59.5323 75.3131 59.2567C75.0453 58.9811 74.7382 58.7603 74.3839 58.6107C74.0216 58.4532 73.6437 58.3746 73.2342 58.3746C72.8247 58.3746 72.431 58.4534 72.0687 58.6188C71.7144 58.7842 71.4072 58.9966 71.1474 59.2644C70.8954 59.5321 70.6907 59.8551 70.5489 60.2252C70.4072 60.5954 70.3363 60.9889 70.3363 61.3984V61.4222C70.3363 61.8474 70.4072 62.2412 70.5568 62.6192C70.7064 62.9893 70.9112 63.3119 71.1789 63.5954C71.4466 63.871 71.7537 64.0918 72.116 64.2414C72.4703 64.3989 72.8562 64.4775 73.2656 64.4775C73.6751 64.4775 74.0689 64.3987 74.4311 64.2333C74.7934 64.0758 75.0926 63.8555 75.3524 63.5877C75.6044 63.3121 75.8092 62.997 75.9509 62.6269C76.0927 62.2567 76.1636 61.8711 76.1636 61.4537V61.4222L76.1557 61.4299Z" fill="var(--fill-0, #781029)"/>
<path d="M84.2117 64.9658V63.6508C83.9676 64.0681 83.6448 64.4224 83.2432 64.7058C82.8337 64.9893 82.3061 65.1388 81.6604 65.1388C81.2194 65.1388 80.8178 65.0679 80.4713 64.9262C80.1169 64.7844 79.8177 64.5797 79.5736 64.3198C79.3294 64.0599 79.1404 63.7529 79.0223 63.3985C78.8963 63.0442 78.8333 62.6506 78.8333 62.2254V57.8944H79.5106V62.0993C79.5106 62.8316 79.7075 63.4143 80.0933 63.8553C80.4792 64.2963 81.0383 64.5167 81.7548 64.5167C82.0935 64.5167 82.4163 64.4539 82.7155 64.3279C83.0148 64.2019 83.2746 64.0285 83.503 63.808C83.7235 63.5875 83.8967 63.32 84.0227 63.0129C84.1487 62.7058 84.2117 62.3591 84.2117 61.9889V57.8944H84.8889V64.9658H84.2117Z" fill="var(--fill-0, #781029)"/>
<path d="M91.2196 58.5322C90.8101 58.5322 90.4242 58.6106 90.0541 58.7602C89.684 58.9098 89.3611 59.1384 89.0776 59.4377C88.7942 59.7369 88.5737 60.1068 88.4083 60.5477C88.243 60.9887 88.1563 61.4928 88.1563 62.0677V64.9657H87.4791V57.8943H88.1563V59.9022C88.2981 59.5872 88.4713 59.2959 88.6839 59.0282C88.8965 58.7604 89.1406 58.532 89.4084 58.343C89.6761 58.154 89.9675 58.0124 90.2903 57.91C90.6132 57.8156 90.9439 57.768 91.2983 57.7759V58.5241H91.2274L91.2196 58.5322Z" fill="var(--fill-0, #781029)"/>
<path d="M0 41.0895H49.6653V45.161L15.5209 116.017H9.41808L43.4601 46.4445H0V41.0895Z" fill="var(--fill-0, #781029)"/>
<path d="M49.3505 72.3677H89.7001V77.502H54.0752L52.3271 104.402C54.6501 103.236 57.0519 102.299 59.5166 101.575C61.9814 100.858 64.8871 100.496 68.2417 100.496C71.5963 100.496 74.9666 101.023 77.9433 102.086C80.9199 103.149 83.5185 104.638 85.747 106.552C87.9677 108.465 89.7158 110.757 90.9837 113.426C92.2515 116.096 92.8815 119.041 92.8815 122.254C92.8815 125.679 92.2515 128.805 90.9837 131.648C89.7158 134.491 87.9677 136.932 85.747 138.987C83.5185 141.042 80.8884 142.633 77.8409 143.759C74.7934 144.885 71.4625 145.452 67.8322 145.452C62.9027 145.452 58.2646 144.326 53.9178 142.066C49.571 139.806 45.8226 137.074 42.6728 133.853L46.4684 130.057C49.7521 133.341 53.209 135.924 56.8392 137.806C60.4694 139.688 64.1942 140.625 68.0291 140.625C70.9034 140.625 73.5177 140.16 75.8801 139.239C78.2425 138.318 80.2584 137.034 81.9357 135.388C83.613 133.742 84.9281 131.813 85.8888 129.585C86.8495 127.364 87.322 124.986 87.322 122.45C87.322 119.915 86.8416 117.607 85.8888 115.521C84.9281 113.434 83.5815 111.638 81.8333 110.134C80.0852 108.63 77.9984 107.449 75.573 106.591C73.1398 105.733 70.4939 105.307 67.6196 105.307C64.265 105.307 61.2884 105.756 58.6898 106.646C56.0912 107.536 53.6579 108.599 51.3979 109.827L47.2873 107.158L49.3426 72.3519L49.3505 72.3677Z" fill="var(--fill-0, #781029)"/>
<path d="M102.331 65.4694H105.386V65.8789H102.331V73.8639C102.331 74.486 102.441 74.9271 102.669 75.2027C102.898 75.4783 103.22 75.6122 103.654 75.6122C104.087 75.6122 104.441 75.4388 104.748 75.0924C105.047 74.7459 105.307 74.1868 105.512 73.3994L105.921 73.5017C105.575 75.3995 104.685 76.3443 103.244 76.3443C102.779 76.3443 102.394 76.2892 102.086 76.179C101.787 76.0687 101.519 75.8956 101.283 75.6672C100.984 75.3601 100.771 74.9898 100.653 74.5567C100.535 74.1158 100.48 73.5252 100.48 72.785V65.8789H98.5035V65.4694H100.48V62.3118C101.252 62.2882 101.866 62.1857 102.338 62.0204V65.4617L102.331 65.4694Z" fill="var(--fill-0, #781029)"/>
<path d="M114.072 65.6352C114.426 65.9502 114.6 66.3358 114.6 66.7925C114.6 67.1469 114.489 67.4541 114.277 67.7061C114.064 67.9581 113.781 68.0841 113.418 68.0841C113.119 68.0841 112.859 67.9895 112.647 67.7926C112.434 67.6037 112.324 67.3359 112.324 67.0052C112.324 66.5485 112.56 66.1782 113.025 65.8947C112.93 65.7609 112.781 65.6902 112.592 65.6902C112.056 65.6902 111.568 65.9026 111.127 66.32C110.686 66.7374 110.339 67.2494 110.095 67.8557C109.843 68.4621 109.725 69.029 109.725 69.5644V73.9347C109.725 74.5647 109.906 75.0058 110.269 75.2578C110.631 75.5019 111.182 75.6281 111.906 75.6281V76.061L111.41 76.0376C110.009 75.9982 109.111 75.9745 108.733 75.9745C108.371 75.9745 107.568 75.9982 106.3 76.0533V75.62C106.875 75.62 107.284 75.5175 107.512 75.297C107.749 75.0844 107.867 74.6986 107.867 74.1316V67.6746C107.867 67.0446 107.749 66.58 107.512 66.2965C107.276 66.0052 106.875 65.8632 106.3 65.8632V65.4303C106.741 65.4696 107.166 65.4933 107.575 65.4933C108.442 65.4933 109.158 65.3987 109.717 65.2019V67.7769C109.969 67.0918 110.363 66.4775 110.906 65.942C111.45 65.4066 112.048 65.1388 112.71 65.1388C113.261 65.1388 113.71 65.2964 114.064 65.6114" fill="var(--fill-0, #781029)"/>
<path d="M116.324 75.5649C115.906 75.1318 115.694 74.5333 115.694 73.7616C115.694 73.1395 115.859 72.6355 116.198 72.2339C116.536 71.8323 116.93 71.5174 117.395 71.2811C117.852 71.0449 118.466 70.8008 119.222 70.541C119.993 70.2811 120.56 70.0367 120.93 69.8162C121.301 69.5957 121.49 69.3044 121.49 68.9264V67.6507C121.49 66.8553 121.324 66.3044 120.986 66.0131C120.647 65.7138 120.174 65.572 119.576 65.572C118.615 65.572 117.93 65.8161 117.537 66.3122C117.812 66.3831 118.041 66.5247 118.229 66.7451C118.418 66.9656 118.505 67.2415 118.505 67.5722C118.505 67.903 118.395 68.1863 118.174 68.3831C117.954 68.58 117.67 68.6823 117.332 68.6823C116.946 68.6823 116.655 68.5642 116.466 68.3201C116.277 68.076 116.174 67.7847 116.174 67.4461C116.174 67.1075 116.253 66.8399 116.41 66.6194C116.568 66.3989 116.804 66.1782 117.119 65.9577C117.45 65.7214 117.867 65.5325 118.379 65.3829C118.883 65.2332 119.442 65.1545 120.049 65.1545C121.119 65.1545 121.931 65.4066 122.482 65.9185C122.828 66.2335 123.057 66.6191 123.175 67.0601C123.293 67.5089 123.348 68.0918 123.348 68.8242V74.5567C123.348 74.9032 123.395 75.1473 123.49 75.2969C123.584 75.4465 123.75 75.5253 123.986 75.5253C124.151 75.5253 124.309 75.4862 124.45 75.4153C124.592 75.3366 124.75 75.2341 124.915 75.0923L125.143 75.4469C124.789 75.7225 124.482 75.9193 124.23 76.0375C123.978 76.1556 123.655 76.2105 123.269 76.2105C122.608 76.2105 122.151 76.0452 121.891 75.7145C121.631 75.3837 121.497 74.9347 121.497 74.3756C121.088 75.0607 120.608 75.5413 120.072 75.8091C119.537 76.0768 118.93 76.2105 118.261 76.2105C117.395 76.2105 116.749 75.998 116.332 75.5649M121.49 73.8246V69.7847C121.364 69.9736 121.19 70.1391 120.978 70.2572C120.757 70.3832 120.419 70.5489 119.97 70.7536C119.45 70.9741 119.025 71.1865 118.702 71.3834C118.379 71.5803 118.103 71.8559 117.867 72.2024C117.631 72.5489 117.521 72.9896 117.521 73.5251C117.521 74.1393 117.67 74.612 117.978 74.927C118.277 75.242 118.678 75.3996 119.174 75.3996C120.08 75.3996 120.86 74.8796 121.505 73.8323" fill="var(--fill-0, #781029)"/>
<path d="M129.183 74.1554C129.183 74.7224 129.302 75.1082 129.538 75.3208C129.774 75.5335 130.176 75.6438 130.758 75.6438V76.0768C129.491 76.0217 128.664 75.9979 128.262 75.9979C127.861 75.9979 127.034 76.0217 125.766 76.0768V75.6438C126.341 75.6438 126.75 75.5413 126.986 75.3208C127.223 75.1082 127.341 74.7224 127.341 74.1554V67.6981C127.341 67.0681 127.223 66.6035 126.986 66.32C126.75 66.0286 126.349 65.887 125.766 65.887V65.4537C126.207 65.4931 126.632 65.5168 127.042 65.5168C127.908 65.5168 128.624 65.4226 129.183 65.2257V74.1554ZM129.034 60.6897C129.294 60.9496 129.428 61.2568 129.428 61.619C129.428 61.9813 129.294 62.2881 129.034 62.548C128.774 62.8079 128.467 62.9417 128.105 62.9417C127.742 62.9417 127.435 62.8079 127.175 62.548C126.916 62.2881 126.782 61.9813 126.782 61.619C126.782 61.2568 126.916 60.9496 127.175 60.6897C127.435 60.4298 127.742 60.296 128.105 60.296C128.467 60.296 128.774 60.4298 129.034 60.6897Z" fill="var(--fill-0, #781029)"/>
<path d="M140.917 65.95C141.177 66.2256 141.366 66.5721 141.476 66.9816C141.586 67.3911 141.641 67.9499 141.641 68.6507V74.1553C141.641 74.7223 141.76 75.1081 141.996 75.3207C142.232 75.5333 142.634 75.6437 143.216 75.6437V76.0767C141.949 76.0215 141.13 75.9978 140.744 75.9978C140.358 75.9978 139.586 76.0215 138.436 76.0767V75.6437C138.948 75.6437 139.303 75.5412 139.5 75.3207C139.696 75.1081 139.799 74.7223 139.799 74.1553V68.1943C139.799 67.4226 139.689 66.8397 139.468 66.4302C139.248 66.0286 138.799 65.8239 138.129 65.8239C137.562 65.8239 137.066 65.9892 136.625 66.3199C136.184 66.6506 135.846 67.0996 135.602 67.6745C135.357 68.2415 135.239 68.8793 135.239 69.5801V74.1553C135.239 74.7223 135.342 75.1081 135.539 75.3207C135.735 75.5333 136.09 75.6437 136.602 75.6437V76.0767C135.444 76.0215 134.68 75.9978 134.294 75.9978C133.909 75.9978 133.082 76.0215 131.822 76.0767V75.6437C132.397 75.6437 132.806 75.5412 133.034 75.3207C133.271 75.1081 133.389 74.7223 133.389 74.1553V67.698C133.389 67.068 133.271 66.6036 133.034 66.3122C132.798 66.0208 132.397 65.8789 131.822 65.8789V65.4459C132.263 65.4853 132.688 65.509 133.097 65.509C133.964 65.509 134.68 65.4144 135.239 65.2175V67.6507C135.586 66.7687 136.058 66.1309 136.673 65.7451C137.287 65.3513 137.972 65.1545 138.744 65.1545C139.704 65.1545 140.437 65.4143 140.933 65.9419" fill="var(--fill-0, #781029)"/>
<path d="M147.531 74.1554C147.531 74.7224 147.649 75.1082 147.885 75.3208C148.122 75.5335 148.523 75.6438 149.106 75.6438V76.0768C147.838 76.0217 147.011 75.9979 146.61 75.9979C146.208 75.9979 145.381 76.0217 144.113 76.0768V75.6438C144.688 75.6438 145.098 75.5413 145.334 75.3208C145.57 75.1082 145.688 74.7224 145.688 74.1554V67.6981C145.688 67.0681 145.57 66.6035 145.334 66.32C145.098 66.0286 144.696 65.887 144.113 65.887V65.4537C144.554 65.4931 144.98 65.5168 145.389 65.5168C146.255 65.5168 146.972 65.4226 147.531 65.2257V74.1554ZM147.389 60.6897C147.649 60.9496 147.783 61.2568 147.783 61.619C147.783 61.9813 147.649 62.2881 147.389 62.548C147.129 62.8079 146.822 62.9417 146.46 62.9417C146.098 62.9417 145.791 62.8079 145.531 62.548C145.271 62.2881 145.137 61.9813 145.137 61.619C145.137 61.2568 145.271 60.9496 145.531 60.6897C145.791 60.4298 146.098 60.296 146.46 60.296C146.822 60.296 147.129 60.4298 147.389 60.6897Z" fill="var(--fill-0, #781029)"/>
<path d="M159.272 65.95C159.532 66.2256 159.721 66.5721 159.831 66.9816C159.942 67.3911 159.997 67.9499 159.997 68.6507V74.1553C159.997 74.7223 160.115 75.1081 160.351 75.3207C160.587 75.5333 160.989 75.6437 161.572 75.6437V76.0767C160.304 76.0215 159.485 75.9978 159.099 75.9978C158.713 75.9978 157.942 76.0215 156.792 76.0767V75.6437C157.304 75.6437 157.658 75.5412 157.855 75.3207C158.052 75.1081 158.154 74.7223 158.154 74.1553V68.1943C158.154 67.4226 158.044 66.8397 157.823 66.4302C157.603 66.0286 157.154 65.8239 156.485 65.8239C155.918 65.8239 155.422 65.9892 154.981 66.3199C154.54 66.6506 154.201 67.0996 153.957 67.6745C153.713 68.2415 153.595 68.8793 153.595 69.5801V74.1553C153.595 74.7223 153.697 75.1081 153.894 75.3207C154.091 75.5333 154.445 75.6437 154.957 75.6437V76.0767C153.8 76.0215 153.036 75.9978 152.65 75.9978C152.264 75.9978 151.437 76.0215 150.177 76.0767V75.6437C150.752 75.6437 151.161 75.5412 151.39 75.3207C151.626 75.1081 151.744 74.7223 151.744 74.1553V67.698C151.744 67.068 151.626 66.6036 151.39 66.3122C151.154 66.0208 150.752 65.8789 150.177 65.8789V65.4459C150.618 65.4853 151.043 65.509 151.453 65.509C152.319 65.509 153.036 65.4144 153.595 65.2175V67.6507C153.941 66.7687 154.414 66.1309 155.028 65.7451C155.642 65.3513 156.327 65.1545 157.099 65.1545C158.06 65.1545 158.792 65.4143 159.288 65.9419" fill="var(--fill-0, #781029)"/>
<path d="M170.745 67.0602C170.572 66.8948 170.485 66.6586 170.485 66.3357C170.485 66.0601 170.556 65.7452 170.69 65.3829C170.336 65.5326 170.052 65.7059 169.847 65.887C169.643 66.076 169.454 66.3043 169.288 66.5799C169.603 67.0603 169.761 67.6745 169.761 68.4148C169.761 69.5015 169.43 70.3126 168.769 70.856C168.107 71.3993 167.233 71.6669 166.146 71.6669H166.123C165.666 71.9268 165.327 72.1708 165.091 72.3913C164.855 72.6118 164.737 72.8559 164.737 73.1315C164.737 73.5724 165.068 73.7932 165.729 73.7932H168.304C169.241 73.7932 170.013 73.998 170.627 74.3996C171.241 74.8012 171.548 75.4152 171.548 76.2263C171.548 76.8878 171.336 77.5021 170.91 78.0612C170.485 78.6282 169.855 79.077 169.036 79.4235C168.209 79.77 167.217 79.9353 166.044 79.9353C164.871 79.9353 163.847 79.7542 163.044 79.392C162.24 79.0297 161.839 78.4863 161.839 77.7697C161.839 77.3051 162.028 76.8958 162.406 76.5493C162.784 76.2028 163.311 75.9351 163.981 75.7461L164.107 76.0768C163.808 76.1713 163.563 76.3681 163.382 76.6516C163.201 76.9351 163.115 77.2658 163.115 77.6202C163.115 78.2501 163.398 78.7384 163.973 79.077C164.54 79.4157 165.312 79.5811 166.272 79.5811C167.328 79.5811 168.241 79.3764 168.997 78.9748C169.753 78.5653 170.131 77.9429 170.131 77.0845C170.131 76.5884 169.958 76.2028 169.603 75.9272C169.249 75.6516 168.627 75.5177 167.737 75.5177H166.209C165.398 75.5177 164.752 75.4152 164.264 75.2105C163.776 75.0057 163.532 74.5885 163.532 73.9743C163.532 73.5491 163.689 73.1396 163.997 72.7616C164.304 72.3757 164.816 71.9978 165.532 71.6277C164.627 71.5332 163.902 71.218 163.359 70.6826C162.815 70.1471 162.548 69.3912 162.548 68.4148C162.548 67.3281 162.878 66.5169 163.54 65.9735C164.201 65.4302 165.075 65.1626 166.162 65.1626C167.454 65.1626 168.414 65.5169 169.028 66.2335C169.288 65.8634 169.619 65.5563 170.021 65.3122C170.422 65.0681 170.816 64.95 171.218 64.95C171.58 64.95 171.863 65.0521 172.084 65.2568C172.304 65.4616 172.415 65.7611 172.415 66.147C172.415 66.5328 172.312 66.8243 172.092 67.0132C171.879 67.2022 171.643 67.3043 171.383 67.3043C171.139 67.3043 170.926 67.2255 170.753 67.0602M167.406 70.6591C167.69 70.226 167.831 69.4776 167.831 68.4224C167.831 67.3672 167.69 66.6193 167.406 66.1862C167.123 65.7531 166.705 65.5406 166.162 65.5406C165.619 65.5406 165.193 65.7609 164.918 66.1862C164.634 66.6193 164.493 67.3672 164.493 68.4224C164.493 69.4776 164.634 70.226 164.918 70.6591C165.201 71.0922 165.619 71.3047 166.162 71.3047C166.705 71.3047 167.131 71.0843 167.406 70.6591Z" fill="var(--fill-0, #781029)"/>
<path d="M104.882 44.9795V56.4846H101.701V44.9795H97.3149V42.0504H109.269V44.9795H104.882Z" fill="var(--fill-0, #781029)"/>
<path d="M111.71 56.4846V42.0504H122.577V44.8772H114.844V47.7987H121.648V50.6259H114.844V53.6574H122.679V56.4846H111.71Z" fill="var(--fill-0, #781029)"/>
<path d="M136.27 56.4847L134.948 53.2479H128.845L127.522 56.4847H124.285L130.475 41.9481H133.404L139.594 56.4847H136.27ZM131.892 45.7593L129.971 50.4449H133.806L131.884 45.7593H131.892Z" fill="var(--fill-0, #781029)"/>
<path d="M153.343 55.2247C152.941 55.5397 152.508 55.8151 152.036 56.0356C151.563 56.264 151.044 56.4373 150.477 56.5555C149.91 56.6736 149.28 56.7289 148.579 56.7289C147.524 56.7289 146.539 56.5399 145.634 56.154C144.728 55.7682 143.941 55.2406 143.279 54.5791C142.618 53.9098 142.106 53.1223 141.736 52.2167C141.366 51.3111 141.177 50.3422 141.177 49.3106V49.2714C141.177 48.2399 141.366 47.2711 141.736 46.3734C142.106 45.4757 142.626 44.6806 143.279 44.0033C143.941 43.3261 144.728 42.7906 145.65 42.3969C146.571 42.0032 147.587 41.8063 148.705 41.8063C149.374 41.8063 149.996 41.8614 150.548 41.9716C151.107 42.0819 151.611 42.2316 152.059 42.4284C152.516 42.6174 152.934 42.8538 153.319 43.1294C153.705 43.405 154.06 43.7041 154.39 44.0349L152.367 46.3657C151.8 45.8618 151.233 45.4601 150.642 45.1688C150.059 44.8774 149.398 44.7358 148.673 44.7358C148.067 44.7358 147.508 44.8539 146.996 45.0823C146.484 45.3185 146.035 45.6413 145.665 46.0508C145.295 46.4603 145.004 46.9405 144.799 47.4839C144.594 48.0272 144.492 48.6099 144.492 49.2241V49.2637C144.492 49.878 144.594 50.4685 144.799 51.0198C145.004 51.571 145.287 52.051 145.657 52.4605C146.02 52.87 146.461 53.2009 146.98 53.4371C147.5 53.6813 148.067 53.7993 148.681 53.7993C149.508 53.7993 150.201 53.6497 150.776 53.3426C151.343 53.0433 151.91 52.6261 152.477 52.1064L154.501 54.1458C154.131 54.5474 153.745 54.9016 153.343 55.2166" fill="var(--fill-0, #781029)"/>
<path d="M166.068 56.4846V50.6886H160.209V56.4846H157.036V42.0504H160.209V47.7595H166.068V42.0504H169.241V56.4846H166.068Z" fill="var(--fill-0, #781029)"/>
<path d="M172.707 56.4846V42.0504H183.574V44.8772H175.841V47.7987H182.645V50.6259H175.841V53.6574H183.676V56.4846H172.707Z" fill="var(--fill-0, #781029)"/>
<path d="M195.291 56.4846L192.196 51.8621H189.7V56.4846H186.527V42.0504H193.126C194.842 42.0504 196.181 42.4678 197.134 43.3104C198.087 44.153 198.567 45.3182 198.567 46.8144V46.854C198.567 48.0194 198.283 48.9722 197.709 49.7124C197.142 50.4526 196.393 50.9881 195.472 51.3346L199 56.4923H195.291V56.4846ZM195.354 46.9797C195.354 46.2946 195.134 45.7749 194.693 45.4363C194.252 45.0898 193.637 44.9245 192.858 44.9245H189.7V49.0668H192.921C193.7 49.0668 194.307 48.8778 194.724 48.5077C195.141 48.1376 195.354 47.6414 195.354 47.0193V46.9797Z" fill="var(--fill-0, #781029)"/>
<path d="M120.891 23.9861C119.907 23.7656 118.6 23.7263 117.395 24.0334C114.725 24.7106 113.93 26.7026 113.93 26.7026C113.969 27.0333 114.206 26.8997 114.702 26.7895C115.206 26.6792 116.631 27.3328 116.631 27.3328C116.631 27.3328 118.718 27.8996 120.301 26.4192C121.883 24.9466 122.844 24.7578 122.844 24.7578C122.844 24.7578 122.088 24.2615 120.891 23.9938M117.852 26.9783C117.151 26.9783 116.576 26.4112 116.576 25.7025C116.576 25.1985 116.867 24.7656 117.293 24.5609C117.568 24.5215 117.82 24.4822 118.064 24.4429C118.671 24.5374 119.135 25.0646 119.135 25.7025C119.135 26.4112 118.56 26.9783 117.859 26.9783M115.599 26.6084C114.907 26.3485 114.316 26.6084 114.316 26.6084C114.316 26.6084 114.907 25.2776 116.859 24.6555C116.584 24.9232 116.411 25.293 116.411 25.7025C116.411 26.3167 116.796 26.8368 117.332 27.0494C116.663 27.0179 116.119 26.8052 115.599 26.6084ZM119.497 26.435C119.238 26.6003 119.001 26.7263 118.781 26.8129C119.104 26.5452 119.301 26.1513 119.301 25.7025C119.301 25.1198 118.962 24.6239 118.466 24.3956C118.718 24.3641 118.962 24.3481 119.198 24.356C120.836 24.3875 121.687 24.8366 121.687 24.8366C121.521 24.8445 121.025 25.1673 120.49 25.5768C120.246 25.7658 119.789 26.2541 119.497 26.443" fill="var(--fill-0, #781029)"/>
<path d="M118.466 25.7024C118.466 26.041 118.19 26.3088 117.86 26.3088C117.529 26.3088 117.245 26.0332 117.245 25.7024C117.245 25.3717 117.521 25.0961 117.86 25.0961C118.198 25.0961 118.466 25.3717 118.466 25.7024Z" fill="var(--fill-0, #781029)"/>
<path d="M104.252 23.8998C103.047 23.5927 101.74 23.6399 100.756 23.8525C99.5509 24.1202 98.8029 24.6161 98.8029 24.6161C98.8029 24.6161 99.7557 24.805 101.346 26.2776C102.929 27.7501 105.016 27.1912 105.016 27.1912C105.016 27.1912 106.449 26.5376 106.945 26.6479C107.441 26.7581 107.685 26.8842 107.717 26.5613C107.717 26.5613 106.922 24.5689 104.252 23.8917M103.795 26.8528C103.087 26.8528 102.52 26.2857 102.52 25.577C102.52 24.9392 102.984 24.4194 103.591 24.317C103.827 24.3485 104.079 24.388 104.354 24.4273C104.78 24.6321 105.071 25.065 105.071 25.5689C105.071 26.2698 104.496 26.8447 103.795 26.8447M101.157 25.4432C100.622 25.0337 100.134 24.7184 99.9604 24.7026C99.9604 24.7026 100.811 24.246 102.449 24.2224C102.685 24.2224 102.921 24.2384 103.181 24.262C102.685 24.4904 102.346 24.9943 102.346 25.577C102.346 26.0259 102.551 26.4272 102.866 26.6871C102.646 26.6004 102.409 26.4745 102.15 26.3091C101.858 26.1201 101.401 25.6322 101.157 25.4432ZM106.055 26.4825C105.536 26.6794 104.992 26.892 104.323 26.9235C104.866 26.7109 105.244 26.1912 105.244 25.577C105.244 25.1675 105.071 24.7895 104.795 24.5296C106.748 25.1517 107.339 26.4825 107.339 26.4825C107.339 26.4825 106.748 26.2227 106.055 26.4825Z" fill="var(--fill-0, #781029)"/>
<path d="M103.189 25.5767C103.189 25.9153 103.465 26.1831 103.804 26.1831C104.142 26.1831 104.41 25.9074 104.41 25.5767C104.41 25.246 104.134 24.9623 103.804 24.9623C103.473 24.9623 103.189 25.2381 103.189 25.5767Z" fill="var(--fill-0, #781029)"/>
<path d="M120.002 19.8677C120.002 19.8677 122.057 18.2297 120.718 14.3239C119.513 11.0323 117.238 10.2843 116.45 8.29989C115.686 6.35486 115.041 4.11052 110.946 4.29952C111.505 4.6145 112.135 4.89011 112.505 4.89011C113.143 4.89011 113.584 5.00811 113.899 5.35459C114.214 5.70108 114.222 6.32316 114.3 6.71689C114.371 7.06337 114.497 7.35478 114.497 7.35478C114.497 7.35478 114.741 7.9138 114.962 8.45715C115.387 9.51235 114.781 9.92211 114.781 9.92211C115.19 9.34726 114.631 8.02403 114.363 7.65393C114.096 7.28382 114.025 7.07908 113.844 6.27586C113.663 5.47265 113.064 5.31537 113.064 5.31537C112.883 5.26813 112.206 5.22881 112.08 5.18157C109.717 4.33898 109.914 3.81116 108.828 3.77967C108.268 3.76392 107.796 3.88207 107.473 4.00806C107.347 4.07893 107.237 4.14982 107.15 4.22069C107.016 4.33094 106.922 4.4334 106.867 4.51215C106.764 4.65389 106.631 4.77178 106.489 4.86627C105.812 5.31513 104.189 6.70897 105.04 9.22885C105.04 9.22885 105.56 11.607 109.599 13.5284C110.048 13.741 110.466 13.9459 110.859 14.127C110.473 14.7176 109.906 15.7729 109.757 17.1589C109.686 17.8282 109.741 18.466 109.875 19.0487C109.497 18.7967 109.103 18.4975 108.686 18.1432C104.544 14.6232 102.134 15.0957 101.292 15.1587C100.449 15.2217 96.4959 16.332 96.9605 19.8992C97.4645 23.742 101.709 23.1119 102.977 23.2221C104.103 23.3166 106.654 23.4033 109.662 25.12C110.962 25.7027 112.34 25.4979 113.505 24.9939C113.773 24.8758 117.805 22.419 120.766 23.4978C123.726 24.5687 124.348 26.821 123.341 28.9708C122.333 31.1206 117.765 32.2227 114.041 30.6084C109.584 28.6791 107.623 30.9392 107.103 31.8527C106.583 32.7661 106.914 33.601 107.41 33.601C107.41 33.601 107.733 33.6246 107.867 33.1915C108.001 32.7584 108.15 31.8448 109.906 31.4747C111.662 31.1046 113.292 31.9944 114.135 32.2779C114.986 32.5614 117.001 33.2781 119.624 32.9316C122.246 32.5851 126.349 30.5457 126.876 25.5926C126.923 20.4504 120.726 19.8439 120.017 19.8754M120.222 19.1194C119.6 20.0644 118.521 19.915 118.521 19.915C117.655 19.7181 118.041 18.6313 118.561 18.6234C119.08 18.6156 120.262 18.1589 120.521 17.7495C120.608 17.6156 120.844 18.1826 120.222 19.1275M120.584 17.1981C120.104 18.0722 118.498 18.2139 118.498 18.2139C118.049 18.2061 117.647 17.2062 118.411 16.8124C119.498 16.7179 120.435 16.0091 120.537 15.9146C120.64 15.8201 121.057 16.3161 120.577 17.1981M119.891 14.0563C120.065 13.8043 120.49 14.2373 120.6 14.7334C120.71 15.2295 120.498 15.7177 119.726 16.0957C118.954 16.4737 118.435 16.3714 118.435 16.3714C118.435 16.3714 117.781 16.3634 117.561 16.0642C117.293 15.7098 117.246 15.3555 118.041 15.1744C118.836 14.9933 119.718 14.3083 119.891 14.0563ZM119.632 13.0873C119.726 13.3708 119.813 13.9224 118.844 14.45C118.206 14.7965 117.694 14.9382 117.261 14.9776C116.301 15.0799 115.568 14.1193 116.316 14.0563C117.064 13.9933 118.238 13.1742 118.616 12.6859C118.994 12.1977 119.537 12.8039 119.632 13.0873ZM118.372 12.4183C118.198 12.6782 117.923 12.9141 117.655 13.1031C117.088 13.4968 116.371 13.6782 115.931 13.7806C115.671 13.8436 115.238 13.8514 114.962 13.6545C114.56 13.3631 114.411 12.8041 114.923 12.7175C114.923 12.7175 116.387 12.552 117.671 11.2448C117.836 11.0716 118.907 11.607 118.372 12.4102M113.623 17.1746C113.544 16.4659 113.363 15.8435 113.143 15.3317C114.592 16.1822 115.214 16.9145 115.214 18.1351C115.214 19.2218 114.466 20.1982 113.096 20.2376C113.458 19.3871 113.749 18.3401 113.623 17.1746ZM115.812 9.85098C115.978 9.67774 117.71 10.4495 117.175 11.2606C117.001 11.5204 116.474 11.8039 116.049 12.0007C115.419 12.2842 114.804 12.5048 114.182 12.5048C113.915 12.5048 113.371 12.4575 113.103 12.2607C112.702 11.9693 112.552 11.4102 113.064 11.3236C113.064 11.3236 114.529 11.1582 115.812 9.85098ZM110.962 9.9771C111.229 9.73298 111.836 9.70948 111.836 9.70948C111.836 9.70948 112.143 9.82742 112.332 9.91404C112.757 10.1109 113.403 10.6858 113.568 10.7488C113.371 10.7882 112.411 11.04 111.686 10.9534C111.284 10.9061 110.985 10.6386 110.875 10.4339C110.757 10.237 110.843 10.0795 110.962 9.9771ZM110.009 9.52031C109.292 9.32344 109.395 8.68555 109.395 8.68555C109.458 8.39419 110.497 8.52021 110.497 8.52021C110.867 9.29193 111.3 9.40995 111.3 9.40995C111.3 9.40995 110.717 9.71736 110.009 9.51262M111.883 7.68545C111.883 7.68545 112.292 7.66198 112.229 8.23683C112.229 8.23683 111.859 8.13442 111.796 7.99267C111.733 7.85093 111.875 7.68545 111.875 7.68545M111.119 7.8035C111.355 8.64608 112.222 8.81167 112.222 8.81167C112.922 8.98491 113.064 9.48882 113.505 9.9298C113.938 10.3629 114.592 10.1344 114.592 10.1344C114.592 10.1344 114.119 10.426 113.647 10.2528C113.182 10.0795 112.828 9.43362 112.363 9.26038C111.899 9.08714 111.158 8.77223 111.056 8.35488C110.765 7.18943 109.891 6.02401 109.891 6.02401C110.213 6.22875 110.883 6.95304 111.111 7.8035M110.198 7.64623C110.269 7.9061 110.324 8.03997 110.324 8.03997C110.324 8.03997 109.332 8.2289 109.087 7.78004C108.843 7.33119 109.024 7.1344 109.087 7.0714C109.339 6.85879 109.78 6.96876 109.867 6.9845C109.867 6.9845 110.135 7.3785 110.206 7.64623M109.607 6.56732C109.607 6.56732 108.473 6.49652 108.583 5.66181C108.583 5.66181 109.347 6.09484 109.607 6.56732ZM109.434 13.1585C105.245 10.9693 104.748 7.99264 105.812 6.18935C106.308 5.35464 106.89 4.91357 107.45 4.91357C108.387 4.91357 108.843 5.32306 108.843 5.32306C108.843 5.32306 108.276 5.16579 107.741 5.15004C106.953 5.12641 105.89 5.80357 105.701 7.44937C105.41 10.0401 107.205 11.5284 108.528 12.371C109.489 12.9852 110.749 13.7253 112.08 14.3474L111.261 14.0248C110.678 13.7492 110.151 13.5284 109.434 13.1504M110.576 16.5602C110.788 15.694 111.135 15.127 111.363 14.8199C111.505 14.6309 111.686 14.4185 111.686 14.4185C111.686 14.4185 111.851 14.623 111.985 14.7884C112.214 15.0876 112.576 15.6627 112.796 16.5525C112.851 16.773 112.899 16.9932 112.93 17.2215C112.67 16.812 112.214 16.5367 111.686 16.5367C111.158 16.5367 110.702 16.812 110.442 17.2215C110.473 16.9932 110.521 16.773 110.576 16.5525M111.686 16.7255C112.403 16.7255 112.985 17.3082 112.985 18.0248C112.985 18.7414 112.403 19.3244 111.686 19.3244C110.969 19.3244 110.387 18.7414 110.387 18.0248C110.387 17.3082 110.969 16.7255 111.686 16.7255ZM112.946 18.7653C112.851 19.474 112.6 20.2851 112.103 21.2773C112.001 21.482 111.686 22.0409 111.686 22.0409C111.686 22.0409 111.363 21.482 111.261 21.2773C110.765 20.2929 110.513 19.4817 110.418 18.773C110.678 19.2061 111.143 19.4974 111.686 19.4974C112.229 19.4974 112.694 19.2061 112.946 18.773M124.884 28.7582C124.12 30.5142 122.214 31.9473 119.545 32.404C116.875 32.8608 113.529 31.2778 113.529 31.2778C113.529 31.2778 111.119 30.018 109.08 30.9945C107.04 31.9709 107.308 33.0969 107.308 33.0969L107.268 33.16C106.812 32.0497 108.583 30.388 110.513 30.262C112.442 30.1281 112.836 30.9549 115.899 31.6085C118.97 32.2621 121.191 31.6794 123.159 29.884C124.766 28.4114 124.136 25.9233 124.057 25.3642C123.978 24.8051 124.372 25.2065 124.49 24.7497C124.608 24.3009 122.403 21.6158 118.907 21.5764C115.411 21.5292 114.222 22.6159 113.631 23.1829C113.048 23.7498 113.261 24.4821 113.261 24.4821C113.261 24.4821 112.111 24.9389 111.245 24.9389C110.379 24.9389 109.576 24.5056 109.576 24.5056C110.442 23.6787 109.922 22.5765 109.009 22.3324C108.095 22.0961 106.544 21.9781 103.37 21.8048C102.394 21.7497 100.063 21.4821 99 20.1434C98.4567 19.4819 97.9921 18.2377 98.5669 17.3715C100.354 14.6626 104.237 15.8832 105.024 16.2061C105.804 16.5289 106.481 16.8282 108.631 18.5684C109.584 19.3402 110.064 19.9701 110.261 20.2614C110.284 20.3165 110.308 20.3636 110.332 20.4187C108.788 19.4029 105.095 18.2059 103.638 18.2059C102.181 18.2059 101.166 18.773 101.166 18.773C103.252 18.6864 106.008 19.2926 108.607 20.6155C109.481 21.0565 110.245 21.3403 110.899 21.5057C110.993 21.671 111.08 21.8128 111.151 21.9309C111.269 23.1043 110.883 23.0885 110.631 23.1121C110.308 23.1357 110.064 22.5215 110.607 22.4585C110.607 22.4585 110.316 22.3165 110.119 22.6C109.914 22.8835 110.19 23.4189 110.717 23.4032C111.229 23.3953 111.67 22.9229 111.67 22.0724H111.678C111.678 22.915 112.08 23.4268 112.67 23.419C113.206 23.419 113.411 22.8758 113.214 22.5923C113.009 22.3088 112.749 22.4504 112.749 22.4504C113.292 22.5134 113.08 23.0964 112.749 23.0964C112.458 23.0964 112.08 23.0964 112.206 21.9309C112.245 21.8601 112.292 21.7811 112.34 21.6945C112.899 21.6945 113.324 21.5765 113.639 21.4268C114.45 21.0331 121.033 18.8595 124.27 21.6156C127.506 24.3718 126.443 27.0806 126.443 27.0806C126.443 27.0806 125.64 27.0098 124.884 28.7659" fill="var(--fill-0, #781029)"/>
<path d="M111.678 18.6076C112.017 18.6076 112.284 18.332 112.284 18.0012C112.284 17.6705 112.009 17.3872 111.678 17.3872C111.347 17.3872 111.072 17.6626 111.072 18.0012C111.072 18.3399 111.347 18.6076 111.678 18.6076Z" fill="var(--fill-0, #781029)"/>
</g>
</svg>
