<svg preserveAspectRatio="xMidYMid meet" width="9" height="4" overflow="visible" style="display: block;" viewBox="0 0 9 4" fill="none" xmlns="http://www.w3.org/2000/svg">
<path id="Vector" d="M5.44923 0.218544C4.24442 -0.0885666 2.93722 -0.0413649 1.95289 0.17125C0.748075 0.438988 0 0.934874 0 0.934874C0 0.934874 0.952816 1.12376 2.54349 2.59631C4.12629 4.06887 6.21305 3.5099 6.21305 3.5099C6.21305 3.5099 7.64624 2.85635 8.14235 2.96659C8.63845 3.07684 8.88255 3.20294 8.91405 2.88008C8.91405 2.88008 8.11874 0.887688 5.44923 0.21047M4.99249 3.17153C4.28377 3.17153 3.7168 2.60447 3.7168 1.89575C3.7168 1.2579 4.1814 0.738101 4.78774 0.635731C5.02398 0.667229 5.276 0.70671 5.55161 0.746083C5.97684 0.950824 6.26818 1.3837 6.26818 1.88767C6.26818 2.58852 5.69333 3.16346 4.99249 3.16346M2.35451 1.76194C1.81903 1.35246 1.33079 1.03714 1.15755 1.02139C1.15755 1.02139 2.00799 0.564767 3.64591 0.541143C3.88215 0.541143 4.11843 0.557123 4.3783 0.580747C3.88219 0.809111 3.54359 1.31303 3.54359 1.89575C3.54359 2.3446 3.74831 2.74595 4.06329 3.00581C3.8428 2.91919 3.60658 2.79321 3.34672 2.62784C3.05536 2.43885 2.59862 1.95093 2.35451 1.76194ZM7.25251 2.80126C6.73278 2.99812 6.18942 3.21078 5.52008 3.24228C6.06343 3.02967 6.44145 2.50997 6.44145 1.89575C6.44145 1.48627 6.2682 1.10822 5.99259 0.848361C7.9455 1.47046 8.53608 2.80126 8.53608 2.80126C8.53608 2.80126 7.94548 2.54139 7.25251 2.80126Z" fill="var(--fill-0, #781029)"/>
</svg>
