<svg preserveAspectRatio="xMidYMid meet" width="12" height="11" overflow="visible" style="display: block;" viewBox="0 0 12 11" fill="none" xmlns="http://www.w3.org/2000/svg">
<path id="Vector" d="M9.09519 0.795538C9.35506 1.07115 9.54402 1.41768 9.65426 1.82716C9.76451 2.23664 9.81965 2.79545 9.81965 3.49629V9.00085C9.81965 9.56782 9.93778 9.95366 10.174 10.1663C10.4103 10.3789 10.8119 10.4893 11.3946 10.4893V10.9222C10.1268 10.8671 9.30778 10.8434 8.92193 10.8434C8.53607 10.8434 7.76436 10.8671 6.61466 10.9222V10.4893C7.12652 10.4893 7.4809 10.3868 7.67777 10.1663C7.87464 9.95366 7.97701 9.56782 7.97701 9.00085V3.03989C7.97701 2.26817 7.86673 1.68526 7.64624 1.27578C7.42575 0.874177 6.97689 0.669421 6.30754 0.669421C5.74057 0.669421 5.24449 0.834696 4.80351 1.16543C4.36253 1.49617 4.02393 1.94519 3.77982 2.52004C3.5357 3.08701 3.41756 3.72479 3.41756 4.42564V9.00085C3.41756 9.56782 3.51994 9.95366 3.7168 10.1663C3.91367 10.3789 4.26806 10.4893 4.77991 10.4893V10.9222C3.62234 10.8671 2.85846 10.8434 2.4726 10.8434C2.08674 10.8434 1.25994 10.8671 0 10.9222V10.4893C0.574848 10.4893 0.984312 10.3868 1.21268 10.1663C1.44892 9.95366 1.56704 9.56782 1.56704 9.00085V2.54349C1.56704 1.91352 1.44892 1.4491 1.21268 1.15774C0.976437 0.866379 0.574848 0.724405 0 0.724405V0.291454C0.44098 0.330827 0.866206 0.354512 1.27569 0.354512C2.1419 0.354512 2.85847 0.259924 3.41756 0.0630586V2.4962C3.76405 1.61424 4.23653 0.976455 4.85075 0.590598C5.46498 0.196866 6.15007 0 6.92179 0C7.88249 0 8.61486 0.259863 9.11096 0.787463" fill="var(--fill-0, #781029)"/>
</svg>
