<svg width="210" height="209" viewBox="0 0 210 209" fill="none" xmlns="http://www.w3.org/2000/svg">
<g id="Group">
<path id="Vector" d="M168.066 141.517C161.177 139.986 151.992 139.696 143.572 141.827C124.87 146.544 119.284 160.508 119.284 160.508C119.532 162.805 121.208 161.894 124.704 161.129C128.201 160.363 138.234 164.935 138.234 164.935C138.234 164.935 152.84 168.887 163.949 158.543C175.038 148.199 181.741 146.875 181.741 146.875C181.741 146.875 176.465 143.379 168.045 141.517H168.066ZM146.778 162.515C141.834 162.515 137.841 158.522 137.841 153.578C137.841 150.04 139.889 147.02 142.848 145.551C144.792 145.261 146.571 144.992 148.226 144.744C152.488 145.427 155.736 149.109 155.736 153.557C155.736 158.502 151.723 162.494 146.778 162.494V162.515ZM130.952 159.929C126.09 158.108 121.932 159.908 121.932 159.908C121.932 159.908 126.09 150.578 139.765 146.234C137.82 148.075 136.621 150.682 136.621 153.578C136.621 157.881 139.289 161.543 143.075 163.032C138.4 162.784 134.593 161.294 130.931 159.929H130.952ZM158.301 158.708C156.481 159.888 154.826 160.736 153.295 161.377C155.529 159.515 156.957 156.722 156.957 153.578C156.957 149.502 154.578 146.006 151.123 144.392C152.902 144.206 154.577 144.082 156.233 144.103C167.714 144.31 173.652 147.496 173.652 147.496C172.472 147.578 169.018 149.813 165.273 152.668C163.535 153.992 160.37 157.405 158.322 158.708H158.301Z" fill="white"/>
<path id="Vector_2" d="M151.06 153.577C151.06 155.936 149.136 157.859 146.778 157.859C144.419 157.859 142.495 155.936 142.495 153.577C142.495 151.219 144.419 149.295 146.778 149.295C149.136 149.295 151.06 151.219 151.06 153.577Z" fill="white"/>
<path id="Vector_3" d="M51.4693 140.916C43.0494 138.786 33.864 139.075 26.975 140.606C18.5551 142.489 13.2797 145.964 13.2797 145.964C13.2797 145.964 19.9825 147.288 31.0918 157.632C42.2012 167.976 56.8067 164.025 56.8067 164.025C56.8067 164.025 66.8403 159.453 70.3366 160.218C73.8328 160.984 75.5085 161.894 75.7567 159.598C75.7567 159.598 70.1711 145.633 51.4693 140.916ZM48.2627 161.604C43.3183 161.604 39.3049 157.611 39.3049 152.667C39.3049 148.198 42.5529 144.537 46.8146 143.854C48.4696 144.082 50.2487 144.371 52.1934 144.661C55.1517 146.109 57.1998 149.15 57.1998 152.688C57.1998 157.632 53.1864 161.625 48.2627 161.625V161.604ZM29.7885 151.736C26.044 148.881 22.6099 146.647 21.41 146.564C21.41 146.564 27.3473 143.378 38.829 143.171C40.4841 143.151 42.1598 143.254 43.9389 143.461C40.4841 145.075 38.105 148.592 38.105 152.646C38.105 155.791 39.5325 158.584 41.7667 160.446C40.2152 159.804 38.5808 158.956 36.7396 157.777C34.6915 156.474 31.5056 153.06 29.7885 151.736ZM64.0889 159.018C60.4271 160.384 56.6206 161.873 51.9451 162.121C55.731 160.653 58.4204 156.991 58.4204 152.667C58.4204 149.771 57.1998 147.164 55.2759 145.323C68.9712 149.667 73.1087 158.998 73.1087 158.998C73.1087 158.998 68.9505 157.198 64.0889 159.018Z" fill="white"/>
<path id="Vector_4" d="M43.9808 152.667C43.9808 155.026 45.9048 156.949 48.2632 156.949C50.6216 156.949 52.5455 155.026 52.5455 152.667C52.5455 150.309 50.6216 148.385 48.2632 148.385C45.9048 148.385 43.9808 150.309 43.9808 152.667Z" fill="white"/>
<g id="Group_2">
<path id="Vector_5" d="M161.818 112.698C161.818 112.698 176.217 101.217 166.845 73.826C158.404 50.7798 142.434 45.5251 136.951 31.6229C131.572 17.969 127.042 2.24626 98.4099 3.57028C102.299 5.78387 106.726 7.72854 109.354 7.72854C113.843 7.72854 116.905 8.53538 119.098 10.9765C121.311 13.4177 121.353 17.7621 121.911 20.5136C122.408 22.9547 123.318 25.0029 123.318 25.0029C123.318 25.0029 124.994 28.9336 126.545 32.7608C129.545 40.1464 125.263 43.0219 125.263 43.0219C128.138 39.0085 124.228 29.7404 122.346 27.1544C120.463 24.5684 119.987 23.1617 118.684 17.4932C117.381 11.8455 113.222 10.7697 113.222 10.7697C111.981 10.4387 107.244 10.1697 106.313 9.83874C89.7417 3.94272 91.1485 0.239608 83.494 0.0120428C79.5634 -0.112084 76.2533 0.736155 73.9777 1.60504C73.0881 2.10155 72.3226 2.59797 71.7227 3.07379C71.7227 3.07379 71.702 3.09452 71.6813 3.11521H71.6606C70.709 3.88066 70.0883 4.58402 69.6746 5.16328C68.9505 6.15629 68.0196 6.98385 67.0059 7.66655C62.2684 10.8318 50.9107 20.5756 56.8688 38.2223C56.8688 38.2223 60.5099 54.876 88.8108 68.3437C91.976 69.8539 94.893 71.2401 97.6445 72.5641C94.9137 76.681 90.983 84.0872 89.9072 93.7898C89.39 98.5066 89.8245 102.954 90.7554 107.009C88.1074 105.23 85.3352 103.12 82.4389 100.658C53.414 75.9776 36.5535 79.2876 30.6161 79.7427C24.6787 80.1978 -3.00158 87.9558 0.267093 112.988C3.78402 139.923 33.5124 135.496 42.4288 136.262C50.3108 136.924 68.2057 137.544 89.2659 149.564C98.3892 153.66 108.009 152.212 116.181 148.654C118.063 147.847 146.302 130.635 167.052 138.165C187.802 145.695 192.146 161.439 185.071 176.499C177.996 191.56 146.012 199.277 119.904 187.96C88.6659 174.431 74.9293 190.278 71.2676 196.649C67.6265 203.042 69.9435 208.876 73.4397 208.876C73.4397 208.876 75.7154 209.021 76.6257 205.98C77.5359 202.938 78.6117 196.546 90.9209 193.96C103.23 191.374 114.65 197.622 120.587 199.587C126.525 201.552 140.675 206.579 159.066 204.159C177.458 201.718 206.214 187.423 209.855 152.75C210.165 116.712 166.783 112.45 161.777 112.678L161.818 112.698ZM163.37 107.423C159.004 114.022 151.474 112.967 151.474 112.967C145.392 111.581 148.102 103.989 151.743 103.906C155.384 103.844 163.638 100.658 165.48 97.7618C166.08 96.7895 167.735 100.803 163.37 107.402V107.423ZM165.893 93.9346C162.521 100.079 151.288 101.072 151.288 101.072C148.123 101.01 145.35 94.0173 150.709 91.2451C158.301 90.5831 164.9 85.6181 165.624 84.9561C166.349 84.294 169.266 87.7903 165.893 93.9346ZM161.032 71.9228C162.252 70.1643 165.211 73.1847 166.018 76.6602C166.804 80.1358 165.293 83.5699 159.873 86.218C154.453 88.866 150.812 88.1213 150.812 88.1213C150.812 88.1213 146.261 88.0592 144.668 85.9904C142.785 83.5286 142.475 81.046 148.04 79.7427C153.584 78.4394 159.811 73.6605 161.032 71.9021V71.9228ZM159.211 65.1578C159.894 67.1439 160.494 71.0124 153.688 74.6949C149.219 77.1153 145.619 78.1084 142.578 78.3774C135.834 79.0807 130.724 72.3572 135.958 71.9228C141.192 71.4883 149.447 65.7164 152.053 62.3443C154.681 58.9515 158.508 63.1718 159.191 65.1785L159.211 65.1578ZM150.398 60.4411C149.178 62.2823 147.274 63.9372 145.371 65.2613C141.42 68.0334 136.372 69.2955 133.269 70.0195C131.428 70.454 128.407 70.516 126.504 69.1506C123.67 67.1232 122.615 63.1925 126.214 62.5719C126.214 62.5719 136.496 61.3927 145.495 52.2487C146.675 51.0488 154.143 54.752 150.378 60.4411H150.398ZM117.132 93.7898C116.574 88.8454 115.291 84.4803 113.781 80.8599C123.939 86.818 128.283 91.9693 128.283 100.513C128.283 108.147 123.07 114.974 113.429 115.264C115.974 109.326 118.022 101.961 117.112 93.7691L117.132 93.7898ZM132.462 42.4634C133.641 41.2635 145.764 46.663 141.999 52.3521C140.778 54.1933 137.096 56.1586 134.117 57.524C129.711 59.5308 125.428 61.0617 121.063 61.0617C119.18 61.0617 115.395 60.7307 113.471 59.3653C110.636 57.3379 109.581 53.4072 113.181 52.7866C113.181 52.7866 123.463 51.6074 132.462 42.4634ZM98.4513 43.353C100.313 41.6566 104.596 41.4496 104.596 41.4496C104.596 41.4496 106.768 42.2564 108.071 42.8978C111.029 44.3045 115.601 48.2973 116.719 48.7732C115.312 49.0628 108.588 50.8418 103.561 50.2419C100.727 49.8902 98.6582 48.0077 97.8514 46.5803C97.0032 45.2149 97.6238 44.0977 98.4306 43.353H98.4513ZM91.7692 40.1464C86.7627 38.7603 87.4661 34.3124 87.4661 34.3124C87.9212 32.285 95.2033 33.1745 95.2033 33.1745C97.7892 38.574 100.851 39.4222 100.851 39.4222C100.851 39.4222 96.7962 41.553 91.7898 40.167L91.7692 40.1464ZM104.906 27.3199C104.906 27.3199 107.781 27.1751 107.347 31.1885C107.347 31.1885 104.761 30.4644 104.327 29.4714C103.892 28.4577 104.906 27.3199 104.906 27.3199ZM99.5684 28.1474C101.203 34.0641 107.326 35.2227 107.326 35.2227C112.229 36.4433 113.243 39.9808 116.305 43.0426C119.367 46.1044 123.918 44.4701 123.918 44.4701C123.918 44.4701 120.587 46.5182 117.319 45.2769C114.05 44.0563 111.609 39.567 108.34 38.3464C105.071 37.1259 99.8787 34.9123 99.1546 32.016C97.1066 23.865 91.0037 15.6934 91.0037 15.6934C93.2379 17.1209 97.9341 22.2307 99.5684 28.1474ZM93.1138 27.0096C93.6104 28.8301 94.0034 29.7818 94.0034 29.7818C94.0034 29.7818 87.073 31.1265 85.3352 27.9405C83.5974 24.7753 84.8801 23.4306 85.2939 22.9754C87.073 21.4859 90.1555 22.2928 90.7348 22.3755C90.7348 22.3755 92.6173 25.1476 93.1138 26.9889V27.0096ZM88.9969 19.4792C88.9969 19.4792 81.0322 18.962 81.839 13.1487C81.839 13.1487 87.1971 16.2105 88.9969 19.4792ZM87.7557 65.675C58.3998 50.304 54.9035 29.4715 62.3511 16.8519C65.806 10.9973 69.9229 7.9355 73.8535 7.9355C80.3909 7.9355 83.6388 10.7904 83.6388 10.7904C83.6388 10.7904 79.6461 9.69393 75.8809 9.59049C70.3573 9.44568 62.889 14.1831 61.6063 25.6855C59.5583 43.8494 72.1364 54.2761 81.3838 60.1514C88.1074 64.4338 96.9617 69.647 106.271 74.0328L100.561 71.7987C96.5067 69.8747 92.7828 68.3231 87.735 65.675H87.7557ZM95.7619 89.4867C97.2514 83.4252 99.6718 79.4531 101.285 77.3016C102.278 75.9982 103.541 74.5088 103.541 74.5088C103.541 74.5088 104.72 75.9155 105.63 77.1154C107.244 79.2256 109.768 83.2597 111.298 89.4867C111.671 91.0383 112.002 92.5898 112.25 94.2034C110.43 91.3071 107.202 89.3833 103.541 89.3833C99.8788 89.3833 96.6515 91.3071 94.8103 94.2034C95.0585 92.6105 95.3895 91.0383 95.7826 89.4867H95.7619ZM103.52 90.6245C108.547 90.6245 112.622 94.7 112.622 99.7065C112.622 104.713 108.547 108.809 103.52 108.809C98.4927 108.809 94.4172 104.734 94.4172 99.7065C94.4172 94.6793 98.4927 90.6245 103.52 90.6245ZM112.374 104.94C111.712 109.926 109.954 115.615 106.457 122.566C105.733 123.994 103.52 127.883 103.52 127.883C103.52 127.883 101.265 123.953 100.541 122.504C97.0652 115.574 95.3274 109.905 94.6654 104.94C96.4653 107.961 99.7546 109.988 103.52 109.988C107.285 109.988 110.574 107.961 112.374 104.94ZM196.056 174.969C190.739 187.278 177.354 197.332 158.653 200.518C139.951 203.704 116.512 192.595 116.512 192.595C116.512 192.595 99.6305 183.782 85.3145 190.609C70.9986 197.436 72.9018 205.338 72.9018 205.338L72.6123 205.773C69.4056 198.015 81.8183 186.347 95.3481 185.437C108.878 184.526 111.629 190.298 133.124 194.87C154.619 199.442 170.217 195.387 184.016 182.789C195.291 172.486 190.884 155.026 190.305 151.136C189.746 147.247 192.539 149.998 193.346 146.854C194.153 143.709 178.699 124.904 154.205 124.614C129.711 124.304 121.353 131.917 117.256 135.869C113.16 139.82 114.67 144.992 114.67 144.992C114.67 144.992 106.602 148.178 100.52 148.178C94.4378 148.178 88.8108 145.137 88.8108 145.137C94.893 139.344 91.2519 131.607 84.8594 129.931C78.4669 128.256 67.5851 127.449 45.3251 126.228C38.4774 125.856 22.1341 123.953 14.6865 114.602C10.8592 109.947 7.61123 101.279 11.6247 95.1758C24.1408 76.1638 51.3866 84.7492 56.8482 87.0455C62.3304 89.3212 67.0473 91.4107 82.1286 103.596C88.8108 109.016 92.1829 113.402 93.569 115.471C93.7345 115.843 93.8793 116.215 94.0448 116.567C83.2044 109.45 57.3653 101.051 47.1249 101.051C36.8844 101.051 29.7885 105.003 29.7885 105.003C44.3941 104.382 63.7165 108.644 81.9631 117.932C88.0867 121.036 93.4242 123.001 98.0375 124.139C98.6996 125.277 99.3201 126.27 99.796 127.097C100.644 135.289 97.9134 135.227 96.155 135.351C93.9 135.517 92.1829 131.193 95.9894 130.78C95.9894 130.78 93.962 129.766 92.5552 131.752C91.1485 133.717 93.0311 137.462 96.7756 137.4C100.375 137.337 103.478 134.027 103.478 128.09H103.561C103.561 134.027 106.395 137.586 110.512 137.524C114.257 137.482 115.726 133.717 114.319 131.752C112.912 129.766 111.05 130.78 111.05 130.78C114.877 131.214 113.388 135.289 111.05 135.289C109.002 135.289 106.375 135.289 107.223 127.097C107.492 126.601 107.802 126.042 108.154 125.442C112.064 125.401 115.084 124.614 117.256 123.559C122.966 120.787 169.079 105.561 191.732 124.863C214.406 144.185 206.979 163.156 206.979 163.156C206.979 163.156 201.373 162.639 196.036 174.969H196.056Z" fill="white"/>
<path id="Vector_6" d="M103.499 103.823C105.857 103.823 107.781 101.899 107.781 99.5406C107.781 97.1822 105.857 95.2582 103.499 95.2582C101.141 95.2582 99.2166 97.1822 99.2166 99.5406C99.2166 101.899 101.141 103.823 103.499 103.823Z" fill="white"/>
</g>
</g>
</svg>
