<svg preserveAspectRatio="xMidYMid meet" width="355" height="65" overflow="visible" style="display: block;" viewBox="0 0 355 65" fill="none" xmlns="http://www.w3.org/2000/svg">
<g id="Group">
<path id="Vector" d="M86.7781 46.1613C86.4689 46.1828 86.2963 46.0534 86.246 45.7586C86.2172 45.5717 86.2532 45.3848 86.361 45.1906C89.8913 38.353 93.4719 31.5297 97.527 24.9509C101.108 19.1414 105.12 13.3176 109.441 7.86043C107.629 7.96828 105.709 7.86043 103.682 7.54407C101.654 7.22771 99.1951 6.71001 96.3551 6.07729C93.3856 5.41582 90.9482 4.97726 89.1507 4.71843C87.3461 4.45959 85.6205 4.39486 83.9812 4.51709C81.9824 4.66807 80.2999 5.17858 78.9554 6.0198C77.3161 7.04078 76.1585 8.4428 75.5042 10.2259C74.8499 12.009 74.7637 14.0725 75.2022 16.4092C75.4683 17.8329 76.0722 19.0983 77.0141 20.1912C77.956 21.284 79.0632 22.1181 80.3431 22.7077C81.6229 23.29 82.8883 23.5345 84.1465 23.4338C86.0375 23.29 87.4971 22.3266 88.5468 20.5363C89.5965 18.7532 89.8698 16.1001 89.3665 12.577C89.273 11.9156 89.3664 11.3907 89.6469 11.0024C89.9344 10.6142 90.3011 10.3985 90.7685 10.3625C91.2286 10.3266 91.6457 10.4775 92.0124 10.8011C92.379 11.1246 92.6091 11.5992 92.6954 12.2247C92.7385 12.5195 92.7457 12.7424 92.7313 12.8862C92.5947 16.4884 91.6025 19.2637 89.7619 21.2193C87.9213 23.175 85.6852 24.2535 83.0249 24.462C81.2778 24.5986 79.5665 24.3685 77.8985 23.7574C76.2232 23.1534 74.7924 22.2187 73.6133 20.9677C72.4269 19.7095 71.6935 18.2211 71.406 16.5027C71.0752 14.4895 71.5138 12.5411 72.7433 10.6789C73.9728 8.80949 75.7559 7.09827 78.071 5.53805C80.9758 3.57519 84.3479 2.43198 88.137 2.15876C90.7829 1.96463 93.3641 2.13721 95.8733 2.67646C98.3826 3.20852 101.388 3.99223 104.695 5.10667C107.19 5.94789 109.103 6.54465 110.383 6.76035C111.188 6.89696 111.943 6.94729 112.655 6.90415C114.898 6.77474 117.242 6.07732 119.722 4.8047C119.996 4.68247 120.24 4.61055 120.449 4.60336C120.873 4.58179 121.232 4.7112 121.513 4.9916C121.793 5.27201 121.958 5.61717 122.002 6.0198C122.052 6.45839 121.923 6.87539 121.628 7.25646C121.333 7.64471 120.858 7.94669 120.247 8.10486C119.615 8.26304 118.917 8.34214 118.241 8.37809C117.213 8.43561 116.135 8.39964 115.013 8.27742C113.891 8.15519 113.237 8.08329 113.057 8.05453C112.295 7.96106 111.914 7.91792 111.152 7.83164C107.514 12.3685 104.3 17.3368 101.561 22.722C98.1094 29.495 95.1543 36.4836 92.4294 43.5154C92.2352 44.0474 91.6888 44.3494 90.8044 44.4141C90.6678 44.4213 90.3443 44.4429 89.8266 44.4644C89.3089 44.486 88.856 44.5939 88.4533 44.7952C88.0507 44.9965 87.7271 45.3057 87.4827 45.7299C87.3173 46.0031 87.08 46.1541 86.7781 46.1757V46.1613Z" fill="var(--fill-0, #1E1E1E)"/>
<path id="Vector_2" d="M107.003 40.1504C106.809 38.6837 107.629 36.9222 109.491 34.8874C109.8 34.5351 109.958 34.3626 110.267 34.0102C111.368 32.7951 112.23 31.7813 112.863 30.9689C113.496 30.1564 113.97 29.3511 114.294 28.5531C114.402 28.287 114.438 28.0066 114.402 27.7118C114.337 27.2014 114.071 26.7699 113.589 26.4248C113.108 26.0869 112.626 25.9287 112.137 25.9575C111.856 25.9719 111.605 26.0797 111.389 26.2811C110.62 27.1798 109.592 28.4956 108.29 30.2427C106.996 31.9899 105.81 33.6723 104.746 35.2972C104.602 35.1534 104.53 35.0815 104.386 34.9305C106.672 31.429 107.83 29.6747 110.174 26.1804C110.383 25.8712 110.454 25.4973 110.404 25.0587C110.375 24.7999 110.181 24.2678 109.894 23.477C109.498 22.4128 109.29 21.6076 109.232 21.133C109.16 20.5434 109.311 20.0545 109.685 19.6663C110.059 19.278 110.512 19.0623 111.037 19.0336C111.526 19.0048 111.979 19.1414 112.388 19.4506C112.798 19.7598 113.043 20.263 113.129 20.9605C113.165 21.2553 113.093 21.6723 112.964 22.19C112.791 22.8802 112.719 23.4913 112.755 23.9227C112.777 24.1744 112.921 24.4188 113.158 24.6489C113.395 24.879 113.747 25.1522 114.2 25.447C114.826 25.8568 115.351 26.2379 115.71 26.6118C116.07 26.9784 116.278 27.4242 116.343 27.9347C116.472 29.0348 116.242 30.1205 115.66 31.1918C115.078 32.2631 114.193 33.5141 113.014 34.9521C112.259 35.8868 111.72 36.613 111.389 37.1307C111.058 37.6483 110.915 38.1157 110.965 38.5183C111.001 38.7772 111.094 38.9713 111.245 39.1079C111.677 39.5249 112.173 39.719 112.719 39.6831C114.603 39.568 117.335 37.0228 121.009 32.0546C121.16 32.1121 121.239 32.1408 121.39 32.1984C119.593 35.326 117.716 37.8856 115.753 39.8916C113.791 41.8904 112.051 42.9402 110.512 43.0336C109.656 43.084 108.901 42.8179 108.233 42.2356C107.528 41.6172 107.125 40.9198 107.025 40.1504H107.003Z" fill="var(--fill-0, #1E1E1E)"/>
<path id="Vector_3" d="M117.831 40.5531C117.737 39.7838 117.874 38.9066 118.241 37.9216C118.607 36.9366 119.139 35.743 119.844 34.341C120.06 33.888 120.167 33.6579 120.39 33.205C120.534 32.939 120.685 32.6154 120.85 32.2343C121.016 31.8532 121.21 31.4218 121.433 30.9257C122.67 28.3086 123.525 26.5686 123.992 25.6915C124.316 25.1235 124.827 24.8215 125.524 24.7855C125.977 24.764 126.372 24.879 126.717 25.145C127.063 25.4039 127.257 25.7562 127.3 26.1948C127.35 26.6693 127.228 27.1798 126.94 27.7118C126.71 28.1289 125.948 29.0707 124.683 30.5375C123.295 32.1552 122.238 33.5213 121.519 34.6142C120.793 35.7071 120.484 36.6562 120.577 37.4686C120.628 37.9072 120.829 38.2883 121.174 38.5974C121.598 38.9785 122.102 39.1583 122.684 39.1295C124.568 39.0288 127.106 36.8071 130.37 32.4788C130.521 32.5363 130.6 32.565 130.751 32.6298C129.097 35.4051 127.293 37.7562 125.337 39.6831C123.381 41.61 121.713 42.6166 120.311 42.6957C119.592 42.7388 119.003 42.4944 118.528 42.0198C118.147 41.6388 117.91 41.1499 117.838 40.5603L117.831 40.5531ZM127.753 17.7753C128.227 17.4374 128.716 17.2577 129.205 17.2361C129.629 17.2145 130.025 17.3296 130.406 17.5668C131.01 17.9479 131.355 18.559 131.434 19.4003C131.513 20.2055 131.333 21.0108 130.888 21.8089C130.593 22.3769 130.212 22.8155 129.73 23.1391C129.256 23.4554 128.774 23.6279 128.285 23.6495C127.904 23.6711 127.508 23.5776 127.099 23.3763C126.531 22.9952 126.2 22.3841 126.114 21.5429C126.02 20.7016 126.2 19.8892 126.595 19.1342C126.89 18.5734 127.271 18.1133 127.746 17.7753H127.753Z" fill="var(--fill-0, #1E1E1E)"/>
<path id="Vector_4" d="M129.666 37.6555C129.457 35.6711 129.903 33.2337 131.032 30.3361C132.161 27.4386 133.714 24.6777 135.705 22.0461C136.59 20.9245 137.028 20.3637 137.92 19.242C139.804 16.8046 141.479 14.7483 142.946 13.0659C144.413 11.3906 145.994 9.83759 147.691 8.42117C148.252 7.92506 148.877 7.66625 149.546 7.63749C150.186 7.61592 150.725 7.81004 151.164 8.21987C151.602 8.6297 151.847 9.13296 151.89 9.71535C151.955 10.5638 151.567 11.254 150.725 11.8005C147.209 13.979 144.412 15.9203 142.313 17.6243C140.206 19.3283 138.43 21.1905 136.978 23.2037C135.77 24.879 134.8 26.7124 134.052 28.6968C133.311 30.6885 133.016 32.414 133.167 33.888C133.29 35.1031 133.735 36.0665 134.49 36.7064C135.109 37.2313 135.878 37.4757 136.741 37.4398C137.977 37.3895 139.171 36.7496 140.336 35.5201C140.127 34.7939 140.005 34.2259 139.969 33.8233C139.804 32.0977 140.077 29.7969 140.789 26.9281C141.306 25.3607 142.148 24.6273 143.212 24.7855C143.909 24.8933 144.434 25.1953 144.758 25.6411C145.074 26.0941 145.225 26.6261 145.211 27.2588C145.096 29.1786 144.506 31.1774 143.449 33.2481C143.334 33.8808 143.291 34.3769 143.327 34.7436C143.413 35.7358 143.823 36.2175 144.542 36.1888C145.261 36.16 146.181 35.6567 147.31 34.6789C148.432 33.701 149.431 32.565 150.294 31.2852C150.409 31.4362 150.466 31.5081 150.581 31.6663C149.561 33.2121 148.338 34.6357 146.893 35.9443C145.455 37.2529 144.19 37.9287 143.09 37.9719C142.744 37.9863 142.385 37.9072 142.033 37.7346C141.709 37.5764 141.371 37.2816 141.026 36.8862C139.847 38.3026 138.603 39.4386 137.302 40.3086C135.993 41.1786 134.778 41.6387 133.649 41.6891C133.139 41.7106 132.592 41.61 132.017 41.3799C130.651 40.776 129.86 39.5465 129.666 37.6699V37.6555Z" fill="var(--fill-0, #1E1E1E)"/>
<path id="Vector_5" d="M149.036 36.7424C148.935 35.5633 149.115 34.305 149.575 32.9605C150.035 31.616 150.747 30.3146 151.624 29.0779C152.753 27.4889 154.09 26.1157 155.65 25.0588C157.211 24.0018 158.641 23.4554 159.928 23.4194C160.906 23.3907 161.676 23.6352 162.229 24.1313C162.632 24.4908 162.862 25.0012 162.905 25.6627C162.963 26.5471 162.704 27.5824 162.121 28.776C161.546 29.9695 160.748 31.0767 159.727 32.0977C158.713 33.1187 157.584 33.8736 156.341 34.3482C156.175 34.4273 155.938 34.4704 155.629 34.4776C155.111 34.492 154.687 34.3338 154.349 33.9887C154.011 33.6507 153.824 33.2553 153.788 32.8167C153.759 32.4141 153.86 32.0762 154.097 31.8101C154.335 31.5441 154.694 31.4075 155.183 31.3931C156.772 31.3428 158.095 31.0408 159.145 30.48C160.194 29.9192 160.957 29.2433 161.424 28.4596C161.891 27.6759 162.1 26.8922 162.049 26.1229C162.006 25.4614 161.762 24.8718 161.309 24.4836C160.978 24.196 160.561 24.0594 160.18 24.0737C159.447 24.0953 158.613 24.5051 157.678 25.3032C156.743 26.1013 155.837 27.1151 154.953 28.3158C154.234 29.2936 153.659 30.3649 153.249 31.5225C152.839 32.6801 152.674 33.7514 152.753 34.7436C152.825 35.6639 153.127 36.4261 153.659 37.0372C154.493 37.9719 155.384 38.4177 156.348 38.3889C157.203 38.3602 158.102 38.015 159.03 37.3464C159.964 36.6777 161.143 35.6783 162.567 34.3482C164.055 32.9533 165.335 31.8605 166.392 31.0767C167.449 30.3002 168.528 29.8041 169.628 29.5956C169.764 29.5597 169.951 29.5309 170.196 29.5309C170.821 29.5165 171.296 29.6747 171.626 29.9983C171.957 30.3218 172.137 30.746 172.166 31.2565C172.194 31.8101 172.029 32.3062 171.655 32.7592C171.281 33.205 170.756 33.4422 170.066 33.4566C168.412 33.4926 166.874 33.8161 165.472 34.4416C164.063 35.0672 162.617 35.9084 161.151 36.9797C160.957 37.1307 160.726 37.3032 160.468 37.4974C160.209 37.6915 159.943 37.9 159.684 38.1301C158.282 39.2014 157.146 40.0067 156.261 40.5531C155.377 41.0923 154.507 41.3799 153.652 41.4087C152.897 41.4303 152.163 41.2146 151.437 40.7616C149.992 39.8485 149.187 38.5184 149.043 36.7496L149.036 36.7424Z" fill="var(--fill-0, #1E1E1E)"/>
<path id="Vector_6" d="M187.638 30.5807C187.559 28.1936 188.084 25.5837 189.234 22.7724C190.385 19.9539 192.01 17.1714 194.124 14.4105C197.323 10.2619 201.04 6.80351 205.261 4.04257C209.481 1.28882 213.371 -0.0557413 216.88 0.00177825C219.137 0.037728 221.057 0.69921 222.617 1.98621C224.429 3.48172 225.321 5.44458 225.306 7.83164C225.292 9.63632 224.796 11.5345 223.832 13.5333C222.869 15.5321 221.553 17.459 219.957 19.2996C218.088 21.4494 216.118 23.2397 214.011 24.6058C211.912 25.9719 210.028 26.6478 208.36 26.6334C206.728 26.619 205.498 25.8856 204.678 24.4476C204.283 23.743 204.082 22.9881 204.067 22.1828C204.039 20.2703 204.887 18.1421 206.634 15.8053C208.381 13.4686 210.56 11.4338 213.17 9.70821C213.63 9.38466 214.126 9.2265 214.658 9.23369C215.19 9.24088 215.622 9.435 215.959 9.80888C216.297 10.1828 216.463 10.607 216.463 11.0887C216.463 11.4195 216.369 11.743 216.175 12.0521C215.981 12.3613 215.693 12.6202 215.305 12.8359C212.343 14.4824 209.898 16.0785 207.95 17.6172C206.001 19.163 205.045 20.6657 205.067 22.1397C205.067 22.6573 205.261 23.2685 205.663 23.8005C205.994 24.2319 206.541 24.4692 207.137 24.4764C208.324 24.4908 209.87 23.779 211.804 22.3482C213.731 20.9245 215.622 19.1271 217.484 16.9988C219.195 15.0432 220.619 13.0659 221.726 11.0671C222.833 9.06832 223.394 7.33554 223.401 5.8616C223.408 4.61055 222.984 3.66866 222.186 3.02157C221.23 2.25224 220.051 1.82084 218.656 1.79927C216.118 1.75613 213.141 2.88497 209.769 5.19294C206.39 7.50811 203.219 10.4776 200.257 14.0438C197.553 17.3008 195.367 20.6585 193.735 24.1169C192.103 27.5753 191.341 30.5879 191.413 33.1619C191.492 35.9588 192.599 37.8497 194.72 38.8419C195.238 39.1007 195.914 39.2302 196.734 39.2302C198.891 39.2302 201.637 38.2523 204.995 36.2967C208.352 34.341 211.818 31.8245 215.42 28.7544C215.837 28.172 216.261 27.5249 216.693 26.8203C217.124 26.1085 217.433 25.6124 217.606 25.3176C218.059 24.6274 218.598 24.2895 219.224 24.2966C219.605 24.2966 219.921 24.4404 220.166 24.6993C220.41 24.9581 220.532 25.2745 220.525 25.6412C220.525 26.3745 220.101 27.0504 219.267 27.6615C218.886 27.9851 218.404 28.3086 217.915 28.6322C217.361 28.9989 216.815 29.4518 216.276 29.8976C215.737 30.3506 215.248 30.8251 214.802 31.3356C214.148 32.1337 213.522 33.018 212.925 33.9815C212.329 34.9449 211.588 36.2535 210.704 37.8928C209.287 40.5243 208.158 42.48 207.324 43.7598C205.786 46.1325 204.211 48.2104 202.601 49.9791C200.99 51.755 199.106 53.495 196.964 55.2206C195.641 56.2847 194.174 57.1116 192.549 57.7011C190.924 58.2907 189.357 58.5927 187.854 58.5927C186.279 58.5927 184.92 58.2692 183.77 57.5933C182.62 56.9174 181.814 55.8893 181.347 54.4944C181.196 54.0559 181.103 53.5741 181.081 53.0636C181.009 51.4459 181.663 49.9144 183.044 48.4693C184.424 47.0241 186.186 45.8665 188.321 44.9893C190.457 44.1193 192.549 43.6807 194.591 43.6879C196.396 43.6879 197.905 44.0402 199.113 44.7449C199.84 45.1547 200.206 45.7442 200.221 46.5136C200.228 46.9881 200.084 47.4051 199.789 47.7503C199.494 48.0954 199.121 48.2679 198.682 48.2679C198.38 48.2679 197.999 48.1169 197.553 47.8221C195.31 46.1613 193.153 45.3344 191.111 45.3344C189.853 45.3344 188.731 45.6436 187.746 46.2547C186.761 46.8659 186.013 47.6568 185.488 48.6346C184.964 49.6124 184.726 50.655 184.769 51.7551C184.791 52.2727 184.892 52.8408 185.086 53.4663C185.431 54.5663 186.049 55.4075 186.948 55.9971C187.84 56.5795 188.875 56.8743 190.054 56.8671C191.097 56.8671 192.197 56.6299 193.361 56.1697C194.526 55.7096 195.619 55.0337 196.64 54.214C197.51 53.5166 198.402 52.5531 199.257 51.3236C200.106 50.0942 201.278 48.3111 202.766 45.9672C203.6 44.6514 204.017 43.9899 204.858 42.6742C207.461 38.7269 210.157 35.1103 212.94 31.8461C209.704 34.5927 206.792 36.7281 204.175 38.2308C201.558 39.7407 199.178 40.4884 197.021 40.4812C195.892 40.4812 194.828 40.2368 193.822 39.7622C189.867 37.8857 187.796 34.8227 187.653 30.5591L187.638 30.5807Z" fill="var(--fill-0, #1E1E1E)"/>
<path id="Vector_7" d="M218.368 37.3536C218.368 36.1025 218.864 34.6861 219.871 33.1043C220.878 31.5225 222.215 29.9192 223.89 28.3015C225.457 26.7916 227.082 25.6124 228.75 24.7712C230.419 23.9299 231.849 23.5273 233.036 23.5561C233.769 23.5776 234.308 23.7789 234.646 24.0953C235.056 24.4764 235.308 24.9941 235.301 25.6556C235.696 25.0444 235.926 24.6993 235.998 24.6274C236.393 24.0881 236.918 23.8293 237.587 23.8509C238.04 23.8653 238.443 24.0234 238.78 24.3254C239.118 24.6274 239.291 25.0012 239.277 25.447C239.262 25.9647 239.061 26.468 238.665 26.9713C238.414 27.3308 237.982 27.7838 237.386 28.3374C236.782 28.891 236.379 29.2721 236.163 29.4878C234.574 30.9114 233.33 32.1552 232.432 33.2122C231.533 34.2763 231.08 35.2254 231.066 36.0738C231.066 36.3326 231.145 36.6058 231.31 36.9078C231.641 37.5046 232.187 37.8138 232.942 37.8353C233.87 37.8569 235.063 37.3608 236.53 36.3398C237.997 35.3188 239.65 33.8233 241.505 31.8676C241.649 31.9611 241.721 32.0043 241.865 32.0977C239.888 34.7508 237.817 36.951 235.631 38.6837C233.453 40.4237 231.67 41.2721 230.268 41.2362C229.549 41.2218 228.945 40.927 228.484 40.3662C228.147 39.9563 227.981 39.4531 227.988 38.8635C227.996 38.0151 228.319 37.03 228.952 35.9084C227.593 37.4183 226.256 38.6118 224.947 39.4818C223.638 40.3518 222.474 40.7832 221.446 40.7616C220.727 40.7472 220.094 40.4956 219.547 40.0067C218.764 39.2949 218.368 38.4033 218.368 37.3392V37.3536ZM224.343 37.5837C225.199 37.6052 226.176 37.1091 227.269 36.1025C228.362 35.0959 229.8 33.6292 231.598 31.6879C232.087 30.8826 232.331 30.48 232.827 29.6819C233.338 28.8119 233.597 28.3805 234.114 27.5105C234.337 26.8922 234.445 26.3961 234.452 26.0294C234.459 25.4758 234.272 25.066 234.006 24.8C233.762 24.5627 233.417 24.3973 232.964 24.3829C231.986 24.3542 230.735 24.8574 229.203 25.8856C227.679 26.9138 226.335 28.1505 225.177 29.5956C224.372 30.5735 223.739 31.5297 223.286 32.4788C222.833 33.4279 222.603 34.305 222.596 35.1103C222.596 35.8077 222.797 36.4405 223.207 36.9941C223.516 37.368 223.89 37.5621 224.336 37.5693L224.343 37.5837Z" fill="var(--fill-0, #1E1E1E)"/>
<path id="Vector_8" d="M238.608 38.3962C238.644 36.9294 239.255 35.2757 240.463 33.4351C241.671 31.6016 243.31 29.4303 245.403 26.9282C246.007 26.202 246.316 25.8353 246.927 25.1091C246.647 25.1379 246.222 25.2026 245.662 25.3104C245.101 25.4183 244.59 25.4686 244.137 25.4471C243.893 25.4399 243.684 25.3464 243.519 25.181C243.346 25.0085 243.267 24.7928 243.274 24.5411C243.282 24.2463 243.375 24.0091 243.555 23.8365C243.735 23.6568 243.943 23.5777 244.188 23.5849C244.712 23.6065 245.46 23.6999 246.431 23.8868C246.934 23.9731 247.179 24.0163 247.682 24.0953C248.12 23.5273 249.256 22.0318 250.989 19.6448C252.549 17.495 253.736 15.942 254.433 15.0936C255.145 14.238 255.936 13.7778 256.82 13.8137C257.316 13.8353 257.712 14.0007 258.021 14.3098C258.323 14.619 258.467 15.0073 258.445 15.489C258.416 16.1505 258.035 16.8335 257.302 17.5381C257.079 17.7466 256.425 18.2715 255.339 19.1055C253.017 20.8814 251.119 22.5711 249.63 24.1745C249.875 24.1457 250.342 24.0882 251.025 24.0091C251.708 23.9228 252.334 23.894 252.887 23.9156C253.132 23.9228 253.34 24.0235 253.506 24.2176C253.671 24.4117 253.75 24.649 253.736 24.9438C253.729 25.2026 253.628 25.4111 253.448 25.5693C253.268 25.7275 253.053 25.7994 252.808 25.7922C252.248 25.7706 251.406 25.634 250.313 25.3608C249.623 25.1954 249.12 25.0732 248.804 25.0301C248.48 25.4111 248.315 25.6052 247.984 25.9935C246.057 28.3087 244.583 30.3003 243.548 31.954C242.512 33.6076 241.987 34.9881 241.951 36.0882C241.937 36.6418 242.081 37.1235 242.376 37.5334C242.67 37.9504 243.131 38.1661 243.749 38.1877C244.712 38.2236 245.942 37.7419 247.459 36.7497C248.976 35.7575 250.68 34.2547 252.6 32.2344C252.744 32.3063 252.815 32.3422 252.959 32.4141C250.881 35.0528 248.739 37.2602 246.539 39.0289C244.331 40.8048 242.519 41.6748 241.089 41.6244C240.406 41.6029 239.845 41.344 239.413 40.8551C238.845 40.2152 238.572 39.3956 238.601 38.4034L238.608 38.3962Z" fill="var(--fill-0, #1E1E1E)"/>
<path id="Vector_9" d="M256.77 39.41C256.82 38.3458 257.244 37.2458 258.057 36.1026C258.869 34.9594 260.041 33.5645 261.58 31.9037C262.493 30.9546 263.19 30.178 263.679 29.5741C264.161 28.9701 264.413 28.4884 264.434 28.1217C264.441 27.9348 264.398 27.791 264.298 27.676C264.168 27.525 263.996 27.4387 263.787 27.4315C263.406 27.4099 262.888 27.6544 262.234 28.1577C261.58 28.661 260.688 29.4591 259.559 30.5447C257.086 32.9678 254.11 36.3758 250.687 40.7616C250.148 41.4375 249.522 41.7611 248.803 41.7395C248.358 41.7251 247.976 41.5597 247.66 41.2577C247.344 40.9486 247.193 40.5747 247.207 40.1361C247.222 39.8054 247.329 39.4603 247.552 39.1008C247.955 38.3458 248.358 37.6988 248.753 37.1595C249.148 36.6203 250.112 35.3548 251.665 33.356C253.211 31.3572 255.519 28.3446 258.639 24.3254C259.595 23.0672 260.077 22.4345 261.041 21.1762C261.673 20.3566 263.126 18.5016 265.412 15.6184C267.698 12.7352 269.287 10.8371 270.157 9.92397C270.797 9.29125 271.473 8.99643 272.185 9.03957C272.645 9.06114 273.019 9.23371 273.307 9.54288C273.594 9.85205 273.716 10.2475 273.688 10.722C273.652 11.3116 273.407 11.8652 272.947 12.3901C272.717 12.6705 271.984 13.3176 270.761 14.317C270.423 14.6334 269.554 15.4027 268.166 16.6394C266.771 17.876 265.347 19.2134 263.888 20.6514C262.428 22.0894 261.091 23.5202 259.869 24.9366C259.682 25.1523 258.337 26.7988 255.857 29.8904C253.383 32.9821 252.139 35.1247 252.089 36.2967C252.082 36.5555 252.147 36.6849 252.283 36.6921C252.556 36.7065 253.067 36.3183 253.8 35.5418C254.541 34.7653 255.468 33.6796 256.604 32.3494C257.755 31.0049 258.56 30.1205 258.963 29.6963C260.717 27.8629 262.098 26.5471 263.097 25.7491C264.096 24.951 264.981 24.5699 265.75 24.6058C266.311 24.6346 266.8 24.8863 267.231 25.3392C267.555 25.6843 267.713 26.1373 267.684 26.6837C267.641 27.4531 267.289 28.3446 266.62 29.3656C265.959 30.3794 265.017 31.6304 263.845 33.1188C262.838 34.3842 262.09 35.4195 261.587 36.1816C261.084 36.951 260.818 37.5909 260.796 38.1014C260.782 38.3602 260.861 38.5831 261.019 38.7772C261.249 39.0433 261.601 39.1871 262.083 39.2158C263.111 39.2661 264.477 38.7628 266.196 37.7059C267.907 36.649 269.705 35.1823 271.588 33.2913C271.746 33.3848 271.833 33.4351 271.991 33.5357C269.683 36.0594 267.346 38.1876 264.966 39.906C262.586 41.6316 260.674 42.4585 259.2 42.3938C258.445 42.3578 257.848 42.0558 257.388 41.4878C256.935 40.9126 256.727 40.2296 256.763 39.4171L256.77 39.41Z" fill="var(--fill-0, #1E1E1E)"/>
<path id="Vector_10" d="M269.855 38.051C269.92 36.915 270.287 35.6999 270.956 34.4129C271.624 33.1259 272.48 31.8748 273.53 30.6885C274.867 29.1786 276.391 27.9707 278.081 27.0504C279.77 26.1373 281.259 25.7202 282.553 25.7921C283.387 25.8425 284.084 26.1445 284.645 26.6909C285.033 27.0863 285.199 27.6831 285.141 28.4884C285.069 29.4015 284.703 30.4009 284.027 31.4866C283.351 32.5723 282.431 33.5645 281.252 34.4632C280.072 35.3692 278.764 36.0162 277.319 36.4117C277.139 36.4764 276.894 36.498 276.585 36.4836C276.104 36.4548 275.73 36.2607 275.456 35.894C275.183 35.5273 275.061 35.1247 275.09 34.6861C275.119 34.2835 275.27 33.9455 275.543 33.6651C275.823 33.3847 276.219 33.2625 276.736 33.2913C278.296 33.3775 279.627 33.1906 280.734 32.7232C281.841 32.2559 282.682 31.6447 283.243 30.8898C283.804 30.1348 284.113 29.3727 284.171 28.5962C284.221 27.9347 284.063 27.3955 283.711 26.9641C283.452 26.6549 283.114 26.4824 282.697 26.4608C281.963 26.4177 281.093 26.7412 280.08 27.4386C279.073 28.1361 278.002 29.0564 276.938 30.2139C276.075 31.1486 275.356 32.1696 274.788 33.2409C274.213 34.3122 273.896 35.3476 273.839 36.3326C273.781 37.2098 273.954 38.0222 274.356 38.7341C274.896 39.6831 275.744 40.1936 276.844 40.2511C278.045 40.323 279.49 39.8701 281.18 38.9066C282.869 37.9432 284.688 36.5627 286.63 34.7724C286.745 34.909 286.802 34.9809 286.917 35.1247C285.156 37.2601 283.049 39.1439 280.604 40.7832C278.16 42.4225 276.01 43.1918 274.126 43.084C273.134 43.0264 272.293 42.7245 271.61 42.1708C270.33 41.1427 269.74 39.7694 269.841 38.051H269.855Z" fill="var(--fill-0, #1E1E1E)"/>
<path id="Vector_11" d="M287.801 40.5387C287.916 39.072 289.096 37.4542 291.36 35.6927C291.741 35.3835 291.928 35.2325 292.309 34.9305C293.647 33.8808 294.718 32.9965 295.516 32.2775C296.314 31.5585 296.954 30.8323 297.436 30.0917C297.594 29.8473 297.695 29.574 297.716 29.2793C297.759 28.7688 297.58 28.3086 297.177 27.9132C296.774 27.5177 296.329 27.302 295.84 27.2661C295.559 27.2445 295.293 27.3236 295.034 27.489C294.093 28.2727 292.791 29.4374 291.145 30.9833C289.498 32.5291 287.981 34.0318 286.586 35.4914C286.471 35.326 286.421 35.2469 286.306 35.0888C289.297 31.9396 290.807 30.3721 293.848 27.2445C294.114 26.9713 294.272 26.6118 294.308 26.1732C294.33 25.9144 294.251 25.3679 294.129 24.5555C293.956 23.4554 293.92 22.6429 293.956 22.1684C294.006 21.586 294.258 21.1187 294.704 20.7807C295.157 20.4428 295.646 20.2918 296.17 20.3278C296.659 20.3637 297.076 20.5578 297.422 20.9101C297.759 21.2625 297.903 21.7945 297.839 22.4847C297.81 22.7795 297.652 23.1822 297.414 23.6711C297.098 24.3326 296.897 24.9221 296.846 25.3463C296.818 25.5908 296.911 25.8569 297.098 26.1085C297.285 26.3602 297.573 26.6765 297.968 27.0288C298.507 27.5105 298.939 27.9563 299.219 28.3589C299.499 28.7688 299.614 29.2289 299.564 29.7394C299.463 30.8395 299.01 31.8748 298.205 32.8455C297.4 33.8233 296.264 34.9377 294.804 36.196C293.862 37.0156 293.179 37.6555 292.741 38.1301C292.302 38.5974 292.065 39.036 292.036 39.4387C292.015 39.6975 292.065 39.8988 292.194 40.057C292.532 40.5243 292.978 40.776 293.532 40.8119C295.416 40.9413 298.651 38.7915 303.332 34.3841C303.468 34.4632 303.54 34.4992 303.677 34.5782C301.239 37.4183 298.845 39.6975 296.48 41.4087C294.114 43.1199 292.173 43.9252 290.634 43.8245C289.779 43.767 289.088 43.4075 288.556 42.746C287.995 42.0486 287.744 41.3152 287.801 40.5459V40.5387Z" fill="var(--fill-0, #1E1E1E)"/>
<path id="Vector_12" d="M298.414 42.3146C298.486 41.5452 298.802 40.704 299.378 39.7837C299.946 38.8634 300.729 37.7633 301.714 36.4691C302.023 36.0521 302.182 35.8436 302.491 35.4194C302.685 35.1749 302.908 34.8801 303.152 34.5278C303.397 34.1755 303.677 33.7729 304.001 33.3199C305.769 30.9113 306.985 29.3079 307.624 28.5099C308.063 27.9922 308.631 27.7549 309.328 27.8124C309.781 27.8484 310.148 28.0137 310.436 28.3157C310.723 28.6177 310.838 28.9844 310.795 29.423C310.745 29.8975 310.522 30.3793 310.119 30.861C309.803 31.242 308.847 32.0689 307.294 33.3487C305.582 34.7579 304.252 35.9658 303.31 36.9436C302.361 37.9215 301.858 38.8202 301.779 39.6183C301.736 40.0569 301.858 40.4523 302.131 40.8046C302.469 41.236 302.929 41.4734 303.512 41.5165C305.396 41.6603 308.379 39.8053 312.521 35.973C312.657 36.0521 312.729 36.0881 312.866 36.1672C310.644 38.6765 308.365 40.7543 306.021 42.4008C303.677 44.0473 301.815 44.8166 300.413 44.716C299.694 44.6657 299.162 44.3565 298.795 43.8244C298.5 43.4002 298.364 42.8898 298.421 42.3074L298.414 42.3146ZM312.995 21.2192C313.535 20.946 314.052 20.831 314.548 20.8741C314.973 20.9101 315.346 21.0682 315.67 21.3558C316.188 21.8016 316.403 22.4487 316.31 23.2899C316.224 24.0952 315.871 24.8574 315.267 25.5835C314.858 26.1012 314.383 26.4895 313.851 26.7411C313.312 26.9928 312.801 27.1006 312.312 27.0575C311.931 27.0287 311.557 26.8849 311.191 26.6333C310.709 26.1875 310.508 25.5476 310.594 24.7064C310.68 23.8652 311.018 23.0958 311.572 22.4056C311.982 21.8951 312.456 21.4925 312.995 21.2192Z" fill="var(--fill-0, #1E1E1E)"/>
<path id="Vector_13" d="M316.266 43.1559C316.388 42.0989 316.92 41.0061 317.884 39.8844C318.847 38.77 320.184 37.4327 321.903 35.8868C322.996 34.909 323.808 34.1541 324.326 33.6076C324.843 33.0612 325.131 32.6082 325.174 32.2415C325.196 32.0618 325.16 31.9108 325.073 31.7886C324.851 31.5872 324.635 31.4722 324.426 31.4506C323.067 31.3284 320.378 33.1978 316.424 37.0732C315.604 37.8569 313.972 39.525 311.549 42.0918C310.729 42.9546 310.32 43.386 309.507 44.2488C309.004 44.8024 308.457 45.0468 307.875 45.0037C307.465 44.9677 307.12 44.788 306.847 44.45C306.574 44.1121 306.452 43.7311 306.502 43.2925C306.545 42.8539 306.746 42.4297 307.099 42.0127C307.257 41.8042 307.846 41.1139 308.867 39.942C310.6 37.9791 311.858 36.5124 312.62 35.5417C313.677 34.1972 314.698 32.8167 315.691 31.4219C316.208 30.7101 316.467 30.3578 316.992 29.646C317.646 28.8119 318.358 28.4308 319.127 28.4955C319.544 28.5315 319.882 28.6897 320.127 28.9701C320.378 29.2505 320.479 29.61 320.429 30.0486C320.378 30.4872 320.098 31.0049 319.623 31.5873C319.214 32.0977 318.653 32.6513 317.941 33.2193C317.229 33.7874 316.798 34.1397 316.64 34.2691C315.022 35.6064 313.864 36.6777 313.145 37.4686C312.117 38.6046 311.405 39.4315 311.003 39.9492C310.6 40.4669 310.492 40.8335 310.679 41.0277C310.83 41.1858 311.233 40.9773 311.866 40.4021C312.498 39.8269 313.498 38.8563 314.864 37.4902C315.777 36.5699 316.237 36.1097 317.157 35.1894C319.235 33.1474 321.061 31.5657 322.622 30.4225C324.182 29.2865 325.505 28.7688 326.583 28.8622C327.173 28.9126 327.655 29.1642 328.029 29.6028C328.395 30.0414 328.546 30.5734 328.467 31.1918C328.366 32.033 327.913 32.9605 327.123 33.9815C326.332 35.0025 325.217 36.2751 323.779 37.7562C322.722 38.8419 321.888 39.7478 321.313 40.474C320.738 41.2002 320.429 41.797 320.371 42.2715C320.342 42.4944 320.407 42.7029 320.558 42.897C320.767 43.1774 321.112 43.3356 321.594 43.3788C322.586 43.465 323.995 43.0121 325.821 42.0127C327.647 41.0133 329.582 39.5968 331.638 37.7562C331.746 37.9 331.796 37.9719 331.904 38.1157C329.467 40.474 327.022 42.4369 324.556 44.0043C322.09 45.5717 320.12 46.2979 318.617 46.1685C317.833 46.1037 317.215 45.7514 316.769 45.1259C316.352 44.5363 316.187 43.8749 316.266 43.1487V43.1559Z" fill="var(--fill-0, #1E1E1E)"/>
<path id="Vector_14" d="M316.813 61.1954C316.936 60.1745 317.446 59.06 318.352 57.8665C319.258 56.673 320.452 55.5082 321.925 54.3865C325.787 51.3668 330.201 49.3536 335.148 48.3614C335.91 47.3476 336.291 46.8443 337.053 45.8305C338.074 44.486 338.585 43.8173 339.606 42.48C337.995 44.0186 336.406 45.2122 334.839 46.0606C333.271 46.909 331.905 47.2757 330.74 47.1678C330.057 47.1031 329.453 46.8227 328.929 46.3338C328.231 45.5645 327.943 44.6513 328.08 43.5944C328.238 42.3506 328.914 40.9845 330.115 39.489C331.316 37.9935 332.854 36.4979 334.738 35.0168C336.499 33.6291 338.268 32.5866 340.044 31.8748C341.82 31.163 343.301 30.8682 344.488 30.9905C345.221 31.0624 345.731 31.3068 346.041 31.6519C346.407 32.0617 346.594 32.5794 346.508 33.1978C346.846 32.7879 347.119 32.486 347.328 32.2846C347.615 31.9827 347.946 31.7598 348.298 31.6088C348.658 31.465 348.996 31.4075 349.305 31.4362C349.722 31.4794 350.06 31.6663 350.311 31.9899C350.563 32.3134 350.657 32.6945 350.592 33.133C350.513 33.6795 350.225 34.2044 349.772 34.7148C349.391 35.1462 348.492 35.9515 347.097 37.1019C345.897 38.0869 344.876 38.9713 344.027 39.755C343.179 40.5387 342.438 41.344 341.798 42.1636C339.915 44.637 338.376 46.5926 337.168 48.0234C339.922 47.628 342.712 47.5777 345.516 47.8724C348.111 48.1457 350.57 48.6849 352.878 49.4974C353.439 49.7059 353.834 49.9935 354.072 50.353C354.309 50.7125 354.395 51.1079 354.323 51.5465C354.252 52.021 354 52.4381 353.576 52.7976C353.151 53.1571 352.67 53.3081 352.13 53.2506C351.857 53.2218 351.577 53.1355 351.289 52.9917C347.054 50.8635 343.244 49.634 339.9 49.2961C338.635 49.1667 337.391 49.1594 336.169 49.2601C332.186 54.3218 325.218 63.8701 319.071 64.4093C318.568 64.4525 317.863 64.0427 317.403 63.489C316.9 62.8707 316.706 62.1014 316.806 61.2242L316.813 61.1954ZM321.408 61.102C323.493 61.2889 327.145 58.1253 332.523 51.6544C333.221 50.77 333.573 50.3242 334.271 49.4398C330.611 50.1588 326.822 52.0211 322.918 55.0336C322.163 55.6304 321.48 56.2991 320.876 57.0396C320.272 57.7802 319.934 58.4633 319.862 59.0816C319.79 59.664 319.984 60.2032 320.43 60.6849C320.703 60.9294 321.027 61.0732 321.401 61.102H321.408ZM334.177 44.335C335.141 44.4285 336.377 43.9324 337.902 42.8395C339.426 41.7538 340.95 40.4165 342.467 38.8275C343.114 37.9719 343.776 37.0012 344.459 35.9227C344.725 35.5273 344.861 35.3332 345.127 34.9377C345.286 34.5495 345.386 34.2259 345.422 33.9671C345.487 33.5285 345.408 33.1906 345.199 32.9461C344.833 32.5722 344.365 32.3637 343.805 32.3062C342.618 32.184 341.166 32.6298 339.44 33.6435C337.715 34.6573 336.183 35.9227 334.846 37.4398C333.508 38.9569 332.761 40.3518 332.588 41.6316C332.48 42.4368 332.603 43.1055 332.955 43.6088C333.264 44.0402 333.681 44.2847 334.163 44.335H334.177Z" fill="var(--fill-0, #1E1E1E)"/>
<path id="Vector_15" d="M39.554 45.6004C39.5252 44.5435 39.8775 43.4291 40.6037 42.2499C41.3299 41.0708 42.394 39.6112 43.8104 37.8784C44.6517 36.879 45.2916 36.0738 45.7302 35.441C46.1688 34.8155 46.3844 34.3194 46.3773 33.9599C46.3773 33.7802 46.3197 33.6363 46.2119 33.5285C46.0681 33.3847 45.8955 33.3128 45.687 33.32C45.306 33.32 44.8099 33.6004 44.1987 34.1397C43.5876 34.6789 42.7535 35.5201 41.711 36.6705C39.4174 39.2229 36.6996 42.7748 33.6079 47.3332C33.119 48.0378 32.515 48.3973 31.8032 48.4189C31.3647 48.4333 30.9764 48.2967 30.6384 48.0091C30.3077 47.7287 30.128 47.3692 30.1136 46.9306C30.0992 46.5998 30.1927 46.2547 30.3868 45.888C30.7391 45.1115 31.0914 44.4501 31.4509 43.8964C31.8104 43.3428 32.6804 42.027 34.0752 39.9563C35.4773 37.8856 37.5624 34.758 40.388 30.5878C41.258 29.2793 41.6894 28.6321 42.5666 27.3236C43.1418 26.4751 44.4575 24.5483 46.5282 21.5501C48.6061 18.5518 50.0585 16.5746 50.8566 15.6183C51.4534 14.9569 52.1005 14.6189 52.8051 14.6117C53.2652 14.6117 53.6463 14.7484 53.9483 15.036C54.2503 15.3236 54.4012 15.7046 54.4084 16.1791C54.4084 16.7615 54.2071 17.3296 53.7829 17.876C53.5744 18.1708 52.8913 18.8538 51.741 19.9179C51.4246 20.2487 50.6193 21.0683 49.3179 22.3769C48.0166 23.6855 46.6936 25.1019 45.3419 26.6118C43.9902 28.1288 42.7607 29.6243 41.6463 31.0983C41.4737 31.3212 40.2514 33.0324 38.001 36.2463C35.7505 39.4602 34.6648 41.6532 34.7008 42.8179C34.708 43.0696 34.7799 43.199 34.9165 43.1918C35.1897 43.1918 35.6642 42.7748 36.3473 41.9551C37.0303 41.1427 37.8787 40.0138 38.9141 38.6262C39.9638 37.2241 40.7044 36.2967 41.0711 35.8509C42.6888 33.9312 43.9686 32.5435 44.9105 31.6879C45.8452 30.8323 46.7008 30.4009 47.4629 30.3937C48.0166 30.3865 48.5271 30.6022 48.98 31.0264C49.3251 31.35 49.5121 31.7813 49.5193 32.3278C49.5265 33.0899 49.2389 33.9959 48.6421 35.0456C48.0525 36.0881 47.2041 37.3895 46.14 38.9353C45.234 40.2511 44.5582 41.3152 44.1124 42.1061C43.6667 42.897 43.4438 43.5441 43.4581 44.0546C43.4581 44.3062 43.5516 44.5292 43.7242 44.7089C43.9686 44.9605 44.3281 45.0827 44.8099 45.0756C45.8308 45.0612 47.1538 44.4716 48.7787 43.3212C50.4036 42.1708 52.0861 40.6034 53.826 38.619C53.9914 38.7053 54.0777 38.7484 54.2431 38.8347C52.1292 41.4734 49.9578 43.7238 47.7146 45.5789C45.4713 47.4339 43.6307 48.3757 42.1711 48.4045C41.4234 48.4189 40.8051 48.1601 40.3161 47.6208C39.8272 47.0816 39.5684 46.4201 39.554 45.6148V45.6004Z" fill="var(--fill-0, #1E1E1E)"/>
<path id="Vector_16" d="M52.4383 43.429C52.424 42.3002 52.7044 41.0779 53.2796 39.7621C53.8548 38.4464 54.6169 37.1522 55.5732 35.9155C56.7955 34.3409 58.2263 33.0467 59.8368 32.0329C61.4474 31.0192 62.8997 30.5159 64.1795 30.5087C65.0136 30.5087 65.7182 30.7603 66.3078 31.2636C66.7176 31.6303 66.9261 32.2127 66.9189 33.0108C66.9189 33.9239 66.6097 34.9305 66.0202 36.0449C65.4234 37.1594 64.575 38.1947 63.4749 39.1654C62.3749 40.136 61.1166 40.8622 59.7146 41.3439C59.542 41.4158 59.3047 41.459 58.9956 41.459C58.5139 41.459 58.1328 41.2936 57.838 40.9485C57.5432 40.6033 57.3994 40.2151 57.3994 39.7765C57.3994 39.3739 57.5288 39.0288 57.7805 38.734C58.0393 38.4392 58.4276 38.2954 58.9381 38.2882C60.4839 38.281 61.7925 38.0078 62.8566 37.4757C63.9279 36.9437 64.7116 36.2894 65.2149 35.4985C65.7182 34.7148 65.977 33.9383 65.977 33.1761C65.977 32.5218 65.7901 31.997 65.4162 31.5943C65.143 31.3067 64.7979 31.163 64.3809 31.163C63.6547 31.163 62.8063 31.544 61.8572 32.2918C60.9009 33.0395 59.9087 34.0245 58.9309 35.2324C58.1328 36.2103 57.4929 37.26 57.004 38.3601C56.5079 39.453 56.2634 40.4955 56.2706 41.4805C56.2706 42.3577 56.5007 43.1486 56.9464 43.8244C57.5504 44.7232 58.4204 45.1761 59.5133 45.169C60.7068 45.1618 62.1016 44.6225 63.7194 43.5656C65.3299 42.5015 67.0339 41.0276 68.8386 39.1294C68.9608 39.2588 69.0256 39.3235 69.1478 39.4601C67.5444 41.6818 65.5888 43.6735 63.2808 45.4494C60.9728 47.2253 58.8949 48.1168 57.0255 48.1384C56.0405 48.1456 55.1849 47.9012 54.4731 47.3979C53.1358 46.4632 52.4599 45.1474 52.4455 43.4362L52.4383 43.429Z" fill="var(--fill-0, #1E1E1E)"/>
<path id="Vector_17" d="M19.0411 53.6101C18.7391 53.6676 18.5522 53.5597 18.4731 53.2721C18.4228 53.0924 18.4371 52.9055 18.5234 52.7041C21.1765 45.5717 23.9015 38.4392 27.1154 31.5081C29.9554 25.3823 33.2341 19.1846 36.8578 13.3248C35.0819 13.6411 33.1765 13.7562 31.1346 13.6771C29.0926 13.598 26.6121 13.3751 23.7289 13.0803C20.7163 12.7711 18.2646 12.6202 16.4527 12.5698C14.6408 12.5195 12.9296 12.6561 11.3191 12.9653C9.36341 13.3463 7.76006 14.0366 6.53058 15.0216C5.03507 16.2151 4.05003 17.725 3.61145 19.5584C3.17286 21.3847 3.33104 23.4266 4.04285 25.6771C4.47425 27.0432 5.222 28.2223 6.27892 29.1858C7.33585 30.1492 8.53657 30.8467 9.86671 31.2781C11.1969 31.7023 12.4838 31.7957 13.7133 31.5585C15.5611 31.199 16.8913 30.0774 17.7181 28.2008C18.545 26.3242 18.5018 23.6855 17.5815 20.2774C17.409 19.6375 17.4377 19.1127 17.675 18.6956C17.9123 18.2786 18.2502 18.027 18.7032 17.9407C19.1561 17.8544 19.5803 17.9551 19.983 18.2283C20.3856 18.5087 20.666 18.9473 20.8242 19.5512C20.8961 19.8388 20.9392 20.0546 20.9392 20.1984C21.234 23.7574 20.5797 26.6046 18.9979 28.74C17.409 30.8754 15.3311 32.1912 12.7355 32.7017C11.0243 33.0396 9.31309 33.0037 7.5875 32.601C5.86191 32.1984 4.33764 31.4506 3.02188 30.3506C1.70612 29.2505 0.792989 27.87 0.311263 26.2091C-0.256744 24.2679 -0.0482315 22.305 0.943982 20.3206C1.93619 18.3433 3.5036 16.4524 5.60307 14.6477C8.24897 12.3829 11.4413 10.8658 15.1513 10.1612C17.7469 9.66506 20.3137 9.54285 22.8518 9.77293C25.3898 10.0102 28.4527 10.4344 31.8392 11.1462C34.3988 11.6854 36.3617 12.0522 37.6487 12.1169C38.4611 12.16 39.2089 12.1168 39.9063 12.0018C42.0993 11.6207 44.3353 10.6573 46.6289 9.11866C46.8806 8.96767 47.1179 8.867 47.3264 8.83105C47.7434 8.75915 48.1101 8.84542 48.4192 9.08988C48.7284 9.33433 48.9297 9.6507 49.0232 10.0462C49.1238 10.4775 49.0447 10.8946 48.8003 11.3044C48.5486 11.7142 48.1172 12.0737 47.5349 12.2966C46.9309 12.5267 46.2479 12.6777 45.5864 12.7927C44.5798 12.9653 43.5157 13.0587 42.394 13.0659C41.2724 13.0731 40.6181 13.0803 40.4384 13.0659C39.6762 13.0659 39.2952 13.0659 38.533 13.0659C35.4701 17.9479 32.8889 23.2109 30.8182 28.8191C28.2155 35.8796 26.1304 43.0912 24.2969 50.3243C24.1675 50.8707 23.6714 51.2302 22.8014 51.3956C22.6648 51.4243 22.3485 51.4746 21.8452 51.5537C21.3419 51.6328 20.9033 51.791 20.5294 52.0355C20.1555 52.2799 19.8751 52.6179 19.6882 53.0708C19.5588 53.3584 19.3431 53.531 19.0411 53.5885V53.6101Z" fill="var(--fill-0, #1E1E1E)"/>
</g>
</svg>
