<svg preserveAspectRatio="xMidYMid meet" width="888" height="365" overflow="visible" style="display: block;" viewBox="0 0 888 365" fill="none" xmlns="http://www.w3.org/2000/svg">
<path id="Vector" d="M887.979 177.2C852.42 266.663 779.53 365 718.204 365H713.751C663.969 362.35 652.425 318.944 652.425 297.682C652.425 218.861 760.874 101.933 760.874 66.4764C760.874 55.8562 754.649 51.4188 746.651 51.4188C709.319 51.4188 616.888 186.937 577.762 256.043C560.247 292.593 541.95 326.83 527.284 354.317C525.511 357.639 522.071 359.658 518.294 359.658H442.301C436.983 359.658 433.649 353.917 436.35 349.354C462.877 304.58 566.198 126.602 566.198 71.776C566.198 59.3682 561.766 50.5145 549.315 50.5145C517.323 50.5145 444.433 162.122 400.876 238.314C381.25 278.293 359.155 317.451 339.318 355.011C337.798 357.892 334.823 359.658 331.552 359.658H253.808C248.827 359.658 245.641 354.38 248.068 350.027C268.833 312.866 343.327 177.2 366.203 102.775C372.429 82.4173 383.993 36.3402 347.548 36.3402C326.213 36.3402 297.766 52.3021 273.771 82.4173C276.43 186.054 157.324 364.979 72.8903 364.979C8.88445 364.979 0 305.632 0 271.962C0 164.772 103.996 10.6413 198.222 10.6413C230.235 10.6413 250.663 22.1658 262.228 40.7565C292.448 15.9619 329.779 0 363.565 0C423.118 0 445.34 31.9028 445.34 81.492C445.34 93.8998 443.567 105.403 441.774 117.811C479.105 60.2305 517.344 14.1744 561.787 10.6202C615.115 7.06614 632.884 50.4725 632.884 77.9379C632.884 96.5286 629.317 116.024 623.999 137.285C664.897 72.6383 708.454 9.73698 774.212 9.73698C810.657 9.73698 836.424 29.232 836.424 65.5511C836.424 121.344 752.876 196.632 752.876 254.213C752.876 267.504 758.215 275.475 768.894 275.475C800 275.475 831.106 232.951 858.667 177.137H888L887.979 177.2ZM204.426 194.025C196.428 185.171 192.883 171.88 192.883 157.705C192.883 125.824 209.765 92.1543 235.553 64.6889C231.987 54.9519 223.989 48.748 210.652 48.748C153.758 48.748 85.3201 180.733 85.3201 241.847C85.3201 264.875 96.8635 275.517 113.767 275.517C139.555 275.517 176 246.285 204.426 194.025Z" fill="var(--fill-0, #F5A9BE)"/>
</svg>
