<svg preserveAspectRatio="xMidYMid meet" width="335" height="24" overflow="visible" style="display: block;" viewBox="0 0 335 24" fill="none" xmlns="http://www.w3.org/2000/svg">
<g id="Group">
<path id="Vector" d="M11.2812 4.3356C11.2812 2.27209 10.7491 1.891 9.27517 1.07853V0.826903H16.1056V1.07853C14.6317 1.891 14.1284 2.27209 14.1284 4.3356V16.1487C14.1284 20.5346 11.0583 23.0726 6.92405 23.0726C2.78983 23.0726 0.000138755 20.664 0.000138755 17.5579C0.000138755 15.6814 1.31589 14.4591 2.94801 14.4591C3.60949 14.4591 4.14154 14.646 4.48666 14.9624C3.58073 15.5591 2.91926 16.4003 2.91926 18.0037C2.91926 20.2613 4.55138 21.8575 6.93125 21.8575C10.0301 21.8575 11.2884 19.5423 11.2884 15.9977V4.3428L11.2812 4.3356Z" fill="var(--fill-0, #1E1E1E)"/>
<path id="Vector_2" d="M23.5397 1.07853V0.826903H30.3701V1.07853C28.8962 1.891 28.3641 2.27209 28.3641 4.3356V19.2476C28.3641 21.3183 28.8962 21.6922 30.3701 22.5046V22.7562H23.5397V22.5046C25.0136 21.6922 25.5169 21.3111 25.5169 19.2476V4.3356C25.5169 2.27209 25.0136 1.891 23.5397 1.07853Z" fill="var(--fill-0, #1E1E1E)"/>
<path id="Vector_3" d="M53.68 4.08393C53.9604 3.45841 54.0252 3.3002 54.0252 2.89038C54.0252 2.2289 53.3996 1.82629 52.0192 1.07134V0.819668H57.9077V1.07134C56.5273 2.04199 56.0887 2.50933 55.2115 4.3931L46.6914 23.0654H46.5332L38.0131 4.3931C37.1647 2.51652 36.7261 2.04199 35.3529 1.07134V0.819668H42.1833V1.07134C40.8963 1.63216 40.4937 2.0132 40.4937 2.66749C40.4937 3.07732 40.6519 3.38648 40.9035 4.01201L47.3241 18.4207L53.68 4.07674V4.08393Z" fill="var(--fill-0, #1E1E1E)"/>
<path id="Vector_4" d="M63.1426 22.7562H57.2541V22.5046C58.6345 21.534 59.1666 21.0666 60.0438 19.1828L68.8155 0.452993H68.9737L77.7454 19.1828C78.6514 21.0594 79.0324 21.534 80.4057 22.5046V22.7562H73.5753V22.5046C74.891 21.9438 75.3009 21.5627 75.3009 20.9084C75.3009 20.4986 75.1786 20.1894 74.8623 19.5639L72.9857 15.5231H63.3368L61.5177 19.5351C61.2373 20.1319 61.1438 20.477 61.1438 20.8509C61.1438 21.5124 61.7694 21.8503 63.1498 22.5118V22.7634L63.1426 22.7562ZM63.9263 14.2362H72.3817L68.1253 5.05458L63.9263 14.2362Z" fill="var(--fill-0, #1E1E1E)"/>
<path id="Vector_5" d="M105.023 0.826903H110.445V1.07853C108.971 1.891 108.474 2.27209 108.474 4.3356V19.2476C108.474 21.3183 108.978 21.6922 110.445 22.5046V22.7562H103.65V22.5046C105.124 21.6922 105.62 21.3111 105.62 19.2476V2.83288L96.9418 23.1014H96.8124L88.0407 2.83288V19.2188C88.0407 21.2823 88.8891 21.6922 90.3918 22.5046V22.7562H84.1868V22.5046C85.6608 21.6922 86.5092 21.2823 86.5092 19.2188V4.3356C86.5092 2.27209 86.0059 1.891 84.532 1.07853V0.826903H90.3918L97.819 17.9606L105.023 0.826903Z" fill="var(--fill-0, #1E1E1E)"/>
<path id="Vector_6" d="M132.727 1.07853V0.826903H138.96V1.07853C137.486 1.891 136.674 2.30083 136.674 4.36435V14.3584C136.674 20.0888 133.043 23.0654 128.06 23.0654C121.855 23.0654 118.972 19.6502 118.972 14.3584V4.3356C118.972 2.27209 118.44 1.891 116.966 1.07853V0.826903H123.826V1.07853C122.352 1.891 121.82 2.27209 121.82 4.3356V13.9845C121.82 18.9312 124.235 21.4117 128.24 21.4117C132.245 21.4117 135.099 19.2188 135.099 14.0204V4.37154C135.099 2.30084 134.222 1.89819 132.719 1.08573L132.727 1.07853Z" fill="var(--fill-0, #1E1E1E)"/>
<path id="Vector_7" d="M145.201 22.7562V22.5046C146.675 21.6922 147.179 21.3111 147.179 19.2476V4.3356C147.179 2.27209 146.675 1.891 145.201 1.07853V0.826903H152.032V1.07853C150.558 1.891 150.026 2.27209 150.026 4.3356V12.4459L159.581 3.55188C160.02 3.11329 160.207 2.76818 160.207 2.39431C160.207 1.89101 159.646 1.54588 158.862 1.07853V0.826903H165.348V1.07853C163.277 2.04918 162.026 2.95513 160.552 4.3356L154.534 9.91501L162.428 19.2476C163.773 20.815 164.995 21.9079 166.347 22.5046V22.7562H159.394V22.5046C159.926 22.1883 160.365 21.9438 160.365 21.4693C160.365 21.0307 160.149 20.7503 159.61 20.06L152.499 11.7269L150.026 13.9486V19.2404C150.026 21.3111 150.558 21.685 152.032 22.4974V22.7491H145.201V22.7562Z" fill="var(--fill-0, #1E1E1E)"/>
<path id="Vector_8" d="M187.197 0.826843C188.139 0.826843 188.607 0.733367 189.074 0.639897L190.109 6.52847H189.829C188.01 3.80348 186.982 1.98441 184.063 1.98441H180.964V19.2116C180.964 21.2751 181.524 21.6849 183.25 22.4974V22.749H175.859V22.4974C177.584 21.6849 178.116 21.2751 178.116 19.2116V1.98441H175.046C172.098 1.98441 171.07 3.80348 169.251 6.52847H168.971L170.006 0.639897C170.474 0.733367 170.948 0.826843 171.883 0.826843H187.205H187.197Z" fill="var(--fill-0, #1E1E1E)"/>
<path id="Vector_9" d="M196.509 1.07853V0.826903H203.339V1.07853C201.865 1.891 201.333 2.27209 201.333 4.3356V19.2476C201.333 21.3183 201.865 21.6922 203.339 22.5046V22.7562H196.509V22.5046C197.983 21.6922 198.479 21.3111 198.479 19.2476V4.3356C198.479 2.27209 197.976 1.891 196.509 1.07853Z" fill="var(--fill-0, #1E1E1E)"/>
<path id="Vector_10" d="M237.326 3.92573C237.671 3.42243 237.764 2.95508 237.764 2.70343C237.764 2.10667 237.167 1.70406 236.168 1.07134V0.819668H241.683V1.07134C240.432 2.01323 239.806 2.70344 238.771 4.32837L232.882 13.6034V19.2403C232.882 21.311 233.414 21.6849 235.14 22.4974V22.749H227.806V22.4974C229.532 21.6849 230.064 21.3038 230.064 19.2403V13.6034L224.175 4.32837C223.14 2.69625 222.543 2.01323 221.263 1.07134V0.819668H227.655V1.07134C226.843 1.57464 226.62 1.94852 226.62 2.50933C226.62 2.97668 226.742 3.41524 227.087 3.91853L232.228 12.0648L237.333 3.91853L237.326 3.92573Z" fill="var(--fill-0, #1E1E1E)"/>
<path id="Vector_11" d="M257.537 0.510571C263.8 0.510571 268.409 5.2128 268.409 11.7916C268.409 18.3704 263.807 23.0654 257.537 23.0654C251.268 23.0654 246.666 18.3632 246.666 11.7916C246.666 5.21999 251.268 0.510571 257.537 0.510571ZM257.537 1.92701C252.778 1.92701 249.894 5.87428 249.894 11.7916C249.894 17.7089 252.778 21.6562 257.537 21.6562C262.297 21.6562 265.18 17.7089 265.18 11.7916C265.18 5.87428 262.297 1.92701 257.537 1.92701Z" fill="var(--fill-0, #1E1E1E)"/>
<path id="Vector_12" d="M291.805 15.8036C291.805 13.7329 291.272 13.395 289.799 12.5465V12.2949H296.658V12.5465C295.155 13.395 294.623 13.7401 294.623 15.8036V23.0367H293.904L292.243 19.9019C291.021 21.7497 288.519 23.0654 285.449 23.0654C279.121 23.0654 274.484 18.5214 274.484 11.9138C274.484 5.30626 279.308 0.510571 285.916 0.510571C288.454 0.510571 290.424 1.29429 291.711 2.23618L293.401 0.510571H293.624V7.06061H293.372C291.589 4.11273 289.518 1.86229 286.074 1.86229C281.127 1.86229 277.741 5.90302 277.741 11.8203C277.741 17.7377 281.156 21.4046 286.196 21.4046C288.483 21.4046 290.424 20.6209 291.805 18.7443V15.7964V15.8036Z" fill="var(--fill-0, #1E1E1E)"/>
<path id="Vector_13" d="M306.687 22.7562H300.799V22.5046C302.179 21.534 302.711 21.0666 303.588 19.1828L312.36 0.452993H312.518L321.29 19.1828C322.196 21.0594 322.577 21.534 323.95 22.5046V22.7562H317.12V22.5046C318.435 21.9438 318.845 21.5627 318.845 20.9084C318.845 20.4986 318.716 20.1894 318.407 19.5639L316.53 15.5231H306.881L305.062 19.5351C304.782 20.1319 304.688 20.477 304.688 20.8509C304.688 21.5124 305.314 21.8503 306.694 22.5118V22.7634L306.687 22.7562ZM307.471 14.2362H315.926L311.67 5.05458L307.471 14.2362Z" fill="var(--fill-0, #1E1E1E)"/>
<path id="Vector_14" d="M334.096 4.42903C334.096 6.86643 332.111 8.85802 329.659 8.85802C327.208 8.85802 325.223 6.86643 325.223 4.42903C325.223 1.99164 327.222 0 329.659 0C332.097 0 334.096 1.97007 334.096 4.42903ZM333.722 4.42903C333.722 2.2361 331.859 0.352344 329.652 0.352344C327.445 0.352344 325.597 2.2361 325.597 4.42903C325.597 6.62197 327.459 8.50572 329.652 8.50572C331.845 8.50572 333.722 6.60759 333.722 4.42903ZM327.653 1.89096L329.221 1.82628C330.292 1.78314 331.148 2.03476 331.148 3.01259C331.148 3.99042 330.558 4.26366 329.803 4.33556C330.314 4.3787 330.903 4.8245 330.99 5.65853C331.097 6.73702 331.421 6.72983 332.068 6.72983L332.003 6.93112C330.688 7.26905 330.242 6.72983 330.098 6.14744C329.969 5.61539 330.249 4.57283 329.271 4.3787C329.135 4.34994 328.984 4.3787 328.984 4.3787V6.52849C328.984 6.63634 328.984 6.67949 329.027 6.67949L329.422 6.72983V6.93112H327.653V6.72983L328.02 6.67949C328.085 6.67949 328.085 6.63634 328.085 6.52849V2.2936C328.085 2.17856 328.085 2.14264 328.02 2.14264L327.653 2.07791V1.88381V1.89096ZM328.984 4.14142H329.135C330.048 4.14142 330.249 3.60217 330.249 3.06293C330.249 2.03476 329.415 1.91974 328.991 2.04916V4.14862L328.984 4.14142Z" fill="var(--fill-0, #1E1E1E)"/>
</g>
</svg>
