<svg preserveAspectRatio="xMidYMid meet" width="24" height="37" overflow="visible" style="display: block;" viewBox="0 0 24 37" fill="none" xmlns="http://www.w3.org/2000/svg">
<path id="Vector" d="M23.0652 9.07628C22.6064 6.72631 21.5017 4.71733 19.7136 3.09539C17.4293 1.0311 14.7144 0.0358383 11.625 0.00819162C11.3629 0.00819162 11.0914 -0.0102395 10.8292 0.00819162C8.55432 0.174072 6.47599 0.8929 4.63171 2.21073C2.11338 4.01698 0.540593 6.41292 0.109949 9.47249C-0.227077 11.8225 0.222295 14.0526 1.2989 16.163C2.14147 17.8034 3.18063 19.3332 4.27597 20.8169C5.59599 22.5955 6.88791 24.3833 7.97389 26.3094C8.84454 27.8391 9.57476 29.4335 10.0897 31.12C10.4922 32.447 10.7824 33.7924 10.9322 35.1655C10.9697 35.5157 11.1195 35.7554 11.4097 35.9305C11.4471 35.9489 11.4752 35.9949 11.5127 36.0041C11.5876 36.0226 11.6718 36.0502 11.7373 36.0226C12.065 35.8659 12.2522 35.5895 12.3084 35.2485C12.3927 34.797 12.4301 34.327 12.505 33.8754C12.7297 32.4286 13.1323 31.037 13.6752 29.6731C14.5365 27.5074 15.6974 25.4984 17.0081 23.5816C18.0191 22.1071 19.0864 20.6602 20.1068 19.195C21.1179 17.7481 22.0166 16.2367 22.6064 14.5687C23.2337 12.7809 23.4303 10.9655 23.0652 9.09473V9.07628ZM13.0667 14.5595C11.5314 15.0848 10.099 14.8637 8.86326 13.8039C7.04707 12.2464 7.13133 9.56473 8.99433 8.06259C10.9041 6.53281 13.7876 6.99352 15.0889 9.03016C15.4633 9.61995 15.6506 10.265 15.6506 10.8548C15.6693 12.5689 14.6582 14.0066 13.0574 14.5595H13.0667Z" fill="var(--fill-0, #1E1E1E)"/>
</svg>
