<svg preserveAspectRatio="none" width="100%" height="100%" overflow="visible" style="display: block;" viewBox="0 0 223 69" fill="none" xmlns="http://www.w3.org/2000/svg">
<g id="Group">
<path id="Vector" d="M188.87 2H34.5C16.5507 2 2 16.5508 2 34.5C2 52.4493 16.5507 67 34.5 67H188.87C206.819 67 221.37 52.4493 221.37 34.5C221.37 16.5508 206.819 2 188.87 2Z" fill="var(--fill-0, #781029)" stroke="var(--stroke-0, #E9DDED)" stroke-width="2.16426" stroke-miterlimit="10"/>
<g id="Group_2">
<path id="Vector_2" d="M56.0052 34.2836C55.9619 29.4573 59.9586 27.1055 60.139 26.9973C57.8737 23.6932 54.3676 23.2459 53.134 23.2098C50.1834 22.8996 47.3265 24.9701 45.826 24.9701C44.3254 24.9701 41.9808 23.2387 39.4919 23.2892C36.2888 23.3397 33.2877 25.1938 31.6428 28.0794C28.245 33.959 30.7771 42.5944 34.0307 47.3486C35.6612 49.6788 37.5585 52.2758 40.0474 52.182C42.4786 52.081 43.3948 50.6311 46.331 50.6311C49.2672 50.6311 50.0968 52.1821 52.6362 52.1244C55.2477 52.0811 56.8926 49.787 58.4653 47.4423C60.3482 44.7731 61.0985 42.1471 61.1273 42.0173C61.0624 41.9956 56.0557 40.0839 56.0052 34.2981V34.2836Z" fill="var(--fill-0, #DDBBAE)"/>
<path id="Vector_3" d="M51.2156 20.0787C52.5286 18.441 53.4232 16.2119 53.1707 13.9538C51.2733 14.0404 48.9071 15.2668 47.5436 16.8684C46.3388 18.2824 45.2567 20.5909 45.538 22.7696C47.6662 22.9283 49.8521 21.6946 51.2228 20.0859L51.2156 20.0787Z" fill="var(--fill-0, #DDBBAE)"/>
</g>
<g id="Group_3">
<path id="Vector_4" d="M91.2392 51.8428H87.8341L85.9728 45.9849H79.4945L77.7198 51.8428H74.4084L80.8291 31.9027H84.7969L91.2464 51.8428H91.2392ZM85.4173 43.5248L83.7292 38.3161C83.5488 37.7823 83.217 36.5343 82.7264 34.5576H82.6687C82.4739 35.4089 82.1565 36.6569 81.7237 38.3161L80.0716 43.5248H85.4245H85.4173Z" fill="var(--fill-0, #DDBBAE)"/>
<path id="Vector_5" d="M107.745 44.4772C107.745 46.9228 107.081 48.8562 105.761 50.2774C104.578 51.5399 103.106 52.1748 101.353 52.1748C99.4561 52.1748 98.0998 51.4966 97.2702 50.1331H97.2124V57.708H94.0166V42.2047C94.0166 40.6681 93.9733 39.0882 93.9011 37.4722H96.7075L96.8878 39.7518H96.9455C98.0132 38.0349 99.6292 37.1764 101.793 37.1764C103.489 37.1764 104.903 37.8474 106.035 39.1892C107.168 40.531 107.738 42.2985 107.738 44.4844L107.745 44.4772ZM104.492 44.5926C104.492 43.1931 104.174 42.0388 103.547 41.1298C102.854 40.1847 101.931 39.7086 100.769 39.7086C99.9827 39.7086 99.2613 39.9755 98.6264 40.4949C97.9844 41.0216 97.5659 41.7069 97.3712 42.551C97.2702 42.9477 97.2197 43.2724 97.2197 43.5249V45.92C97.2197 46.9661 97.5371 47.8462 98.1792 48.5677C98.8212 49.2891 99.6509 49.6498 100.675 49.6498C101.88 49.6498 102.818 49.1881 103.482 48.2574C104.153 47.3268 104.492 46.1076 104.492 44.5854V44.5926Z" fill="var(--fill-0, #DDBBAE)"/>
<path id="Vector_6" d="M124.288 44.4772C124.288 46.9228 123.624 48.8562 122.304 50.2774C121.121 51.5399 119.649 52.1748 117.896 52.1748C115.999 52.1748 114.642 51.4966 113.813 50.1331H113.755V57.708H110.559V42.2047C110.559 40.6681 110.516 39.0882 110.444 37.4722H113.25L113.43 39.7518H113.488C114.549 38.0349 116.172 37.1764 118.336 37.1764C120.031 37.1764 121.445 37.8474 122.585 39.1892C123.718 40.531 124.288 42.2985 124.288 44.4844V44.4772ZM121.034 44.5926C121.034 43.1931 120.717 42.0388 120.089 41.1298C119.397 40.1847 118.473 39.7086 117.312 39.7086C116.525 39.7086 115.804 39.9755 115.169 40.4949C114.527 41.0216 114.109 41.7069 113.914 42.551C113.82 42.9477 113.762 43.2724 113.762 43.5249V45.92C113.762 46.9661 114.08 47.8462 114.722 48.5677C115.364 49.2891 116.193 49.6498 117.225 49.6498C118.43 49.6498 119.368 49.1881 120.031 48.2574C120.702 47.3268 121.041 46.1076 121.041 44.5854L121.034 44.5926Z" fill="var(--fill-0, #DDBBAE)"/>
<path id="Vector_7" d="M142.771 46.2519C142.771 47.9472 142.179 49.3251 141.003 50.3928C139.705 51.5543 137.894 52.1387 135.571 52.1387C133.428 52.1387 131.704 51.7275 130.406 50.8979L131.149 48.2358C132.548 49.087 134.092 49.5127 135.766 49.5127C136.971 49.5127 137.908 49.2385 138.579 48.6975C139.25 48.1564 139.582 47.4278 139.582 46.5188C139.582 45.7108 139.308 45.0255 138.753 44.4772C138.204 43.9217 137.281 43.4095 136.004 42.9333C132.512 41.6348 130.766 39.723 130.766 37.2124C130.766 35.5748 131.38 34.233 132.599 33.1869C133.818 32.1409 135.448 31.6143 137.483 31.6143C139.301 31.6143 140.801 31.9317 142.006 32.5593L141.205 35.1636C140.08 34.5504 138.81 34.2474 137.389 34.2474C136.264 34.2474 135.391 34.5216 134.756 35.0771C134.222 35.5676 133.955 36.1736 133.955 36.8806C133.955 37.667 134.258 38.3234 134.871 38.8356C135.405 39.3118 136.372 39.824 137.771 40.3723C139.488 41.0648 140.744 41.8729 141.559 42.7963C142.367 43.7197 142.771 44.8739 142.771 46.2519Z" fill="var(--fill-0, #DDBBAE)"/>
<path id="Vector_8" d="M153.332 39.8599H149.812V46.8433C149.812 48.618 150.432 49.5053 151.673 49.5053C152.243 49.5053 152.719 49.4549 153.094 49.3539L153.181 51.7778C152.553 52.0159 151.723 52.1313 150.699 52.1313C149.437 52.1313 148.448 51.749 147.741 50.9771C147.034 50.2051 146.673 48.9138 146.673 47.103V39.8527H144.574V37.4576H146.673V34.8244L149.812 33.8793V37.4576H153.332V39.8599Z" fill="var(--fill-0, #DDBBAE)"/>
<path id="Vector_9" d="M169.218 44.5349C169.218 46.7424 168.583 48.5604 167.321 49.9816C166 51.4389 164.24 52.1676 162.054 52.1676C159.868 52.1676 158.267 51.4677 157.012 50.0682C155.756 48.6686 155.136 46.9012 155.136 44.773C155.136 42.6448 155.778 40.7185 157.076 39.3046C158.368 37.8834 160.106 37.1764 162.3 37.1764C164.493 37.1764 166.109 37.8762 167.386 39.2758C168.612 40.632 169.225 42.3923 169.225 44.5421L169.218 44.5349ZM165.907 44.6359C165.907 43.3085 165.625 42.1758 165.048 41.2236C164.377 40.0765 163.418 39.5066 162.177 39.5066C160.936 39.5066 159.919 40.0837 159.248 41.2236C158.671 42.1758 158.389 43.3301 158.389 44.6936C158.389 46.057 158.671 47.1537 159.248 48.1059C159.94 49.253 160.9 49.8229 162.148 49.8229C163.396 49.8229 164.327 49.2385 165.019 48.0698C165.611 47.1031 165.907 45.9561 165.907 44.6287V44.6359Z" fill="var(--fill-0, #DDBBAE)"/>
<path id="Vector_10" d="M179.606 40.2713C179.289 40.2136 178.95 40.1847 178.596 40.1847C177.471 40.1847 176.605 40.6103 175.992 41.4616C175.458 42.2119 175.191 43.157 175.191 44.304V51.8501H171.995L172.024 42.0027C172.024 40.3434 171.981 38.8356 171.901 37.4793H174.686L174.801 40.228H174.888C175.227 39.2829 175.754 38.5182 176.482 37.9483C177.197 37.4361 177.961 37.1764 178.791 37.1764C179.087 37.1764 179.354 37.198 179.592 37.2341V40.2785L179.606 40.2713Z" fill="var(--fill-0, #DDBBAE)"/>
<path id="Vector_11" d="M193.891 43.9721C193.891 44.542 193.855 45.0254 193.775 45.4222H184.195C184.231 46.8434 184.692 47.9255 185.587 48.6758C186.395 49.3467 187.441 49.6786 188.718 49.6786C190.139 49.6786 191.431 49.455 192.592 49.0005L193.09 51.2152C191.726 51.8068 190.125 52.1025 188.271 52.1025C186.042 52.1025 184.288 51.446 183.019 50.1331C181.749 48.8201 181.114 47.0598 181.114 44.8523C181.114 42.6447 181.706 40.8773 182.889 39.4416C184.13 37.905 185.803 37.133 187.917 37.133C190.031 37.133 191.56 37.905 192.621 39.4416C193.465 40.6608 193.891 42.1758 193.891 43.965V43.9721ZM190.846 43.1425C190.868 42.1975 190.659 41.375 190.226 40.6897C189.67 39.8023 188.826 39.3551 187.679 39.3551C186.633 39.3551 185.782 39.7879 185.14 40.6536C184.606 41.3461 184.288 42.1758 184.195 43.1353H190.846V43.1425Z" fill="var(--fill-0, #DDBBAE)"/>
</g>
<g id="Group_4">
<path id="Vector_12" d="M84.3579 19.6387C84.3579 21.3989 83.8312 22.7264 82.7707 23.6209C81.7896 24.4434 80.4045 24.8545 78.6009 24.8545C77.7064 24.8545 76.9417 24.8185 76.3068 24.7392V15.101C77.1437 14.9639 78.0382 14.899 79.0122 14.899C80.7291 14.899 82.0205 15.2741 82.8934 16.0171C83.8673 16.8612 84.3579 18.066 84.3579 19.6387ZM82.7058 19.682C82.7058 18.5422 82.4028 17.662 81.7968 17.0488C81.1908 16.4356 80.3107 16.1326 79.142 16.1326C78.6442 16.1326 78.2258 16.1687 77.8795 16.2336V23.556C78.0743 23.5849 78.4278 23.5993 78.94 23.5993C80.1448 23.5993 81.0682 23.2675 81.7247 22.5966C82.3812 21.9256 82.7058 20.9517 82.7058 19.6748V19.682Z" fill="var(--fill-0, #DDBBAE)"/>
<path id="Vector_13" d="M93.1376 21.1755C93.1376 22.2648 92.8273 23.1522 92.2069 23.852C91.5576 24.5662 90.6919 24.9269 89.617 24.9269C88.5421 24.9269 87.7557 24.5806 87.1353 23.8953C86.5221 23.2099 86.2119 22.337 86.2119 21.2909C86.2119 20.2449 86.5293 19.2998 87.1642 18.6C87.799 17.9003 88.6503 17.5539 89.7324 17.5539C90.8146 17.5539 91.6009 17.9003 92.2358 18.5856C92.8346 19.2565 93.1376 20.115 93.1376 21.1683V21.1755ZM91.5071 21.226C91.5071 20.5768 91.3628 20.014 91.0887 19.5523C90.7569 18.9896 90.2879 18.7083 89.6819 18.7083C89.0759 18.7083 88.571 18.9896 88.2391 19.5523C87.9577 20.0212 87.8207 20.5839 87.8207 21.2548C87.8207 21.9257 87.965 22.4669 88.2391 22.9286C88.5782 23.4913 89.0543 23.7726 89.6675 23.7726C90.2807 23.7726 90.7352 23.4841 91.0743 22.9141C91.3629 22.438 91.5071 21.8753 91.5071 21.226Z" fill="var(--fill-0, #DDBBAE)"/>
<path id="Vector_14" d="M104.904 17.7053L102.696 24.768H101.26L100.344 21.7019C100.113 20.9372 99.9258 20.1726 99.7743 19.4223H99.7455C99.6084 20.2014 99.4208 20.9588 99.1755 21.7019L98.2016 24.768H96.7444L94.6667 17.7053H96.2826L97.0834 21.0599C97.2782 21.8535 97.4369 22.6109 97.5596 23.3251H97.5884C97.7038 22.7335 97.8986 21.9833 98.1728 21.0743L99.1755 17.7053H100.452L101.412 21.0022C101.643 21.8101 101.83 22.582 101.982 23.3251H102.025C102.133 22.5965 102.292 21.8246 102.501 21.0022L103.36 17.7053H104.904Z" fill="var(--fill-0, #DDBBAE)"/>
<path id="Vector_15" d="M113.048 24.7679H111.475V20.7207C111.475 19.4726 110.999 18.8522 110.054 18.8522C109.585 18.8522 109.21 19.0254 108.922 19.3644C108.633 19.7107 108.489 20.1147 108.489 20.5765V24.7679H106.916V19.7251C106.916 19.1047 106.894 18.4338 106.858 17.7052H108.236L108.308 18.809H108.352C108.532 18.4627 108.806 18.1813 109.167 17.9577C109.592 17.6908 110.069 17.5609 110.588 17.5609C111.244 17.5609 111.793 17.7701 112.233 18.203C112.774 18.7224 113.048 19.5087 113.048 20.5403V24.7679Z" fill="var(--fill-0, #DDBBAE)"/>
<path id="Vector_16" d="M117.376 24.768H115.811V14.4661H117.376V24.768Z" fill="var(--fill-0, #DDBBAE)"/>
<path id="Vector_17" d="M126.618 21.1755C126.618 22.2648 126.308 23.1522 125.688 23.852C125.038 24.5662 124.173 24.9269 123.098 24.9269C122.023 24.9269 121.236 24.5806 120.616 23.8953C120.003 23.2099 119.693 22.337 119.693 21.2909C119.693 20.2449 120.01 19.2998 120.645 18.6C121.28 17.9003 122.131 17.5539 123.206 17.5539C124.281 17.5539 125.074 17.9003 125.709 18.5856C126.308 19.2565 126.611 20.115 126.611 21.1683L126.618 21.1755ZM124.988 21.226C124.988 20.5768 124.844 20.014 124.569 19.5523C124.245 18.9896 123.769 18.7083 123.163 18.7083C122.557 18.7083 122.052 18.9896 121.72 19.5523C121.438 20.0212 121.301 20.5839 121.301 21.2548C121.301 21.9257 121.446 22.4669 121.72 22.9286C122.059 23.4913 122.535 23.7726 123.148 23.7726C123.761 23.7726 124.216 23.4841 124.555 22.9141C124.844 22.438 124.988 21.8753 124.988 21.226Z" fill="var(--fill-0, #DDBBAE)"/>
<path id="Vector_18" d="M134.222 24.7681H132.816L132.7 23.9529H132.657C132.173 24.6022 131.488 24.9269 130.594 24.9269C129.93 24.9269 129.389 24.7105 128.985 24.2848C128.617 23.8953 128.429 23.4192 128.429 22.8492C128.429 21.9835 128.79 21.327 129.511 20.8725C130.233 20.418 131.25 20.1944 132.556 20.2016V20.0718C132.556 19.1411 132.065 18.6794 131.091 18.6794C130.392 18.6794 129.778 18.8525 129.252 19.1988L128.934 18.1672C129.591 17.7632 130.399 17.5539 131.358 17.5539C133.205 17.5539 134.128 18.5279 134.128 20.4757V23.08C134.128 23.787 134.165 24.3498 134.229 24.761L134.222 24.7681ZM132.592 22.337V21.2476C130.86 21.2188 129.995 21.695 129.995 22.6689C129.995 23.0368 130.096 23.311 130.298 23.4985C130.5 23.6861 130.759 23.7726 131.062 23.7726C131.409 23.7726 131.726 23.6644 132.022 23.448C132.318 23.2315 132.498 22.9502 132.563 22.6111C132.577 22.5317 132.592 22.4452 132.592 22.337Z" fill="var(--fill-0, #DDBBAE)"/>
<path id="Vector_19" d="M143.139 24.768H141.747L141.674 23.6354H141.631C141.184 24.5011 140.426 24.9268 139.366 24.9268C138.515 24.9268 137.808 24.5949 137.245 23.924C136.682 23.2531 136.401 22.3874 136.401 21.3197C136.401 20.1799 136.704 19.2491 137.317 18.5422C137.909 17.8857 138.637 17.5538 139.496 17.5538C140.441 17.5538 141.105 17.8713 141.487 18.5134H141.516V14.459H143.088V22.8563C143.088 23.5417 143.103 24.1765 143.146 24.7609L143.139 24.768ZM141.516 21.7886V20.6127C141.516 20.4107 141.501 20.2447 141.472 20.1149C141.386 19.7398 141.191 19.4224 140.903 19.1627C140.614 18.9029 140.26 18.7803 139.849 18.7803C139.265 18.7803 138.803 19.0111 138.471 19.48C138.139 19.949 137.966 20.5405 137.966 21.2691C137.966 21.9978 138.125 22.5316 138.45 22.9717C138.789 23.4334 139.25 23.6715 139.82 23.6715C140.333 23.6715 140.751 23.4767 141.061 23.0871C141.364 22.7264 141.516 22.3008 141.516 21.7958V21.7886Z" fill="var(--fill-0, #DDBBAE)"/>
<path id="Vector_20" d="M156.572 21.1755C156.572 22.2648 156.262 23.1522 155.641 23.852C154.992 24.5662 154.134 24.9269 153.052 24.9269C151.969 24.9269 151.19 24.5806 150.57 23.8953C149.957 23.2099 149.646 22.337 149.646 21.2909C149.646 20.2449 149.964 19.2998 150.599 18.6C151.234 17.9003 152.085 17.5539 153.167 17.5539C154.249 17.5539 155.035 17.9003 155.663 18.5856C156.262 19.2565 156.565 20.115 156.565 21.1683L156.572 21.1755ZM154.942 21.226C154.942 20.5768 154.797 20.014 154.523 19.5523C154.191 18.9896 153.722 18.7083 153.116 18.7083C152.51 18.7083 152.005 18.9896 151.674 19.5523C151.392 20.0212 151.255 20.5839 151.255 21.2548C151.255 21.9257 151.399 22.4669 151.674 22.9286C152.013 23.4913 152.489 23.7726 153.102 23.7726C153.715 23.7726 154.17 23.4841 154.509 22.9141C154.797 22.438 154.942 21.8753 154.942 21.226Z" fill="var(--fill-0, #DDBBAE)"/>
<path id="Vector_21" d="M165.013 24.7679H163.447V20.7207C163.447 19.4726 162.971 18.8522 162.019 18.8522C161.55 18.8522 161.175 19.0254 160.886 19.3644C160.598 19.7035 160.453 20.1147 160.453 20.5765V24.7679H158.881V19.7251C158.881 19.1047 158.866 18.4338 158.823 17.7052H160.201L160.273 18.809H160.316C160.504 18.4627 160.771 18.1813 161.131 17.9577C161.557 17.6908 162.033 17.5609 162.56 17.5609C163.216 17.5609 163.765 17.7701 164.205 18.203C164.746 18.7224 165.02 19.5087 165.02 20.5403V24.7679H165.013Z" fill="var(--fill-0, #DDBBAE)"/>
<path id="Vector_22" d="M175.581 18.8813H173.85V22.3153C173.85 23.1882 174.16 23.621 174.766 23.621C175.047 23.621 175.278 23.5994 175.466 23.5489L175.509 24.7393C175.199 24.8547 174.795 24.9124 174.29 24.9124C173.669 24.9124 173.186 24.7248 172.84 24.3424C172.486 23.9673 172.313 23.3324 172.313 22.4379V18.8741H171.282V17.6982H172.313V16.4068L173.85 15.9451V17.7054H175.581V18.8813Z" fill="var(--fill-0, #DDBBAE)"/>
<path id="Vector_23" d="M183.892 24.768H182.319V20.7497C182.319 19.4872 181.843 18.8523 180.898 18.8523C180.169 18.8523 179.671 19.2203 179.397 19.9561C179.354 20.1076 179.325 20.3024 179.325 20.5189V24.768H177.759V14.4661H179.325V18.7224H179.354C179.852 17.9505 180.559 17.561 181.475 17.561C182.124 17.561 182.665 17.7702 183.091 18.203C183.625 18.7369 183.892 19.5233 183.892 20.5693V24.768Z" fill="var(--fill-0, #DDBBAE)"/>
<path id="Vector_24" d="M192.469 20.9013C192.469 21.1827 192.448 21.4208 192.411 21.6155H187.701C187.722 22.3153 187.946 22.8492 188.379 23.2172C188.776 23.549 189.288 23.7149 189.923 23.7149C190.622 23.7149 191.257 23.6067 191.827 23.3831L192.072 24.4724C191.401 24.761 190.615 24.9053 189.699 24.9053C188.602 24.9053 187.744 24.5806 187.123 23.9386C186.496 23.2965 186.186 22.4307 186.186 21.3486C186.186 20.2665 186.474 19.3936 187.059 18.6866C187.665 17.9291 188.487 17.5539 189.526 17.5539C190.565 17.5539 191.315 17.9291 191.834 18.6866C192.253 19.2854 192.462 20.0284 192.462 20.9086L192.469 20.9013ZM190.969 20.4974C190.983 20.0285 190.875 19.6317 190.666 19.2926C190.392 18.8597 189.98 18.6361 189.418 18.6361C188.905 18.6361 188.487 18.8453 188.17 19.2781C187.91 19.6172 187.751 20.0213 187.701 20.4974H190.969Z" fill="var(--fill-0, #DDBBAE)"/>
</g>
</g>
</svg>
