<svg preserveAspectRatio="xMidYMid meet" width="1357" height="365" overflow="visible" style="display: block;" viewBox="0 0 1357 365" fill="none" xmlns="http://www.w3.org/2000/svg">
<g id="Vector">
<path d="M76.0185 227.767V354.979H0V34H141.653C167.771 34 188.751 37.0214 204.57 43.0431C220.388 49.0859 233.49 60.1643 243.874 76.2992C254.259 92.4342 259.461 110.374 259.461 130.117C259.461 168.661 240.82 196.315 203.516 213.079L263 355H179.588L130.11 227.788H76.0396L76.0185 227.767ZM76.0185 91.1333V172.962H122.295C137.398 172.962 148.372 171.913 155.218 169.794C162.063 167.675 168.172 162.975 173.522 155.694C178.872 148.414 181.547 140.063 181.547 130.642C181.547 121.221 178.872 113.71 173.522 106.66C168.172 99.61 162.337 95.2458 156.06 93.6092C149.762 91.9726 137.967 91.1333 120.652 91.1333H76.0185Z" fill="var(--fill-0, #F5A9BE)"/>
<path d="M1357 95.1449H1202.99V160.99H1324.06V221.421H1202.99V291.505H1357V355H1126V34H1357V95.1449Z" fill="var(--fill-0, #F5A9BE)"/>
<path d="M1156.98 177.2C1121.42 266.663 1048.53 365 987.204 365H982.751C932.969 362.35 921.425 318.944 921.425 297.682C921.425 218.861 1029.87 101.933 1029.87 66.4764C1029.87 55.8562 1023.65 51.4188 1015.65 51.4188C978.319 51.4188 885.888 186.937 846.762 256.043C829.247 292.593 810.95 326.83 796.284 354.317C794.511 357.639 791.071 359.658 787.294 359.658H711.301C705.983 359.658 702.649 353.917 705.35 349.354C731.877 304.58 835.198 126.602 835.198 71.776C835.198 59.3682 830.766 50.5145 818.315 50.5145C786.323 50.5145 713.433 162.122 669.876 238.314C650.25 278.293 628.155 317.451 608.318 355.011C606.798 357.892 603.823 359.658 600.552 359.658H522.808C517.827 359.658 514.641 354.38 517.068 350.027C537.833 312.866 612.327 177.2 635.203 102.775C641.429 82.4173 652.993 36.3402 616.548 36.3402C595.213 36.3402 566.766 52.3021 542.771 82.4173C545.43 186.054 426.324 364.979 341.89 364.979C277.884 364.979 269 305.632 269 271.962C269 164.772 372.996 10.6413 467.222 10.6413C499.235 10.6413 519.663 22.1658 531.228 40.7565C561.448 15.9619 598.779 0 632.565 0C692.118 0 714.34 31.9028 714.34 81.492C714.34 93.8998 712.567 105.403 710.774 117.811C748.105 60.2305 786.344 14.1743 830.787 10.6202C884.115 7.06614 901.884 50.4725 901.884 77.9379C901.884 96.5286 898.317 116.024 892.999 137.285C933.897 72.6383 977.454 9.73698 1043.21 9.73698C1079.66 9.73698 1105.42 29.232 1105.42 65.5511C1105.42 121.344 1021.88 196.632 1021.88 254.213C1021.88 267.504 1027.22 275.474 1037.89 275.474C1069 275.474 1100.11 232.951 1127.67 177.137H1157L1156.98 177.2ZM473.426 194.025C465.428 185.171 461.883 171.88 461.883 157.705C461.883 125.824 478.765 92.1543 504.553 64.6889C500.987 54.9519 492.989 48.748 479.652 48.748C422.758 48.748 354.32 180.733 354.32 241.847C354.32 264.875 365.864 275.517 382.767 275.517C408.555 275.517 445 246.285 473.426 194.025Z" fill="var(--fill-0, #F5A9BE)"/>
</g>
</svg>
