<?xml version="1.0" encoding="UTF-8"?>
<svg id="Layer_2" data-name="Layer 2" xmlns="http://www.w3.org/2000/svg" viewBox="0 0 643.19 482.92">
  <defs>
    <style>
      .cls-1 {
        fill: currentColor;
      }

      .cls-2 {
        fill: currentColor;
      }
    </style>
  </defs>
  <g id="Layer_1-2" data-name="Layer 1">
    <g>
      <g>
        <g>
          <path class="cls-2" d="M183.7,108.22c-.43.03-.67-.15-.74-.56-.04-.26.01-.52.16-.79,4.91-9.51,9.89-19,15.53-28.15,4.98-8.08,10.56-16.18,16.57-23.77-2.52.15-5.19,0-8.01-.44-2.82-.44-6.24-1.16-10.19-2.04-4.13-.92-7.52-1.53-10.02-1.89-2.51-.36-4.91-.45-7.19-.28-2.78.21-5.12.92-6.99,2.09-2.28,1.42-3.89,3.37-4.8,5.85-.91,2.48-1.03,5.35-.42,8.6.37,1.98,1.21,3.74,2.52,5.26,1.31,1.52,2.85,2.68,4.63,3.5,1.78.81,3.54,1.15,5.29,1.01,2.63-.2,4.66-1.54,6.12-4.03,1.46-2.48,1.84-6.17,1.14-11.07-.13-.92,0-1.65.39-2.19.4-.54.91-.84,1.56-.89.64-.05,1.22.16,1.73.61.51.45.83,1.11.95,1.98.06.41.07.72.05.92-.19,5.01-1.57,8.87-4.13,11.59-2.56,2.72-5.67,4.22-9.37,4.51-2.43.19-4.81-.13-7.13-.98-2.33-.84-4.32-2.14-5.96-3.88-1.65-1.75-2.67-3.82-3.07-6.21-.46-2.8.15-5.51,1.86-8.1,1.71-2.6,4.19-4.98,7.41-7.15,4.04-2.73,8.73-4.32,14-4.7,3.68-.27,7.27-.03,10.76.72,3.49.74,7.67,1.83,12.27,3.38,3.47,1.17,6.13,2,7.91,2.3,1.12.19,2.17.26,3.16.2,3.12-.18,6.38-1.15,9.83-2.92.38-.17.72-.27,1.01-.28.59-.03,1.09.15,1.48.54.39.39.62.87.68,1.43.07.61-.11,1.19-.52,1.72-.41.54-1.07.96-1.92,1.18-.88.22-1.85.33-2.79.38-1.43.08-2.93.03-4.49-.14-1.56-.17-2.47-.27-2.72-.31-1.06-.13-1.59-.19-2.65-.31-5.06,6.31-9.53,13.22-13.34,20.71-4.8,9.42-8.91,19.14-12.7,28.92-.27.74-1.03,1.16-2.26,1.25-.19.01-.64.04-1.36.07-.72.03-1.35.18-1.91.46-.56.28-1.01.71-1.35,1.3-.23.38-.56.59-.98.62Z"/>
          <path class="cls-2" d="M211.83,99.87c-.27-2.04.87-4.49,3.46-7.32.43-.49.65-.73,1.08-1.22,1.53-1.69,2.73-3.1,3.61-4.23.88-1.13,1.54-2.25,1.99-3.36.15-.37.2-.76.15-1.17-.09-.71-.46-1.31-1.13-1.79-.67-.47-1.34-.69-2.02-.65-.39.02-.74.17-1.04.45-1.07,1.25-2.5,3.08-4.31,5.51-1.8,2.43-3.45,4.77-4.93,7.03-.2-.2-.3-.3-.5-.51,3.18-4.87,4.79-7.31,8.05-12.17.29-.43.39-.95.32-1.56-.04-.36-.31-1.1-.71-2.2-.55-1.48-.84-2.6-.92-3.26-.1-.82.11-1.5.63-2.04.52-.54,1.15-.84,1.88-.88.68-.04,1.31.15,1.88.58.57.43.91,1.13,1.03,2.1.05.41-.05.99-.23,1.71-.24.96-.34,1.81-.29,2.41.03.35.23.69.56,1.01.33.32.82.7,1.45,1.11.87.57,1.6,1.1,2.1,1.62.5.51.79,1.13.88,1.84.18,1.53-.14,3.04-.95,4.53-.81,1.49-2.04,3.23-3.68,5.23-1.05,1.3-1.8,2.31-2.26,3.03-.46.72-.66,1.37-.59,1.93.05.36.18.63.39.82.6.58,1.29.85,2.05.8,2.62-.16,6.42-3.7,11.53-10.61.21.08.32.12.53.2-2.5,4.35-5.11,7.91-7.84,10.7-2.73,2.78-5.15,4.24-7.29,4.37-1.19.07-2.24-.3-3.17-1.11-.98-.86-1.54-1.83-1.68-2.9Z"/>
          <path class="cls-2" d="M226.88,100.42c-.13-1.07.06-2.29.57-3.66.51-1.37,1.25-3.03,2.23-4.98.3-.63.45-.95.76-1.58.2-.37.41-.82.64-1.35.23-.53.5-1.13.81-1.82,1.72-3.64,2.91-6.06,3.56-7.28.45-.79,1.16-1.21,2.13-1.26.63-.03,1.18.13,1.66.5.48.36.75.85.81,1.46.07.66-.1,1.37-.5,2.11-.32.58-1.38,1.89-3.14,3.93-1.93,2.25-3.4,4.15-4.4,5.67-1.01,1.52-1.44,2.84-1.31,3.97.07.61.35,1.14.83,1.57.59.53,1.29.78,2.1.74,2.62-.14,6.15-3.23,10.69-9.25.21.08.32.12.53.21-2.3,3.86-4.81,7.13-7.53,9.81-2.72,2.68-5.04,4.08-6.99,4.19-1,.06-1.82-.28-2.48-.94-.53-.53-.86-1.21-.96-2.03ZM240.69,68.75c.66-.47,1.34-.72,2.02-.75.59-.03,1.14.13,1.67.46.84.53,1.32,1.38,1.43,2.55.11,1.12-.14,2.24-.76,3.35-.41.79-.94,1.4-1.61,1.85-.66.44-1.33.68-2.01.71-.53.03-1.08-.1-1.65-.38-.79-.53-1.25-1.38-1.37-2.55-.13-1.17.12-2.3.67-3.35.41-.78.94-1.42,1.6-1.89Z"/>
          <path class="cls-2" d="M243.35,96.4c-.29-2.76.33-6.15,1.9-10.18,1.57-4.03,3.73-7.87,6.5-11.53,1.23-1.56,1.84-2.34,3.08-3.9,2.62-3.39,4.95-6.25,6.99-8.59,2.04-2.33,4.24-4.49,6.6-6.46.78-.69,1.65-1.05,2.58-1.09.89-.03,1.64.24,2.25.81.61.57.95,1.27,1.01,2.08.09,1.18-.45,2.14-1.62,2.9-4.89,3.03-8.78,5.73-11.7,8.1-2.93,2.37-5.4,4.96-7.42,7.76-1.68,2.33-3.03,4.88-4.07,7.64-1.03,2.77-1.44,5.17-1.23,7.22.17,1.69.79,3.03,1.84,3.92.86.73,1.93,1.07,3.13,1.02,1.72-.07,3.38-.96,5-2.67-.29-1.01-.46-1.8-.51-2.36-.23-2.4.15-5.6,1.14-9.59.72-2.18,1.89-3.2,3.37-2.98.97.15,1.7.57,2.15,1.19.44.63.65,1.37.63,2.25-.16,2.67-.98,5.45-2.45,8.33-.16.88-.22,1.57-.17,2.08.12,1.38.69,2.05,1.69,2.01,1-.04,2.28-.74,3.85-2.1,1.56-1.36,2.95-2.94,4.15-4.72.16.21.24.31.4.53-1.42,2.15-3.12,4.13-5.13,5.95-2,1.82-3.76,2.76-5.29,2.82-.48.02-.98-.09-1.47-.33-.45-.22-.92-.63-1.4-1.18-1.64,1.97-3.37,3.55-5.18,4.76-1.82,1.21-3.51,1.85-5.08,1.92-.71.03-1.47-.11-2.27-.43-1.9-.84-3-2.55-3.27-5.16Z"/>
          <path class="cls-2" d="M270.29,95.12c-.14-1.64.11-3.39.75-5.26.64-1.87,1.63-3.68,2.85-5.4,1.57-2.21,3.43-4.12,5.6-5.59,2.17-1.47,4.16-2.23,5.95-2.28,1.36-.04,2.43.3,3.2.99.56.5.88,1.21.94,2.13.08,1.23-.28,2.67-1.09,4.33-.8,1.66-1.91,3.2-3.33,4.62-1.41,1.42-2.98,2.47-4.71,3.13-.23.11-.56.17-.99.18-.72.02-1.31-.2-1.78-.68-.47-.47-.73-1.02-.78-1.63-.04-.56.1-1.03.43-1.4.33-.37.83-.56,1.51-.58,2.21-.07,4.05-.49,5.51-1.27,1.46-.78,2.52-1.72,3.17-2.81.65-1.09.94-2.18.87-3.25-.06-.92-.4-1.74-1.03-2.28-.46-.4-1.04-.59-1.57-.57-1.02.03-2.18.6-3.48,1.71-1.3,1.11-2.56,2.52-3.79,4.19-1,1.36-1.8,2.85-2.37,4.46-.57,1.61-.8,3.1-.69,4.48.1,1.28.52,2.34,1.26,3.19,1.16,1.3,2.4,1.92,3.74,1.88,1.19-.04,2.44-.52,3.73-1.45,1.3-.93,2.94-2.32,4.92-4.17,2.07-1.94,3.85-3.46,5.32-4.55,1.47-1.08,2.97-1.77,4.5-2.06.19-.05.45-.09.79-.09.87-.02,1.53.2,1.99.65.46.45.71,1.04.75,1.75.04.77-.19,1.46-.71,2.09-.52.62-1.25.95-2.21.97-2.3.05-4.44.5-6.39,1.37-1.96.87-3.97,2.04-6.01,3.53-.27.21-.59.45-.95.72-.36.27-.73.56-1.09.88-1.95,1.49-3.53,2.61-4.76,3.37-1.23.75-2.44,1.15-3.63,1.19-1.05.03-2.07-.27-3.08-.9-2.01-1.27-3.13-3.12-3.33-5.58Z"/>
          <path class="cls-2" d="M323.98,86.55c-.11-3.32.62-6.95,2.22-10.86,1.6-3.92,3.86-7.79,6.8-11.63,4.45-5.77,9.62-10.58,15.49-14.42,5.87-3.83,11.28-5.7,16.16-5.62,3.14.05,5.81.97,7.98,2.76,2.52,2.08,3.76,4.81,3.74,8.13-.02,2.51-.71,5.15-2.05,7.93-1.34,2.78-3.17,5.46-5.39,8.02-2.6,2.99-5.34,5.48-8.27,7.38-2.92,1.9-5.54,2.84-7.86,2.82-2.27-.02-3.98-1.04-5.12-3.04-.55-.98-.83-2.03-.85-3.15-.04-2.66,1.14-5.62,3.57-8.87,2.43-3.25,5.46-6.08,9.09-8.48.64-.45,1.33-.67,2.07-.66.74.01,1.34.28,1.81.8.47.52.7,1.11.7,1.78,0,.46-.13.91-.4,1.34-.27.43-.67.79-1.21,1.09-4.12,2.29-7.52,4.51-10.23,6.65-2.71,2.15-4.04,4.24-4.01,6.29,0,.72.27,1.57.83,2.31.46.6,1.22.93,2.05.94,1.65.02,3.8-.97,6.49-2.96,2.68-1.98,5.31-4.48,7.9-7.44,2.38-2.72,4.36-5.47,5.9-8.25,1.54-2.78,2.32-5.19,2.33-7.24.01-1.74-.58-3.05-1.69-3.95-1.33-1.07-2.97-1.67-4.91-1.7-3.53-.06-7.67,1.51-12.36,4.72-4.7,3.22-9.11,7.35-13.23,12.31-3.76,4.53-6.8,9.2-9.07,14.01-2.27,4.81-3.33,9-3.23,12.58.11,3.89,1.65,6.52,4.6,7.9.72.36,1.66.54,2.8.54,3,0,6.82-1.36,11.49-4.08,4.67-2.72,9.49-6.22,14.5-10.49.58-.81,1.17-1.71,1.77-2.69.6-.99,1.03-1.68,1.27-2.09.63-.96,1.38-1.43,2.25-1.42.53,0,.97.2,1.31.56.34.36.51.8.5,1.31,0,1.02-.59,1.96-1.75,2.81-.53.45-1.2.9-1.88,1.35-.77.51-1.53,1.14-2.28,1.76-.75.63-1.43,1.29-2.05,2-.91,1.11-1.78,2.34-2.61,3.68-.83,1.34-1.86,3.16-3.09,5.44-1.97,3.66-3.54,6.38-4.7,8.16-2.14,3.3-4.33,6.19-6.57,8.65-2.24,2.47-4.86,4.89-7.84,7.29-1.84,1.48-3.88,2.63-6.14,3.45-2.26.82-4.44,1.24-6.53,1.24-2.19,0-4.08-.45-5.68-1.39-1.6-.94-2.72-2.37-3.37-4.31-.21-.61-.34-1.28-.37-1.99-.1-2.25.81-4.38,2.73-6.39,1.92-2.01,4.37-3.62,7.34-4.84,2.97-1.21,5.88-1.82,8.72-1.81,2.51,0,4.61.49,6.29,1.47,1.01.57,1.52,1.39,1.54,2.46.01.66-.19,1.24-.6,1.72-.41.48-.93.72-1.54.72-.42,0-.95-.21-1.57-.62-3.12-2.31-6.12-3.46-8.96-3.46-1.75,0-3.31.43-4.68,1.28-1.37.85-2.41,1.95-3.14,3.31-.73,1.36-1.06,2.81-1,4.34.03.72.17,1.51.44,2.38.48,1.53,1.34,2.7,2.59,3.52,1.24.81,2.68,1.22,4.32,1.21,1.45,0,2.98-.33,4.6-.97,1.62-.64,3.14-1.58,4.56-2.72,1.21-.97,2.45-2.31,3.64-4.02,1.18-1.71,2.81-4.19,4.88-7.45,1.16-1.83,1.74-2.75,2.91-4.58,3.62-5.49,7.37-10.52,11.24-15.06-4.5,3.82-8.55,6.79-12.19,8.88-3.64,2.1-6.95,3.14-9.95,3.13-1.57,0-3.05-.34-4.45-1-5.5-2.61-8.38-6.87-8.58-12.8Z"/>
          <path class="cls-2" d="M366.72,95.98c0-1.74.69-3.71,2.09-5.91,1.4-2.2,3.26-4.43,5.59-6.68,2.18-2.1,4.44-3.74,6.76-4.91,2.32-1.17,4.31-1.73,5.96-1.69,1.02.03,1.77.31,2.24.75.57.53.92,1.25.91,2.17.55-.85.87-1.33.97-1.43.55-.75,1.28-1.11,2.21-1.08.63.02,1.19.24,1.66.66.47.42.71.94.69,1.56-.02.72-.3,1.42-.85,2.12-.35.5-.95,1.13-1.78,1.9-.84.77-1.4,1.3-1.7,1.6-2.21,1.98-3.94,3.71-5.19,5.18-1.25,1.48-1.88,2.8-1.9,3.98,0,.36.11.74.34,1.16.46.83,1.22,1.26,2.27,1.29,1.29.03,2.95-.66,4.99-2.08,2.04-1.42,4.34-3.5,6.92-6.22.2.13.3.19.5.32-2.75,3.69-5.63,6.75-8.67,9.16-3.03,2.42-5.51,3.6-7.46,3.55-1-.02-1.84-.43-2.48-1.21-.47-.57-.7-1.27-.69-2.09.01-1.18.46-2.55,1.34-4.11-1.89,2.1-3.75,3.76-5.57,4.97-1.82,1.21-3.44,1.81-4.87,1.78-1-.02-1.88-.37-2.64-1.05-1.09-.99-1.64-2.23-1.64-3.71ZM375.03,96.29c1.19.03,2.55-.66,4.07-2.06,1.52-1.4,3.52-3.44,6.02-6.14.68-1.12,1.02-1.68,1.71-2.79.71-1.21,1.07-1.81,1.79-3.02.31-.86.46-1.55.47-2.06.01-.77-.25-1.34-.62-1.71-.34-.33-.82-.56-1.45-.58-1.36-.04-3.1.66-5.23,2.09-2.12,1.43-3.99,3.15-5.6,5.16-1.12,1.36-2,2.69-2.63,4.01-.63,1.32-.95,2.54-.96,3.66,0,.97.28,1.85.85,2.62.43.52.95.79,1.57.8Z"/>
          <path class="cls-2" d="M394.86,97.43c.05-2.04.9-4.34,2.58-6.9,1.68-2.55,3.96-5.57,6.87-9.05.84-1.01,1.27-1.52,2.12-2.53-.39.04-.98.13-1.76.28-.78.15-1.49.22-2.12.19-.34-.01-.63-.14-.86-.37-.24-.24-.35-.54-.34-.89.01-.41.14-.74.39-.98.25-.25.54-.36.88-.35.73.03,1.77.16,3.12.42.7.12,1.04.18,1.74.29.61-.79,2.19-2.87,4.6-6.19,2.17-2.99,3.82-5.15,4.79-6.33.99-1.19,2.09-1.83,3.32-1.78.69.03,1.24.26,1.67.69.42.43.62.97.59,1.64-.04.92-.57,1.87-1.59,2.85-.31.29-1.22,1.02-2.73,2.18-3.23,2.47-5.87,4.82-7.94,7.05.34-.04.99-.12,1.94-.23.95-.12,1.82-.16,2.59-.13.34.01.63.15.86.42.23.27.34.6.32,1.01-.01.36-.15.65-.4.87-.25.22-.55.32-.89.31-.78-.03-1.95-.22-3.47-.6-.96-.23-1.66-.4-2.1-.46-.45.53-.68.8-1.14,1.34-2.68,3.22-4.73,5.99-6.17,8.29-1.44,2.3-2.17,4.22-2.22,5.75-.02.77.18,1.44.59,2.01.41.58,1.05.88,1.91.91,1.34.05,3.05-.62,5.16-2,2.11-1.38,4.48-3.47,7.15-6.28.2.1.3.15.5.25-2.89,3.67-5.87,6.74-8.93,9.2-3.07,2.47-5.59,3.68-7.58,3.61-.95-.03-1.73-.39-2.33-1.07-.79-.89-1.17-2.03-1.13-3.41Z"/>
          <path class="cls-2" d="M420.13,98.83c.07-1.48.66-3.01,1.79-4.6,1.13-1.59,2.76-3.53,4.9-5.84,1.27-1.32,2.24-2.4,2.92-3.24.67-.84,1.02-1.51,1.05-2.02.01-.26-.05-.46-.19-.62-.18-.21-.42-.33-.71-.34-.53-.03-1.25.31-2.16,1.01-.91.7-2.15,1.81-3.72,3.32-3.44,3.37-7.58,8.11-12.34,14.21-.75.94-1.62,1.39-2.62,1.36-.62-.02-1.15-.25-1.59-.67-.44-.43-.65-.95-.63-1.56.02-.46.17-.94.48-1.44.56-1.05,1.12-1.95,1.67-2.7.55-.75,1.89-2.51,4.05-5.29,2.15-2.78,5.36-6.97,9.7-12.56,1.33-1.75,2-2.63,3.34-4.38.88-1.14,2.9-3.72,6.08-7.73,3.18-4.01,5.39-6.65,6.6-7.92.89-.88,1.83-1.29,2.82-1.23.64.03,1.16.27,1.56.7.4.43.57.98.53,1.64-.05.82-.39,1.59-1.03,2.32-.32.39-1.34,1.29-3.04,2.68-.47.44-1.68,1.51-3.61,3.23-1.94,1.72-3.92,3.58-5.95,5.58-2.03,2-3.89,3.99-5.59,5.96-.26.3-2.13,2.59-5.58,6.89-3.44,4.3-5.17,7.28-5.24,8.91-.01.36.08.54.27.55.38.02,1.09-.52,2.11-1.6,1.03-1.08,2.32-2.59,3.9-4.44,1.6-1.87,2.72-3.1,3.28-3.69,2.44-2.55,4.36-4.38,5.75-5.49,1.39-1.11,2.62-1.64,3.69-1.59.78.04,1.46.39,2.06,1.02.45.48.67,1.11.63,1.87-.06,1.07-.55,2.31-1.48,3.73-.92,1.41-2.23,3.15-3.86,5.22-1.4,1.76-2.44,3.2-3.14,4.26-.7,1.07-1.07,1.96-1.1,2.67-.02.36.09.67.31.94.32.37.81.57,1.48.61,1.43.07,3.33-.63,5.72-2.1,2.38-1.47,4.88-3.51,7.5-6.14.22.13.34.2.56.34-3.21,3.51-6.46,6.47-9.77,8.86-3.31,2.4-5.97,3.55-8.02,3.46-1.05-.05-1.88-.47-2.52-1.26-.63-.8-.92-1.75-.87-2.88Z"/>
          <path class="cls-2" d="M438.33,96.95c.09-1.58.6-3.27,1.53-5.06.93-1.79,2.12-3.53,3.58-5.18,1.86-2.1,3.98-3.78,6.33-5.06,2.35-1.27,4.42-1.85,6.22-1.75,1.16.07,2.13.49,2.91,1.25.54.55.77,1.38.69,2.5-.1,1.27-.61,2.66-1.55,4.17-.94,1.51-2.22,2.89-3.86,4.14-1.64,1.26-3.46,2.16-5.47,2.71-.25.09-.59.12-1.02.1-.67-.04-1.19-.31-1.57-.82-.38-.51-.55-1.07-.51-1.68.04-.56.25-1.03.63-1.42.39-.39.94-.56,1.66-.52,2.17.12,4.02-.14,5.56-.79,1.54-.65,2.71-1.5,3.49-2.55.78-1.05,1.21-2.11,1.29-3.19.07-.92-.15-1.67-.64-2.27-.36-.43-.83-.67-1.41-.7-1.02-.06-2.23.39-3.64,1.36-1.4.97-2.89,2.25-4.37,3.86-1.2,1.3-2.2,2.72-2.99,4.21-.8,1.49-1.24,2.93-1.32,4.3-.08,1.22.16,2.35.72,3.34.75,1.32,1.93,2.03,3.46,2.11,1.67.1,3.68-.53,6.03-1.87,2.35-1.34,4.88-3.26,7.58-5.75.16.19.24.29.4.49-2.45,2.97-5.38,5.59-8.78,7.87-3.4,2.28-6.39,3.35-9.01,3.2-1.38-.08-2.55-.5-3.5-1.27-1.78-1.43-2.6-3.34-2.46-5.73Z"/>
          <path class="cls-2" d="M463.28,100.41c.16-2.04,1.8-4.29,4.95-6.74.53-.43.79-.64,1.32-1.06,1.86-1.46,3.35-2.69,4.46-3.69,1.11-1,2-2.01,2.67-3.04.22-.34.36-.72.39-1.13.06-.71-.19-1.35-.75-1.9-.56-.55-1.18-.85-1.86-.9-.39-.03-.76.08-1.12.31-1.31,1.09-3.12,2.71-5.41,4.86-2.29,2.15-4.4,4.24-6.34,6.27-.16-.23-.23-.34-.39-.56,4.16-4.38,6.26-6.56,10.49-10.91.37-.38.59-.88.64-1.49.03-.36-.08-1.12-.25-2.25-.24-1.53-.29-2.66-.24-3.32.07-.81.42-1.46,1.04-1.93.63-.47,1.31-.68,2.04-.63.68.05,1.26.32,1.74.81.47.49.67,1.23.58,2.19-.04.41-.26.97-.59,1.65-.44.92-.72,1.74-.79,2.33-.04.34.09.71.35,1.06.26.35.66.79,1.21,1.28.75.67,1.35,1.29,1.74,1.85.39.57.55,1.21.48,1.92-.14,1.53-.77,2.97-1.89,4.32-1.12,1.36-2.7,2.91-4.73,4.66-1.31,1.14-2.26,2.03-2.87,2.69-.61.65-.94,1.26-.98,1.82-.03.36.04.64.22.86.47.65,1.09,1,1.86,1.05,2.62.18,7.12-2.81,13.63-8.94.19.11.29.16.48.27-3.39,3.95-6.72,7.12-10.01,9.5-3.29,2.38-5.99,3.5-8.13,3.36-1.19-.08-2.15-.58-2.89-1.5-.78-.97-1.13-1.99-1.05-3.06Z"/>
          <path class="cls-2" d="M478.05,102.88c.1-1.07.54-2.24,1.34-3.52.79-1.28,1.88-2.81,3.25-4.61.43-.58.65-.87,1.08-1.46.27-.34.58-.75.92-1.24.34-.49.73-1.05,1.18-1.68,2.46-3.35,4.15-5.58,5.04-6.69.61-.72,1.4-1.05,2.37-.97.63.05,1.14.28,1.54.7.4.42.56.93.5,1.54-.07.66-.38,1.33-.94,2-.44.53-1.77,1.68-3.93,3.46-2.38,1.96-4.23,3.64-5.54,5-1.32,1.36-2.02,2.61-2.13,3.72-.06.61.11,1.16.49,1.65.47.6,1.11.93,1.92.99,2.62.2,6.77-2.38,12.53-7.71.19.11.29.16.48.27-3.09,3.49-6.26,6.38-9.52,8.67-3.26,2.29-5.85,3.36-7.8,3.22-1-.07-1.74-.5-2.25-1.24-.41-.59-.6-1.3-.52-2.11ZM498.33,73.54c.75-.38,1.47-.54,2.16-.48.59.05,1.11.27,1.56.67.72.62,1.02,1.52.89,2.69-.12,1.12-.61,2.18-1.45,3.19-.57.72-1.23,1.26-1.97,1.61-.75.35-1.46.5-2.14.44-.53-.04-1.05-.24-1.56-.59-.67-.62-.95-1.51-.83-2.68.12-1.17.59-2.24,1.36-3.2.57-.71,1.23-1.27,1.98-1.65Z"/>
          <path class="cls-2" d="M502.88,104.05c.17-1.47.91-2.99,2.25-4.55,1.34-1.55,3.2-3.41,5.59-5.56,1.52-1.36,2.65-2.41,3.37-3.17.72-.76,1.12-1.39,1.18-1.9.03-.25-.02-.46-.14-.63-.31-.28-.61-.44-.9-.47-1.89-.17-5.63,2.43-11.13,7.82-1.14,1.09-3.41,3.41-6.78,6.98-1.14,1.2-1.71,1.8-2.84,3-.7.77-1.46,1.11-2.27,1.05-.57-.05-1.05-.3-1.43-.77-.38-.47-.55-1-.48-1.61.06-.61.34-1.2.83-1.78.22-.29,1.04-1.25,2.46-2.88,2.41-2.73,4.16-4.77,5.22-6.12,1.47-1.87,2.89-3.79,4.27-5.73.72-.99,1.08-1.48,1.81-2.47.91-1.16,1.9-1.69,2.97-1.6.58.05,1.05.27,1.39.66.35.39.49.89.42,1.5-.07.61-.46,1.33-1.12,2.14-.57.71-1.35,1.48-2.34,2.27-.99.79-1.59,1.28-1.81,1.46-2.25,1.86-3.86,3.35-4.86,4.45-1.43,1.58-2.42,2.73-2.98,3.45-.56.72-.71,1.23-.45,1.5.21.22.77-.07,1.65-.87.88-.8,2.27-2.15,4.17-4.05,1.27-1.28,1.91-1.92,3.19-3.2,2.89-2.84,5.43-5.04,7.6-6.63,2.17-1.58,4.01-2.3,5.51-2.17.82.07,1.49.42,2.01,1.03.51.61.72,1.35.61,2.21-.14,1.17-.77,2.46-1.87,3.88-1.1,1.42-2.65,3.19-4.65,5.25-1.47,1.51-2.63,2.77-3.43,3.78-.8,1.01-1.23,1.84-1.31,2.5-.04.31.05.6.26.87.29.39.77.61,1.44.67,1.38.12,3.34-.51,5.88-1.9,2.54-1.39,5.23-3.36,8.09-5.92.15.2.22.3.37.5-3.39,3.28-6.79,6.01-10.22,8.19-3.43,2.18-6.17,3.19-8.26,3.01-1.09-.09-1.95-.58-2.57-1.45-.58-.82-.81-1.74-.7-2.75Z"/>
          <path class="cls-2" d="M503.64,129.14c.17-1.42.88-2.97,2.14-4.63,1.26-1.66,2.92-3.28,4.97-4.84,5.37-4.2,11.51-7,18.39-8.38,1.06-1.41,1.59-2.11,2.65-3.52,1.42-1.87,2.13-2.8,3.55-4.66-2.24,2.14-4.45,3.8-6.63,4.98-2.18,1.18-4.08,1.69-5.7,1.54-.95-.09-1.79-.48-2.52-1.16-.97-1.07-1.37-2.34-1.18-3.81.22-1.73,1.16-3.63,2.83-5.71,1.67-2.08,3.81-4.16,6.43-6.22,2.45-1.93,4.91-3.38,7.38-4.37,2.47-.99,4.53-1.4,6.18-1.23,1.02.1,1.73.44,2.16.92.51.57.77,1.29.65,2.15.47-.57.85-.99,1.14-1.27.4-.42.86-.73,1.35-.94.5-.2.97-.28,1.4-.24.58.06,1.05.32,1.4.77.35.45.48.98.39,1.59-.11.76-.51,1.49-1.14,2.2-.53.6-1.78,1.72-3.72,3.32-1.67,1.37-3.09,2.6-4.27,3.69-1.18,1.09-2.21,2.21-3.1,3.35-2.62,3.44-4.76,6.16-6.44,8.15,3.83-.55,7.71-.62,11.61-.21,3.61.38,7.03,1.13,10.24,2.26.78.29,1.33.69,1.66,1.19.33.5.45,1.05.35,1.66-.1.66-.45,1.24-1.04,1.74-.59.5-1.26.71-2.01.63-.38-.04-.77-.16-1.17-.36-5.89-2.96-11.19-4.67-15.84-5.14-1.76-.18-3.49-.19-5.19-.05-5.54,7.04-15.23,20.32-23.78,21.07-.7.06-1.68-.51-2.32-1.28-.7-.86-.97-1.93-.83-3.15ZM510.03,129.01c2.9.26,7.98-4.14,15.46-13.14.97-1.23,1.46-1.85,2.43-3.08-5.09,1-10.36,3.59-15.79,7.78-1.05.83-2,1.76-2.84,2.79-.84,1.03-1.31,1.98-1.41,2.84-.1.81.17,1.56.79,2.23.38.34.83.54,1.35.58ZM527.79,105.68c1.34.13,3.06-.56,5.18-2.08,2.12-1.51,4.24-3.37,6.35-5.58.9-1.19,1.82-2.54,2.77-4.04.37-.55.56-.82.93-1.37.22-.54.36-.99.41-1.35.09-.61-.02-1.08-.31-1.42-.51-.52-1.16-.81-1.94-.89-1.65-.17-3.67.45-6.07,1.86-2.4,1.41-4.53,3.17-6.39,5.28-1.86,2.11-2.9,4.05-3.14,5.83-.15,1.12.02,2.05.51,2.75.43.6,1.01.94,1.68,1.01Z"/>
          <path class="cls-2" d="M118.02,107.44c-.04-1.47.45-3.02,1.46-4.66,1.01-1.64,2.49-3.67,4.46-6.08,1.17-1.39,2.06-2.51,2.67-3.39.61-.87.91-1.56.9-2.06,0-.25-.08-.45-.23-.6-.2-.2-.44-.3-.73-.29-.53,0-1.22.39-2.07,1.14-.85.75-2.01,1.92-3.46,3.52-3.19,3.55-6.97,8.49-11.27,14.83-.68.98-1.52,1.48-2.51,1.51-.61.02-1.15-.17-1.62-.57-.46-.39-.71-.89-.73-1.5-.02-.46.11-.94.38-1.45.49-1.08.98-2,1.48-2.77.5-.77,1.71-2.6,3.65-5.48,1.95-2.88,4.85-7.23,8.78-13.03,1.21-1.82,1.81-2.72,3.03-4.54.8-1.18,2.63-3.86,5.51-8.03,2.89-4.17,4.91-6.92,6.02-8.25.83-.92,1.73-1.39,2.71-1.4.64,0,1.17.19,1.59.59.42.4.63.93.64,1.59,0,.81-.28,1.6-.87,2.36-.29.41-1.24,1.36-2.84,2.84-.44.46-1.56,1.6-3.37,3.42-1.81,1.82-3.65,3.79-5.53,5.89-1.88,2.11-3.59,4.19-5.14,6.24-.24.31-1.94,2.69-5.07,7.16-3.13,4.47-4.64,7.52-4.59,9.14.01.35.11.53.3.52.38,0,1.04-.58,1.99-1.72.95-1.13,2.13-2.7,3.57-4.63,1.46-1.95,2.49-3.24,3-3.86,2.25-2.67,4.03-4.6,5.34-5.79,1.3-1.19,2.49-1.79,3.55-1.8.77-.01,1.48.29,2.11.88.48.45.74,1.05.75,1.81.01,1.06-.39,2.32-1.22,3.78-.82,1.45-2,3.26-3.48,5.41-1.26,1.83-2.2,3.31-2.82,4.41-.62,1.1-.93,2-.91,2.71,0,.35.13.66.37.91.34.35.84.52,1.51.51,1.42-.02,3.26-.84,5.52-2.44,2.26-1.6,4.6-3.78,7.02-6.54.23.12.35.18.58.3-2.94,3.67-5.96,6.8-9.08,9.38-3.12,2.58-5.68,3.89-7.71,3.93-1.04.02-1.9-.34-2.58-1.09-.68-.75-1.04-1.67-1.06-2.79Z"/>
          <path class="cls-2" d="M135.94,104.42c-.02-1.57.37-3.27,1.17-5.1.8-1.83,1.86-3.63,3.19-5.35,1.7-2.19,3.69-3.99,5.93-5.4,2.24-1.41,4.26-2.11,6.04-2.12,1.16,0,2.14.35,2.96,1.05.57.51.86,1.32.85,2.43,0,1.27-.43,2.67-1.25,4.22-.83,1.55-2.01,2.99-3.54,4.34-1.53,1.35-3.28,2.36-5.23,3.03-.24.1-.57.16-1,.16-.67,0-1.2-.23-1.61-.71-.41-.48-.61-1.02-.61-1.63,0-.56.18-1.04.53-1.45.36-.41.9-.61,1.61-.62,2.15-.01,3.97-.39,5.45-1.13,1.49-.74,2.58-1.65,3.28-2.75.7-1.09,1.06-2.17,1.06-3.23,0-.91-.26-1.64-.78-2.2-.38-.4-.86-.6-1.44-.6-1.01,0-2.19.53-3.51,1.57-1.33,1.04-2.71,2.41-4.07,4.09-1.11,1.36-2,2.82-2.68,4.35-.69,1.52-1.03,2.97-1.02,4.34,0,1.22.32,2.32.94,3.26.84,1.25,2.05,1.88,3.57,1.87,1.66-.01,3.6-.76,5.85-2.23,2.24-1.48,4.61-3.53,7.12-6.17.17.18.26.27.43.46-2.23,3.09-4.95,5.86-8.16,8.33-3.21,2.47-6.1,3.71-8.7,3.74-1.37.01-2.56-.33-3.55-1.03-1.86-1.3-2.8-3.13-2.82-5.51Z"/>
          <path class="cls-2" d="M89.49,118.59c-.42.08-.68-.07-.79-.47-.07-.25-.05-.51.07-.79,3.69-9.92,7.48-19.84,11.95-29.48,3.95-8.52,8.51-17.14,13.55-25.29-2.47.44-5.12.6-7.96.49-2.84-.11-6.29-.42-10.3-.83-4.19-.43-7.6-.64-10.12-.71-2.52-.07-4.9.12-7.14.55-2.72.53-4.95,1.49-6.66,2.86-2.08,1.66-3.45,3.76-4.06,6.31-.61,2.54-.39,5.38.6,8.51.6,1.9,1.64,3.54,3.11,4.88,1.47,1.34,3.14,2.31,4.99,2.91,1.85.59,3.64.72,5.35.39,2.57-.5,4.42-2.06,5.57-4.67,1.15-2.61,1.09-6.28-.19-11.02-.24-.89-.2-1.62.13-2.2.33-.58.8-.93,1.43-1.05.63-.12,1.22.02,1.78.4.56.39.95,1,1.17,1.84.1.4.16.7.16.9.41,4.95-.5,8.91-2.7,11.88-2.21,2.97-5.1,4.8-8.71,5.51-2.38.47-4.76.42-7.16-.14-2.4-.56-4.52-1.6-6.35-3.13-1.83-1.53-3.1-3.45-3.77-5.76-.79-2.7-.5-5.43.88-8.19,1.38-2.75,3.56-5.38,6.48-7.89,3.68-3.15,8.12-5.26,13.28-6.24,3.61-.69,7.18-.86,10.71-.54,3.53.33,7.79.92,12.5,1.91,3.56.75,6.29,1.26,8.08,1.35,1.13.06,2.17,0,3.14-.16,3.05-.53,6.16-1.87,9.35-4.01.35-.21.68-.35.97-.4.58-.1,1.09.02,1.52.36.43.34.71.78.84,1.33.14.6.03,1.18-.31,1.75-.35.57-.95,1.07-1.76,1.38-.84.32-1.79.53-2.71.69-1.4.24-2.88.37-4.44.38-1.56.01-2.47.02-2.72,0-1.06,0-1.59,0-2.65,0-4.26,6.79-7.85,14.11-10.73,21.91-3.62,9.82-6.52,19.85-9.07,29.91-.18.76-.87,1.26-2.08,1.49-.19.04-.63.11-1.33.22-.7.11-1.31.33-1.83.67-.52.34-.91.81-1.17,1.44-.18.4-.48.64-.9.72Z"/>
        </g>
        <g>
          <path class="cls-1" d="M33.62,231.09v56.48H0v-142.5h62.64c11.55,0,20.83,1.34,27.82,4.02s12.79,7.6,17.38,14.76c4.59,7.16,6.89,15.13,6.89,23.89,0,17.11-8.25,29.39-24.74,36.83l26.31,63h-36.88l-21.88-56.48h-23.91ZM33.62,170.44v36.33h20.46c6.68,0,11.54-.47,14.56-1.41,3.03-.94,5.72-3.03,8.09-6.26,2.37-3.24,3.55-6.94,3.55-11.12s-1.18-7.52-3.55-10.65c-2.37-3.13-4.94-5.06-7.73-5.79-2.78-.73-8-1.1-15.66-1.1h-19.73Z"/>
          <path class="cls-1" d="M643.19,172.21h-67.86v29.23h53.35v26.83h-53.35v31.11h67.86v28.19h-101.78v-142.5h101.78v27.14Z"/>
          <g>
            <path class="cls-1" d="M151.48,293.72c-7.54,0-13.9-2.02-18.89-6.01-9.1-7.15-13.72-16.71-13.72-28.42,0-10.13,3.57-21.84,10.6-34.81,6.94-12.79,16.53-25.98,28.52-39.19,12.62-14.16,26-25.42,39.75-33.46,13.9-8.12,26.56-12.24,37.63-12.24,7.85,0,14.36,2.02,19.34,6.02,7.28,5.96,10.97,14.59,10.97,25.67,0,8.52-2.22,18.23-6.59,28.86-4.16,10.09-9.95,20.44-17.22,30.8,1.74,2.05,5.09,3.09,10,3.09,6.6,0,14.46-2.52,23.38-7.5,9.03-5.03,18.3-13.03,27.56-23.78l1.65-1.92,6,6.01-1.27,1.64c-22.98,29.5-45.2,44.45-66.03,44.45-5.56,0-11.04-1.07-16.31-3.19-11.72,13.28-24.41,23.96-37.74,31.75-13.89,8.12-26.55,12.24-37.63,12.24ZM232.16,155.74c-7.51,0-15.54,2.29-23.86,6.82-8.41,4.58-16.12,11.09-22.92,19.37-8.72,10.52-15.87,21.17-21.27,31.67-5.3,10.32-7.99,19.37-7.99,26.89,0,5.48,1.7,9.71,5.2,12.94,3.87,3.59,8.89,5.34,15.37,5.34,11.68,0,24.57-5.91,38.35-17.56-3.89-4.61-5.86-9.93-5.86-15.85,0-7.17,2.92-15.03,8.67-23.34,7.17-10.11,14.45-15.22,21.64-15.22,4.01,0,7.64,1.32,10.83,3.93,1.6-5.53,2.41-10.37,2.41-14.42,0-6.89-1.74-12.16-5.18-15.67-4.12-3.25-9.3-4.9-15.39-4.9Z"/>
            <path class="cls-1" d="M453.11,293.26c-7.03,0-12.99-2.39-17.7-7.1-4.73-5.06-7.11-11-7.11-17.7,0-9.33,3.93-19.44,11.68-30.04,7.52-10.28,18-22.47,31.14-36.22,8.63-9.26,14.82-16.26,18.88-21.38,4.69-5.91,5.68-9.2,5.68-10.92,0-.78-.27-1.32-.9-1.79l-.13-.1-.11-.11c-1.07-1.07-2.83-1.61-5.22-1.61-6.36,0-14.53,4.79-24.27,14.24-10.1,9.8-22.61,23.69-37.19,41.3l-14.66,17.87c-15.28,18.94-27.22,32.66-35.47,40.76-8.66,8.51-16.93,12.82-24.56,12.82-3.83,0-7.67-1.37-11.41-4.07-4.03-2.58-6.07-6.63-6.07-12.03,0-7.19,3.54-15.82,10.52-25.65,6.75-9.51,16.97-22.22,30.39-37.77,10.35-11.88,18.09-21.38,23.02-28.26,5.89-8.21,7.13-12.76,7.13-15.14,0-1.03-.3-1.57-.57-1.88-1.66-1.15-3.14-1.73-4.42-1.73-7.68,0-24.74,8.93-62.42,51.47-6.46,7.08-19.23,22.16-38,44.86l-16.05,19.26c-4.4,5.42-9.64,8.18-15.56,8.18-4.27,0-8.05-1.53-11.24-4.54-3.22-3.04-4.86-6.78-4.86-11.1s1.53-8.31,4.56-12.36c1.31-1.94,5.82-7.96,13.8-18.4,13.37-17.33,23.06-30.4,28.8-38.86,7.91-11.87,15.6-24.02,22.85-36.11l9.64-15.61c5.37-8.06,11.89-12.12,19.42-12.12,4.22,0,7.83,1.27,10.71,3.79,2.97,2.6,4.47,6.13,4.47,10.48s-1.94,9-5.93,14.65c-3.12,4.68-7.64,9.75-13.4,15.04-5.6,5.15-9.05,8.36-10.24,9.56-12.73,12.13-21.91,21.76-27.32,28.67-7.88,10-13.4,17.35-16.4,21.86-2.32,3.48-2.58,5.17-2.42,5.8.69-.23,2.64-1.23,6.81-5.53,4.95-5.1,12.87-13.86,23.53-26.04l17.87-20.62c16.2-18.34,30.7-32.99,43.11-43.57,12.76-10.87,24.3-16.38,34.3-16.38,5.77,0,10.78,1.9,14.88,5.66l.07.07c4.11,4.11,6.19,8.83,6.19,14.04,0,8.12-3.7,17.23-11.01,27.07-7.07,9.52-16.98,21.45-29.47,35.46-8.15,9.06-14.36,16.34-18.46,21.65-4.71,6.11-5.7,9.45-5.7,11.17,0,.76.23,1.26.81,1.72,1.09.64,2.06.97,2.81.97,1.18,0,3.87-.71,8.65-5.5,4.08-4.08,12.14-13.21,23.94-27.13,5.19-6.41,10-12,14.29-16.59l6.83-7.74c17.09-19.53,31.41-34.63,42.58-44.87,11.55-10.6,22.5-15.98,32.53-15.98,5.08,0,9.88,1.71,14.26,5.07l.08.07.08.07c4.46,4.12,6.71,9.01,6.71,14.56,0,7.46-3.06,15.91-9.09,25.12-5.83,8.9-14.36,20.22-25.36,33.67-8.74,10.84-15.26,19.36-19.37,25.29-3.83,5.53-5.77,10.09-5.77,13.56,0,1.2.52,2.31,1.6,3.38,2,2.01,4.91,2.98,8.89,2.98,8.66,0,20.34-4.73,34.71-14.06,14.58-9.47,29.45-22.82,44.21-39.69l1.53-1.75,6.76,5.79-1.53,1.78c-18.67,21.74-38.55,40.37-59.07,55.38-20.79,15.2-38.38,22.91-52.27,22.91Z"/>
          </g>
        </g>
      </g>
      <g>
        <path class="cls-2" d="M150.12,330.04c-4.47,0-7.93,3.46-7.93,8s3.46,8.04,7.93,8.04c2.34,0,4.91-1.19,6.77-3.05l3.46,3.76c-2.75,2.83-6.74,4.65-10.53,4.65-7.78,0-13.66-5.77-13.66-13.32s5.99-13.17,13.88-13.17c3.76,0,7.7,1.67,10.27,4.32l-3.42,4.17c-1.79-2.05-4.36-3.39-6.77-3.39Z"/>
        <path class="cls-2" d="M196.9,338.16c0,7.52-6.03,13.29-13.99,13.29s-13.99-5.73-13.99-13.29,6.03-13.21,13.99-13.21,13.99,5.66,13.99,13.21ZM174.94,338.16c0,4.58,3.68,8.15,8.04,8.15s7.89-3.57,7.89-8.15-3.54-8.08-7.89-8.08-8.04,3.5-8.04,8.08Z"/>
        <path class="cls-2" d="M214.8,325.13l7.59,15.93,7.56-15.93h6.55v26.05h-5.28v-17.57l-6.92,14.92h-3.83l-6.92-14.92v17.57h-5.32v-26.05h6.59Z"/>
        <path class="cls-2" d="M255.58,325.13v26.05h-5.88v-26.05h5.88Z"/>
        <path class="cls-2" d="M274.15,325.13l12.65,16.75v-16.75h5.58v26.05h-5.36l-12.62-16.71v16.71h-5.62v-26.05h5.36Z"/>
        <path class="cls-2" d="M323.05,338.05h5.1v10.01c-2.75,2.01-6.96,3.39-10.57,3.39-7.89,0-13.88-5.73-13.88-13.29s6.1-13.21,14.22-13.21c3.87,0,7.82,1.49,10.46,3.8l-3.31,4.21c-1.93-1.79-4.61-2.9-7.15-2.9-4.62,0-8.19,3.54-8.19,8.11s3.61,8.15,8.22,8.15c1.56,0,3.42-.56,5.1-1.41v-6.85Z"/>
        <path class="cls-2" d="M363.01,325.13v10.87h11.8v-10.87h5.88v26.05h-5.88v-10.27h-11.8v10.27h-5.88v-26.05h5.88Z"/>
        <path class="cls-2" d="M419.99,338.16c0,7.52-6.03,13.29-13.99,13.29s-13.99-5.73-13.99-13.29,6.03-13.21,13.99-13.21,13.99,5.66,13.99,13.21ZM398.03,338.16c0,4.58,3.68,8.15,8.04,8.15s7.89-3.57,7.89-8.15-3.54-8.08-7.89-8.08-8.04,3.5-8.04,8.08Z"/>
        <path class="cls-2" d="M437.89,325.13l7.59,15.93,7.56-15.93h6.55v26.05h-5.28v-17.57l-6.92,14.92h-3.83l-6.92-14.92v17.57h-5.32v-26.05h6.59Z"/>
        <path class="cls-2" d="M492.63,325.13v4.88h-13.96v5.66h12.58v4.88h-12.58v5.77h14.37v4.88h-20.25v-26.05h19.84Z"/>
      </g>
      <g>
        <g>
          <path class="cls-1" d="M59.27,336.28c-.79,0-1.31.29-1.31.86,0,2.09,6.64.9,6.64,5.44,0,2.57-2.27,3.89-5.08,3.89-2.11,0-4.3-.77-5.82-2.02l1.28-2.57c1.3,1.12,3.26,1.91,4.57,1.91.97,0,1.58-.36,1.58-1.03,0-2.14-6.64-.85-6.64-5.31,0-2.36,2-3.85,5.04-3.85,1.85,0,3.73.58,5.04,1.42l-1.24,2.61c-1.33-.76-3.02-1.35-4.07-1.35Z"/>
          <path class="cls-1" d="M79.83,333.74v2.63h-6.66v2.36h6.01v2.63h-6.01v2.38h6.84v2.63h-10.14v-12.62h9.96Z"/>
          <path class="cls-1" d="M96.25,338.17c0,2.97-1.85,4.7-5.08,4.7h-2.25v3.49h-3.29v-12.62h5.55c3.22,0,5.08,1.62,5.08,4.43ZM93.11,338.27c0-1.24-.77-1.91-2.11-1.91h-2.09v3.87h2.09c1.33,0,2.11-.68,2.11-1.96Z"/>
          <path class="cls-1" d="M111.18,333.74v2.72h-3.78v9.9h-3.29v-9.9h-3.74v-2.72h10.82Z"/>
          <path class="cls-1" d="M117.65,344.94c0,.92-.65,1.57-1.55,1.57s-1.53-.65-1.53-1.57.63-1.55,1.53-1.55,1.55.63,1.55,1.55Z"/>
        </g>
        <g>
          <path class="cls-1" d="M526.05,337.39c0-.68-.5-1.06-1.39-1.06-1.01,0-2.27.61-3.42,1.6l-1.26-2.43c1.62-1.19,3.37-1.89,5.19-1.89,2.5,0,4.32,1.31,4.32,3.31,0,1.37-1.01,2.79-2.38,4.21l-2.5,2.57h5.24v2.65h-9.47v-2.16l4.48-4.74c.68-.7,1.19-1.51,1.19-2.07Z"/>
          <path class="cls-1" d="M545.97,340.04c0,4.12-2,6.41-5.6,6.41s-5.6-2.29-5.6-6.41,1.98-6.39,5.6-6.39,5.6,2.29,5.6,6.39ZM538.14,340.04c0,2.83.68,3.96,2.23,3.96s2.21-1.13,2.21-3.96-.67-3.94-2.21-3.94-2.23,1.12-2.23,3.94Z"/>
          <path class="cls-1" d="M556.74,337.39c0-.68-.5-1.06-1.39-1.06-1.01,0-2.27.61-3.42,1.6l-1.26-2.43c1.62-1.19,3.37-1.89,5.19-1.89,2.5,0,4.32,1.31,4.32,3.31,0,1.37-1.01,2.79-2.38,4.21l-2.5,2.57h5.24v2.65h-9.47v-2.16l4.48-4.74c.68-.7,1.19-1.51,1.19-2.07Z"/>
          <path class="cls-1" d="M571.51,336.19c-1.96,0-2.94,1.19-2.9,3.15.59-.79,1.58-1.3,2.97-1.3,2.48,0,4.07,1.66,4.07,4.11,0,2.66-1.87,4.36-4.73,4.36-3.4,0-5.46-2.4-5.46-6.27s2.29-6.64,5.85-6.64c1.42,0,3.04.41,4.11,1.06l-1.26,2.36c-.72-.54-1.66-.83-2.65-.83ZM568.98,342.16c-.02.9.58,1.66,1.82,1.66,1.12,0,1.8-.59,1.8-1.69s-.63-1.64-1.75-1.64c-1.21,0-1.89.7-1.87,1.67Z"/>
        </g>
      </g>
      <g>
        <path class="cls-1" d="M345.48,450.35c-3.33-.74-7.77-.88-11.84.15-9.04,2.28-11.74,9.03-11.74,9.03.12,1.11.93.67,2.62.3,1.69-.37,6.54,1.84,6.54,1.84,0,0,7.06,1.91,12.43-3.09,5.36-5,8.6-5.64,8.6-5.64,0,0-2.55-1.69-6.62-2.59ZM335.19,460.5c-2.39,0-4.32-1.93-4.32-4.32,0-1.71.99-3.17,2.42-3.88.94-.14,1.8-.27,2.6-.39,2.06.33,3.63,2.11,3.63,4.26,0,2.39-1.94,4.32-4.33,4.32ZM327.54,459.25c-2.35-.88-4.36-.01-4.36-.01,0,0,2.01-4.51,8.62-6.61-.94.89-1.52,2.15-1.52,3.55,0,2.08,1.29,3.85,3.12,4.57-2.26-.12-4.1-.84-5.87-1.5ZM340.75,458.66c-.88.57-1.68.98-2.42,1.29,1.08-.9,1.77-2.25,1.77-3.77,0-1.97-1.15-3.66-2.82-4.44.86-.09,1.67-.15,2.47-.14,5.55.1,8.42,1.64,8.42,1.64-.57.04-2.24,1.12-4.05,2.5-.84.64-2.37,2.29-3.36,2.92Z"/>
        <path class="cls-1" d="M337.26,456.18c0,1.14-.93,2.07-2.07,2.07s-2.07-.93-2.07-2.07.93-2.07,2.07-2.07,2.07.93,2.07,2.07"/>
        <path class="cls-1" d="M289.12,450.06c-4.07-1.03-8.51-.89-11.84-.15-4.07.91-6.62,2.59-6.62,2.59,0,0,3.24.64,8.61,5.64,5.37,5,12.43,3.09,12.43,3.09,0,0,4.85-2.21,6.54-1.84,1.69.37,2.5.81,2.62-.3,0,0-2.7-6.75-11.74-9.03ZM287.57,460.06c-2.39,0-4.33-1.93-4.33-4.32,0-2.16,1.57-3.93,3.63-4.26.8.11,1.66.25,2.6.39,1.43.7,2.42,2.17,2.42,3.88,0,2.39-1.94,4.32-4.32,4.32ZM278.64,455.29c-1.81-1.38-3.47-2.46-4.05-2.5,0,0,2.87-1.54,8.42-1.64.8-.01,1.61.04,2.47.14-1.67.78-2.82,2.48-2.82,4.44,0,1.52.69,2.87,1.77,3.77-.75-.31-1.54-.72-2.43-1.29-.99-.63-2.53-2.28-3.36-2.92ZM295.22,458.81c-1.77.66-3.61,1.38-5.87,1.5,1.83-.71,3.13-2.48,3.13-4.57,0-1.4-.59-2.66-1.52-3.55,6.62,2.1,8.62,6.61,8.62,6.61,0,0-2.01-.87-4.36.01Z"/>
        <path class="cls-1" d="M285.5,455.74c0,1.14.93,2.07,2.07,2.07s2.07-.93,2.07-2.07-.93-2.07-2.07-2.07-2.07.93-2.07,2.07"/>
        <g>
          <path class="cls-1" d="M342.46,436.42s6.96-5.55,2.43-18.79c-4.08-11.14-11.8-13.68-14.45-20.4-2.6-6.6-4.79-14.2-18.63-13.56,1.88,1.07,4.02,2.01,5.29,2.01,2.17,0,3.65.39,4.71,1.57,1.07,1.18,1.09,3.28,1.36,4.61.24,1.18.68,2.17.68,2.17,0,0,.81,1.9,1.56,3.75,1.45,3.57-.62,4.96-.62,4.96,1.39-1.94-.5-6.42-1.41-7.67-.91-1.25-1.14-1.93-1.77-4.67-.63-2.73-2.64-3.25-2.64-3.25-.6-.16-2.89-.29-3.34-.45-8.01-2.85-7.33-4.64-11.03-4.75-1.9-.06-3.5.35-4.6.77-.43.24-.8.48-1.09.71,0,0-.01.01-.02.02h-.01c-.46.37-.76.71-.96.99-.35.48-.8.88-1.29,1.21-2.29,1.53-7.78,6.24-4.9,14.77,0,0,1.76,8.05,15.44,14.56,1.53.73,2.94,1.4,4.27,2.04-1.32,1.99-3.22,5.57-3.74,10.26-.25,2.28-.04,4.43.41,6.39-1.28-.86-2.62-1.88-4.02-3.07-14.03-11.93-22.18-10.33-25.05-10.11-2.87.22-16.25,3.97-14.67,16.07,1.7,13.02,16.07,10.88,20.38,11.25,3.81.32,12.46.62,22.64,6.43,4.41,1.98,9.06,1.28,13.01-.44.91-.39,14.56-8.71,24.59-5.07,10.03,3.64,12.13,11.25,8.71,18.53-3.42,7.28-18.88,11.01-31.5,5.54-15.1-6.54-21.74,1.12-23.51,4.2-1.76,3.09-.64,5.91,1.05,5.91,0,0,1.1.07,1.54-1.4.44-1.47.96-4.56,6.91-5.81,5.95-1.25,11.47,1.77,14.34,2.72,2.87.95,9.71,3.38,18.6,2.21,8.89-1.18,22.79-8.09,24.55-24.85.15-17.42-20.82-19.48-23.24-19.37ZM343.21,433.87c-2.11,3.19-5.75,2.68-5.75,2.68-2.94-.67-1.63-4.34.13-4.38,1.76-.03,5.75-1.57,6.64-2.97.29-.47,1.09,1.47-1.02,4.66ZM344.43,427.35c-1.63,2.97-7.06,3.45-7.06,3.45-1.53-.03-2.87-3.41-.28-4.75,3.67-.32,6.86-2.72,7.21-3.04.35-.32,1.76,1.37.13,4.34ZM342.08,416.72c.59-.85,2.02.61,2.41,2.29.38,1.68-.35,3.34-2.97,4.62-2.62,1.28-4.38.92-4.38.92,0,0-2.2-.03-2.97-1.03-.91-1.19-1.06-2.39,1.63-3.02,2.68-.63,5.69-2.94,6.28-3.79ZM341.19,413.44c.33.96.62,2.83-2.67,4.61-2.16,1.17-3.9,1.65-5.37,1.78-3.26.34-5.73-2.91-3.2-3.12,2.53-.21,6.52-3,7.78-4.63,1.27-1.64,3.12.4,3.45,1.37ZM336.94,411.16c-.59.89-1.51,1.69-2.43,2.33-1.91,1.34-4.35,1.95-5.85,2.3-.89.21-2.35.24-3.27-.42-1.37-.98-1.88-2.88-.14-3.18,0,0,4.97-.57,9.32-4.99.57-.58,4.18,1.21,2.36,3.96ZM320.85,427.28c-.27-2.39-.89-4.5-1.62-6.25,4.91,2.88,7.01,5.37,7.01,9.5,0,3.69-2.52,6.99-7.18,7.13,1.23-2.87,2.22-6.43,1.78-10.39ZM328.27,402.47c.57-.58,6.43,2.03,4.61,4.78-.59.89-2.37,1.84-3.81,2.5-2.13.97-4.2,1.71-6.31,1.71-.91,0-2.74-.16-3.67-.82-1.37-.98-1.88-2.88-.14-3.18,0,0,4.97-.57,9.32-4.99ZM311.83,402.9c.9-.82,2.97-.92,2.97-.92,0,0,1.05.39,1.68.7,1.43.68,3.64,2.61,4.18,2.84-.68.14-3.93,1-6.36.71-1.37-.17-2.37-1.08-2.76-1.77-.41-.66-.11-1.2.28-1.56ZM308.6,401.35c-2.42-.67-2.08-2.82-2.08-2.82.22-.98,3.74-.55,3.74-.55,1.25,2.61,2.73,3.02,2.73,3.02,0,0-1.96,1.03-4.38.36ZM314.94,395.15s1.39-.07,1.18,1.87c0,0-1.25-.35-1.46-.83-.21-.49.28-1.04.28-1.04ZM312.37,395.55c.79,2.86,3.75,3.42,3.75,3.42,2.37.59,2.86,2.3,4.34,3.78,1.48,1.48,3.68.69,3.68.69,0,0-1.61.99-3.19.39-1.58-.59-2.76-2.76-4.34-3.35-1.58-.59-4.09-1.66-4.44-3.06-.99-3.94-3.94-7.89-3.94-7.89,1.08.69,3.35,3.16,4.14,6.02ZM309.24,395c.24.88.43,1.34.43,1.34,0,0-3.35.65-4.19-.89-.84-1.53-.22-2.18-.02-2.4.86-.72,2.35-.33,2.63-.29,0,0,.91,1.34,1.15,2.23ZM307.26,391.36s-3.85-.25-3.46-3.06c0,0,2.59,1.48,3.46,3.06ZM306.66,413.69c-14.19-7.43-15.88-17.5-12.28-23.6,1.67-2.83,3.66-4.31,5.56-4.31,3.16,0,4.73,1.38,4.73,1.38,0,0-1.93-.53-3.75-.58-2.67-.07-6.28,2.22-6.9,7.78-.99,8.78,5.09,13.82,9.56,16.66,3.25,2.07,7.53,4.59,12.03,6.71l-2.76-1.08c-1.96-.93-3.76-1.68-6.2-2.96ZM310.53,425.2c.72-2.93,1.89-4.85,2.67-5.89.48-.63,1.09-1.35,1.09-1.35,0,0,.57.68,1.01,1.26.78,1.02,2,2.97,2.74,5.98.18.75.34,1.5.46,2.28-.88-1.4-2.44-2.33-4.21-2.33s-3.33.93-4.22,2.33c.12-.77.28-1.53.47-2.28ZM314.28,425.75c2.43,0,4.4,1.97,4.4,4.39s-1.97,4.4-4.4,4.4-4.4-1.97-4.4-4.4,1.97-4.39,4.4-4.39ZM318.56,432.67c-.32,2.41-1.17,5.16-2.86,8.52-.35.69-1.42,2.57-1.42,2.57,0,0-1.09-1.9-1.44-2.6-1.68-3.35-2.52-6.09-2.84-8.49.87,1.46,2.46,2.44,4.28,2.44s3.41-.98,4.28-2.44ZM359,466.53c-2.57,5.95-9.04,10.81-18.08,12.35-9.04,1.54-20.37-3.83-20.37-3.83,0,0-8.16-4.26-15.08-.96-6.92,3.3-6,7.12-6,7.12l-.14.21c-1.55-3.75,4.45-9.39,10.99-9.83,6.54-.44,7.87,2.35,18.26,4.56,10.39,2.21,17.93.25,24.6-5.84,5.45-4.98,3.32-13.42,3.04-15.3-.27-1.88,1.08-.55,1.47-2.07.39-1.52-7.08-10.61-18.92-10.75-11.84-.15-15.88,3.53-17.86,5.44-1.98,1.91-1.25,4.41-1.25,4.41,0,0-3.9,1.54-6.84,1.54s-5.66-1.47-5.66-1.47c2.94-2.8,1.18-6.54-1.91-7.35-3.09-.81-8.35-1.2-19.11-1.79-3.31-.18-11.21-1.1-14.81-5.62-1.85-2.25-3.42-6.44-1.48-9.39,6.05-9.19,19.22-5.04,21.86-3.93,2.65,1.1,4.93,2.11,12.22,8,3.23,2.62,4.86,4.74,5.53,5.74.08.18.15.36.23.53-5.24-3.44-17.73-7.5-22.68-7.5s-8.38,1.91-8.38,1.91c7.06-.3,16.4,1.76,25.22,6.25,2.96,1.5,5.54,2.45,7.77,3,.32.55.62,1.03.85,1.43.41,3.96-.91,3.93-1.76,3.99-1.09.08-1.92-2.01-.08-2.21,0,0-.98-.49-1.66.47-.68.95.23,2.76,2.04,2.73,1.74-.03,3.24-1.63,3.24-4.5h.04c0,2.87,1.37,4.59,3.36,4.56,1.81-.02,2.52-1.84,1.84-2.79-.68-.96-1.58-.47-1.58-.47,1.85.21,1.13,2.18,0,2.18-.99,0-2.26,0-1.85-3.96.13-.24.28-.51.45-.8,1.89-.02,3.35-.4,4.4-.91,2.76-1.34,25.05-8.7,36,.63,10.96,9.34,7.37,18.51,7.37,18.51,0,0-2.71-.25-5.29,5.71Z"/>
          <path class="cls-1" d="M314.27,432.13c1.14,0,2.07-.93,2.07-2.07s-.93-2.07-2.07-2.07-2.07.93-2.07,2.07.93,2.07,2.07,2.07Z"/>
        </g>
      </g>
      <g>
        <path class="cls-1" d="M204.02,3.35c0-1.59-.41-1.88-1.55-2.51v-.19h5.27v.19c-1.14.63-1.52.92-1.52,2.51v9.11c0,3.38-2.37,5.34-5.56,5.34s-5.34-1.86-5.34-4.25c0-1.45,1.01-2.39,2.27-2.39.51,0,.92.15,1.18.39-.7.46-1.21,1.11-1.21,2.34,0,1.74,1.26,2.97,3.09,2.97,2.39,0,3.36-1.79,3.36-4.52V3.35Z"/>
        <path class="cls-1" d="M213.47.83v-.19h5.27v.19c-1.14.63-1.55.92-1.55,2.51v11.5c0,1.59.41,1.88,1.55,2.51v.19h-5.27v-.19c1.14-.63,1.52-.92,1.52-2.51V3.35c0-1.59-.39-1.88-1.52-2.51Z"/>
        <path class="cls-1" d="M236.71,3.15c.22-.48.27-.6.27-.92,0-.51-.48-.82-1.55-1.4v-.19h4.54v.19c-1.06.75-1.4,1.11-2.08,2.56l-6.57,14.4h-.12l-6.57-14.4c-.65-1.45-.99-1.81-2.05-2.56v-.19h5.27v.19c-.99.43-1.3.72-1.3,1.23,0,.31.12.56.31,1.04l4.95,11.11,4.9-11.06Z"/>
        <path class="cls-1" d="M244.01,17.55h-4.54v-.19c1.06-.75,1.47-1.11,2.15-2.56l6.76-14.44h.12l6.76,14.44c.7,1.45.99,1.81,2.05,2.56v.19h-5.27v-.19c1.01-.44,1.33-.73,1.33-1.23,0-.31-.1-.56-.34-1.04l-1.45-3.12h-7.44l-1.4,3.09c-.22.46-.29.72-.29,1.01,0,.51.48.77,1.55,1.28v.19ZM244.62,10.98h6.52l-3.28-7.08-3.24,7.08Z"/>
        <path class="cls-1" d="M276.31.64h4.18v.19c-1.13.63-1.52.92-1.52,2.51v11.5c0,1.59.39,1.88,1.52,2.51v.19h-5.24v-.19c1.13-.63,1.52-.92,1.52-2.51V2.19l-6.69,15.63h-.1l-6.76-15.63v12.63c0,1.59.65,1.91,1.81,2.54v.19h-4.78v-.19c1.14-.63,1.79-.94,1.79-2.54V3.35c0-1.59-.39-1.88-1.52-2.51v-.19h4.52l5.72,13.21,5.56-13.21Z"/>
        <path class="cls-1" d="M297.67.83v-.19h4.81v.19c-1.13.63-1.76.94-1.76,2.54v7.71c0,4.42-2.8,6.72-6.64,6.72-4.78,0-7.01-2.63-7.01-6.72V3.35c0-1.59-.41-1.88-1.55-2.51v-.19h5.29v.19c-1.13.63-1.55.92-1.55,2.51v7.44c0,3.82,1.86,5.73,4.95,5.73s5.29-1.69,5.29-5.7V3.37c0-1.59-.68-1.91-1.84-2.54Z"/>
        <path class="cls-1" d="M307.29,17.55v-.19c1.14-.63,1.52-.92,1.52-2.51V3.35c0-1.59-.39-1.88-1.52-2.51v-.19h5.27v.19c-1.14.63-1.55.92-1.55,2.51v6.26l7.37-6.86c.34-.34.48-.6.48-.89,0-.39-.43-.65-1.04-1.01v-.19h5v.19c-1.59.75-2.56,1.45-3.7,2.51l-4.64,4.3,6.09,7.2c1.04,1.21,1.98,2.05,3.02,2.51v.19h-5.36v-.19c.41-.24.75-.44.75-.8,0-.34-.17-.56-.58-1.09l-5.48-6.43-1.91,1.71v4.08c0,1.59.41,1.88,1.55,2.51v.19h-5.27Z"/>
        <path class="cls-1" d="M339.67.64c.72,0,1.09-.07,1.45-.15l.8,4.54h-.22c-1.4-2.1-2.2-3.5-4.44-3.5h-2.39v13.29c0,1.59.43,1.91,1.76,2.54v.19h-5.7v-.19c1.33-.63,1.74-.94,1.74-2.54V1.53h-2.37c-2.27,0-3.07,1.4-4.47,3.5h-.22l.8-4.54c.36.07.73.15,1.45.15h11.81Z"/>
        <path class="cls-1" d="M346.86.83v-.19h5.27v.19c-1.14.63-1.55.92-1.55,2.51v11.5c0,1.59.41,1.88,1.55,2.51v.19h-5.27v-.19c1.13-.63,1.52-.92,1.52-2.51V3.35c0-1.59-.39-1.88-1.52-2.51Z"/>
        <path class="cls-1" d="M378.33,3.03c.27-.39.34-.75.34-.94,0-.46-.46-.77-1.23-1.26v-.19h4.25v.19c-.97.72-1.45,1.26-2.25,2.51l-4.54,7.15v4.35c0,1.59.41,1.88,1.74,2.51v.19h-5.65v-.19c1.33-.63,1.74-.92,1.74-2.51v-4.35l-4.54-7.15c-.8-1.26-1.26-1.79-2.25-2.51v-.19h4.93v.19c-.63.39-.8.68-.8,1.11,0,.36.1.7.36,1.09l3.96,6.28,3.94-6.28Z"/>
        <path class="cls-1" d="M393.91.4c4.83,0,8.38,3.62,8.38,8.7s-3.55,8.7-8.38,8.7-8.38-3.62-8.38-8.7,3.55-8.7,8.38-8.7ZM393.91,1.49c-3.67,0-5.89,3.04-5.89,7.61s2.22,7.61,5.89,7.61,5.89-3.04,5.89-7.61-2.22-7.61-5.89-7.61Z"/>
        <path class="cls-1" d="M420.34,12.19c0-1.59-.41-1.86-1.55-2.51v-.19h5.29v.19c-1.16.65-1.57.92-1.57,2.51v5.58h-.56l-1.28-2.42c-.94,1.42-2.87,2.44-5.24,2.44-4.88,0-8.45-3.5-8.45-8.6s3.72-8.79,8.82-8.79c1.96,0,3.48.6,4.47,1.33l1.3-1.33h.17v5.05h-.19c-1.38-2.27-2.97-4.01-5.63-4.01-3.82,0-6.43,3.12-6.43,7.68s2.63,7.39,6.52,7.39c1.76,0,3.26-.6,4.32-2.05v-2.27Z"/>
        <path class="cls-1" d="M431.82,17.55h-4.54v-.19c1.06-.75,1.47-1.11,2.15-2.56l6.76-14.44h.12l6.76,14.44c.7,1.45.99,1.81,2.05,2.56v.19h-5.27v-.19c1.01-.44,1.33-.73,1.33-1.23,0-.31-.1-.56-.34-1.04l-1.45-3.12h-7.44l-1.4,3.09c-.22.46-.29.72-.29,1.01,0,.51.48.77,1.55,1.28v.19ZM432.42,10.98h6.52l-3.28-7.08-3.24,7.08Z"/>
        <path class="cls-1" d="M452.95,3.42c0,1.88-1.53,3.41-3.42,3.41s-3.42-1.54-3.42-3.41,1.54-3.42,3.42-3.42,3.42,1.52,3.42,3.42ZM452.66,3.42c0-1.69-1.44-3.15-3.14-3.15s-3.13,1.45-3.13,3.15,1.44,3.15,3.13,3.15,3.14-1.46,3.14-3.15ZM447.98,1.46l1.21-.05c.83-.03,1.49.16,1.49.91s-.46.96-1.04,1.02c.39.03.85.38.91,1.02.08.83.34.82.83.82l-.05.15c-1.01.26-1.36-.15-1.47-.6-.1-.41.11-1.22-.64-1.36-.11-.02-.22,0-.22,0v1.66c0,.08,0,.11.03.11l.3.04v.15h-1.36v-.15l.29-.04s.05-.03.05-.11V1.77c0-.09,0-.11-.05-.11l-.29-.05v-.15ZM449.01,3.19h.11c.7,0,.86-.42.86-.83,0-.79-.65-.88-.97-.78v1.62Z"/>
      </g>
    </g>
  </g>
</svg>