<?xml version="1.0" encoding="UTF-8"?>
<svg id="Layer_2" data-name="Layer 2" xmlns="http://www.w3.org/2000/svg" viewBox="0 0 427.25 420.83">
  <defs>
    <style>
      .cls-1 {
        fill: #781029;
      }
    </style>
  </defs>
  <g id="Layer_1-2" data-name="Layer 1">
    <g>
      <g>
        <g>
          <path class="cls-1" d="M90.35,380.8l.51-9.98c-.21-.13-.5-.34-.88-.63l-4.99-3.88-5.01,6.44-4.11-3.19,17.18-22.11,9.1,7.07c1.92,1.49,3.34,3.1,4.27,4.84.93,1.74,1.32,3.49,1.16,5.26-.16,1.77-.87,3.46-2.13,5.08-1.29,1.66-2.81,2.78-4.55,3.35-1.74.57-3.6.56-5.58-.03l-.56,11.22-4.42-3.44ZM102.46,362.15c-.34-1.48-1.4-2.91-3.19-4.3l-4.8-3.73-6.85,8.81,4.8,3.73c1.79,1.39,3.45,2.06,4.97,2.01,1.52-.05,2.83-.78,3.93-2.19,1.1-1.41,1.48-2.86,1.14-4.33Z"/>
          <path class="cls-1" d="M109.78,391.61c-1.45-2.16-2.25-4.52-2.38-7.08-.13-2.56.43-5.04,1.7-7.45s2.99-4.28,5.17-5.62c2.18-1.34,4.57-2.03,7.18-2.06,2.61-.03,5.17.62,7.7,1.94,2.53,1.33,4.52,3.07,5.97,5.24,1.45,2.16,2.25,4.52,2.39,7.06.14,2.54-.43,5.03-1.71,7.46-1.28,2.43-3,4.31-5.18,5.64-2.17,1.33-4.56,2.01-7.17,2.04-2.61.03-5.17-.62-7.7-1.94-2.53-1.33-4.52-3.07-5.97-5.24ZM122.91,394.04c1.71-.05,3.3-.54,4.75-1.48,1.46-.94,2.62-2.23,3.49-3.89.87-1.65,1.27-3.34,1.22-5.07-.06-1.73-.55-3.32-1.48-4.75s-2.22-2.59-3.88-3.46c-1.65-.87-3.34-1.28-5.05-1.23-1.71.05-3.3.54-4.75,1.48-1.46.94-2.62,2.23-3.49,3.89-.87,1.65-1.27,3.34-1.22,5.07.05,1.73.55,3.31,1.48,4.75.93,1.44,2.22,2.59,3.88,3.46,1.65.87,3.33,1.28,5.05,1.23Z"/>
          <path class="cls-1" d="M165.35,415.26l5.12-17.84-13.11,12.2-2.23-.64-4.63-17.08-5.09,17.6-4.76-1.38,7.79-26.9,4.11,1.19,5.52,20.92,15.65-14.79,4.11,1.19-7.75,26.91-4.73-1.37Z"/>
          <path class="cls-1" d="M205.05,416.49l-.44,4.34-20.89-2.1,2.8-27.86,20.34,2.05-.44,4.34-15.16-1.53-.73,7.24,13.45,1.35-.43,4.26-13.45-1.35-.77,7.68,15.72,1.58Z"/>
          <path class="cls-1" d="M232.93,396.33l-9.22,1.02-.48-4.37,23.62-2.6.48,4.37-9.22,1.02,2.59,23.46-5.17.57-2.59-23.46Z"/>
          <path class="cls-1" d="M276.79,411.65l-7.65-6.44c-.23.09-.57.19-1.03.32l-6.1,1.63,2.11,7.88-5.02,1.35-7.25-27.05,11.13-2.98c2.34-.63,4.49-.79,6.43-.48,1.95.31,3.58,1.06,4.89,2.25,1.31,1.2,2.24,2.78,2.77,4.77.55,2.03.52,3.92-.08,5.65-.6,1.74-1.73,3.21-3.39,4.43l8.6,7.22-5.41,1.45ZM269.24,390.73c-1.38-.62-3.17-.64-5.36-.05l-5.87,1.57,2.89,10.78,5.87-1.57c2.19-.59,3.72-1.5,4.61-2.75.88-1.24,1.09-2.73.63-4.46-.46-1.73-1.38-2.9-2.77-3.52Z"/>
          <path class="cls-1" d="M280.99,380.47l4.82-1.94,10.46,25.97-4.82,1.94-10.47-25.97Z"/>
          <path class="cls-1" d="M322.3,377.79c1.37.6,2.48,1.67,3.33,3.2,1.18,2.12,1.27,4.21.28,6.27-.99,2.06-3.05,3.96-6.17,5.69l-12.17,6.76-13.59-24.48,11.47-6.37c2.89-1.61,5.43-2.28,7.62-2.01,2.19.27,3.84,1.39,4.94,3.37.67,1.21.99,2.44.95,3.68-.04,1.24-.41,2.39-1.1,3.45,1.6-.31,3.08-.16,4.45.43ZM300.51,376.28l3.75,6.75,6.43-3.58c1.58-.88,2.64-1.84,3.18-2.88.53-1.04.5-2.11-.11-3.21-.62-1.12-1.52-1.73-2.68-1.83-1.17-.1-2.54.29-4.13,1.17l-6.43,3.57ZM320.8,383.09c-1.31-2.35-3.72-2.55-7.24-.6l-7.34,4.08,3.92,7.06,7.34-4.08c3.52-1.95,4.63-4.11,3.32-6.46Z"/>
          <path class="cls-1" d="M352.3,364.74l2.7,3.42-16.49,13-17.34-21.99,16.05-12.66,2.7,3.42-11.97,9.44,4.51,5.72,10.62-8.37,2.65,3.36-10.62,8.37,4.78,6.06,12.41-9.78Z"/>
          <path class="cls-1" d="M374.07,326.15l3.07-3.84,8.72,6.97c0,1.84-.37,3.7-1.08,5.58-.72,1.88-1.71,3.62-2.98,5.2-1.78,2.23-3.87,3.85-6.27,4.87-2.4,1.02-4.86,1.35-7.39,1.01-2.52-.34-4.86-1.38-7-3.09-2.15-1.72-3.66-3.77-4.56-6.15-.89-2.38-1.1-4.87-.63-7.44.47-2.58,1.61-4.99,3.41-7.24,1.46-1.83,3.1-3.26,4.9-4.27,1.8-1.02,3.7-1.57,5.68-1.66l.45,4.56c-3,.33-5.44,1.68-7.32,4.03-1.23,1.54-2,3.17-2.32,4.88-.31,1.71-.15,3.38.47,4.98.63,1.61,1.69,3.01,3.19,4.21,1.46,1.17,3.04,1.88,4.75,2.13,1.71.26,3.37.05,5-.61,1.62-.66,3.04-1.76,4.26-3.28,1.37-1.71,2.19-3.51,2.47-5.4l-6.81-5.45Z"/>
          <path class="cls-1" d="M398.43,301.53l-6.75,12.26,4.35,5.54-2.58,4.7-18.46-24.54,2.47-4.49,30.62,2.43-2.62,4.77-7.03-.67ZM394.02,301.07l-13.27-1.28,8.2,10.49,5.07-9.22Z"/>
          <path class="cls-1" d="M390.59,276.9l-3.24,8.7-4.12-1.54,8.3-22.26,4.12,1.54-3.24,8.7,22.11,8.25-1.82,4.87-22.11-8.25Z"/>
          <path class="cls-1" d="M397.83,232.5l27.46,5.48-1.02,5.1-11.77-2.35-2.83,14.2,11.77,2.35-1.02,5.1-27.46-5.48,1.02-5.1,11.34,2.26,2.83-14.2-11.34-2.26,1.02-5.1Z"/>
          <path class="cls-1" d="M422.89,203.65l4.36.14-.68,20.99-27.99-.91.66-20.43,4.36.14-.49,15.23,7.28.24.44-13.51,4.28.14-.44,13.51,7.72.25.51-15.79Z"/>
          <path class="cls-1" d="M424.4,174.26l-7.42,6.7c.06.24.11.59.17,1.07l.79,6.27,8.1-1.02.65,5.16-27.78,3.5-1.44-11.43c-.3-2.41-.17-4.55.4-6.44s1.53-3.4,2.9-4.54c1.36-1.14,3.06-1.84,5.1-2.09,2.09-.26,3.95.02,5.59.85,1.64.83,2.95,2.15,3.93,3.96l8.32-7.54.7,5.56ZM402.65,178.9c-.81,1.29-1.07,3.05-.78,5.3l.76,6.03,11.07-1.39-.76-6.03c-.28-2.25-.98-3.89-2.09-4.94-1.11-1.04-2.55-1.45-4.33-1.23-1.77.22-3.06.98-3.87,2.26Z"/>
          <path class="cls-1" d="M394.07,165.85l-1.27-5.04,27.15-6.84,1.27,5.04-27.15,6.84Z"/>
          <path class="cls-1" d="M381.56,129.13l26.04-10.3,1.57,3.98-11.95,21.33,17.63-6.98,1.9,4.8-26.04,10.3-1.58-3.98,11.95-21.33-17.63,6.98-1.9-4.8Z"/>
          <path class="cls-1" d="M379.2,97.98l-2.59-4.18,9.49-5.87c1.73.62,3.37,1.59,4.9,2.9,1.53,1.31,2.83,2.83,3.9,4.55,1.5,2.43,2.33,4.94,2.48,7.54.15,2.6-.36,5.04-1.53,7.3-1.17,2.26-2.93,4.12-5.26,5.56-2.33,1.44-4.78,2.19-7.32,2.23-2.55.04-4.95-.59-7.22-1.9-2.27-1.31-4.16-3.19-5.68-5.64-1.23-1.99-2.03-4.01-2.38-6.05-.35-2.04-.24-4.01.34-5.91l4.45,1.11c-.69,2.94-.24,5.69,1.34,8.25,1.04,1.68,2.31,2.95,3.82,3.82,1.51.87,3.13,1.28,4.85,1.23,1.73-.05,3.41-.58,5.04-1.59,1.59-.98,2.79-2.24,3.6-3.76.81-1.52,1.18-3.16,1.1-4.91-.08-1.75-.63-3.46-1.66-5.11-1.15-1.86-2.57-3.24-4.26-4.14l-7.41,4.59Z"/>
        </g>
        <g>
          <path class="cls-1" d="M8.88,279.47l-2.8-11.92c-.68-2.91-.73-5.62-.13-8.15.6-2.52,1.78-4.65,3.55-6.38,1.77-1.73,4.01-2.91,6.71-3.55s5.23-.57,7.58.19c2.36.76,4.37,2.14,6.02,4.13,1.66,1.99,2.83,4.44,3.52,7.35l2.8,11.92-27.26,6.41ZM29.11,262.39c-.47-2-1.27-3.67-2.39-5.01-1.12-1.34-2.49-2.25-4.09-2.74-1.61-.49-3.34-.51-5.21-.07-1.87.44-3.41,1.23-4.64,2.38-1.22,1.15-2.04,2.58-2.45,4.27-.41,1.7-.38,3.55.09,5.55l1.56,6.62,18.69-4.39-1.56-6.62Z"/>
          <path class="cls-1" d="M27.27,233.55c-1.14,2.35-2.77,4.22-4.91,5.62-2.14,1.4-4.57,2.17-7.29,2.29-2.72.12-5.2-.42-7.46-1.63-2.26-1.21-4.05-2.93-5.39-5.17-1.34-2.24-2.07-4.78-2.2-7.63-.13-2.85.38-5.45,1.52-7.79,1.14-2.35,2.77-4.22,4.9-5.62s4.56-2.17,7.31-2.29c2.74-.12,5.24.42,7.48,1.63,2.24,1.21,4.03,2.93,5.37,5.17,1.34,2.24,2.07,4.78,2.2,7.63s-.38,5.45-1.52,7.79ZM22.75,220.98c-.91-1.45-2.13-2.57-3.67-3.36-1.54-.79-3.25-1.14-5.11-1.05-1.86.08-3.53.58-5,1.5-1.47.92-2.59,2.14-3.36,3.67-.77,1.53-1.12,3.23-1.04,5.09.08,1.87.58,3.52,1.48,4.98s2.13,2.57,3.67,3.36c1.54.79,3.25,1.14,5.11,1.05,1.87-.08,3.53-.58,5-1.5,1.47-.92,2.59-2.14,3.36-3.67s1.12-3.23,1.04-5.09c-.08-1.87-.58-3.53-1.48-4.98Z"/>
          <path class="cls-1" d="M.74,200.04l.61-5.16,23.44,2.76,1.71-14.54,4.37.51-2.32,19.7-27.81-3.27Z"/>
          <path class="cls-1" d="M31.93,172.76c-1.79,1.88-3.91,3.16-6.36,3.83s-5,.66-7.65-.06c-2.65-.72-4.86-1.99-6.63-3.82-1.77-1.83-2.96-4.01-3.56-6.53s-.54-5.15.2-7.88c.6-2.21,1.53-4.13,2.79-5.75,1.27-1.62,2.8-2.86,4.61-3.73l2.17,4.07c-2.64,1.39-4.34,3.51-5.12,6.37-.5,1.85-.54,3.62-.13,5.31s1.23,3.14,2.45,4.35c1.22,1.21,2.74,2.07,4.57,2.56,1.83.49,3.57.52,5.24.09,1.66-.43,3.1-1.28,4.31-2.52,1.21-1.25,2.06-2.8,2.56-4.65.77-2.86.35-5.55-1.26-8.09l3.97-2.41c1.13,1.66,1.83,3.51,2.1,5.56.27,2.05.11,4.18-.48,6.4-.74,2.73-2,5.03-3.79,6.91Z"/>
          <path class="cls-1" d="M45.43,127.66l3.98,1.78-8.59,19.16-25.55-11.46,8.36-18.65,3.98,1.78-6.23,13.91,6.64,2.98,5.53-12.34,3.91,1.75-5.53,12.34,7.04,3.16,6.46-14.42Z"/>
          <path class="cls-1" d="M44.07,93.69l6.84,5.08,8.06-10.86,3.53,2.62-8.06,10.86,8.61,6.39-3.1,4.18-22.49-16.69,12.18-16.41,3.5,2.6-9.08,12.24Z"/>
          <path class="cls-1" d="M84.21,73.84l-9.93,9.87,2.61,6.54-3.8,3.78-10.79-28.75,3.63-3.61,28.7,10.96-3.86,3.83-6.55-2.62ZM80.12,72.15l-12.37-4.96,4.91,12.38,7.46-7.41Z"/>
          <path class="cls-1" d="M114,58.75l-9.41-3.38c-.18.16-.47.38-.86.66l-5.15,3.66,4.72,6.65-4.24,3.01-16.21-22.83,9.39-6.67c1.98-1.4,3.93-2.3,5.86-2.69s3.72-.25,5.37.41c1.65.66,3.07,1.83,4.25,3.5,1.22,1.72,1.85,3.49,1.89,5.33.04,1.83-.5,3.61-1.64,5.33l10.58,3.77-4.57,3.24ZM99.64,41.77c-1.51-.1-3.19.5-5.04,1.81l-4.96,3.52,6.46,9.1,4.96-3.52c1.85-1.31,2.97-2.7,3.36-4.18.39-1.47.07-2.94-.96-4.4-1.03-1.46-2.31-2.24-3.82-2.34Z"/>
          <path class="cls-1" d="M149.04,10.85l10.29,26.04-3.98,1.57-21.33-11.96,6.97,17.63-4.8,1.9-10.29-26.04,3.98-1.57,21.33,11.96-6.97-17.63,4.8-1.9Z"/>
          <path class="cls-1" d="M161.59,7.48l5.04-1.27,6.83,27.15-5.04,1.27-6.83-27.16Z"/>
          <path class="cls-1" d="M202.82,24.13l.57,4.32-20.82,2.76-3.69-27.76,20.26-2.69.57,4.32-15.11,2.01.96,7.22,13.4-1.78.56,4.24-13.4,1.78,1.02,7.65,15.66-2.08Z"/>
          <path class="cls-1" d="M236.87.84l-.95,27.98-4.28-.15-14.79-19.47-.64,18.95-5.16-.18.95-27.98,4.28.14,14.79,19.47.64-18.95,5.16.17Z"/>
          <path class="cls-1" d="M255.33,8.13l-9.11-1.77.84-4.32,23.32,4.54-.84,4.32-9.11-1.77-4.51,23.17-5.1-.99,4.51-23.16Z"/>
          <path class="cls-1" d="M291.85,38.55l-1.44,4.12-19.82-6.93,9.24-26.43,19.3,6.74-1.44,4.12-14.39-5.03-2.4,6.87,12.76,4.46-1.41,4.04-12.76-4.46-2.55,7.29,14.92,5.21Z"/>
        </g>
      </g>
      <g>
        <path class="cls-1" d="M61.36,334.3c-2.18-.48-5.08-.57-7.75.1-5.92,1.49-7.68,5.91-7.68,5.91.08.73.61.44,1.72.2,1.11-.24,4.28,1.2,4.28,1.2,0,0,4.62,1.25,8.13-2.02,3.51-3.27,5.63-3.69,5.63-3.69,0,0-1.67-1.1-4.33-1.7ZM54.62,340.95c-1.56,0-2.83-1.26-2.83-2.83,0-1.12.65-2.08,1.58-2.54.62-.09,1.18-.18,1.7-.25,1.35.22,2.38,1.38,2.38,2.79,0,1.56-1.27,2.83-2.83,2.83ZM49.62,340.12c-1.54-.58-2.85,0-2.85,0,0,0,1.31-2.95,5.64-4.32-.61.59-1,1.41-1,2.32,0,1.36.85,2.52,2.04,2.99-1.48-.08-2.68-.55-3.84-.98ZM58.27,339.74c-.58.37-1.1.64-1.59.85.71-.59,1.16-1.47,1.16-2.47,0-1.29-.76-2.39-1.85-2.91.56-.06,1.09-.1,1.62-.09,3.63.06,5.51,1.07,5.51,1.07-.37.02-1.46.73-2.65,1.63-.55.42-1.55,1.5-2.2,1.91Z"/>
        <path class="cls-1" d="M55.98,338.12c0,.75-.61,1.35-1.35,1.35s-1.35-.61-1.35-1.35.61-1.35,1.35-1.35,1.35.61,1.35,1.35"/>
        <path class="cls-1" d="M24.47,334.11c-2.66-.67-5.57-.58-7.75-.1-2.66.59-4.33,1.7-4.33,1.7,0,0,2.12.42,5.63,3.69,3.51,3.27,8.13,2.02,8.13,2.02,0,0,3.17-1.44,4.28-1.2,1.11.24,1.64.53,1.72-.2,0,0-1.77-4.42-7.68-5.91ZM23.46,340.66c-1.57,0-2.83-1.27-2.83-2.83,0-1.41,1.03-2.57,2.38-2.79.52.07,1.09.16,1.7.25.94.46,1.58,1.42,1.58,2.54,0,1.56-1.27,2.83-2.83,2.83ZM17.62,337.54c-1.18-.9-2.27-1.61-2.65-1.63,0,0,1.88-1.01,5.51-1.07.52,0,1.05.03,1.62.09-1.09.51-1.85,1.62-1.85,2.91,0,.99.45,1.88,1.16,2.47-.49-.2-1.01-.47-1.59-.85-.65-.41-1.65-1.49-2.2-1.91ZM28.47,339.84c-1.16.43-2.36.91-3.84.98,1.2-.47,2.05-1.63,2.05-2.99,0-.92-.38-1.74-1-2.32,4.33,1.37,5.64,4.32,5.64,4.32,0,0-1.31-.57-2.85,0Z"/>
        <path class="cls-1" d="M22.11,337.83c0,.75.61,1.35,1.35,1.35s1.35-.61,1.35-1.35-.61-1.35-1.35-1.35-1.35.61-1.35,1.35"/>
        <g>
          <path class="cls-1" d="M59.38,325.19s4.55-3.63,1.59-12.29c-2.67-7.29-7.72-8.95-9.45-13.35-1.7-4.32-3.13-9.29-12.19-8.87,1.23.7,2.63,1.32,3.46,1.32,1.42,0,2.39.26,3.08,1.03.7.77.71,2.15.89,3.02.16.77.44,1.42.44,1.42,0,0,.53,1.24,1.02,2.45.95,2.34-.4,3.24-.4,3.24.91-1.27-.33-4.2-.92-5.02-.6-.82-.75-1.27-1.16-3.05-.41-1.79-1.73-2.13-1.73-2.13-.39-.11-1.89-.19-2.19-.29-5.24-1.87-4.79-3.03-7.22-3.11-1.25-.04-2.29.23-3.01.5-.28.16-.52.31-.71.47,0,0,0,0-.01.01h0c-.3.24-.5.46-.63.65-.23.32-.52.57-.84.79-1.5,1-5.09,4.08-3.21,9.67,0,0,1.15,5.27,10.1,9.53,1,.48,1.93.92,2.79,1.33-.86,1.3-2.11,3.65-2.45,6.71-.17,1.49-.03,2.9.27,4.18-.84-.56-1.71-1.23-2.63-2.01-9.18-7.81-14.51-6.76-16.39-6.62-1.88.15-10.63,2.6-9.6,10.52,1.11,8.52,10.52,7.12,13.34,7.36,2.49.21,8.16.4,14.81,4.21,2.89,1.3,5.93.84,8.52-.29.59-.26,9.53-5.7,16.09-3.32,6.57,2.38,7.94,7.36,5.7,12.12-2.24,4.76-12.35,7.21-20.62,3.63-9.88-4.28-14.23.73-15.38,2.75-1.15,2.02-.42,3.87.68,3.87,0,0,.72.05,1.01-.91.29-.96.62-2.99,4.52-3.8,3.9-.82,7.5,1.16,9.38,1.78,1.88.62,6.35,2.21,12.17,1.44,5.82-.77,14.91-5.29,16.07-16.26.1-11.4-13.62-12.75-15.21-12.68ZM59.87,323.52c-1.38,2.09-3.76,1.76-3.76,1.76-1.92-.44-1.07-2.84.08-2.86,1.15-.02,3.76-1.02,4.35-1.94.19-.3.71.96-.67,3.05ZM60.67,319.26c-1.07,1.94-4.62,2.26-4.62,2.26-1-.02-1.88-2.23-.18-3.11,2.4-.21,4.49-1.78,4.72-1.99.23-.21,1.15.9.08,2.84ZM59.13,312.29c.39-.55,1.32.4,1.58,1.5.25,1.1-.23,2.19-1.94,3.02-1.71.84-2.86.6-2.86.6,0,0-1.44-.02-1.94-.68-.59-.78-.69-1.56,1.07-1.97,1.76-.41,3.72-1.93,4.11-2.48ZM58.55,310.15c.22.63.4,1.85-1.75,3.02-1.41.76-2.55,1.08-3.51,1.16-2.13.22-3.75-1.9-2.09-2.04,1.66-.14,4.26-1.96,5.09-3.03.83-1.07,2.04.26,2.26.89ZM55.77,308.66c-.39.58-.99,1.11-1.59,1.53-1.25.88-2.85,1.28-3.83,1.5-.58.13-1.54.15-2.14-.28-.9-.64-1.23-1.88-.09-2.08,0,0,3.25-.37,6.1-3.26.37-.38,2.74.79,1.55,2.59ZM45.24,319.21c-.17-1.57-.58-2.94-1.06-4.09,3.21,1.88,4.59,3.52,4.59,6.22,0,2.41-1.65,4.57-4.7,4.67.81-1.88,1.45-4.21,1.17-6.8ZM50.09,302.97c.37-.38,4.21,1.33,3.02,3.13-.39.58-1.55,1.2-2.5,1.63-1.39.63-2.75,1.12-4.13,1.12-.6,0-1.79-.1-2.4-.53-.9-.64-1.23-1.88-.09-2.08,0,0,3.25-.37,6.1-3.26ZM39.34,303.25c.59-.54,1.94-.6,1.94-.6,0,0,.69.26,1.1.46.93.45,2.38,1.71,2.74,1.86-.44.09-2.57.65-4.16.46-.9-.11-1.55-.71-1.8-1.16-.27-.43-.07-.78.19-1.02ZM37.22,302.24c-1.58-.44-1.36-1.85-1.36-1.85.14-.64,2.45-.36,2.45-.36.82,1.71,1.79,1.98,1.79,1.98,0,0-1.29.67-2.87.23ZM41.38,298.18s.91-.05.77,1.23c0,0-.82-.23-.95-.54s.18-.68.18-.68ZM39.69,298.44c.52,1.87,2.45,2.24,2.45,2.24,1.55.39,1.87,1.51,2.84,2.47s2.41.45,2.41.45c0,0-1.05.65-2.09.26-1.03-.39-1.81-1.81-2.84-2.19-1.03-.39-2.68-1.09-2.9-2-.65-2.58-2.58-5.16-2.58-5.16.71.45,2.19,2.06,2.71,3.94ZM37.65,298.09c.16.58.28.88.28.88,0,0-2.19.42-2.74-.58-.55-1-.14-1.43-.02-1.57.56-.47,1.54-.22,1.72-.19,0,0,.6.88.75,1.46ZM36.35,295.7s-2.52-.16-2.26-2c0,0,1.7.97,2.26,2ZM35.96,310.32c-9.29-4.86-10.39-11.45-8.03-15.44,1.09-1.85,2.4-2.82,3.64-2.82,2.07,0,3.1.9,3.1.9,0,0-1.26-.35-2.45-.38-1.75-.05-4.11,1.45-4.52,5.09-.65,5.74,3.33,9.04,6.26,10.91,2.13,1.36,4.93,3.01,7.87,4.39l-1.81-.71c-1.28-.61-2.46-1.1-4.06-1.94ZM38.49,317.85c.47-1.92,1.24-3.18,1.75-3.85.31-.42.71-.88.71-.88,0,0,.37.45.66.82.51.66,1.31,1.94,1.79,3.91.12.49.23.98.3,1.49-.58-.92-1.59-1.52-2.76-1.52s-2.18.61-2.76,1.52c.08-.5.18-1,.3-1.49ZM40.94,318.21c1.59,0,2.88,1.29,2.88,2.87s-1.29,2.88-2.88,2.88-2.88-1.29-2.88-2.88,1.29-2.87,2.88-2.87ZM43.74,322.74c-.21,1.58-.77,3.37-1.87,5.57-.23.45-.93,1.68-.93,1.68,0,0-.71-1.24-.94-1.7-1.1-2.19-1.65-3.98-1.86-5.56.57.96,1.61,1.6,2.8,1.6s2.23-.64,2.8-1.6ZM70.21,344.89c-1.68,3.9-5.92,7.07-11.83,8.08-5.92,1.01-13.33-2.5-13.33-2.5,0,0-5.34-2.79-9.87-.63-4.53,2.16-3.92,4.66-3.92,4.66l-.09.14c-1.01-2.45,2.91-6.14,7.19-6.43,4.28-.29,5.15,1.54,11.95,2.98,6.8,1.45,11.74.16,16.1-3.82,3.57-3.26,2.17-8.78,1.99-10.01-.18-1.23.71-.36.96-1.35.26-1-4.63-6.94-12.38-7.04-7.75-.1-10.39,2.31-11.69,3.56-1.3,1.25-.82,2.89-.82,2.89,0,0-2.55,1.01-4.47,1.01s-3.7-.96-3.7-.96c1.92-1.83.77-4.28-1.25-4.81-2.02-.53-5.47-.79-12.5-1.17-2.16-.12-7.34-.72-9.69-3.68-1.21-1.47-2.24-4.22-.97-6.15,3.96-6.01,12.57-3.3,14.31-2.57,1.73.72,3.23,1.38,7.99,5.24,2.12,1.71,3.18,3.1,3.62,3.75.05.12.1.23.15.35-3.43-2.25-11.6-4.91-14.84-4.91s-5.49,1.25-5.49,1.25c4.62-.19,10.73,1.15,16.5,4.09,1.94.98,3.62,1.61,5.08,1.97.21.36.4.67.56.94.27,2.59-.59,2.57-1.15,2.61-.71.05-1.26-1.31-.05-1.45,0,0-.64-.32-1.09.31-.45.62.15,1.81,1.33,1.79,1.14-.02,2.12-1.07,2.12-2.94h.02c0,1.88.9,3,2.2,2.99,1.19-.01,1.65-1.2,1.2-1.83-.45-.63-1.04-.31-1.04-.31,1.21.13.74,1.43,0,1.43-.65,0-1.48,0-1.21-2.59.08-.16.18-.33.29-.53,1.24-.01,2.19-.26,2.88-.6,1.81-.88,16.39-5.7,23.56.41,7.17,6.11,4.82,12.11,4.82,12.11,0,0-1.78-.16-3.46,3.74Z"/>
          <path class="cls-1" d="M40.94,322.38c.75,0,1.35-.61,1.35-1.35s-.61-1.35-1.35-1.35-1.35.61-1.35,1.35.61,1.35,1.35,1.35Z"/>
        </g>
      </g>
      <g>
        <path class="cls-1" d="M341.29,87.91c-7.04,0-15.03,0-21.23-3.32-7.23-3.86-10.74-11.47-10.74-23.27v-14.81c0-11.8,3.51-19.41,10.74-23.27,6.21-3.32,14.19-3.32,21.23-3.32s15.03,0,21.23,3.32c7.23,3.86,10.74,11.47,10.74,23.27v14.81c0,11.8-3.51,19.41-10.74,23.27-6.2,3.32-14.19,3.32-21.23,3.32ZM341.29,21.95c-14.04,0-29.95,0-29.95,24.57v14.81c0,24.57,15.91,24.57,29.95,24.57s29.95,0,29.95-24.57v-14.81c0-24.57-15.91-24.57-29.95-24.57Z"/>
        <g>
          <path class="cls-1" d="M336.64,54.73c.76.21,1.66.86,2.42,1.03,1.58.35,3.57-.27,4.66-1.47,1.89-2.08,2.91-5.31,5.21-7.35,5.05-4.46,11.79-1.75,14.21,4.02,2.56,6.11,2.35,15.91-3.51,20.12-3.51,2.52-8.54,2.5-11.41-.96-1.57-1.89-2.52-5.26-2.2-7.7.04-.28.4-1.4.61-1.51l1.32,2.21c.58.5,1.09,1.21,1.71,1.65,3.22,2.29,7.63.89,9.88-2.1,2.13-2.83,3.28-8.82.98-11.76-.23-.3-1.07-.96-1.41-1.07-.72-.23-1.97-.17-2.72-.04-1.17.2-3.24,2.12-4.02,3.06-.38.45-.66,1.09-.98,1.5-2.02,2.61-3.93,4.31-7.42,4.61-.38.03-2.03-.17-2.03.26,0,.04.16.57.2.67.48,1.27,1.21,2.41,1.51,3.79.77,3.5-.3,8.06-3.05,10.49-7.17,6.34-16.83.79-20.65-6.43-1.91-3.61-2.23-7.67-2.08-11.7.12-.12.16-.32.34-.19.36.26.43,1.9.56,2.44,1.44,5.84,5.12,11.05,11.56,11.79,2.84.33,7.19-.65,8.61-3.4.39-.76.75-2.39.66-3.22-.17-1.67-1.53-2.9-2.99-3.55-.56-.25-1.61-.55-2.22-.61-.95-.09-1.94.07-2.89-.03-1.09-1.75-2.3-3.45-2.99-5.42l-.57-2.35c.79-.16,1.51.43,2.22.53.96.13,2.41.27,3.35.17,1.45-.15,2.97-1.01,3.82-2.2,1.17-1.64.48-3.36-1.12-4.38-.99-.63-2.59-.61-3.76-.5s-4.24,1.42-5.28,2.16c-.32.23-1.29,1.28-1.6,1.21-1.45-1.64-2.74-3.47-3.81-5.37.07-.3,2.92-2.34,3.4-2.62,4.92-2.85,13.17-3.01,15.7,3.12,1.47,3.56.03,8.35-3.31,10.33-.37.22-1,.15-.95.73Z"/>
          <g>
            <path class="cls-1" d="M337.7,32.44s.05.5.2.77c1.87,3.3,5.85,6.15,9.79,5.59.23-.03,1.24-.34,1.51-.43,1.83-.61,3.68-1.93,4.95-3.37.21-.24.23-.64.62-.63.34,0,.93.81,1.24,1.07.16.14.38.21.54.35.34.31,2.5,2.41,2.55,2.59.03.11.03.21,0,.31-.04.14-1.1,1.15-1.31,1.35-7.12,6.43-17.23,3.96-20.18-5.31-.1-.32-.53-2.21-.44-2.3.02-.02.51-.02.53,0Z"/>
            <path class="cls-1" d="M350.43,33.31c-.05.04-.27.05-.43.18-1.07.93-2.03,2.15-3.09,3.11-.07.08-.15.1-.26.08-.16-.04-1.97-1.97-2.31-2.3s-1.69-1.2-1.69-1.68,1.19-1.2,1.52-1.5c.43-.39.8-.87,1.23-1.24.34-.29.88-.68,1.23-.88.99.89,1.86,1.93,2.84,2.83.23.21.74.4.89.7.08.15.17.61.07.7Z"/>
          </g>
        </g>
      </g>
    </g>
  </g>
</svg>