<svg preserveAspectRatio="none" width="100%" height="100%" overflow="visible" style="display: block;" viewBox="0 0 1020 186" fill="none" xmlns="http://www.w3.org/2000/svg">
<g id="Group">
<path id="Vector" d="M249.687 132.821C248.797 132.883 248.301 132.51 248.156 131.662C248.073 131.124 248.176 130.586 248.487 130.028C258.644 110.354 268.947 90.7209 280.615 71.7916C290.917 55.0759 302.461 38.3189 314.895 22.6169C309.681 22.9272 304.158 22.6169 298.324 21.7066C292.49 20.7963 285.415 19.3067 277.243 17.4862C268.699 15.5829 261.686 14.3211 256.514 13.5763C251.321 12.8316 246.356 12.6453 241.639 12.997C235.888 13.4314 231.047 14.9003 227.178 17.3208C222.462 20.2585 219.131 24.2925 217.248 29.4231C215.366 34.5537 215.117 40.491 216.379 47.2145C217.145 51.3107 218.883 54.9518 221.593 58.0963C224.303 61.2409 227.489 63.6407 231.171 65.3371C234.854 67.0128 238.495 67.7162 242.115 67.4265C247.556 67.0128 251.755 64.2407 254.776 59.0894C257.796 53.9589 258.582 46.3251 257.134 36.188C256.865 34.2848 257.134 32.7746 257.941 31.6574C258.769 30.5403 259.824 29.9196 261.168 29.8162C262.492 29.7127 263.692 30.1472 264.747 31.0781C265.802 32.0091 266.464 33.3744 266.713 35.1742C266.837 36.0224 266.858 36.6639 266.816 37.0776C266.423 47.4422 263.568 55.4276 258.272 61.0547C252.976 66.6817 246.542 69.7849 238.888 70.3849C233.861 70.7779 228.937 70.116 224.137 68.3575C219.317 66.6197 215.2 63.9303 211.807 60.3306C208.394 56.7103 206.284 52.4279 205.456 47.4835C204.505 41.6909 205.767 36.0846 209.304 30.7264C212.842 25.3476 217.972 20.4239 224.634 15.9346C232.992 10.2869 242.694 6.99749 253.597 6.21135C261.21 5.65278 268.637 6.14935 275.857 7.70094C283.077 9.23183 291.724 11.4868 301.241 14.6934C308.419 17.1139 313.922 18.8309 317.605 19.4516C319.922 19.8446 322.094 19.9895 324.142 19.8654C330.597 19.493 337.341 17.4863 344.478 13.8246C345.264 13.4729 345.968 13.2659 346.568 13.2452C347.788 13.1832 348.823 13.5555 349.629 14.3623C350.436 15.1692 350.912 16.1623 351.036 17.3208C351.181 18.5828 350.809 19.7826 349.96 20.879C349.112 21.9962 347.747 22.8651 345.988 23.3202C344.168 23.7753 342.161 24.0029 340.216 24.1063C337.258 24.2718 334.155 24.1684 330.928 23.8167C327.7 23.465 325.818 23.2581 325.301 23.1754C323.108 22.9064 322.011 22.7823 319.818 22.534C309.35 35.588 300.103 49.8833 292.221 65.3785C282.291 84.8664 273.788 104.975 265.947 125.207C265.389 126.738 263.816 127.607 261.272 127.793C260.879 127.814 259.948 127.876 258.458 127.938C256.969 128 255.665 128.311 254.507 128.89C253.348 129.469 252.417 130.359 251.714 131.579C251.238 132.365 250.556 132.8 249.687 132.862V132.821Z" fill="var(--fill-0, white)"/>
<path id="Vector_2" d="M307.882 115.526C307.323 111.306 309.682 106.238 315.04 100.383C315.929 99.3692 316.384 98.8727 317.274 97.859C320.439 94.3628 322.922 91.4457 324.742 89.108C326.563 86.7703 327.928 84.4533 328.859 82.157C329.169 81.3915 329.273 80.5847 329.169 79.7365C328.983 78.2677 328.218 77.0264 326.832 76.0333C325.446 75.061 324.06 74.606 322.653 74.6887C321.846 74.7301 321.122 75.0404 320.501 75.6197C318.288 78.2057 315.329 81.9915 311.585 87.0187C307.861 92.0458 304.448 96.8867 301.386 101.562C300.972 101.148 300.765 100.941 300.351 100.507C306.93 90.4321 310.261 85.3843 317.005 75.33C317.605 74.4405 317.812 73.3647 317.667 72.1027C317.584 71.358 317.026 69.8271 316.198 67.5514C315.06 64.4896 314.46 62.1726 314.295 60.8072C314.088 59.1108 314.523 57.704 315.598 56.5869C316.674 55.4698 317.977 54.8491 319.488 54.7664C320.894 54.6836 322.198 55.0767 323.377 55.9663C324.556 56.8559 325.259 58.304 325.508 60.3107C325.611 61.1589 325.404 62.3588 325.032 63.8483C324.535 65.8344 324.329 67.5928 324.432 68.834C324.494 69.5581 324.908 70.2615 325.591 70.9235C326.273 71.5855 327.287 72.3716 328.59 73.2198C330.39 74.399 331.9 75.4955 332.935 76.5712C333.969 77.6263 334.569 78.909 334.755 80.3778C335.128 83.5431 334.466 86.6669 332.79 89.7493C331.114 92.8318 328.57 96.4316 325.177 100.569C323.005 103.259 321.453 105.348 320.501 106.837C319.55 108.327 319.136 109.672 319.281 110.83C319.384 111.575 319.653 112.134 320.088 112.527C321.329 113.726 322.756 114.285 324.329 114.182C329.749 113.851 337.61 106.527 348.182 92.2319C348.616 92.3974 348.844 92.4802 349.278 92.6457C344.106 101.645 338.707 109.01 333.059 114.782C327.411 120.533 322.405 123.553 317.977 123.822C315.516 123.967 313.343 123.202 311.419 121.526C309.392 119.747 308.233 117.74 307.944 115.526H307.882Z" fill="var(--fill-0, white)"/>
<path id="Vector_3" d="M339.037 116.684C338.768 114.47 339.161 111.947 340.216 109.112C341.271 106.278 342.802 102.844 344.83 98.8098C345.45 97.5065 345.761 96.8445 346.402 95.5412C346.816 94.7758 347.25 93.8447 347.726 92.7483C348.202 91.6518 348.76 90.4106 349.402 88.9831C352.96 81.4527 355.422 76.4464 356.767 73.9225C357.697 72.2881 359.166 71.4192 361.173 71.3158C362.476 71.2537 363.614 71.5847 364.607 72.3502C365.6 73.0949 366.159 74.1087 366.283 75.3706C366.428 76.736 366.076 78.2048 365.249 79.7357C364.587 80.9356 362.394 83.6457 358.753 87.866C354.76 92.5208 351.719 96.4514 349.65 99.5959C347.561 102.74 346.671 105.471 346.94 107.809C347.085 109.071 347.664 110.167 348.657 111.057C349.878 112.153 351.326 112.671 353.001 112.588C358.422 112.298 365.724 105.906 375.117 93.4517C375.551 93.6172 375.779 93.6999 376.213 93.8861C371.455 101.872 366.262 108.636 360.635 114.181C355.008 119.725 350.209 122.621 346.174 122.849C344.106 122.973 342.409 122.27 341.044 120.904C339.947 119.808 339.265 118.401 339.058 116.705L339.037 116.684ZM367.586 51.1452C368.952 50.1729 370.358 49.6557 371.765 49.5936C372.986 49.5316 374.124 49.8626 375.22 50.5453C376.958 51.6418 377.951 53.4002 378.178 55.8207C378.406 58.1377 377.889 60.4547 376.606 62.751C375.758 64.3853 374.661 65.6474 373.275 66.5783C371.91 67.4886 370.524 67.985 369.117 68.0471C368.021 68.1091 366.883 67.8402 365.704 67.2609C364.069 66.1645 363.118 64.406 362.869 61.9856C362.601 59.5651 363.118 57.2274 364.256 55.0552C365.104 53.4416 366.2 52.1175 367.566 51.1452H367.586Z" fill="var(--fill-0, white)"/>
<path id="Vector_4" d="M373.089 108.347C372.489 102.638 373.772 95.6243 377.02 87.2871C380.268 78.9499 384.736 71.0059 390.467 63.4341C393.011 60.2068 394.273 58.5932 396.839 55.3659C402.259 48.3527 407.079 42.4361 411.299 37.5951C415.52 32.7749 420.071 28.3063 424.953 24.2308C426.567 22.8033 428.367 22.0586 430.291 21.9759C432.132 21.9138 433.684 22.4724 434.946 23.6516C436.208 24.8308 436.911 26.2788 437.035 27.9546C437.221 30.3957 436.104 32.3818 433.684 33.9541C423.567 40.2225 415.52 45.8081 409.479 50.7111C403.417 55.6141 398.308 60.9723 394.129 66.7648C390.653 71.5851 387.86 76.8605 385.709 82.5703C383.578 88.3009 382.73 93.2659 383.164 97.5069C383.516 101.003 384.798 103.775 386.971 105.617C388.75 107.127 390.963 107.83 393.446 107.727C397.004 107.582 400.438 105.741 403.79 102.203C403.19 100.114 402.838 98.4792 402.735 97.3207C402.259 92.3557 403.045 85.7355 405.093 77.4811C406.583 72.9712 409.003 70.861 412.065 71.3162C414.072 71.6265 415.582 72.4954 416.513 73.778C417.423 75.0814 417.858 76.6123 417.816 78.4328C417.485 83.9564 415.789 89.7077 412.748 95.6657C412.417 97.4863 412.293 98.9136 412.396 99.9687C412.644 102.824 413.823 104.21 415.892 104.127C417.961 104.044 420.609 102.596 423.857 99.7826C427.084 96.969 429.96 93.7003 432.442 90.0179C432.773 90.4523 432.939 90.6593 433.27 91.1144C430.332 95.5623 426.815 99.6585 422.657 103.424C418.52 107.189 414.879 109.133 411.713 109.258C410.72 109.299 409.686 109.071 408.672 108.575C407.741 108.12 406.769 107.272 405.776 106.134C402.383 110.209 398.804 113.478 395.06 115.981C391.294 118.484 387.798 119.808 384.55 119.953C383.081 120.015 381.509 119.726 379.854 119.064C375.923 117.326 373.648 113.788 373.089 108.389V108.347Z" fill="var(--fill-0, white)"/>
<path id="Vector_5" d="M428.822 105.72C428.533 102.327 429.05 98.7064 430.374 94.8378C431.698 90.9691 433.746 87.2246 436.27 83.6663C439.518 79.0943 443.366 75.143 447.855 72.1019C452.344 69.0608 456.461 67.4885 460.164 67.385C462.978 67.3023 465.191 68.0058 466.784 69.4332C467.943 70.4676 468.605 71.9363 468.729 73.8396C468.894 76.3842 468.15 79.3633 466.474 82.7975C464.819 86.2316 462.523 89.4175 459.585 92.3552C456.668 95.2929 453.42 97.4651 449.841 98.8305C449.365 99.058 448.682 99.1822 447.793 99.2028C446.303 99.2442 445.083 98.7891 444.11 97.7961C443.138 96.8238 442.6 95.6859 442.497 94.424C442.414 93.2655 442.704 92.2932 443.386 91.5278C444.069 90.7623 445.103 90.3692 446.51 90.3278C451.082 90.183 454.889 89.3141 457.909 87.7004C460.93 86.0868 463.123 84.1422 464.467 81.8872C465.812 79.6322 466.412 77.3773 466.267 75.1637C466.143 73.2604 465.44 71.5641 464.136 70.4469C463.185 69.6194 461.985 69.2263 460.888 69.2677C458.778 69.3298 456.378 70.5089 453.689 72.8052C450.999 75.1016 448.393 78.0185 445.848 81.4734C443.779 84.2869 442.124 87.3695 440.945 90.7002C439.766 94.0309 439.29 97.1134 439.518 99.9683C439.725 102.616 440.594 104.809 442.124 106.568C444.524 109.257 447.089 110.54 449.862 110.457C452.323 110.374 454.909 109.381 457.578 107.457C460.268 105.533 463.66 102.658 467.757 98.8305C472.039 94.8171 475.721 91.6725 478.762 89.4176C481.804 87.1833 484.907 85.7558 488.072 85.1559C488.465 85.0525 489.003 84.9696 489.706 84.9696C491.506 84.9283 492.872 85.3835 493.823 86.3144C494.775 87.2454 495.292 88.4659 495.375 89.9348C495.457 91.5277 494.982 92.9552 493.906 94.2586C492.83 95.5412 491.32 96.2238 489.334 96.2652C484.576 96.3687 480.149 97.2996 476.114 99.0994C472.06 100.899 467.901 103.32 463.681 106.402C463.123 106.837 462.46 107.333 461.716 107.892C460.971 108.45 460.206 109.05 459.461 109.712C455.427 112.795 452.158 115.112 449.613 116.684C447.069 118.236 444.566 119.063 442.104 119.146C439.931 119.208 437.821 118.587 435.732 117.284C431.574 114.657 429.257 110.829 428.843 105.74L428.822 105.72Z" fill="var(--fill-0, white)"/>
<path id="Vector_6" d="M539.895 87.9902C539.667 81.1219 541.178 73.6122 544.488 65.5233C547.798 57.4137 552.473 49.4075 558.555 41.4634C567.761 29.5266 578.457 19.5758 590.601 11.6317C602.745 3.70826 613.937 -0.160473 624.032 0.00502887C630.528 0.108468 636.052 2.01176 640.541 5.71488C645.754 10.0179 648.32 15.6657 648.278 22.534C648.237 27.7267 646.809 33.1882 644.037 38.9394C641.265 44.6906 637.479 50.235 632.887 55.5311C627.508 61.7167 621.839 66.868 615.778 70.7987C609.737 74.7293 604.317 76.674 599.517 76.6326C594.821 76.5913 591.283 74.481 588.925 70.3435C587.787 68.3161 587.208 66.1439 587.167 63.8269C587.084 58.3239 589.525 52.2004 594.552 45.4768C599.579 38.7533 605.848 32.8986 613.357 27.9335C614.681 27.0026 616.109 26.5475 617.64 26.5682C619.171 26.5889 620.412 27.1474 621.384 28.2232C622.357 29.2989 622.832 30.5196 622.832 31.9057C622.832 32.8573 622.563 33.7882 622.005 34.6778C621.446 35.5673 620.619 36.3121 619.502 36.9328C610.978 41.6703 603.944 46.2629 598.338 50.6901C592.732 55.1379 589.98 59.4618 590.042 63.7028C590.042 65.1923 590.601 66.9507 591.759 68.4816C592.711 69.7229 594.283 70.4056 596 70.4263C599.414 70.4677 603.862 68.4195 609.427 64.3027C614.971 60.2065 620.412 55.0345 625.77 48.911C630.694 43.2839 634.79 37.5947 637.976 31.8435C641.162 26.0923 642.775 21.1066 642.796 16.8656C642.817 13.2659 641.596 10.5558 639.3 8.69392C636.548 6.48033 633.156 5.23904 629.142 5.17697C621.839 5.05285 613.275 8.30089 603.572 14.9417C593.849 21.6031 584.725 30.1472 576.202 40.4083C568.423 49.7799 562.134 59.4411 557.438 69.3919C552.742 79.3427 550.549 88.0109 550.756 95.4172C550.984 103.465 554.17 108.906 560.273 111.76C561.762 112.505 563.707 112.878 566.065 112.878C572.271 112.878 580.174 110.064 589.835 104.437C599.497 98.8099 609.468 91.5692 619.833 82.7355C621.033 81.0598 622.253 79.1979 623.494 77.1705C624.736 75.1224 625.625 73.6949 626.122 72.8467C627.425 70.8607 628.977 69.8884 630.776 69.9091C631.873 69.9091 632.783 70.3229 633.487 71.0676C634.19 71.8124 634.542 72.7226 634.521 73.7777C634.521 75.8879 633.3 77.8325 630.901 79.591C629.804 80.5219 628.418 81.4528 627.011 82.3838C625.418 83.4388 623.846 84.7422 622.295 86.0248C620.743 87.3282 619.336 88.6936 618.053 90.1624C616.171 92.4587 614.371 95.0033 612.654 97.7755C610.937 100.548 608.806 104.313 606.261 109.03C602.186 116.601 598.938 122.229 596.538 125.911C592.111 132.738 587.58 138.717 582.946 143.806C578.312 148.916 572.892 153.922 566.727 158.887C562.921 161.949 558.7 164.328 554.025 166.024C549.349 167.721 544.839 168.59 540.516 168.59C535.985 168.59 532.075 167.659 528.765 165.714C525.455 163.77 523.138 160.811 521.793 156.798C521.359 155.536 521.09 154.15 521.028 152.681C520.821 148.026 522.703 143.62 526.676 139.461C530.648 135.303 535.716 131.972 541.86 129.448C548.005 126.945 554.025 125.683 559.9 125.704C565.093 125.704 569.437 126.718 572.913 128.745C575.002 129.924 576.057 131.621 576.099 133.834C576.119 135.2 575.706 136.4 574.857 137.393C574.009 138.386 572.933 138.882 571.671 138.882C570.803 138.882 569.706 138.448 568.424 137.599C561.969 132.821 555.763 130.442 549.887 130.442C546.267 130.442 543.04 131.331 540.205 133.09C537.371 134.848 535.22 137.124 533.709 139.937C532.199 142.751 531.517 145.751 531.641 148.916C531.703 150.405 531.992 152.04 532.551 153.839C533.544 157.005 535.323 159.425 537.909 161.121C540.474 162.797 543.453 163.645 546.846 163.625C549.846 163.625 553.011 162.942 556.363 161.618C559.714 160.294 562.858 158.349 565.796 155.991C568.299 153.984 570.865 151.212 573.327 147.674C575.768 144.137 579.14 139.006 583.422 132.262C585.822 128.476 587.022 126.573 589.442 122.787C596.931 111.429 604.689 101.024 612.695 91.6313C603.386 99.534 595.007 105.678 587.477 110.002C579.947 114.346 573.099 116.498 566.893 116.477C563.645 116.477 560.583 115.774 557.687 114.409C546.308 109.009 540.35 100.196 539.936 87.9281L539.895 87.9902Z" fill="var(--fill-0, white)"/>
<path id="Vector_7" d="M628.314 107.478C628.314 103.878 629.742 99.8026 632.638 95.2513C635.534 90.7 639.382 86.0867 644.202 81.4319C648.712 77.0875 653.388 73.6946 658.187 71.2741C662.987 68.8537 667.104 67.6951 670.517 67.7779C672.627 67.84 674.179 68.4192 675.151 69.3295C676.33 70.4259 677.054 71.9155 677.034 73.8188C678.172 72.0604 678.834 71.0672 679.04 70.8604C680.178 69.3088 681.688 68.5641 683.612 68.6262C684.916 68.6675 686.074 69.1226 687.047 69.9915C688.019 70.8604 688.515 71.9361 688.474 73.2188C688.433 74.7083 687.853 76.1564 686.716 77.6046C685.992 78.639 684.75 79.9424 683.033 81.5353C681.295 83.1283 680.137 84.2247 679.516 84.8453C674.944 88.9415 671.365 92.5205 668.779 95.5616C666.193 98.6234 664.89 101.354 664.849 103.795C664.849 104.54 665.076 105.326 665.552 106.195C666.504 107.912 668.076 108.802 670.248 108.864C672.917 108.926 676.351 107.498 680.571 104.561C684.792 101.623 689.55 97.32 694.887 91.693C695.301 91.9619 695.508 92.086 695.922 92.355C690.233 99.9888 684.274 106.319 677.985 111.305C671.717 116.312 666.586 118.753 662.552 118.649C660.483 118.608 658.746 117.76 657.422 116.146C656.449 114.967 655.974 113.519 655.994 111.822C656.015 109.381 656.946 106.547 658.766 103.319C654.857 107.664 651.009 111.098 647.243 113.601C643.478 116.105 640.127 117.346 637.168 117.284C635.1 117.242 633.279 116.518 631.707 115.112C629.452 113.063 628.314 110.498 628.314 107.436V107.478ZM645.506 108.14C647.967 108.202 650.781 106.774 653.926 103.878C657.07 100.982 661.208 96.7615 666.38 91.1758C667.786 88.8587 668.49 87.7003 669.917 85.4039C671.386 82.9007 672.131 81.6594 673.62 79.1562C674.262 77.377 674.572 75.9496 674.593 74.8945C674.613 73.3015 674.075 72.1224 673.31 71.357C672.607 70.6743 671.614 70.1984 670.31 70.157C667.497 70.0743 663.897 71.5224 659.491 74.4807C655.105 77.4391 651.236 80.9974 647.905 85.1557C645.588 87.9692 643.768 90.7207 642.465 93.4515C641.161 96.1823 640.499 98.7061 640.478 101.023C640.478 103.03 641.058 104.85 642.237 106.443C643.126 107.519 644.202 108.078 645.485 108.098L645.506 108.14Z" fill="var(--fill-0, white)"/>
<path id="Vector_8" d="M686.55 110.478C686.654 106.258 688.412 101.5 691.888 96.2037C695.363 90.9283 700.08 84.6806 706.1 77.4813C707.838 75.3918 708.727 74.3368 710.486 72.2473C709.679 72.3301 708.459 72.5162 706.845 72.8265C705.231 73.1368 703.762 73.2816 702.459 73.2196C701.756 73.1989 701.156 72.93 700.68 72.4541C700.183 71.9576 699.956 71.337 699.977 70.6129C699.997 69.7647 700.266 69.0821 700.783 68.5855C701.301 68.0684 701.901 67.8408 702.604 67.8615C704.114 67.9236 706.266 68.1925 709.058 68.7304C710.507 68.9786 711.21 69.1027 712.658 69.3303C713.92 67.6959 717.189 63.3929 722.174 56.5245C726.664 50.3389 730.077 45.8704 732.084 43.4293C734.132 40.9674 736.408 39.6433 738.952 39.7468C740.38 39.8088 741.518 40.2847 742.407 41.1742C743.276 42.0638 743.69 43.181 743.628 44.5671C743.545 46.4703 742.449 48.4356 740.338 50.463C739.697 51.063 737.814 52.5732 734.691 54.973C728.008 60.0828 722.547 64.9446 718.264 69.5579C718.968 69.4752 720.313 69.3096 722.278 69.082C724.243 68.8338 726.043 68.751 727.636 68.8131C728.339 68.8338 728.939 69.1235 729.415 69.6821C729.891 70.2406 730.119 70.9232 730.077 71.7714C730.057 72.5162 729.767 73.1162 729.25 73.5714C728.732 74.0265 728.112 74.2334 727.409 74.2127C725.795 74.1506 723.374 73.7575 720.23 72.9713C718.244 72.4955 716.796 72.1439 715.885 72.0198C714.954 73.1162 714.479 73.6747 713.527 74.7919C707.983 81.4533 703.742 87.1838 700.763 91.942C697.784 96.7002 696.273 100.672 696.17 103.837C696.129 105.43 696.542 106.817 697.391 107.996C698.239 109.196 699.563 109.816 701.342 109.878C704.114 109.982 707.652 108.596 712.017 105.741C716.382 102.886 721.285 98.5621 726.809 92.7489C727.222 92.9557 727.429 93.0592 727.843 93.266C721.864 100.858 715.699 107.21 709.369 112.299C703.018 117.409 697.804 119.912 693.687 119.767C691.722 119.705 690.108 118.96 688.867 117.553C687.233 115.712 686.447 113.354 686.529 110.499L686.55 110.478Z" fill="var(--fill-0, white)"/>
<path id="Vector_9" d="M738.808 113.395C738.953 110.333 740.174 107.168 742.511 103.878C744.849 100.589 748.221 96.5755 752.648 91.7966C755.276 89.0658 757.282 86.8314 758.689 85.0937C760.075 83.3559 760.799 81.9699 760.861 80.9148C760.882 80.3769 760.758 79.9632 760.468 79.6322C760.096 79.1977 759.599 78.9494 758.999 78.9287C757.903 78.8667 756.414 79.5701 754.531 81.0182C752.648 82.4664 750.083 84.7627 746.835 87.8866C739.718 94.8584 731.154 104.664 721.306 117.284C719.755 119.228 717.955 120.16 715.886 120.097C714.604 120.056 713.507 119.58 712.597 118.711C711.686 117.822 711.252 116.746 711.293 115.484C711.335 114.532 711.645 113.539 712.287 112.505C713.445 110.333 714.604 108.471 715.741 106.919C716.879 105.368 719.651 101.727 724.12 95.9754C728.568 90.2242 735.209 81.5561 744.187 69.9916C746.939 66.3712 748.325 64.5507 751.097 60.9303C752.917 58.5719 757.096 53.2345 763.675 44.9387C770.254 36.6429 774.826 31.1814 777.329 28.5541C779.17 26.7335 781.115 25.8852 783.163 26.0094C784.487 26.0714 785.563 26.568 786.39 27.4575C787.218 28.3471 787.569 29.485 787.487 30.8504C787.383 32.5468 786.68 34.1397 785.356 35.6499C784.694 36.4568 782.584 38.3187 779.067 41.1943C778.094 42.1045 775.591 44.3181 771.598 47.8764C767.585 51.4347 763.489 55.2826 759.289 59.4202C755.089 63.5577 751.242 67.6746 747.725 71.7501C747.187 72.3708 743.318 77.1082 736.181 86.0039C729.064 94.8997 725.485 101.065 725.34 104.437C725.32 105.182 725.506 105.554 725.899 105.575C726.685 105.616 728.154 104.499 730.264 102.265C732.395 100.03 735.064 96.9065 738.332 93.0792C741.642 89.2106 743.959 86.666 745.118 85.4454C750.166 80.1701 754.138 76.3842 757.013 74.0879C759.889 71.7915 762.434 70.695 764.647 70.7985C766.261 70.8812 767.668 71.6053 768.909 72.9087C769.84 73.9017 770.295 75.205 770.212 76.7773C770.088 78.9908 769.074 81.5561 767.15 84.4938C765.247 87.4107 762.537 91.0105 759.165 95.2928C756.269 98.9339 754.117 101.913 752.669 104.106C751.221 106.319 750.455 108.161 750.393 109.629C750.352 110.374 750.58 111.016 751.035 111.574C751.697 112.34 752.71 112.753 754.096 112.836C757.055 112.981 760.986 111.533 765.93 108.492C770.854 105.45 776.026 101.23 781.446 95.7893C781.901 96.0583 782.149 96.203 782.604 96.4926C775.963 103.754 769.24 109.878 762.392 114.822C755.545 119.787 750.042 122.166 745.801 121.98C743.628 121.877 741.911 121.008 740.587 119.373C739.284 117.718 738.684 115.753 738.788 113.415L738.808 113.395Z" fill="var(--fill-0, white)"/>
<path id="Vector_10" d="M776.46 109.485C776.646 106.216 777.701 102.72 779.625 99.017C781.549 95.3139 784.011 91.7143 787.031 88.3008C790.879 83.9564 795.265 80.4808 800.126 77.8328C804.988 75.2054 809.27 74.0055 812.994 74.2124C815.394 74.3572 817.401 75.2261 819.014 76.7984C820.131 77.9362 820.607 79.6533 820.442 81.9703C820.235 84.5977 819.18 87.4732 817.235 90.5971C815.291 93.721 812.643 96.5759 809.25 99.1619C805.857 101.769 802.092 103.63 797.933 104.768C797.416 104.954 796.713 105.017 795.823 104.975C794.437 104.892 793.362 104.334 792.575 103.279C791.789 102.224 791.438 101.065 791.52 99.8032C791.603 98.6447 792.038 97.6723 792.824 96.8654C793.63 96.0586 794.768 95.707 796.258 95.7898C800.747 96.038 804.574 95.5 807.76 94.1553C810.946 92.8106 813.367 91.0522 814.98 88.88C816.594 86.7078 817.483 84.5149 817.649 82.2806C817.794 80.3773 817.339 78.8257 816.325 77.5844C815.58 76.6948 814.608 76.1984 813.408 76.1364C811.298 76.0122 808.795 76.9432 805.878 78.9499C802.981 80.9566 799.899 83.6046 796.837 86.9353C794.355 89.6247 792.286 92.5624 790.651 95.6449C788.996 98.7274 788.086 101.706 787.921 104.541C787.755 107.065 788.252 109.402 789.41 111.45C790.962 114.181 793.403 115.65 796.568 115.816C800.023 116.022 804.181 114.719 809.043 111.947C813.904 109.175 819.138 105.203 824.724 100.051C825.055 100.444 825.221 100.651 825.552 101.065C820.483 107.209 814.422 112.63 807.388 117.346C800.354 122.063 794.168 124.277 788.748 123.966C785.893 123.801 783.473 122.932 781.507 121.339C777.825 118.381 776.129 114.429 776.418 109.485H776.46Z" fill="var(--fill-0, white)"/>
<path id="Vector_11" d="M828.097 116.643C828.428 112.422 831.821 107.768 838.337 102.699C839.434 101.809 839.972 101.375 841.068 100.506C844.916 97.4857 847.998 94.9411 850.295 92.8723C852.591 90.8036 854.432 88.7141 855.818 86.5833C856.274 85.8799 856.563 85.0938 856.625 84.2456C856.749 82.7767 856.232 81.4527 855.074 80.3148C853.915 79.177 852.632 78.5565 851.226 78.453C850.419 78.391 849.653 78.6185 848.909 79.0943C846.199 81.3493 842.454 84.7007 837.717 89.1486C832.979 93.5964 828.614 97.9202 824.601 102.12C824.27 101.644 824.125 101.416 823.794 100.961C832.4 91.9001 836.744 87.3901 845.495 78.3909C846.261 77.6048 846.716 76.5704 846.819 75.3084C846.881 74.5637 846.654 72.9914 846.302 70.6537C845.806 67.4885 845.702 65.1507 845.806 63.7853C845.95 62.1096 846.674 60.7649 847.957 59.7926C849.26 58.8203 850.667 58.3858 852.177 58.4893C853.584 58.5927 854.784 59.1513 855.777 60.165C856.749 61.1787 857.163 62.7096 856.977 64.6956C856.894 65.5438 856.439 66.7024 855.756 68.1091C854.846 70.0124 854.267 71.7087 854.122 72.9293C854.039 73.6327 854.308 74.3982 854.846 75.1223C855.384 75.8464 856.212 76.7566 857.349 77.7703C858.901 79.1564 860.142 80.439 860.949 81.5975C861.756 82.7767 862.087 84.1008 861.942 85.5696C861.652 88.7348 860.349 91.7139 858.032 94.5068C855.715 97.3203 852.446 100.527 848.247 104.147C845.537 106.506 843.571 108.347 842.309 109.712C841.047 111.057 840.365 112.319 840.282 113.477C840.22 114.222 840.365 114.801 840.737 115.257C841.709 116.601 842.992 117.325 844.585 117.429C850.005 117.801 859.315 111.615 872.782 98.9338C873.175 99.1614 873.382 99.2649 873.775 99.4925C866.762 107.664 859.873 114.222 853.067 119.146C846.261 124.07 840.675 126.387 836.248 126.097C833.786 125.931 831.8 124.897 830.269 122.994C828.655 120.987 827.931 118.877 828.097 116.663V116.643Z" fill="var(--fill-0, white)"/>
<path id="Vector_12" d="M858.632 121.753C858.838 119.539 859.749 117.119 861.404 114.471C863.038 111.823 865.293 108.658 868.127 104.934C869.017 103.734 869.472 103.134 870.361 101.913C870.92 101.21 871.561 100.362 872.265 99.348C872.968 98.3343 873.775 97.1758 874.706 95.8725C879.795 88.9421 883.291 84.3287 885.133 82.0324C886.395 80.5429 888.029 79.8602 890.036 80.0257C891.339 80.1292 892.394 80.6049 893.221 81.4738C894.049 82.3427 894.38 83.3978 894.256 84.6598C894.111 86.0252 893.47 87.4112 892.311 88.7973C891.401 89.8938 888.649 92.2728 884.181 95.9552C879.257 100.01 875.43 103.486 872.72 106.299C869.989 109.113 868.541 111.699 868.313 113.995C868.189 115.257 868.541 116.395 869.327 117.408C870.299 118.65 871.623 119.333 873.299 119.457C878.719 119.87 887.305 114.533 899.221 103.506C899.614 103.734 899.821 103.837 900.214 104.065C893.821 111.285 887.263 117.264 880.519 122.001C873.775 126.739 868.417 128.952 864.383 128.663C862.314 128.518 860.783 127.628 859.728 126.097C858.88 124.877 858.487 123.408 858.652 121.732L858.632 121.753ZM900.586 61.0549C902.138 60.2688 903.627 59.9378 905.055 60.062C906.275 60.1654 907.351 60.6205 908.282 61.448C909.772 62.7307 910.392 64.5926 910.123 67.013C909.875 69.3301 908.861 71.523 907.124 73.6124C905.944 75.102 904.579 76.2191 903.048 76.9431C901.497 77.6672 900.028 77.9775 898.621 77.8534C897.525 77.7707 896.449 77.357 895.394 76.6329C894.008 75.3503 893.428 73.5091 893.677 71.0886C893.925 68.6681 894.897 66.4545 896.49 64.4685C897.669 62.9996 899.035 61.8411 900.586 61.0549Z" fill="var(--fill-0, white)"/>
<path id="Vector_13" d="M910 124.173C910.351 121.132 911.882 117.988 914.654 114.76C917.426 111.554 921.274 107.706 926.219 103.258C929.363 100.444 931.701 98.2723 933.19 96.7C934.68 95.1278 935.507 93.8244 935.632 92.7693C935.694 92.2521 935.59 91.8176 935.342 91.466C934.701 90.8867 934.08 90.5558 933.48 90.4937C929.57 90.142 921.833 95.5208 910.455 106.672C908.096 108.927 903.4 113.726 896.428 121.112C894.07 123.594 892.891 124.835 890.553 127.318C889.105 128.911 887.532 129.614 885.857 129.49C884.678 129.387 883.685 128.869 882.898 127.897C882.112 126.925 881.761 125.828 881.905 124.566C882.03 123.304 882.609 122.084 883.623 120.884C884.078 120.284 885.774 118.298 888.712 114.926C893.697 109.278 897.318 105.058 899.511 102.265C902.552 98.3964 905.489 94.4243 908.344 90.4109C909.834 88.3628 910.579 87.3491 912.089 85.301C913.971 82.9013 916.02 81.8047 918.233 81.9909C919.433 82.0944 920.405 82.5496 921.109 83.3564C921.833 84.1632 922.123 85.1976 921.978 86.4595C921.833 87.7215 921.026 89.2111 919.661 90.8868C918.481 92.3556 916.868 93.9485 914.82 95.5828C912.772 97.2171 911.53 98.2309 911.075 98.6033C906.42 102.451 903.09 105.534 901.021 107.809C898.063 111.078 896.015 113.457 894.856 114.947C893.698 116.436 893.387 117.491 893.925 118.05C894.36 118.505 895.518 117.905 897.338 116.25C899.159 114.595 902.035 111.802 905.965 107.871C908.593 105.223 909.917 103.899 912.565 101.251C918.544 95.3759 923.798 90.8247 928.287 87.5354C932.777 84.2667 936.583 82.7771 939.686 83.046C941.383 83.1908 942.769 83.915 943.845 85.1769C944.9 86.4389 945.334 87.9697 945.107 89.7488C944.817 92.1693 943.514 94.838 941.238 97.7757C938.962 100.713 935.756 104.375 931.618 108.637C928.577 111.761 926.177 114.367 924.522 116.457C922.867 118.546 921.978 120.263 921.812 121.629C921.729 122.27 921.916 122.87 922.35 123.429C922.95 124.235 923.943 124.691 925.329 124.815C928.184 125.063 932.239 123.76 937.494 120.884C942.748 118.008 948.313 113.933 954.23 108.637C954.54 109.051 954.685 109.257 954.995 109.671C947.982 116.457 940.948 122.105 933.852 126.614C926.757 131.124 921.088 133.214 916.764 132.842C914.509 132.655 912.73 131.642 911.448 129.842C910.248 128.145 909.772 126.242 910 124.153V124.173Z" fill="var(--fill-0, white)"/>
<path id="Vector_14" d="M911.571 176.079C911.923 173.141 913.392 169.934 915.998 166.5C918.605 163.066 922.039 159.715 926.28 156.487C937.39 147.798 950.092 142.006 964.325 139.151C966.518 136.234 967.614 134.786 969.807 131.869C972.745 128 974.214 126.076 977.152 122.228C972.517 126.656 967.945 130.09 963.436 132.531C958.926 134.972 954.995 136.027 951.643 135.717C949.678 135.531 947.94 134.724 946.43 133.317C944.424 131.103 943.596 128.476 943.989 125.435C944.444 121.856 946.389 117.925 949.844 113.622C953.298 109.319 957.726 105.016 963.146 100.754C968.214 96.7617 973.304 93.762 978.413 91.7139C983.523 89.6658 987.785 88.8176 991.199 89.1693C993.309 89.3762 994.778 90.0796 995.667 91.0726C996.722 92.2518 997.26 93.7413 997.012 95.5205C997.984 94.3413 998.77 93.4724 999.37 92.8931C1000.2 92.0242 1001.15 91.3829 1002.16 90.9485C1003.2 90.5347 1004.17 90.3692 1005.06 90.452C1006.26 90.5761 1007.23 91.114 1007.96 92.045C1008.68 92.9759 1008.95 94.0723 1008.76 95.3342C1008.53 96.9065 1007.71 98.4168 1006.4 99.8856C1005.31 101.127 1002.72 103.444 998.708 106.754C995.253 109.588 992.316 112.133 989.875 114.388C987.433 116.643 985.302 118.96 983.461 121.318C978.041 128.435 973.614 134.062 970.138 138.179C978.062 137.041 986.089 136.896 994.157 137.744C1001.63 138.53 1008.7 140.082 1015.34 142.42C1016.95 143.02 1018.09 143.847 1018.78 144.882C1019.46 145.916 1019.71 147.054 1019.5 148.316C1019.29 149.681 1018.57 150.881 1017.35 151.915C1016.13 152.95 1014.74 153.384 1013.19 153.219C1012.4 153.136 1011.6 152.888 1010.77 152.474C998.584 146.35 987.62 142.813 978 141.84C974.359 141.468 970.78 141.447 967.263 141.737C955.802 156.301 935.755 183.775 918.067 185.326C916.619 185.45 914.592 184.271 913.268 182.678C911.82 180.899 911.261 178.685 911.551 176.161L911.571 176.079ZM924.791 175.81C930.79 176.348 941.3 167.245 956.774 148.626C958.781 146.081 959.795 144.799 961.801 142.254C951.271 144.323 940.369 149.681 929.135 158.349C926.963 160.066 924.998 161.99 923.26 164.121C921.522 166.252 920.55 168.217 920.343 169.996C920.136 171.672 920.695 173.224 921.977 174.61C922.763 175.313 923.694 175.727 924.77 175.81H924.791ZM961.532 127.566C964.304 127.835 967.863 126.407 972.249 123.263C976.634 120.139 981.02 116.291 985.385 111.719C987.247 109.257 989.15 106.464 991.116 103.361C991.881 102.223 992.274 101.665 993.04 100.527C993.495 99.4098 993.785 98.4789 993.888 97.7341C994.074 96.4721 993.847 95.4997 993.247 94.7963C992.192 93.7206 990.847 93.1207 989.233 92.9552C985.82 92.6035 981.641 93.8862 976.676 96.8031C971.711 99.7201 967.304 103.361 963.456 107.726C959.608 112.091 957.457 116.105 956.96 119.787C956.65 122.104 957.002 124.028 958.015 125.476C958.905 126.718 960.105 127.421 961.491 127.566H961.532Z" fill="var(--fill-0, white)"/>
<path id="Vector_15" d="M113.809 131.207C113.726 128.165 114.74 124.959 116.829 121.566C118.919 118.173 121.981 113.974 126.056 108.988C128.477 106.112 130.318 103.795 131.58 101.975C132.842 100.175 133.462 98.7475 133.442 97.7131C133.442 97.1959 133.276 96.782 132.966 96.4717C132.552 96.058 132.056 95.8511 131.456 95.8718C130.359 95.8718 128.932 96.6787 127.173 98.2303C125.415 99.7819 123.015 102.202 120.015 105.512C113.416 112.856 105.596 123.076 96.7003 136.192C95.2935 138.22 93.5558 139.254 91.5077 139.316C90.2457 139.358 89.1285 138.964 88.1562 138.137C87.2046 137.33 86.6874 136.296 86.646 135.034C86.6047 134.082 86.8736 133.089 87.4322 132.034C88.4459 129.8 89.4595 127.897 90.4939 126.304C91.5283 124.711 94.0315 120.925 98.045 114.967C102.079 109.009 108.079 100.009 116.209 88.0105C118.712 84.2453 119.953 82.3833 122.477 78.6182C124.132 76.177 127.918 70.6328 133.876 62.006C139.855 53.3791 144.034 47.69 146.33 44.9385C148.047 43.0353 149.909 42.0629 151.937 42.0422C153.261 42.0422 154.357 42.4353 155.226 43.2628C156.095 44.0903 156.529 45.1867 156.55 46.5521C156.55 48.2278 155.971 49.8623 154.75 51.4345C154.15 52.2827 152.185 54.248 148.875 57.3098C147.965 58.2614 145.648 60.6199 141.903 64.3851C138.159 68.1503 134.352 72.2257 130.463 76.5701C126.573 80.9352 123.036 85.2383 119.829 89.4793C119.333 90.1206 115.816 95.0443 109.341 104.292C102.865 113.539 99.7414 119.849 99.8448 123.2C99.8655 123.924 100.072 124.297 100.465 124.276C101.252 124.276 102.617 123.076 104.582 120.718C106.548 118.38 108.989 115.132 111.968 111.139C114.988 107.105 117.119 104.437 118.174 103.154C122.829 97.6303 126.511 93.6375 129.221 91.1757C131.911 88.7138 134.373 87.4726 136.566 87.4519C138.159 87.4312 139.627 88.0518 140.931 89.2724C141.924 90.2034 142.462 91.4446 142.482 93.0169C142.503 95.2098 141.676 97.8165 139.958 100.837C138.262 103.837 135.821 107.581 132.759 112.029C130.152 115.815 128.208 118.877 126.925 121.152C125.642 123.428 125.001 125.29 125.043 126.759C125.043 127.483 125.311 128.124 125.808 128.641C126.511 129.365 127.546 129.717 128.932 129.696C131.87 129.655 135.676 127.959 140.351 124.648C145.027 121.338 149.868 116.829 154.874 111.119C155.35 111.367 155.598 111.491 156.074 111.739C149.992 119.332 143.744 125.807 137.29 131.144C130.835 136.482 125.539 139.192 121.339 139.275C119.188 139.316 117.409 138.571 116.002 137.02C114.595 135.468 113.85 133.565 113.809 131.248V131.207Z" fill="var(--fill-0, white)"/>
<path id="Vector_16" d="M150.882 124.959C150.841 121.711 151.647 118.194 153.303 114.408C154.958 110.623 157.15 106.899 159.902 103.34C163.419 98.8097 167.536 95.086 172.17 92.169C176.804 89.2521 180.983 87.8039 184.665 87.7832C187.065 87.7832 189.092 88.5073 190.789 89.9554C191.968 91.0105 192.568 92.6862 192.547 94.9825C192.547 97.6099 191.658 100.506 189.961 103.713C188.244 106.919 185.803 109.898 182.638 112.691C179.473 115.484 175.852 117.574 171.818 118.96C171.322 119.166 170.639 119.291 169.749 119.291C168.363 119.291 167.267 118.815 166.419 117.822C165.57 116.829 165.157 115.712 165.157 114.45C165.157 113.291 165.529 112.298 166.253 111.45C166.998 110.602 168.115 110.188 169.584 110.167C174.032 110.147 177.797 109.361 180.859 107.83C183.941 106.299 186.196 104.416 187.644 102.141C189.092 99.8856 189.837 97.6512 189.837 95.4583C189.837 93.5757 189.299 92.0655 188.223 90.907C187.437 90.0795 186.444 89.6658 185.244 89.6658C183.155 89.6658 180.714 90.7622 177.983 92.9138C175.232 95.0653 172.377 97.8994 169.563 101.375C167.267 104.189 165.426 107.209 164.019 110.374C162.591 113.519 161.888 116.518 161.909 119.353C161.909 121.877 162.571 124.152 163.853 126.097C165.591 128.683 168.094 129.986 171.239 129.966C174.673 129.945 178.686 128.393 183.341 125.352C187.975 122.29 192.878 118.049 198.071 112.588C198.423 112.96 198.609 113.146 198.96 113.539C194.347 119.932 188.72 125.662 182.079 130.772C175.438 135.882 169.46 138.448 164.081 138.51C161.247 138.53 158.785 137.827 156.737 136.379C152.889 133.689 150.944 129.904 150.903 124.98L150.882 124.959Z" fill="var(--fill-0, white)"/>
<path id="Vector_17" d="M54.7872 154.253C53.9183 154.419 53.3804 154.108 53.1529 153.281C53.0081 152.763 53.0494 152.226 53.2977 151.646C60.9315 131.124 68.7721 110.602 78.0196 90.6587C86.1912 73.0327 95.6249 55.1999 106.052 38.3394C100.942 39.2496 95.4593 39.5806 89.584 39.353C83.7087 39.1255 76.5714 38.4841 68.2756 37.6359C59.6075 36.7464 52.5529 36.312 47.3396 36.1672C42.1263 36.0224 37.2026 36.4154 32.5685 37.305C26.9414 38.4014 22.3281 40.3874 18.7905 43.2217C14.4874 46.6558 11.6532 51.0003 10.3912 56.2756C9.12925 61.5303 9.58439 67.4057 11.6325 73.881C12.8737 77.8116 15.0253 81.2044 18.0664 83.9766C21.1075 86.7488 24.5624 88.7554 28.3896 89.9967C32.2168 91.2173 35.9199 91.4862 39.4575 90.8035C44.7743 89.7692 48.6015 86.5419 50.9806 81.1424C53.3597 75.7429 53.2356 68.1504 50.5876 58.3444C50.0911 56.5032 50.1738 54.993 50.8565 53.7931C51.5392 52.5932 52.5115 51.8691 53.8149 51.6209C55.1182 51.3726 56.3388 51.6623 57.4973 52.4484C58.6558 53.2553 59.4626 54.5172 59.9177 56.2549C60.1246 57.0824 60.2488 57.7031 60.2488 58.1169C61.097 68.3573 59.2144 76.5497 54.6631 82.694C50.0911 88.8382 44.1123 92.6241 36.644 94.093C31.7203 95.0653 26.7966 94.9618 21.8316 93.8033C16.8665 92.6448 12.4807 90.4932 8.69482 87.328C4.90896 84.1628 2.2816 80.1907 0.895519 75.4118C-0.738815 69.8261 -0.13886 64.1784 2.71605 58.4685C5.57097 52.7794 10.0809 47.3386 16.1217 42.146C23.7348 35.6293 32.9202 31.2641 43.5951 29.2367C51.0634 27.8092 58.4489 27.4576 65.7517 28.1196C73.0545 28.8023 81.8675 30.0228 91.6114 32.0709C98.9763 33.6225 104.624 34.6776 108.327 34.8638C110.665 34.988 112.816 34.8638 114.823 34.5328C121.133 33.4363 127.567 30.6643 134.166 26.2371C134.89 25.8026 135.573 25.5129 136.173 25.4095C137.373 25.2026 138.428 25.4509 139.317 26.1542C140.207 26.8576 140.786 27.7679 141.055 28.9057C141.345 30.147 141.117 31.3469 140.414 32.5261C139.69 33.7053 138.449 34.7397 136.773 35.381C135.035 36.043 133.07 36.4775 131.166 36.8085C128.27 37.305 125.208 37.574 121.981 37.5946C118.754 37.6153 116.871 37.636 116.354 37.5946C114.161 37.5946 113.065 37.5946 110.872 37.5946C102.059 51.6416 94.6318 66.785 88.6737 82.9215C81.1848 103.237 75.1853 123.987 69.91 144.799C69.5376 146.371 68.1101 147.405 65.6069 147.881C65.2138 147.964 64.3036 148.109 62.8554 148.336C61.4073 148.564 60.1453 149.019 59.0696 149.722C57.9938 150.426 57.187 151.398 56.6491 152.701C56.2767 153.529 55.6561 154.025 54.7872 154.191V154.253Z" fill="var(--fill-0, white)"/>
</g>
</svg>
