<svg preserveAspectRatio="none" width="100%" height="100%" overflow="visible" style="display: block;" viewBox="0 0 315 136" fill="none" xmlns="http://www.w3.org/2000/svg">
<g id="hero-logo">
<path d="M89.9384 122.589C89.7278 122.603 89.6103 122.515 89.576 122.315C89.5564 122.187 89.5809 122.06 89.6543 121.928C92.0593 117.27 94.4985 112.622 97.261 108.14C99.7003 104.183 102.433 100.215 105.377 96.4978C104.143 96.5713 102.835 96.4978 101.454 96.2823C100.073 96.0668 98.3974 95.7142 96.4627 95.2832C94.4398 94.8326 92.7793 94.5338 91.5548 94.3575C90.3254 94.1812 89.1498 94.1371 88.0331 94.2203C86.6714 94.3232 85.5253 94.6709 84.6093 95.244C83.4926 95.9395 82.704 96.8946 82.2582 98.1092C81.8125 99.3239 81.7537 100.73 82.0525 102.321C82.2338 103.291 82.6452 104.153 83.2868 104.898C83.9285 105.642 84.6828 106.21 85.5546 106.612C86.4265 107.009 87.2886 107.175 88.1457 107.107C89.4339 107.009 90.4282 106.352 91.1433 105.133C91.8585 103.918 92.0446 102.111 91.7017 99.7108C91.6381 99.2602 91.7017 98.9027 91.8928 98.6382C92.0887 98.3737 92.3385 98.2268 92.6569 98.2023C92.9703 98.1778 93.2544 98.2807 93.5042 98.5011C93.754 98.7215 93.9108 99.0447 93.9695 99.4708C93.9989 99.6717 94.0038 99.8235 93.994 99.9215C93.901 102.375 93.225 104.266 91.9711 105.598C90.7172 106.93 89.1939 107.665 87.3816 107.807C86.1914 107.9 85.0257 107.743 83.8893 107.327C82.7481 106.916 81.7733 106.279 80.97 105.427C80.1619 104.57 79.6623 103.556 79.4663 102.385C79.241 101.014 79.5398 99.6863 80.3774 98.4178C81.215 97.1444 82.4297 95.9787 84.0069 94.9158C85.9857 93.5787 88.2829 92.7999 90.8642 92.6138C92.6666 92.4816 94.4251 92.5991 96.1345 92.9665C97.8439 93.3289 99.8913 93.8628 102.144 94.622C103.844 95.195 105.147 95.6015 106.019 95.7485C106.567 95.8415 107.082 95.8758 107.567 95.8464C109.095 95.7583 110.692 95.2832 112.381 94.4162C112.568 94.333 112.734 94.284 112.876 94.2791C113.165 94.2644 113.41 94.3526 113.601 94.5436C113.792 94.7346 113.905 94.9697 113.934 95.244C113.968 95.5428 113.88 95.8268 113.679 96.0864C113.479 96.3509 113.155 96.5566 112.739 96.6644C112.308 96.7721 111.833 96.826 111.372 96.8505C110.672 96.8897 109.937 96.8652 109.173 96.7819C108.409 96.6986 107.963 96.6497 107.841 96.6301C107.322 96.5664 107.062 96.537 106.543 96.4782C104.064 99.5688 101.875 102.953 100.009 106.622C97.6578 111.236 95.6447 115.996 93.7883 120.786C93.6561 121.149 93.2838 121.355 92.6813 121.399C92.5883 121.404 92.3679 121.418 92.0152 121.433C91.6625 121.448 91.354 121.521 91.0797 121.658C90.8054 121.795 90.585 122.006 90.4184 122.295C90.3058 122.481 90.1441 122.584 89.9384 122.599V122.589Z" fill="var(--fill-0, #1E1E1E)"/>
<path d="M103.717 118.499C103.584 117.5 104.143 116.3 105.411 114.914C105.622 114.674 105.73 114.556 105.94 114.316C106.69 113.489 107.278 112.798 107.709 112.244C108.14 111.691 108.463 111.142 108.683 110.599C108.757 110.418 108.781 110.227 108.757 110.026C108.713 109.678 108.532 109.384 108.203 109.149C107.875 108.919 107.547 108.811 107.214 108.831C107.023 108.84 106.851 108.914 106.705 109.051C106.18 109.663 105.48 110.56 104.593 111.75C103.712 112.94 102.904 114.086 102.179 115.193C102.081 115.095 102.032 115.046 101.934 114.943C103.491 112.558 104.28 111.363 105.877 108.983C106.019 108.772 106.068 108.517 106.034 108.218C106.014 108.042 105.882 107.68 105.686 107.141C105.416 106.416 105.274 105.867 105.235 105.544C105.186 105.143 105.289 104.81 105.544 104.545C105.798 104.281 106.107 104.134 106.465 104.114C106.798 104.094 107.106 104.188 107.385 104.398C107.665 104.609 107.831 104.952 107.89 105.427C107.914 105.627 107.865 105.912 107.777 106.264C107.66 106.734 107.611 107.151 107.635 107.445C107.65 107.616 107.748 107.783 107.909 107.939C108.071 108.096 108.311 108.282 108.62 108.483C109.046 108.762 109.403 109.022 109.648 109.276C109.893 109.526 110.035 109.83 110.079 110.178C110.167 110.927 110.011 111.667 109.614 112.396C109.217 113.126 108.615 113.978 107.812 114.958C107.297 115.595 106.93 116.089 106.705 116.442C106.479 116.795 106.381 117.113 106.416 117.387C106.44 117.564 106.504 117.696 106.607 117.789C106.9 118.073 107.238 118.205 107.611 118.181C108.894 118.102 110.755 116.369 113.258 112.984C113.361 113.023 113.415 113.043 113.518 113.082C112.293 115.213 111.015 116.956 109.678 118.323C108.34 119.684 107.155 120.399 106.107 120.463C105.524 120.497 105.01 120.316 104.554 119.919C104.074 119.498 103.8 119.023 103.731 118.499H103.717Z" fill="var(--fill-0, #1E1E1E)"/>
<path d="M111.088 118.768C111.025 118.244 111.118 117.647 111.368 116.976C111.617 116.305 111.98 115.492 112.46 114.537C112.607 114.228 112.68 114.071 112.832 113.763C112.93 113.582 113.033 113.361 113.146 113.102C113.258 112.842 113.39 112.548 113.542 112.21C114.385 110.427 114.968 109.242 115.286 108.645C115.506 108.258 115.854 108.052 116.329 108.027C116.638 108.013 116.907 108.091 117.142 108.272C117.377 108.449 117.51 108.689 117.539 108.987C117.573 109.311 117.49 109.658 117.294 110.021C117.137 110.305 116.618 110.947 115.756 111.946C114.811 113.048 114.091 113.978 113.601 114.723C113.106 115.467 112.896 116.114 112.959 116.667C112.994 116.966 113.131 117.226 113.366 117.436C113.655 117.696 113.998 117.818 114.395 117.799C115.678 117.73 117.407 116.217 119.631 113.268C119.733 113.307 119.787 113.327 119.89 113.371C118.764 115.262 117.534 116.863 116.202 118.176C114.87 119.488 113.733 120.174 112.778 120.228C112.288 120.257 111.887 120.091 111.563 119.768C111.304 119.508 111.142 119.175 111.093 118.773L111.088 118.768ZM117.853 103.257C118.176 103.027 118.509 102.904 118.842 102.89C119.131 102.875 119.4 102.953 119.66 103.115C120.071 103.374 120.306 103.791 120.36 104.364C120.414 104.912 120.292 105.461 119.988 106.005C119.787 106.392 119.528 106.69 119.2 106.911C118.876 107.126 118.548 107.244 118.215 107.258C117.955 107.273 117.686 107.209 117.407 107.072C117.02 106.813 116.795 106.396 116.736 105.823C116.672 105.25 116.795 104.697 117.064 104.183C117.265 103.801 117.524 103.487 117.848 103.257H117.853Z" fill="var(--fill-0, #1E1E1E)"/>
<path d="M119.155 116.8C119.013 115.448 119.317 113.787 120.086 111.813C120.855 109.84 121.913 107.959 123.27 106.166C123.872 105.402 124.171 105.02 124.778 104.256C126.062 102.596 127.203 101.195 128.202 100.049C129.201 98.9076 130.279 97.8497 131.435 96.8848C131.817 96.5468 132.243 96.3705 132.699 96.3509C133.135 96.3362 133.502 96.4685 133.801 96.7476C134.099 97.0268 134.266 97.3697 134.295 97.7664C134.339 98.3443 134.075 98.8145 133.502 99.1868C131.107 100.671 129.201 101.993 127.771 103.154C126.336 104.315 125.126 105.583 124.137 106.955C123.314 108.096 122.653 109.345 122.143 110.697C121.639 112.053 121.438 113.229 121.541 114.233C121.624 115.061 121.928 115.717 122.442 116.153C122.863 116.511 123.387 116.677 123.975 116.653C124.818 116.618 125.631 116.182 126.424 115.345C126.282 114.85 126.199 114.463 126.174 114.189C126.062 113.013 126.248 111.446 126.733 109.492C127.085 108.424 127.658 107.925 128.383 108.032C128.859 108.106 129.216 108.312 129.437 108.615C129.652 108.924 129.755 109.286 129.745 109.717C129.667 111.025 129.265 112.387 128.545 113.797C128.467 114.228 128.437 114.566 128.462 114.816C128.521 115.492 128.8 115.82 129.29 115.8C129.779 115.781 130.406 115.438 131.175 114.772C131.939 114.106 132.62 113.332 133.208 112.46C133.286 112.563 133.326 112.612 133.404 112.72C132.708 113.773 131.876 114.742 130.891 115.634C129.912 116.525 129.05 116.986 128.3 117.015C128.065 117.025 127.82 116.971 127.58 116.853C127.36 116.746 127.13 116.545 126.894 116.275C126.091 117.24 125.244 118.014 124.357 118.607C123.466 119.199 122.638 119.513 121.869 119.547C121.521 119.562 121.149 119.493 120.757 119.337C119.826 118.925 119.288 118.088 119.155 116.809V116.8Z" fill="var(--fill-0, #1E1E1E)"/>
<path d="M132.351 116.173C132.282 115.369 132.405 114.512 132.718 113.596C133.032 112.68 133.517 111.794 134.114 110.951C134.883 109.869 135.794 108.934 136.857 108.214C137.92 107.494 138.895 107.121 139.771 107.097C140.438 107.077 140.962 107.244 141.339 107.582C141.613 107.827 141.77 108.174 141.799 108.625C141.838 109.227 141.662 109.933 141.265 110.746C140.873 111.559 140.33 112.313 139.634 113.009C138.944 113.704 138.175 114.218 137.327 114.542C137.215 114.595 137.053 114.625 136.842 114.63C136.49 114.64 136.201 114.532 135.971 114.297C135.74 114.066 135.613 113.797 135.588 113.498C135.569 113.224 135.637 112.994 135.799 112.813C135.961 112.631 136.206 112.538 136.539 112.529C137.621 112.494 138.522 112.289 139.238 111.907C139.953 111.525 140.472 111.064 140.79 110.53C141.109 109.996 141.251 109.463 141.216 108.938C141.187 108.488 141.02 108.086 140.712 107.822C140.487 107.626 140.202 107.533 139.943 107.543C139.443 107.557 138.875 107.836 138.238 108.38C137.602 108.924 136.984 109.614 136.382 110.432C135.892 111.098 135.5 111.828 135.221 112.617C134.942 113.405 134.829 114.135 134.883 114.811C134.932 115.438 135.138 115.957 135.5 116.373C136.068 117.01 136.676 117.314 137.332 117.294C137.915 117.275 138.527 117.04 139.159 116.584C139.796 116.129 140.599 115.448 141.569 114.542C142.583 113.591 143.455 112.847 144.175 112.313C144.895 111.784 145.63 111.446 146.379 111.304C146.472 111.28 146.599 111.26 146.766 111.26C147.192 111.25 147.515 111.358 147.741 111.578C147.966 111.799 148.088 112.088 148.108 112.436C148.128 112.813 148.015 113.151 147.76 113.459C147.505 113.763 147.148 113.924 146.678 113.934C145.551 113.959 144.503 114.179 143.548 114.605C142.588 115.031 141.603 115.604 140.604 116.334C140.472 116.437 140.315 116.555 140.139 116.687C139.962 116.819 139.781 116.961 139.605 117.118C138.65 117.848 137.876 118.396 137.273 118.768C136.671 119.136 136.078 119.332 135.495 119.351C134.981 119.366 134.482 119.219 133.987 118.91C133.002 118.288 132.454 117.382 132.356 116.177L132.351 116.173Z" fill="var(--fill-0, #1E1E1E)"/>
<path d="M158.649 111.975C158.595 110.349 158.952 108.571 159.736 106.656C160.52 104.736 161.627 102.841 163.067 100.96C165.246 98.1337 167.779 95.7779 170.654 93.8971C173.529 92.0212 176.179 91.1053 178.569 91.1445C180.107 91.169 181.415 91.6196 182.478 92.4963C183.712 93.515 184.319 94.8522 184.31 96.4783C184.3 97.7076 183.962 99.0007 183.305 100.362C182.649 101.724 181.753 103.037 180.665 104.29C179.392 105.755 178.05 106.974 176.615 107.905C175.184 108.836 173.901 109.296 172.765 109.286C171.653 109.276 170.815 108.777 170.257 107.797C169.988 107.317 169.85 106.803 169.841 106.254C169.821 104.952 170.399 103.502 171.589 101.91C172.78 100.318 174.264 98.9321 176.042 97.7566C176.355 97.5362 176.693 97.4284 177.056 97.4333C177.418 97.4382 177.712 97.5705 177.942 97.8252C178.172 98.0799 178.285 98.3688 178.285 98.697C178.285 98.9223 178.221 99.1427 178.089 99.3533C177.957 99.5639 177.761 99.7402 177.496 99.8872C175.478 101.009 173.813 102.096 172.486 103.144C171.158 104.197 170.507 105.221 170.522 106.225C170.522 106.578 170.654 106.994 170.928 107.356C171.153 107.65 171.526 107.812 171.932 107.817C172.74 107.827 173.793 107.342 175.111 106.367C176.424 105.397 177.712 104.173 178.981 102.723C180.146 101.391 181.116 100.044 181.87 98.6823C182.625 97.3207 183.007 96.1403 183.012 95.1362C183.017 94.284 182.728 93.6424 182.184 93.2016C181.532 92.6775 180.729 92.3836 179.779 92.3689C178.05 92.3396 176.022 93.1085 173.725 94.6807C171.423 96.2578 169.263 98.2807 167.245 100.71C165.403 102.929 163.914 105.216 162.802 107.572C161.69 109.928 161.171 111.98 161.22 113.733C161.274 115.639 162.028 116.927 163.473 117.603C163.826 117.779 164.286 117.867 164.845 117.867C166.314 117.867 168.185 117.201 170.473 115.869C172.76 114.537 175.121 112.822 177.575 110.731C177.859 110.334 178.148 109.894 178.442 109.414C178.736 108.929 178.946 108.591 179.064 108.39C179.372 107.92 179.74 107.689 180.166 107.694C180.425 107.694 180.641 107.792 180.807 107.969C180.974 108.145 181.057 108.36 181.052 108.61C181.052 109.11 180.763 109.57 180.195 109.987C179.936 110.207 179.607 110.427 179.274 110.648C178.897 110.898 178.525 111.206 178.158 111.51C177.79 111.818 177.457 112.142 177.154 112.489C176.708 113.033 176.282 113.635 175.875 114.292C175.469 114.948 174.964 115.84 174.362 116.956C173.397 118.749 172.628 120.081 172.06 120.953C171.011 122.569 169.939 123.985 168.841 125.19C167.744 126.399 166.461 127.585 165.001 128.76C164.1 129.485 163.101 130.048 161.994 130.45C160.887 130.852 159.819 131.057 158.796 131.057C157.723 131.057 156.797 130.837 156.013 130.376C155.23 129.916 154.681 129.216 154.363 128.265C154.26 127.967 154.196 127.639 154.182 127.291C154.133 126.189 154.578 125.145 155.519 124.161C156.459 123.177 157.659 122.388 159.114 121.79C160.569 121.198 161.994 120.899 163.385 120.904C164.614 120.904 165.643 121.144 166.466 121.624C166.961 121.903 167.21 122.305 167.22 122.829C167.225 123.152 167.127 123.436 166.926 123.671C166.726 123.906 166.471 124.024 166.172 124.024C165.966 124.024 165.707 123.921 165.403 123.72C163.875 122.589 162.405 122.026 161.014 122.026C160.157 122.026 159.393 122.236 158.722 122.652C158.051 123.069 157.542 123.608 157.184 124.274C156.827 124.94 156.665 125.65 156.694 126.399C156.709 126.752 156.778 127.139 156.91 127.565C157.145 128.314 157.566 128.887 158.178 129.289C158.786 129.686 159.491 129.887 160.294 129.882C161.005 129.882 161.754 129.72 162.547 129.407C163.341 129.093 164.085 128.633 164.781 128.074C165.374 127.599 165.981 126.943 166.564 126.105C167.142 125.268 167.94 124.053 168.954 122.457C169.522 121.56 169.806 121.11 170.38 120.213C172.153 117.524 173.989 115.061 175.885 112.837C173.681 114.708 171.697 116.163 169.914 117.186C168.131 118.215 166.51 118.724 165.041 118.719C164.272 118.719 163.547 118.553 162.861 118.23C160.167 116.951 158.756 114.865 158.658 111.96L158.649 111.975Z" fill="var(--fill-0, #1E1E1E)"/>
<path d="M179.583 116.594C179.583 115.742 179.921 114.777 180.607 113.699C181.292 112.622 182.203 111.529 183.345 110.427C184.412 109.399 185.519 108.596 186.656 108.023C187.792 107.449 188.767 107.175 189.575 107.195C190.075 107.209 190.442 107.347 190.672 107.562C190.951 107.822 191.123 108.174 191.118 108.625C191.387 108.209 191.544 107.974 191.593 107.925C191.862 107.557 192.22 107.381 192.676 107.396C192.984 107.405 193.258 107.513 193.489 107.719C193.719 107.925 193.836 108.179 193.827 108.483C193.817 108.836 193.68 109.178 193.41 109.521C193.239 109.766 192.945 110.075 192.538 110.452C192.127 110.829 191.853 111.089 191.706 111.236C190.623 112.205 189.776 113.053 189.164 113.773C188.551 114.498 188.243 115.144 188.233 115.722C188.233 115.898 188.287 116.084 188.4 116.29C188.625 116.697 188.997 116.907 189.511 116.922C190.143 116.937 190.956 116.599 191.955 115.903C192.955 115.208 194.081 114.189 195.345 112.857C195.443 112.92 195.492 112.95 195.59 113.013C194.243 114.821 192.832 116.32 191.343 117.5C189.859 118.685 188.644 119.263 187.689 119.239C187.199 119.229 186.788 119.028 186.475 118.646C186.244 118.367 186.132 118.024 186.137 117.622C186.141 117.044 186.362 116.373 186.793 115.609C185.867 116.638 184.956 117.451 184.065 118.044C183.173 118.636 182.38 118.93 181.679 118.915C181.19 118.906 180.758 118.734 180.386 118.401C179.852 117.916 179.583 117.309 179.583 116.584V116.594ZM183.653 116.746C184.236 116.76 184.902 116.422 185.647 115.737C186.391 115.051 187.371 114.052 188.595 112.729C188.928 112.181 189.095 111.907 189.433 111.363C189.781 110.77 189.957 110.476 190.31 109.884C190.462 109.463 190.535 109.125 190.54 108.875C190.545 108.498 190.418 108.218 190.236 108.037C190.07 107.876 189.835 107.763 189.526 107.753C188.86 107.734 188.008 108.076 186.964 108.777C185.926 109.477 185.01 110.32 184.221 111.304C183.673 111.97 183.242 112.622 182.933 113.268C182.625 113.915 182.468 114.512 182.463 115.061C182.463 115.536 182.6 115.967 182.879 116.344C183.09 116.599 183.345 116.731 183.648 116.736L183.653 116.746Z" fill="var(--fill-0, #1E1E1E)"/>
<path d="M193.366 117.304C193.391 116.305 193.807 115.178 194.63 113.924C195.453 112.676 196.569 111.196 197.995 109.492C198.406 108.997 198.617 108.747 199.033 108.253C198.842 108.272 198.553 108.316 198.171 108.39C197.789 108.463 197.441 108.498 197.133 108.483C196.966 108.478 196.824 108.414 196.712 108.302C196.594 108.184 196.54 108.037 196.545 107.866C196.55 107.665 196.614 107.503 196.736 107.386C196.858 107.263 197.001 107.209 197.167 107.214C197.525 107.229 198.034 107.293 198.695 107.42C199.038 107.479 199.205 107.508 199.548 107.562C199.846 107.175 200.62 106.156 201.801 104.53C202.864 103.066 203.672 102.008 204.147 101.43C204.632 100.847 205.17 100.534 205.773 100.558C206.111 100.573 206.38 100.686 206.591 100.896C206.797 101.107 206.895 101.371 206.88 101.699C206.86 102.15 206.601 102.615 206.101 103.095C205.949 103.237 205.504 103.595 204.764 104.163C203.182 105.373 201.889 106.524 200.875 107.616C201.041 107.596 201.36 107.557 201.825 107.503C202.29 107.445 202.717 107.425 203.094 107.44C203.26 107.445 203.402 107.513 203.515 107.645C203.628 107.778 203.681 107.939 203.672 108.14C203.667 108.316 203.598 108.458 203.476 108.566C203.353 108.674 203.206 108.723 203.04 108.718C202.658 108.703 202.085 108.61 201.34 108.424C200.87 108.312 200.527 108.228 200.312 108.199C200.091 108.458 199.979 108.591 199.753 108.855C198.441 110.432 197.436 111.789 196.731 112.915C196.026 114.042 195.668 114.982 195.644 115.732C195.634 116.109 195.732 116.437 195.933 116.716C196.134 117 196.447 117.147 196.868 117.162C197.525 117.186 198.362 116.858 199.396 116.182C200.429 115.506 201.59 114.483 202.898 113.107C202.996 113.155 203.045 113.18 203.143 113.229C201.727 115.026 200.268 116.53 198.769 117.735C197.265 118.945 196.031 119.537 195.056 119.503C194.591 119.488 194.209 119.312 193.915 118.979C193.528 118.543 193.342 117.985 193.361 117.309L193.366 117.304Z" fill="var(--fill-0, #1E1E1E)"/>
<path d="M205.744 117.99C205.778 117.265 206.067 116.515 206.62 115.737C207.174 114.958 207.972 114.008 209.02 112.876C209.642 112.23 210.118 111.701 210.451 111.289C210.779 110.878 210.95 110.55 210.965 110.3C210.97 110.173 210.94 110.075 210.872 109.996C210.784 109.894 210.666 109.835 210.524 109.83C210.264 109.815 209.912 109.982 209.466 110.325C209.02 110.667 208.413 111.211 207.644 111.951C205.959 113.601 203.931 115.923 201.6 118.91C201.232 119.371 200.806 119.591 200.316 119.577C200.013 119.567 199.753 119.454 199.538 119.248C199.322 119.038 199.219 118.783 199.229 118.484C199.239 118.259 199.312 118.024 199.464 117.779C199.739 117.265 200.013 116.824 200.282 116.457C200.552 116.089 201.208 115.227 202.266 113.866C203.319 112.504 204.891 110.452 207.017 107.714C207.669 106.857 207.997 106.426 208.653 105.569C209.084 105.01 210.073 103.747 211.631 101.783C213.189 99.8186 214.271 98.5256 214.864 97.9035C215.3 97.4725 215.76 97.2717 216.245 97.3011C216.559 97.3158 216.813 97.4333 217.009 97.6439C217.205 97.8546 217.288 98.1239 217.269 98.4472C217.244 98.8488 217.078 99.226 216.764 99.5835C216.607 99.7745 216.108 100.215 215.275 100.896C215.045 101.112 214.452 101.636 213.507 102.478C212.557 103.321 211.587 104.232 210.593 105.211C209.598 106.191 208.687 107.165 207.855 108.13C207.727 108.277 206.811 109.399 205.122 111.505C203.437 113.611 202.589 115.071 202.555 115.869C202.55 116.045 202.594 116.133 202.687 116.138C202.873 116.148 203.221 115.884 203.721 115.355C204.225 114.826 204.857 114.086 205.631 113.18C206.415 112.264 206.963 111.662 207.237 111.373C208.433 110.124 209.373 109.227 210.054 108.684C210.735 108.14 211.337 107.88 211.861 107.905C212.243 107.925 212.576 108.096 212.87 108.405C213.091 108.64 213.198 108.948 213.179 109.32C213.149 109.845 212.909 110.452 212.454 111.147C212.003 111.838 211.362 112.69 210.563 113.704C209.878 114.566 209.368 115.271 209.025 115.791C208.682 116.315 208.501 116.751 208.486 117.098C208.477 117.275 208.531 117.426 208.638 117.559C208.795 117.74 209.035 117.838 209.363 117.857C210.064 117.892 210.994 117.549 212.165 116.829C213.331 116.109 214.555 115.11 215.839 113.822C215.946 113.885 216.005 113.92 216.113 113.988C214.541 115.707 212.949 117.157 211.327 118.328C209.706 119.503 208.403 120.066 207.399 120.022C206.885 119.998 206.478 119.792 206.165 119.405C205.856 119.013 205.714 118.548 205.739 117.995L205.744 117.99Z" fill="var(--fill-0, #1E1E1E)"/>
<path d="M214.658 117.069C214.702 116.295 214.952 115.467 215.407 114.591C215.863 113.714 216.446 112.862 217.161 112.053C218.072 111.025 219.11 110.202 220.261 109.575C221.413 108.953 222.426 108.669 223.308 108.718C223.876 108.752 224.351 108.958 224.733 109.33C224.998 109.6 225.111 110.006 225.071 110.555C225.022 111.177 224.773 111.858 224.312 112.597C223.852 113.337 223.225 114.013 222.422 114.625C221.618 115.242 220.727 115.683 219.742 115.952C219.62 115.996 219.453 116.011 219.243 116.001C218.914 115.982 218.66 115.849 218.474 115.6C218.288 115.35 218.204 115.075 218.224 114.777C218.243 114.502 218.346 114.272 218.532 114.081C218.723 113.89 218.993 113.807 219.346 113.827C220.408 113.885 221.315 113.758 222.069 113.44C222.823 113.121 223.396 112.705 223.778 112.191C224.16 111.676 224.371 111.157 224.41 110.628C224.444 110.178 224.337 109.81 224.097 109.516C223.92 109.306 223.69 109.188 223.406 109.174C222.906 109.144 222.314 109.365 221.623 109.84C220.937 110.315 220.208 110.942 219.483 111.73C218.895 112.367 218.405 113.062 218.018 113.792C217.626 114.522 217.411 115.227 217.372 115.898C217.332 116.496 217.45 117.049 217.724 117.534C218.092 118.181 218.67 118.528 219.419 118.568C220.237 118.617 221.221 118.308 222.373 117.652C223.524 116.995 224.763 116.055 226.085 114.835C226.164 114.929 226.203 114.977 226.281 115.075C225.081 116.53 223.646 117.813 221.981 118.93C220.315 120.047 218.851 120.571 217.568 120.497C216.892 120.458 216.319 120.253 215.853 119.875C214.981 119.175 214.58 118.239 214.648 117.069H214.658Z" fill="var(--fill-0, #1E1E1E)"/>
<path d="M226.879 118.764C226.957 117.764 227.76 116.662 229.303 115.462C229.563 115.252 229.69 115.149 229.95 114.943C230.861 114.228 231.591 113.626 232.134 113.136C232.678 112.646 233.114 112.151 233.442 111.647C233.55 111.48 233.618 111.294 233.633 111.093C233.663 110.746 233.54 110.432 233.266 110.163C232.992 109.894 232.688 109.747 232.355 109.722C232.164 109.707 231.983 109.761 231.806 109.874C231.165 110.408 230.278 111.201 229.156 112.254C228.035 113.307 227.001 114.331 226.051 115.325C225.973 115.213 225.938 115.159 225.86 115.051C227.898 112.906 228.926 111.838 230.998 109.707C231.179 109.521 231.287 109.276 231.312 108.978C231.326 108.801 231.272 108.429 231.189 107.876C231.072 107.126 231.047 106.573 231.072 106.249C231.106 105.853 231.277 105.534 231.581 105.304C231.889 105.074 232.223 104.971 232.58 104.996C232.913 105.02 233.197 105.152 233.432 105.392C233.663 105.632 233.761 105.995 233.716 106.465C233.697 106.666 233.589 106.94 233.427 107.273C233.212 107.724 233.075 108.125 233.041 108.414C233.021 108.581 233.085 108.762 233.212 108.934C233.339 109.105 233.535 109.32 233.805 109.56C234.172 109.889 234.466 110.192 234.657 110.467C234.848 110.746 234.926 111.059 234.892 111.407C234.823 112.156 234.515 112.862 233.966 113.523C233.418 114.189 232.644 114.948 231.649 115.805C231.008 116.364 230.543 116.8 230.244 117.123C229.945 117.441 229.783 117.74 229.764 118.014C229.749 118.19 229.783 118.328 229.871 118.435C230.102 118.754 230.405 118.925 230.783 118.95C232.066 119.038 234.27 117.573 237.459 114.571C237.552 114.625 237.601 114.649 237.694 114.703C236.033 116.638 234.402 118.191 232.791 119.356C231.179 120.522 229.857 121.07 228.809 121.002C228.226 120.963 227.756 120.718 227.393 120.267C227.011 119.792 226.84 119.293 226.879 118.768V118.764Z" fill="var(--fill-0, #1E1E1E)"/>
<path d="M234.113 119.973C234.162 119.449 234.378 118.876 234.77 118.249C235.157 117.622 235.69 116.873 236.361 115.991C236.572 115.707 236.68 115.565 236.89 115.276C237.023 115.11 237.175 114.909 237.341 114.669C237.508 114.429 237.699 114.155 237.919 113.846C239.124 112.205 239.952 111.113 240.388 110.569C240.686 110.217 241.073 110.055 241.548 110.094C241.857 110.119 242.107 110.231 242.303 110.437C242.499 110.643 242.577 110.893 242.548 111.191C242.513 111.515 242.362 111.843 242.087 112.171C241.872 112.431 241.22 112.994 240.162 113.866C238.997 114.826 238.09 115.649 237.449 116.315C236.802 116.981 236.459 117.593 236.406 118.137C236.376 118.435 236.459 118.705 236.646 118.945C236.876 119.239 237.189 119.4 237.586 119.43C238.869 119.528 240.902 118.264 243.723 115.653C243.816 115.707 243.865 115.732 243.958 115.786C242.445 117.495 240.892 118.91 239.295 120.032C237.699 121.154 236.43 121.678 235.475 121.609C234.985 121.575 234.623 121.364 234.373 121.002C234.172 120.713 234.079 120.365 234.118 119.968L234.113 119.973ZM244.047 105.603C244.414 105.417 244.767 105.338 245.104 105.368C245.393 105.392 245.648 105.5 245.869 105.696C246.221 106 246.368 106.441 246.305 107.014C246.246 107.562 246.006 108.081 245.594 108.576C245.315 108.929 244.992 109.193 244.629 109.365C244.262 109.536 243.914 109.609 243.581 109.58C243.322 109.56 243.067 109.463 242.817 109.291C242.489 108.987 242.352 108.552 242.411 107.978C242.469 107.405 242.7 106.881 243.077 106.411C243.356 106.063 243.679 105.789 244.047 105.603Z" fill="var(--fill-0, #1E1E1E)"/>
<path d="M246.275 120.546C246.358 119.826 246.721 119.082 247.377 118.318C248.034 117.559 248.945 116.648 250.115 115.595C250.86 114.929 251.413 114.414 251.766 114.042C252.119 113.67 252.314 113.361 252.344 113.111C252.359 112.989 252.334 112.886 252.275 112.803C252.123 112.666 251.977 112.587 251.834 112.573C250.909 112.489 249.077 113.763 246.383 116.403C245.825 116.937 244.713 118.073 243.062 119.821C242.504 120.409 242.224 120.703 241.671 121.291C241.328 121.668 240.956 121.835 240.559 121.805C240.28 121.781 240.045 121.658 239.859 121.428C239.673 121.198 239.589 120.938 239.624 120.639C239.653 120.341 239.79 120.052 240.03 119.768C240.138 119.626 240.539 119.155 241.235 118.357C242.415 117.02 243.273 116.021 243.792 115.36C244.512 114.444 245.207 113.503 245.883 112.553C246.236 112.068 246.412 111.828 246.77 111.343C247.216 110.775 247.7 110.516 248.225 110.56C248.509 110.584 248.739 110.692 248.905 110.883C249.077 111.074 249.145 111.319 249.111 111.618C249.077 111.916 248.886 112.269 248.563 112.666C248.283 113.013 247.901 113.391 247.416 113.778C246.931 114.164 246.638 114.404 246.53 114.493C245.428 115.404 244.639 116.133 244.149 116.672C243.449 117.446 242.964 118.009 242.69 118.362C242.415 118.715 242.342 118.964 242.469 119.097C242.572 119.204 242.846 119.062 243.278 118.671C243.709 118.279 244.389 117.617 245.32 116.687C245.942 116.06 246.256 115.746 246.882 115.12C248.298 113.729 249.542 112.651 250.605 111.872C251.668 111.098 252.569 110.746 253.304 110.809C253.706 110.844 254.034 111.015 254.288 111.314C254.538 111.613 254.641 111.975 254.587 112.396C254.519 112.969 254.21 113.601 253.671 114.297C253.132 114.992 252.373 115.859 251.394 116.868C250.674 117.608 250.105 118.225 249.714 118.719C249.322 119.214 249.111 119.621 249.072 119.944C249.052 120.096 249.096 120.238 249.199 120.37C249.341 120.561 249.576 120.669 249.905 120.698C250.581 120.757 251.541 120.448 252.785 119.768C254.029 119.087 255.346 118.122 256.747 116.868C256.821 116.966 256.855 117.015 256.928 117.113C255.268 118.719 253.603 120.057 251.923 121.124C250.243 122.192 248.9 122.687 247.877 122.599C247.343 122.555 246.922 122.315 246.618 121.888C246.334 121.487 246.221 121.036 246.275 120.541V120.546Z" fill="var(--fill-0, #1E1E1E)"/>
<path d="M246.642 132.835C246.726 132.14 247.074 131.38 247.691 130.567C248.308 129.754 249.121 128.961 250.125 128.197C252.755 126.14 255.763 124.768 259.133 124.092C259.652 123.402 259.911 123.059 260.431 122.368C261.126 121.452 261.474 120.997 262.169 120.086C261.072 121.134 259.99 121.947 258.922 122.525C257.854 123.103 256.924 123.353 256.13 123.279C255.665 123.235 255.253 123.044 254.896 122.711C254.421 122.187 254.225 121.565 254.318 120.845C254.426 119.998 254.886 119.067 255.704 118.048C256.522 117.03 257.57 116.011 258.853 115.002C260.053 114.057 261.258 113.347 262.468 112.862C263.678 112.377 264.687 112.176 265.495 112.259C265.995 112.308 266.343 112.475 266.553 112.71C266.803 112.989 266.93 113.342 266.872 113.763C267.102 113.484 267.288 113.278 267.43 113.141C267.626 112.935 267.851 112.783 268.091 112.68C268.336 112.582 268.566 112.543 268.777 112.563C269.061 112.592 269.291 112.72 269.463 112.94C269.634 113.16 269.698 113.42 269.654 113.719C269.6 114.091 269.404 114.449 269.095 114.796C268.836 115.09 268.223 115.639 267.273 116.422C266.455 117.093 265.76 117.696 265.182 118.23C264.604 118.764 264.099 119.312 263.663 119.87C262.38 121.555 261.332 122.888 260.509 123.862C262.385 123.593 264.285 123.559 266.196 123.759C267.964 123.946 269.639 124.313 271.211 124.866C271.593 125.008 271.863 125.204 272.024 125.449C272.186 125.694 272.245 125.963 272.196 126.262C272.147 126.585 271.975 126.87 271.686 127.114C271.397 127.359 271.069 127.462 270.702 127.423C270.516 127.403 270.325 127.345 270.129 127.247C267.244 125.797 264.648 124.959 262.37 124.729C261.508 124.641 260.661 124.636 259.828 124.705C257.115 128.153 252.368 134.657 248.18 135.024C247.838 135.054 247.358 134.775 247.044 134.398C246.701 133.976 246.569 133.452 246.638 132.855L246.642 132.835ZM249.777 132.771C251.198 132.899 253.686 130.744 257.35 126.336C257.825 125.733 258.065 125.43 258.54 124.827C256.047 125.317 253.466 126.585 250.806 128.638C250.292 129.044 249.826 129.5 249.415 130.004C249.003 130.509 248.773 130.974 248.724 131.395C248.675 131.792 248.807 132.159 249.111 132.487C249.297 132.654 249.518 132.752 249.772 132.771H249.777ZM258.476 121.345C259.133 121.408 259.975 121.07 261.013 120.326C262.052 119.586 263.09 118.675 264.124 117.593C264.565 117.01 265.015 116.349 265.48 115.614C265.662 115.345 265.755 115.213 265.936 114.943C266.044 114.679 266.112 114.458 266.137 114.282C266.181 113.983 266.127 113.753 265.985 113.587C265.735 113.332 265.417 113.19 265.035 113.151C264.227 113.067 263.237 113.371 262.062 114.062C260.886 114.752 259.843 115.614 258.932 116.648C258.021 117.681 257.511 118.631 257.394 119.503C257.32 120.052 257.404 120.507 257.644 120.85C257.854 121.144 258.138 121.31 258.466 121.345H258.476Z" fill="var(--fill-0, #1E1E1E)"/>
<path d="M57.7679 122.207C57.7483 121.487 57.9883 120.728 58.483 119.924C58.9777 119.121 59.7026 118.127 60.6675 116.946C61.2406 116.266 61.6765 115.717 61.9753 115.286C62.2741 114.86 62.421 114.522 62.4161 114.277C62.4161 114.155 62.377 114.057 62.3035 113.983C62.2055 113.885 62.088 113.836 61.9459 113.841C61.6863 113.841 61.3484 114.032 60.932 114.4C60.5157 114.767 59.9475 115.34 59.2373 116.124C57.6748 117.862 55.8233 120.282 53.7172 123.387C53.3841 123.867 52.9727 124.112 52.4878 124.127C52.189 124.137 51.9245 124.043 51.6943 123.848C51.469 123.657 51.3465 123.412 51.3367 123.113C51.3269 122.888 51.3906 122.652 51.5228 122.403C51.7628 121.874 52.0028 121.423 52.2477 121.046C52.4926 120.669 53.0853 119.773 54.0355 118.362C54.9907 116.951 56.4111 114.821 58.3361 111.98C58.9287 111.089 59.2226 110.648 59.8202 109.756C60.212 109.178 61.1084 107.866 62.519 105.823C63.9346 103.781 64.924 102.434 65.4677 101.783C65.8742 101.332 66.315 101.102 66.795 101.097C67.1085 101.097 67.3681 101.19 67.5738 101.386C67.7795 101.582 67.8824 101.841 67.8873 102.165C67.8873 102.561 67.7501 102.948 67.4612 103.321C67.3191 103.521 66.8538 103.987 66.0701 104.712C65.8546 104.937 65.306 105.495 64.4195 106.387C63.5329 107.278 62.6317 108.243 61.7108 109.271C60.79 110.305 59.9524 111.324 59.1932 112.328C59.0757 112.48 58.243 113.645 56.7099 115.835C55.1768 118.024 54.4372 119.518 54.4617 120.311C54.4666 120.483 54.5156 120.571 54.6086 120.566C54.7947 120.566 55.118 120.282 55.5833 119.724C56.0487 119.17 56.6266 118.401 57.332 117.456C58.0471 116.501 58.5516 115.869 58.8014 115.565C59.9034 114.258 60.7753 113.312 61.4169 112.729C62.0537 112.147 62.6366 111.853 63.1558 111.848C63.5329 111.843 63.8807 111.99 64.1893 112.279C64.4244 112.499 64.5517 112.793 64.5566 113.165C64.5615 113.684 64.3656 114.302 63.959 115.017C63.5574 115.727 62.9794 116.613 62.2545 117.666C61.6374 118.563 61.1769 119.288 60.8733 119.826C60.5696 120.365 60.4177 120.806 60.4275 121.154C60.4275 121.325 60.4912 121.477 60.6088 121.599C60.7753 121.771 61.0202 121.854 61.3484 121.849C62.0439 121.839 62.9451 121.438 64.0521 120.654C65.1591 119.87 66.3052 118.803 67.4905 117.451C67.6032 117.51 67.662 117.539 67.7746 117.598C66.3346 119.395 64.8554 120.928 63.3272 122.192C61.799 123.456 60.5451 124.097 59.5508 124.117C59.0414 124.127 58.6201 123.95 58.2871 123.583C57.954 123.216 57.7777 122.765 57.7679 122.217V122.207Z" fill="var(--fill-0, #1E1E1E)"/>
<path d="M66.5403 120.728C66.5305 119.959 66.7216 119.126 67.1134 118.23C67.5052 117.333 68.0244 116.452 68.6759 115.609C69.5086 114.537 70.4833 113.655 71.5804 112.964C72.6776 112.274 73.667 111.931 74.5389 111.926C75.1071 111.926 75.5871 112.098 75.9887 112.44C76.2679 112.69 76.41 113.087 76.4051 113.631C76.4051 114.253 76.1944 114.938 75.7928 115.697C75.3863 116.457 74.8083 117.162 74.0589 117.823C73.3095 118.484 72.4523 118.979 71.4972 119.307C71.3796 119.356 71.218 119.386 71.0074 119.386C70.6792 119.386 70.4196 119.273 70.2188 119.038C70.018 118.803 69.92 118.538 69.92 118.239C69.92 117.965 70.0082 117.73 70.1796 117.529C70.3559 117.328 70.6204 117.231 70.9682 117.226C72.0213 117.221 72.9127 117.035 73.6376 116.672C74.3674 116.31 74.9013 115.864 75.2442 115.325C75.5871 114.791 75.7634 114.262 75.7634 113.743C75.7634 113.298 75.636 112.94 75.3813 112.666C75.1952 112.47 74.9601 112.372 74.676 112.372C74.1813 112.372 73.6033 112.631 72.9568 113.141C72.3054 113.65 71.6294 114.321 70.9633 115.144C70.4196 115.81 69.9837 116.525 69.6506 117.275C69.3126 118.019 69.1461 118.729 69.151 119.4C69.151 119.998 69.3077 120.537 69.6114 120.997C70.0229 121.609 70.6155 121.918 71.36 121.913C72.1731 121.908 73.1233 121.541 74.2254 120.821C75.3226 120.096 76.4834 119.092 77.7128 117.799C77.7961 117.887 77.8402 117.931 77.9234 118.024C76.8312 119.537 75.4989 120.894 73.9266 122.104C72.3543 123.314 70.9388 123.921 69.6653 123.936C68.9943 123.941 68.4114 123.774 67.9265 123.431C67.0154 122.795 66.555 121.898 66.5452 120.732L66.5403 120.728Z" fill="var(--fill-0, #1E1E1E)"/>
<path d="M43.7937 127.668C43.588 127.707 43.4606 127.634 43.4067 127.438C43.3724 127.315 43.3822 127.188 43.441 127.051C45.2484 122.192 47.1048 117.333 49.2942 112.612C51.229 108.439 53.4625 104.217 55.9311 100.225C54.7213 100.441 53.4233 100.519 52.0322 100.465C50.6412 100.411 48.9513 100.259 46.9872 100.059C44.9349 99.848 43.2647 99.7451 42.0304 99.7108C40.7961 99.6766 39.6303 99.7696 38.5331 99.9802C37.2009 100.24 36.1086 100.71 35.271 101.381C34.2522 102.194 33.5812 103.223 33.2824 104.472C32.9836 105.716 33.0914 107.107 33.5763 108.64C33.8702 109.57 34.3796 110.374 35.0996 111.03C35.8196 111.686 36.6376 112.161 37.5437 112.455C38.4499 112.744 39.3266 112.808 40.1642 112.646C41.423 112.401 42.3292 111.637 42.8924 110.359C43.4557 109.08 43.4263 107.283 42.7994 104.961C42.6818 104.525 42.7014 104.168 42.863 103.884C43.0247 103.6 43.2549 103.428 43.5635 103.37C43.872 103.311 44.161 103.379 44.4353 103.565C44.7096 103.756 44.9006 104.055 45.0084 104.467C45.0574 104.663 45.0868 104.81 45.0868 104.907C45.2876 107.332 44.8419 109.271 43.7643 110.726C42.6818 112.181 41.2663 113.077 39.4981 113.425C38.3323 113.655 37.1666 113.631 35.991 113.356C34.8155 113.082 33.7771 112.573 32.8808 111.823C31.9844 111.074 31.3624 110.134 31.0342 109.002C30.6472 107.68 30.7893 106.343 31.4652 104.991C32.1412 103.644 33.2089 102.356 34.6392 101.126C36.4417 99.5835 38.6164 98.5501 41.1438 98.0701C42.912 97.7321 44.6606 97.6488 46.3897 97.8056C48.1187 97.9672 50.2053 98.2562 52.5122 98.7411C54.256 99.1084 55.5931 99.3582 56.4699 99.4023C57.0234 99.4317 57.5328 99.4023 58.0079 99.3239C59.5018 99.0643 61.0251 98.408 62.5876 97.3599C62.759 97.257 62.9207 97.1884 63.0627 97.1639C63.3468 97.115 63.5966 97.1738 63.8072 97.3403C64.0178 97.5068 64.155 97.7223 64.2186 97.9917C64.2872 98.2856 64.2333 98.5696 64.0668 98.8488C63.8954 99.128 63.6015 99.3729 63.2047 99.5247C62.7933 99.6815 62.328 99.7843 61.8774 99.8627C61.1916 99.9802 60.4667 100.044 59.7026 100.049C58.9385 100.054 58.4928 100.059 58.3703 100.049C57.8511 100.049 57.5915 100.049 57.0724 100.049C54.9858 103.374 53.2274 106.96 51.8167 110.78C50.0436 115.59 48.6232 120.502 47.3742 125.43C47.286 125.802 46.948 126.047 46.3554 126.159C46.2623 126.179 46.0468 126.213 45.7039 126.267C45.3611 126.321 45.0623 126.429 44.8076 126.595C44.5529 126.762 44.3619 126.992 44.2345 127.301C44.1463 127.496 43.9994 127.614 43.7937 127.653V127.668Z" fill="var(--fill-0, #1E1E1E)"/>
<path d="M17.6771 53.039V82.7348H0V7.80721H32.9395C39.0132 7.80721 43.8916 8.5125 47.5701 9.91819C51.2485 11.3288 54.2951 13.9149 56.7099 17.6813C59.1246 21.4478 60.3345 25.6355 60.3345 30.2443C60.3345 39.2417 55.9997 45.6971 47.3252 49.6105L61.1573 82.7397H41.761L30.2554 53.0439H17.682L17.6771 53.039ZM17.6771 21.1441V40.2458H28.4382C31.9501 40.2458 34.502 40.0009 36.0939 39.5062C37.6858 39.0115 39.1062 37.9144 40.3503 36.2149C41.5944 34.5153 42.2165 32.5659 42.2165 30.3668C42.2165 28.1677 41.5944 26.4142 40.3503 24.7685C39.1062 23.1228 37.7495 22.1041 36.2898 21.7221C34.8253 21.34 32.0824 21.1441 28.0562 21.1441H17.6771Z" fill="var(--fill-0, #1E1E1E)"/>
<path d="M315 22.0796H279.318V37.4491H307.369V51.555H279.318V67.9139H315V82.7348H261.479V7.80721H315V22.0796Z" fill="var(--fill-0, #1E1E1E)"/>
<path d="M268.512 41.2695C260.259 62.105 243.341 85.0074 229.107 85.0074H228.074C216.519 84.3903 213.84 74.2811 213.84 69.3294C213.84 50.9721 239.011 23.74 239.011 15.4822C239.011 13.0087 237.566 11.9753 235.71 11.9753C227.045 11.9753 205.592 43.5372 196.511 59.6316C192.445 68.1441 188.199 76.1178 184.795 82.5193C184.383 83.2932 183.585 83.7634 182.708 83.7634H165.07C163.836 83.7634 163.062 82.4263 163.689 81.3634C169.846 70.9359 193.827 29.4852 193.827 16.7164C193.827 13.8267 192.798 11.7647 189.908 11.7647C182.483 11.7647 165.565 37.7577 155.455 55.5027C150.9 64.8135 145.772 73.9333 141.167 82.6809C140.815 83.352 140.124 83.7634 139.365 83.7634H121.32C120.164 83.7634 119.425 82.534 119.988 81.5201C124.808 72.8656 142.098 41.2695 147.408 23.9359C148.852 19.1948 151.537 8.46352 143.078 8.46352C138.126 8.46352 131.523 12.181 125.954 19.1948C126.571 43.3315 98.9264 85.0025 79.3292 85.0025C64.4733 85.0025 62.4113 71.1808 62.4113 63.3393C62.4113 38.3748 86.549 2.47832 108.419 2.47832C115.849 2.47832 120.591 5.16236 123.275 9.49207C130.289 3.71748 138.953 0 146.795 0C160.618 0 165.775 7.43007 165.775 18.9792C165.775 21.869 165.364 24.5481 164.948 27.4379C173.612 14.0275 182.488 3.30116 192.803 2.47342C205.18 1.64568 209.304 11.7549 209.304 18.1515C209.304 22.4812 208.477 27.0215 207.242 31.9733C216.735 16.9172 226.844 2.26771 242.107 2.26771C250.566 2.26771 256.546 6.80804 256.546 15.2667C256.546 28.2607 237.155 45.7951 237.155 59.2055C237.155 62.3009 238.394 64.1572 240.873 64.1572C248.092 64.1572 255.312 54.2537 261.709 41.2548H268.517L268.512 41.2695ZM109.859 45.1877C108.003 43.1257 107.18 40.0303 107.18 36.7291C107.18 29.304 111.098 21.4625 117.084 15.0658C116.256 12.7981 114.399 11.3533 111.304 11.3533C98.0986 11.3533 82.2142 42.0923 82.2142 56.3255C82.2142 61.6887 84.8934 64.167 88.8168 64.167C94.8022 64.167 103.261 57.359 109.859 45.1877Z" fill="var(--fill-0, #1E1E1E)"/>
</g>
</svg>
