<svg preserveAspectRatio="none" width="100%" height="100%" overflow="visible" style="display: block;" viewBox="0 0 148 24" fill="none" xmlns="http://www.w3.org/2000/svg">
<g id="Group">
<g id="Instagram">
<path id="Path 346" d="M90.1358 6.83276C90.1133 5.87276 89.9332 4.92026 89.5957 4.02026C88.9882 2.46026 87.7583 1.22273 86.1908 0.615234C85.2908 0.277734 84.3383 0.097207 83.3783 0.074707C82.1333 0.014707 81.7357 0 78.5782 0C75.4207 0 75.0307 0.0148828 73.7857 0.0673828C72.8257 0.0898828 71.8732 0.269678 70.9732 0.607178C70.1932 0.899678 69.4882 1.35721 68.9107 1.94971C68.3182 2.52721 67.8607 3.23238 67.5682 4.00488C67.2307 4.90488 67.0507 5.85738 67.0282 6.81738C66.9682 8.06238 66.9532 8.46018 66.9532 11.6177C66.9532 14.7752 66.9682 15.1649 67.0207 16.4099C67.0432 17.3699 67.2232 18.3224 67.5607 19.2224C68.1682 20.7824 69.3982 22.0199 70.9657 22.6274C71.8657 22.9649 72.8182 23.1447 73.7782 23.1672C75.0157 23.2197 75.4132 23.2346 78.5707 23.2346C81.7282 23.2346 82.1183 23.2197 83.3633 23.1672C84.3233 23.1447 85.2758 22.9649 86.1758 22.6274C87.7358 22.0199 88.9732 20.7899 89.5807 19.2224C89.9182 18.3224 90.0983 17.3699 90.1208 16.4099C90.1733 15.1724 90.1882 14.7752 90.1882 11.6177C90.1882 8.46018 90.1883 8.06971 90.1358 6.82471V6.83276ZM88.0432 16.3271C88.0357 17.0621 87.9007 17.7978 87.6457 18.4878C87.2557 19.5003 86.4533 20.3024 85.4333 20.6924C84.7433 20.9474 84.0158 21.0826 83.2733 21.0901C82.0508 21.1426 81.6757 21.1575 78.5782 21.1575C75.4807 21.1575 75.1057 21.1426 73.8832 21.0901C73.1482 21.0826 72.4132 20.9474 71.7232 20.6924C71.2207 20.5049 70.7632 20.2121 70.3882 19.8296C70.0057 19.4546 69.7057 18.9976 69.5182 18.4951C69.2632 17.8051 69.1208 17.0702 69.1133 16.3352C69.0608 15.1127 69.0457 14.7371 69.0457 11.6396C69.0457 8.54215 69.0608 8.16732 69.1133 6.94482C69.1208 6.20982 69.2558 5.47491 69.5108 4.78491C69.6983 4.28241 69.9907 3.82471 70.3807 3.44971C70.7557 3.05971 71.2132 2.76709 71.7157 2.57959C72.4057 2.32459 73.1332 2.19012 73.8757 2.18262C75.0982 2.13012 75.4732 2.11523 78.5707 2.11523C81.6682 2.11523 82.0432 2.13012 83.2657 2.18262C84.0007 2.19012 84.7358 2.32459 85.4258 2.57959C85.9283 2.76709 86.3858 3.05971 86.7608 3.44971C87.1433 3.82471 87.4432 4.28241 87.6307 4.78491C87.8857 5.47491 88.0207 6.20232 88.0282 6.94482C88.0807 8.16732 88.0957 8.54215 88.0957 11.6396C88.0957 14.7371 88.0882 15.1052 88.0357 16.3352L88.0432 16.3271Z" fill="var(--fill-0, white)"/>
<path id="Path 347" d="M78.5785 5.65503C75.2785 5.65503 72.6084 8.325 72.6084 11.625C72.6084 14.925 75.2785 17.595 78.5785 17.595C81.8785 17.595 84.5484 14.925 84.5484 11.625C84.5484 8.325 81.8785 5.65503 78.5785 5.65503ZM78.5785 15.5024C76.441 15.5024 74.7084 13.7698 74.7084 11.6323C74.7084 9.49482 76.441 7.76221 78.5785 7.76221C80.716 7.76221 82.4485 9.49482 82.4485 11.6323C82.4485 13.7698 80.716 15.5024 78.5785 15.5024Z" fill="var(--fill-0, white)"/>
<path id="Path 348" d="M86.176 5.42212C86.176 6.19462 85.5535 6.81738 84.781 6.81738C84.0085 6.81738 83.386 6.19462 83.386 5.42212C83.386 4.64962 84.0085 4.02759 84.781 4.02759C85.5535 4.02759 86.176 4.64962 86.176 5.42212Z" fill="var(--fill-0, white)"/>
</g>
<path id="Trazado 44" d="M144.196 0.0300293H127.418C125.716 0.0300293 124.328 1.41012 124.328 3.12012V19.8977C124.328 21.6002 125.708 22.9878 127.418 22.9878H135.691V14.7751H133.576C133.298 14.7751 133.073 14.5575 133.066 14.28V11.6851C133.066 11.4076 133.291 11.1753 133.576 11.1753H135.698V8.57227C135.466 6.28477 137.131 4.23756 139.418 3.99756C139.658 3.97506 139.906 3.97506 140.146 3.99756H142.306C142.583 3.99756 142.808 4.21518 142.816 4.49268V6.71997C142.816 6.99747 142.591 7.22974 142.306 7.22974H141.001C139.568 7.22974 139.283 7.90491 139.283 8.90991V11.1226H142.448C142.726 11.1226 142.943 11.3548 142.943 11.6323L142.628 14.2346C142.598 14.4821 142.388 14.6777 142.133 14.6777H139.268V22.875H144.196C145.898 22.875 147.286 21.4949 147.286 19.7849V3.12744C147.286 1.42494 145.906 0.0373535 144.196 0.0373535H144.181L144.196 0.0300293Z" fill="var(--fill-0, white)"/>
<path id="Youtube" d="M32.1382 3.59985C31.7557 2.18985 30.6532 1.08709 29.2432 0.70459C26.6782 -0.000410154 16.4032 5.53882e-10 16.4032 5.53882e-10C16.4032 5.53882e-10 6.1282 0.000292987 3.5632 0.675293C2.1532 1.08029 1.05822 2.18253 0.675721 3.59253C0.210721 6.19503 -0.0142969 8.84273 0.000703072 11.4902C-0.0142969 14.1377 0.210721 16.7774 0.675721 19.3799C1.05822 20.7899 2.16071 21.8926 3.57071 22.2751C6.16571 22.9801 16.4107 22.9797 16.4107 22.9797C16.4107 22.9797 26.6857 22.9802 29.2507 22.3052C30.6607 21.9227 31.7632 20.8199 32.1382 19.4099C32.6032 16.8074 32.8282 14.1603 32.8132 11.5203C32.8432 8.86526 32.6182 6.20985 32.1382 3.59985ZM13.1332 16.4099V6.56982L21.6757 11.4902L13.1332 16.4099Z" fill="var(--fill-0, white)"/>
</g>
</svg>
