<svg preserveAspectRatio="xMidYMid meet" width="73" height="73" overflow="visible" style="display: block;" viewBox="0 0 73 73" fill="none" xmlns="http://www.w3.org/2000/svg">
<g id="Group">
<path id="Vector" d="M58.41 49.1835C56.0158 48.6514 52.8234 48.5508 49.8971 49.2913C43.3974 50.9306 41.4561 55.7839 41.4561 55.7839C41.5424 56.582 42.1248 56.2656 43.3399 55.9996C44.555 55.7335 48.0421 57.3225 48.0421 57.3225C48.0421 57.3225 53.1182 58.6958 56.9792 55.1008C60.8331 51.5058 63.1626 51.0457 63.1626 51.0457C63.1626 51.0457 61.3292 49.8306 58.4029 49.1835H58.41ZM51.0116 56.4813C49.2932 56.4813 47.9055 55.0936 47.9055 53.3752C47.9055 52.1457 48.6173 51.096 49.6455 50.5855C50.3214 50.4848 50.9397 50.3914 51.5149 50.3051C52.996 50.5424 54.1248 51.8222 54.1248 53.368C54.1248 55.0864 52.73 56.4741 51.0116 56.4741V56.4813ZM45.5113 55.5825C43.8216 54.9498 42.3765 55.5753 42.3765 55.5753C42.3765 55.5753 43.8216 52.3327 48.5742 50.8228C47.8983 51.4627 47.4813 52.3686 47.4813 53.3752C47.4813 54.8707 48.4088 56.1433 49.7246 56.661C48.0997 56.5747 46.7767 56.0571 45.5041 55.5825H45.5113ZM55.0164 55.1583C54.3837 55.5682 53.8085 55.8629 53.2764 56.0858C54.0529 55.4387 54.549 54.4681 54.549 53.3752C54.549 51.9588 53.7222 50.7437 52.5215 50.1829C53.1398 50.1182 53.7222 50.0751 54.2974 50.0822C58.2878 50.1541 60.3513 51.2614 60.3513 51.2614C59.9415 51.2901 58.7408 52.0666 57.4394 53.0589C56.8354 53.519 55.7354 54.7054 55.0236 55.1583H55.0164Z" fill="var(--fill-0, #1E1E1E)"/>
<path id="Vector_2" d="M52.4998 53.3751C52.4998 54.1948 51.8312 54.8635 51.0115 54.8635C50.1919 54.8635 49.5232 54.1948 49.5232 53.3751C49.5232 52.5555 50.1919 51.8868 51.0115 51.8868C51.8312 51.8868 52.4998 52.5555 52.4998 53.3751Z" fill="var(--fill-0, #1E1E1E)"/>
<path id="Vector_3" d="M17.8873 48.975C14.9609 48.2344 11.7686 48.3351 9.37435 48.8672C6.44804 49.5215 4.61461 50.7293 4.61461 50.7293C4.61461 50.7293 6.94414 51.1895 10.8051 54.7845C14.6662 58.3795 19.7423 57.0062 19.7423 57.0062C19.7423 57.0062 23.2294 55.4172 24.4445 55.6832C25.6596 55.9493 26.242 56.2656 26.3282 55.4675C26.3282 55.4675 24.387 50.6143 17.8873 48.975ZM16.7728 56.1649C15.0544 56.1649 13.6596 54.7773 13.6596 53.0589C13.6596 51.5059 14.7884 50.2332 16.2695 49.996C16.8447 50.075 17.4631 50.1757 18.1389 50.2764C19.1671 50.7797 19.8789 51.8366 19.8789 53.0661C19.8789 54.7845 18.484 56.1721 16.7728 56.1721V56.1649ZM10.3522 52.7354C9.0508 51.7432 7.85727 50.9666 7.44026 50.9379C7.44026 50.9379 9.50376 49.8306 13.4942 49.7587C14.0694 49.7515 14.6518 49.7875 15.2701 49.8594C14.0694 50.4202 13.2426 51.6425 13.2426 53.0517C13.2426 54.1446 13.7386 55.1152 14.5152 55.7623C13.9759 55.5394 13.4079 55.2447 12.768 54.8348C12.0562 54.3819 10.9489 53.1955 10.3522 52.7354ZM22.2731 55.2662C21.0005 55.7407 19.6776 56.2584 18.0526 56.3447C19.3684 55.8342 20.3031 54.5616 20.3031 53.0589C20.3031 52.0523 19.8789 51.1464 19.2102 50.5065C23.9699 52.0163 25.4079 55.259 25.4079 55.259C25.4079 55.259 23.9628 54.6335 22.2731 55.2662Z" fill="var(--fill-0, #1E1E1E)"/>
<path id="Vector_4" d="M15.2847 53.0588C15.2847 53.8785 15.9533 54.5471 16.773 54.5471C17.5926 54.5471 18.2613 53.8785 18.2613 53.0588C18.2613 52.2392 17.5926 51.5705 16.773 51.5705C15.9533 51.5705 15.2847 52.2392 15.2847 53.0588Z" fill="var(--fill-0, #1E1E1E)"/>
<g id="Group_2">
<path id="Vector_5" d="M56.2391 39.1678C56.2391 39.1678 61.2433 35.1773 57.9862 25.6579C55.0527 17.6482 49.5021 15.822 47.5968 10.9903C45.7274 6.24497 44.1528 0.780611 34.2019 1.24077C35.5536 2.01009 37.0923 2.68596 38.0054 2.68596C39.5656 2.68596 40.6297 2.96637 41.3918 3.81478C42.1612 4.6632 42.1755 6.17308 42.3697 7.12934C42.5422 7.97775 42.8586 8.68959 42.8586 8.68959C42.8586 8.68959 43.441 10.0557 43.9802 11.3858C45.0228 13.9526 43.5345 14.952 43.5345 14.952C44.5339 13.5572 43.175 10.3361 42.5207 9.43733C41.8664 8.53858 41.701 8.04968 41.248 6.07963C40.7951 4.11678 39.3499 3.7429 39.3499 3.7429C38.9185 3.62786 37.272 3.53438 36.9485 3.41934C31.1893 1.37021 31.6782 0.0832073 29.0179 0.00411789C27.6519 -0.0390218 26.5015 0.25578 25.7106 0.557758C25.4014 0.730317 25.1354 0.902848 24.9269 1.06822C24.9269 1.06822 24.9197 1.07542 24.9125 1.08261H24.9053C24.5746 1.34864 24.3588 1.59309 24.215 1.79441C23.9634 2.13953 23.6399 2.42714 23.2876 2.66441C21.6411 3.76447 17.6938 7.15091 19.7645 13.2839C19.7645 13.2839 21.0299 19.0718 30.8657 23.7525C31.9658 24.2774 32.9796 24.7591 33.9359 25.2193C32.9868 26.6501 31.6207 29.2241 31.2468 32.5962C31.0671 34.2355 31.2181 35.7813 31.5416 37.1905C30.6213 36.5722 29.6578 35.8388 28.6512 34.9832C18.5637 26.4056 12.7039 27.556 10.6404 27.7142C8.57692 27.8723 -1.04325 30.5686 0.0927664 39.2684C1.31506 48.6297 11.647 47.0911 14.7459 47.3571C17.4853 47.5872 23.7046 47.8029 31.0239 51.9802C34.1947 53.4039 37.538 52.9006 40.3781 51.6639C41.0323 51.3835 50.8466 45.4014 58.0581 48.0186C65.2697 50.6357 66.7795 56.1073 64.3206 61.3416C61.8616 66.5759 50.746 69.2577 41.6722 65.3248C30.8154 60.6226 26.0413 66.1301 24.7687 68.3446C23.5032 70.5663 24.3085 72.5939 25.5236 72.5939C25.5236 72.5939 26.3145 72.6442 26.6309 71.5873C26.9472 70.5303 27.3211 68.3086 31.5991 67.4099C35.8772 66.5112 39.846 68.6825 41.9095 69.3655C43.973 70.0486 48.891 71.7958 55.2828 70.9545C61.6747 70.1061 71.6687 65.1379 72.9342 53.0875C73.042 40.5626 57.9647 39.0815 56.2247 39.1606L56.2391 39.1678ZM56.7783 37.3343C55.2612 39.6279 52.6441 39.2612 52.6441 39.2612C50.5303 38.7795 51.4721 36.1408 52.7376 36.112C54.003 36.0905 56.8718 34.9832 57.5117 33.9766C57.7202 33.6387 58.2954 35.0335 56.7783 37.3271V37.3343ZM57.6555 32.6465C56.4835 34.7819 52.5794 35.127 52.5794 35.127C51.4793 35.1054 50.5159 32.6752 52.3781 31.7118C55.0168 31.4817 57.3104 29.7561 57.562 29.5261C57.8137 29.296 58.8275 30.5111 57.6555 32.6465ZM55.9659 24.9964C56.3901 24.3852 57.4182 25.435 57.6986 26.6429C57.9719 27.8508 57.447 29.0443 55.5632 29.9646C53.6795 30.8849 52.414 30.6261 52.414 30.6261C52.414 30.6261 50.8322 30.6045 50.2786 29.8855C49.6243 29.0299 49.5165 28.1671 51.4506 27.7142C53.3775 27.2612 55.5417 25.6003 55.9659 24.9892V24.9964ZM55.3331 22.6453C55.5704 23.3355 55.7789 24.68 53.4134 25.9598C51.8604 26.801 50.6094 27.1462 49.5524 27.2397C47.2085 27.4841 45.4326 25.1474 47.2516 24.9964C49.0707 24.8454 51.9395 22.8394 52.8454 21.6674C53.7585 20.4883 55.0887 21.955 55.326 22.6525L55.3331 22.6453ZM52.2702 21.006C51.846 21.6459 51.1845 22.221 50.5231 22.6812C49.1498 23.6447 47.3955 24.0833 46.317 24.3349C45.6771 24.4859 44.6273 24.5075 43.9658 24.0329C42.9808 23.3283 42.6141 21.9622 43.8652 21.7465C43.8652 21.7465 47.4386 21.3367 50.5662 18.1587C50.976 17.7417 53.5716 19.0287 52.263 21.006H52.2702ZM40.7088 32.5962C40.5147 30.8778 40.0689 29.3607 39.544 28.1025C43.0743 30.1732 44.5842 31.9635 44.5842 34.9329C44.5842 37.586 42.7723 39.9587 39.4218 40.0593C40.3062 37.9958 41.018 35.4362 40.7016 32.589L40.7088 32.5962ZM46.0365 14.7579C46.4464 14.3409 50.6597 16.2174 49.3511 18.1947C48.9269 18.8346 47.6471 19.5176 46.6117 19.9922C45.0803 20.6896 43.5919 21.2217 42.0749 21.2217C41.4206 21.2217 40.1048 21.1066 39.4362 20.6321C38.4511 19.9275 38.0844 18.5614 39.3355 18.3457C39.3355 18.3457 42.9089 17.9359 46.0365 14.7579ZM34.2163 15.0671C34.8634 14.4775 36.3517 14.4056 36.3517 14.4056C36.3517 14.4056 37.1066 14.686 37.5596 14.9089C38.5877 15.3978 40.1767 16.7855 40.565 16.9508C40.0761 17.0515 37.7393 17.6698 35.9922 17.4613C35.0072 17.3391 34.2882 16.6848 34.0078 16.1887C33.713 15.7142 33.9287 15.3259 34.2091 15.0671H34.2163ZM31.8939 13.9526C30.154 13.4709 30.3984 11.9251 30.3984 11.9251C30.5566 11.2205 33.0874 11.5296 33.0874 11.5296C33.9862 13.4062 35.0503 13.701 35.0503 13.701C35.0503 13.701 33.6411 14.4415 31.9011 13.9598L31.8939 13.9526ZM36.4595 9.49486C36.4595 9.49486 37.4589 9.44453 37.308 10.8394C37.308 10.8394 36.4092 10.5877 36.2582 10.2426C36.1072 9.89029 36.4595 9.49486 36.4595 9.49486ZM34.6045 9.78243C35.1725 11.8388 37.3008 12.2414 37.3008 12.2414C39.0048 12.6656 39.3571 13.8951 40.4212 14.9592C41.4853 16.0233 43.0671 15.4553 43.0671 15.4553C43.0671 15.4553 41.9095 16.1671 40.7735 15.7357C39.6375 15.3115 38.7891 13.7513 37.6531 13.3271C36.517 12.9029 34.7124 12.1335 34.4607 11.1269C33.7489 8.29411 31.6279 5.45411 31.6279 5.45411C32.4044 5.95022 34.0365 7.72611 34.6045 9.78243ZM32.3613 9.38699C32.5338 10.0197 32.6704 10.3505 32.6704 10.3505C32.6704 10.3505 30.2618 10.8178 29.6578 9.71055C29.0539 8.61049 29.4997 8.14312 29.6435 7.98494C30.2618 7.46727 31.3331 7.74769 31.5344 7.77645C31.5344 7.77645 32.1887 8.73989 32.3613 9.3798V9.38699ZM30.9304 6.76984C30.9304 6.76984 28.1623 6.59009 28.4427 4.56972C28.4427 4.56972 30.3049 5.63383 30.9304 6.76984ZM30.4991 22.825C20.2965 17.4829 19.0814 10.2426 21.6698 5.85675C22.8705 3.82199 24.3013 2.75788 25.6674 2.75788C27.9394 2.75788 29.0683 3.7501 29.0683 3.7501C29.0683 3.7501 27.6806 3.36902 26.372 3.33307C24.4523 3.28274 21.8567 4.92921 21.411 8.92683C20.6992 15.2396 25.0706 18.8634 28.2846 20.9053C30.6213 22.3936 33.6986 24.2055 36.9341 25.7297L34.9496 24.9533C33.5404 24.2846 32.2462 23.7453 30.4919 22.825H30.4991ZM33.2816 31.1007C33.7993 28.994 34.6405 27.6135 35.2013 26.8658C35.5464 26.4128 35.985 25.8951 35.985 25.8951C35.985 25.8951 36.3948 26.3841 36.7112 26.8011C37.272 27.5345 38.1492 28.9365 38.6812 31.1007C38.8107 31.6399 38.9257 32.1791 39.012 32.7399C38.3793 31.7333 37.2576 31.0647 35.985 31.0647C34.7124 31.0647 33.5907 31.7333 32.9508 32.7399C33.0371 32.1863 33.1522 31.6399 33.2888 31.1007H33.2816ZM35.9778 31.4961C37.725 31.4961 39.1414 32.9125 39.1414 34.6525C39.1414 36.3925 37.725 37.8161 35.9778 37.8161C34.2306 37.8161 32.8142 36.3996 32.8142 34.6525C32.8142 32.9053 34.2306 31.4961 35.9778 31.4961ZM39.0551 36.4715C38.825 38.2043 38.2139 40.1816 36.9988 42.5974C36.7471 43.0935 35.9778 44.4452 35.9778 44.4452C35.9778 44.4452 35.1941 43.0791 34.9425 42.5758C33.7345 40.1672 33.1306 38.1971 32.9005 36.4715C33.526 37.5213 34.6692 38.2259 35.9778 38.2259C37.2864 38.2259 38.4296 37.5213 39.0551 36.4715ZM68.1384 60.8095C66.2906 65.0875 61.6387 68.5818 55.139 69.6891C48.6393 70.7963 40.4931 66.9354 40.4931 66.9354C40.4931 66.9354 34.6261 63.8724 29.6506 66.2451C24.6752 68.6178 25.3367 71.3644 25.3367 71.3644L25.236 71.5154C24.1216 68.8191 28.4355 64.764 33.1378 64.4476C37.84 64.1313 38.7963 66.1373 46.2666 67.7263C53.737 69.3152 59.1582 67.906 63.9539 63.5273C67.8724 59.9467 66.341 53.8784 66.1396 52.5267C65.9455 51.175 66.9161 52.1312 67.1966 51.0384C67.477 49.9455 62.1061 43.4098 53.5932 43.3092C45.0803 43.2013 42.1755 45.8472 40.7519 47.2205C39.3283 48.5938 39.8532 50.3913 39.8532 50.3913C39.8532 50.3913 37.0491 51.4985 34.9353 51.4985C32.8214 51.4985 30.8657 50.4416 30.8657 50.4416C32.9796 48.4284 31.7142 45.7394 29.4925 45.157C27.2708 44.5746 23.4889 44.2942 15.7525 43.87C13.3726 43.7406 7.69254 43.0791 5.10416 39.8293C3.77402 38.2115 2.64519 35.1989 4.04004 33.0779C8.38996 26.4703 17.8591 29.4542 19.7573 30.2522C21.6626 31.0431 23.3019 31.7693 28.5434 36.0042C30.8658 37.888 32.0377 39.4122 32.5194 40.1312C32.577 40.2606 32.6273 40.3901 32.6848 40.5123C28.9173 38.039 19.937 35.1199 16.378 35.1199C12.819 35.1199 10.3528 36.4931 10.3528 36.4931C15.4289 36.2774 22.1443 37.7585 28.4859 40.9868C30.6141 42.0653 32.4691 42.7484 34.0725 43.1438C34.3026 43.5393 34.5182 43.8844 34.6836 44.172C34.9784 47.0192 34.0293 46.9976 33.4182 47.0408C32.6345 47.0983 32.0377 45.5956 33.3607 45.4518C33.3607 45.4518 32.656 45.0995 32.1671 45.7897C31.6782 46.4728 32.3325 47.7741 33.6339 47.7526C34.8849 47.731 35.9634 46.5806 35.9634 44.5171H35.9922C35.9922 46.5806 36.9772 47.8173 38.408 47.7957C39.7094 47.7813 40.2199 46.4728 39.731 45.7897C39.242 45.0995 38.5949 45.4518 38.5949 45.4518C39.9251 45.6028 39.4074 47.0192 38.5949 47.0192C37.8831 47.0192 36.97 47.0192 37.2648 44.172C37.3583 43.9994 37.4661 43.8053 37.5883 43.5968C38.9472 43.5824 39.997 43.3092 40.7519 42.9425C42.7363 41.979 58.7627 36.6872 66.6357 43.3954C74.5159 50.1109 71.9348 56.704 71.9348 56.704C71.9348 56.704 69.9863 56.5243 68.1313 60.8095H68.1384Z" fill="var(--fill-0, #1E1E1E)"/>
<path id="Vector_6" d="M35.9703 36.0833C36.79 36.0833 37.4587 35.4146 37.4587 34.595C37.4587 33.7753 36.79 33.1067 35.9703 33.1067C35.1507 33.1067 34.482 33.7753 34.482 34.595C34.482 35.4146 35.1507 36.0833 35.9703 36.0833Z" fill="var(--fill-0, #1E1E1E)"/>
</g>
</g>
</svg>
