<svg preserveAspectRatio="xMidYMid meet" width="263" height="321" overflow="visible" style="display: block;" viewBox="0 0 263 321" fill="none" xmlns="http://www.w3.org/2000/svg">
<path id="Vector" d="M76.0185 193.767V320.979H0V0H141.653C167.771 0 188.751 3.02137 204.57 9.04314C220.388 15.0859 233.49 26.1643 243.874 42.2992C254.259 58.4342 259.461 76.3736 259.461 96.1174C259.461 134.661 240.82 162.315 203.516 179.079L263 321H179.588L130.11 193.788H76.0396L76.0185 193.767ZM76.0185 57.1333V138.962H122.295C137.398 138.962 148.372 137.913 155.218 135.794C162.063 133.675 168.172 128.975 173.522 121.694C178.872 114.414 181.547 106.063 181.547 96.642C181.547 87.2212 178.872 79.7097 173.522 72.6598C168.172 65.61 162.337 61.2458 156.06 59.6092C149.762 57.9726 137.967 57.1333 120.652 57.1333H76.0396H76.0185Z" fill="var(--fill-0, #F5A9BE)"/>
</svg>
