<svg preserveAspectRatio="xMidYMid meet" width="20" height="31" overflow="visible" style="display: block;" viewBox="0 0 20 31" fill="none" xmlns="http://www.w3.org/2000/svg">
<path id="Vector" d="M19.8428 7.80825C19.4481 5.78659 18.4978 4.05828 16.9595 2.66293C14.9943 0.887045 12.6587 0.0308314 10.0009 0.00704718C9.77538 0.00704718 9.54182 -0.00880898 9.31631 0.00704718C7.35921 0.149753 5.57124 0.768154 3.98463 1.90187C1.81812 3.45577 0.465067 5.51698 0.0945878 8.1491C-0.195353 10.1708 0.191238 12.0894 1.11744 13.9049C1.84229 15.3161 2.73627 16.6322 3.67858 17.9086C4.81418 19.4387 5.92562 20.9767 6.85987 22.6337C7.60888 23.9498 8.23709 25.3214 8.68005 26.7722C9.02637 27.9139 9.27604 29.0713 9.40491 30.2526C9.43712 30.5539 9.56598 30.76 9.81565 30.9107C9.84787 30.9265 9.87203 30.9661 9.90424 30.9741C9.96868 30.9899 10.0412 31.0137 10.0975 30.9899C10.3794 30.8552 10.5405 30.6173 10.5888 30.324C10.6613 29.9355 10.6935 29.5312 10.758 29.1427C10.9513 27.898 11.2976 26.7008 11.7647 25.5275C12.5057 23.6644 13.5043 21.9361 14.6319 20.287C15.5017 19.0185 16.4199 17.7738 17.2977 16.5133C18.1676 15.2686 18.9407 13.9683 19.4481 12.5334C19.9877 10.9953 20.1569 9.43352 19.8428 7.82412V7.80825ZM11.2412 12.5254C9.92035 12.9773 8.68811 12.7871 7.62499 11.8754C6.06254 10.5355 6.13502 8.22846 7.73775 6.93618C9.38074 5.62012 11.8613 6.01646 12.9808 7.76857C13.303 8.27597 13.4641 8.83092 13.4641 9.33831C13.4802 10.8129 12.6104 12.0497 11.2331 12.5254H11.2412Z" fill="var(--fill-0, white)"/>
</svg>
