<svg width="302" height="21" viewBox="0 0 302 21" fill="none" xmlns="http://www.w3.org/2000/svg">
<g id="Vector">
<path d="M10.1973 3.91902C10.1973 2.05373 9.71636 1.70926 8.38402 0.974842V0.747384H14.5583V0.974842C13.226 1.70926 12.771 2.05373 12.771 3.91902V14.5973C12.771 18.5618 9.99582 20.856 6.25876 20.856C2.5217 20.856 0 18.6788 0 15.8711C0 14.1748 1.18936 13.07 2.66468 13.07C3.26261 13.07 3.74356 13.2389 4.05552 13.5249C3.23662 14.0644 2.63869 14.8247 2.63869 16.2741C2.63869 18.3148 4.11402 19.7577 6.26527 19.7577C9.06644 19.7577 10.2038 17.6649 10.2038 14.4608V3.92552L10.1973 3.91902Z" fill="var(--fill-0, black)"/>
<path d="M21.2787 0.974842V0.747384H27.453V0.974842C26.1207 1.70926 25.6397 2.05373 25.6397 3.91902V17.3984C25.6397 19.2702 26.1207 19.6082 27.453 20.3426V20.5701H21.2787V20.3426C22.6111 19.6082 23.066 19.2637 23.066 17.3984V3.91902C23.066 2.05373 22.6111 1.70926 21.2787 0.974842Z" fill="var(--fill-0, black)"/>
<path d="M48.5232 3.69157C48.7767 3.12614 48.8352 2.98313 48.8352 2.61268C48.8352 2.01475 48.2698 1.65081 47.0219 0.96839V0.740893H52.3448V0.96839C51.0969 1.84579 50.7005 2.26824 49.9076 3.97104L42.206 20.8495H42.063L34.3614 3.97104C33.5945 2.27473 33.198 1.84579 31.9567 0.96839V0.740893H38.1309V0.96839C36.9676 1.47533 36.6036 1.81977 36.6036 2.4112C36.6036 2.78166 36.7466 3.06112 36.9741 3.62656L42.7779 16.6511L48.5232 3.68507V3.69157Z" fill="var(--fill-0, black)"/>
<path d="M57.0761 20.5701H51.7532V20.3427C53.0011 19.4653 53.482 19.0428 54.2749 17.34L62.204 0.409484H62.347L70.2761 17.34C71.095 19.0363 71.4394 19.4653 72.6808 20.3427V20.5701H66.5065V20.3427C67.6959 19.8357 68.0663 19.4913 68.0663 18.8998C68.0663 18.5294 67.9558 18.2499 67.6699 17.6845L65.9736 14.0319H57.2516L55.6073 17.6585C55.3538 18.1979 55.2693 18.5099 55.2693 18.8478C55.2693 19.4458 55.8348 19.7513 57.0826 20.3492V20.5766L57.0761 20.5701ZM57.7845 12.8686H65.4276L61.5801 4.56901L57.7845 12.8686Z" fill="var(--fill-0, black)"/>
<path d="M94.9342 0.747384H99.8346V0.974842C98.5023 1.70926 98.0538 2.05373 98.0538 3.91902V17.3984C98.0538 19.2702 98.5088 19.6082 99.8346 20.3426V20.5701H93.6928V20.3426C95.0252 19.6082 95.4736 19.2637 95.4736 17.3984V2.56066L87.629 20.882H87.5121L79.583 2.56066V17.3725C79.583 19.2377 80.3499 19.6082 81.7082 20.3426V20.5701H76.0994V20.3426C77.4317 19.6082 78.1986 19.2377 78.1986 17.3725V3.91902C78.1986 2.05373 77.7437 1.70926 76.4114 0.974842V0.747384H81.7082L88.422 16.2351L94.9342 0.747384Z" fill="var(--fill-0, black)"/>
<path d="M119.976 0.974842V0.747384H125.611V0.974842C124.279 1.70926 123.544 2.07972 123.544 3.945V12.979C123.544 18.1589 120.262 20.8495 115.758 20.8495C110.15 20.8495 107.543 17.7624 107.543 12.979V3.91902C107.543 2.05373 107.062 1.70926 105.73 0.974842V0.747384H111.93V0.974842C110.598 1.70926 110.117 2.05373 110.117 3.91902V12.641C110.117 17.1125 112.301 19.3547 115.921 19.3547C119.541 19.3547 122.121 17.3724 122.121 12.6735V3.9515C122.121 2.07972 121.328 1.71576 119.97 0.981347L119.976 0.974842Z" fill="var(--fill-0, black)"/>
<path d="M131.252 20.5701V20.3426C132.584 19.6082 133.039 19.2637 133.039 17.3984V3.91902C133.039 2.05373 132.584 1.70926 131.252 0.974842V0.747384H137.426V0.974842C136.094 1.70926 135.613 2.05373 135.613 3.91902V11.2502L144.25 3.21058C144.647 2.81413 144.816 2.50217 144.816 2.16421C144.816 1.70927 144.309 1.39729 143.6 0.974842V0.747384H149.463V0.974842C147.591 1.85224 146.46 2.67116 145.128 3.91902L139.688 8.96243L146.824 17.3984C148.039 18.8153 149.144 19.8032 150.366 20.3426V20.5701H144.081V20.3426C144.562 20.0566 144.959 19.8357 144.959 19.4067C144.959 19.0103 144.764 18.7568 144.276 18.1329L137.849 10.6003L135.613 12.6085V17.3919C135.613 19.2637 136.094 19.6017 137.426 20.3361V20.5636H131.252V20.5701Z" fill="var(--fill-0, black)"/>
<path d="M169.214 0.74742C170.065 0.74742 170.488 0.662924 170.91 0.578434L171.846 5.90131H171.593C169.948 3.4381 169.019 1.79379 166.38 1.79379H163.579V17.366C163.579 19.2313 164.086 19.6017 165.646 20.3361V20.5636H158.965V20.3361C160.524 19.6017 161.005 19.2313 161.005 17.366V1.79379H158.23C155.565 1.79379 154.636 3.4381 152.992 5.90131H152.738L153.674 0.578434C154.097 0.662924 154.526 0.74742 155.37 0.74742H169.22H169.214Z" fill="var(--fill-0, black)"/>
<path d="M177.63 0.974842V0.747384H183.805V0.974842C182.472 1.70926 181.991 2.05373 181.991 3.91902V17.3984C181.991 19.2702 182.472 19.6082 183.805 20.3426V20.5701H177.63V20.3426C178.963 19.6082 179.411 19.2637 179.411 17.3984V3.91902C179.411 2.05373 178.956 1.70926 177.63 0.974842Z" fill="var(--fill-0, black)"/>
<path d="M214.527 3.54857C214.839 3.09362 214.923 2.67116 214.923 2.44369C214.923 1.90425 214.384 1.54032 213.48 0.96839V0.740893H218.465V0.96839C217.335 1.81979 216.769 2.4437 215.833 3.91253L210.51 12.2966V17.3919C210.51 19.2637 210.991 19.6017 212.551 20.3361V20.5636H205.922V20.3361C207.482 19.6017 207.963 19.2572 207.963 17.3919V12.2966L202.64 3.91253C201.704 2.4372 201.164 1.81979 200.008 0.96839V0.740893H205.785V0.96839C205.051 1.42334 204.849 1.7613 204.849 2.26824C204.849 2.69069 204.96 3.08712 205.272 3.54206L209.919 10.9057L214.533 3.54206L214.527 3.54857Z" fill="var(--fill-0, black)"/>
<path d="M232.796 0.461413C238.457 0.461413 242.623 4.71192 242.623 10.6587C242.623 16.6055 238.463 20.8495 232.796 20.8495C227.128 20.8495 222.969 16.599 222.969 10.6587C222.969 4.71842 227.128 0.461413 232.796 0.461413ZM232.796 1.74178C228.493 1.74178 225.887 5.30985 225.887 10.6587C225.887 16.0076 228.493 19.5757 232.796 19.5757C237.098 19.5757 239.704 16.0076 239.704 10.6587C239.704 5.30985 237.098 1.74178 232.796 1.74178Z" fill="var(--fill-0, black)"/>
<path d="M263.771 14.2853C263.771 12.4135 263.29 12.108 261.958 11.3411V11.1137H268.158V11.3411C266.8 12.108 266.319 12.42 266.319 14.2853V20.8235H265.669L264.167 17.9899C263.062 19.6602 260.801 20.8495 258.026 20.8495C252.306 20.8495 248.114 16.742 248.114 10.7692C248.114 4.7964 252.475 0.461413 258.448 0.461413C260.742 0.461413 262.523 1.16985 263.686 2.02125L265.214 0.461413H265.415V6.38221H265.188C263.576 3.71752 261.704 1.68327 258.591 1.68327C254.119 1.68327 251.058 5.33583 251.058 10.6847C251.058 16.0336 254.145 19.3482 258.701 19.3482C260.768 19.3482 262.523 18.6398 263.771 16.9435V14.2788V14.2853Z" fill="var(--fill-0, black)"/>
<path d="M277.225 20.5701H271.902V20.3427C273.15 19.4653 273.631 19.0428 274.424 17.34L282.353 0.409484H282.496L290.425 17.34C291.244 19.0363 291.588 19.4653 292.83 20.3427V20.5701H286.655V20.3427C287.845 19.8357 288.215 19.4913 288.215 18.8998C288.215 18.5294 288.098 18.2499 287.819 17.6845L286.122 14.0319H277.4L275.756 17.6585C275.503 18.1979 275.418 18.5099 275.418 18.8478C275.418 19.4458 275.984 19.7513 277.231 20.3492V20.5766L277.225 20.5701ZM277.933 12.8686H285.577L281.729 4.56901L277.933 12.8686Z" fill="var(--fill-0, black)"/>
<path d="M302 4.00355C302 6.2068 300.206 8.00707 297.99 8.00707C295.774 8.00707 293.98 6.2068 293.98 4.00355C293.98 1.80031 295.787 0 297.99 0C300.193 0 302 1.78081 302 4.00355ZM301.662 4.00355C301.662 2.02129 299.979 0.318496 297.983 0.318496C295.988 0.318496 294.318 2.02129 294.318 4.00355C294.318 5.98582 296.001 7.68861 297.983 7.68861C299.966 7.68861 301.662 5.97282 301.662 4.00355ZM296.177 1.7093L297.594 1.65083C298.562 1.61184 299.335 1.83929 299.335 2.72318C299.335 3.60708 298.802 3.85407 298.12 3.91906C298.581 3.95806 299.114 4.36103 299.192 5.11494C299.29 6.08982 299.582 6.08332 300.167 6.08332L300.109 6.26528C298.919 6.57074 298.516 6.08332 298.386 5.55688C298.269 5.07594 298.523 4.13353 297.639 3.95805C297.516 3.93206 297.379 3.95805 297.379 3.95805V5.90132C297.379 5.99881 297.379 6.03782 297.418 6.03782L297.775 6.08332V6.26528H296.177V6.08332L296.508 6.03782C296.567 6.03782 296.567 5.99881 296.567 5.90132V2.07326C296.567 1.96927 296.567 1.9368 296.508 1.9368L296.177 1.87829V1.70284V1.7093ZM297.379 3.74357H297.516C298.341 3.74357 298.523 3.25613 298.523 2.76868C298.523 1.83929 297.769 1.73532 297.386 1.85231V3.75007L297.379 3.74357Z" fill="var(--fill-0, black)"/>
</g>
</svg>
