<svg preserveAspectRatio="xMidYMid meet" width="296" height="291" overflow="visible" style="display: block;" viewBox="0 0 296 291" fill="none" xmlns="http://www.w3.org/2000/svg">
<g id="Vector">
<path d="M63.0254 256.396L60.5084 254.472L57.1865 258.804L52.5753 255.27L65.0649 238.975L72.5137 244.684C73.9871 245.816 75.0785 247.037 75.7947 248.361C76.5042 249.684 76.8111 251.021 76.7019 252.385C76.5928 253.749 76.0744 255.038 75.133 256.266C74.2258 257.446 73.1686 258.265 71.9407 258.715C70.7197 259.172 69.4032 259.254 67.9981 258.967L67.5888 266.785L62.6503 263.006L63.0118 256.409L63.0254 256.396ZM71.1221 250.366C70.9653 249.582 70.406 248.824 69.4646 248.094L66.9067 246.13L63.2505 250.905L65.8085 252.869C66.7566 253.592 67.6297 253.933 68.421 253.892C69.2191 253.852 69.908 253.449 70.4878 252.685C71.0676 251.928 71.279 251.15 71.1221 250.359V250.366Z" fill="var(--fill-0, #B9302E)"/>
<path d="M76.6951 270.959C75.5764 269.349 74.9556 267.596 74.8192 265.7C74.6828 263.804 75.0853 261.955 76.0198 260.148C76.9543 258.34 78.2298 256.942 79.8533 255.952C81.4767 254.963 83.2639 254.459 85.2284 254.431C87.1861 254.411 89.1302 254.895 91.0606 255.891C92.991 256.887 94.5121 258.19 95.6308 259.8C96.7494 261.41 97.3702 263.163 97.5066 265.059C97.6362 266.955 97.2406 268.804 96.3061 270.611C95.3715 272.419 94.096 273.817 92.4725 274.806C90.8491 275.795 89.0619 276.3 87.0974 276.328C85.1397 276.348 83.1956 275.864 81.2652 274.868C79.3348 273.872 77.8137 272.569 76.6951 270.959ZM86.3061 271.232C87.2747 271.184 88.182 270.877 89.0278 270.311C89.8668 269.745 90.5557 268.947 91.0878 267.924C91.6199 266.901 91.8654 265.877 91.8449 264.861C91.8177 263.845 91.5448 262.931 91.0196 262.112C90.4944 261.293 89.7713 260.645 88.8573 260.168C87.9364 259.69 86.9883 259.479 86.0197 259.527C85.0511 259.575 84.1439 259.882 83.298 260.448C82.4522 261.014 81.7701 261.812 81.238 262.835C80.706 263.858 80.4536 264.881 80.4809 265.898C80.5081 266.914 80.781 267.828 81.3062 268.654C81.8314 269.472 82.5477 270.12 83.4686 270.598C84.3894 271.075 85.3375 271.287 86.3061 271.239V271.232Z" fill="var(--fill-0, #B9302E)"/>
<path d="M115.235 287.085L118.12 276.594L110.644 283.694L108.161 282.999L105.426 273.333L102.561 283.531L97.3906 282.078L102.943 262.31L107.547 263.606L111.292 276.962L121.272 267.46L125.876 268.749L120.378 288.531L115.242 287.085H115.235Z" fill="var(--fill-0, #B9302E)"/>
<path d="M143.959 286.532L143.516 291L127.111 289.356L129.157 268.926L145.18 270.53L144.737 274.997L134.437 273.967L134.096 277.412L143.175 278.319L142.745 282.637L133.666 281.73L133.291 285.468L143.973 286.539L143.959 286.532Z" fill="var(--fill-0, #B9302E)"/>
<path d="M160.569 274.363L154.3 275.072L153.782 270.495L172.056 268.435L172.574 273.012L166.339 273.715L168.127 289.54L162.356 290.188L160.569 274.363Z" fill="var(--fill-0, #B9302E)"/>
<path d="M185.957 280.345L182.901 281.177L184.334 286.443L178.734 287.971L173.331 268.163L182.39 265.693C184.184 265.202 185.821 265.079 187.301 265.311C188.781 265.543 190.036 266.116 191.053 267.023C192.069 267.931 192.785 269.131 193.188 270.618C193.577 272.051 193.584 273.394 193.208 274.643C192.826 275.891 192.096 276.989 191.019 277.93L196.987 282.992L190.991 284.629L185.964 280.345H185.957ZM186.066 270.25C185.343 269.902 184.402 269.882 183.256 270.195L180.146 271.041L181.728 276.839L184.839 275.993C185.991 275.68 186.79 275.195 187.24 274.534C187.69 273.872 187.785 273.081 187.533 272.16C187.281 271.239 186.796 270.598 186.066 270.25Z" fill="var(--fill-0, #B9302E)"/>
<path d="M193.304 262.146L198.686 259.964L206.407 278.988L201.025 281.171L193.304 262.146Z" fill="var(--fill-0, #B9302E)"/>
<path d="M223.726 260.141C224.729 260.577 225.534 261.334 226.134 262.412C227.007 263.981 227.055 265.55 226.264 267.105C225.473 268.66 223.883 270.107 221.489 271.437L211.803 276.832L201.817 258.892L210.991 253.783C213.283 252.508 215.261 251.962 216.926 252.14C218.59 252.317 219.825 253.128 220.623 254.561C221.1 255.414 221.312 256.294 221.271 257.201C221.23 258.108 220.93 258.974 220.384 259.793C221.612 259.581 222.724 259.697 223.726 260.134V260.141ZM208.883 259.759L210.807 263.217L214.293 261.28C215.998 260.332 216.53 259.275 215.889 258.108C215.254 256.962 214.081 256.867 212.369 257.815L208.883 259.752V259.759ZM220.691 264.697C220.016 263.483 218.788 263.374 217.014 264.363L212.758 266.73L214.784 270.366L219.04 267.999C220.814 267.01 221.366 265.912 220.691 264.697Z" fill="var(--fill-0, #B9302E)"/>
<path d="M243.426 250.441L246.202 253.968L233.256 264.172L220.548 248.047L233.194 238.081L235.971 241.607L227.84 248.02L229.982 250.741L237.144 245.093L239.831 248.504L232.669 254.152L234.995 257.098L243.426 250.455V250.441Z" fill="var(--fill-0, #B9302E)"/>
<path d="M257.089 226.253L260.322 222.269L266.925 227.631C266.836 229.07 266.489 230.523 265.875 231.99C265.261 233.456 264.476 234.786 263.515 235.966C262.157 237.638 260.588 238.852 258.794 239.616C257.007 240.38 255.172 240.632 253.296 240.366C251.421 240.107 249.688 239.322 248.092 238.033C246.496 236.737 245.377 235.202 244.736 233.422C244.095 231.642 243.965 229.786 244.354 227.863C244.743 225.939 245.629 224.125 247.014 222.426C248.221 220.939 249.558 219.807 251.018 219.029C252.478 218.252 254.006 217.849 255.581 217.829L255.848 222.808C253.788 222.924 252.15 223.736 250.929 225.237C249.818 226.601 249.34 228.04 249.49 229.548C249.64 231.055 250.404 232.365 251.789 233.49C252.669 234.207 253.61 234.657 254.606 234.834C255.602 235.018 256.577 234.923 257.519 234.554C258.46 234.186 259.285 233.559 260.002 232.679C260.704 231.812 261.189 230.857 261.455 229.82L257.082 226.273L257.089 226.253Z" fill="var(--fill-0, #B9302E)"/>
<path d="M275.383 209.8L271.161 217.385L273.862 220.735L270.977 225.912L257.45 207.999L260.234 203L282.593 205.046L279.654 210.325L275.383 209.793V209.8ZM270.82 209.2L263.794 208.306L268.249 213.811L270.82 209.2Z" fill="var(--fill-0, #B9302E)"/>
<path d="M270.077 192.665L267.873 198.573L263.562 196.963L269.995 179.732L274.306 181.342L272.109 187.222L287.034 192.795L285.001 198.238L270.077 192.665Z" fill="var(--fill-0, #B9302E)"/>
<path d="M274.19 159.371L294.326 163.382L293.194 169.078L285.342 167.515L283.794 175.285L291.645 176.847L290.513 182.543L270.377 178.532L271.509 172.836L279.074 174.344L280.622 166.574L273.057 165.067L274.19 159.371Z" fill="var(--fill-0, #B9302E)"/>
<path d="M290.991 140.231L295.472 140.381L294.913 156.854L274.394 156.158L274.94 140.067L279.428 140.217L279.074 150.565L282.532 150.681L282.839 141.561L287.177 141.711L286.87 150.824L290.622 150.954L290.984 140.224L290.991 140.231Z" fill="var(--fill-0, #B9302E)"/>
<path d="M288.726 126.588L289.115 129.733L294.531 129.064L295.24 134.828L274.865 137.345L273.712 128.027C273.487 126.186 273.59 124.549 274.033 123.109C274.476 121.677 275.22 120.517 276.264 119.644C277.307 118.764 278.596 118.232 280.131 118.041C281.605 117.857 282.935 118.041 284.115 118.601C285.295 119.153 286.277 120.033 287.055 121.24L292.914 116.056L293.678 122.229L288.719 126.595L288.726 126.588ZM278.753 125.047C278.303 125.715 278.153 126.636 278.296 127.823L278.692 131.022L284.661 130.285L284.265 127.086C284.122 125.899 283.753 125.04 283.16 124.501C282.573 123.962 281.802 123.751 280.847 123.873C279.899 123.989 279.197 124.385 278.746 125.047H278.753Z" fill="var(--fill-0, #B9302E)"/>
<path d="M271.768 116.738L270.377 111.104L290.308 106.172L291.7 111.807L271.768 116.738Z" fill="var(--fill-0, #B9302E)"/>
<path d="M262.737 89.5968L281.884 82.1752L283.61 86.6363L276.686 99.0372L286.891 95.0811L288.944 100.388L269.797 107.809L268.071 103.355L274.995 90.9474L264.79 94.9037L262.737 89.5968Z" fill="var(--fill-0, #B9302E)"/>
<path d="M262.553 69.9175L259.893 65.5315L267.164 61.1182C268.494 61.6844 269.742 62.5028 270.916 63.5737C272.089 64.6447 273.078 65.8315 273.869 67.1344C274.988 68.9761 275.602 70.8656 275.718 72.8097C275.834 74.7537 275.452 76.5613 274.572 78.2393C273.692 79.9174 272.375 81.2885 270.615 82.3526C268.862 83.4167 267.034 83.9556 265.138 83.9624C263.242 83.9624 261.455 83.4645 259.777 82.4482C258.099 81.4318 256.687 79.9856 255.554 78.1166C254.558 76.4795 253.944 74.8425 253.706 73.1985C253.467 71.5615 253.603 69.9925 254.108 68.4918L258.883 69.9175C258.296 71.8956 258.508 73.7101 259.511 75.3676C260.425 76.8751 261.611 77.8097 263.085 78.1712C264.551 78.5396 266.052 78.2599 267.573 77.3391C268.542 76.7524 269.278 76.0156 269.79 75.1357C270.302 74.2557 270.534 73.3145 270.506 72.2981C270.479 71.2886 270.165 70.2996 269.579 69.3241C268.999 68.3692 268.269 67.5914 267.375 66.9912L262.56 69.9107L262.553 69.9175Z" fill="var(--fill-0, #B9302E)"/>
<path d="M6.31351 193.566L4.15115 184.098C3.6532 181.908 3.61908 179.869 4.04882 177.986C4.47855 176.103 5.34487 174.521 6.63408 173.245C7.92329 171.97 9.58079 171.097 11.6067 170.633C13.6258 170.169 15.5017 170.237 17.2138 170.824C18.9327 171.41 20.3993 172.461 21.6066 173.975C22.814 175.483 23.6666 177.338 24.1714 179.528L26.3338 188.995L6.32025 193.572L6.31351 193.566ZM19.7035 180.79C19.3078 179.077 18.5098 177.809 17.3025 176.99C16.0951 176.172 14.6285 175.96 12.9164 176.356C11.2043 176.745 9.97644 177.577 9.23975 178.832C8.50306 180.094 8.33253 181.581 8.72816 183.3L9.54676 186.874L20.5289 184.364L19.7103 180.79H19.7035Z" fill="var(--fill-0, #B9302E)"/>
<path d="M20.188 161.131C19.3354 162.897 18.1144 164.303 16.5319 165.346C14.9494 166.397 13.1417 166.956 11.109 167.038C9.07624 167.113 7.23451 166.69 5.57014 165.769C3.91258 164.842 2.58931 163.532 1.60705 161.84C0.624797 160.149 0.0926827 158.211 0.0108281 156.042C-0.0710265 153.873 0.311005 151.909 1.16366 150.142C2.01631 148.375 3.2373 146.97 4.81982 145.926C6.40234 144.876 8.20993 144.316 10.2427 144.235C12.2754 144.16 14.1239 144.583 15.7815 145.503C17.439 146.431 18.7624 147.741 19.7446 149.432C20.7269 151.124 21.2589 153.061 21.3476 155.23C21.4363 157.4 21.0475 159.364 20.1949 161.131H20.188ZM15.6929 152.632C15.1745 151.813 14.4582 151.172 13.551 150.715C12.6438 150.258 11.6138 150.053 10.461 150.101C9.30819 150.142 8.2986 150.428 7.42549 150.954C6.55237 151.479 5.89077 152.168 5.43374 153.027C4.97672 153.887 4.77206 154.835 4.80616 155.872C4.84709 156.908 5.12675 157.836 5.64516 158.655C6.16357 159.473 6.87981 160.114 7.78703 160.571C8.69425 161.028 9.72428 161.233 10.8771 161.185C12.0298 161.144 13.0394 160.858 13.9125 160.34C14.7856 159.814 15.4473 159.125 15.9043 158.266C16.3613 157.406 16.5728 156.458 16.5319 155.421C16.4909 154.385 16.2113 153.457 15.6929 152.638V152.632Z" fill="var(--fill-0, #B9302E)"/>
<path d="M0.597497 138.628L1.30685 132.864L17.1116 134.821L18.3122 125.101L22.8824 125.667L20.9656 141.151L0.590669 138.628H0.597497Z" fill="var(--fill-0, #B9302E)"/>
<path d="M23.4624 119.556C22.1322 120.961 20.5498 121.922 18.7285 122.434C16.9004 122.946 15.0041 122.925 13.0191 122.379C11.041 121.834 9.39709 120.872 8.09423 119.494C6.79138 118.123 5.92506 116.486 5.50897 114.596C5.08605 112.707 5.16105 110.722 5.73404 108.648C6.23198 106.841 7.00279 105.299 8.04644 104.024C9.09008 102.748 10.3452 101.8 11.8186 101.172L14.056 105.627C12.1597 106.479 10.9523 107.823 10.4475 109.651C10.1474 110.729 10.1201 111.745 10.3588 112.714C10.5976 113.682 11.0819 114.515 11.8118 115.217C12.5416 115.92 13.4625 116.418 14.5744 116.725C15.6862 117.032 16.7367 117.073 17.719 116.847C18.7012 116.622 19.547 116.159 20.2496 115.449C20.9522 114.74 21.4501 113.846 21.7502 112.775C22.255 110.947 21.914 109.18 20.7203 107.468L24.929 104.794C25.8703 106.09 26.4637 107.55 26.7024 109.18C26.9412 110.811 26.8116 112.53 26.3137 114.337C25.7407 116.411 24.7857 118.15 23.4555 119.556H23.4624Z" fill="var(--fill-0, #B9302E)"/>
<path d="M31.9545 86.8068L36.0404 88.6622L29.2192 103.669L10.5222 95.1765L17.1797 80.5177L21.2656 82.373L16.9819 91.8L20.1333 93.2323L23.9055 84.9241L27.855 86.7182L24.0828 95.0264L27.5002 96.5817L31.9409 86.8068H31.9545Z" fill="var(--fill-0, #B9302E)"/>
<path d="M32.2137 65.1426L35.8494 67.8233L41.2313 60.5315L44.8398 63.1919L39.4578 70.4837L45.1262 74.665L41.6816 79.3376L25.1605 67.148L34.717 54.1877L38.3255 56.8549L32.2137 65.1426Z" fill="var(--fill-0, #B9302E)"/>
<path d="M59.1713 52.619L53.0117 58.7376L54.6829 62.7006L50.4811 66.8753L42.432 45.9205L46.4906 41.889L67.4113 50.0405L63.1276 54.297L59.1713 52.6053V52.619ZM54.9489 50.7771L48.4415 47.9805L51.2041 54.5015L54.9489 50.7771Z" fill="var(--fill-0, #B9302E)"/>
<path d="M72.7933 39.7678L70.2081 41.5958L73.3526 46.0501L68.6051 49.3993L56.7703 32.626L64.4373 27.2166C65.9585 26.1457 67.4523 25.4704 68.9257 25.1839C70.3991 24.8974 71.7701 25.0066 73.0389 25.5113C74.3076 26.0161 75.3854 26.903 76.2721 28.1649C77.1316 29.3791 77.5955 30.641 77.6637 31.9439C77.7319 33.2467 77.425 34.529 76.7292 35.7841L84.0688 38.5058L78.987 42.0938L72.8002 39.7814L72.7933 39.7678ZM69.4441 30.2454C68.646 30.1635 67.7592 30.4636 66.7838 31.1525L64.144 33.0147L67.6092 37.9261L70.2422 36.0639C71.2176 35.375 71.8042 34.645 72.0021 33.8742C72.1999 33.1034 72.0225 32.3258 71.47 31.5414C70.9175 30.7569 70.2422 30.3272 69.4441 30.2454Z" fill="var(--fill-0, #B9302E)"/>
<path d="M103.857 7.19644L111.463 26.2685L107.022 28.0421L94.5528 21.2346L98.6046 31.3981L93.3181 33.5059L85.7124 14.4337L90.1531 12.6602L102.622 19.4678L98.5705 9.30425L103.857 7.19644Z" fill="var(--fill-0, #B9302E)"/>
<path d="M110.003 5.64801L115.63 4.20183L120.753 24.0858L115.132 25.5318L110.01 5.64801H110.003Z" fill="var(--fill-0, #B9302E)"/>
<path d="M140.01 16.3368L140.637 20.7774L124.314 23.0967L121.429 2.76948L137.37 0.504787L137.997 4.94541L127.745 6.39841L128.229 9.82251L137.261 8.5402L137.875 12.8376L128.843 14.1199L129.368 17.8374L139.996 16.33L140.01 16.3368Z" fill="var(--fill-0, #B9302E)"/>
<path d="M163.529 0.443312L163.059 20.9684L158.277 20.8593L149.471 9.71341L149.218 20.6547L143.529 20.5251L144 0L148.782 0.10908L157.588 11.255L157.84 0.320577L163.529 0.45014V0.443312Z" fill="var(--fill-0, #B9302E)"/>
<path d="M173.965 6.68482L167.765 5.5389L168.597 1.00952L186.68 4.34519L185.848 8.8744L179.675 7.73531L176.789 23.3968L171.08 22.3463L173.965 6.68482Z" fill="var(--fill-0, #B9302E)"/>
<path d="M201.728 26.1253L200.289 30.3749L184.675 25.0816L191.264 5.63432L206.516 10.8049L205.077 15.0545L195.268 11.7324L194.156 15.0135L202.799 17.9398L201.407 22.053L192.765 19.1267L191.557 22.6805L201.728 26.1253Z" fill="var(--fill-0, #B9302E)"/>
<path d="M241.523 56.5139C239.715 56.5139 238.242 55.8589 237.109 54.5493C236.523 53.874 236.031 53.0896 235.636 52.196C235.24 51.3024 235.049 50.3678 235.049 49.3856C235.049 48.4033 235.247 47.4757 235.636 46.6026C235.943 45.9068 236.311 45.2588 236.748 44.6585C237.184 44.0582 237.764 43.3421 238.48 42.5167C239.176 41.7118 239.701 41.05 240.049 40.5385C240.397 40.0269 240.595 39.5084 240.636 38.9832C239.592 39.3788 238.562 39.5699 237.559 39.5699C236.666 39.5699 235.936 39.3994 235.37 39.0651C234.804 38.7241 234.517 38.2533 234.517 37.6394C234.517 37.0733 234.824 36.6096 235.431 36.2481C236.038 35.8865 236.775 35.7091 237.621 35.7091C238.207 35.7091 238.774 35.8046 239.319 36.0024C239.865 36.2002 240.336 36.5072 240.724 36.9165C240.984 37.1757 241.216 37.5303 241.413 37.96L241.836 37.7282C242.907 37.0529 243.739 36.1797 244.34 35.1088C244.94 34.0379 245.24 32.9738 245.24 31.9029C245.24 31.3367 245.165 30.832 245.008 30.3954C244.769 29.6519 244.34 29.0652 243.719 28.6286C243.098 28.1921 242.293 27.9738 241.318 27.9738C239.462 27.9738 237.205 28.7719 234.551 30.3613L234.422 30.4295C234.115 32.5646 233.289 34.8974 231.939 37.4281C229.974 41.132 228.153 44.1605 226.475 46.5002C224.797 48.8467 223.283 50.0132 221.932 50.0132C221.625 50.0132 221.345 49.945 221.079 49.8154C220.295 49.447 219.899 48.7375 219.899 47.6871C219.899 46.7048 220.233 45.5248 220.895 44.1401C221.557 42.7554 222.403 41.3571 223.433 39.9383C225.984 36.3844 229.169 33.2329 232.982 30.484C233.071 29.9383 233.112 29.3518 233.112 28.7174C233.112 27.3668 232.866 26.3026 232.375 25.5318C231.884 24.761 231.127 24.3722 230.104 24.3722C229.388 24.3722 228.76 24.611 228.221 25.0885C227.689 25.566 227.246 26.1526 226.898 26.8347C226.55 27.5237 226.148 28.4309 225.69 29.5632L225.397 30.2795C225.268 30.6069 225.083 30.8524 224.845 31.0161C224.606 31.1798 224.353 31.2617 224.094 31.2617C223.787 31.2617 223.521 31.1526 223.296 30.9343C223.064 30.716 222.955 30.443 222.955 30.1156C222.955 29.8564 223.03 29.5836 223.187 29.2971C223.951 27.8169 225.002 26.5278 226.345 25.4364C227.689 24.345 229.019 23.7993 230.349 23.7993C230.588 23.7993 230.772 23.8128 230.909 23.8333C232.15 24.0107 233.091 24.5837 233.719 25.5523C234.353 26.5209 234.626 27.8034 234.538 29.3927C236.195 28.3218 237.757 27.5373 239.231 27.0189C240.704 26.5073 242.048 26.248 243.269 26.248C244.49 26.248 245.452 26.4731 246.277 26.9165C247.102 27.3667 247.696 27.9806 248.044 28.765C248.262 29.2221 248.371 29.7678 248.371 30.4022C248.371 31.6914 247.859 33.0215 246.836 34.4062C245.813 35.7909 244.285 37.0392 242.259 38.151L241.604 38.5126C241.693 38.84 241.734 39.2221 241.734 39.6587C241.734 40.2726 241.625 40.9137 241.407 41.589C241.209 42.1756 240.936 42.7691 240.588 43.3694C240.24 43.9696 239.749 44.7677 239.115 45.7704C238.221 47.1893 237.566 48.3079 237.15 49.1401C236.734 49.9655 236.529 50.7772 236.529 51.5616C236.529 52.387 236.823 53.11 237.409 53.7171C238.044 54.3719 238.719 54.6993 239.435 54.6993C239.872 54.6993 240.404 54.6039 241.038 54.406C241.625 54.2287 242.116 54.1196 242.512 54.0786C242.907 54.0582 243.214 54.1605 243.446 54.3924C243.678 54.6243 243.787 54.8971 243.787 55.2246C243.787 55.511 243.692 55.7635 243.494 55.9954C243.296 56.2274 243.023 56.3569 242.675 56.4046C242.416 56.4455 242.034 56.4729 241.529 56.4729L241.523 56.5139ZM223.535 47.2916C224.231 47.2916 225.206 46.4389 226.448 44.7268C227.689 43.0147 229.128 40.559 230.765 37.353C231.748 35.4362 232.423 33.5127 232.791 31.5959C231.093 32.8851 229.469 34.4948 227.921 36.4389C226.373 38.3829 225.124 40.2588 224.176 42.0801C223.228 43.9013 222.751 45.2929 222.751 46.2479C222.751 46.7731 222.901 47.1005 223.208 47.2301C223.276 47.271 223.385 47.2984 223.535 47.2984V47.2916ZM237.894 38.2534C238.221 38.4376 238.644 38.5331 239.169 38.5331C239.647 38.5331 240.131 38.458 240.608 38.3011C240.54 38.0828 240.404 37.8031 240.186 37.4484C240.036 37.2301 239.81 37.0596 239.517 36.9437C239.224 36.8209 238.91 36.7663 238.583 36.7663C238.255 36.7663 237.975 36.8346 237.75 36.9778C237.518 37.121 237.409 37.3121 237.409 37.5508C237.409 37.8373 237.573 38.0693 237.9 38.2534H237.894Z" fill="var(--fill-0, #B9302E)"/>
<path d="M241.523 57.1004C239.545 57.1004 237.914 56.3706 236.666 54.9381C236.045 54.2219 235.513 53.3829 235.104 52.4348C234.681 51.473 234.47 50.4429 234.47 49.3856C234.47 48.3283 234.688 47.312 235.111 46.3638C235.431 45.6408 235.827 44.945 236.284 44.3174C236.727 43.7104 237.321 42.9737 238.051 42.1347C238.726 41.3503 239.244 40.7022 239.579 40.2111C239.654 40.0951 239.722 39.986 239.783 39.87C239.04 40.061 238.296 40.1566 237.573 40.1566C236.577 40.1566 235.738 39.9587 235.083 39.5699C234.34 39.1265 233.951 38.4648 233.951 37.6463C233.951 37.1074 234.163 36.3366 235.152 35.7568C235.847 35.3475 236.686 35.1361 237.635 35.1361C238.289 35.1361 238.924 35.2452 239.531 35.4635C240.158 35.6886 240.711 36.0502 241.161 36.5277C241.338 36.705 241.509 36.9233 241.659 37.1757C242.566 36.5822 243.31 35.791 243.842 34.8428C244.388 33.8674 244.667 32.8851 244.667 31.9234C244.667 31.4254 244.599 30.9821 244.469 30.6137C244.265 29.9794 243.91 29.4949 243.392 29.1334C242.873 28.7719 242.177 28.5877 241.325 28.5877C239.613 28.5877 237.471 29.3449 234.954 30.8319C234.606 32.9465 233.767 35.2658 232.45 37.7282C230.486 41.439 228.637 44.5153 226.946 46.8686C225.131 49.3992 223.494 50.6271 221.925 50.6271C221.53 50.6271 221.155 50.5385 220.813 50.3679C220.138 50.0473 219.313 49.3242 219.313 47.7212C219.313 46.6571 219.667 45.3749 220.37 43.9219C221.045 42.5168 221.919 41.0706 222.955 39.6314C225.486 36.1048 228.678 32.9329 232.437 30.1976C232.498 29.7474 232.525 29.263 232.525 28.7582C232.525 27.5236 232.307 26.555 231.877 25.8797C231.495 25.2726 230.929 24.9862 230.097 24.9862C229.524 24.9862 229.033 25.1703 228.603 25.5591C228.126 25.9888 227.723 26.5209 227.41 27.1417C227.068 27.8101 226.673 28.7105 226.223 29.8292L225.929 30.5523C225.759 30.982 225.5 31.3231 225.165 31.5482C224.422 32.0529 223.494 31.9916 222.88 31.4049C222.539 31.0775 222.355 30.6477 222.355 30.1634C222.355 29.8019 222.457 29.4405 222.655 29.0721C223.446 27.5374 224.558 26.173 225.957 25.0407C227.396 23.8674 228.869 23.2741 230.329 23.2741C230.602 23.2741 230.813 23.2876 230.977 23.3149C232.375 23.5127 233.46 24.1745 234.183 25.2863C234.729 26.1253 235.036 27.169 235.097 28.3968C236.461 27.5851 237.778 26.9576 239.012 26.5278C242.055 25.4705 244.701 25.4773 246.529 26.4664C247.471 26.978 248.153 27.6873 248.549 28.5877C248.794 29.1061 248.924 29.7405 248.924 30.4567C248.924 31.8619 248.371 33.3285 247.273 34.8087C246.202 36.2548 244.599 37.5713 242.505 38.7173L242.225 38.8673C242.266 39.1265 242.287 39.4062 242.287 39.7063C242.287 40.3748 242.164 41.0842 241.932 41.8141C241.72 42.4417 241.427 43.0829 241.066 43.7104C240.718 44.3107 240.22 45.1293 239.585 46.132C238.706 47.5235 238.057 48.6421 237.648 49.447C237.28 50.1905 237.089 50.9135 237.089 51.6093C237.089 52.3051 237.328 52.8576 237.812 53.3624C238.33 53.9013 238.862 54.1672 239.422 54.1672C239.797 54.1672 240.281 54.0786 240.854 53.9013C241.489 53.7103 242 53.6012 242.437 53.5534C243.16 53.5125 243.603 53.7921 243.842 54.0309C244.176 54.3651 244.353 54.8017 244.353 55.2792C244.353 55.7021 244.21 56.0909 243.917 56.4251C243.624 56.7662 243.228 56.9709 242.73 57.0323C242.457 57.08 242.048 57.1004 241.509 57.1004H241.523ZM238.876 55.2792C239.64 55.7157 240.52 55.934 241.529 55.934C241.993 55.934 242.348 55.9135 242.58 55.8794C242.873 55.8453 242.989 55.7431 243.051 55.668C243.153 55.5453 243.207 55.4224 243.207 55.2792C243.207 55.1087 243.153 54.979 243.037 54.8562C242.969 54.788 242.846 54.6993 242.553 54.713C242.225 54.7471 241.768 54.8562 241.216 55.0199C240.268 55.3132 239.558 55.4156 238.89 55.286L238.876 55.2792ZM241.134 39.5563C241.025 39.9996 240.82 40.443 240.534 40.8659C240.172 41.3979 239.633 42.0802 238.924 42.8988C238.221 43.7105 237.648 44.4198 237.218 44.9996C236.809 45.5657 236.455 46.1796 236.168 46.8344C235.807 47.6325 235.629 48.4853 235.629 49.3789C235.629 50.061 235.731 50.7226 235.943 51.3638C235.984 50.5657 236.209 49.7471 236.618 48.9218C237.041 48.0759 237.71 46.93 238.61 45.5043C239.238 44.5084 239.729 43.7104 240.07 43.1169C240.397 42.5576 240.656 41.9914 240.841 41.4457C241.038 40.8387 241.141 40.2452 241.141 39.6995C241.141 39.6517 241.141 39.5972 241.141 39.5494L241.134 39.5563ZM227.56 35.9546C226.223 37.3325 225.008 38.7855 223.917 40.3067C222.914 41.6914 222.082 43.0761 221.434 44.4199C220.813 45.7159 220.493 46.8276 220.493 47.7144C220.493 48.7922 220.977 49.1401 221.339 49.3106C221.53 49.4061 221.728 49.4538 221.939 49.4538C223.024 49.4538 224.367 48.4102 225.827 46.4321C224.94 47.4075 224.204 47.8713 223.542 47.8713C223.296 47.8713 223.099 47.8304 222.942 47.7417C222.58 47.5712 222.171 47.1756 222.171 46.2411C222.171 45.177 222.655 43.724 223.658 41.8005C224.62 39.9519 225.902 38.0216 227.464 36.0639C227.498 36.023 227.526 35.9887 227.56 35.9478V35.9546ZM223.481 46.7117C223.481 46.7117 223.515 46.7117 223.542 46.7117C223.719 46.7117 224.415 46.5412 225.984 44.3857C227.205 42.7077 228.637 40.2521 230.254 37.0871C230.922 35.7774 231.448 34.4609 231.83 33.1444C230.643 34.1948 229.49 35.4157 228.385 36.8005C226.871 38.7036 225.629 40.5659 224.702 42.3462C223.801 44.072 223.344 45.3884 223.344 46.2479C223.344 46.5139 223.399 46.6708 223.446 46.6912L223.487 46.7049L223.481 46.7117ZM237.635 36.3025C236.891 36.3025 236.257 36.4595 235.738 36.7597C235.172 37.0939 235.111 37.428 235.111 37.6463C235.111 38.0487 235.288 38.3353 235.677 38.5672C236.148 38.8469 236.782 38.99 237.566 38.99C237.751 38.99 237.928 38.9834 238.112 38.9697C237.928 38.9152 237.757 38.8401 237.607 38.7582C236.959 38.3899 236.823 37.8987 236.823 37.5509C236.823 37.1075 237.041 36.7323 237.444 36.4799C237.56 36.4048 237.682 36.3503 237.819 36.3025C237.757 36.3025 237.696 36.3025 237.635 36.3025ZM238.583 37.3462C238.364 37.3462 238.187 37.3871 238.058 37.4689C237.989 37.5098 237.989 37.5236 237.989 37.544C237.989 37.6122 238.098 37.6873 238.187 37.7419C238.535 37.9397 239.156 37.9942 239.783 37.8987C239.756 37.851 239.729 37.8101 239.695 37.7555C239.626 37.6532 239.49 37.5576 239.299 37.4826C239.074 37.3871 238.842 37.3462 238.59 37.3462H238.583ZM241.325 27.4145C242.423 27.4145 243.344 27.6669 244.06 28.1717C244.783 28.6833 245.295 29.3722 245.574 30.2385C245.745 30.7228 245.834 31.2958 245.834 31.9234C245.834 33.0898 245.506 34.2629 244.858 35.4157C244.735 35.6272 244.613 35.8387 244.469 36.0366C245.227 35.4295 245.854 34.7814 246.345 34.1129C247.287 32.8374 247.771 31.6028 247.771 30.45C247.771 29.9112 247.682 29.4405 247.498 29.0653C247.191 28.3832 246.7 27.8647 245.984 27.4827C244.456 26.6574 242.123 26.671 239.401 27.6191C239.306 27.6532 239.21 27.6874 239.108 27.7215C239.892 27.5169 240.629 27.4145 241.318 27.4145H241.325ZM233.651 30.218L233.365 31.7119C233.105 33.0556 232.696 34.4062 232.143 35.75C233.037 33.8332 233.61 32.0257 233.849 30.3749L233.903 30.068L233.937 29.4132C234.019 27.9534 233.774 26.7801 233.214 25.9206C233.535 26.6846 233.699 27.6395 233.699 28.7582C233.699 29.2766 233.671 29.7747 233.61 30.2522L233.651 30.2249V30.218ZM226.864 25.8047C226.809 25.8457 226.755 25.8866 226.7 25.9343C225.431 26.9711 224.415 28.2057 223.692 29.6109C223.583 29.8155 223.528 29.9997 223.528 30.1634C223.528 30.3271 223.576 30.45 223.692 30.5591C223.924 30.7774 224.217 30.7842 224.517 30.5796C224.661 30.4841 224.77 30.3272 224.858 30.109L225.152 29.3859C225.616 28.2399 226.025 27.3054 226.38 26.6096C226.523 26.3299 226.68 26.0571 226.857 25.8047H226.864Z" fill="var(--fill-0, #B9302E)"/>
<path d="M234.067 62.8508C224.954 62.8508 212.471 62.8507 212.471 44.8085V35.0407C212.471 16.9986 224.954 16.9984 234.067 16.9984C243.18 16.9984 255.663 16.9986 255.663 35.0407V44.8085C255.663 62.8507 243.18 62.8508 234.067 62.8508ZM234.067 19.345C224.606 19.345 214.824 19.345 214.824 35.0338V44.8017C214.824 60.4905 224.606 60.4905 234.067 60.4905C243.528 60.4905 253.31 60.4905 253.31 44.8017V35.0338C253.31 19.345 243.528 19.345 234.067 19.345Z" fill="var(--fill-0, #B9302E)"/>
<path d="M44.1168 230.059C42.6298 229.732 40.6517 229.671 38.8304 230.128C34.7922 231.144 33.5917 234.159 33.5917 234.159C33.6463 234.657 34.0078 234.459 34.765 234.295C35.5221 234.132 37.6845 235.114 37.6845 235.114C37.6845 235.114 40.8359 235.966 43.2301 233.736C45.6244 231.505 47.0705 231.219 47.0705 231.219C47.0705 231.219 45.9313 230.469 44.1168 230.059ZM39.5193 234.589C38.4552 234.589 37.589 233.729 37.589 232.658C37.589 231.894 38.0323 231.239 38.6667 230.926C39.0896 230.864 39.4716 230.803 39.8263 230.755C40.7471 230.905 41.4497 231.696 41.4497 232.658C41.4497 233.722 40.5835 234.589 39.5193 234.589ZM36.1087 234.029C35.0583 233.634 34.1647 234.029 34.1647 234.029C34.1647 234.029 35.0583 232.017 38.0119 231.082C37.5958 231.485 37.3298 232.044 37.3298 232.665C37.3298 233.593 37.9095 234.384 38.7212 234.705C37.7117 234.65 36.8932 234.329 36.1019 234.036L36.1087 234.029ZM42.0091 233.77C41.6135 234.022 41.2588 234.207 40.9246 234.35C41.4089 233.947 41.7158 233.347 41.7158 232.665C41.7158 231.785 41.1974 231.035 40.4538 230.68C40.8358 230.639 41.1974 230.612 41.5589 230.619C44.035 230.66 45.3174 231.348 45.3174 231.348C45.065 231.362 44.3215 231.846 43.5097 232.46C43.1346 232.747 42.4525 233.483 42.0091 233.763V233.77Z" fill="var(--fill-0, #B9302E)"/>
<path d="M40.4469 232.658C40.4469 233.17 40.0308 233.579 39.526 233.579C39.0213 233.579 38.6052 233.163 38.6052 232.658C38.6052 232.153 39.0213 231.737 39.526 231.737C40.0308 231.737 40.4469 232.153 40.4469 232.658Z" fill="var(--fill-0, #B9302E)"/>
<path d="M18.9598 229.93C17.1454 229.473 15.1604 229.534 13.6734 229.861C11.8589 230.264 10.7198 231.021 10.7198 231.021C10.7198 231.021 12.1659 231.308 14.5602 233.538C16.9544 235.769 20.1058 234.916 20.1058 234.916C20.1058 234.916 22.2682 233.934 23.0253 234.097C23.7825 234.261 24.144 234.459 24.1986 233.961C24.1986 233.961 22.9912 230.946 18.9598 229.93ZM18.2709 234.391C17.2 234.391 16.3405 233.524 16.3405 232.46C16.3405 231.499 17.0431 230.707 17.964 230.557C18.3187 230.605 18.7074 230.666 19.1235 230.728C19.7647 231.042 20.2013 231.696 20.2013 232.46C20.2013 233.524 19.335 234.391 18.2709 234.391ZM14.2805 232.263C13.4756 231.649 12.7321 231.164 12.4728 231.151C12.4728 231.151 13.7552 230.462 16.2313 230.421C16.586 230.421 16.9476 230.441 17.3364 230.482C16.5929 230.83 16.0745 231.587 16.0745 232.467C16.0745 233.143 16.3814 233.75 16.8658 234.152C16.5315 234.016 16.1768 233.831 15.7811 233.572C15.3377 233.292 14.6557 232.556 14.2805 232.269V232.263ZM21.6815 233.831C20.8902 234.125 20.0717 234.452 19.0622 234.5C19.8807 234.179 20.4605 233.388 20.4605 232.46C20.4605 231.833 20.2013 231.273 19.7784 230.878C22.732 231.812 23.6255 233.825 23.6255 233.825C23.6255 233.825 22.732 233.436 21.6815 233.825V233.831Z" fill="var(--fill-0, #B9302E)"/>
<path d="M17.3433 232.46C17.3433 232.972 17.7593 233.381 18.2641 233.381C18.7689 233.381 19.185 232.965 19.185 232.46C19.185 231.956 18.7689 231.539 18.2641 231.539C17.7593 231.539 17.3433 231.956 17.3433 232.46Z" fill="var(--fill-0, #B9302E)"/>
<path d="M42.7662 223.838C42.7662 223.838 45.8698 221.362 43.8507 215.455C42.0295 210.482 38.5848 209.35 37.4047 206.349C36.2451 203.402 35.2696 200.012 29.0896 200.298C29.9286 200.776 30.8837 201.199 31.4498 201.199C32.4184 201.199 33.0801 201.376 33.5507 201.901C34.0282 202.426 34.035 203.368 34.1578 203.961C34.267 204.487 34.4579 204.93 34.4579 204.93C34.4579 204.93 34.8195 205.776 35.1537 206.601C35.8017 208.197 34.8808 208.811 34.8808 208.811C35.5016 207.945 34.6558 205.946 34.2533 205.387C33.8441 204.828 33.7417 204.521 33.462 203.306C33.1824 202.085 32.282 201.853 32.282 201.853C32.016 201.778 30.9927 201.724 30.7881 201.656C27.2138 200.38 27.5208 199.589 25.8632 199.534C25.0105 199.507 24.3011 199.691 23.81 199.875C23.619 199.985 23.4553 200.087 23.3257 200.196C23.3257 200.196 23.3257 200.196 23.3189 200.203C23.1143 200.366 22.9778 200.516 22.8892 200.646C22.7323 200.864 22.5345 201.035 22.3162 201.185C21.293 201.867 18.8442 203.968 20.1266 207.781C20.1266 207.781 20.911 211.376 27.016 214.282C27.6981 214.609 28.3325 214.909 28.9191 215.189C28.3325 216.076 27.4798 217.679 27.2479 219.766C27.132 220.782 27.2275 221.744 27.4321 222.617C26.8591 222.235 26.2657 221.778 25.6381 221.246C19.3763 215.919 15.7405 216.635 14.4581 216.731C13.1758 216.833 7.20721 218.504 7.90979 223.907C8.66695 229.718 15.0857 228.763 17.0093 228.927C18.7078 229.07 22.5754 229.2 27.1115 231.799C29.0829 232.685 31.1564 232.372 32.9231 231.601C33.3256 231.424 39.4238 227.713 43.8985 229.336C48.3801 230.96 49.3145 234.357 47.7866 237.604C46.2586 240.85 39.3624 242.522 33.7213 240.08C26.9819 237.16 24.0147 240.578 23.2302 241.955C22.4458 243.333 22.9438 244.595 23.6941 244.595C23.6941 244.595 24.1852 244.629 24.383 243.974C24.5809 243.32 24.8059 241.935 27.4662 241.383C30.1264 240.823 32.5821 242.174 33.8645 242.597C35.1469 243.02 38.196 244.104 42.1659 243.579C46.1359 243.054 52.3363 239.971 53.1276 232.488C53.1958 224.711 43.8371 223.79 42.7525 223.838H42.7662ZM43.1073 222.706C42.1659 224.132 40.5425 223.907 40.5425 223.907C39.2328 223.606 39.8126 221.969 40.597 221.956C41.3814 221.942 43.1619 221.26 43.5643 220.632C43.6939 220.428 44.0486 221.287 43.1073 222.713V222.706ZM43.6462 219.793C42.9163 221.117 40.4948 221.335 40.4948 221.335C39.8126 221.321 39.2123 219.814 40.3719 219.214C42.009 219.07 43.4346 217.999 43.5915 217.856C43.7484 217.713 44.376 218.47 43.6462 219.793ZM42.6025 215.046C42.8685 214.671 43.5029 215.319 43.6802 216.069C43.8507 216.819 43.5234 217.563 42.3569 218.129C41.1905 218.702 40.4061 218.538 40.4061 218.538C40.4061 218.538 39.4238 218.525 39.0827 218.074C38.6803 217.542 38.6121 217.01 39.8126 216.731C41.0132 216.451 42.3501 215.414 42.6161 215.039L42.6025 215.046ZM42.2069 213.586C42.357 214.016 42.4797 214.848 41.0132 215.646C40.0514 216.165 39.2738 216.383 38.6189 216.437C37.166 216.587 36.0609 215.141 37.1932 215.046C38.3256 214.95 40.0991 213.709 40.6653 212.979C41.2314 212.249 42.0568 213.156 42.2069 213.586ZM40.3037 212.57C40.0377 212.965 39.6285 213.327 39.2192 213.613C38.3665 214.214 37.2751 214.486 36.6066 214.636C36.211 214.725 35.5561 214.739 35.1469 214.446C34.533 214.009 34.3079 213.163 35.0855 213.027C35.0855 213.027 37.3024 212.774 39.2464 210.803C39.4988 210.544 41.1155 211.342 40.3037 212.57ZM33.1278 219.759C33.0119 218.688 32.7322 217.754 32.4048 216.969C34.5944 218.252 35.5357 219.37 35.5357 221.212C35.5357 222.856 34.4102 224.329 32.3297 224.398C32.8822 223.115 33.3188 221.526 33.1278 219.759ZM36.4361 208.688C36.6885 208.429 39.3078 209.596 38.4961 210.823C38.2301 211.219 37.4388 211.642 36.7908 211.935C35.8427 212.365 34.915 212.699 33.9736 212.699C33.5644 212.699 32.7526 212.631 32.3365 212.338C31.7226 211.901 31.4975 211.055 32.2752 210.919C32.2752 210.919 34.492 210.666 36.4361 208.695V208.688ZM29.0964 208.879C29.4989 208.511 30.4198 208.47 30.4198 208.47C30.4198 208.47 30.8905 208.647 31.1701 208.784C31.8045 209.091 32.7936 209.95 33.0391 210.053C32.739 210.114 31.2861 210.496 30.2015 210.366C29.5876 210.291 29.1442 209.882 28.9737 209.575C28.7895 209.282 28.9259 209.043 29.1033 208.879H29.0964ZM27.6572 208.184C26.5794 207.883 26.7295 206.922 26.7295 206.922C26.825 206.485 28.4007 206.676 28.4007 206.676C28.96 207.843 29.6217 208.027 29.6217 208.027C29.6217 208.027 28.7418 208.484 27.664 208.184H27.6572ZM30.488 205.421C30.488 205.421 31.1087 205.387 31.0133 206.26C31.0133 206.26 30.4539 206.103 30.3652 205.892C30.2765 205.68 30.488 205.428 30.488 205.428V205.421ZM29.3353 205.598C29.69 206.874 31.0064 207.126 31.0064 207.126C32.0637 207.392 32.282 208.156 32.9436 208.811C33.6053 209.473 34.5876 209.118 34.5876 209.118C34.5876 209.118 33.8714 209.562 33.1619 209.296C32.4594 209.029 31.9272 208.061 31.2247 207.802C30.5221 207.543 29.3966 207.058 29.2466 206.437C28.8032 204.678 27.4867 202.918 27.4867 202.918C27.971 203.225 28.9806 204.323 29.3353 205.605V205.598ZM27.9437 205.353C28.0528 205.748 28.1347 205.953 28.1347 205.953C28.1347 205.953 26.6409 206.24 26.2657 205.558C25.8905 204.875 26.1702 204.582 26.2521 204.487C26.634 204.166 27.3025 204.337 27.4253 204.357C27.4253 204.357 27.8346 204.957 27.9369 205.353H27.9437ZM27.0569 203.729C27.0569 203.729 25.338 203.62 25.5153 202.365C25.5153 202.365 26.6749 203.027 27.0569 203.729ZM26.7909 213.695C20.454 210.38 19.7037 205.885 21.3135 203.163C22.057 201.901 22.9505 201.24 23.7964 201.24C25.2083 201.24 25.911 201.853 25.911 201.853C25.911 201.853 25.0515 201.615 24.2397 201.594C23.046 201.56 21.4362 202.583 21.1565 205.066C20.7132 208.982 23.428 211.233 25.4266 212.508C26.8795 213.436 28.7895 214.561 30.7949 215.503L29.5603 215.018C28.6872 214.602 27.8823 214.268 26.7909 213.695ZM28.5167 218.832C28.8373 217.522 29.3625 216.662 29.7104 216.205C29.9218 215.919 30.1947 215.605 30.1947 215.605C30.1947 215.605 30.4471 215.912 30.6449 216.164C30.9928 216.615 31.5385 217.488 31.8659 218.832C31.9478 219.166 32.0227 219.5 32.0705 219.848C31.6749 219.22 30.986 218.811 30.1879 218.811C29.3898 218.811 28.7009 219.227 28.3052 219.848C28.3598 219.507 28.428 219.166 28.5098 218.832H28.5167ZM30.1879 219.077C31.2725 219.077 32.1523 219.957 32.1523 221.035C32.1523 222.113 31.2725 222.999 30.1879 222.999C29.1033 222.999 28.2234 222.119 28.2234 221.035C28.2234 219.95 29.1033 219.077 30.1879 219.077ZM32.0978 222.167C31.9546 223.245 31.5726 224.466 30.8222 225.967C30.6653 226.273 30.1879 227.112 30.1879 227.112C30.1879 227.112 29.7036 226.267 29.5467 225.953C28.7963 224.459 28.4212 223.238 28.2779 222.16C28.6667 222.815 29.3762 223.252 30.1879 223.252C30.9996 223.252 31.709 222.815 32.0978 222.16V222.167ZM50.1535 237.276C49.0076 239.936 46.1154 242.099 42.0841 242.788C38.0459 243.477 32.9914 241.082 32.9914 241.082C32.9914 241.082 29.3489 239.179 26.2589 240.653C23.1689 242.126 23.5849 243.831 23.5849 243.831L23.5236 243.927C22.8346 242.256 25.5085 239.738 28.428 239.541C31.3475 239.343 31.941 240.591 36.5794 241.573C41.2178 242.562 44.5875 241.683 47.5615 238.968C49.9967 236.744 49.0417 232.979 48.9189 232.14C48.7962 231.301 49.4032 231.894 49.5738 231.219C49.7511 230.537 46.4155 226.485 41.1291 226.417C35.8426 226.348 34.0419 227.992 33.1551 228.845C32.2684 229.698 32.5957 230.816 32.5957 230.816C32.5957 230.816 30.8563 231.505 29.5467 231.505C28.237 231.505 27.0229 230.85 27.0229 230.85C28.3325 229.602 27.5481 227.931 26.1702 227.57C24.7923 227.208 22.439 227.031 17.6437 226.771C16.1703 226.69 12.6369 226.28 11.0339 224.261C10.2085 223.259 9.50595 221.383 10.3722 220.066C13.0734 215.967 18.9465 217.815 20.1334 218.313C21.3134 218.804 22.3367 219.254 25.5836 221.887C27.0297 223.054 27.7527 224.002 28.0529 224.445C28.087 224.527 28.121 224.602 28.1551 224.684C25.8154 223.149 20.2425 221.335 18.0325 221.335C15.8224 221.335 14.2876 222.188 14.2876 222.188C17.439 222.058 21.6068 222.972 25.5426 224.977C26.8659 225.646 28.0119 226.076 29.0078 226.321C29.151 226.567 29.2807 226.778 29.3898 226.962C29.574 228.729 28.9873 228.716 28.6053 228.743C28.121 228.777 27.7458 227.849 28.5712 227.754C28.5712 227.754 28.1347 227.535 27.8277 227.965C27.5208 228.388 27.9301 229.2 28.735 229.186C29.5126 229.172 30.1811 228.456 30.1811 227.181H30.1947C30.1947 228.463 30.8086 229.227 31.6954 229.22C32.5071 229.213 32.8208 228.402 32.5139 227.972C32.2069 227.542 31.8045 227.76 31.8045 227.76C32.6299 227.849 32.3093 228.736 31.8045 228.736C31.3612 228.736 30.7949 228.736 30.9791 226.969C31.0337 226.86 31.1019 226.744 31.177 226.608C32.0228 226.601 32.6708 226.43 33.1415 226.199C34.3761 225.598 44.3214 222.31 49.2122 226.478C54.103 230.646 52.5001 234.739 52.5001 234.739C52.5001 234.739 51.2859 234.63 50.14 237.29L50.1535 237.276Z" fill="var(--fill-0, #B9302E)"/>
<path d="M30.1878 221.928C30.6994 221.928 31.1087 221.512 31.1087 221.007C31.1087 220.503 30.6926 220.087 30.1878 220.087C29.683 220.087 29.2669 220.503 29.2669 221.007C29.2669 221.512 29.683 221.928 30.1878 221.928Z" fill="var(--fill-0, #B9302E)"/>
</g>
</svg>
