<svg width="644" height="276" viewBox="0 0 644 276" fill="none" xmlns="http://www.w3.org/2000/svg">
<g clip-path="url(#clip0_2006_28)">
<path d="M183.62 250.27C183.19 250.3 182.95 250.12 182.88 249.71C182.84 249.45 182.89 249.19 183.04 248.92C187.95 239.41 192.93 229.92 198.57 220.77C203.55 212.69 209.13 204.59 215.14 197C212.62 197.15 209.95 197 207.13 196.56C204.31 196.12 200.89 195.4 196.94 194.52C192.81 193.6 189.42 192.99 186.92 192.63C184.41 192.27 182.01 192.18 179.73 192.35C176.95 192.56 174.61 193.27 172.74 194.44C170.46 195.86 168.85 197.81 167.94 200.29C167.03 202.77 166.91 205.64 167.52 208.89C167.89 210.87 168.73 212.63 170.04 214.15C171.35 215.67 172.89 216.83 174.67 217.65C176.45 218.46 178.21 218.8 179.96 218.66C182.59 218.46 184.62 217.12 186.08 214.63C187.54 212.15 187.92 208.46 187.22 203.56C187.09 202.64 187.22 201.91 187.61 201.37C188.01 200.83 188.52 200.53 189.17 200.48C189.81 200.43 190.39 200.64 190.9 201.09C191.41 201.54 191.73 202.2 191.85 203.07C191.91 203.48 191.92 203.79 191.9 203.99C191.71 209 190.33 212.86 187.77 215.58C185.21 218.3 182.1 219.8 178.4 220.09C175.97 220.28 173.59 219.96 171.27 219.11C168.94 218.27 166.95 216.97 165.31 215.23C163.66 213.48 162.64 211.41 162.24 209.02C161.78 206.22 162.39 203.51 164.1 200.92C165.81 198.32 168.29 195.94 171.51 193.77C175.55 191.04 180.24 189.45 185.51 189.07C189.19 188.8 192.78 189.04 196.27 189.79C199.76 190.53 203.94 191.62 208.54 193.17C212.01 194.34 214.67 195.17 216.45 195.47C217.57 195.66 218.62 195.73 219.61 195.67C222.73 195.49 225.99 194.52 229.44 192.75C229.82 192.58 230.16 192.48 230.45 192.47C231.04 192.44 231.54 192.62 231.93 193.01C232.32 193.4 232.55 193.88 232.61 194.44C232.68 195.05 232.5 195.63 232.09 196.16C231.68 196.7 231.02 197.12 230.17 197.34C229.29 197.56 228.32 197.67 227.38 197.72C225.95 197.8 224.45 197.75 222.89 197.58C221.33 197.41 220.42 197.31 220.17 197.27C219.11 197.14 218.58 197.08 217.52 196.96C212.46 203.27 207.99 210.18 204.18 217.67C199.38 227.09 195.27 236.81 191.48 246.59C191.21 247.33 190.45 247.75 189.22 247.84C189.03 247.85 188.58 247.88 187.86 247.91C187.14 247.94 186.51 248.09 185.95 248.37C185.39 248.65 184.94 249.08 184.6 249.67C184.37 250.05 184.04 250.26 183.62 250.29V250.27Z" fill="#F5A9BE"/>
<path d="M211.75 241.92C211.48 239.88 212.62 237.43 215.21 234.6C215.64 234.11 215.86 233.87 216.29 233.38C217.82 231.69 219.02 230.28 219.9 229.15C220.78 228.02 221.44 226.9 221.89 225.79C222.04 225.42 222.09 225.03 222.04 224.62C221.95 223.91 221.58 223.31 220.91 222.83C220.24 222.36 219.57 222.14 218.89 222.18C218.5 222.2 218.15 222.35 217.85 222.63C216.78 223.88 215.35 225.71 213.54 228.14C211.74 230.57 210.09 232.91 208.61 235.17C208.41 234.97 208.31 234.87 208.11 234.66C211.29 229.79 212.9 227.35 216.16 222.49C216.45 222.06 216.55 221.54 216.48 220.93C216.44 220.57 216.17 219.83 215.77 218.73C215.22 217.25 214.93 216.13 214.85 215.47C214.75 214.65 214.96 213.97 215.48 213.43C216 212.89 216.63 212.59 217.36 212.55C218.04 212.51 218.67 212.7 219.24 213.13C219.81 213.56 220.15 214.26 220.27 215.23C220.32 215.64 220.22 216.22 220.04 216.94C219.8 217.9 219.7 218.75 219.75 219.35C219.78 219.7 219.98 220.04 220.31 220.36C220.64 220.68 221.13 221.06 221.76 221.47C222.63 222.04 223.36 222.57 223.86 223.09C224.36 223.6 224.65 224.22 224.74 224.93C224.92 226.46 224.6 227.97 223.79 229.46C222.98 230.95 221.75 232.69 220.11 234.69C219.06 235.99 218.31 237 217.85 237.72C217.39 238.44 217.19 239.09 217.26 239.65C217.31 240.01 217.44 240.28 217.65 240.47C218.25 241.05 218.94 241.32 219.7 241.27C222.32 241.11 226.12 237.57 231.23 230.66C231.44 230.74 231.55 230.78 231.76 230.86C229.26 235.21 226.65 238.77 223.92 241.56C221.19 244.34 218.77 245.8 216.63 245.93C215.44 246 214.39 245.63 213.46 244.82C212.48 243.96 211.92 242.99 211.78 241.92H211.75Z" fill="#F5A9BE"/>
<path d="M226.8 242.47C226.67 241.4 226.86 240.18 227.37 238.81C227.88 237.44 228.62 235.78 229.6 233.83C229.9 233.2 230.05 232.88 230.36 232.25C230.56 231.88 230.77 231.43 231 230.9C231.23 230.37 231.5 229.77 231.81 229.08C233.53 225.44 234.72 223.02 235.37 221.8C235.82 221.01 236.53 220.59 237.5 220.54C238.13 220.51 238.68 220.67 239.16 221.04C239.64 221.4 239.91 221.89 239.97 222.5C240.04 223.16 239.87 223.87 239.47 224.61C239.15 225.19 238.09 226.5 236.33 228.54C234.4 230.79 232.93 232.69 231.93 234.21C230.92 235.73 230.49 237.05 230.62 238.18C230.69 238.79 230.97 239.32 231.45 239.75C232.04 240.28 232.74 240.53 233.55 240.49C236.17 240.35 239.7 237.26 244.24 231.24C244.45 231.32 244.56 231.36 244.77 231.45C242.47 235.31 239.96 238.58 237.24 241.26C234.52 243.94 232.2 245.34 230.25 245.45C229.25 245.51 228.43 245.17 227.77 244.51C227.24 243.98 226.91 243.3 226.81 242.48L226.8 242.47ZM240.61 210.8C241.27 210.33 241.95 210.08 242.63 210.05C243.22 210.02 243.77 210.18 244.3 210.51C245.14 211.04 245.62 211.89 245.73 213.06C245.84 214.18 245.59 215.3 244.97 216.41C244.56 217.2 244.03 217.81 243.36 218.26C242.7 218.7 242.03 218.94 241.35 218.97C240.82 219 240.27 218.87 239.7 218.59C238.91 218.06 238.45 217.21 238.33 216.04C238.2 214.87 238.45 213.74 239 212.69C239.41 211.91 239.94 211.27 240.6 210.8H240.61Z" fill="#F5A9BE"/>
<path d="M243.27 238.45C242.98 235.69 243.6 232.3 245.17 228.27C246.74 224.24 248.9 220.4 251.67 216.74C252.9 215.18 253.51 214.4 254.75 212.84C257.37 209.45 259.7 206.59 261.74 204.25C263.78 201.92 265.98 199.76 268.34 197.79C269.12 197.1 269.99 196.74 270.92 196.7C271.81 196.67 272.56 196.94 273.17 197.51C273.78 198.08 274.12 198.78 274.18 199.59C274.27 200.77 273.73 201.73 272.56 202.49C267.67 205.52 263.78 208.22 260.86 210.59C257.93 212.96 255.46 215.55 253.44 218.35C251.76 220.68 250.41 223.23 249.37 225.99C248.34 228.76 247.93 231.16 248.14 233.21C248.31 234.9 248.93 236.24 249.98 237.13C250.84 237.86 251.91 238.2 253.11 238.15C254.83 238.08 256.49 237.19 258.11 235.48C257.82 234.47 257.65 233.68 257.6 233.12C257.37 230.72 257.75 227.52 258.74 223.53C259.46 221.35 260.63 220.33 262.11 220.55C263.08 220.7 263.81 221.12 264.26 221.74C264.7 222.37 264.91 223.11 264.89 223.99C264.73 226.66 263.91 229.44 262.44 232.32C262.28 233.2 262.22 233.89 262.27 234.4C262.39 235.78 262.96 236.45 263.96 236.41C264.96 236.37 266.24 235.67 267.81 234.31C269.37 232.95 270.76 231.37 271.96 229.59C272.12 229.8 272.2 229.9 272.36 230.12C270.94 232.27 269.24 234.25 267.23 236.07C265.23 237.89 263.47 238.83 261.94 238.89C261.46 238.91 260.96 238.8 260.47 238.56C260.02 238.34 259.55 237.93 259.07 237.38C257.43 239.35 255.7 240.93 253.89 242.14C252.07 243.35 250.38 243.99 248.81 244.06C248.1 244.09 247.34 243.95 246.54 243.63C244.64 242.79 243.54 241.08 243.27 238.47V238.45Z" fill="#F5A9BE"/>
<path d="M270.21 237.17C270.07 235.53 270.32 233.78 270.96 231.91C271.6 230.04 272.59 228.23 273.81 226.51C275.38 224.3 277.24 222.39 279.41 220.92C281.58 219.45 283.57 218.69 285.36 218.64C286.72 218.6 287.79 218.94 288.56 219.63C289.12 220.13 289.44 220.84 289.5 221.76C289.58 222.99 289.22 224.43 288.41 226.09C287.61 227.75 286.5 229.29 285.08 230.71C283.67 232.13 282.1 233.18 280.37 233.84C280.14 233.95 279.81 234.01 279.38 234.02C278.66 234.04 278.07 233.82 277.6 233.34C277.13 232.87 276.87 232.32 276.82 231.71C276.78 231.15 276.92 230.68 277.25 230.31C277.58 229.94 278.08 229.75 278.76 229.73C280.97 229.66 282.81 229.24 284.27 228.46C285.73 227.68 286.79 226.74 287.44 225.65C288.09 224.56 288.38 223.47 288.31 222.4C288.25 221.48 287.91 220.66 287.28 220.12C286.82 219.72 286.24 219.53 285.71 219.55C284.69 219.58 283.53 220.15 282.23 221.26C280.93 222.37 279.67 223.78 278.44 225.45C277.44 226.81 276.64 228.3 276.07 229.91C275.5 231.52 275.27 233.01 275.38 234.39C275.48 235.67 275.9 236.73 276.64 237.58C277.8 238.88 279.04 239.5 280.38 239.46C281.57 239.42 282.82 238.94 284.11 238.01C285.41 237.08 287.05 235.69 289.03 233.84C291.1 231.9 292.88 230.38 294.35 229.29C295.82 228.21 297.32 227.52 298.85 227.23C299.04 227.18 299.3 227.14 299.64 227.14C300.51 227.12 301.17 227.34 301.63 227.79C302.09 228.24 302.34 228.83 302.38 229.54C302.42 230.31 302.19 231 301.67 231.63C301.15 232.25 300.42 232.58 299.46 232.6C297.16 232.65 295.02 233.1 293.07 233.97C291.11 234.84 289.1 236.01 287.06 237.5C286.79 237.71 286.47 237.95 286.11 238.22C285.75 238.49 285.38 238.78 285.02 239.1C283.07 240.59 281.49 241.71 280.26 242.47C279.03 243.22 277.82 243.62 276.63 243.66C275.58 243.69 274.56 243.39 273.55 242.76C271.54 241.49 270.42 239.64 270.22 237.18L270.21 237.17Z" fill="#F5A9BE"/>
<path d="M323.9 228.6C323.79 225.28 324.52 221.65 326.12 217.74C327.72 213.82 329.98 209.95 332.92 206.11C337.37 200.34 342.54 195.53 348.41 191.69C354.28 187.86 359.69 185.99 364.57 186.07C367.71 186.12 370.38 187.04 372.55 188.83C375.07 190.91 376.31 193.64 376.29 196.96C376.27 199.47 375.58 202.11 374.24 204.89C372.9 207.67 371.07 210.35 368.85 212.91C366.25 215.9 363.51 218.39 360.58 220.29C357.66 222.19 355.04 223.13 352.72 223.11C350.45 223.09 348.74 222.07 347.6 220.07C347.05 219.09 346.77 218.04 346.75 216.92C346.71 214.26 347.89 211.3 350.32 208.05C352.75 204.8 355.78 201.97 359.41 199.57C360.05 199.12 360.74 198.9 361.48 198.91C362.22 198.92 362.82 199.19 363.29 199.71C363.76 200.23 363.99 200.82 363.99 201.49C363.99 201.95 363.86 202.4 363.59 202.83C363.32 203.26 362.92 203.62 362.38 203.92C358.26 206.21 354.86 208.43 352.15 210.57C349.44 212.72 348.11 214.81 348.14 216.86C348.14 217.58 348.41 218.43 348.97 219.17C349.43 219.77 350.19 220.1 351.02 220.11C352.67 220.13 354.82 219.14 357.51 217.15C360.19 215.17 362.82 212.67 365.41 209.71C367.79 206.99 369.77 204.24 371.31 201.46C372.85 198.68 373.63 196.27 373.64 194.22C373.65 192.48 373.06 191.17 371.95 190.27C370.62 189.2 368.98 188.6 367.04 188.57C363.51 188.51 359.37 190.08 354.68 193.29C349.98 196.51 345.57 200.64 341.45 205.6C337.69 210.13 334.65 214.8 332.38 219.61C330.11 224.42 329.05 228.61 329.15 232.19C329.26 236.08 330.8 238.71 333.75 240.09C334.47 240.45 335.41 240.63 336.55 240.63C339.55 240.63 343.37 239.27 348.04 236.55C352.71 233.83 357.53 230.33 362.54 226.06C363.12 225.25 363.71 224.35 364.31 223.37C364.91 222.38 365.34 221.69 365.58 221.28C366.21 220.32 366.96 219.85 367.83 219.86C368.36 219.86 368.8 220.06 369.14 220.42C369.48 220.78 369.65 221.22 369.64 221.73C369.64 222.75 369.05 223.69 367.89 224.54C367.36 224.99 366.69 225.44 366.01 225.89C365.24 226.4 364.48 227.03 363.73 227.65C362.98 228.28 362.3 228.94 361.68 229.65C360.77 230.76 359.9 231.99 359.07 233.33C358.24 234.67 357.21 236.49 355.98 238.77C354.01 242.43 352.44 245.15 351.28 246.93C349.14 250.23 346.95 253.12 344.71 255.58C342.47 258.05 339.85 260.47 336.87 262.87C335.03 264.35 332.99 265.5 330.73 266.32C328.47 267.14 326.29 267.56 324.2 267.56C322.01 267.56 320.12 267.11 318.52 266.17C316.92 265.23 315.8 263.8 315.15 261.86C314.94 261.25 314.81 260.58 314.78 259.87C314.68 257.62 315.59 255.49 317.51 253.48C319.43 251.47 321.88 249.86 324.85 248.64C327.82 247.43 330.73 246.82 333.57 246.83C336.08 246.83 338.18 247.32 339.86 248.3C340.87 248.87 341.38 249.69 341.4 250.76C341.41 251.42 341.21 252 340.8 252.48C340.39 252.96 339.87 253.2 339.26 253.2C338.84 253.2 338.31 252.99 337.69 252.58C334.57 250.27 331.57 249.12 328.73 249.12C326.98 249.12 325.42 249.55 324.05 250.4C322.68 251.25 321.64 252.35 320.91 253.71C320.18 255.07 319.85 256.52 319.91 258.05C319.94 258.77 320.08 259.56 320.35 260.43C320.83 261.96 321.69 263.13 322.94 263.95C324.18 264.76 325.62 265.17 327.26 265.16C328.71 265.16 330.24 264.83 331.86 264.19C333.48 263.55 335 262.61 336.42 261.47C337.63 260.5 338.87 259.16 340.06 257.45C341.24 255.74 342.87 253.26 344.94 250C346.1 248.17 346.68 247.25 347.85 245.42C351.47 239.93 355.22 234.9 359.09 230.36C354.59 234.18 350.54 237.15 346.9 239.24C343.26 241.34 339.95 242.38 336.95 242.37C335.38 242.37 333.9 242.03 332.5 241.37C327 238.76 324.12 234.5 323.92 228.57L323.9 228.6Z" fill="#F5A9BE"/>
<path d="M366.64 238.03C366.64 236.29 367.33 234.32 368.73 232.12C370.13 229.92 371.99 227.69 374.32 225.44C376.5 223.34 378.76 221.7 381.08 220.53C383.4 219.36 385.39 218.8 387.04 218.84C388.06 218.87 388.81 219.15 389.28 219.59C389.85 220.12 390.2 220.84 390.19 221.76C390.74 220.91 391.06 220.43 391.16 220.33C391.71 219.58 392.44 219.22 393.37 219.25C394 219.27 394.56 219.49 395.03 219.91C395.5 220.33 395.74 220.85 395.72 221.47C395.7 222.19 395.42 222.89 394.87 223.59C394.52 224.09 393.92 224.72 393.09 225.49C392.25 226.26 391.69 226.79 391.39 227.09C389.18 229.07 387.45 230.8 386.2 232.27C384.95 233.75 384.32 235.07 384.3 236.25C384.3 236.61 384.41 236.99 384.64 237.41C385.1 238.24 385.86 238.67 386.91 238.7C388.2 238.73 389.86 238.04 391.9 236.62C393.94 235.2 396.24 233.12 398.82 230.4C399.02 230.53 399.12 230.59 399.32 230.72C396.57 234.41 393.69 237.47 390.65 239.88C387.62 242.3 385.14 243.48 383.19 243.43C382.19 243.41 381.35 243 380.71 242.22C380.24 241.65 380.01 240.95 380.02 240.13C380.03 238.95 380.48 237.58 381.36 236.02C379.47 238.12 377.61 239.78 375.79 240.99C373.97 242.2 372.35 242.8 370.92 242.77C369.92 242.75 369.04 242.4 368.28 241.72C367.19 240.73 366.64 239.49 366.64 238.01V238.03ZM374.95 238.34C376.14 238.37 377.5 237.68 379.02 236.28C380.54 234.88 382.54 232.84 385.04 230.14C385.72 229.02 386.06 228.46 386.75 227.35C387.46 226.14 387.82 225.54 388.54 224.33C388.85 223.47 389 222.78 389.01 222.27C389.02 221.5 388.76 220.93 388.39 220.56C388.05 220.23 387.57 220 386.94 219.98C385.58 219.94 383.84 220.64 381.71 222.07C379.59 223.5 377.72 225.22 376.11 227.23C374.99 228.59 374.11 229.92 373.48 231.24C372.85 232.56 372.53 233.78 372.52 234.9C372.52 235.87 372.8 236.75 373.37 237.52C373.8 238.04 374.32 238.31 374.94 238.32L374.95 238.34Z" fill="#F5A9BE"/>
<path d="M394.78 239.48C394.83 237.44 395.68 235.14 397.36 232.58C399.04 230.03 401.32 227.01 404.23 223.53C405.07 222.52 405.5 222.01 406.35 221C405.96 221.04 405.37 221.13 404.59 221.28C403.81 221.43 403.1 221.5 402.47 221.47C402.13 221.46 401.84 221.33 401.61 221.1C401.37 220.86 401.26 220.56 401.27 220.21C401.28 219.8 401.41 219.47 401.66 219.23C401.91 218.98 402.2 218.87 402.54 218.88C403.27 218.91 404.31 219.04 405.66 219.3C406.36 219.42 406.7 219.48 407.4 219.59C408.01 218.8 409.59 216.72 412 213.4C414.17 210.41 415.82 208.25 416.79 207.07C417.78 205.88 418.88 205.24 420.11 205.29C420.8 205.32 421.35 205.55 421.78 205.98C422.2 206.41 422.4 206.95 422.37 207.62C422.33 208.54 421.8 209.49 420.78 210.47C420.47 210.76 419.56 211.49 418.05 212.65C414.82 215.12 412.18 217.47 410.11 219.7C410.45 219.66 411.1 219.58 412.05 219.47C413 219.35 413.87 219.31 414.64 219.34C414.98 219.35 415.27 219.49 415.5 219.76C415.73 220.03 415.84 220.36 415.82 220.77C415.81 221.13 415.67 221.42 415.42 221.64C415.17 221.86 414.87 221.96 414.53 221.95C413.75 221.92 412.58 221.73 411.06 221.35C410.1 221.12 409.4 220.95 408.96 220.89C408.51 221.42 408.28 221.69 407.82 222.23C405.14 225.45 403.09 228.22 401.65 230.52C400.21 232.82 399.48 234.74 399.43 236.27C399.41 237.04 399.61 237.71 400.02 238.28C400.43 238.86 401.07 239.16 401.93 239.19C403.27 239.24 404.98 238.57 407.09 237.19C409.2 235.81 411.57 233.72 414.24 230.91C414.44 231.01 414.54 231.06 414.74 231.16C411.85 234.83 408.87 237.9 405.81 240.36C402.74 242.83 400.22 244.04 398.23 243.97C397.28 243.94 396.5 243.58 395.9 242.9C395.11 242.01 394.73 240.87 394.77 239.49L394.78 239.48Z" fill="#F5A9BE"/>
<path d="M420.05 240.88C420.12 239.4 420.71 237.87 421.84 236.28C422.97 234.69 424.6 232.75 426.74 230.44C428.01 229.12 428.98 228.04 429.66 227.2C430.33 226.36 430.68 225.69 430.71 225.18C430.72 224.92 430.66 224.72 430.52 224.56C430.34 224.35 430.1 224.23 429.81 224.22C429.28 224.19 428.56 224.53 427.65 225.23C426.74 225.93 425.5 227.04 423.93 228.55C420.49 231.92 416.35 236.66 411.59 242.76C410.84 243.7 409.97 244.15 408.97 244.12C408.35 244.1 407.82 243.87 407.38 243.45C406.94 243.02 406.73 242.5 406.75 241.89C406.77 241.43 406.92 240.95 407.23 240.45C407.79 239.4 408.35 238.5 408.9 237.75C409.45 237 410.79 235.24 412.95 232.46C415.1 229.68 418.31 225.49 422.65 219.9C423.98 218.15 424.65 217.27 425.99 215.52C426.87 214.38 428.89 211.8 432.07 207.79C435.25 203.78 437.46 201.14 438.67 199.87C439.56 198.99 440.5 198.58 441.49 198.64C442.13 198.67 442.65 198.91 443.05 199.34C443.45 199.77 443.62 200.32 443.58 200.98C443.53 201.8 443.19 202.57 442.55 203.3C442.23 203.69 441.21 204.59 439.51 205.98C439.04 206.42 437.83 207.49 435.9 209.21C433.96 210.93 431.98 212.79 429.95 214.79C427.92 216.79 426.06 218.78 424.36 220.75C424.1 221.05 422.23 223.34 418.78 227.64C415.34 231.94 413.61 234.92 413.54 236.55C413.53 236.91 413.62 237.09 413.81 237.1C414.19 237.12 414.9 236.58 415.92 235.5C416.95 234.42 418.24 232.91 419.82 231.06C421.42 229.19 422.54 227.96 423.1 227.37C425.54 224.82 427.46 222.99 428.85 221.88C430.24 220.77 431.47 220.24 432.54 220.29C433.32 220.33 434 220.68 434.6 221.31C435.05 221.79 435.27 222.42 435.23 223.18C435.17 224.25 434.68 225.49 433.75 226.91C432.83 228.32 431.52 230.06 429.89 232.13C428.49 233.89 427.45 235.33 426.75 236.39C426.05 237.46 425.68 238.35 425.65 239.06C425.63 239.42 425.74 239.73 425.96 240C426.28 240.37 426.77 240.57 427.44 240.61C428.87 240.68 430.77 239.98 433.16 238.51C435.54 237.04 438.04 235 440.66 232.37C440.88 232.5 441 232.57 441.22 232.71C438.01 236.22 434.76 239.18 431.45 241.57C428.14 243.97 425.48 245.12 423.43 245.03C422.38 244.98 421.55 244.56 420.91 243.77C420.28 242.97 419.99 242.02 420.04 240.89L420.05 240.88Z" fill="#F5A9BE"/>
<path d="M438.25 239C438.34 237.42 438.85 235.73 439.78 233.94C440.71 232.15 441.9 230.41 443.36 228.76C445.22 226.66 447.34 224.98 449.69 223.7C452.04 222.43 454.11 221.85 455.91 221.95C457.07 222.02 458.04 222.44 458.82 223.2C459.36 223.75 459.59 224.58 459.51 225.7C459.41 226.97 458.9 228.36 457.96 229.87C457.02 231.38 455.74 232.76 454.1 234.01C452.46 235.27 450.64 236.17 448.63 236.72C448.38 236.81 448.04 236.84 447.61 236.82C446.94 236.78 446.42 236.51 446.04 236C445.66 235.49 445.49 234.93 445.53 234.32C445.57 233.76 445.78 233.29 446.16 232.9C446.55 232.51 447.1 232.34 447.82 232.38C449.99 232.5 451.84 232.24 453.38 231.59C454.92 230.94 456.09 230.09 456.87 229.04C457.65 227.99 458.08 226.93 458.16 225.85C458.23 224.93 458.01 224.18 457.52 223.58C457.16 223.15 456.69 222.91 456.11 222.88C455.09 222.82 453.88 223.27 452.47 224.24C451.07 225.21 449.58 226.49 448.1 228.1C446.9 229.4 445.9 230.82 445.11 232.31C444.31 233.8 443.87 235.24 443.79 236.61C443.71 237.83 443.95 238.96 444.51 239.95C445.26 241.27 446.44 241.98 447.97 242.06C449.64 242.16 451.65 241.53 454 240.19C456.35 238.85 458.88 236.93 461.58 234.44C461.74 234.63 461.82 234.73 461.98 234.93C459.53 237.9 456.6 240.52 453.2 242.8C449.8 245.08 446.81 246.15 444.19 246C442.81 245.92 441.64 245.5 440.69 244.73C438.91 243.3 438.09 241.39 438.23 239H438.25Z" fill="#F5A9BE"/>
<path d="M463.2 242.46C463.36 240.42 465 238.17 468.15 235.72C468.68 235.29 468.94 235.08 469.47 234.66C471.33 233.2 472.82 231.97 473.93 230.97C475.04 229.97 475.93 228.96 476.6 227.93C476.82 227.59 476.96 227.21 476.99 226.8C477.05 226.09 476.8 225.45 476.24 224.9C475.68 224.35 475.06 224.05 474.38 224C473.99 223.97 473.62 224.08 473.26 224.31C471.95 225.4 470.14 227.02 467.85 229.17C465.56 231.32 463.45 233.41 461.51 235.44C461.35 235.21 461.28 235.1 461.12 234.88C465.28 230.5 467.38 228.32 471.61 223.97C471.98 223.59 472.2 223.09 472.25 222.48C472.28 222.12 472.17 221.36 472 220.23C471.76 218.7 471.71 217.57 471.76 216.91C471.83 216.1 472.18 215.45 472.8 214.98C473.43 214.51 474.11 214.3 474.84 214.35C475.52 214.4 476.1 214.67 476.58 215.16C477.05 215.65 477.25 216.39 477.16 217.35C477.12 217.76 476.9 218.32 476.57 219C476.13 219.92 475.85 220.74 475.78 221.33C475.74 221.67 475.87 222.04 476.13 222.39C476.39 222.74 476.79 223.18 477.34 223.67C478.09 224.34 478.69 224.96 479.08 225.52C479.47 226.09 479.63 226.73 479.56 227.44C479.42 228.97 478.79 230.41 477.67 231.76C476.55 233.12 474.97 234.67 472.94 236.42C471.63 237.56 470.68 238.45 470.07 239.11C469.46 239.76 469.13 240.37 469.09 240.93C469.06 241.29 469.13 241.57 469.31 241.79C469.78 242.44 470.4 242.79 471.17 242.84C473.79 243.02 478.29 240.03 484.8 233.9C484.99 234.01 485.09 234.06 485.28 234.17C481.89 238.12 478.56 241.29 475.27 243.67C471.98 246.05 469.28 247.17 467.14 247.03C465.95 246.95 464.99 246.45 464.25 245.53C463.47 244.56 463.12 243.54 463.2 242.47V242.46Z" fill="#F5A9BE"/>
<path d="M477.97 244.93C478.07 243.86 478.51 242.69 479.31 241.41C480.1 240.13 481.19 238.6 482.56 236.8C482.99 236.22 483.21 235.93 483.64 235.34C483.91 235 484.22 234.59 484.56 234.1C484.9 233.61 485.29 233.05 485.74 232.42C488.2 229.07 489.89 226.84 490.78 225.73C491.39 225.01 492.18 224.68 493.15 224.76C493.78 224.81 494.29 225.04 494.69 225.46C495.09 225.88 495.25 226.39 495.19 227C495.12 227.66 494.81 228.33 494.25 229C493.81 229.53 492.48 230.68 490.32 232.46C487.94 234.42 486.09 236.1 484.78 237.46C483.46 238.82 482.76 240.07 482.65 241.18C482.59 241.79 482.76 242.34 483.14 242.83C483.61 243.43 484.25 243.76 485.06 243.82C487.68 244.02 491.83 241.44 497.59 236.11C497.78 236.22 497.88 236.27 498.07 236.38C494.98 239.87 491.81 242.76 488.55 245.05C485.29 247.34 482.7 248.41 480.75 248.27C479.75 248.2 479.01 247.77 478.5 247.03C478.09 246.44 477.9 245.73 477.98 244.92L477.97 244.93ZM498.25 215.59C499 215.21 499.72 215.05 500.41 215.11C501 215.16 501.52 215.38 501.97 215.78C502.69 216.4 502.99 217.3 502.86 218.47C502.74 219.59 502.25 220.65 501.41 221.66C500.84 222.38 500.18 222.92 499.44 223.27C498.69 223.62 497.98 223.77 497.3 223.71C496.77 223.67 496.25 223.47 495.74 223.12C495.07 222.5 494.79 221.61 494.91 220.44C495.03 219.27 495.5 218.2 496.27 217.24C496.84 216.53 497.5 215.97 498.25 215.59Z" fill="#F5A9BE"/>
<path d="M502.8 246.1C502.97 244.63 503.71 243.11 505.05 241.55C506.39 240 508.25 238.14 510.64 235.99C512.16 234.63 513.29 233.58 514.01 232.82C514.73 232.06 515.13 231.43 515.19 230.92C515.22 230.67 515.17 230.46 515.05 230.29C514.74 230.01 514.44 229.85 514.15 229.82C512.26 229.65 508.52 232.25 503.02 237.64C501.88 238.73 499.61 241.05 496.24 244.62C495.1 245.82 494.53 246.42 493.4 247.62C492.7 248.39 491.94 248.73 491.13 248.67C490.56 248.62 490.08 248.37 489.7 247.9C489.32 247.43 489.15 246.9 489.22 246.29C489.28 245.68 489.56 245.09 490.05 244.51C490.27 244.22 491.09 243.26 492.51 241.63C494.92 238.9 496.67 236.86 497.73 235.51C499.2 233.64 500.62 231.72 502 229.78C502.72 228.79 503.08 228.3 503.81 227.31C504.72 226.15 505.71 225.62 506.78 225.71C507.36 225.76 507.83 225.98 508.17 226.37C508.52 226.76 508.66 227.26 508.59 227.87C508.52 228.48 508.13 229.2 507.47 230.01C506.9 230.72 506.12 231.49 505.13 232.28C504.14 233.07 503.54 233.56 503.32 233.74C501.07 235.6 499.46 237.09 498.46 238.19C497.03 239.77 496.04 240.92 495.48 241.64C494.92 242.36 494.77 242.87 495.03 243.14C495.24 243.36 495.8 243.07 496.68 242.27C497.56 241.47 498.95 240.12 500.85 238.22C502.12 236.94 502.76 236.3 504.04 235.02C506.93 232.18 509.47 229.98 511.64 228.39C513.81 226.81 515.65 226.09 517.15 226.22C517.97 226.29 518.64 226.64 519.16 227.25C519.67 227.86 519.88 228.6 519.77 229.46C519.63 230.63 519 231.92 517.9 233.34C516.8 234.76 515.25 236.53 513.25 238.59C511.78 240.1 510.62 241.36 509.82 242.37C509.02 243.38 508.59 244.21 508.51 244.87C508.47 245.18 508.56 245.47 508.77 245.74C509.06 246.13 509.54 246.35 510.21 246.41C511.59 246.53 513.55 245.9 516.09 244.51C518.63 243.12 521.32 241.15 524.18 238.59C524.33 238.79 524.4 238.89 524.55 239.09C521.16 242.37 517.76 245.1 514.33 247.28C510.9 249.46 508.16 250.47 506.07 250.29C504.98 250.2 504.12 249.71 503.5 248.84C502.92 248.02 502.69 247.1 502.8 246.09V246.1Z" fill="#F5A9BE"/>
<path d="M503.55 271.19C503.72 269.77 504.43 268.22 505.69 266.56C506.95 264.9 508.61 263.28 510.66 261.72C516.03 257.52 522.17 254.72 529.05 253.34C530.11 251.93 530.64 251.23 531.7 249.82C533.12 247.95 533.83 247.02 535.25 245.16C533.01 247.3 530.8 248.96 528.62 250.14C526.44 251.32 524.54 251.83 522.92 251.68C521.97 251.59 521.13 251.2 520.4 250.52C519.43 249.45 519.03 248.18 519.22 246.71C519.44 244.98 520.38 243.08 522.05 241C523.72 238.92 525.86 236.84 528.48 234.78C530.93 232.85 533.39 231.4 535.86 230.41C538.33 229.42 540.39 229.01 542.04 229.18C543.06 229.28 543.77 229.62 544.2 230.1C544.71 230.67 544.97 231.39 544.85 232.25C545.32 231.68 545.7 231.26 545.99 230.98C546.39 230.56 546.85 230.25 547.34 230.04C547.84 229.84 548.31 229.76 548.74 229.8C549.32 229.86 549.79 230.12 550.14 230.57C550.49 231.02 550.62 231.55 550.53 232.16C550.42 232.92 550.02 233.65 549.39 234.36C548.86 234.96 547.61 236.08 545.67 237.68C544 239.05 542.58 240.28 541.4 241.37C540.22 242.46 539.19 243.58 538.3 244.72C535.68 248.16 533.54 250.88 531.86 252.87C535.69 252.32 539.57 252.25 543.47 252.66C547.08 253.04 550.5 253.79 553.71 254.92C554.49 255.21 555.04 255.61 555.37 256.11C555.7 256.61 555.82 257.16 555.72 257.77C555.62 258.43 555.27 259.01 554.68 259.51C554.09 260.01 553.42 260.22 552.67 260.14C552.29 260.1 551.9 259.98 551.5 259.78C545.61 256.82 540.31 255.11 535.66 254.64C533.9 254.46 532.17 254.45 530.47 254.59C524.93 261.63 515.24 274.91 506.69 275.66C505.99 275.72 505.01 275.15 504.37 274.38C503.67 273.52 503.4 272.45 503.54 271.23L503.55 271.19ZM509.95 271.06C512.85 271.32 517.93 266.92 525.41 257.92C526.38 256.69 526.87 256.07 527.84 254.84C522.75 255.84 517.48 258.43 512.05 262.62C511 263.45 510.05 264.38 509.21 265.41C508.37 266.44 507.9 267.39 507.8 268.25C507.7 269.06 507.97 269.81 508.59 270.48C508.97 270.82 509.42 271.02 509.94 271.06H509.95ZM527.71 247.73C529.05 247.86 530.77 247.17 532.89 245.65C535.01 244.14 537.13 242.28 539.24 240.07C540.14 238.88 541.06 237.53 542.01 236.03C542.38 235.48 542.57 235.21 542.94 234.66C543.16 234.12 543.3 233.67 543.35 233.31C543.44 232.7 543.33 232.23 543.04 231.89C542.53 231.37 541.88 231.08 541.1 231C539.45 230.83 537.43 231.45 535.03 232.86C532.63 234.27 530.5 236.03 528.64 238.14C526.78 240.25 525.74 242.19 525.5 243.97C525.35 245.09 525.52 246.02 526.01 246.72C526.44 247.32 527.02 247.66 527.69 247.73H527.71Z" fill="#F5A9BE"/>
<path d="M117.94 249.49C117.9 248.02 118.39 246.47 119.4 244.83C120.41 243.19 121.89 241.16 123.86 238.75C125.03 237.36 125.92 236.24 126.53 235.36C127.14 234.49 127.44 233.8 127.43 233.3C127.43 233.05 127.35 232.85 127.2 232.7C127 232.5 126.76 232.4 126.47 232.41C125.94 232.41 125.25 232.8 124.4 233.55C123.55 234.3 122.39 235.47 120.94 237.07C117.75 240.62 113.97 245.56 109.67 251.9C108.99 252.88 108.15 253.38 107.16 253.41C106.55 253.43 106.01 253.24 105.54 252.84C105.08 252.45 104.83 251.95 104.81 251.34C104.79 250.88 104.92 250.4 105.19 249.89C105.68 248.81 106.17 247.89 106.67 247.12C107.17 246.35 108.38 244.52 110.32 241.64C112.27 238.76 115.17 234.41 119.1 228.61C120.31 226.79 120.91 225.89 122.13 224.07C122.93 222.89 124.76 220.21 127.64 216.04C130.53 211.87 132.55 209.12 133.66 207.79C134.49 206.87 135.39 206.4 136.37 206.39C137.01 206.39 137.54 206.58 137.96 206.98C138.38 207.38 138.59 207.91 138.6 208.57C138.6 209.38 138.32 210.17 137.73 210.93C137.44 211.34 136.49 212.29 134.89 213.77C134.45 214.23 133.33 215.37 131.52 217.19C129.71 219.01 127.87 220.98 125.99 223.08C124.11 225.19 122.4 227.27 120.85 229.32C120.61 229.63 118.91 232.01 115.78 236.48C112.65 240.95 111.14 244 111.19 245.62C111.2 245.97 111.3 246.15 111.49 246.14C111.87 246.14 112.53 245.56 113.48 244.42C114.43 243.29 115.61 241.72 117.05 239.79C118.51 237.84 119.54 236.55 120.05 235.93C122.3 233.26 124.08 231.33 125.39 230.14C126.69 228.95 127.88 228.35 128.94 228.34C129.71 228.33 130.42 228.63 131.05 229.22C131.53 229.67 131.79 230.27 131.8 231.03C131.81 232.09 131.41 233.35 130.58 234.81C129.76 236.26 128.58 238.07 127.1 240.22C125.84 242.05 124.9 243.53 124.28 244.63C123.66 245.73 123.35 246.63 123.37 247.34C123.37 247.69 123.5 248 123.74 248.25C124.08 248.6 124.58 248.77 125.25 248.76C126.67 248.74 128.51 247.92 130.77 246.32C133.03 244.72 135.37 242.54 137.79 239.78C138.02 239.9 138.14 239.96 138.37 240.08C135.43 243.75 132.41 246.88 129.29 249.46C126.17 252.04 123.61 253.35 121.58 253.39C120.54 253.41 119.68 253.05 119 252.3C118.32 251.55 117.96 250.63 117.94 249.51V249.49Z" fill="#F5A9BE"/>
<path d="M135.85 246.47C135.83 244.9 136.22 243.2 137.02 241.37C137.82 239.54 138.88 237.74 140.21 236.02C141.91 233.83 143.9 232.03 146.14 230.62C148.38 229.21 150.4 228.51 152.18 228.5C153.34 228.5 154.32 228.85 155.14 229.55C155.71 230.06 156 230.87 155.99 231.98C155.99 233.25 155.56 234.65 154.74 236.2C153.91 237.75 152.73 239.19 151.2 240.54C149.67 241.89 147.92 242.9 145.97 243.57C145.73 243.67 145.4 243.73 144.97 243.73C144.3 243.73 143.77 243.5 143.36 243.02C142.95 242.54 142.75 242 142.75 241.39C142.75 240.83 142.93 240.35 143.28 239.94C143.64 239.53 144.18 239.33 144.89 239.32C147.04 239.31 148.86 238.93 150.34 238.19C151.83 237.45 152.92 236.54 153.62 235.44C154.32 234.35 154.68 233.27 154.68 232.21C154.68 231.3 154.42 230.57 153.9 230.01C153.52 229.61 153.04 229.41 152.46 229.41C151.45 229.41 150.27 229.94 148.95 230.98C147.62 232.02 146.24 233.39 144.88 235.07C143.77 236.43 142.88 237.89 142.2 239.42C141.51 240.94 141.17 242.39 141.18 243.76C141.18 244.98 141.5 246.08 142.12 247.02C142.96 248.27 144.17 248.9 145.69 248.89C147.35 248.88 149.29 248.13 151.54 246.66C153.78 245.18 156.15 243.13 158.66 240.49C158.83 240.67 158.92 240.76 159.09 240.95C156.86 244.04 154.14 246.81 150.93 249.28C147.72 251.75 144.83 252.99 142.23 253.02C140.86 253.03 139.67 252.69 138.68 251.99C136.82 250.69 135.88 248.86 135.86 246.48L135.85 246.47Z" fill="#F5A9BE"/>
<path d="M89.4099 260.64C88.9899 260.72 88.7299 260.57 88.6199 260.17C88.5499 259.92 88.5699 259.66 88.6899 259.38C92.3799 249.46 96.1699 239.54 100.64 229.9C104.59 221.38 109.15 212.76 114.19 204.61C111.72 205.05 109.07 205.21 106.23 205.1C103.39 204.99 99.9399 204.68 95.9299 204.27C91.7399 203.84 88.3299 203.63 85.8099 203.56C83.2899 203.49 80.9099 203.68 78.6699 204.11C75.9499 204.64 73.7199 205.6 72.0099 206.97C69.9299 208.63 68.5599 210.73 67.9499 213.28C67.3399 215.82 67.5599 218.66 68.5499 221.79C69.1499 223.69 70.1899 225.33 71.6599 226.67C73.1299 228.01 74.7999 228.98 76.6499 229.58C78.4999 230.17 80.2899 230.3 81.9999 229.97C84.5699 229.47 86.4199 227.91 87.5699 225.3C88.7199 222.69 88.6599 219.02 87.3799 214.28C87.1399 213.39 87.1799 212.66 87.5099 212.08C87.8399 211.5 88.3099 211.15 88.9399 211.03C89.5699 210.91 90.1599 211.05 90.7199 211.43C91.2799 211.82 91.6699 212.43 91.8899 213.27C91.9899 213.67 92.0499 213.97 92.0499 214.17C92.4599 219.12 91.5499 223.08 89.3499 226.05C87.1399 229.02 84.2499 230.85 80.6399 231.56C78.2599 232.03 75.8799 231.98 73.4799 231.42C71.0799 230.86 68.9599 229.82 67.1299 228.29C65.2999 226.76 64.0299 224.84 63.3599 222.53C62.5699 219.83 62.8599 217.1 64.2399 214.34C65.6199 211.59 67.7999 208.96 70.7199 206.45C74.3999 203.3 78.8399 201.19 83.9999 200.21C87.6099 199.52 91.1799 199.35 94.7099 199.67C98.2399 200 102.5 200.59 107.21 201.58C110.77 202.33 113.5 202.84 115.29 202.93C116.42 202.99 117.46 202.93 118.43 202.77C121.48 202.24 124.59 200.9 127.78 198.76C128.13 198.55 128.46 198.41 128.75 198.36C129.33 198.26 129.84 198.38 130.27 198.72C130.7 199.06 130.98 199.5 131.11 200.05C131.25 200.65 131.14 201.23 130.8 201.8C130.45 202.37 129.85 202.87 129.04 203.18C128.2 203.5 127.25 203.71 126.33 203.87C124.93 204.11 123.45 204.24 121.89 204.25C120.33 204.26 119.42 204.27 119.17 204.25C118.11 204.25 117.58 204.25 116.52 204.25C112.26 211.04 108.67 218.36 105.79 226.16C102.17 235.98 99.2699 246.01 96.7199 256.07C96.5399 256.83 95.8499 257.33 94.6399 257.56C94.4499 257.6 94.0099 257.67 93.3099 257.78C92.6099 257.89 91.9999 258.11 91.4799 258.45C90.9599 258.79 90.5699 259.26 90.3099 259.89C90.1299 260.29 89.8299 260.53 89.4099 260.61V260.64Z" fill="#F5A9BE"/>
<path d="M36.09 108.27V168.9H0V15.9199H67.25C79.65 15.9199 89.61 17.3599 97.12 20.2299C104.63 23.1099 110.85 28.3899 115.78 36.0799C120.71 43.7699 123.18 52.3199 123.18 61.7299C123.18 80.0999 114.33 93.2799 96.62 101.27L124.86 168.91H85.26L61.77 108.28H36.1L36.09 108.27ZM36.09 43.1499V82.1499H58.06C65.23 82.1499 70.44 81.6499 73.69 80.6399C76.94 79.6299 79.84 77.3899 82.38 73.9199C84.92 70.4499 86.19 66.4699 86.19 61.9799C86.19 57.4899 84.92 53.9099 82.38 50.5499C79.84 47.1899 77.07 45.1099 74.09 44.3299C71.1 43.5499 65.5 43.1499 57.28 43.1499H36.1H36.09Z" fill="#F5A9BE"/>
<path d="M643.11 45.0599H570.26V76.4399H627.53V105.24H570.26V138.64H643.11V168.9H533.84V15.9199H643.11V45.0599Z" fill="#F5A9BE"/>
<path d="M548.2 84.24C531.35 126.78 496.81 173.54 467.75 173.54H465.64C442.05 172.28 436.58 151.64 436.58 141.53C436.58 104.05 487.97 48.45 487.97 31.59C487.97 26.54 485.02 24.43 481.23 24.43C463.54 24.43 419.74 88.87 401.2 121.73C392.9 139.11 384.23 155.39 377.28 168.46C376.44 170.04 374.81 171 373.02 171H337.01C334.49 171 332.91 168.27 334.19 166.1C346.76 144.81 395.72 60.18 395.72 34.11C395.72 28.21 393.62 24 387.72 24C372.56 24 338.02 77.07 317.38 113.3C308.08 132.31 297.61 150.93 288.21 168.79C287.49 170.16 286.08 171 284.53 171H247.69C245.33 171 243.82 168.49 244.97 166.42C254.81 148.75 290.11 84.24 300.95 48.85C303.9 39.17 309.38 17.26 292.11 17.26C282 17.26 268.52 24.85 257.15 39.17C258.41 88.45 201.97 173.53 161.96 173.53C131.63 173.53 127.42 145.31 127.42 129.3C127.42 78.33 176.7 5.03998 221.35 5.03998C236.52 5.03998 246.2 10.52 251.68 19.36C266 7.56998 283.69 -0.0200195 299.7 -0.0200195C327.92 -0.0200195 338.45 15.15 338.45 38.73C338.45 44.63 337.61 50.1 336.76 56C354.45 28.62 372.57 6.71998 393.63 5.02998C418.9 3.33998 427.32 23.98 427.32 37.04C427.32 45.88 425.63 55.15 423.11 65.26C442.49 34.52 463.13 4.60998 494.29 4.60998C511.56 4.60998 523.77 13.88 523.77 31.15C523.77 57.68 484.18 93.48 484.18 120.86C484.18 127.18 486.71 130.97 491.77 130.97C506.51 130.97 521.25 110.75 534.31 84.21H548.21L548.2 84.24ZM224.29 92.24C220.5 88.03 218.82 81.71 218.82 74.97C218.82 59.81 226.82 43.8 239.04 30.74C237.35 26.11 233.56 23.16 227.24 23.16C200.28 23.16 167.85 85.92 167.85 114.98C167.85 125.93 173.32 130.99 181.33 130.99C193.55 130.99 210.82 117.09 224.29 92.24Z" fill="#F5A9BE"/>
</g>
<defs>
<clipPath id="clip0_2006_28">
<rect width="643.11" height="275.63" fill="white"/>
</clipPath>
</defs>
</svg>
