<?xml version="1.0" encoding="UTF-8"?>
<svg id="Layer_2" data-name="Layer 2" xmlns="http://www.w3.org/2000/svg" viewBox="0 0 1129.84 277.81">
  <defs>
    <style>
      .cls-1 {
        fill: #b9302e;
      }
    </style>
  </defs>
  <g id="Layer_1-2" data-name="Layer 1">
    <g>
      <path class="cls-1" d="M59.05,164.67v99.21H0V13.57h110.03c20.29,0,36.59,2.35,48.87,7.06,12.29,4.7,22.46,13.35,30.53,25.93,8.07,12.58,12.1,26.57,12.1,41.97,0,30.05-14.49,51.62-43.46,64.69l46.21,110.67h-64.79l-38.44-99.21h-42ZM59.05,58.13v63.82h35.94c11.74,0,20.26-.82,25.58-2.48,5.32-1.65,10.05-5.32,14.21-11,4.16-5.69,6.24-12.2,6.24-19.53s-2.08-13.2-6.24-18.71c-4.16-5.5-8.68-8.89-13.57-10.18-4.89-1.28-14.06-1.93-27.51-1.93h-34.66Z"/>
      <path class="cls-1" d="M1129.84,61.24h-119.2v51.35h93.71v47.13h-93.71v54.65h119.2v49.51h-178.8V13.57h178.8v47.68Z"/>
      <g>
        <path class="cls-1" d="M266.09,277.81c-13.98,0-25.8-3.78-35.13-11.25-16.75-13.16-25.27-30.79-25.27-52.36,0-18.31,6.39-39.39,18.99-62.64,12.31-22.69,29.31-46.06,50.53-69.46,22.37-25.09,46.12-45.08,70.56-59.37C370.68,8.18,393.45.81,413.45.81c14.51,0,26.6,3.79,35.93,11.25,13.58,11.12,20.43,27.09,20.43,47.53,0,15.37-3.98,32.83-11.82,51.88-7.09,17.2-16.83,34.81-29,52.44,2.79,1.85,7.28,2.79,13.44,2.79,11.05,0,24.35-4.3,39.56-12.77,15.54-8.66,31.55-22.48,47.56-41.08l5.09-5.91,14.87,14.88-3.93,5.05c-20.24,25.98-40.3,45.81-59.63,58.92-19.92,13.52-39.71,20.37-58.82,20.37-9.44,0-18.76-1.69-27.76-5.03-20.41,22.83-42.46,41.25-65.62,54.78-24.89,14.55-47.66,21.93-67.67,21.93ZM407.82,35.43c-12.67,0-26.27,3.9-40.43,11.6-14.41,7.85-27.65,19.04-39.34,33.26-15.17,18.31-27.62,36.84-37,55.08-9.09,17.68-13.69,33.09-13.69,45.81,0,8.7,2.66,15.39,8.14,20.45,6.2,5.76,14.33,8.55,24.88,8.55,19.11,0,40.29-9.47,63.03-28.17-6.02-8.09-9.07-17.27-9.07-27.39,0-13.25,5.31-27.64,15.78-42.78,13.43-18.92,26.68-28.09,40.58-28.09,6.24,0,11.99,1.63,17.19,4.87,1.96-7.65,2.94-14.41,2.94-20.18,0-11.17-2.72-19.64-8.07-25.2-6.73-5.26-14.9-7.82-24.95-7.82Z"/>
        <path class="cls-1" d="M795.95,277.01c-13.21,0-24.42-4.51-33.31-13.39l-.17-.18c-8.78-9.39-13.23-20.54-13.23-33.13,0-17.07,7.11-35.44,21.13-54.61,13.29-18.17,31.78-39.69,54.97-63.94,14.87-15.95,25.99-28.53,32.98-37.35,8.4-10.56,9.3-15.58,9.3-17.24,0-.39,0-.41-.33-.66l-.4-.3-.35-.35c-1.59-1.58-4.67-1.92-6.97-1.92-7.11,0-19.89,4.19-40.46,24.13-17.66,17.13-39.56,41.46-65.09,72.3l-25.75,31.38c-26.9,33.35-47.95,57.54-62.53,71.84-15.82,15.53-31.08,23.41-45.34,23.41-7.38,0-14.71-2.59-21.8-7.7-5.53-3.58-12.02-10.57-12.02-23.7s6.23-28.81,19.05-46.87c11.91-16.78,29.93-39.18,53.57-66.57,18.12-20.8,31.66-37.42,40.26-49.42,10.38-14.47,11.93-21.73,11.93-24.77,0-.35-.03-.77-.14-1.07-2.15-1.41-4.04-2.16-5.5-2.16-12.84,0-41.89,15.5-107.32,89.36l-.07.08c-11.27,12.35-33.68,38.81-66.61,78.65l-28.2,33.84c-8.32,10.25-18.34,15.49-29.72,15.49-8.33,0-15.69-2.97-21.89-8.82-6.31-5.95-9.52-13.28-9.52-21.77,0-7.96,2.89-15.87,8.58-23.52,2.39-3.53,10.35-14.15,24.31-32.42,23.46-30.4,40.44-53.31,50.5-68.12,13.86-20.79,27.34-42.1,40.05-63.28l17.02-27.57.07-.1c9.97-14.97,22.29-22.56,36.63-22.56,8.19,0,15.21,2.5,20.86,7.42,5.93,5.2,8.93,12.18,8.93,20.76,0,8.03-3.58,17.02-10.93,27.45-.6.89-1.22,1.79-1.87,2.7,12.53-12.65,24.26-23.62,35.09-32.85,23.31-19.86,43.68-29.51,62.28-29.51,10.95,0,20.45,3.62,28.25,10.76l.12.11.11.11c7.82,7.82,11.78,16.86,11.78,26.86,0,14.95-6.71,31.58-19.95,49.41-12.47,16.8-29.95,37.83-51.95,62.51-14.27,15.86-25.13,28.59-32.29,37.86-8.45,10.96-9.36,16.04-9.36,17.72,0,.27.04.38.04.39h0s.02.03.07.08c1.87,1.06,2.85,1.15,3.12,1.15,1,0,4.88-.63,13-8.75,7.11-7.11,21.18-23.06,41.82-47.41,9.16-11.32,17.63-21.16,25.18-29.24l12.01-13.61c30.08-34.38,55.33-60.98,75.02-79.06,20.88-19.17,40.82-28.89,59.26-28.89,9.63,0,18.7,3.21,26.96,9.55l.26.2.24.22c8.49,7.85,12.8,17.22,12.8,27.87,0,13.72-5.55,29.14-16.48,45.84-10.3,15.72-25.35,35.7-44.74,59.41-15.29,18.97-26.7,33.87-33.87,44.23-7.92,11.44-9.58,18.3-9.58,22.05,0,.86.22,2.05,1.89,3.73,2.91,2.92,7.29,4.33,13.41,4.33,14.6,0,34.54-8.14,59.27-24.2,25.37-16.48,51.28-39.75,77.01-69.16l4.72-5.4,16.59,14.22-4.73,5.5c-32.96,38.36-68.05,71.26-104.3,97.76-37.59,27.49-68.23,40.85-93.66,40.85ZM607.74,92.83c-5.9,5.45-9.66,8.99-11.2,10.53l-.13.12c-22.18,21.13-38.2,37.94-47.61,49.95-12.87,16.32-22.12,28.59-27.55,36.54.55-.55,1.13-1.13,1.74-1.76,8.66-8.92,22.53-24.27,41.22-45.63l31.38-36.21c4.11-4.65,8.15-9.17,12.14-13.55Z"/>
      </g>
    </g>
  </g>
</svg>