<?xml version="1.0" encoding="UTF-8"?>
<svg id="Layer_2" data-name="Layer 2" xmlns="http://www.w3.org/2000/svg" viewBox="0 0 196.01 208.39">
  <defs>
    <style>
      .cls-1 {
        fill: #781029;
      }
    </style>
  </defs>
  <g id="Layer_1-2" data-name="Layer 1">
    <g>
      <path class="cls-1" d="M98.01,208.39c-21.59,0-46.06,0-65.09-10.17C10.77,186.39,0,163.05,0,126.89v-45.39C0,45.34,10.77,22.01,32.92,10.17,51.94,0,76.42,0,98.01,0s46.06,0,65.09,10.17c22.15,11.84,32.92,35.17,32.92,71.33v45.39c0,36.16-10.77,59.49-32.92,71.33-19.02,10.17-43.49,10.17-65.09,10.17ZM98.01,6.19C54.97,6.19,6.19,6.19,6.19,81.5v45.39c0,75.31,48.78,75.31,91.82,75.31s91.82,0,91.82-75.31v-45.39C189.82,6.19,141.04,6.19,98.01,6.19Z"/>
      <g>
        <path class="cls-1" d="M83.77,106.69c2.34.64,5.09,2.65,7.41,3.16,4.86,1.08,10.95-.84,14.29-4.51,5.8-6.39,8.92-16.29,15.99-22.52,15.49-13.67,36.13-5.36,43.55,12.33,7.86,18.73,7.22,48.76-10.76,61.68-10.75,7.73-26.17,7.66-34.97-2.94-4.82-5.81-7.73-16.13-6.75-23.59.11-.85,1.23-4.3,1.88-4.62l4.06,6.78c1.79,1.53,3.33,3.72,5.23,5.07,9.86,7.02,23.38,2.72,30.28-6.45,6.53-8.68,10.05-27.05,3.01-36.06-.71-.91-3.28-2.94-4.31-3.28-2.2-.72-6.03-.52-8.33-.13-3.6.62-9.93,6.51-12.32,9.37-1.16,1.39-2.01,3.33-2.99,4.6-6.19,8.01-12.04,13.22-22.74,14.14-1.17.1-6.22-.52-6.21.78,0,.11.5,1.74.62,2.06,1.48,3.91,3.71,7.39,4.64,11.63,2.36,10.74-.93,24.69-9.36,32.15-21.97,19.44-51.58,2.43-63.3-19.7-5.85-11.05-6.84-23.52-6.37-35.87.36-.38.5-.98,1.05-.58,1.1.79,1.32,5.83,1.73,7.49,4.4,17.9,15.71,33.88,35.44,36.15,8.72,1,22.03-2,26.4-10.44,1.2-2.32,2.28-7.32,2.03-9.86-.51-5.13-4.7-8.9-9.18-10.88-1.71-.75-4.94-1.69-6.82-1.86-2.92-.27-5.94.21-8.87-.08-3.35-5.37-7.05-10.56-9.16-16.6l-1.75-7.2c2.41-.48,4.62,1.32,6.79,1.61,2.93.38,7.38.83,10.27.54,4.45-.45,9.09-3.1,11.71-6.73,3.6-5.01,1.48-10.31-3.44-13.42-3.03-1.92-7.94-1.88-11.52-1.54s-13,4.35-16.17,6.61c-.99.7-3.95,3.91-4.91,3.71-4.45-5.02-8.39-10.64-11.67-16.46.2-.92,8.96-7.18,10.43-8.03,15.09-8.72,40.36-9.23,48.13,9.57,4.51,10.92.1,25.6-10.14,31.67-1.14.68-3.08.47-2.9,2.25Z"/>
        <g>
          <path class="cls-1" d="M87.02,38.35c.07.1.14,1.53.62,2.37,5.73,10.13,17.94,18.86,30.03,17.15.69-.1,3.79-1.04,4.64-1.33,5.61-1.87,11.28-5.92,15.17-10.32.64-.73.72-1.95,1.89-1.93,1.03.01,2.84,2.47,3.79,3.29.5.43,1.16.63,1.64,1.07,1.04.94,7.66,7.4,7.82,7.93.09.33.09.64,0,.96-.12.42-3.36,3.54-4.02,4.14-21.82,19.72-52.81,12.15-61.85-16.26-.31-.98-1.63-6.77-1.34-7.06.06-.06,1.57-.07,1.62,0Z"/>
          <path class="cls-1" d="M126.03,41.02c-.16.14-.84.16-1.31.57-3.28,2.86-6.23,6.58-9.47,9.54-.21.26-.47.31-.78.24-.49-.11-6.04-6.05-7.08-7.04-1.05-1-5.19-3.67-5.19-5.15s3.65-3.68,4.65-4.6c1.3-1.2,2.46-2.65,3.78-3.81,1.03-.9,2.69-2.08,3.76-2.69,3.05,2.73,5.69,5.92,8.71,8.67.72.66,2.27,1.23,2.73,2.15.23.47.51,1.87.21,2.13Z"/>
        </g>
      </g>
    </g>
  </g>
</svg>