<svg preserveAspectRatio="xMidYMid meet" width="433" height="117" overflow="visible" style="display: block;" viewBox="0 0 433 117" fill="none" xmlns="http://www.w3.org/2000/svg">
<g id="Group">
<path id="Vector" d="M24.2991 72.6831V113.377H0V10.6988H45.2788C53.6276 10.6988 60.3336 11.6653 65.39 13.5916C70.4464 15.5246 74.6343 19.0685 77.9536 24.23C81.2729 29.3914 82.936 35.1301 82.936 41.446C82.936 53.7757 76.9773 62.622 65.0534 67.9848L84.0671 113.384H57.4048L41.5892 72.6899H24.3058L24.2991 72.6831ZM24.2991 28.9753V55.1517H39.0913C43.9188 55.1517 47.4266 54.8161 49.6148 54.1382C51.803 53.4603 53.7555 51.9568 55.4657 49.6278C57.1759 47.2987 58.0309 44.6274 58.0309 41.6138C58.0309 38.6001 57.1759 36.1973 55.4657 33.9421C53.7555 31.6869 51.8905 30.2908 49.8841 29.7673C47.871 29.2437 44.1005 28.9753 38.5661 28.9753H24.3058H24.2991Z" fill="var(--fill-0, white)"/>
<path id="Vector_2" d="M433 30.2572H383.951V51.3192H422.51V70.6494H383.951V93.0672H433V113.377H359.43V10.6988H433V30.2572Z" fill="var(--fill-0, white)"/>
<path id="Vector_3" d="M369.098 56.5545C357.753 85.1069 334.498 116.492 314.932 116.492H313.511C297.628 115.646 293.945 101.793 293.945 95.0069C293.945 69.8507 328.546 32.5326 328.546 21.2163C328.546 17.8268 326.559 16.4106 324.008 16.4106C312.097 16.4106 282.607 59.6621 270.124 81.7174C264.536 93.3826 258.699 104.31 254.019 113.082C253.454 114.143 252.356 114.787 251.151 114.787H226.906C225.209 114.787 224.145 112.955 225.007 111.498C233.47 97.2084 266.435 40.4056 266.435 22.9077C266.435 18.9477 265.021 16.122 261.048 16.122C250.841 16.122 227.586 51.742 213.689 76.0592C207.427 88.8185 200.378 101.316 194.049 113.304C193.564 114.223 192.615 114.787 191.571 114.787H166.767C165.178 114.787 164.162 113.102 164.936 111.713C171.561 99.8529 195.328 56.5545 202.627 32.8011C204.613 26.3039 208.303 11.5982 196.675 11.5982C189.868 11.5982 180.792 16.6925 173.137 26.3039C173.985 59.3802 135.985 116.485 109.046 116.485C88.6253 116.485 85.7907 97.544 85.7907 86.7983C85.7907 52.5877 118.97 3.39624 149.033 3.39624C159.247 3.39624 165.764 7.07436 169.454 13.0077C179.095 5.09435 191.006 1.54905e-05 201.785 1.54905e-05C220.786 1.54905e-05 227.875 10.182 227.875 26.0086C227.875 29.9686 227.31 33.64 226.737 37.6001C238.648 19.2229 250.848 4.52383 265.027 3.38952C282.042 2.25521 287.711 16.1086 287.711 24.8743C287.711 30.8076 286.573 37.0295 284.876 43.8153C297.924 23.1829 311.821 3.10762 332.801 3.10762C344.429 3.10762 352.65 9.32955 352.65 20.921C352.65 38.7277 325.994 62.7562 325.994 81.1334C325.994 85.3753 327.697 87.9192 331.104 87.9192C341.028 87.9192 350.953 74.3477 359.746 56.5343H369.105L369.098 56.5545ZM151.012 61.924C148.461 59.0983 147.329 54.8563 147.329 50.3325C147.329 40.1573 152.716 29.4115 160.943 20.6458C159.806 17.5382 157.254 15.5582 152.999 15.5582C134.847 15.5582 113.012 57.6821 113.012 77.1868C113.012 84.5364 116.695 87.9326 122.088 87.9326C130.315 87.9326 141.943 78.603 151.012 61.924Z" fill="var(--fill-0, white)"/>
</g>
</svg>
