<svg preserveAspectRatio="xMidYMid meet" width="332" height="61" overflow="visible" style="display: block;" viewBox="0 0 332 61" fill="none" xmlns="http://www.w3.org/2000/svg">
<g id="Group">
<path id="Vector" d="M81.2614 43.092C80.9719 43.1121 80.8103 42.9913 80.7632 42.7161C80.7363 42.5416 80.7699 42.3671 80.8709 42.1859C84.1768 35.8029 87.5298 29.4333 91.3271 23.2919C94.6801 17.8687 98.4371 12.4321 102.484 7.33774C100.787 7.43842 98.9892 7.33774 97.0905 7.04241C95.1918 6.74709 92.8891 6.26384 90.2296 5.67319C87.449 5.05569 85.1665 4.64627 83.4833 4.40464C81.7933 4.16301 80.1774 4.10261 78.6423 4.21671C76.7706 4.35766 75.1951 4.8342 73.936 5.61949C72.4009 6.57258 71.3169 7.8814 70.7042 9.54595C70.0915 11.2105 70.0107 13.1368 70.4214 15.3182C70.6706 16.6471 71.2361 17.8284 72.1181 18.8486C73.0001 19.8688 74.037 20.6474 75.2355 21.1978C76.4339 21.7415 77.6189 21.9697 78.7972 21.8757C80.5679 21.7415 81.9347 20.8421 82.9177 19.1708C83.9007 17.5063 84.1566 15.0296 83.6853 11.7407C83.5977 11.1232 83.6853 10.6333 83.9478 10.2708C84.2172 9.90839 84.5605 9.70703 84.9982 9.67347C85.4291 9.63991 85.8196 9.78086 86.163 10.0829C86.5063 10.3849 86.7218 10.8279 86.8026 11.4119C86.843 11.6871 86.8497 11.8951 86.8363 12.0294C86.7083 15.392 85.7792 17.9828 84.0556 19.8084C82.3319 21.6341 80.238 22.6409 77.7468 22.8355C76.1107 22.963 74.5083 22.7483 72.9463 22.1777C71.3775 21.6139 70.0377 20.7414 68.9335 19.5735C67.8225 18.3989 67.1358 17.0096 66.8665 15.4054C66.5567 13.5261 66.9675 11.7072 68.1188 9.9688C69.2701 8.22371 70.9399 6.62628 73.1079 5.1698C75.828 3.33745 78.9857 2.27026 82.5339 2.01521C85.0116 1.83399 87.4288 1.99506 89.7785 2.49846C92.1283 2.99514 94.9427 3.72674 98.0398 4.76708C100.376 5.55237 102.167 6.10946 103.366 6.31082C104.12 6.43834 104.827 6.48532 105.493 6.44505C107.594 6.32424 109.789 5.67319 112.112 4.48518C112.367 4.37108 112.596 4.30396 112.792 4.29725C113.189 4.27711 113.525 4.39792 113.788 4.65969C114.051 4.92145 114.206 5.24363 114.246 5.61949C114.293 6.02892 114.172 6.41821 113.896 6.77394C113.62 7.13638 113.175 7.41828 112.603 7.56594C112.011 7.7136 111.358 7.78743 110.725 7.82099C109.762 7.87469 108.752 7.84113 107.702 7.72703C106.651 7.61293 106.039 7.54581 105.87 7.51896C105.157 7.43171 104.8 7.39144 104.086 7.31089C100.679 11.5461 97.6695 16.184 95.1043 21.2112C91.8725 27.5338 89.1052 34.0578 86.5535 40.622C86.3717 41.1187 85.86 41.4006 85.0318 41.461C84.9039 41.4677 84.6009 41.4879 84.1162 41.508C83.6314 41.5281 83.2072 41.6288 82.8302 41.8167C82.4531 42.0047 82.1502 42.2933 81.9212 42.6893C81.7664 42.9443 81.5442 43.0853 81.2614 43.1054V43.092Z" fill="var(--fill-0, white)"/>
<path id="Vector_2" d="M100.201 37.4876C100.019 36.1184 100.787 34.4739 102.531 32.5745C102.82 32.2456 102.968 32.0845 103.258 31.7556C104.288 30.6213 105.096 29.6749 105.688 28.9165C106.281 28.158 106.725 27.4063 107.028 26.6613C107.129 26.4129 107.163 26.1512 107.129 25.876C107.069 25.3995 106.82 24.9967 106.368 24.6746C105.917 24.3591 105.466 24.2114 105.008 24.2383C104.746 24.2517 104.51 24.3524 104.308 24.5403C103.588 25.3793 102.625 26.6076 101.406 28.2386C100.194 29.8696 99.0834 31.4402 98.087 32.9571C97.9523 32.8228 97.885 32.7557 97.7503 32.6147C99.8914 29.3461 100.975 27.7084 103.17 24.4464C103.366 24.1578 103.433 23.8087 103.386 23.3993C103.359 23.1577 103.177 22.661 102.908 21.9227C102.537 20.9293 102.342 20.1776 102.288 19.7346C102.221 19.1842 102.362 18.7278 102.712 18.3654C103.063 18.0029 103.487 17.8016 103.978 17.7747C104.436 17.7479 104.86 17.8754 105.244 18.164C105.628 18.4526 105.857 18.9225 105.938 19.5735C105.971 19.8487 105.904 20.238 105.783 20.7213C105.621 21.3656 105.554 21.9361 105.587 22.3388C105.608 22.5738 105.742 22.802 105.964 23.0167C106.187 23.2315 106.517 23.4866 106.941 23.7618C107.526 24.1443 108.018 24.5001 108.355 24.8491C108.691 25.1914 108.887 25.6075 108.947 26.0841C109.068 27.111 108.853 28.1245 108.308 29.1246C107.762 30.1246 106.934 31.2925 105.83 32.6349C105.123 33.5074 104.618 34.1853 104.308 34.6686C103.998 35.1518 103.864 35.5881 103.911 35.964C103.945 36.2056 104.032 36.3868 104.174 36.5144C104.577 36.9036 105.042 37.0849 105.554 37.0513C107.318 36.9439 109.876 34.5679 113.317 29.93C113.458 29.9837 113.532 30.0105 113.674 30.0642C111.99 32.9839 110.233 35.3733 108.395 37.246C106.557 39.1119 104.928 40.0918 103.487 40.179C102.686 40.226 101.979 39.9777 101.352 39.434C100.693 38.8568 100.316 38.2058 100.221 37.4876H100.201Z" fill="var(--fill-0, white)"/>
<path id="Vector_3" d="M110.334 37.8567C110.247 37.1386 110.375 36.3197 110.718 35.4002C111.061 34.4806 111.56 33.3665 112.219 32.0577C112.421 31.6348 112.522 31.42 112.731 30.9972C112.866 30.7488 113.007 30.4468 113.162 30.0911C113.317 29.7353 113.499 29.3326 113.707 28.8695C114.865 26.4264 115.667 24.8021 116.104 23.9832C116.407 23.453 116.885 23.1711 117.538 23.1375C117.963 23.1174 118.333 23.2248 118.656 23.4731C118.979 23.7148 119.161 24.0437 119.201 24.4531C119.248 24.8961 119.134 25.3726 118.865 25.8693C118.649 26.2586 117.936 27.1378 116.751 28.5071C115.451 30.0172 114.461 31.2925 113.788 32.3127C113.108 33.3329 112.819 34.2189 112.906 34.9773C112.953 35.3868 113.142 35.7425 113.465 36.0311C113.862 36.3868 114.333 36.5546 114.879 36.5278C116.643 36.4338 119.02 34.3598 122.076 30.3193C122.218 30.373 122.292 30.3998 122.433 30.4602C120.885 33.051 119.195 35.2458 117.363 37.0446C115.532 38.8434 113.97 39.783 112.657 39.8569C111.984 39.8971 111.432 39.6689 110.987 39.226C110.63 38.8702 110.408 38.4138 110.341 37.8634L110.334 37.8567ZM119.632 16.6002C120.077 16.2847 120.534 16.1169 120.992 16.0968C121.39 16.0766 121.76 16.184 122.117 16.4055C122.682 16.7612 123.005 17.3318 123.08 18.117C123.154 18.8688 122.985 19.6205 122.568 20.3655C122.292 20.8958 121.935 21.3052 121.484 21.6072C121.039 21.9026 120.588 22.0636 120.131 22.0838C119.774 22.1039 119.403 22.0167 119.02 21.8287C118.488 21.473 118.178 20.9025 118.097 20.1172C118.01 19.3319 118.178 18.5735 118.548 17.8687C118.824 17.3452 119.181 16.9156 119.626 16.6002H119.632Z" fill="var(--fill-0, white)"/>
<path id="Vector_4" d="M121.423 35.1586C121.228 33.3061 121.645 31.0307 122.702 28.3258C123.76 25.621 125.214 23.0436 127.079 20.587C127.907 19.54 128.318 19.0164 129.153 17.9694C130.917 15.6941 132.485 13.7745 133.859 12.2039C135.232 10.64 136.714 9.19022 138.303 7.86798C138.828 7.40486 139.414 7.16323 140.04 7.13638C140.639 7.11625 141.144 7.29747 141.555 7.68004C141.965 8.06262 142.194 8.53246 142.235 9.07612C142.295 9.86812 141.932 10.5125 141.144 11.0226C137.852 13.0563 135.232 14.8685 133.266 16.4592C131.294 18.0499 129.631 19.7883 128.271 21.6676C127.139 23.2315 126.231 24.9431 125.53 26.7955C124.837 28.6547 124.561 30.2656 124.702 31.6415C124.817 32.7758 125.234 33.6752 125.941 34.2726C126.52 34.7626 127.24 34.9908 128.048 34.9572C129.206 34.9102 130.324 34.3129 131.415 33.1651C131.22 32.4872 131.105 31.957 131.071 31.5811C130.917 29.9703 131.172 27.8224 131.839 25.1444C132.324 23.6812 133.112 22.9966 134.108 23.1443C134.761 23.2449 135.253 23.5268 135.556 23.943C135.852 24.3658 135.993 24.8625 135.98 25.4532C135.872 27.2452 135.32 29.1111 134.33 31.0442C134.222 31.6348 134.182 32.0979 134.216 32.4402C134.297 33.3665 134.68 33.8162 135.354 33.7893C136.027 33.7625 136.889 33.2926 137.946 32.3798C138.996 31.467 139.932 30.4065 140.74 29.2118C140.848 29.3528 140.902 29.4199 141.009 29.5675C140.053 31.0106 138.909 32.3396 137.555 33.5611C136.209 34.7827 135.024 35.4136 133.994 35.4539C133.67 35.4673 133.334 35.3935 133.004 35.2324C132.701 35.0847 132.384 34.8095 132.061 34.4404C130.957 35.7626 129.792 36.8231 128.574 37.6352C127.348 38.4474 126.21 38.8769 125.153 38.9239C124.675 38.9441 124.164 38.8501 123.625 38.6353C122.346 38.0715 121.605 36.9238 121.423 35.172V35.1586Z" fill="var(--fill-0, white)"/>
<path id="Vector_5" d="M139.562 34.2994C139.467 33.1987 139.636 32.0241 140.067 30.769C140.498 29.5138 141.164 28.299 141.986 27.1445C143.043 25.6612 144.295 24.3792 145.756 23.3926C147.217 22.4059 148.557 21.8958 149.762 21.8623C150.678 21.8354 151.398 22.0636 151.917 22.5268C152.294 22.8624 152.509 23.3389 152.549 23.9564C152.603 24.782 152.361 25.7485 151.816 26.8626C151.277 27.9768 150.53 29.0105 149.573 29.9635C148.624 30.9166 147.567 31.6214 146.402 32.0644C146.247 32.1382 146.025 32.1785 145.736 32.1852C145.251 32.1986 144.854 32.0509 144.537 31.7288C144.221 31.4133 144.046 31.0442 144.012 30.6347C143.985 30.2589 144.079 29.9434 144.302 29.6951C144.524 29.4467 144.86 29.3192 145.318 29.3058C146.806 29.2588 148.045 28.9769 149.028 28.4534C150.011 27.9298 150.725 27.2989 151.162 26.5673C151.6 25.8357 151.795 25.1041 151.748 24.386C151.708 23.7685 151.479 23.2181 151.055 22.8556C150.745 22.5872 150.355 22.4596 149.998 22.4731C149.311 22.4932 148.53 22.8758 147.655 23.6208C146.779 24.3658 145.931 25.3122 145.103 26.4331C144.43 27.3459 143.891 28.346 143.507 29.4266C143.123 30.5072 142.969 31.5073 143.043 32.4335C143.11 33.2926 143.393 34.0041 143.891 34.5746C144.672 35.4472 145.507 35.8633 146.409 35.8365C147.21 35.8096 148.052 35.4874 148.92 34.8632C149.796 34.239 150.9 33.3061 152.233 32.0644C153.627 30.7623 154.825 29.742 155.815 29.0104C156.805 28.2856 157.815 27.8224 158.845 27.6278C158.973 27.5942 159.148 27.5674 159.377 27.5674C159.962 27.554 160.407 27.7016 160.716 28.0037C161.026 28.3057 161.195 28.7017 161.221 29.1782C161.248 29.6951 161.094 30.1582 160.743 30.581C160.393 30.9972 159.902 31.2187 159.255 31.2321C157.707 31.2657 156.266 31.5677 154.953 32.1516C153.633 32.7356 152.28 33.5208 150.907 34.5209C150.725 34.6619 150.509 34.823 150.267 35.0042C150.025 35.1854 149.775 35.38 149.533 35.5948C148.22 36.5949 147.156 37.3466 146.328 37.8567C145.5 38.3601 144.685 38.6286 143.884 38.6555C143.177 38.6756 142.49 38.4742 141.81 38.0514C140.457 37.199 139.703 35.9573 139.568 34.3061L139.562 34.2994Z" fill="var(--fill-0, white)"/>
<path id="Vector_6" d="M175.711 28.5473C175.637 26.319 176.128 23.8826 177.205 21.2582C178.283 18.6272 179.804 16.0296 181.784 13.4523C184.78 9.57952 188.261 6.35109 192.213 3.77372C196.165 1.20307 199.808 -0.0520528 203.093 0.00164235C205.208 0.0352018 207.005 0.652693 208.466 1.85412C210.163 3.2502 210.998 5.08255 210.984 7.3109C210.971 8.99558 210.506 10.7675 209.604 12.6334C208.702 14.4993 207.47 16.2981 205.975 18.0164C204.225 20.0232 202.38 21.6945 200.407 22.9697C198.441 24.245 196.677 24.8759 195.115 24.8625C193.587 24.8491 192.435 24.1645 191.668 22.8221C191.297 22.1643 191.109 21.4596 191.095 20.7078C191.068 18.9225 191.863 16.9358 193.499 14.7544C195.135 12.573 197.175 10.6736 199.619 9.0627C200.05 8.76067 200.515 8.613 201.013 8.61972C201.511 8.62643 201.915 8.80765 202.232 9.15667C202.548 9.50569 202.703 9.90169 202.703 10.3514C202.703 10.6601 202.615 10.9622 202.434 11.2508C202.252 11.5394 201.982 11.781 201.619 11.9824C198.845 13.5194 196.556 15.0094 194.731 16.4458C192.906 17.8888 192.011 19.2916 192.031 20.6676C192.031 21.1508 192.213 21.7213 192.59 22.218C192.9 22.6207 193.411 22.8422 193.97 22.8489C195.081 22.8624 196.529 22.1979 198.34 20.8622C200.144 19.5333 201.915 17.8553 203.659 15.8686C205.261 14.0429 206.595 12.1972 207.631 10.3313C208.668 8.46534 209.193 6.84777 209.2 5.47183C209.207 4.30396 208.81 3.42471 208.062 2.82064C207.167 2.10246 206.063 1.69975 204.756 1.67962C202.38 1.63935 199.592 2.6931 196.435 4.84762C193.27 7.00885 190.301 9.78088 187.527 13.11C184.995 16.1505 182.949 19.2849 181.42 22.5133C179.892 25.7418 179.178 28.554 179.245 30.9569C179.319 33.5678 180.356 35.3331 182.343 36.2593C182.827 36.5009 183.46 36.6217 184.228 36.6217C186.248 36.6217 188.82 35.7089 191.964 33.8833C195.108 32.0577 198.353 29.7085 201.727 26.8425C202.117 26.2988 202.514 25.6948 202.918 25.037C203.322 24.3725 203.612 23.9094 203.773 23.6342C204.198 22.9899 204.703 22.6744 205.288 22.6811C205.645 22.6811 205.941 22.8154 206.17 23.057C206.399 23.2986 206.514 23.594 206.507 23.9363C206.507 24.6209 206.11 25.2518 205.329 25.8223C204.972 26.1243 204.521 26.4264 204.063 26.7284C203.545 27.0707 203.033 27.4936 202.528 27.9097C202.023 28.3325 201.565 28.7755 201.148 29.2521C200.535 29.9971 199.949 30.8227 199.39 31.7221C198.831 32.6215 198.138 33.843 197.31 35.3733C195.983 37.8299 194.926 39.6555 194.145 40.8502C192.705 43.0652 191.23 45.0049 189.722 46.656C188.214 48.3139 186.45 49.9381 184.443 51.549C183.204 52.5424 181.831 53.3142 180.309 53.8646C178.788 54.415 177.32 54.6969 175.913 54.6969C174.438 54.6969 173.166 54.3949 172.088 53.7639C171.011 53.133 170.257 52.1732 169.819 50.8711C169.678 50.4617 169.59 50.012 169.57 49.5354C169.503 48.0253 170.116 46.5956 171.408 45.2465C172.701 43.8974 174.351 42.8168 176.35 41.998C178.35 41.1858 180.309 40.7764 182.221 40.7831C183.911 40.7831 185.325 41.112 186.456 41.7698C187.136 42.1523 187.48 42.7027 187.493 43.4209C187.5 43.8639 187.365 44.2532 187.089 44.5753C186.813 44.8975 186.463 45.0586 186.052 45.0586C185.77 45.0586 185.413 44.9177 184.995 44.6425C182.895 43.092 180.875 42.3201 178.963 42.3201C177.784 42.3201 176.734 42.6088 175.812 43.1793C174.889 43.7498 174.189 44.4881 173.698 45.4009C173.206 46.3137 172.984 47.2869 173.024 48.3139C173.044 48.7971 173.139 49.3274 173.32 49.9113C173.644 50.9382 174.223 51.7235 175.064 52.2739C175.899 52.8176 176.869 53.0927 177.973 53.086C178.949 53.086 179.979 52.8645 181.07 52.435C182.161 52.0054 183.184 51.3745 184.14 50.6093C184.955 49.9583 185.79 49.0589 186.591 47.9112C187.386 46.7634 188.483 45.0989 189.877 42.9108C190.658 41.6825 191.048 41.065 191.836 39.8367C194.273 36.1519 196.798 32.7758 199.404 29.7286C196.374 32.2926 193.647 34.286 191.196 35.6888C188.746 37.0983 186.517 37.7963 184.497 37.7896C183.44 37.7896 182.444 37.5614 181.501 37.1184C177.798 35.3666 175.859 32.5074 175.724 28.5272L175.711 28.5473Z" fill="var(--fill-0, white)"/>
<path id="Vector_7" d="M204.487 34.8766C204.487 33.7088 204.952 32.3865 205.894 30.9099C206.837 29.4333 208.089 27.9365 209.658 26.4264C211.126 25.0169 212.647 23.9161 214.209 23.1308C215.771 22.3455 217.111 21.9697 218.222 21.9965C218.909 22.0167 219.414 22.2046 219.73 22.4999C220.114 22.8556 220.35 23.3389 220.343 23.9564C220.713 23.3859 220.929 23.0637 220.996 22.9966C221.366 22.4932 221.858 22.2516 222.484 22.2717C222.908 22.2851 223.285 22.4328 223.602 22.7147C223.918 22.9966 224.08 23.3456 224.066 23.7617C224.053 24.245 223.864 24.7148 223.494 25.1847C223.258 25.5203 222.854 25.9431 222.296 26.4599C221.73 26.9767 221.353 27.3325 221.151 27.5338C219.663 28.8628 218.498 30.0239 217.657 31.0106C216.815 32.004 216.391 32.8899 216.377 33.6819C216.377 33.9236 216.451 34.1786 216.606 34.4605C216.916 35.0176 217.428 35.3062 218.135 35.3263C219.003 35.3465 220.121 34.8834 221.494 33.9303C222.868 32.9772 224.417 31.5811 226.154 29.7555C226.288 29.8427 226.356 29.883 226.49 29.9703C224.639 32.4469 222.7 34.5008 220.653 36.1184C218.613 37.7426 216.943 38.5346 215.63 38.5011C214.957 38.4876 214.391 38.2125 213.96 37.6889C213.644 37.3064 213.489 36.8365 213.496 36.2861C213.502 35.4941 213.805 34.5746 214.398 33.5276C213.125 34.9371 211.873 36.0512 210.648 36.8634C209.422 37.6755 208.332 38.0782 207.369 38.0581C206.695 38.0447 206.103 37.8097 205.591 37.3533C204.857 36.6889 204.487 35.8566 204.487 34.8632V34.8766ZM210.082 35.0847C210.883 35.1048 211.799 34.6417 212.822 33.7021C213.846 32.7624 215.192 31.3932 216.876 29.581C217.333 28.8292 217.562 28.4534 218.027 27.7083C218.505 26.8962 218.747 26.4935 219.232 25.6814C219.441 25.1041 219.542 24.641 219.549 24.2987C219.555 23.7819 219.38 23.3993 219.131 23.151C218.902 22.9295 218.579 22.7751 218.155 22.7617C217.239 22.7348 216.068 23.2047 214.634 24.1645C213.206 25.1243 211.947 26.2787 210.863 27.6278C210.109 28.5406 209.517 29.4333 209.092 30.3193C208.668 31.2052 208.453 32.0241 208.446 32.7758C208.446 33.4269 208.635 34.0175 209.018 34.5343C209.308 34.8834 209.658 35.0646 210.075 35.0713L210.082 35.0847Z" fill="var(--fill-0, white)"/>
<path id="Vector_8" d="M223.433 35.8499C223.467 34.4806 224.039 32.9369 225.171 31.2187C226.302 29.5071 227.837 27.4801 229.796 25.1444C230.362 24.4665 230.651 24.1242 231.223 23.4463C230.961 23.4731 230.564 23.5335 230.038 23.6342C229.513 23.7349 229.035 23.7819 228.611 23.7617C228.382 23.755 228.187 23.6678 228.032 23.5134C227.87 23.3523 227.796 23.151 227.803 22.916C227.81 22.6409 227.897 22.4194 228.066 22.2583C228.234 22.0905 228.429 22.0167 228.658 22.0234C229.15 22.0435 229.85 22.1308 230.759 22.3053C231.23 22.3858 231.459 22.4261 231.93 22.4999C232.341 21.9697 233.405 20.5736 235.028 18.3452C236.489 16.3384 237.6 14.8886 238.253 14.0966C238.919 13.2979 239.66 12.8683 240.488 12.9019C240.953 12.922 241.323 13.0764 241.612 13.365C241.895 13.6536 242.03 14.0161 242.01 14.4658C241.983 15.0833 241.626 15.7209 240.939 16.3787C240.73 16.5733 240.118 17.0633 239.101 17.8418C236.926 19.4997 235.149 21.077 233.755 22.5737C233.984 22.5469 234.422 22.4932 235.061 22.4194C235.701 22.3388 236.287 22.312 236.805 22.3321C237.034 22.3388 237.229 22.4328 237.384 22.614C237.539 22.7952 237.613 23.0167 237.6 23.2919C237.593 23.5335 237.499 23.7282 237.33 23.8758C237.162 24.0235 236.96 24.0906 236.731 24.0839C236.206 24.0638 235.418 23.9363 234.395 23.6812C233.748 23.5268 233.277 23.4127 232.981 23.3725C232.678 23.7282 232.523 23.9094 232.213 24.2718C230.409 26.4331 229.029 28.2923 228.059 29.836C227.089 31.3797 226.598 32.6684 226.564 33.6954C226.551 34.2122 226.685 34.6619 226.962 35.0444C227.238 35.4337 227.668 35.6351 228.248 35.6552C229.15 35.6888 230.301 35.2391 231.722 34.3128C233.142 33.3866 234.738 31.9838 236.536 30.0978C236.67 30.1649 236.738 30.1985 236.872 30.2656C234.927 32.7288 232.92 34.7894 230.86 36.4405C228.793 38.0984 227.096 38.9105 225.756 38.8635C225.117 38.8434 224.592 38.6017 224.188 38.1453C223.656 37.548 223.4 36.7828 223.427 35.8566L223.433 35.8499Z" fill="var(--fill-0, white)"/>
<path id="Vector_9" d="M240.448 36.7895C240.495 35.7962 240.892 34.7693 241.653 33.7021C242.414 32.6349 243.511 31.3328 244.952 29.7823C245.807 28.8964 246.46 28.1715 246.918 27.6077C247.369 27.0439 247.605 26.5942 247.625 26.2519C247.632 26.0774 247.591 25.9431 247.497 25.8357C247.376 25.6948 247.214 25.6142 247.019 25.6075C246.662 25.5874 246.177 25.8156 245.565 26.2854C244.952 26.7553 244.117 27.5003 243.06 28.5138C240.744 30.7757 237.956 33.9571 234.752 38.0514C234.247 38.6823 233.661 38.9843 232.987 38.9642C232.57 38.9508 232.213 38.7964 231.917 38.5145C231.621 38.2259 231.479 37.8769 231.493 37.4674C231.506 37.1587 231.607 36.8365 231.816 36.5009C232.193 35.7962 232.57 35.1921 232.94 34.6887C233.311 34.1853 234.213 33.004 235.667 31.1381C237.115 29.2722 239.276 26.4599 242.198 22.708C243.094 21.5334 243.545 20.9428 244.447 19.7682C245.039 19.003 246.399 17.2713 248.541 14.5799C250.682 11.8884 252.17 10.1165 252.984 9.26405C253.583 8.67341 254.216 8.39822 254.883 8.43849C255.314 8.45863 255.664 8.61971 255.933 8.90832C256.203 9.19693 256.317 9.56609 256.29 10.0091C256.256 10.5594 256.027 11.0763 255.597 11.5662C255.381 11.828 254.694 12.4321 253.55 13.365C253.233 13.6603 252.419 14.3785 251.119 15.533C249.813 16.6874 248.48 17.9358 247.113 19.2782C245.746 20.6206 244.494 21.9563 243.349 23.2785C243.174 23.4799 241.915 25.0169 239.592 27.903C237.276 30.7891 236.112 32.7893 236.064 33.8833C236.058 34.1249 236.118 34.2457 236.246 34.2525C236.502 34.2659 236.98 33.9034 237.667 33.1785C238.36 32.4537 239.229 31.4402 240.293 30.1985C241.37 28.9433 242.124 28.1178 242.501 27.7218C244.144 26.0102 245.437 24.782 246.373 24.0369C247.308 23.2919 248.137 22.9362 248.857 22.9697C249.382 22.9966 249.84 23.2315 250.244 23.6544C250.547 23.9765 250.695 24.3994 250.668 24.9095C250.628 25.6277 250.298 26.4599 249.672 27.413C249.052 28.3594 248.17 29.5273 247.073 30.9166C246.13 32.0979 245.43 33.0644 244.959 33.7759C244.487 34.4941 244.238 35.0914 244.218 35.568C244.205 35.8096 244.279 36.0177 244.427 36.1989C244.642 36.4472 244.972 36.5815 245.423 36.6083C246.386 36.6553 247.665 36.1855 249.274 35.1988C250.877 34.2122 252.56 32.8429 254.324 31.0777C254.472 31.165 254.553 31.212 254.701 31.3059C252.54 33.6618 250.352 35.6485 248.123 37.2527C245.894 38.8635 244.104 39.6354 242.723 39.575C242.016 39.5414 241.457 39.2595 241.027 38.7293C240.602 38.1923 240.407 37.5547 240.441 36.7963L240.448 36.7895Z" fill="var(--fill-0, white)"/>
<path id="Vector_10" d="M252.701 35.5277C252.762 34.4672 253.105 33.3329 253.732 32.1315C254.358 30.93 255.159 29.7622 256.142 28.6547C257.394 27.2452 258.822 26.1176 260.404 25.2585C261.986 24.4061 263.38 24.0168 264.592 24.0839C265.373 24.1309 266.026 24.4128 266.551 24.9229C266.915 25.2921 267.069 25.8491 267.016 26.6009C266.948 27.4533 266.605 28.3862 265.972 29.3997C265.339 30.4132 264.477 31.3395 263.373 32.1785C262.269 33.0242 261.044 33.6282 259.69 33.9974C259.522 34.0578 259.293 34.0779 259.003 34.0645C258.552 34.0377 258.202 33.8564 257.946 33.5141C257.691 33.1718 257.576 32.796 257.603 32.3865C257.63 32.0107 257.771 31.6952 258.027 31.4334C258.29 31.1717 258.66 31.0576 259.145 31.0844C260.606 31.165 261.851 30.9905 262.888 30.5542C263.925 30.1179 264.713 29.5474 265.238 28.8426C265.763 28.1379 266.053 27.4264 266.107 26.7016C266.154 26.0841 266.006 25.5807 265.676 25.178C265.433 24.8893 265.117 24.7283 264.726 24.7081C264.04 24.6679 263.225 24.9699 262.276 25.6209C261.333 26.272 260.33 27.1311 259.333 28.2117C258.525 29.0843 257.852 30.0374 257.32 31.0374C256.782 32.0375 256.485 33.004 256.431 33.9236C256.378 34.7424 256.539 35.5008 256.916 36.1653C257.421 37.0513 258.216 37.5278 259.246 37.5815C260.37 37.6487 261.724 37.2258 263.306 36.3264C264.888 35.427 266.591 34.1383 268.409 32.4671C268.517 32.5946 268.571 32.6617 268.679 32.7959C267.029 34.7894 265.056 36.5479 262.767 38.0782C260.478 39.6085 258.465 40.3267 256.701 40.226C255.772 40.1723 254.984 39.8904 254.344 39.3736C253.146 38.4138 252.594 37.1318 252.688 35.5277H252.701Z" fill="var(--fill-0, white)"/>
<path id="Vector_11" d="M269.5 37.85C269.608 36.4808 270.712 34.9706 272.833 33.3262C273.19 33.0376 273.365 32.8966 273.722 32.6147C274.974 31.6348 275.977 30.8092 276.724 30.138C277.472 29.4669 278.071 28.7889 278.522 28.0976C278.67 27.8694 278.765 27.6144 278.785 27.3392C278.825 26.8626 278.657 26.4331 278.28 26.0639C277.903 25.6948 277.485 25.4934 277.027 25.4599C276.765 25.4397 276.516 25.5135 276.273 25.6679C275.391 26.3995 274.173 27.4868 272.631 28.9299C271.089 30.373 269.668 31.7757 268.362 33.1383C268.254 32.9839 268.207 32.9101 268.1 32.7624C270.9 29.8226 272.314 28.3594 275.162 25.4397C275.412 25.1847 275.56 24.8491 275.593 24.4396C275.614 24.198 275.539 23.6879 275.425 22.9295C275.263 21.9025 275.23 21.1441 275.263 20.7011C275.311 20.1575 275.546 19.7212 275.964 19.4057C276.388 19.0903 276.846 18.9493 277.337 18.9829C277.795 19.0164 278.185 19.1977 278.509 19.5265C278.825 19.8554 278.96 20.3521 278.899 20.9964C278.872 21.2716 278.724 21.6475 278.502 22.1039C278.206 22.7214 278.017 23.2718 277.97 23.6678C277.943 23.896 278.031 24.1443 278.206 24.3792C278.381 24.6142 278.65 24.9095 279.02 25.2384C279.525 25.6881 279.929 26.1042 280.192 26.4801C280.454 26.8626 280.562 27.2922 280.515 27.7687C280.421 28.7957 279.997 29.7622 279.243 30.6683C278.488 31.5811 277.425 32.6214 276.058 33.796C275.176 34.5612 274.536 35.1585 274.126 35.6015C273.715 36.0378 273.493 36.4472 273.466 36.8231C273.446 37.0647 273.493 37.2526 273.614 37.4003C273.93 37.8366 274.348 38.0715 274.866 38.1051C276.63 38.2259 279.66 36.219 284.043 32.1046C284.171 32.1785 284.238 32.212 284.366 32.2858C282.084 34.937 279.842 37.0647 277.627 38.6621C275.412 40.2596 273.594 41.0113 272.153 40.9173C271.352 40.8637 270.705 40.5281 270.207 39.9106C269.682 39.2595 269.446 38.5749 269.5 37.8567V37.85Z" fill="var(--fill-0, white)"/>
<path id="Vector_12" d="M279.445 39.5079C279.512 38.7897 279.808 38.0044 280.347 37.1453C280.879 36.2862 281.613 35.2592 282.535 34.0511C282.824 33.6618 282.973 33.4672 283.262 33.0711C283.444 32.8429 283.653 32.5678 283.882 32.2389C284.11 31.91 284.373 31.5341 284.676 31.1113C286.332 28.8628 287.47 27.366 288.069 26.621C288.48 26.1378 289.012 25.9163 289.665 25.97C290.089 26.0035 290.433 26.1579 290.702 26.4398C290.971 26.7217 291.079 27.064 291.039 27.4734C290.991 27.9164 290.783 28.3661 290.406 28.8158C290.109 29.1715 289.214 29.9434 287.76 31.1381C286.157 32.4537 284.912 33.5813 284.03 34.4941C283.141 35.4069 282.67 36.2459 282.596 36.9909C282.555 37.4003 282.67 37.7695 282.925 38.0984C283.242 38.5011 283.673 38.7226 284.218 38.7628C285.982 38.8971 288.776 37.1654 292.655 33.588C292.782 33.6618 292.85 33.6954 292.978 33.7692C290.897 36.1116 288.763 38.0514 286.568 39.5884C284.373 41.1254 282.629 41.8436 281.316 41.7496C280.643 41.7027 280.145 41.414 279.801 40.9174C279.525 40.5214 279.397 40.0448 279.451 39.5011L279.445 39.5079ZM293.099 19.8152C293.604 19.5601 294.089 19.4527 294.553 19.493C294.95 19.5265 295.301 19.6742 295.604 19.9427C296.088 20.3588 296.29 20.9629 296.203 21.7482C296.122 22.4999 295.792 23.2114 295.226 23.8893C294.843 24.3725 294.398 24.735 293.9 24.9699C293.395 25.2048 292.917 25.3055 292.459 25.2652C292.102 25.2384 291.752 25.1041 291.409 24.8692C290.958 24.4531 290.769 23.8557 290.85 23.0704C290.931 22.2851 291.247 21.567 291.766 20.9226C292.15 20.4461 292.594 20.0702 293.099 19.8152Z" fill="var(--fill-0, white)"/>
<path id="Vector_13" d="M296.162 40.2932C296.277 39.3065 296.775 38.2863 297.677 37.2392C298.579 36.1989 299.832 34.9505 301.441 33.5074C302.464 32.5946 303.225 31.8899 303.71 31.3798C304.195 30.8697 304.464 30.4468 304.504 30.1045C304.525 29.9367 304.491 29.7957 304.41 29.6816C304.201 29.4937 303.999 29.3863 303.804 29.3662C302.532 29.2521 300.014 30.9972 296.31 34.6149C295.543 35.3465 294.015 36.9036 291.746 39.2998C290.978 40.1052 290.594 40.5079 289.833 41.3134C289.362 41.8302 288.85 42.0584 288.305 42.0181C287.921 41.9845 287.598 41.8167 287.342 41.5013C287.086 41.1858 286.972 40.8301 287.019 40.4207C287.059 40.0112 287.248 39.6152 287.578 39.226C287.726 39.0313 288.278 38.387 289.234 37.2929C290.857 35.4606 292.035 34.0914 292.749 33.1852C293.739 31.9301 294.695 30.6414 295.624 29.3393C296.108 28.6749 296.351 28.346 296.842 27.6815C297.455 26.9029 298.122 26.5472 298.842 26.6076C299.233 26.6412 299.549 26.7888 299.778 27.0506C300.014 27.3123 300.108 27.6479 300.061 28.0574C300.014 28.4668 299.751 28.95 299.307 29.4937C298.923 29.9702 298.398 30.4871 297.731 31.0173C297.065 31.5475 296.661 31.8764 296.512 31.9972C294.998 33.2457 293.914 34.2457 293.24 34.984C292.277 36.0445 291.611 36.8164 291.234 37.2996C290.857 37.7829 290.756 38.1252 290.931 38.3064C291.072 38.4541 291.449 38.2594 292.042 37.7225C292.634 37.1855 293.57 36.2794 294.849 35.0042C295.705 34.1451 296.135 33.7155 296.997 32.8564C298.943 30.9502 300.653 29.4736 302.114 28.4064C303.575 27.3459 304.814 26.8626 305.824 26.9499C306.376 26.9969 306.827 27.2318 307.177 27.6412C307.521 28.0506 307.662 28.5473 307.588 29.1246C307.494 29.9098 307.07 30.7757 306.329 31.7288C305.588 32.6819 304.545 33.8699 303.198 35.2525C302.209 36.266 301.427 37.1117 300.889 37.7896C300.35 38.4675 300.061 39.0246 300.007 39.4676C299.98 39.6757 300.041 39.8703 300.182 40.0515C300.377 40.3133 300.7 40.4609 301.151 40.5012C302.081 40.5818 303.4 40.1589 305.11 39.226C306.821 38.293 308.632 36.9708 310.557 35.2525C310.658 35.3867 310.705 35.4539 310.806 35.5881C308.524 37.7896 306.235 39.622 303.925 41.0852C301.616 42.5483 299.771 43.2262 298.364 43.1054C297.63 43.045 297.051 42.7161 296.634 42.1322C296.243 41.5818 296.088 40.9643 296.162 40.2864V40.2932Z" fill="var(--fill-0, white)"/>
<path id="Vector_14" d="M296.667 57.1333C296.782 56.1802 297.26 55.1399 298.108 54.0257C298.957 52.9115 300.074 51.8242 301.454 50.7771C305.07 47.9581 309.204 46.0788 313.836 45.1526C314.55 44.2062 314.907 43.7364 315.62 42.79C316.577 41.5349 317.055 40.9106 318.011 39.6622C316.502 41.0986 315.015 42.2127 313.547 43.0048C312.079 43.7968 310.8 44.1391 309.709 44.0384C309.069 43.978 308.504 43.7162 308.012 43.2598C307.359 42.5416 307.09 41.6892 307.218 40.7026C307.366 39.5414 307.999 38.2662 309.123 36.8701C310.248 35.474 311.688 34.0779 313.452 32.6953C315.102 31.3999 316.758 30.4267 318.421 29.7622C320.084 29.0977 321.471 28.8225 322.582 28.9366C323.269 29.0037 323.747 29.2319 324.037 29.5541C324.38 29.9367 324.555 30.4199 324.474 30.9972C324.791 30.6146 325.047 30.3327 325.242 30.1448C325.511 29.8629 325.821 29.6548 326.151 29.5138C326.487 29.3796 326.804 29.3259 327.093 29.3528C327.484 29.393 327.8 29.5675 328.036 29.8696C328.272 30.1716 328.359 30.5273 328.299 30.9368C328.224 31.4469 327.955 31.9368 327.531 32.4134C327.174 32.8161 326.333 33.5678 325.026 34.6417C323.902 35.5613 322.946 36.3868 322.151 37.1184C321.357 37.85 320.663 38.6017 320.064 39.3669C318.3 41.6758 316.859 43.5014 315.728 44.8371C318.307 44.4679 320.919 44.421 323.545 44.6962C325.976 44.9512 328.278 45.4546 330.44 46.213C330.965 46.4077 331.335 46.6762 331.557 47.0117C331.779 47.3473 331.86 47.7165 331.793 48.1259C331.726 48.5689 331.49 48.9582 331.093 49.2938C330.695 49.6294 330.244 49.7704 329.739 49.7167C329.484 49.6898 329.221 49.6093 328.952 49.475C324.986 47.4883 321.417 46.3406 318.287 46.0251C317.102 45.9043 315.937 45.8976 314.792 45.9915C311.062 50.7167 304.538 59.6301 298.781 60.1335C298.31 60.1738 297.65 59.7912 297.219 59.2744C296.748 58.6972 296.566 57.979 296.661 57.1601L296.667 57.1333ZM300.976 57.046C302.929 57.2205 306.349 54.2673 311.385 48.2266C312.039 47.4011 312.368 46.9849 313.022 46.1593C309.595 46.8305 306.046 48.5689 302.39 51.3812C301.683 51.9383 301.044 52.5625 300.478 53.2538C299.913 53.9451 299.596 54.5828 299.529 55.16C299.461 55.7037 299.643 56.2071 300.061 56.6568C300.317 56.885 300.62 57.0192 300.97 57.046H300.976ZM312.934 41.3872C313.836 41.4744 314.994 41.0113 316.422 39.9911C317.849 38.9776 319.276 37.7292 320.697 36.2459C321.303 35.4472 321.922 34.5411 322.562 33.5343C322.811 33.1651 322.939 32.9839 323.188 32.6147C323.336 32.2523 323.431 31.9503 323.464 31.7086C323.525 31.2992 323.451 30.9837 323.256 30.7555C322.912 30.4065 322.475 30.2119 321.949 30.1582C320.838 30.0441 319.478 30.4602 317.863 31.4066C316.247 32.353 314.813 33.5343 313.56 34.9505C312.308 36.3667 311.608 37.6688 311.446 38.8635C311.345 39.6152 311.46 40.2395 311.789 40.7093C312.079 41.112 312.469 41.3402 312.921 41.3872H312.934Z" fill="var(--fill-0, white)"/>
<path id="Vector_15" d="M37.0397 42.5685C37.0128 41.5818 37.3427 40.5415 38.0227 39.4407C38.7027 38.34 39.6992 36.9775 41.0256 35.3599C41.8133 34.4269 42.4125 33.6752 42.8232 33.0846C43.234 32.5006 43.4359 32.0375 43.4292 31.7019C43.4292 31.5341 43.3753 31.3999 43.2744 31.2992C43.1397 31.165 42.9781 31.0979 42.7829 31.1046C42.426 31.1046 41.9614 31.3663 41.3891 31.8697C40.8168 32.3731 40.0358 33.1584 39.0596 34.2323C36.9118 36.615 34.3667 39.9307 31.4716 44.186C31.0137 44.8438 30.4482 45.1794 29.7816 45.1995C29.3709 45.213 29.0073 45.0854 28.6909 44.817C28.3812 44.5552 28.2128 44.2196 28.1994 43.8102C28.1859 43.5014 28.2734 43.1793 28.4552 42.837C28.7851 42.1121 29.115 41.4946 29.4517 40.9778C29.7883 40.4609 30.603 39.2327 31.9092 37.2996C33.2221 35.3666 35.1747 32.4469 37.8207 28.554C38.6354 27.3325 39.0394 26.7284 39.8608 25.5068C40.3994 24.7148 41.6315 22.916 43.5706 20.1172C45.5164 17.3183 46.8765 15.4726 47.6238 14.5799C48.1826 13.9624 48.7886 13.6469 49.4484 13.6402C49.8793 13.6402 50.2362 13.7677 50.519 14.0362C50.8017 14.3047 50.9431 14.6604 50.9499 15.1034C50.9499 15.6471 50.7613 16.1773 50.3641 16.6874C50.1688 16.9626 49.5292 17.6002 48.452 18.5936C48.1557 18.9023 47.4016 19.6675 46.183 20.8891C44.9643 22.1106 43.7255 23.4329 42.4597 24.8424C41.1939 26.2586 40.0426 27.6547 38.999 29.0306C38.8374 29.2387 37.6928 30.8361 35.5854 33.8363C33.478 36.8365 32.4613 38.8836 32.495 39.971C32.5017 40.2059 32.569 40.3267 32.697 40.32C32.9528 40.32 33.3972 39.9307 34.0368 39.1655C34.6764 38.4071 35.4709 37.3533 36.4405 36.0579C37.4235 34.7491 38.1169 33.8833 38.4603 33.4671C39.9752 31.6751 41.1737 30.3797 42.0557 29.581C42.931 28.7822 43.7322 28.3795 44.4459 28.3728C44.9643 28.3661 45.4424 28.5675 45.8665 28.9635C46.1897 29.2655 46.3648 29.6682 46.3715 30.1783C46.3782 30.8898 46.1089 31.7355 45.5501 32.7154C44.998 33.6886 44.2035 34.9035 43.207 36.3466C42.3587 37.5748 41.7258 38.5682 41.3083 39.3065C40.8909 40.0448 40.6822 40.6489 40.6957 41.1254C40.6957 41.3603 40.7832 41.5684 40.9448 41.7362C41.1737 41.9711 41.5103 42.0852 41.9614 42.0785C42.9175 42.0651 44.1564 41.5147 45.678 40.4408C47.1996 39.3669 48.7751 37.9037 50.4045 36.0512C50.5594 36.1318 50.6402 36.172 50.795 36.2526C48.8155 38.7159 46.7822 40.8167 44.6815 42.5483C42.5809 44.28 40.8572 45.1593 39.4905 45.1861C38.7902 45.1995 38.2112 44.9579 37.7534 44.4545C37.2955 43.9511 37.0531 43.3336 37.0397 42.5819V42.5685Z" fill="var(--fill-0, white)"/>
<path id="Vector_16" d="M49.0983 40.5415C49.0849 39.4877 49.3474 38.3467 49.8861 37.1184C50.4247 35.8901 51.1384 34.682 52.0339 33.5276C53.1785 32.0577 54.5183 30.8495 56.0265 29.9031C57.5347 28.9568 58.8947 28.4869 60.0932 28.4802C60.8742 28.4802 61.534 28.7151 62.0861 29.185C62.4699 29.5273 62.6651 30.0709 62.6584 30.8159C62.6584 31.6684 62.3689 32.608 61.8168 33.6484C61.258 34.6887 60.4635 35.6552 59.4333 36.5613C58.4032 37.4674 57.2249 38.1453 55.912 38.595C55.7504 38.6622 55.5283 38.7024 55.2387 38.7024C54.7876 38.7024 54.4308 38.5481 54.1547 38.2259C53.8787 37.9037 53.744 37.5413 53.744 37.1318C53.744 36.756 53.8652 36.4338 54.1009 36.1586C54.3433 35.8834 54.7068 35.7492 55.1849 35.7425C56.6324 35.7358 57.8578 35.4807 58.8543 34.984C59.8575 34.4874 60.5914 33.8766 61.0627 33.1383C61.534 32.4067 61.7764 31.6818 61.7764 30.9703C61.7764 30.3595 61.6013 29.8696 61.2512 29.4937C60.9954 29.2252 60.6722 29.091 60.2817 29.091C59.6017 29.091 58.8072 29.4467 57.9184 30.1448C57.023 30.8428 56.0938 31.7623 55.1781 32.8899C54.4308 33.8027 53.8316 34.7827 53.3737 35.8096C52.9091 36.8298 52.6802 37.803 52.687 38.7226C52.687 39.5414 52.9024 40.2797 53.3199 40.9106C53.8854 41.7496 54.7001 42.1725 55.7235 42.1658C56.8412 42.1591 58.1473 41.6557 59.6623 40.669C61.1704 39.6757 62.7661 38.2997 64.4561 36.5278C64.5705 36.6486 64.6311 36.709 64.7456 36.8365C63.2442 38.9105 61.4128 40.7697 59.2515 42.4275C57.0903 44.0854 55.1445 44.9176 53.3939 44.9378C52.4715 44.9445 51.6703 44.7163 51.0037 44.2465C49.7514 43.3739 49.1185 42.1456 49.1051 40.5482L49.0983 40.5415Z" fill="var(--fill-0, white)"/>
<path id="Vector_17" d="M17.8307 50.0523C17.5479 50.106 17.3729 50.0053 17.2988 49.7368C17.2517 49.569 17.2651 49.3945 17.3459 49.2066C19.8304 42.5483 22.3821 35.8901 25.3918 29.4199C28.0513 23.7013 31.1215 17.9157 34.5148 12.4455C32.8518 12.7408 31.0676 12.8482 29.1555 12.7744C27.2433 12.7005 24.9205 12.4925 22.2206 12.2173C19.3995 11.9287 17.1035 11.7877 15.4069 11.7407C13.7102 11.6938 12.1077 11.8213 10.5996 12.1099C8.76821 12.4656 7.26677 13.11 6.11544 14.0295C4.715 15.1437 3.79259 16.5532 3.38188 18.2647C2.97117 19.9695 3.1193 21.8757 3.78586 23.9765C4.18983 25.2518 4.89005 26.3525 5.87979 27.2519C6.86953 28.1513 7.99392 28.8024 9.23951 29.2051C10.4851 29.6011 11.6903 29.6884 12.8416 29.4669C14.572 29.1313 15.8176 28.0842 16.5918 26.3324C17.3661 24.5806 17.3257 22.1173 16.4639 18.9359C16.3023 18.3385 16.3293 17.8486 16.5514 17.4593C16.7736 17.07 17.0901 16.8351 17.5143 16.7545C17.9384 16.674 18.3357 16.7679 18.7127 17.023C19.0898 17.2848 19.3523 17.6942 19.5005 18.258C19.5678 18.5265 19.6082 18.7278 19.6082 18.8621C19.8842 22.1845 19.2715 24.8424 17.7903 26.8358C16.3023 28.8292 14.3565 30.0575 11.9259 30.5341C10.3235 30.8495 8.72108 30.816 7.10518 30.4401C5.48928 30.0642 4.0619 29.3662 2.82978 28.3393C1.59766 27.3123 0.742582 26.0237 0.291477 24.4732C-0.240423 22.661 -0.0451704 20.8286 0.883971 18.9762C1.81311 17.1304 3.28089 15.3652 5.2469 13.6805C7.72461 11.5662 10.714 10.15 14.1882 9.49226C16.6188 9.02914 19.0224 8.91503 21.3991 9.12981C23.7759 9.35131 26.6441 9.74731 29.8153 10.4118C32.2122 10.9152 34.0503 11.2575 35.2555 11.3179C36.0163 11.3582 36.7165 11.3179 37.3696 11.2105C39.4231 10.8548 41.5171 9.95537 43.6649 8.51903C43.9005 8.37808 44.1227 8.28412 44.318 8.25056C44.7085 8.18344 45.0518 8.26398 45.3414 8.49219C45.6309 8.72039 45.8194 9.01571 45.9069 9.38487C46.0012 9.78758 45.9271 10.1769 45.6982 10.5595C45.4626 10.942 45.0586 11.2776 44.5132 11.4857C43.9476 11.7005 43.308 11.8414 42.6886 11.9488C41.746 12.1099 40.7495 12.1972 39.6992 12.2039C38.6488 12.2106 38.0362 12.2173 37.8678 12.2039C37.1541 12.2039 36.7973 12.2039 36.0836 12.2039C33.2154 16.7612 30.7983 21.6744 28.8592 26.9096C26.4219 33.5007 24.4693 40.2327 22.7525 46.9849C22.6313 47.495 22.1667 47.8306 21.352 47.985C21.2241 48.0118 20.9278 48.0588 20.4565 48.1326C19.9852 48.2065 19.5745 48.3541 19.2244 48.5823C18.8743 48.8106 18.6117 49.126 18.4367 49.5489C18.3155 49.8173 18.1135 49.9784 17.8307 50.0321V50.0523Z" fill="var(--fill-0, white)"/>
</g>
</svg>
