<svg preserveAspectRatio="xMidYMid meet" width="355" height="154" overflow="visible" style="display: block;" viewBox="0 0 355 154" fill="none" xmlns="http://www.w3.org/2000/svg">
<g id="hero-logo">
<path d="M21.3028 4.3356C21.3028 2.27209 20.7707 1.891 19.2968 1.07853V0.826903H26.1273V1.07853C24.6533 1.891 24.15 2.27209 24.15 4.3356V16.1487C24.15 20.5346 21.0799 23.0726 16.9457 23.0726C12.8115 23.0726 10.0218 20.664 10.0218 17.5579C10.0218 15.6814 11.3375 14.4591 12.9696 14.4591C13.6311 14.4591 14.1632 14.646 14.5083 14.9624C13.6023 15.5591 12.9409 16.4003 12.9409 18.0037C12.9409 20.2613 14.573 21.8575 16.9529 21.8575C20.0517 21.8575 21.31 19.5423 21.31 15.9977V4.3428L21.3028 4.3356Z" fill="var(--fill-0, #1E1E1E)"/>
<path d="M33.5613 1.07853V0.826903H40.3918V1.07853C38.9178 1.891 38.3858 2.27209 38.3858 4.3356V19.2476C38.3858 21.3183 38.9178 21.6922 40.3918 22.5046V22.7562H33.5613V22.5046C35.0352 21.6922 35.5385 21.3111 35.5385 19.2476V4.3356C35.5385 2.27209 35.0352 1.891 33.5613 1.07853Z" fill="var(--fill-0, #1E1E1E)"/>
<path d="M63.7017 4.08393C63.9821 3.45841 64.0468 3.3002 64.0468 2.89038C64.0468 2.2289 63.4213 1.82629 62.0408 1.07134V0.819668H67.9294V1.07134C66.5489 2.04199 66.1103 2.50933 65.2331 4.3931L56.713 23.0654H56.5549L48.0348 4.3931C47.1863 2.51652 46.7478 2.04199 45.3745 1.07134V0.819668H52.2049V1.07134C50.9179 1.63216 50.5153 2.0132 50.5153 2.66749C50.5153 3.07732 50.6735 3.38648 50.9251 4.01201L57.3457 18.4207L63.7017 4.07674V4.08393Z" fill="var(--fill-0, #1E1E1E)"/>
<path d="M73.1643 22.7562H67.2757V22.5046C68.6562 21.534 69.1882 21.0666 70.0654 19.1828L78.8372 0.452993H78.9953L87.7671 19.1828C88.673 21.0594 89.0541 21.534 90.4273 22.5046V22.7562H83.5969V22.5046C84.9127 21.9438 85.3225 21.5627 85.3225 20.9084C85.3225 20.4986 85.2002 20.1894 84.8839 19.5639L83.0073 15.5231H73.3584L71.5393 19.5352C71.2589 20.1319 71.1655 20.477 71.1655 20.8509C71.1655 21.5124 71.791 21.8503 73.1715 22.5118V22.7634L73.1643 22.7562ZM73.948 14.2362H82.4034L78.1469 5.05458L73.948 14.2362Z" fill="var(--fill-0, #1E1E1E)"/>
<path d="M115.045 0.826903H120.466V1.07853C118.992 1.891 118.496 2.27209 118.496 4.3356V19.2476C118.496 21.3183 118.999 21.6922 120.466 22.5046V22.7562H113.672V22.5046C115.146 21.6922 115.642 21.3111 115.642 19.2476V2.83288L106.963 23.1014H106.834L98.0623 2.83288V19.2188C98.0623 21.2823 98.9107 21.6922 100.413 22.5046V22.7562H94.2085V22.5046C95.6824 21.6922 96.5308 21.2823 96.5308 19.2188V4.3356C96.5308 2.27209 96.0275 1.891 94.5536 1.07853V0.826903H100.413L107.841 17.9606L115.045 0.826903Z" fill="var(--fill-0, #1E1E1E)"/>
<path d="M142.748 1.07853V0.826903H148.982V1.07853C147.508 1.891 146.696 2.30083 146.696 4.36435V14.3584C146.696 20.0888 143.065 23.0654 138.082 23.0654C131.877 23.0654 128.994 19.6502 128.994 14.3584V4.3356C128.994 2.27209 128.462 1.891 126.988 1.07853V0.826903H133.847V1.07853C132.373 1.891 131.841 2.27209 131.841 4.3356V13.9845C131.841 18.9312 134.257 21.4117 138.262 21.4117C142.267 21.4117 145.121 19.2188 145.121 14.0204V4.37154C145.121 2.30084 144.244 1.89819 142.741 1.08573L142.748 1.07853Z" fill="var(--fill-0, #1E1E1E)"/>
<path d="M155.223 22.7562V22.5046C156.697 21.6922 157.2 21.3111 157.2 19.2476V4.3356C157.2 2.27209 156.697 1.891 155.223 1.07853V0.826903H162.053V1.07853C160.58 1.891 160.047 2.27209 160.047 4.3356V12.4459L169.603 3.55188C170.041 3.11329 170.228 2.76818 170.228 2.39431C170.228 1.89101 169.668 1.54588 168.884 1.07853V0.826903H175.369V1.07853C173.299 2.04918 172.047 2.95513 170.574 4.3356L164.556 9.91501L172.45 19.2476C173.795 20.815 175.017 21.9079 176.369 22.5046V22.7562H169.416V22.5046C169.948 22.1883 170.387 21.9438 170.387 21.4693C170.387 21.0307 170.171 20.7503 169.632 20.06L162.521 11.7269L160.047 13.9486V19.2404C160.047 21.3111 160.58 21.685 162.053 22.4974V22.7491H155.223V22.7562Z" fill="var(--fill-0, #1E1E1E)"/>
<path d="M197.219 0.826843C198.161 0.826843 198.628 0.733367 199.096 0.639897L200.131 6.52847H199.85C198.031 3.80348 197.003 1.98441 194.084 1.98441H190.985V19.2116C190.985 21.2751 191.546 21.6849 193.272 22.4974V22.749H185.88V22.4974C187.606 21.6849 188.138 21.2751 188.138 19.2116V1.98441H185.068C182.12 1.98441 181.092 3.80348 179.273 6.52847H178.992L180.028 0.639897C180.495 0.733367 180.97 0.826843 181.904 0.826843H197.226H197.219Z" fill="var(--fill-0, #1E1E1E)"/>
<path d="M206.531 1.07853V0.826903H213.361V1.07853C211.887 1.891 211.355 2.27209 211.355 4.3356V19.2476C211.355 21.3183 211.887 21.6922 213.361 22.5046V22.7562H206.531V22.5046C208.004 21.6922 208.501 21.3111 208.501 19.2476V4.3356C208.501 2.27209 207.997 1.891 206.531 1.07853Z" fill="var(--fill-0, #1E1E1E)"/>
<path d="M247.347 3.92573C247.692 3.42243 247.786 2.95508 247.786 2.70343C247.786 2.10667 247.189 1.70406 246.19 1.07134V0.819668H251.704V1.07134C250.453 2.01323 249.828 2.70344 248.792 4.32837L242.904 13.6034V19.2403C242.904 21.311 243.436 21.6849 245.161 22.4974V22.749H237.828V22.4974C239.553 21.6849 240.085 21.3038 240.085 19.2403V13.6034L234.197 4.32837C233.161 2.69625 232.565 2.01323 231.285 1.07134V0.819668H237.677V1.07134C236.864 1.57464 236.641 1.94852 236.641 2.50933C236.641 2.97668 236.764 3.41524 237.109 3.91853L242.249 12.0648L247.354 3.91853L247.347 3.92573Z" fill="var(--fill-0, #1E1E1E)"/>
<path d="M267.559 0.510571C273.821 0.510571 278.43 5.2128 278.43 11.7916C278.43 18.3704 273.829 23.0654 267.559 23.0654C261.289 23.0654 256.688 18.3632 256.688 11.7916C256.688 5.21999 261.289 0.510571 267.559 0.510571ZM267.559 1.92701C262.799 1.92701 259.916 5.87428 259.916 11.7916C259.916 17.7089 262.799 21.6562 267.559 21.6562C272.319 21.6562 275.202 17.7089 275.202 11.7916C275.202 5.87428 272.319 1.92701 267.559 1.92701Z" fill="var(--fill-0, #1E1E1E)"/>
<path d="M301.826 15.8036C301.826 13.7329 301.294 13.395 299.82 12.5465V12.2949H306.679V12.5465C305.177 13.395 304.645 13.7401 304.645 15.8036V23.0367H303.926L302.265 19.9019C301.042 21.7497 298.54 23.0654 295.47 23.0654C289.143 23.0654 284.506 18.5214 284.506 11.9138C284.506 5.30626 289.33 0.510571 295.938 0.510571C298.476 0.510571 300.446 1.29429 301.733 2.23618L303.422 0.510571H303.645V7.06061H303.394C301.61 4.11273 299.54 1.86229 296.096 1.86229C291.149 1.86229 287.763 5.90302 287.763 11.8203C287.763 17.7377 291.178 21.4046 296.218 21.4046C298.504 21.4046 300.446 20.6209 301.826 18.7443V15.7964V15.8036Z" fill="var(--fill-0, #1E1E1E)"/>
<path d="M316.709 22.7562H310.82V22.5046C312.201 21.534 312.733 21.0666 313.61 19.1828L322.382 0.452993H322.54L331.311 19.1828C332.217 21.0594 332.599 21.534 333.972 22.5046V22.7562H327.141V22.5046C328.457 21.9438 328.867 21.5627 328.867 20.9084C328.867 20.4986 328.738 20.1894 328.428 19.5639L326.552 15.5231H316.903L315.084 19.5352C314.803 20.1319 314.71 20.477 314.71 20.8509C314.71 21.5124 315.335 21.8503 316.716 22.5118V22.7634L316.709 22.7562ZM317.492 14.2362H325.948L321.691 5.05458L317.492 14.2362Z" fill="var(--fill-0, #1E1E1E)"/>
<path d="M344.117 4.42903C344.117 6.86643 342.133 8.85802 339.681 8.85802C337.229 8.85802 335.245 6.86643 335.245 4.42903C335.245 1.99164 337.244 0 339.681 0C342.118 0 344.117 1.97007 344.117 4.42903ZM343.743 4.42903C343.743 2.2361 341.881 0.352344 339.674 0.352344C337.466 0.352344 335.619 2.2361 335.619 4.42903C335.619 6.62197 337.481 8.50572 339.674 8.50572C341.867 8.50572 343.743 6.60759 343.743 4.42903ZM337.675 1.89096L339.242 1.82628C340.314 1.78314 341.169 2.03476 341.169 3.01259C341.169 3.99042 340.58 4.26366 339.825 4.33556C340.335 4.3787 340.925 4.8245 341.011 5.65853C341.119 6.73702 341.443 6.72983 342.09 6.72983L342.025 6.93112C340.709 7.26905 340.263 6.72983 340.12 6.14744C339.99 5.61539 340.271 4.57283 339.293 4.3787C339.156 4.34994 339.005 4.3787 339.005 4.3787V6.52849C339.005 6.63634 339.005 6.67949 339.048 6.67949L339.444 6.72983V6.93112H337.675V6.72983L338.042 6.67949C338.106 6.67949 338.106 6.63634 338.106 6.52849V2.2936C338.106 2.17856 338.106 2.14264 338.042 2.14264L337.675 2.07791V1.88381V1.89096ZM339.005 4.14142H339.156C340.069 4.14142 340.271 3.60217 340.271 3.06293C340.271 2.03476 339.437 1.91974 339.012 2.04916V4.14862L339.005 4.14142Z" fill="var(--fill-0, #1E1E1E)"/>
<path d="M86.7781 80.1321C86.4689 80.1537 86.2963 80.0243 86.246 79.7295C86.2172 79.5425 86.2532 79.3556 86.361 79.1615C89.8913 72.3238 93.4719 65.5005 97.527 58.9217C101.108 53.1123 105.12 47.2884 109.441 41.8313C107.629 41.9391 105.709 41.8313 103.682 41.5149C101.654 41.1985 99.1951 40.6808 96.3551 40.0481C93.3856 39.3867 90.9482 38.9481 89.1507 38.6893C87.3461 38.4304 85.6205 38.3657 83.9812 38.4879C81.9824 38.6389 80.2999 39.1494 78.9554 39.9906C77.3161 41.0116 76.1585 42.4136 75.5042 44.1967C74.8499 45.9798 74.7637 48.0433 75.2022 50.3801C75.4683 51.8037 76.0722 53.0691 77.0141 54.162C77.956 55.2549 79.0632 56.0889 80.3431 56.6785C81.6229 57.2609 82.8883 57.5053 84.1465 57.4047C86.0375 57.2609 87.4971 56.2974 88.5468 54.5071C89.5965 52.724 89.8698 50.0709 89.3665 46.5479C89.273 45.8864 89.3664 45.3615 89.6469 44.9733C89.9344 44.585 90.3011 44.3693 90.7685 44.3334C91.2286 44.2974 91.6457 44.4484 92.0124 44.7719C92.379 45.0955 92.6091 45.57 92.6954 46.1955C92.7385 46.4903 92.7457 46.7132 92.7313 46.857C92.5947 50.4592 91.6025 53.2345 89.7619 55.1902C87.9213 57.1458 85.6852 58.2243 83.0249 58.4328C81.2778 58.5694 79.5665 58.3394 77.8985 57.7282C76.2232 57.1243 74.7924 56.1896 73.6133 54.9385C72.4269 53.6803 71.6936 52.192 71.406 50.4736C71.0752 48.4604 71.5138 46.5119 72.7433 44.6497C73.9728 42.7803 75.7559 41.0691 78.071 39.5089C80.9758 37.546 84.3479 36.4028 88.137 36.1296C90.7829 35.9355 93.3641 36.108 95.8734 36.6473C98.3826 37.1793 101.388 37.9631 104.695 39.0775C107.19 39.9187 109.103 40.5155 110.383 40.7312C111.188 40.8678 111.943 40.9181 112.655 40.875C114.898 40.7456 117.242 40.0482 119.722 38.7755C119.996 38.6533 120.24 38.5814 120.449 38.5742C120.873 38.5526 121.232 38.682 121.513 38.9624C121.793 39.2428 121.958 39.588 122.002 39.9906C122.052 40.4292 121.923 40.8462 121.628 41.2273C121.333 41.6155 120.858 41.9175 120.247 42.0757C119.615 42.2339 118.917 42.313 118.241 42.3489C117.213 42.4064 116.135 42.3705 115.013 42.2482C113.891 42.126 113.237 42.0541 113.057 42.0254C112.295 41.9319 111.914 41.8888 111.152 41.8025C107.514 46.3393 104.3 51.3076 101.561 56.6929C98.1094 63.4658 95.1544 70.4544 92.4294 77.4862C92.2352 78.0183 91.6888 78.3202 90.8044 78.3849C90.6678 78.3921 90.3443 78.4137 89.8266 78.4353C89.3089 78.4569 88.856 78.5647 88.4533 78.766C88.0507 78.9674 87.7271 79.2765 87.4827 79.7007C87.3173 79.9739 87.08 80.1249 86.7781 80.1465V80.1321Z" fill="var(--fill-0, #1E1E1E)"/>
<path d="M107.003 74.1213C106.809 72.6545 107.629 70.893 109.491 68.8582C109.8 68.5059 109.958 68.3334 110.267 67.9811C111.368 66.766 112.23 65.7522 112.863 64.9397C113.496 64.1272 113.97 63.322 114.294 62.5239C114.402 62.2579 114.438 61.9775 114.402 61.6827C114.337 61.1722 114.071 60.7408 113.589 60.3956C113.107 60.0577 112.626 59.8996 112.137 59.9283C111.856 59.9427 111.605 60.0506 111.389 60.2519C110.62 61.1506 109.592 62.4664 108.29 64.2136C106.996 65.9607 105.81 67.6431 104.746 69.2681C104.602 69.1243 104.53 69.0524 104.386 68.9014C106.672 65.3999 107.83 63.6455 110.174 60.1512C110.383 59.842 110.454 59.4682 110.404 59.0296C110.375 58.7707 110.181 58.2387 109.894 57.4478C109.498 56.3837 109.29 55.5784 109.232 55.1039C109.16 54.5143 109.311 54.0254 109.685 53.6371C110.059 53.2489 110.512 53.0332 111.037 53.0044C111.526 52.9756 111.979 53.1123 112.388 53.4214C112.798 53.7306 113.043 54.2339 113.129 54.9313C113.165 55.2261 113.093 55.6431 112.964 56.1608C112.791 56.851 112.719 57.4622 112.755 57.8936C112.777 58.1452 112.921 58.3897 113.158 58.6198C113.395 58.8498 113.747 59.123 114.2 59.4178C114.826 59.8277 115.351 60.2087 115.71 60.5826C116.07 60.9493 116.278 61.3951 116.343 61.9056C116.472 63.0056 116.242 64.0913 115.66 65.1626C115.078 66.2339 114.193 67.485 113.014 68.923C112.259 69.8577 111.72 70.5838 111.389 71.1015C111.058 71.6192 110.915 72.0865 110.965 72.4892C111.001 72.748 111.094 72.9421 111.245 73.0787C111.677 73.4957 112.173 73.6899 112.719 73.6539C114.603 73.5389 117.335 70.9936 121.009 66.0254C121.16 66.0829 121.239 66.1117 121.39 66.1692C119.593 69.2968 117.716 71.8565 115.753 73.8625C113.791 75.8613 112.051 76.911 110.512 77.0045C109.656 77.0548 108.901 76.7888 108.233 76.2064C107.528 75.588 107.125 74.8906 107.025 74.1213H107.003Z" fill="var(--fill-0, #1E1E1E)"/>
<path d="M117.831 74.5239C117.737 73.7546 117.874 72.8774 118.241 71.8924C118.607 70.9074 119.139 69.7138 119.844 68.3118C120.06 67.8588 120.167 67.6288 120.39 67.1758C120.534 66.9098 120.685 66.5862 120.85 66.2051C121.016 65.8241 121.21 65.3927 121.433 64.8966C122.67 62.2794 123.525 60.5395 123.992 59.6623C124.316 59.0943 124.827 58.7923 125.524 58.7564C125.977 58.7348 126.372 58.8498 126.717 59.1159C127.063 59.3747 127.257 59.727 127.3 60.1656C127.35 60.6401 127.228 61.1506 126.94 61.6827C126.71 62.0997 125.948 63.0416 124.683 64.5083C123.295 66.1261 122.238 67.4921 121.519 68.585C120.793 69.6779 120.484 70.627 120.577 71.4395C120.628 71.878 120.829 72.2591 121.174 72.5683C121.598 72.9493 122.102 73.1291 122.684 73.1003C124.568 72.9997 127.106 70.778 130.37 66.4496C130.521 66.5071 130.6 66.5359 130.751 66.6006C129.097 69.3759 127.293 71.727 125.337 73.6539C123.381 75.5808 121.713 76.5874 120.311 76.6665C119.592 76.7097 119.003 76.4652 118.528 75.9907C118.147 75.6096 117.91 75.1207 117.838 74.5311L117.831 74.5239ZM127.753 51.7462C128.227 51.4082 128.716 51.2285 129.205 51.2069C129.629 51.1854 130.025 51.3004 130.406 51.5377C131.01 51.9187 131.355 52.5299 131.434 53.3711C131.513 54.1764 131.333 54.9816 130.888 55.7797C130.593 56.3477 130.212 56.7863 129.73 57.1099C129.256 57.4262 128.774 57.5988 128.285 57.6203C127.904 57.6419 127.508 57.5484 127.099 57.3471C126.531 56.9661 126.2 56.3549 126.114 55.5137C126.02 54.6725 126.2 53.86 126.595 53.1051C126.89 52.5443 127.271 52.0841 127.746 51.7462H127.753Z" fill="var(--fill-0, #1E1E1E)"/>
<path d="M129.666 71.6264C129.457 69.6419 129.903 67.2045 131.032 64.307C132.161 61.4094 133.714 58.6485 135.705 56.017C136.59 54.8953 137.028 54.3345 137.92 53.2129C139.804 50.7755 141.479 48.7192 142.946 47.0367C144.413 45.3615 145.994 43.8084 147.691 42.392C148.252 41.8959 148.877 41.6371 149.546 41.6083C150.186 41.5867 150.725 41.7809 151.164 42.1907C151.602 42.6005 151.847 43.1038 151.89 43.6862C151.955 44.5346 151.567 45.2248 150.725 45.7713C147.209 47.9498 144.412 49.8911 142.313 51.5951C140.206 53.2991 138.43 55.1613 136.978 57.1745C135.77 58.8498 134.8 60.6832 134.052 62.6677C133.311 64.6593 133.016 66.3848 133.167 67.8588C133.29 69.0739 133.735 70.0374 134.49 70.6773C135.109 71.2022 135.878 71.4466 136.741 71.4106C137.978 71.3603 139.171 70.7204 140.336 69.4909C140.127 68.7647 140.005 68.1967 139.969 67.7941C139.804 66.0685 140.077 63.7677 140.789 60.8989C141.306 59.3315 142.148 58.5982 143.212 58.7563C143.909 58.8642 144.434 59.1662 144.758 59.6119C145.074 60.0649 145.225 60.597 145.211 61.2297C145.096 63.1494 144.506 65.1482 143.449 67.2189C143.334 67.8516 143.291 68.3477 143.327 68.7144C143.413 69.7066 143.823 70.1883 144.542 70.1596C145.261 70.1308 146.181 69.6275 147.31 68.6497C148.432 67.6719 149.431 66.5358 150.294 65.256C150.409 65.407 150.466 65.4789 150.581 65.6371C149.561 67.183 148.338 68.6066 146.893 69.9151C145.455 71.2237 144.19 71.8996 143.09 71.9427C142.744 71.9571 142.385 71.878 142.033 71.7054C141.709 71.5473 141.371 71.2525 141.026 70.857C139.847 72.2735 138.603 73.4095 137.302 74.2795C135.993 75.1494 134.778 75.6096 133.649 75.6599C133.139 75.6815 132.592 75.5808 132.017 75.3507C130.651 74.7468 129.86 73.5173 129.666 71.6407V71.6264Z" fill="var(--fill-0, #1E1E1E)"/>
<path d="M149.036 70.7133C148.935 69.5341 149.115 68.2759 149.575 66.9313C150.035 65.5868 150.747 64.2854 151.624 63.0488C152.753 61.4598 154.09 60.0865 155.65 59.0296C157.211 57.9727 158.641 57.4262 159.928 57.3903C160.906 57.3615 161.675 57.606 162.229 58.1021C162.632 58.4616 162.862 58.9721 162.905 59.6335C162.963 60.5179 162.704 61.5533 162.121 62.7468C161.546 63.9403 160.748 65.0476 159.727 66.0685C158.713 67.0895 157.584 67.8445 156.341 68.319C156.175 68.3981 155.938 68.4412 155.629 68.4484C155.111 68.4628 154.687 68.3046 154.349 67.9595C154.011 67.6216 153.824 67.2261 153.788 66.7875C153.759 66.3849 153.86 66.047 154.097 65.781C154.335 65.5149 154.694 65.3783 155.183 65.3639C156.772 65.3136 158.095 65.0116 159.145 64.4508C160.194 63.89 160.957 63.2141 161.424 62.4304C161.891 61.6467 162.1 60.863 162.049 60.0937C162.006 59.4322 161.762 58.8427 161.309 58.4544C160.978 58.1668 160.561 58.0302 160.18 58.0446C159.447 58.0661 158.613 58.4759 157.678 59.274C156.743 60.0721 155.837 61.0859 154.953 62.2866C154.234 63.2645 153.659 64.3358 153.249 65.4934C152.839 66.6509 152.674 67.7222 152.753 68.7144C152.825 69.6347 153.127 70.3969 153.659 71.008C154.493 71.9427 155.384 72.3885 156.348 72.3597C157.203 72.331 158.102 71.9859 159.03 71.3172C159.964 70.6485 161.143 69.6491 162.567 68.319C164.055 66.9241 165.335 65.8313 166.392 65.0476C167.449 64.2711 168.528 63.775 169.628 63.5665C169.764 63.5305 169.951 63.5017 170.196 63.5017C170.821 63.4873 171.296 63.6455 171.626 63.9691C171.957 64.2926 172.137 64.7168 172.166 65.2273C172.194 65.781 172.029 66.2771 171.655 66.73C171.281 67.1758 170.756 67.4131 170.066 67.4275C168.412 67.4634 166.874 67.7869 165.472 68.4125C164.063 69.038 162.617 69.8792 161.151 70.9505C160.957 71.1015 160.726 71.2741 160.468 71.4682C160.209 71.6623 159.943 71.8708 159.684 72.1009C158.282 73.1722 157.146 73.9775 156.261 74.5239C155.377 75.0632 154.507 75.3508 153.652 75.3795C152.897 75.4011 152.163 75.1854 151.437 74.7324C149.992 73.8193 149.187 72.4892 149.043 70.7205L149.036 70.7133Z" fill="var(--fill-0, #1E1E1E)"/>
<path d="M187.638 64.5515C187.559 62.1644 188.084 59.5545 189.234 56.7432C190.385 53.9248 192.01 51.1422 194.124 48.3813C197.323 44.2327 201.04 40.7743 205.261 38.0134C209.481 35.2597 213.371 33.9151 216.88 33.9726C219.137 34.0086 221.057 34.67 222.617 35.957C224.429 37.4526 225.321 39.4154 225.306 41.8025C225.292 43.6072 224.796 45.5053 223.832 47.5041C222.869 49.5029 221.553 51.4298 219.957 53.2705C218.088 55.4202 216.118 57.2106 214.011 58.5766C211.912 59.9427 210.028 60.6186 208.36 60.6042C206.728 60.5898 205.498 59.8564 204.678 58.4184C204.283 57.7138 204.082 56.9589 204.067 56.1536C204.039 54.2411 204.887 52.1129 206.634 49.7761C208.381 47.4394 210.56 45.4046 213.17 43.679C213.63 43.3555 214.126 43.1973 214.658 43.2045C215.19 43.2117 215.622 43.4058 215.959 43.7797C216.297 44.1536 216.463 44.5778 216.463 45.0595C216.463 45.3903 216.369 45.7138 216.175 46.023C215.981 46.3321 215.693 46.591 215.305 46.8067C212.343 48.4532 209.898 50.0493 207.95 51.588C206.001 53.1338 205.045 54.6366 205.067 56.1105C205.067 56.6282 205.261 57.2393 205.663 57.7714C205.994 58.2028 206.541 58.44 207.137 58.4472C208.324 58.4616 209.87 57.7498 211.804 56.319C213.731 54.8954 215.622 53.0979 217.484 50.9697C219.195 49.014 220.619 47.0368 221.726 45.038C222.833 43.0391 223.394 41.3064 223.401 39.8324C223.408 38.5814 222.984 37.6395 222.186 36.9924C221.23 36.2231 220.051 35.7917 218.656 35.7701C216.118 35.727 213.141 36.8558 209.769 39.1638C206.39 41.4789 203.219 44.4484 200.257 48.0146C197.553 51.2717 195.367 54.6294 193.735 58.0877C192.103 61.5461 191.341 64.5587 191.413 67.1327C191.492 69.9296 192.599 71.8205 194.72 72.8127C195.238 73.0716 195.914 73.201 196.734 73.201C198.891 73.201 201.637 72.2232 204.995 70.2675C208.352 68.3118 211.818 65.7954 215.42 62.7253C215.837 62.1429 216.261 61.4958 216.693 60.7912C217.124 60.0794 217.433 59.5832 217.606 59.2884C218.059 58.5982 218.598 58.2603 219.224 58.2675C219.605 58.2675 219.921 58.4113 220.166 58.6701C220.41 58.929 220.532 59.2453 220.525 59.612C220.525 60.3454 220.101 61.0212 219.267 61.6324C218.886 61.9559 218.404 62.2794 217.915 62.603C217.362 62.9697 216.815 63.4227 216.276 63.8684C215.737 64.3214 215.248 64.7959 214.802 65.3064C214.148 66.1045 213.522 66.9889 212.925 67.9523C212.329 68.9158 211.588 70.2243 210.704 71.8637C209.287 74.4952 208.158 76.4509 207.324 77.7307C205.786 80.1034 204.211 82.1812 202.601 83.95C200.99 85.7259 199.106 87.4659 196.964 89.1915C195.641 90.2556 194.174 91.0824 192.549 91.672C190.924 92.2615 189.357 92.5636 187.854 92.5636C186.279 92.5636 184.92 92.24 183.77 91.5641C182.62 90.8883 181.814 89.8601 181.347 88.4653C181.196 88.0267 181.103 87.545 181.081 87.0345C181.009 85.4167 181.663 83.8853 183.044 82.4401C184.424 80.9949 186.186 79.8373 188.321 78.9601C190.457 78.0901 192.549 77.6516 194.591 77.6588C196.396 77.6588 197.905 78.0111 199.113 78.7157C199.84 79.1255 200.206 79.7151 200.221 80.4844C200.228 80.9589 200.084 81.376 199.789 81.7211C199.494 82.0662 199.121 82.2387 198.682 82.2387C198.38 82.2387 197.999 82.0878 197.553 81.793C195.31 80.1321 193.153 79.3053 191.111 79.3053C189.853 79.3053 188.731 79.6144 187.746 80.2256C186.761 80.8367 186.013 81.6276 185.488 82.6054C184.964 83.5833 184.726 84.6258 184.769 85.7259C184.791 86.2436 184.892 86.8116 185.086 87.4371C185.431 88.5372 186.049 89.3784 186.948 89.9679C187.84 90.5503 188.875 90.8451 190.054 90.8379C191.097 90.8379 192.197 90.6007 193.361 90.1405C194.526 89.6804 195.619 89.0045 196.64 88.1849C197.51 87.4874 198.402 86.524 199.257 85.2945C200.106 84.065 201.278 82.2819 202.766 79.938C203.6 78.6222 204.017 77.9607 204.858 76.645C207.461 72.6977 210.157 69.0812 212.94 65.8169C209.704 68.5635 206.792 70.6989 204.175 72.2016C201.558 73.7115 199.178 74.4593 197.021 74.4521C195.892 74.4521 194.828 74.2076 193.822 73.7331C189.867 71.8565 187.796 68.7935 187.653 64.5299L187.638 64.5515Z" fill="var(--fill-0, #1E1E1E)"/>
<path d="M218.368 71.3244C218.368 70.0734 218.864 68.657 219.871 67.0752C220.878 65.4934 222.215 63.89 223.89 62.2723C225.457 60.7624 227.082 59.5832 228.75 58.742C230.419 57.9008 231.849 57.4981 233.036 57.5269C233.769 57.5485 234.308 57.7498 234.646 58.0661C235.056 58.4472 235.308 58.9649 235.301 59.6264C235.696 59.0152 235.926 58.6701 235.998 58.5982C236.393 58.0589 236.918 57.8001 237.587 57.8217C238.04 57.8361 238.443 57.9942 238.78 58.2962C239.118 58.5982 239.291 58.9721 239.277 59.4179C239.262 59.9355 239.061 60.4388 238.665 60.9421C238.414 61.3016 237.982 61.7546 237.386 62.3082C236.782 62.8619 236.379 63.2429 236.163 63.4586C234.574 64.8822 233.33 66.1261 232.432 67.183C231.533 68.2471 231.08 69.1962 231.066 70.0446C231.066 70.3035 231.145 70.5767 231.31 70.8786C231.641 71.4754 232.187 71.7846 232.942 71.8062C233.87 71.8277 235.063 71.3316 236.53 70.3106C237.997 69.2897 239.65 67.7941 241.505 65.8385C241.649 65.9319 241.721 65.9751 241.865 66.0686C239.888 68.7216 237.817 70.9218 235.631 72.6546C233.453 74.3945 231.67 75.243 230.268 75.207C229.549 75.1926 228.945 74.8978 228.484 74.337C228.147 73.9272 227.981 73.4239 227.988 72.8343C227.996 71.9859 228.319 71.0009 228.952 69.8792C227.593 71.3891 226.256 72.5827 224.947 73.4527C223.638 74.3226 222.474 74.754 221.446 74.7324C220.727 74.7181 220.094 74.4664 219.547 73.9775C218.764 73.2657 218.368 72.3742 218.368 71.3101V71.3244ZM224.343 71.5545C225.199 71.5761 226.176 71.08 227.269 70.0734C228.362 69.0668 229.8 67.6 231.598 65.6587C232.087 64.8534 232.331 64.4508 232.827 63.6527C233.338 62.7828 233.597 62.3513 234.114 61.4814C234.337 60.863 234.445 60.3669 234.452 60.0002C234.459 59.4466 234.272 59.0368 234.006 58.7708C233.762 58.5335 233.417 58.3681 232.964 58.3538C231.986 58.325 230.735 58.8283 229.203 59.8564C227.679 60.8846 226.335 62.1213 225.177 63.5665C224.372 64.5443 223.739 65.5006 223.286 66.4496C222.833 67.3987 222.603 68.2759 222.596 69.0811C222.596 69.7786 222.797 70.4113 223.207 70.9649C223.516 71.3388 223.89 71.5329 224.336 71.5401L224.343 71.5545Z" fill="var(--fill-0, #1E1E1E)"/>
<path d="M238.608 72.367C238.644 70.9002 239.255 69.2465 240.463 67.4059C241.671 65.5725 243.31 63.4011 245.403 60.899C246.007 60.1728 246.316 59.8062 246.927 59.08C246.647 59.1087 246.222 59.1734 245.662 59.2813C245.101 59.3891 244.59 59.4395 244.137 59.4179C243.893 59.4107 243.684 59.3172 243.519 59.1519C243.346 58.9793 243.267 58.7636 243.274 58.5119C243.282 58.2172 243.375 57.9799 243.555 57.8073C243.735 57.6276 243.943 57.5485 244.188 57.5557C244.712 57.5773 245.46 57.6707 246.431 57.8577C246.934 57.944 247.179 57.9871 247.682 58.0662C248.12 57.4982 249.256 56.0027 250.989 53.6156C252.549 51.4658 253.736 49.9128 254.433 49.0644C255.145 48.2088 255.936 47.7486 256.82 47.7846C257.316 47.8061 257.712 47.9715 258.021 48.2807C258.323 48.5898 258.467 48.9781 258.445 49.4598C258.416 50.1213 258.035 50.8043 257.302 51.5089C257.079 51.7175 256.425 52.2423 255.339 53.0763C253.017 54.8523 251.119 56.5419 249.63 58.1453C249.875 58.1165 250.342 58.059 251.025 57.9799C251.708 57.8936 252.334 57.8649 252.887 57.8864C253.132 57.8936 253.34 57.9943 253.506 58.1884C253.671 58.3826 253.75 58.6198 253.736 58.9146C253.729 59.1734 253.628 59.382 253.448 59.5401C253.268 59.6983 253.053 59.7702 252.808 59.763C252.248 59.7415 251.406 59.6048 250.313 59.3316C249.623 59.1662 249.12 59.044 248.804 59.0009C248.48 59.382 248.315 59.5761 247.984 59.9643C246.057 62.2795 244.583 64.2711 243.548 65.9248C242.512 67.5785 241.987 68.9589 241.951 70.059C241.937 70.6126 242.081 71.0944 242.376 71.5042C242.67 71.9212 243.131 72.1369 243.749 72.1585C244.712 72.1945 245.942 71.7127 247.459 70.7205C248.976 69.7283 250.68 68.2256 252.6 66.2052C252.744 66.2771 252.815 66.313 252.959 66.3849C250.881 69.0237 248.739 71.231 246.539 72.9997C244.331 74.7756 242.519 75.6456 241.089 75.5953C240.406 75.5737 239.845 75.3149 239.413 74.8259C238.845 74.186 238.572 73.3664 238.601 72.3742L238.608 72.367Z" fill="var(--fill-0, #1E1E1E)"/>
<path d="M256.77 73.3808C256.82 72.3167 257.244 71.2166 258.057 70.0734C258.869 68.9302 260.041 67.5354 261.58 65.8745C262.493 64.9254 263.19 64.1489 263.679 63.5449C264.161 62.941 264.413 62.4593 264.434 62.0926C264.441 61.9056 264.398 61.7618 264.298 61.6468C264.168 61.4958 263.996 61.4095 263.787 61.4023C263.406 61.3807 262.888 61.6252 262.234 62.1285C261.58 62.6318 260.688 63.4299 259.559 64.5156C257.086 66.9386 254.11 70.3466 250.687 74.7325C250.148 75.4083 249.522 75.7319 248.803 75.7103C248.358 75.696 247.976 75.5306 247.66 75.2286C247.344 74.9194 247.193 74.5455 247.207 74.1069C247.222 73.7762 247.329 73.4311 247.552 73.0716C247.955 72.3166 248.358 71.6696 248.753 71.1303C249.148 70.5911 250.112 69.3256 251.665 67.3268C253.211 65.328 255.519 62.3154 258.639 58.2962C259.595 57.038 260.077 56.4053 261.041 55.147C261.673 54.3274 263.126 52.4724 265.412 49.5892C267.698 46.7061 269.287 44.8079 270.157 43.8948C270.797 43.2621 271.473 42.9673 272.185 43.0104C272.645 43.032 273.019 43.2045 273.307 43.5137C273.594 43.8229 273.716 44.2183 273.688 44.6929C273.652 45.2825 273.407 45.8361 272.947 46.3609C272.717 46.6414 271.984 47.2884 270.761 48.2878C270.423 48.6042 269.554 49.3735 268.166 50.6102C266.771 51.8469 265.347 53.1842 263.888 54.6222C262.428 56.0602 261.091 57.491 259.869 58.9074C259.682 59.1231 258.337 60.7696 255.857 63.8613C253.383 66.9529 252.139 69.0956 252.089 70.2675C252.082 70.5264 252.147 70.6558 252.283 70.663C252.556 70.6774 253.067 70.2891 253.8 69.5126C254.541 68.7361 255.468 67.6504 256.604 66.3203C257.755 64.9757 258.56 64.0914 258.963 63.6672C260.717 61.8337 262.098 60.518 263.097 59.7199C264.096 58.9218 264.981 58.5407 265.75 58.5767C266.311 58.6054 266.8 58.8571 267.231 59.3101C267.555 59.6552 267.713 60.1081 267.684 60.6546C267.641 61.4239 267.289 62.3154 266.62 63.3364C265.959 64.3502 265.017 65.6013 263.845 67.0896C262.838 68.355 262.09 69.3903 261.587 70.1525C261.084 70.9218 260.818 71.5617 260.796 72.0722C260.782 72.3311 260.861 72.5539 261.019 72.7481C261.249 73.0141 261.601 73.1579 262.083 73.1867C263.111 73.237 264.477 72.7337 266.196 71.6767C267.907 70.6198 269.705 69.1531 271.588 67.2621C271.746 67.3556 271.833 67.4059 271.991 67.5066C269.683 70.0302 267.346 72.1585 264.966 73.8769C262.586 75.6024 260.674 76.4293 259.2 76.3646C258.445 76.3287 257.848 76.0267 257.388 75.4587C256.935 74.8835 256.727 74.2004 256.763 73.3879L256.77 73.3808Z" fill="var(--fill-0, #1E1E1E)"/>
<path d="M269.855 72.0218C269.92 70.8858 270.287 69.6707 270.956 68.3837C271.624 67.0967 272.48 65.8457 273.53 64.6593C274.867 63.1494 276.391 61.9415 278.081 61.0212C279.77 60.1081 281.259 59.6911 282.553 59.763C283.387 59.8133 284.084 60.1153 284.645 60.6617C285.033 61.0572 285.199 61.6539 285.141 62.4592C285.069 63.3723 284.703 64.3717 284.027 65.4574C283.351 66.5431 282.431 67.5353 281.252 68.4341C280.072 69.34 278.764 69.9871 277.319 70.3825C277.139 70.4472 276.894 70.4688 276.585 70.4544C276.104 70.4257 275.73 70.2315 275.456 69.8648C275.183 69.4982 275.061 69.0955 275.09 68.6569C275.119 68.2543 275.27 67.9163 275.543 67.6359C275.823 67.3555 276.219 67.2333 276.736 67.2621C278.296 67.3484 279.627 67.1614 280.734 66.6941C281.841 66.2267 282.682 65.6156 283.243 64.8606C283.804 64.1057 284.113 63.3435 284.171 62.567C284.221 61.9056 284.063 61.3663 283.711 60.9349C283.452 60.6257 283.114 60.4532 282.697 60.4316C281.963 60.3885 281.093 60.712 280.08 61.4095C279.073 62.1069 278.002 63.0272 276.938 64.1848C276.075 65.1195 275.356 66.1405 274.788 67.2118C274.213 68.2831 273.896 69.3184 273.839 70.3034C273.781 71.1806 273.954 71.9931 274.356 72.7049C274.896 73.654 275.744 74.1644 276.844 74.222C278.045 74.2939 279.49 73.8409 281.18 72.8774C282.869 71.914 284.688 70.5335 286.63 68.7432C286.745 68.8798 286.802 68.9517 286.917 69.0955C285.156 71.2309 283.049 73.1147 280.604 74.754C278.16 76.3933 276.01 77.1626 274.126 77.0548C273.134 76.9973 272.293 76.6953 271.61 76.1417C270.33 75.1135 269.74 73.7402 269.841 72.0218H269.855Z" fill="var(--fill-0, #1E1E1E)"/>
<path d="M287.801 74.5095C287.916 73.0428 289.096 71.4251 291.36 69.6635C291.741 69.3543 291.928 69.2034 292.309 68.9014C293.647 67.8517 294.718 66.9673 295.516 66.2483C296.314 65.5293 296.954 64.8031 297.436 64.0626C297.594 63.8181 297.695 63.5449 297.716 63.2501C297.759 62.7396 297.58 62.2794 297.177 61.884C296.774 61.4885 296.329 61.2729 295.84 61.2369C295.559 61.2153 295.293 61.2944 295.034 61.4598C294.093 62.2435 292.791 63.4083 291.145 64.9541C289.498 66.4999 287.981 68.0027 286.586 69.4622C286.471 69.2969 286.421 69.2178 286.306 69.0596C289.297 65.9104 290.807 64.343 293.848 61.2153C294.114 60.9421 294.272 60.5826 294.308 60.144C294.33 59.8852 294.251 59.3388 294.129 58.5263C293.956 57.4262 293.92 56.6138 293.956 56.1392C294.006 55.5568 294.258 55.0895 294.704 54.7516C295.157 54.4136 295.646 54.2626 296.17 54.2986C296.659 54.3345 297.076 54.5287 297.422 54.881C297.759 55.2333 297.903 55.7653 297.839 56.4556C297.81 56.7504 297.652 57.153 297.414 57.6419C297.098 58.3034 296.897 58.893 296.846 59.3172C296.818 59.5616 296.911 59.8277 297.098 60.0793C297.285 60.331 297.573 60.6473 297.968 60.9996C298.507 61.4814 298.939 61.9271 299.219 62.3298C299.499 62.7396 299.614 63.1998 299.564 63.7103C299.463 64.8103 299.01 65.8457 298.205 66.8163C297.4 67.7942 296.264 68.9086 294.804 70.1668C293.862 70.9865 293.179 71.6264 292.741 72.1009C292.302 72.5683 292.065 73.0069 292.036 73.4095C292.015 73.6683 292.065 73.8696 292.194 74.0278C292.532 74.4952 292.978 74.7468 293.532 74.7828C295.416 74.9122 298.651 72.7624 303.332 68.3549C303.468 68.434 303.54 68.47 303.677 68.5491C301.239 71.3891 298.845 73.6683 296.48 75.3795C294.114 77.0907 292.173 77.896 290.634 77.7953C289.779 77.7378 289.088 77.3783 288.556 76.7169C287.995 76.0194 287.744 75.2861 287.801 74.5167V74.5095Z" fill="var(--fill-0, #1E1E1E)"/>
<path d="M298.414 76.2854C298.486 75.5161 298.802 74.6748 299.378 73.7545C299.946 72.8342 300.729 71.7342 301.714 70.44C302.023 70.0229 302.182 69.8144 302.491 69.3902C302.685 69.1458 302.908 68.851 303.152 68.4987C303.397 68.1464 303.677 67.7437 304.001 67.2908C305.769 64.8821 306.985 63.2788 307.624 62.4807C308.063 61.963 308.631 61.7258 309.328 61.7833C309.781 61.8192 310.148 61.9846 310.436 62.2865C310.723 62.5885 310.838 62.9552 310.795 63.3938C310.745 63.8684 310.522 64.3501 310.119 64.8318C309.803 65.2129 308.847 66.0397 307.294 67.3195C305.582 68.7287 304.252 69.9366 303.31 70.9145C302.361 71.8923 301.858 72.7911 301.779 73.5892C301.736 74.0278 301.858 74.4232 302.131 74.7755C302.469 75.2069 302.929 75.4442 303.512 75.4873C305.396 75.6311 308.379 73.7761 312.521 69.9439C312.657 70.0229 312.729 70.0589 312.866 70.138C310.644 72.6473 308.365 74.7252 306.021 76.3717C303.677 78.0182 301.815 78.7875 300.413 78.6868C299.694 78.6365 299.162 78.3273 298.795 77.7953C298.5 77.3711 298.364 76.8606 298.421 76.2782L298.414 76.2854ZM312.995 55.1901C313.535 54.9168 314.052 54.8018 314.548 54.845C314.973 54.8809 315.346 55.0391 315.67 55.3267C316.188 55.7725 316.403 56.4196 316.31 57.2608C316.224 58.0661 315.871 58.8282 315.267 59.5544C314.858 60.072 314.383 60.4603 313.851 60.7119C313.312 60.9636 312.801 61.0714 312.312 61.0283C311.931 60.9995 311.557 60.8558 311.191 60.6041C310.709 60.1583 310.508 59.5184 310.594 58.6772C310.68 57.836 311.018 57.0667 311.572 56.3764C311.982 55.8659 312.456 55.4633 312.995 55.1901Z" fill="var(--fill-0, #1E1E1E)"/>
<path d="M316.266 77.1267C316.388 76.0698 316.92 74.9769 317.884 73.8553C318.847 72.7408 320.184 71.4035 321.903 69.8577C322.996 68.8798 323.808 68.1249 324.326 67.5785C324.843 67.032 325.131 66.579 325.174 66.2124C325.196 66.0326 325.16 65.8816 325.073 65.7594C324.851 65.5581 324.635 65.443 324.426 65.4215C323.067 65.2992 320.378 67.1686 316.424 71.044C315.604 71.8277 313.972 73.4958 311.549 76.0626C310.729 76.9254 310.32 77.3568 309.507 78.2196C309.004 78.7732 308.457 79.0177 307.875 78.9745C307.465 78.9386 307.12 78.7588 306.847 78.4209C306.574 78.083 306.452 77.7019 306.502 77.2633C306.545 76.8247 306.746 76.4005 307.099 75.9835C307.257 75.775 307.846 75.0848 308.867 73.9128C310.6 71.95 311.858 70.4832 312.62 69.5126C313.677 68.168 314.698 66.7875 315.691 65.3927C316.208 64.6809 316.467 64.3286 316.992 63.6168C317.646 62.7828 318.358 62.4017 319.127 62.4664C319.544 62.5023 319.882 62.6605 320.127 62.9409C320.378 63.2213 320.479 63.5808 320.429 64.0194C320.378 64.458 320.098 64.9757 319.624 65.5581C319.214 66.0686 318.653 66.6222 317.941 67.1902C317.229 67.7582 316.798 68.1105 316.64 68.2399C315.022 69.5773 313.864 70.6486 313.145 71.4395C312.117 72.5755 311.405 73.4023 311.003 73.92C310.6 74.4377 310.492 74.8044 310.679 74.9985C310.83 75.1567 311.233 74.9481 311.866 74.3729C312.498 73.7977 313.498 72.8271 314.864 71.461C315.777 70.5407 316.237 70.0805 317.157 69.1602C319.235 67.1183 321.061 65.5365 322.622 64.3933C324.182 63.2573 325.505 62.7396 326.583 62.8331C327.173 62.8834 327.655 63.1351 328.029 63.5737C328.395 64.0122 328.546 64.5443 328.467 65.1626C328.366 66.0038 327.914 66.9313 327.123 67.9523C326.332 68.9733 325.217 70.2459 323.779 71.727C322.722 72.8127 321.888 73.7187 321.313 74.4449C320.738 75.171 320.429 75.7678 320.371 76.2423C320.342 76.4652 320.407 76.6737 320.558 76.8679C320.767 77.1483 321.112 77.3064 321.594 77.3496C322.586 77.4359 323.995 76.9829 325.821 75.9835C327.647 74.9841 329.582 73.5677 331.638 71.727C331.746 71.8708 331.796 71.9427 331.904 72.0865C329.467 74.4448 327.022 76.4077 324.556 77.9751C322.09 79.5425 320.12 80.2687 318.617 80.1393C317.833 80.0746 317.215 79.7223 316.769 79.0967C316.352 78.5072 316.187 77.8457 316.266 77.1195V77.1267Z" fill="var(--fill-0, #1E1E1E)"/>
<path d="M316.813 95.1663C316.936 94.1453 317.446 93.0309 318.352 91.8373C319.258 90.6438 320.452 89.479 321.926 88.3574C325.787 85.3376 330.201 83.3244 335.148 82.3322C335.91 81.3184 336.291 80.8151 337.053 79.8014C338.074 78.4568 338.585 77.7881 339.606 76.4508C337.995 77.9895 336.406 79.183 334.839 80.0314C333.271 80.8799 331.905 81.2465 330.74 81.1387C330.057 81.074 329.453 80.7935 328.928 80.3046C328.231 79.5353 327.943 78.6222 328.08 77.5652C328.238 76.3214 328.914 74.9553 330.115 73.4598C331.316 71.9643 332.854 70.4688 334.738 68.9876C336.499 67.6 338.268 66.5574 340.044 65.8456C341.82 65.1338 343.301 64.8391 344.488 64.9613C345.221 65.0332 345.731 65.2776 346.041 65.6227C346.407 66.0326 346.594 66.5503 346.508 67.1686C346.846 66.7588 347.119 66.4568 347.328 66.2555C347.615 65.9535 347.946 65.7306 348.298 65.5796C348.658 65.4358 348.996 65.3783 349.305 65.4071C349.722 65.4502 350.06 65.6372 350.311 65.9607C350.563 66.2842 350.657 66.6653 350.592 67.1039C350.513 67.6503 350.225 68.1752 349.772 68.6857C349.391 69.1171 348.492 69.9224 347.097 71.0727C345.897 72.0578 344.876 72.9421 344.027 73.7258C343.179 74.5095 342.438 75.3148 341.798 76.1345C339.915 78.6078 338.376 80.5635 337.168 81.9943C339.922 81.5988 342.712 81.5485 345.516 81.8433C348.111 82.1165 350.57 82.6558 352.878 83.4682C353.439 83.6767 353.834 83.9643 354.072 84.3238C354.309 84.6833 354.395 85.0787 354.323 85.5173C354.252 85.9919 354 86.4089 353.576 86.7684C353.151 87.1279 352.67 87.2789 352.13 87.2214C351.857 87.1926 351.577 87.1063 351.289 86.9625C347.054 84.8343 343.244 83.6048 339.9 83.2669C338.635 83.1375 337.391 83.1303 336.169 83.2309C332.186 88.2927 325.218 97.8409 319.071 98.3802C318.568 98.4233 317.863 98.0135 317.403 97.4599C316.9 96.8415 316.706 96.0722 316.806 95.195L316.813 95.1663ZM321.408 95.0728C323.493 95.2597 327.145 92.0962 332.523 85.6252C333.221 84.7408 333.573 84.295 334.271 83.4107C330.611 84.1297 326.822 85.9919 322.918 89.0045C322.163 89.6013 321.48 90.2699 320.876 91.0105C320.272 91.751 319.934 92.4341 319.862 93.0524C319.79 93.6348 319.984 94.174 320.43 94.6558C320.703 94.9002 321.027 95.044 321.401 95.0728H321.408ZM334.177 78.3058C335.141 78.3993 336.377 77.9032 337.902 76.8103C339.426 75.7246 340.95 74.3873 342.467 72.7983C343.114 71.9427 343.776 70.9721 344.459 69.8936C344.725 69.4981 344.861 69.304 345.127 68.9086C345.286 68.5203 345.386 68.1968 345.422 67.9379C345.487 67.4993 345.408 67.1614 345.199 66.9169C344.833 66.5431 344.365 66.3346 343.805 66.2771C342.618 66.1548 341.166 66.6006 339.44 67.6144C337.715 68.6282 336.183 69.8936 334.846 71.4107C333.508 72.9277 332.761 74.3226 332.588 75.6024C332.48 76.4077 332.603 77.0763 332.955 77.5796C333.264 78.011 333.681 78.2555 334.163 78.3058H334.177Z" fill="var(--fill-0, #1E1E1E)"/>
<path d="M39.554 79.5713C39.5252 78.5144 39.8775 77.3999 40.6037 76.2207C41.3299 75.0416 42.394 73.5821 43.8104 71.8493C44.6517 70.8499 45.2916 70.0446 45.7302 69.4119C46.1688 68.7864 46.3844 68.2902 46.3773 67.9307C46.3773 67.751 46.3197 67.6072 46.2119 67.4993C46.0681 67.3555 45.8955 67.2836 45.687 67.2908C45.306 67.2908 44.8098 67.5713 44.1987 68.1105C43.5876 68.6497 42.7535 69.4909 41.711 70.6413C39.4174 73.1938 36.6996 76.7456 33.6079 81.304C33.119 82.0087 32.515 82.3682 31.8032 82.3897C31.3647 82.4041 30.9764 82.2675 30.6384 81.9799C30.3077 81.6995 30.128 81.34 30.1136 80.9014C30.0992 80.5707 30.1927 80.2255 30.3868 79.8588C30.7391 79.0823 31.0914 78.4209 31.4509 77.8673C31.8104 77.3136 32.6804 75.9979 34.0752 73.9271C35.4773 71.8564 37.5624 68.7288 40.388 64.5587C41.258 63.2501 41.6894 62.603 42.5666 61.2944C43.1418 60.446 44.4575 58.5191 46.5282 55.5209C48.6061 52.5227 50.0585 50.5454 50.8566 49.5892C51.4534 48.9277 52.1005 48.5898 52.8051 48.5826C53.2652 48.5826 53.6463 48.7192 53.9483 49.0068C54.2503 49.2944 54.4012 49.6754 54.4084 50.15C54.4084 50.7324 54.2071 51.3004 53.7829 51.8468C53.5744 52.1416 52.8913 52.8246 51.741 53.8888C51.4246 54.2195 50.6193 55.0392 49.3179 56.3477C48.0166 57.6563 46.6936 59.0727 45.3419 60.5826C43.9902 62.0997 42.7607 63.5952 41.6463 65.0691C41.4737 65.292 40.2514 67.0032 38.001 70.2171C35.7505 73.4311 34.6648 75.624 34.7008 76.7888C34.708 77.0404 34.7799 77.1698 34.9165 77.1626C35.1897 77.1626 35.6642 76.7456 36.3473 75.926C37.0303 75.1135 37.8787 73.9847 38.9141 72.597C39.9638 71.195 40.7044 70.2675 41.0711 69.8217C42.6888 67.902 43.9686 66.5143 44.9105 65.6587C45.8452 64.8031 46.7008 64.3717 47.4629 64.3645C48.0166 64.3573 48.5271 64.573 48.98 64.9972C49.3251 65.3208 49.5121 65.7522 49.5193 66.2986C49.5265 67.0608 49.2389 67.9667 48.6421 69.0164C48.0525 70.059 47.2041 71.3603 46.14 72.9062C45.234 74.2219 44.5582 75.2861 44.1124 76.077C43.6667 76.8679 43.4438 77.5149 43.4581 78.0254C43.4581 78.2771 43.5516 78.5 43.7242 78.6797C43.9686 78.9314 44.3281 79.0536 44.8099 79.0464C45.8308 79.032 47.1538 78.4424 48.7787 77.292C50.4036 76.1416 52.0861 74.5742 53.826 72.5898C53.9914 72.6761 54.0777 72.7192 54.2431 72.8055C52.1292 75.4442 49.9578 77.6947 47.7146 79.5497C45.4713 81.4047 43.6307 82.3466 42.1711 82.3753C41.4234 82.3897 40.8051 82.1309 40.3161 81.5917C39.8272 81.0524 39.5684 80.3909 39.554 79.5856V79.5713Z" fill="var(--fill-0, #1E1E1E)"/>
<path d="M52.4383 77.3998C52.424 76.271 52.7044 75.0487 53.2796 73.733C53.8548 72.4172 54.6169 71.123 55.5732 69.8863C56.7955 68.3117 58.2263 67.0176 59.8368 66.0038C61.4474 64.99 62.8997 64.4867 64.1796 64.4795C65.0136 64.4795 65.7182 64.7312 66.3078 65.2345C66.7176 65.6011 66.9261 66.1835 66.9189 66.9816C66.9189 67.8947 66.6097 68.9013 66.0202 70.0157C65.4234 71.1302 64.575 72.1656 63.4749 73.1362C62.3749 74.1068 61.1166 74.833 59.7146 75.3147C59.542 75.3866 59.3047 75.4298 58.9956 75.4298C58.5139 75.4298 58.1328 75.2644 57.838 74.9193C57.5432 74.5742 57.3994 74.1859 57.3994 73.7473C57.3994 73.3447 57.5288 72.9996 57.7805 72.7048C58.0393 72.41 58.4276 72.2662 58.9381 72.259C60.4839 72.2518 61.7925 71.9786 62.8566 71.4466C63.9279 70.9145 64.7116 70.2602 65.2149 69.4693C65.7182 68.6856 65.977 67.9091 65.977 67.147C65.977 66.4927 65.7901 65.9678 65.4162 65.5652C65.143 65.2776 64.7979 65.1338 64.3809 65.1338C63.6547 65.1338 62.8063 65.5149 61.8572 66.2626C60.9009 67.0104 59.9087 67.9954 58.9309 69.2033C58.1328 70.1811 57.4929 71.2309 57.004 72.3309C56.5079 73.4238 56.2634 74.4663 56.2706 75.4513C56.2706 76.3285 56.5007 77.1194 56.9464 77.7953C57.5504 78.694 58.4204 79.147 59.5133 79.1398C60.7068 79.1326 62.1016 78.5934 63.7194 77.5364C65.3299 76.4723 67.0339 74.9984 68.8386 73.1003C68.9609 73.2297 69.0256 73.2944 69.1478 73.431C67.5444 75.6527 65.5888 77.6443 63.2808 79.4202C60.9728 81.1961 58.8949 82.0877 57.0255 82.1092C56.0405 82.1164 55.1849 81.872 54.4731 81.3687C53.1358 80.434 52.4599 79.1182 52.4455 77.407L52.4383 77.3998Z" fill="var(--fill-0, #1E1E1E)"/>
<path d="M19.0411 87.5809C18.7391 87.6384 18.5522 87.5306 18.4731 87.243C18.4228 87.0632 18.4371 86.8763 18.5234 86.675C21.1765 79.5425 23.9015 72.4101 27.1154 65.479C29.9554 59.3531 33.2341 53.1554 36.8578 47.2956C35.0819 47.612 33.1765 47.727 31.1346 47.6479C29.0926 47.5688 26.6121 47.3459 23.7289 47.0511C20.7163 46.742 18.2646 46.591 16.4527 46.5407C14.6408 46.4903 12.9296 46.6269 11.3191 46.9361C9.36341 47.3172 7.76006 48.0074 6.53058 48.9924C5.03507 50.1859 4.05003 51.6958 3.61145 53.5293C3.17286 55.3555 3.33104 57.3975 4.04285 59.6479C4.47425 61.014 5.222 62.1932 6.27892 63.1566C7.33585 64.1201 8.53657 64.8175 9.86671 65.2489C11.1969 65.6731 12.4838 65.7666 13.7133 65.5293C15.5611 65.1698 16.8913 64.0482 17.7181 62.1716C18.545 60.295 18.5018 57.6563 17.5815 54.2483C17.409 53.6084 17.4377 53.0835 17.675 52.6665C17.9123 52.2495 18.2502 51.9978 18.7032 51.9115C19.1561 51.8253 19.5803 51.9259 19.983 52.1992C20.3856 52.4796 20.666 52.9181 20.8242 53.5221C20.8961 53.8097 20.9392 54.0254 20.9392 54.1692C21.234 57.7282 20.5797 60.5754 18.9979 62.7109C17.409 64.8463 15.3311 66.162 12.7355 66.6725C11.0243 67.0105 9.31309 66.9745 7.5875 66.5719C5.86191 66.1692 4.33764 65.4215 3.02188 64.3214C1.70612 63.2213 0.792989 61.8409 0.311263 60.18C-0.256744 58.2387 -0.0482315 56.2758 0.943982 54.2914C1.93619 52.3142 3.5036 50.4232 5.60307 48.6186C8.24897 46.3537 11.4413 44.8366 15.1513 44.132C17.7469 43.6359 20.3137 43.5137 22.8518 43.7438C25.3898 43.981 28.4527 44.4052 31.8392 45.117C34.3988 45.6563 36.3617 46.023 37.6487 46.0877C38.4611 46.1308 39.2089 46.0877 39.9063 45.9726C42.0993 45.5916 44.3353 44.6281 46.6289 43.0895C46.8806 42.9385 47.1179 42.8378 47.3264 42.8019C47.7434 42.73 48.1101 42.8162 48.4192 43.0607C48.7284 43.3052 48.9297 43.6215 49.0232 44.017C49.1238 44.4484 49.0448 44.8654 48.8003 45.2752C48.5486 45.6851 48.1172 46.0446 47.5349 46.2674C46.9309 46.4975 46.2479 46.6485 45.5864 46.7635C44.5798 46.9361 43.5157 47.0296 42.394 47.0368C41.2724 47.044 40.6181 47.0512 40.4384 47.0368C39.6762 47.0368 39.2952 47.0368 38.533 47.0368C35.4701 51.9188 32.8889 57.1818 30.8182 62.7899C28.2155 69.8505 26.1304 77.062 24.2969 84.2951C24.1675 84.8415 23.6714 85.201 22.8014 85.3664C22.6648 85.3952 22.3485 85.4455 21.8452 85.5246C21.3419 85.6036 20.9033 85.7619 20.5294 86.0063C20.1555 86.2508 19.8751 86.5887 19.6882 87.0417C19.5588 87.3293 19.3431 87.5018 19.0411 87.5593V87.5809Z" fill="var(--fill-0, #1E1E1E)"/>
<path d="M198.723 130.224C196.329 129.692 193.136 129.592 190.21 130.332C183.71 131.972 181.769 136.825 181.769 136.825C181.855 137.623 182.438 137.307 183.653 137.041C184.868 136.775 188.355 138.363 188.355 138.363C188.355 138.363 193.431 139.737 197.292 136.142C201.146 132.547 203.476 132.087 203.476 132.087C203.476 132.087 201.642 130.872 198.716 130.224H198.723ZM191.325 137.522C189.606 137.522 188.218 136.135 188.218 134.416C188.218 133.187 188.93 132.137 189.958 131.626C190.634 131.526 191.253 131.432 191.828 131.346C193.309 131.583 194.438 132.863 194.438 134.409C194.438 136.127 193.043 137.515 191.325 137.515V137.522ZM185.824 136.624C184.135 135.991 182.689 136.616 182.689 136.616C182.689 136.616 184.135 133.374 188.887 131.864C188.211 132.504 187.794 133.41 187.794 134.416C187.794 135.912 188.722 137.184 190.038 137.702C188.413 137.616 187.09 137.098 185.817 136.624H185.824ZM195.329 136.199C194.697 136.609 194.121 136.904 193.589 137.127C194.366 136.48 194.862 135.509 194.862 134.416C194.862 133 194.035 131.785 192.834 131.224C193.453 131.159 194.035 131.116 194.61 131.123C198.601 131.195 200.664 132.302 200.664 132.302C200.254 132.331 199.054 133.108 197.752 134.1C197.148 134.56 196.048 135.746 195.337 136.199H195.329Z" fill="var(--fill-0, #1E1E1E)"/>
<path d="M192.813 134.416C192.813 135.236 192.144 135.904 191.324 135.904C190.505 135.904 189.836 135.236 189.836 134.416C189.836 133.596 190.505 132.928 191.324 132.928C192.144 132.928 192.813 133.596 192.813 134.416Z" fill="var(--fill-0, #1E1E1E)"/>
<path d="M158.2 130.016C155.274 129.275 152.082 129.376 149.687 129.908C146.761 130.562 144.928 131.77 144.928 131.77C144.928 131.77 147.257 132.23 151.118 135.825C154.979 139.42 160.055 138.047 160.055 138.047C160.055 138.047 163.542 136.458 164.757 136.724C165.973 136.99 166.555 137.307 166.641 136.509C166.641 136.509 164.7 131.655 158.2 130.016ZM157.086 137.206C155.367 137.206 153.973 135.818 153.973 134.1C153.973 132.547 155.101 131.274 156.582 131.037C157.158 131.116 157.776 131.217 158.452 131.317C159.48 131.821 160.192 132.878 160.192 134.107C160.192 135.825 158.797 137.213 157.086 137.213V137.206ZM150.665 133.776C149.364 132.784 148.17 132.008 147.753 131.979C147.753 131.979 149.817 130.872 153.807 130.8C154.382 130.793 154.965 130.828 155.583 130.9C154.382 131.461 153.555 132.683 153.555 134.093C153.555 135.186 154.052 136.156 154.828 136.803C154.289 136.58 153.721 136.286 153.081 135.876C152.369 135.423 151.262 134.237 150.665 133.776ZM162.586 136.307C161.313 136.782 159.99 137.299 158.366 137.386C159.681 136.875 160.616 135.603 160.616 134.1C160.616 133.093 160.192 132.187 159.523 131.547C164.283 133.057 165.721 136.3 165.721 136.3C165.721 136.3 164.276 135.674 162.586 136.307Z" fill="var(--fill-0, #1E1E1E)"/>
<path d="M155.598 134.1C155.598 134.919 156.266 135.588 157.086 135.588C157.906 135.588 158.574 134.919 158.574 134.1C158.574 133.28 157.906 132.611 157.086 132.611C156.266 132.611 155.598 133.28 155.598 134.1Z" fill="var(--fill-0, #1E1E1E)"/>
<path d="M196.552 120.209C196.552 120.209 201.556 116.218 198.299 106.699C195.366 98.6892 189.815 96.863 187.91 92.0313C186.04 87.286 184.466 81.8216 174.515 82.2817C175.867 83.0511 177.405 83.7269 178.318 83.7269C179.879 83.7269 180.943 84.0073 181.705 84.8558C182.474 85.7042 182.488 87.2141 182.683 88.1703C182.855 89.0187 183.172 89.7306 183.172 89.7306C183.172 89.7306 183.754 91.0967 184.293 92.4268C185.336 94.9936 183.847 95.993 183.847 95.993C184.847 94.5981 183.488 91.3771 182.834 90.4783C182.179 89.5796 182.014 89.0907 181.561 87.1206C181.108 85.1578 179.663 84.7839 179.663 84.7839C179.231 84.6688 177.585 84.5754 177.261 84.4603C171.502 82.4112 171.991 81.1242 169.331 81.0451C167.965 81.002 166.814 81.2968 166.023 81.5987C165.714 81.7713 165.448 81.9438 165.24 82.1092C165.24 82.1092 165.233 82.1164 165.225 82.1236H165.218C164.887 82.3896 164.672 82.6341 164.528 82.8354C164.276 83.1805 163.953 83.4681 163.6 83.7054C161.954 84.8054 158.007 88.1919 160.077 94.3249C160.077 94.3249 161.343 100.113 171.179 104.793C172.279 105.318 173.293 105.8 174.249 106.26C173.3 107.691 171.934 110.265 171.56 113.637C171.38 115.276 171.531 116.822 171.855 118.231C170.934 117.613 169.971 116.88 168.964 116.024C158.877 107.447 153.017 108.597 150.953 108.755C148.89 108.913 139.27 111.61 140.406 120.309C141.628 129.671 151.96 128.132 155.059 128.398C157.798 128.628 164.017 128.844 171.337 133.021C174.508 134.445 177.851 133.942 180.691 132.705C181.345 132.424 191.16 126.442 198.371 129.06C205.583 131.677 207.092 137.148 204.634 142.383C202.175 147.617 191.059 150.299 181.985 146.366C171.128 141.664 166.354 147.171 165.082 149.386C163.816 151.607 164.621 153.635 165.837 153.635C165.837 153.635 166.627 153.685 166.944 152.628C167.26 151.571 167.634 149.35 171.912 148.451C176.19 147.552 180.159 149.723 182.222 150.407C184.286 151.09 189.204 152.837 195.596 151.996C201.988 151.147 211.982 146.179 213.247 134.129C213.355 121.604 198.278 120.122 196.538 120.202L196.552 120.209ZM197.091 118.375C195.574 120.669 192.957 120.302 192.957 120.302C190.843 119.82 191.785 117.182 193.051 117.153C194.316 117.131 197.185 116.024 197.825 115.018C198.033 114.68 198.608 116.075 197.091 118.368V118.375ZM197.968 113.687C196.796 115.823 192.892 116.168 192.892 116.168C191.792 116.146 190.829 113.716 192.691 112.753C195.33 112.523 197.623 110.797 197.875 110.567C198.127 110.337 199.14 111.552 197.968 113.687ZM196.279 106.037C196.703 105.426 197.731 106.476 198.012 107.684C198.285 108.892 197.76 110.085 195.876 111.006C193.992 111.926 192.727 111.667 192.727 111.667C192.727 111.667 191.145 111.646 190.592 110.927C189.937 110.071 189.829 109.208 191.764 108.755C193.69 108.302 195.855 106.641 196.279 106.03V106.037ZM195.646 103.686C195.883 104.376 196.092 105.721 193.726 107.001C192.173 107.842 190.922 108.187 189.865 108.281C187.521 108.525 185.746 106.188 187.565 106.037C189.384 105.886 192.252 103.88 193.158 102.708C194.071 101.529 195.402 102.996 195.639 103.693L195.646 103.686ZM192.583 102.047C192.159 102.687 191.497 103.262 190.836 103.722C189.463 104.686 187.708 105.124 186.63 105.376C185.99 105.527 184.94 105.548 184.279 105.074C183.294 104.369 182.927 103.003 184.178 102.787C184.178 102.787 187.752 102.378 190.879 99.1997C191.289 98.7827 193.885 100.07 192.576 102.047H192.583ZM181.022 113.637C180.828 111.919 180.382 110.402 179.857 109.143C183.387 111.214 184.897 113.004 184.897 115.974C184.897 118.627 183.085 121 179.735 121.1C180.619 119.037 181.331 116.477 181.015 113.63L181.022 113.637ZM186.349 95.7989C186.759 95.3819 190.973 97.2584 189.664 99.2357C189.24 99.8756 187.96 100.559 186.925 101.033C185.393 101.731 183.905 102.263 182.388 102.263C181.734 102.263 180.418 102.148 179.749 101.673C178.764 100.968 178.397 99.6024 179.648 99.3867C179.648 99.3867 183.222 98.9768 186.349 95.7989ZM174.529 96.108C175.176 95.5185 176.665 95.4465 176.665 95.4465C176.665 95.4465 177.42 95.727 177.873 95.9498C178.901 96.4388 180.49 97.8264 180.878 97.9918C180.389 98.0925 178.052 98.7108 176.305 98.5023C175.32 98.38 174.601 97.7258 174.321 97.2297C174.026 96.7551 174.242 96.3669 174.522 96.108H174.529ZM172.207 94.9936C170.467 94.5119 170.711 92.966 170.711 92.966C170.87 92.2614 173.4 92.5706 173.4 92.5706C174.299 94.4471 175.363 94.7419 175.363 94.7419C175.363 94.7419 173.954 95.4825 172.214 95.0008L172.207 94.9936ZM176.772 90.5358C176.772 90.5358 177.772 90.4855 177.621 91.8804C177.621 91.8804 176.722 91.6287 176.571 91.2836C176.42 90.9313 176.772 90.5358 176.772 90.5358ZM174.917 90.8234C175.485 92.8797 177.614 93.2824 177.614 93.2824C179.318 93.7066 179.67 94.9361 180.734 96.0002C181.798 97.0643 183.38 96.4963 183.38 96.4963C183.38 96.4963 182.222 97.2081 181.086 96.7767C179.95 96.3525 179.102 94.7923 177.966 94.368C176.83 93.9438 175.025 93.1745 174.774 92.1679C174.062 89.3351 171.941 86.4951 171.941 86.4951C172.717 86.9912 174.349 88.7671 174.917 90.8234ZM172.674 90.428C172.847 91.0607 172.983 91.3914 172.983 91.3914C172.983 91.3914 170.575 91.8588 169.971 90.7515C169.367 89.6515 169.813 89.1841 169.956 89.0259C170.575 88.5082 171.646 88.7887 171.847 88.8174C171.847 88.8174 172.502 89.7809 172.674 90.4208V90.428ZM171.243 87.8108C171.243 87.8108 168.475 87.6311 168.756 85.6107C168.756 85.6107 170.618 86.6748 171.243 87.8108ZM170.812 103.866C160.609 98.5239 159.394 91.2836 161.983 86.8977C163.183 84.863 164.614 83.7989 165.98 83.7989C168.252 83.7989 169.381 84.7911 169.381 84.7911C169.381 84.7911 167.994 84.41 166.685 84.374C164.765 84.3237 162.17 85.9702 161.724 89.9678C161.012 96.2806 165.384 99.9043 168.597 101.946C170.934 103.435 174.012 105.246 177.247 106.771L175.263 105.994C173.853 105.326 172.559 104.786 170.805 103.866H170.812ZM173.595 112.142C174.112 110.035 174.953 108.654 175.514 107.907C175.859 107.454 176.298 106.936 176.298 106.936C176.298 106.936 176.708 107.425 177.024 107.842C177.585 108.575 178.462 109.977 178.994 112.142C179.124 112.681 179.239 113.22 179.325 113.781C178.692 112.774 177.571 112.106 176.298 112.106C175.025 112.106 173.904 112.774 173.264 113.781C173.35 113.227 173.465 112.681 173.602 112.142H173.595ZM176.291 112.537C178.038 112.537 179.454 113.953 179.454 115.693C179.454 117.433 178.038 118.857 176.291 118.857C174.544 118.857 173.127 117.441 173.127 115.693C173.127 113.946 174.544 112.537 176.291 112.537ZM179.368 117.513C179.138 119.245 178.527 121.223 177.312 123.638C177.06 124.134 176.291 125.486 176.291 125.486C176.291 125.486 175.507 124.12 175.255 123.617C174.047 121.208 173.444 119.238 173.213 117.513C173.839 118.562 174.982 119.267 176.291 119.267C177.599 119.267 178.743 118.562 179.368 117.513ZM208.451 141.851C206.604 146.129 201.952 149.623 195.452 150.73C188.952 151.837 180.806 147.976 180.806 147.976C180.806 147.976 174.939 144.913 169.964 147.286C164.988 149.659 165.65 152.405 165.65 152.405L165.549 152.556C164.435 149.86 168.748 145.805 173.451 145.489C178.153 145.172 179.109 147.178 186.58 148.767C194.05 150.356 199.471 148.947 204.267 144.568C208.185 140.988 206.654 134.919 206.453 133.568C206.258 132.216 207.229 133.172 207.509 132.079C207.79 130.986 202.419 124.451 193.906 124.35C185.393 124.242 182.488 126.888 181.065 128.261C179.641 129.635 180.166 131.432 180.166 131.432C180.166 131.432 177.362 132.54 175.248 132.54C173.134 132.54 171.179 131.483 171.179 131.483C173.293 129.469 172.027 126.78 169.805 126.198C167.584 125.616 163.802 125.335 156.065 124.911C153.686 124.782 148.005 124.12 145.417 120.87C144.087 119.252 142.958 116.24 144.353 114.119C148.703 107.511 158.172 110.495 160.07 111.293C161.976 112.084 163.615 112.81 168.856 117.045C171.179 118.929 172.351 120.453 172.832 121.172C172.89 121.302 172.94 121.431 172.998 121.553C169.23 119.08 160.25 116.161 156.691 116.161C153.132 116.161 150.666 117.534 150.666 117.534C155.742 117.318 162.457 118.8 168.799 122.028C170.927 123.106 172.782 123.789 174.385 124.185C174.616 124.58 174.831 124.925 174.997 125.213C175.291 128.06 174.342 128.039 173.731 128.082C172.947 128.139 172.351 126.637 173.674 126.493C173.674 126.493 172.969 126.14 172.48 126.831C171.991 127.514 172.645 128.815 173.947 128.794C175.198 128.772 176.276 127.622 176.276 125.558H176.305C176.305 127.622 177.29 128.858 178.721 128.837C180.022 128.822 180.533 127.514 180.044 126.831C179.555 126.14 178.908 126.493 178.908 126.493C180.238 126.644 179.72 128.06 178.908 128.06C178.196 128.06 177.283 128.06 177.578 125.213C177.671 125.04 177.779 124.846 177.901 124.638C179.26 124.623 180.31 124.35 181.065 123.983C183.049 123.02 199.076 117.728 206.949 124.436C214.829 131.152 212.248 137.745 212.248 137.745C212.248 137.745 210.299 137.565 208.444 141.851H208.451Z" fill="var(--fill-0, #1E1E1E)"/>
<path d="M176.283 117.124C177.103 117.124 177.772 116.456 177.772 115.636C177.772 114.816 177.103 114.148 176.283 114.148C175.464 114.148 174.795 114.816 174.795 115.636C174.795 116.456 175.464 117.124 176.283 117.124Z" fill="var(--fill-0, #1E1E1E)"/>
</g>
</svg>
