<svg preserveAspectRatio="xMidYMid meet" width="8" height="8" overflow="visible" style="display: block;" viewBox="0 0 8 8" fill="none" xmlns="http://www.w3.org/2000/svg">
<path id="Vector" d="M6.99268 5.12659C6.81156 5.56757 6.55955 5.9613 6.22882 6.30778C5.89808 6.64639 5.51225 6.92184 5.07127 7.1187C4.63029 7.31557 4.14203 7.41785 3.61443 7.41785C3.08683 7.41785 2.6065 7.31557 2.16552 7.1187C1.72455 6.92184 1.34655 6.65428 1.02369 6.32355C0.700833 5.99281 0.448827 5.5991 0.267711 5.15812C0.0865941 4.71714 0 4.24443 0 3.74045V3.70892C0 3.21282 0.0865941 2.7405 0.267711 2.29164C0.448827 1.85066 0.700841 1.45693 1.03158 1.11045C1.36231 0.771837 1.74814 0.49601 2.18912 0.299144C2.6301 0.102278 3.11836 0 3.64596 0C4.17356 0 4.65389 0.102278 5.09487 0.299144C5.53585 0.49601 5.91384 0.763947 6.2367 1.09468C6.55956 1.42542 6.81156 1.81913 6.99268 2.26011C7.1738 2.70109 7.26039 3.17342 7.26039 3.67739V3.70892C7.26039 4.20502 7.1738 4.67773 6.99268 5.12659ZM6.54382 3.70892C6.54382 3.28369 6.47293 2.88995 6.32331 2.51196C6.17369 2.14185 5.96897 1.81132 5.70123 1.53571C5.43349 1.2601 5.12639 1.03936 4.77203 0.889742C4.40979 0.732249 4.03179 0.653656 3.62231 0.653656C3.21283 0.653656 2.81912 0.732449 2.45688 0.897816C2.10252 1.06318 1.79538 1.27566 1.53552 1.5434C1.28353 1.81114 1.07883 2.13416 0.937084 2.50427C0.79534 2.87438 0.724453 3.26791 0.724453 3.67739V3.70123C0.724453 4.12646 0.7953 4.52021 0.944918 4.89819C1.09454 5.2683 1.29931 5.59096 1.56704 5.87445C1.83478 6.15006 2.1419 6.3708 2.50413 6.52041C2.85849 6.67791 3.24431 6.7565 3.65379 6.7565C4.06328 6.7565 4.45704 6.67771 4.81927 6.51234C5.18151 6.35485 5.48073 6.13449 5.74059 5.86676C5.99258 5.59114 6.19733 5.27599 6.33907 4.90588C6.48082 4.53577 6.5517 4.15012 6.5517 3.73276V3.70123L6.54382 3.70892Z" fill="var(--fill-0, #781029)"/>
</svg>
