<svg preserveAspectRatio="xMidYMid meet" width="7" height="11" overflow="visible" style="display: block;" viewBox="0 0 7 11" fill="none" xmlns="http://www.w3.org/2000/svg">
<path id="Vector" d="M5.37834 10.1347V5.92943C5.37834 5.19709 5.18148 4.61438 4.79563 4.1734C4.40977 3.73242 3.85068 3.51206 3.13409 3.51206C2.77973 3.51206 2.45689 3.57524 2.16552 3.70123C1.86629 3.82723 1.61426 4.00021 1.3859 4.2207C1.16541 4.44119 0.992185 4.70912 0.866191 5.01623C0.740196 5.32335 0.677207 5.66199 0.677207 6.03209V10.1267H0V0H0.677207V4.37027C0.921321 3.95291 1.24417 3.60655 1.64577 3.31519C2.05525 3.0317 2.58286 2.88224 3.22858 2.88224C3.66956 2.88224 4.07117 2.95313 4.41766 3.09487C4.77202 3.23661 5.06339 3.44137 5.31538 3.70123C5.55949 3.9611 5.74844 4.26814 5.86656 4.6225C5.99256 4.97686 6.05555 5.37039 6.05555 5.79562V10.1267H5.37834V10.1347Z" fill="var(--fill-0, #781029)"/>
</svg>
