<svg preserveAspectRatio="xMidYMid meet" width="223" height="69" overflow="visible" style="display: block;" viewBox="0 0 223 69" fill="none" xmlns="http://www.w3.org/2000/svg">
<g id="Group">
<path id="Vector" d="M188.87 2H34.5001C16.5508 2 2.00005 16.5508 2.00005 34.5C2.00005 52.4493 16.5508 67 34.5001 67H188.87C206.819 67 221.37 52.4493 221.37 34.5C221.37 16.5508 206.819 2 188.87 2Z" fill="var(--fill-0, #781029)" stroke="var(--stroke-0, #E9DDED)" stroke-width="2.16426" stroke-miterlimit="10"/>
<g id="Group_2">
<path id="Vector_2" d="M81.5008 19.8696C81.5008 21.1321 81.1257 22.1349 80.3754 22.8851C79.5241 23.7797 78.4203 24.2198 77.0569 24.2198C75.6934 24.2198 74.6473 23.7653 73.7311 22.8636C72.8149 21.9618 72.3604 20.8363 72.3604 19.5017C72.3604 18.1671 72.8149 17.0416 73.7311 16.1399C74.6401 15.2381 75.7511 14.7836 77.0569 14.7836C77.7061 14.7836 78.3194 14.9135 78.9109 15.1587C79.5025 15.4112 79.9714 15.7503 80.3249 16.1688L79.5314 16.9623C78.9326 16.2481 78.1101 15.8874 77.0569 15.8874C76.1046 15.8874 75.2822 16.2193 74.5896 16.8902C73.8971 17.5611 73.5508 18.4268 73.5508 19.4945C73.5508 20.5622 73.8971 21.4279 74.5896 22.0988C75.2822 22.7697 76.1046 23.1016 77.0569 23.1016C78.0669 23.1016 78.9037 22.7625 79.5818 22.0916C80.0219 21.6515 80.2744 21.0455 80.3393 20.2592H77.0569V19.177H81.4359C81.4792 19.4151 81.5008 19.6388 81.5008 19.8552V19.8696Z" fill="var(--fill-0, #DDBBAE)"/>
<path id="Vector_3" d="M88.4412 16.0964H84.3291V18.9605H88.0372V20.0426H84.3291V22.9066H88.4412V24.0176H83.1676V14.9854H88.4412V16.0964Z" fill="var(--fill-0, #DDBBAE)"/>
<path id="Vector_4" d="M93.332 24.0176H92.1705V16.0964H89.6455V14.9854H95.8497V16.0964H93.3248V24.0176H93.332Z" fill="var(--fill-0, #DDBBAE)"/>
<path id="Vector_5" d="M100.351 24.0176V14.9854H101.513V24.0176H100.351Z" fill="var(--fill-0, #DDBBAE)"/>
<path id="Vector_6" d="M106.656 24.0176H105.495V16.0964H102.97V14.9854H109.174V16.0964H106.649V24.0176H106.656Z" fill="var(--fill-0, #DDBBAE)"/>
<path id="Vector_7" d="M120.934 22.8491C120.046 23.7653 118.942 24.2198 117.622 24.2198C116.302 24.2198 115.198 23.7653 114.311 22.8491C113.424 21.9401 112.983 20.8219 112.983 19.5017C112.983 18.1815 113.424 17.0632 114.311 16.1543C115.198 15.238 116.302 14.7835 117.622 14.7835C118.942 14.7835 120.039 15.2453 120.926 16.1615C121.821 17.0777 122.261 18.1959 122.261 19.5017C122.261 20.8074 121.814 21.9401 120.934 22.8491ZM115.169 22.0988C115.84 22.7769 116.656 23.116 117.622 23.116C118.589 23.116 119.411 22.7769 120.075 22.0988C120.746 21.4206 121.078 20.5549 121.078 19.5089C121.078 18.4628 120.746 17.5898 120.075 16.9189C119.404 16.2408 118.589 15.9018 117.622 15.9018C116.656 15.9018 115.84 16.2408 115.169 16.9189C114.499 17.5971 114.167 18.4628 114.167 19.5089C114.167 20.5549 114.499 21.4278 115.169 22.0988Z" fill="var(--fill-0, #DDBBAE)"/>
<path id="Vector_8" d="M123.891 24.0176V14.9854H125.305L129.699 22.0121H129.749L129.699 20.2734V14.9854H130.86V24.0176H129.648L125.053 16.6519H125.002L125.053 18.3905V24.0176H123.891Z" fill="var(--fill-0, #DDBBAE)"/>
</g>
<path id="Vector_9" d="M112.695 37.1982C109.153 37.1982 106.267 39.8891 106.267 43.6044C106.267 47.3197 109.153 50.0106 112.695 50.0106C116.237 50.0106 119.123 47.2908 119.123 43.6044C119.123 39.9179 116.237 37.1982 112.695 37.1982ZM112.695 47.4784C110.754 47.4784 109.081 45.8768 109.081 43.5972C109.081 41.3175 110.754 39.7159 112.695 39.7159C114.636 39.7159 116.309 41.2958 116.309 43.5972C116.309 45.8985 114.636 47.4784 112.695 47.4784ZM98.6705 37.1982C95.1283 37.1982 92.2426 39.8891 92.2426 43.6044C92.2426 47.3197 95.1283 50.0106 98.6705 50.0106C102.213 50.0106 105.098 47.2908 105.098 43.6044C105.098 39.9179 102.213 37.1982 98.6705 37.1982ZM98.6705 47.4784C96.7299 47.4784 95.0562 45.8768 95.0562 43.5972C95.0562 41.3175 96.7299 39.7159 98.6705 39.7159C100.611 39.7159 102.285 41.2958 102.285 43.5972C102.285 45.8985 100.611 47.4784 98.6705 47.4784ZM81.9912 39.1604V41.8802H88.4913C88.2965 43.4096 87.7842 44.5206 87.0123 45.2997C86.0672 46.2448 84.5884 47.2908 81.9912 47.2908C77.9874 47.2908 74.8636 44.0661 74.8636 40.0622C74.8636 36.0583 77.9946 32.8335 81.9912 32.8335C84.1483 32.8335 85.7282 33.6848 86.8897 34.7741L88.8087 32.8552C87.1855 31.3041 85.0212 30.1138 81.9912 30.1138C76.5084 30.1138 71.8986 34.5794 71.8986 40.0622C71.8986 45.545 76.5084 50.0106 81.9912 50.0106C84.9491 50.0106 87.1855 49.0438 88.9313 47.2186C90.7276 45.4223 91.2831 42.9046 91.2831 40.8629C91.2831 40.2353 91.2326 39.651 91.1389 39.1676H81.9912V39.1604ZM150.209 41.2741C149.675 39.8457 148.052 37.1982 144.726 37.1982C141.4 37.1982 138.688 39.7953 138.688 43.6044C138.688 47.1971 141.407 50.0106 145.043 50.0106C147.98 50.0106 149.675 48.2142 150.382 47.1754L148.196 45.7181C147.467 46.7858 146.472 47.4856 145.043 47.4856C143.615 47.4856 142.591 46.8291 141.941 45.545L150.505 42.0028L150.216 41.2741H150.209ZM141.472 43.4024C141.4 40.9279 143.391 39.6654 144.82 39.6654C145.938 39.6654 146.883 40.2209 147.2 41.0216L141.48 43.3951L141.472 43.4024ZM134.511 49.6138H137.324V30.7919H134.511V49.6138ZM129.901 38.6266H129.807C129.179 37.8763 127.96 37.1982 126.438 37.1982C123.235 37.1982 120.299 40.0116 120.299 43.626C120.299 47.2403 123.235 50.0034 126.438 50.0034C127.967 50.0034 129.179 49.3252 129.807 48.5461H129.901V49.4695C129.901 51.9224 128.588 53.2281 126.481 53.2281C124.757 53.2281 123.689 51.9945 123.257 50.9484L120.804 51.9656C121.511 53.661 123.372 55.7531 126.481 55.7531C129.778 55.7531 132.57 53.8125 132.57 49.0799V37.5804H129.901V38.6266ZM126.676 47.4784C124.735 47.4784 123.112 45.8551 123.112 43.6187C123.112 41.3823 124.735 39.7159 126.676 39.7159C128.617 39.7159 130.096 41.3679 130.096 43.6187C130.096 45.8696 128.595 47.4784 126.676 47.4784ZM163.389 30.7919H156.658V49.6138H159.465V42.4861H163.389C166.506 42.4861 169.565 40.2353 169.565 36.6427C169.565 33.05 166.506 30.7992 163.389 30.7992V30.7919ZM163.461 39.8674H159.465V33.4179H163.461C165.561 33.4179 166.751 35.1565 166.751 36.6427C166.751 38.1288 165.561 39.8674 163.461 39.8674ZM180.819 37.1621C178.784 37.1621 176.678 38.0566 175.805 40.0405L178.301 41.0794C178.835 40.0406 179.823 39.7015 180.869 39.7015C182.319 39.7015 183.798 40.5744 183.827 42.1254V42.3202C183.322 42.0317 182.225 41.5916 180.898 41.5916C178.207 41.5916 175.473 43.0705 175.473 45.8263C175.473 48.3441 177.673 49.9673 180.148 49.9673C182.038 49.9673 183.077 49.1232 183.733 48.1276H183.827V49.5777H186.54V42.3635C186.54 39.0233 184.043 37.1548 180.826 37.1548L180.819 37.1621ZM180.48 47.4784C179.556 47.4784 178.279 47.0166 178.279 45.8768C178.279 44.4267 179.881 43.8641 181.259 43.8641C182.492 43.8641 183.077 44.131 183.827 44.4917C183.611 46.2376 182.11 47.4712 180.487 47.4712L180.48 47.4784ZM196.416 37.5732L193.198 45.7325H193.104L189.764 37.5732H186.734L191.748 48.9789L188.891 55.3202H191.82L199.547 37.5732H196.423H196.416ZM171.108 49.6138H173.915V30.7919H171.108V49.6138Z" fill="var(--fill-0, #DDBBAE)"/>
<g id="Group_3">
<path id="Vector_10" d="M41.2959 33.6918L25.266 50.703C25.266 50.703 25.266 50.703 25.266 50.7102C25.7565 52.557 27.4446 53.9205 29.4502 53.9205C30.251 53.9205 31.0013 53.7041 31.6433 53.3217L31.6938 53.2929L49.7365 42.8828L41.2887 33.6918H41.2959Z" fill="var(--fill-0, #EA4335)"/>
<path id="Vector_11" d="M57.5133 30.792H57.4989L49.7075 26.2686L40.9351 34.0816L49.7436 42.8901L57.4916 38.4173C58.8479 37.6815 59.7713 36.2531 59.7713 34.601C59.7713 32.949 58.8623 31.535 57.5133 30.7992V30.792Z" fill="var(--fill-0, #FBBC04)"/>
<path id="Vector_12" d="M25.2663 18.4123C25.1725 18.7658 25.122 19.1409 25.122 19.5233V49.5848C25.122 49.9744 25.1725 50.3423 25.2663 50.6958L41.8445 34.1176L25.259 18.405L25.2663 18.4123Z" fill="var(--fill-0, #4285F4)"/>
<path id="Vector_13" d="M41.4183 34.5576L49.7146 26.2613L31.6936 15.8151C31.0371 15.4256 30.2724 15.1947 29.4572 15.1947C27.4516 15.1947 25.7635 16.5582 25.2729 18.405L41.4183 34.5504V34.5576Z" fill="var(--fill-0, #34A853)"/>
</g>
</g>
</svg>
