<svg preserveAspectRatio="xMidYMid meet" width="4" height="8" overflow="visible" style="display: block;" viewBox="0 0 4 8" fill="none" xmlns="http://www.w3.org/2000/svg">
<path id="Vector" d="M3.74045 0.757161C3.33097 0.757161 2.94508 0.835553 2.57497 0.985171C2.20487 1.13479 1.88201 1.36343 1.59853 1.66267C1.31504 1.9619 1.09457 2.33175 0.929201 2.77273C0.763834 3.21371 0.677207 3.71782 0.677207 4.29267V7.19068H0V0.119269H0.677207V2.12715C0.81895 1.81216 0.992179 1.52091 1.20479 1.25317C1.41741 0.985433 1.66151 0.756976 1.92925 0.567985C2.19698 0.378994 2.48834 0.237404 2.8112 0.135034C3.13406 0.040538 3.46482 -0.00703276 3.81918 0.000841872V0.749086H3.74829L3.74045 0.757161Z" fill="var(--fill-0, #781029)"/>
</svg>
