<svg preserveAspectRatio="xMidYMid meet" width="7" height="8" overflow="visible" style="display: block;" viewBox="0 0 7 8" fill="none" xmlns="http://www.w3.org/2000/svg">
<path id="Vector" d="M5.37839 7.07141V5.7564C5.13428 6.17376 4.81143 6.528 4.40982 6.81148C4.00034 7.09497 3.47274 7.24443 2.82702 7.24443C2.38604 7.24443 1.98442 7.17355 1.63794 7.0318C1.28358 6.89006 0.984331 6.6853 0.740218 6.42544C0.496104 6.16558 0.307103 5.85853 0.188984 5.50417C0.0629894 5.14981 0 4.75628 0 4.33105V0H0.677255V4.20493C0.677255 4.93727 0.874113 5.51998 1.25997 5.96096C1.64583 6.40194 2.20492 6.62231 2.92151 6.62231C3.26012 6.62231 3.58295 6.55951 3.88219 6.43352C4.18143 6.30752 4.44129 6.13416 4.66965 5.91367C4.89014 5.69318 5.06341 5.42562 5.18941 5.11851C5.3154 4.8114 5.37839 4.46469 5.37839 4.09458V0H6.0556V7.07141H5.37839Z" fill="var(--fill-0, #781029)"/>
</svg>
