<svg preserveAspectRatio="xMidYMid meet" width="68" height="68" overflow="visible" style="display: block;" viewBox="0 0 68 68" fill="none" xmlns="http://www.w3.org/2000/svg">
<g id="Group">
<path id="Vector" d="M35.2947 13.1661L35.7987 6.36231C35.7987 6.29144 35.7515 6.2285 35.6806 6.2285C35.6097 6.2285 35.5467 6.27567 35.5467 6.34654L35.0506 12.9931C35.1293 13.0482 35.216 13.111 35.2947 13.1661Z" fill="var(--fill-0, #781029)"/>
<path id="Vector_2" d="M36.7991 14.615L39.0277 0.559074C39.0355 0.488202 38.9883 0.425251 38.9174 0.409502C38.8465 0.401627 38.7835 0.448783 38.7678 0.51178L36.5786 14.3474C36.6495 14.434 36.7283 14.5207 36.7991 14.6073" fill="var(--fill-0, #781029)"/>
<path id="Vector_3" d="M33.7512 12.2214V0.12571C33.7433 0.0548385 33.6803 -2.24734e-05 33.6095 -2.24734e-05C33.5386 -2.24734e-05 33.4834 0.0548385 33.4834 0.12571V12.103C33.5779 12.1424 33.6646 12.1821 33.7512 12.2214Z" fill="var(--fill-0, #781029)"/>
<path id="Vector_4" d="M9.39551 46.6491C9.33252 46.6806 9.30889 46.7595 9.34039 46.8225C9.36401 46.8619 9.41127 46.8933 9.45064 46.8933C9.47427 46.8933 9.48998 46.8933 9.51361 46.8775L14.9078 43.9718C14.9078 43.8773 14.9078 43.7749 14.9078 43.6804L9.39551 46.6491Z" fill="var(--fill-0, #781029)"/>
<path id="Vector_5" d="M9.60774 20.45C9.54474 20.4185 9.46602 20.4422 9.43452 20.4973C9.40302 20.5603 9.42664 20.6392 9.48176 20.6707L14.7971 23.5764C14.7971 23.4819 14.7971 23.3871 14.805 23.2926L9.5999 20.45H9.60774Z" fill="var(--fill-0, #781029)"/>
<path id="Vector_6" d="M43.7681 14.9695L49.5402 4.11841C49.5717 4.05541 49.548 3.9765 49.485 3.945C49.422 3.9135 49.3433 3.93699 49.3118 3.99998L43.4846 14.9695C43.5791 14.9695 43.6736 14.9695 43.7759 14.9695" fill="var(--fill-0, #781029)"/>
<path id="Vector_7" d="M44.3589 8.45718L41.4689 15.1902C41.5713 15.1666 41.6736 15.1429 41.776 15.1272L44.5951 8.55946C44.6266 8.49646 44.5951 8.41774 44.5243 8.39412C44.4534 8.37049 44.3825 8.39438 44.3589 8.46525" fill="var(--fill-0, #781029)"/>
<path id="Vector_8" d="M37.9727 16.5683L40.2879 7.09491C40.3036 7.02404 40.2643 6.95301 40.1934 6.93726C40.1225 6.92151 40.0516 6.96098 40.0359 7.03185L37.7916 16.19C37.8546 16.3081 37.9097 16.4342 37.9649 16.5602" fill="var(--fill-0, #781029)"/>
<path id="Vector_9" d="M39.7917 15.7726L44.4299 1.90549C44.4535 1.83462 44.4141 1.76378 44.3511 1.74016C44.2802 1.71653 44.2094 1.7556 44.1858 1.81859L39.4689 15.9145C39.5712 15.8673 39.6814 15.8199 39.7838 15.7726" fill="var(--fill-0, #781029)"/>
<path id="Vector_10" d="M6.17435 33.5222C6.10348 33.5222 6.04838 33.5774 6.04838 33.6483C6.04838 33.7192 6.10348 33.774 6.17435 33.774L11.9307 33.7898C11.9307 33.7898 11.9307 33.774 11.9228 33.774C11.9622 33.6953 11.9937 33.6167 12.0331 33.538L6.17435 33.5222Z" fill="var(--fill-0, #781029)"/>
<path id="Vector_11" d="M7.52122 42.633C7.53697 42.6881 7.59206 42.7199 7.63931 42.7199C7.65506 42.7199 7.66297 42.7199 7.67872 42.7199L15.7187 39.9795C15.7659 39.8693 15.8211 39.7589 15.8762 39.6566L7.59995 42.4757C7.53695 42.4994 7.49759 42.5702 7.52122 42.6411" fill="var(--fill-0, #781029)"/>
<path id="Vector_12" d="M18.3172 10.7959C18.262 10.8353 18.2463 10.914 18.2857 10.977L21.9002 16.3947C21.9395 16.3002 21.9789 16.2135 22.0261 16.119L18.4983 10.8352C18.4589 10.78 18.3802 10.7643 18.3172 10.8036" fill="var(--fill-0, #781029)"/>
<path id="Vector_13" d="M11.8368 50.6496C11.8368 50.6496 11.8998 50.6969 11.9392 50.6969C11.9628 50.6969 11.9943 50.6888 12.0179 50.673L18.0972 45.9563C17.9869 45.9327 17.8767 45.9092 17.7743 45.8856L11.8605 50.4685C11.8054 50.5157 11.7975 50.5945 11.8368 50.6496Z" fill="var(--fill-0, #781029)"/>
<path id="Vector_14" d="M45.7135 18.2138L54.2024 7.14967C54.2418 7.09455 54.2339 7.01582 54.1788 6.96857C54.1237 6.92132 54.0449 6.93728 53.9976 6.99241L45.6348 17.8989C45.6663 18.0012 45.6899 18.1114 45.7135 18.2138Z" fill="var(--fill-0, #781029)"/>
<path id="Vector_15" d="M6.41043 38.1996C6.4183 38.2626 6.47345 38.31 6.53645 38.31C6.53645 38.31 6.55218 38.31 6.56005 38.31L14.4898 37.0107C14.4032 36.9399 14.3087 36.869 14.2221 36.7981L6.5128 38.0577C6.44193 38.0656 6.39468 38.1368 6.41043 38.2077" fill="var(--fill-0, #781029)"/>
<path id="Vector_16" d="M11.9547 16.6861C11.9074 16.7413 11.9231 16.82 11.9783 16.8672L17.9158 21.5367C18.026 21.513 18.1284 21.4895 18.2465 21.4659L12.1358 16.6623C12.0807 16.6151 12.0019 16.631 11.9547 16.6861Z" fill="var(--fill-0, #781029)"/>
<path id="Vector_17" d="M14.9235 13.6461C14.8762 13.591 14.7975 13.591 14.7423 13.6461C14.6872 13.6933 14.6872 13.7721 14.7423 13.8272L21.0657 20.5522C21.0657 20.4341 21.0735 20.3162 21.0814 20.198L14.9313 13.6542L14.9235 13.6461Z" fill="var(--fill-0, #781029)"/>
<path id="Vector_18" d="M14.9233 54.0196C14.9233 54.0196 14.9784 54.0511 15.0099 54.0511C15.0414 54.0511 15.0808 54.0355 15.1044 54.0119L21.3097 47.2869C21.3097 47.1609 21.3096 47.027 21.3254 46.8932L14.9233 53.8308C14.876 53.8859 14.876 53.9646 14.9233 54.0119" fill="var(--fill-0, #781029)"/>
<path id="Vector_19" d="M7.57649 24.6709C7.55287 24.7339 7.59222 24.813 7.65522 24.8366L15.7031 27.6396C15.648 27.5373 15.6007 27.4273 15.5535 27.317L7.74183 24.6001C7.67883 24.5765 7.60011 24.616 7.57649 24.679" fill="var(--fill-0, #781029)"/>
<path id="Vector_20" d="M6.59184 28.9941C6.52097 28.9863 6.45797 29.0255 6.44222 29.0964C6.42647 29.1673 6.47373 29.2302 6.5446 29.246L14.3641 30.5848C14.4507 30.514 14.5452 30.4431 14.6397 30.3722L6.58396 28.9941H6.59184Z" fill="var(--fill-0, #781029)"/>
<path id="Vector_21" d="M48.5634 10.5362C48.5004 10.4968 48.4216 10.5124 48.3901 10.5754L44.8937 16.0169C44.941 16.1036 44.9883 16.1901 45.0277 16.2846L48.6106 10.7173C48.65 10.6543 48.6342 10.5754 48.5712 10.5439" fill="var(--fill-0, #781029)"/>
<path id="Vector_22" d="M52.194 53.9882C52.194 53.9882 52.257 54.0278 52.2885 54.0278C52.32 54.0278 52.3515 54.0199 52.3751 53.9963C52.4302 53.949 52.4302 53.8703 52.3751 53.8152L46.1621 47.0979C46.1621 47.2239 46.1621 47.35 46.1621 47.4682L52.194 53.9882Z" fill="var(--fill-0, #781029)"/>
<path id="Vector_23" d="M59.683 24.6398C59.6594 24.5768 59.5885 24.5374 59.5176 24.561L51.5879 27.3329C51.5406 27.4431 51.4934 27.5452 51.4382 27.6555L59.6043 24.8052C59.6673 24.7815 59.7066 24.7107 59.683 24.6398Z" fill="var(--fill-0, #781029)"/>
<path id="Vector_24" d="M47.1935 21.2771L58.3125 10.9059C58.3676 10.8587 58.3676 10.7799 58.3125 10.7248C58.2652 10.6697 58.1864 10.6697 58.1313 10.7248L46.8233 21.269C46.9415 21.269 47.0675 21.2692 47.1856 21.2771" fill="var(--fill-0, #781029)"/>
<path id="Vector_25" d="M55.3047 16.6546C55.2575 16.5995 55.1788 16.5914 55.1236 16.6308L48.9735 21.4817C49.0838 21.5053 49.194 21.5288 49.2964 21.5525L55.2811 16.8357C55.3362 16.7885 55.3441 16.7098 55.3047 16.6546Z" fill="var(--fill-0, #781029)"/>
<path id="Vector_26" d="M52.194 13.4967C52.2413 13.4416 52.2413 13.3629 52.1861 13.3156C52.131 13.2684 52.0523 13.2686 52.005 13.3237L45.9258 20.0171C45.9258 20.1431 45.9258 20.2768 45.9258 20.4028L52.2019 13.4967H52.194Z" fill="var(--fill-0, #781029)"/>
<path id="Vector_27" d="M54.3595 32.0494L67.14 30.9313C67.2109 30.9313 67.266 30.8602 67.2581 30.7894C67.2581 30.7185 67.1873 30.6713 67.1164 30.6713L54.1705 31.8052C54.2335 31.884 54.2965 31.963 54.3595 32.0417" fill="var(--fill-0, #781029)"/>
<path id="Vector_28" d="M57.8239 20.466C57.7924 20.403 57.7136 20.3793 57.6506 20.4187L52.3431 23.3325C52.351 23.4269 52.351 23.5213 52.3589 23.6158L57.7766 20.6471C57.8396 20.6156 57.8633 20.537 57.8239 20.4741" fill="var(--fill-0, #781029)"/>
<path id="Vector_29" d="M60.8323 29.0649C60.8165 28.9941 60.7535 28.9469 60.6827 28.9627L52.6112 30.3488C52.7057 30.4197 52.7923 30.4902 52.8868 30.5611L60.7299 29.2145C60.8008 29.2066 60.848 29.1358 60.8323 29.0649Z" fill="var(--fill-0, #781029)"/>
<path id="Vector_30" d="M48.7053 56.8312C48.7053 56.8312 48.7526 56.831 48.7762 56.8073C48.8313 56.768 48.8549 56.6894 48.8155 56.6343L45.2326 51.1694C45.1853 51.256 45.1459 51.3423 45.0987 51.4289L48.6029 56.7681C48.6029 56.7681 48.6659 56.8231 48.7132 56.8231" fill="var(--fill-0, #781029)"/>
<path id="Vector_31" d="M51.0525 29.3646L66.219 25.435C66.2899 25.4192 66.3293 25.3482 66.3135 25.2773C66.2978 25.2065 66.2269 25.1674 66.156 25.1831L50.7139 29.1831C50.832 29.2382 50.9422 29.3014 51.0603 29.3565" fill="var(--fill-0, #781029)"/>
<path id="Vector_32" d="M61.1 33.7425C61.1709 33.7425 61.226 33.6876 61.226 33.6168C61.226 33.5459 61.1709 33.4906 61.1 33.4906L55.2649 33.5141C55.2649 33.5141 55.2964 33.5772 55.3121 33.6087C55.2885 33.6638 55.2649 33.7189 55.2334 33.774L61.1 33.7506V33.7425Z" fill="var(--fill-0, #781029)"/>
<path id="Vector_33" d="M52.1465 25.6395L64.3994 20.1826C64.4624 20.1511 64.4939 20.0803 64.4624 20.0173C64.4309 19.9543 64.3601 19.9227 64.2971 19.9542L52.2174 25.3327C52.1938 25.435 52.178 25.5371 52.1544 25.6395" fill="var(--fill-0, #781029)"/>
<path id="Vector_34" d="M51.2412 22.2457L61.746 15.2923C61.8011 15.253 61.8248 15.1741 61.7854 15.1189C61.746 15.0559 61.6673 15.0403 61.6122 15.0797L50.9814 22.1196C51.0759 22.159 51.1625 22.2061 51.2491 22.2534" fill="var(--fill-0, #781029)"/>
<path id="Vector_35" d="M59.6513 42.6884C59.7064 42.6884 59.7536 42.6566 59.7693 42.6015C59.793 42.5306 59.7536 42.4598 59.6906 42.4361L51.4774 39.6485C51.5325 39.7509 51.5798 39.8612 51.627 39.9715L59.6118 42.6803C59.6118 42.6803 59.6355 42.6803 59.6513 42.6803" fill="var(--fill-0, #781029)"/>
<path id="Vector_36" d="M57.7768 46.8459C57.7768 46.8459 57.8162 46.8616 57.8398 46.8616C57.887 46.8616 57.9264 46.8381 57.95 46.7909C57.9815 46.7279 57.9579 46.649 57.8949 46.6175L52.4771 43.7041C52.4771 43.7986 52.4771 43.9006 52.4771 43.9951L57.7768 46.8382V46.8459Z" fill="var(--fill-0, #781029)"/>
<path id="Vector_37" d="M60.7297 38.2703C60.7297 38.2703 60.7455 38.2703 60.7533 38.2703C60.8163 38.2703 60.8715 38.2234 60.8794 38.1604C60.8872 38.0895 60.84 38.0265 60.777 38.0108L52.926 36.735C52.8315 36.8059 52.737 36.8768 52.6425 36.9476L60.7297 38.2626V38.2703Z" fill="var(--fill-0, #781029)"/>
<path id="Vector_38" d="M55.3597 50.673C55.3597 50.673 55.4385 50.6576 55.4621 50.6261C55.5015 50.5709 55.4936 50.4918 55.4384 50.4446L49.4144 45.7829C49.3041 45.8065 49.1938 45.8302 49.0836 45.8459L55.2888 50.6414C55.2888 50.6414 55.3361 50.6653 55.3676 50.6653" fill="var(--fill-0, #781029)"/>
<path id="Vector_39" d="M29.2399 50.5944L26.7751 60.335C26.7593 60.4059 26.7987 60.4769 26.8696 60.4927C26.8775 60.4927 26.8932 60.4927 26.9011 60.4927C26.9562 60.4927 27.0113 60.4532 27.027 60.3981L29.421 50.9566C29.358 50.8385 29.3028 50.7204 29.2477 50.5944" fill="var(--fill-0, #781029)"/>
<path id="Vector_40" d="M36.7357 52.9411L39.0824 66.9185C39.0902 66.9815 39.1453 67.0285 39.2083 67.0285C39.2083 67.0285 39.2241 67.0285 39.2319 67.0285C39.3028 67.0128 39.3501 66.9498 39.3343 66.8789L36.9483 52.6969C36.8774 52.7835 36.8065 52.8621 36.7278 52.9487" fill="var(--fill-0, #781029)"/>
<path id="Vector_41" d="M35.2326 54.3425L35.7995 61.1225C35.7995 61.1855 35.8626 61.2409 35.9256 61.2409H35.9335C36.0043 61.2409 36.0594 61.1699 36.0515 61.099L35.4688 54.1457C35.3901 54.2087 35.3113 54.2796 35.2247 54.3425" fill="var(--fill-0, #781029)"/>
<path id="Vector_42" d="M38.1302 50.8463C38.0751 50.9644 38.0121 51.0825 37.957 51.1927L40.2958 60.3904C40.3115 60.4456 40.3587 60.4846 40.4217 60.4846C40.4296 60.4846 40.4454 60.4846 40.4533 60.4846C40.5241 60.4689 40.5635 60.3982 40.5478 60.3274L38.1381 50.8463H38.1302Z" fill="var(--fill-0, #781029)"/>
<path id="Vector_43" d="M33.5231 55.067V67.3595C33.5309 67.4304 33.5861 67.4853 33.657 67.4853C33.7278 67.4853 33.7829 67.4304 33.7829 67.3595V55.1773C33.6884 55.1379 33.6018 55.1063 33.5152 55.067" fill="var(--fill-0, #781029)"/>
<path id="Vector_44" d="M30.3814 52.5159L27.9875 66.8791C27.9796 66.9499 28.0269 67.0129 28.0899 67.0286C28.0899 67.0286 28.1056 67.0286 28.1135 67.0286C28.1765 67.0286 28.2316 66.9817 28.2395 66.9187L30.594 52.7835C30.5231 52.6969 30.4522 52.6023 30.3814 52.5078" fill="var(--fill-0, #781029)"/>
<path id="Vector_45" d="M22.7115 58.9413L25.6803 52.1694C25.5779 52.193 25.4755 52.2163 25.3732 52.232L22.4753 58.839C22.4438 58.902 22.4753 58.9807 22.5383 59.0043C22.5541 59.0043 22.5698 59.0124 22.5934 59.0124C22.6407 59.0124 22.6879 58.9808 22.7115 58.9336" fill="var(--fill-0, #781029)"/>
<path id="Vector_46" d="M27.3656 51.6105L22.5936 65.4933C22.57 65.5563 22.6094 65.6351 22.6723 65.6587C22.6881 65.6587 22.7038 65.6587 22.7117 65.6587C22.7668 65.6587 22.8141 65.6273 22.8299 65.5722L27.6806 51.4528C27.5782 51.5079 27.468 51.5551 27.3578 51.6024" fill="var(--fill-0, #781029)"/>
<path id="Vector_47" d="M31.8382 54.0278L31.2555 61.1069C31.2555 61.1778 31.3027 61.2409 31.3736 61.2488H31.3814C31.4444 61.2488 31.4995 61.2016 31.5074 61.1307L32.0744 54.2247C31.9957 54.1617 31.909 54.0985 31.8303 54.0355" fill="var(--fill-0, #781029)"/>
<path id="Vector_48" d="M39.8861 51.4527C39.7759 51.3976 39.6656 51.3502 39.5633 51.2951L44.4849 65.564C44.5007 65.6191 44.5557 65.6505 44.603 65.6505C44.6187 65.6505 44.6345 65.6505 44.6424 65.6505C44.7054 65.6269 44.7448 65.556 44.7211 65.4852L39.8782 51.4604L39.8861 51.4527Z" fill="var(--fill-0, #781029)"/>
<path id="Vector_49" d="M47.2171 45.9955C47.0832 45.9955 46.9572 45.9876 46.8233 45.9797L58.3518 56.5397C58.3518 56.5397 58.4069 56.5713 58.4384 56.5713C58.4699 56.5713 58.5093 56.5557 58.5329 56.5321C58.5802 56.4769 58.5802 56.3978 58.525 56.3506L47.2171 45.9955Z" fill="var(--fill-0, #781029)"/>
<path id="Vector_50" d="M41.8861 52.1298C41.7838 52.1062 41.6735 52.0827 41.5711 52.0591L44.595 58.9255C44.6186 58.9728 44.6658 59.0044 44.7131 59.0044C44.7288 59.0044 44.7446 59.0045 44.7682 58.9967C44.8312 58.9652 44.8627 58.8943 44.8312 58.8313L41.8861 52.1379V52.1298Z" fill="var(--fill-0, #781029)"/>
<path id="Vector_51" d="M66.2897 41.7355L50.9578 37.9163C50.8318 37.9714 50.7058 38.0263 50.5798 38.0735C50.5798 38.0735 50.5798 38.0737 50.5798 38.0816L66.2267 41.9793C66.2267 41.9793 66.2503 41.9793 66.2582 41.9793C66.3133 41.9793 66.3685 41.9402 66.3842 41.8851C66.4 41.8142 66.3606 41.7432 66.2897 41.7275" fill="var(--fill-0, #781029)"/>
<path id="Vector_52" d="M67.164 36.2391L54.3756 35.239C54.3126 35.3178 54.2575 35.4041 54.1945 35.4828L67.1483 36.4987C67.2191 36.4987 67.2743 36.4515 67.2822 36.3806C67.2822 36.3097 67.2349 36.2468 67.164 36.2468" fill="var(--fill-0, #781029)"/>
<path id="Vector_53" d="M61.9113 51.9329L51.3435 45.0741C51.2569 45.1214 51.1703 45.1607 51.0758 45.2079L61.7696 52.1455C61.7696 52.1455 61.8168 52.1694 61.8404 52.1694C61.8798 52.1694 61.9271 52.1455 61.9507 52.114C61.99 52.051 61.9743 51.9725 61.9113 51.941" fill="var(--fill-0, #781029)"/>
<path id="Vector_54" d="M64.5255 47.0194L52.2174 41.6725C52.241 41.7749 52.2646 41.877 52.2883 41.9793L64.4231 47.2478C64.4231 47.2478 64.4546 47.2555 64.4704 47.2555C64.5176 47.2555 64.5648 47.2239 64.5884 47.1767C64.6199 47.1137 64.5885 47.035 64.5255 47.0113" fill="var(--fill-0, #781029)"/>
<path id="Vector_55" d="M23.3886 52.3897L17.5142 63.2331C17.4827 63.2961 17.5063 63.375 17.5693 63.4065C17.585 63.4144 17.6086 63.4223 17.6323 63.4223C17.6795 63.4223 17.7189 63.3986 17.7425 63.3592L23.6878 52.3897C23.5934 52.3897 23.4989 52.3897 23.3965 52.3897" fill="var(--fill-0, #781029)"/>
<path id="Vector_56" d="M43.8865 52.319C43.792 52.319 43.6896 52.319 43.5951 52.319L49.5877 63.3435C49.6113 63.3829 49.6586 63.4066 49.698 63.4066C49.7216 63.4066 49.7373 63.4066 49.761 63.3908C49.824 63.3593 49.8476 63.2804 49.8082 63.2174L43.8865 52.319Z" fill="var(--fill-0, #781029)"/>
<path id="Vector_57" d="M45.9253 49.2481C45.9017 49.3504 45.8781 49.4606 45.8466 49.563L54.2488 60.3037C54.2488 60.3037 54.3118 60.351 54.3512 60.351C54.3748 60.351 54.4063 60.3433 54.4299 60.3275C54.4851 60.2803 54.4929 60.2016 54.4535 60.1464L45.9332 49.2481H45.9253Z" fill="var(--fill-0, #781029)"/>
<path id="Vector_58" d="M2.85932 20.2218L14.9862 25.6003C14.9626 25.4979 14.9468 25.3954 14.9232 25.2931L2.96164 19.9858C2.89865 19.9543 2.81993 19.9858 2.79631 20.0488C2.76481 20.1118 2.79632 20.1905 2.85932 20.2142" fill="var(--fill-0, #781029)"/>
<path id="Vector_59" d="M5.51296 15.3239L15.9626 22.2219C16.0492 22.1825 16.1437 22.1351 16.2382 22.0958L5.65469 15.1113C5.59957 15.0719 5.51293 15.0875 5.48143 15.1505C5.44205 15.2135 5.45779 15.2922 5.52079 15.3316" fill="var(--fill-0, #781029)"/>
<path id="Vector_60" d="M21.2943 18.4184C21.3179 18.3081 21.3416 18.1981 21.3652 18.0958L12.8291 7.35466C12.7818 7.29953 12.7031 7.29144 12.648 7.33082C12.5928 7.37807 12.585 7.45718 12.6243 7.5123L21.2943 18.4184Z" fill="var(--fill-0, #781029)"/>
<path id="Vector_61" d="M25.0897 15.0718C25.192 15.0875 25.2944 15.1114 25.3968 15.1271L22.4753 8.64633C22.4438 8.58333 22.3729 8.55177 22.302 8.58327C22.239 8.61477 22.2076 8.68561 22.2391 8.74861L25.0818 15.0718H25.0897Z" fill="var(--fill-0, #781029)"/>
<path id="Vector_62" d="M20.0889 21.3084C20.2227 21.3084 20.3487 21.3162 20.4826 21.3241L9.11162 10.7487C9.0565 10.7015 8.97777 10.7015 8.93052 10.7487C8.88328 10.8039 8.88328 10.8826 8.93052 10.9298L20.081 21.3007L20.0889 21.3084Z" fill="var(--fill-0, #781029)"/>
<path id="Vector_63" d="M23.097 14.9694C23.1915 14.9694 23.286 14.9615 23.3805 14.9536L17.4588 4.26785C17.4273 4.20486 17.3485 4.18119 17.2855 4.22056C17.2225 4.25206 17.1989 4.33059 17.2383 4.39358L23.097 14.9694Z" fill="var(--fill-0, #781029)"/>
<path id="Vector_64" d="M21.4986 49.098L12.8601 60.1698C12.8207 60.2249 12.8286 60.3037 12.8837 60.3509C12.9074 60.3667 12.931 60.3747 12.9625 60.3747C13.0018 60.3747 13.0412 60.3589 13.0648 60.3274L21.5773 49.4133C21.5537 49.3109 21.5222 49.2006 21.4986 49.0903" fill="var(--fill-0, #781029)"/>
<path id="Vector_65" d="M30.3737 14.4496L27.9325 0.606281C27.9168 0.535409 27.8538 0.487869 27.7829 0.503619C27.712 0.519368 27.6648 0.582319 27.6805 0.653191L30.1532 14.7095C30.2241 14.6229 30.2949 14.5362 30.3658 14.4496" fill="var(--fill-0, #781029)"/>
<path id="Vector_66" d="M31.8696 13.0323L31.2554 6.37811C31.2554 6.30724 31.1845 6.25219 31.1136 6.26007C31.0427 6.26007 30.9876 6.33108 30.9955 6.40195L31.6176 13.2215C31.6963 13.1585 31.7751 13.0953 31.8617 13.0323" fill="var(--fill-0, #781029)"/>
<path id="Vector_67" d="M28.9717 16.4895C29.0347 16.3871 29.0898 16.2769 29.1528 16.1745L26.7747 7.14986C26.759 7.07899 26.6881 7.0399 26.6172 7.05565C26.5463 7.0714 26.507 7.14204 26.5227 7.21292L28.9638 16.4895H28.9717Z" fill="var(--fill-0, #781029)"/>
<path id="Vector_68" d="M27.1135 15.678C27.2238 15.7252 27.334 15.7724 27.4364 15.8276L22.5463 2.00774C22.5226 1.94474 22.4517 1.90529 22.3809 1.92892C22.3179 1.95254 22.2785 2.02338 22.3021 2.09425L27.1135 15.678Z" fill="var(--fill-0, #781029)"/>
<path id="Vector_69" d="M15.8291 45.1763L5.3873 51.9724C5.33218 52.0118 5.30857 52.0904 5.34794 52.1455C5.37156 52.1848 5.41095 52.2008 5.4582 52.2008C5.48182 52.2008 5.50542 52.2006 5.52904 52.177L16.0968 45.3025C16.0023 45.2631 15.9157 45.2157 15.8291 45.1763Z" fill="var(--fill-0, #781029)"/>
<path id="Vector_70" d="M16.034 38.0185L0.993379 41.7824C0.922507 41.7981 0.883138 41.8692 0.898887 41.94C0.914636 41.9952 0.961911 42.0346 1.02491 42.0346C1.03278 42.0346 1.04851 42.0346 1.05639 42.0346L16.3726 38.1996C16.2623 38.1445 16.1442 38.0815 16.034 38.0185Z" fill="var(--fill-0, #781029)"/>
<path id="Vector_71" d="M15.1512 41.6644L2.77221 47.0586C2.70922 47.0901 2.67775 47.161 2.70925 47.224C2.73288 47.2712 2.7801 47.3028 2.82734 47.3028C2.84309 47.3028 2.85884 47.3026 2.87459 47.2947L15.0882 41.9716C15.1118 41.8693 15.1275 41.7668 15.1512 41.6644Z" fill="var(--fill-0, #781029)"/>
<path id="Vector_72" d="M18.53 56.8231C18.53 56.8231 18.5773 56.847 18.6009 56.847C18.6403 56.847 18.6796 56.8231 18.7111 56.7916L22.3098 51.2951C22.2626 51.2085 22.2232 51.122 22.176 51.0275L18.4985 56.6501C18.4592 56.7052 18.4749 56.7916 18.5379 56.8231" fill="var(--fill-0, #781029)"/>
<path id="Vector_73" d="M19.8842 46.1923L8.78095 56.382C8.72583 56.4292 8.72582 56.508 8.77307 56.5631C8.7967 56.5867 8.83607 56.6027 8.86756 56.6027C8.89906 56.6027 8.9306 56.5948 8.95422 56.5712L20.2464 46.208C20.1204 46.208 20.0023 46.208 19.8842 46.1923Z" fill="var(--fill-0, #781029)"/>
<path id="Vector_74" d="M1.0481 25.4821L16.254 29.3955C16.3721 29.3404 16.4982 29.2774 16.6242 29.2302L1.119 25.2379C1.04813 25.2221 0.977244 25.2616 0.961495 25.3325C0.945746 25.4034 0.985115 25.474 1.05599 25.4897" fill="var(--fill-0, #781029)"/>
<path id="Vector_75" d="M12.7895 35.2783L0.119181 36.286C0.0483096 36.286 -0.00678402 36.3572 0.00109061 36.4202C0.00109061 36.4911 0.0640666 36.5383 0.127064 36.5383C0.127064 36.5383 0.127071 36.5383 0.134946 36.5383L12.9706 35.5143C12.9076 35.4356 12.8446 35.3572 12.7816 35.2706" fill="var(--fill-0, #781029)"/>
<path id="Vector_76" d="M0.13462 30.9705L12.9151 32.0732C12.9781 31.9945 13.0411 31.9078 13.1041 31.8291L0.158219 30.7109C0.0873472 30.7109 0.0243558 30.7581 0.0164812 30.829C0.0164812 30.8999 0.0637482 30.9626 0.13462 30.9705Z" fill="var(--fill-0, #781029)"/>
</g>
</svg>
