<svg preserveAspectRatio="xMidYMid meet" width="70" height="76" overflow="visible" style="display: block;" viewBox="0 0 70 76" fill="none" xmlns="http://www.w3.org/2000/svg">
<g id="Group">
<path id="Vector" d="M34.8 56.02C24.47 56.02 16.0601 47.6103 16.0601 37.2803C16.0601 26.9503 24.47 18.54 34.8 18.54C45.13 18.54 53.54 26.9503 53.54 37.2803C53.54 47.6103 45.13 56.02 34.8 56.02ZM34.8 18.9204C24.68 18.9204 16.4399 27.1603 16.4399 37.2803C16.4399 47.4003 24.68 55.6401 34.8 55.6401C44.92 55.6401 53.16 47.4103 53.16 37.2803C53.16 27.1503 44.92 18.9204 34.8 18.9204Z" fill="var(--fill-0, #781029)"/>
<path id="Vector_2" d="M34.8 74.5703C24.47 74.5703 16.0601 66.1601 16.0601 55.8301C16.0601 45.5001 24.47 37.0903 34.8 37.0903C45.13 37.0903 53.54 45.5001 53.54 55.8301C53.54 66.1601 45.13 74.5703 34.8 74.5703ZM34.8 37.4702C24.68 37.4702 16.4399 45.7101 16.4399 55.8301C16.4399 65.9501 24.68 74.1904 34.8 74.1904C44.92 74.1904 53.16 65.9601 53.16 55.8301C53.16 45.7001 44.92 37.4702 34.8 37.4702Z" fill="var(--fill-0, #781029)"/>
<path id="Vector_3" d="M34.8 37.4805C24.47 37.4805 16.0601 29.0702 16.0601 18.7402C16.0601 8.41023 24.47 0 34.8 0C45.13 0 53.54 8.41023 53.54 18.7402C53.54 29.0702 45.13 37.4805 34.8 37.4805ZM34.8 0.380371C24.68 0.380371 16.4399 8.62023 16.4399 18.7402C16.4399 28.8602 24.68 37.1001 34.8 37.1001C44.92 37.1001 53.16 28.8602 53.16 18.7402C53.16 8.62023 44.92 0.380371 34.8 0.380371Z" fill="var(--fill-0, #781029)"/>
<path id="Vector_4" d="M50.86 46.75C40.53 46.75 32.12 38.3403 32.12 28.0103C32.12 17.6803 40.53 9.27002 50.86 9.27002C61.19 9.27002 69.6 17.6803 69.6 28.0103C69.6 38.3403 61.19 46.75 50.86 46.75ZM50.86 9.65039C40.74 9.65039 32.5 17.8903 32.5 28.0103C32.5 38.1303 40.74 46.3701 50.86 46.3701C60.98 46.3701 69.22 38.1403 69.22 28.0103C69.22 17.8803 60.98 9.65039 50.86 9.65039Z" fill="var(--fill-0, #781029)"/>
<path id="Vector_5" d="M50.86 65.29C40.53 65.29 32.12 56.8803 32.12 46.5503C32.12 36.2203 40.53 27.8101 50.86 27.8101C61.19 27.8101 69.6 36.2203 69.6 46.5503C69.6 56.8803 61.19 65.29 50.86 65.29ZM50.86 28.1904C40.74 28.1904 32.5 36.4203 32.5 46.5503C32.5 56.6803 40.74 64.9102 50.86 64.9102C60.98 64.9102 69.22 56.6803 69.22 46.5503C69.22 36.4203 60.98 28.1904 50.86 28.1904Z" fill="var(--fill-0, #781029)"/>
<path id="Vector_6" d="M18.74 65.3003C8.40999 65.3003 0 56.8901 0 46.5601C0 36.2301 8.40999 27.8203 18.74 27.8203C29.07 27.8203 37.48 36.2301 37.48 46.5601C37.48 56.8901 29.07 65.3003 18.74 65.3003ZM18.74 28.2002C8.61999 28.2002 0.380005 36.4401 0.380005 46.5601C0.380005 56.6801 8.61999 64.9204 18.74 64.9204C28.86 64.9204 37.1 56.6901 37.1 46.5601C37.1 36.4301 28.86 28.2002 18.74 28.2002Z" fill="var(--fill-0, #781029)"/>
<path id="Vector_7" d="M18.74 46.75C8.40999 46.75 0 38.3403 0 28.0103C0 17.6803 8.40999 9.27002 18.74 9.27002C29.07 9.27002 37.48 17.6803 37.48 28.0103C37.48 38.3403 29.07 46.75 18.74 46.75ZM18.74 9.65039C8.61999 9.65039 0.380005 17.8903 0.380005 28.0103C0.380005 38.1303 8.61999 46.3701 18.74 46.3701C28.86 46.3701 37.1 38.1403 37.1 28.0103C37.1 17.8803 28.86 9.65039 18.74 9.65039Z" fill="var(--fill-0, #781029)"/>
<path id="Vector_8" d="M34.84 74.79L34.6801 74.5103L2.46997 18.7202H67.22L67.0601 19.0103L34.85 74.8003L34.84 74.79ZM3.13 19.1001L34.85 74.04L66.5699 19.1104H3.14001L3.13 19.1001Z" fill="var(--fill-0, #781029)"/>
<path id="Vector_9" d="M50.71 46.7305L34.73 19.02L34.89 18.9302L34.72 18.8403L34.88 18.52L51.04 46.54L50.71 46.7305Z" fill="var(--fill-0, #781029)"/>
<path id="Vector_10" d="M18.39 47.1001L18.6801 46.54L34.72 18.8101L35.0699 18.9702L34.89 18.9102L35.05 19L19.01 46.7305L18.9 46.6704L18.98 46.7803L18.39 47.1001Z" fill="var(--fill-0, #781029)"/>
<path id="Vector_11" d="M50.89 46.8501L18.84 46.8403L18.86 46.4702H18.9301H50.89V46.8501Z" fill="var(--fill-0, #781029)"/>
<path id="Vector_12" d="M19.39 46.5C19.39 46.92 19.05 47.2603 18.63 47.2603C18.21 47.2603 17.87 46.92 17.87 46.5C17.87 46.08 18.21 45.7402 18.63 45.7402C19.05 45.7402 19.39 46.08 19.39 46.5Z" fill="var(--fill-0, #781029)"/>
<path id="Vector_13" d="M19.54 65.1104C19.54 65.5304 19.2 65.8701 18.78 65.8701C18.36 65.8701 18.02 65.5304 18.02 65.1104C18.02 64.6904 18.36 64.3501 18.78 64.3501C19.2 64.3501 19.54 64.6904 19.54 65.1104Z" fill="var(--fill-0, #781029)"/>
<path id="Vector_14" d="M51.64 65.1104C51.64 65.5304 51.3 65.8701 50.88 65.8701C50.46 65.8701 50.12 65.5304 50.12 65.1104C50.12 64.6904 50.46 64.3501 50.88 64.3501C51.3 64.3501 51.64 64.6904 51.64 65.1104Z" fill="var(--fill-0, #781029)"/>
<path id="Vector_15" d="M51.65 46.5801C51.65 47.0001 51.31 47.3403 50.89 47.3403C50.47 47.3403 50.13 47.0001 50.13 46.5801C50.13 46.1601 50.47 45.8203 50.89 45.8203C51.31 45.8203 51.65 46.1601 51.65 46.5801Z" fill="var(--fill-0, #781029)"/>
<path id="Vector_16" d="M10.27 30.5C10.27 30.92 9.93001 31.2603 9.51001 31.2603C9.09001 31.2603 8.75 30.92 8.75 30.5C8.75 30.08 9.09001 29.7402 9.51001 29.7402C9.93001 29.7402 10.27 30.08 10.27 30.5Z" fill="var(--fill-0, #781029)"/>
<path id="Vector_17" d="M3.46997 37.3203C3.46997 37.7403 3.12996 38.0801 2.70996 38.0801C2.28996 38.0801 1.94995 37.7403 1.94995 37.3203C1.94995 36.9003 2.28996 36.5601 2.70996 36.5601C3.12996 36.5601 3.46997 36.9003 3.46997 37.3203Z" fill="var(--fill-0, #781029)"/>
<path id="Vector_18" d="M67.67 37.3203C67.67 37.7403 67.33 38.0801 66.91 38.0801C66.49 38.0801 66.15 37.7403 66.15 37.3203C66.15 36.9003 66.49 36.5601 66.91 36.5601C67.33 36.5601 67.67 36.9003 67.67 37.3203Z" fill="var(--fill-0, #781029)"/>
<path id="Vector_19" d="M17.01 18.8501C17.01 19.2701 16.67 19.6104 16.25 19.6104C15.83 19.6104 15.49 19.2701 15.49 18.8501C15.49 18.4301 15.83 18.0903 16.25 18.0903C16.67 18.0903 17.01 18.4301 17.01 18.8501Z" fill="var(--fill-0, #781029)"/>
<path id="Vector_20" d="M54.14 18.8901C54.14 19.3101 53.8 19.6504 53.38 19.6504C52.96 19.6504 52.62 19.3101 52.62 18.8901C52.62 18.4701 52.96 18.1304 53.38 18.1304C53.8 18.1304 54.14 18.4701 54.14 18.8901Z" fill="var(--fill-0, #781029)"/>
<path id="Vector_21" d="M60.9301 30.54C60.9301 30.96 60.59 31.3003 60.17 31.3003C59.75 31.3003 59.41 30.96 59.41 30.54C59.41 30.12 59.75 29.7803 60.17 29.7803C60.59 29.7803 60.9301 30.12 60.9301 30.54Z" fill="var(--fill-0, #781029)"/>
<path id="Vector_22" d="M35.61 55.8501C35.61 56.2701 35.27 56.6104 34.85 56.6104C34.43 56.6104 34.09 56.2701 34.09 55.8501C34.09 55.4301 34.43 55.0903 34.85 55.0903C35.27 55.0903 35.61 55.4301 35.61 55.8501Z" fill="var(--fill-0, #781029)"/>
<path id="Vector_23" d="M35.63 74.4204C35.63 74.8404 35.29 75.1802 34.87 75.1802C34.45 75.1802 34.11 74.8404 34.11 74.4204C34.11 74.0004 34.45 73.6602 34.87 73.6602C35.29 73.6602 35.63 74.0004 35.63 74.4204Z" fill="var(--fill-0, #781029)"/>
<path id="Vector_24" d="M35.53 37.3003C35.53 37.7203 35.19 38.0601 34.77 38.0601C34.35 38.0601 34.01 37.7203 34.01 37.3003C34.01 36.8803 34.35 36.54 34.77 36.54C35.19 36.54 35.53 36.8803 35.53 37.3003Z" fill="var(--fill-0, #781029)"/>
<path id="Vector_25" d="M3.45996 18.8501C3.45996 19.2701 3.11995 19.6104 2.69995 19.6104C2.27995 19.6104 1.93994 19.2701 1.93994 18.8501C1.93994 18.4301 2.27995 18.0903 2.69995 18.0903C3.11995 18.0903 3.45996 18.4301 3.45996 18.8501Z" fill="var(--fill-0, #781029)"/>
<path id="Vector_26" d="M67.6899 18.9102C67.6899 19.3302 67.3501 19.6704 66.9301 19.6704C66.5101 19.6704 66.17 19.3302 66.17 18.9102C66.17 18.4902 66.5101 18.1504 66.9301 18.1504C67.3501 18.1504 67.6899 18.4902 67.6899 18.9102Z" fill="var(--fill-0, #781029)"/>
<path id="Vector_27" d="M35.5699 18.77C35.5699 19.19 35.2301 19.5303 34.8101 19.5303C34.3901 19.5303 34.05 19.19 34.05 18.77C34.05 18.35 34.3901 18.0103 34.8101 18.0103C35.2301 18.0103 35.5699 18.35 35.5699 18.77Z" fill="var(--fill-0, #781029)"/>
</g>
</svg>
