<svg preserveAspectRatio="xMidYMid meet" width="10" height="12" overflow="visible" style="display: block;" viewBox="0 0 10 12" fill="none" xmlns="http://www.w3.org/2000/svg">
<path id="Vector" d="M0.630009 10.4104C0.212654 9.97733 0 9.37883 0 8.60711C0 7.98502 0.165379 7.48109 0.503988 7.07948C0.842597 6.67788 1.23634 6.36292 1.70095 6.12668C2.15768 5.89044 2.7719 5.64638 3.52787 5.38651C4.29958 5.12665 4.86654 4.88221 5.23665 4.66172C5.60676 4.44123 5.79577 4.14996 5.79577 3.77198V2.4962C5.79577 1.70086 5.63039 1.14996 5.29178 0.858597C4.95317 0.559361 4.48066 0.417571 3.88219 0.417571C2.92148 0.417571 2.23642 0.661639 1.84269 1.15774C2.1183 1.22861 2.34667 1.3702 2.53566 1.59069C2.72465 1.81118 2.81125 2.08702 2.81125 2.41776C2.81125 2.74849 2.70102 3.03181 2.48053 3.22868C2.26004 3.42554 1.97655 3.52782 1.63794 3.52782C1.25208 3.52782 0.960738 3.40973 0.771747 3.16562C0.582756 2.92151 0.480389 2.63025 0.480389 2.29164C0.480389 1.95303 0.559126 1.68545 0.716619 1.46496C0.874111 1.24447 1.11032 1.02372 1.42531 0.803228C1.75604 0.566989 2.17343 0.378013 2.68528 0.228395C3.18925 0.0787771 3.74835 0 4.3547 0C5.42565 0 6.23671 0.252158 6.78793 0.764009C7.13442 1.07899 7.36278 1.46462 7.4809 1.9056C7.59902 2.35445 7.65417 2.93736 7.65417 3.6697V9.40227C7.65417 9.74875 7.70141 9.99282 7.79591 10.1424C7.8904 10.2921 8.05577 10.3708 8.29201 10.3708C8.45738 10.3708 8.61485 10.3317 8.75659 10.2609C8.89833 10.1821 9.05585 10.0796 9.22121 9.93788L9.44956 10.2924C9.0952 10.568 8.78811 10.7649 8.53613 10.883C8.28414 11.0011 7.96125 11.056 7.57539 11.056C6.91393 11.056 6.4572 10.8907 6.19733 10.56C5.93747 10.2293 5.8036 9.78027 5.8036 9.22117C5.39412 9.90626 4.91377 10.3869 4.3783 10.6546C3.84282 10.9223 3.23648 11.056 2.56714 11.056C1.70093 11.056 1.0552 10.8435 0.637844 10.4104M5.79577 8.67017V4.63019C5.66977 4.81918 5.49651 4.98463 5.2839 5.10275C5.06341 5.22874 4.72478 5.3944 4.27592 5.59914C3.7562 5.81963 3.33098 6.03209 3.00812 6.22896C2.68526 6.42583 2.40965 6.70147 2.17341 7.04795C1.93717 7.39444 1.82692 7.83517 1.82692 8.37065C1.82692 8.98487 1.97655 9.45756 2.28366 9.77255C2.5829 10.0875 2.98452 10.2451 3.48062 10.2451C4.38621 10.2451 5.16576 9.72519 5.81148 8.67786" fill="var(--fill-0, #781029)"/>
</svg>
