<svg preserveAspectRatio="xMidYMid meet" width="11" height="15" overflow="visible" style="display: block;" viewBox="0 0 11 15" fill="none" xmlns="http://www.w3.org/2000/svg">
<path id="Vector" d="M8.90621 2.11016C8.73297 1.94479 8.64633 1.70861 8.64633 1.38575C8.64633 1.11014 8.71721 0.795184 8.85108 0.432951C8.49672 0.582569 8.21323 0.755919 8.00849 0.937035C7.80375 1.12603 7.61474 1.3543 7.44937 1.62991C7.76436 2.11026 7.92188 2.72455 7.92188 3.46476C7.92188 4.55146 7.59114 5.36263 6.92967 5.90598C6.2682 6.44933 5.3941 6.71689 4.3074 6.71689H4.2838C3.82707 6.97676 3.48847 7.22081 3.25223 7.4413C3.01599 7.66179 2.89786 7.90586 2.89786 8.18147C2.89786 8.62245 3.2286 8.8432 3.89007 8.8432H6.46504C7.40213 8.8432 8.17385 9.04796 8.78807 9.44956C9.40229 9.85117 9.70939 10.4653 9.70939 11.2763C9.70939 11.9378 9.49678 12.5521 9.07155 13.1112C8.64632 13.6782 8.01634 14.127 7.19738 14.4735C6.37054 14.82 5.37835 14.9853 4.20503 14.9853C3.03171 14.9853 2.00801 14.8042 1.20479 14.442C0.401581 14.0797 0 13.5363 0 12.8197C0 12.3551 0.188968 11.9458 0.566951 11.5993C0.944933 11.2528 1.47253 10.9851 2.14188 10.7961L2.2679 11.1268C1.96866 11.2213 1.72451 11.4181 1.5434 11.7016C1.36228 11.9851 1.27569 12.3158 1.27569 12.6702C1.27569 13.3001 1.55915 13.7884 2.134 14.127C2.70097 14.4657 3.47272 14.6311 4.43342 14.6311C5.48862 14.6311 6.40205 14.4264 7.15802 14.0248C7.91398 13.6153 8.29197 12.9929 8.29197 12.1346C8.29197 11.6384 8.11874 11.2528 7.76438 10.9772C7.41002 10.7016 6.78793 10.5677 5.89809 10.5677H4.37041C3.55933 10.5677 2.91358 10.4652 2.42535 10.2605C1.93713 10.0557 1.69302 9.63852 1.69302 9.0243C1.69302 8.59907 1.85053 8.18956 2.15764 7.81158C2.46475 7.42572 2.97661 7.04778 3.69321 6.67767C2.78762 6.58318 2.06315 6.26804 1.5198 5.73256C0.976449 5.19709 0.708688 4.44122 0.708688 3.46476C0.708688 2.37806 1.03943 1.5669 1.7009 1.02355C2.36237 0.480199 3.23647 0.212631 4.32317 0.212631C5.61461 0.212631 6.57532 0.566881 7.18955 1.28347C7.44941 0.913365 7.7801 0.606316 8.18171 0.362202C8.58332 0.118089 8.97706 0 9.37867 0C9.7409 0 10.0244 0.102093 10.2449 0.306834C10.4654 0.511574 10.5756 0.811103 10.5756 1.19696C10.5756 1.58282 10.4732 1.87426 10.2527 2.06325C10.0401 2.25224 9.80392 2.35432 9.54405 2.35432C9.29994 2.35432 9.08733 2.27552 8.91409 2.11016M5.56737 5.70911C5.85086 5.27601 5.99259 4.52765 5.99259 3.47245C5.99259 2.41725 5.85086 1.66928 5.56737 1.23618C5.28389 0.803074 4.86652 0.590598 4.32317 0.590598C3.77982 0.590598 3.35457 0.810949 3.07896 1.23618C2.79547 1.66928 2.65375 2.41725 2.65375 3.47245C2.65375 4.52765 2.79547 5.27601 3.07896 5.70911C3.36245 6.14222 3.77982 6.35469 4.32317 6.35469C4.86652 6.35469 5.29176 6.13434 5.56737 5.70911Z" fill="var(--fill-0, #781029)"/>
</svg>
