<svg preserveAspectRatio="xMidYMid meet" width="13" height="15" overflow="visible" style="display: block;" viewBox="0 0 13 15" fill="none" xmlns="http://www.w3.org/2000/svg">
<path id="Vector" d="M8.76447 14.4343L5.66975 9.81177H3.1735V14.4343H0V0H6.59895C8.31562 0 9.65433 0.417433 10.6072 1.26002C11.56 2.1026 12.0403 3.26782 12.0403 4.764V4.8036C12.0403 5.96905 11.7568 6.92179 11.182 7.662C10.615 8.40222 9.86691 8.93774 8.94557 9.28423L12.4734 14.442H8.76447V14.4343ZM8.82748 4.92934C8.82748 4.24424 8.60697 3.72455 8.16599 3.38594C7.72501 3.03946 7.11078 2.87417 6.33119 2.87417H3.1735V7.01642H6.3942C7.17379 7.01642 7.78017 6.82746 8.19752 6.45735C8.61488 6.08725 8.82748 5.59104 8.82748 4.96894V4.92934Z" fill="var(--fill-0, #781029)"/>
</svg>
