<svg preserveAspectRatio="xMidYMid meet" width="116" height="125" overflow="visible" style="display: block;" viewBox="0 0 116 125" fill="none" xmlns="http://www.w3.org/2000/svg">
<g id="Group">
<path id="Vector" d="M88.5031 62.6507C88.5031 79.7308 74.6044 93.6294 57.5243 93.6294C40.4442 93.6294 26.5455 79.7308 26.5455 62.6507C26.5455 45.5706 40.4442 31.6716 57.5243 31.6716C74.6044 31.6716 88.5031 45.5706 88.5031 62.6507ZM87.8731 62.6507C87.8731 45.9171 74.2579 32.3018 57.5243 32.3018C40.7907 32.3018 27.1754 45.9171 27.1754 62.6507C27.1754 79.3843 40.7907 92.9996 57.5243 92.9996C74.2579 92.9996 87.8731 79.3843 87.8731 62.6507Z" fill="var(--fill-0, #781029)"/>
<path id="Vector_2" d="M88.5031 31.9865C88.5031 49.0666 74.6044 62.9656 57.5243 62.9656C40.4442 62.9656 26.5455 49.0666 26.5455 31.9865C26.5455 14.9064 40.4442 1.01591 57.5243 1.01591C74.6044 1.01591 88.5031 14.9143 88.5031 31.9865ZM87.8731 31.9865C87.8731 15.2529 74.2579 1.63804 57.5243 1.63804C40.7907 1.63804 27.1754 15.2529 27.1754 31.9865C27.1754 48.7201 40.7907 62.3354 57.5243 62.3354C74.2579 62.3354 87.8731 48.7201 87.8731 31.9865Z" fill="var(--fill-0, #781029)"/>
<path id="Vector_3" d="M88.5031 93.2986C88.5031 110.379 74.6044 124.277 57.5243 124.277C40.4442 124.277 26.5455 110.379 26.5455 93.2986C26.5455 76.2185 40.4442 62.3195 57.5243 62.3195C74.6044 62.3195 88.5031 76.2185 88.5031 93.2986ZM87.8731 93.2986C87.8731 76.565 74.2579 62.9497 57.5243 62.9497C40.7907 62.9497 27.1754 76.565 27.1754 93.2986C27.1754 110.032 40.7907 123.647 57.5243 123.647C74.2579 123.647 87.8731 110.032 87.8731 93.2986Z" fill="var(--fill-0, #781029)"/>
<path id="Vector_4" d="M115.048 77.9747C115.048 95.0548 101.15 108.953 84.0696 108.953C66.9895 108.953 53.0908 95.0548 53.0908 77.9747C53.0908 60.8947 66.9895 46.9957 84.0696 46.9957C101.15 46.9957 115.048 60.8947 115.048 77.9747ZM114.426 77.9747C114.426 61.2411 100.811 47.6259 84.0775 47.6259C67.3439 47.6259 53.7287 61.2411 53.7287 77.9747C53.7287 94.7083 67.3439 108.324 84.0775 108.324C100.811 108.324 114.426 94.7083 114.426 77.9747Z" fill="var(--fill-0, #781029)"/>
<path id="Vector_5" d="M115.048 47.3187C115.048 64.3987 101.15 78.2974 84.0696 78.2974C66.9895 78.2974 53.0908 64.3987 53.0908 47.3187C53.0908 30.2386 66.9895 16.34 84.0696 16.34C101.15 16.34 115.048 30.2386 115.048 47.3187ZM114.426 47.3187C114.426 30.5851 100.811 16.9698 84.0775 16.9698C67.3439 16.9698 53.7287 30.5851 53.7287 47.3187C53.7287 64.0523 67.3439 77.6675 84.0775 77.6675C100.811 77.6675 114.426 64.0523 114.426 47.3187Z" fill="var(--fill-0, #781029)"/>
<path id="Vector_6" d="M61.9578 47.311C61.9578 64.3911 48.059 78.2897 30.9789 78.2897C13.8989 78.2897 0.000150958 64.3911 0.000150958 47.311C0.000150958 30.2309 13.8989 16.34 30.9789 16.34C48.059 16.34 61.9578 30.2388 61.9578 47.311ZM61.3278 47.311C61.3278 30.5774 47.7125 16.9621 30.9789 16.9621C14.2453 16.9621 0.630112 30.5774 0.630112 47.311C0.630112 64.0446 14.2453 77.6595 30.9789 77.6595C47.7125 77.6595 61.3278 64.0446 61.3278 47.311Z" fill="var(--fill-0, #781029)"/>
<path id="Vector_7" d="M61.9578 77.9747C61.9578 95.0548 48.059 108.953 30.9789 108.953C13.8989 108.953 0.000150958 95.0548 0.000150958 77.9747C0.000150958 60.8947 13.8989 46.9957 30.9789 46.9957C48.059 46.9957 61.9578 60.8947 61.9578 77.9747ZM61.3278 77.9747C61.3278 61.2411 47.7125 47.6259 30.9789 47.6259C14.2453 47.6259 0.630112 61.2411 0.630112 77.9747C0.630112 94.7083 14.2453 108.324 30.9789 108.324C47.7125 108.324 61.3278 94.7083 61.3278 77.9747Z" fill="var(--fill-0, #781029)"/>
<path id="Vector_8" d="M110.836 92.8576L111.104 93.3301H4.61498H4.07163L57.5877 0.63782L110.836 92.8576ZM110.025 92.6999L57.5955 1.88976L5.16622 92.6999H110.033H110.025Z" fill="var(--fill-0, #781029)"/>
<path id="Vector_9" d="M83.8175 47.0194L57.3981 92.8338L57.6658 92.9914L57.3981 93.1568L57.6816 93.5978L84.3608 47.3343L83.8175 47.0194Z" fill="var(--fill-0, #781029)"/>
<path id="Vector_10" d="M30.3176 46.3576L57.3985 93.1805L57.9655 92.9364L57.6741 93.0148L57.9339 92.8652L31.42 47.0193L31.2783 47.0982L31.3728 46.9405L30.3176 46.3576Z" fill="var(--fill-0, #781029)"/>
<path id="Vector_11" d="M84.1248 46.8303H31.2703L31.1364 46.8384L31.1679 47.4605L31.286 47.4525L84.1248 47.4605V46.8303Z" fill="var(--fill-0, #781029)"/>
<path id="Vector_12" d="M32.0422 47.405C32.0422 46.712 31.4752 46.1453 30.7822 46.1453C30.0893 46.1453 29.5223 46.712 29.5223 47.405C29.5223 48.0979 30.0893 48.665 30.7822 48.665C31.4752 48.665 32.0422 48.0979 32.0422 47.405Z" fill="var(--fill-0, #781029)"/>
<path id="Vector_13" d="M32.2936 16.6468C32.2936 15.9459 31.7266 15.3872 31.0336 15.3872C30.3407 15.3872 29.7737 15.9538 29.7737 16.6468C29.7737 17.3398 30.3407 17.9068 31.0336 17.9068C31.7266 17.9068 32.2936 17.3398 32.2936 16.6468Z" fill="var(--fill-0, #781029)"/>
<path id="Vector_14" d="M85.3691 16.6468C85.3691 15.9459 84.8022 15.3872 84.1092 15.3872C83.4162 15.3872 82.8492 15.9538 82.8492 16.6468C82.8492 17.3398 83.4162 17.9068 84.1092 17.9068C84.8022 17.9068 85.3691 17.3398 85.3691 16.6468Z" fill="var(--fill-0, #781029)"/>
<path id="Vector_15" d="M85.3769 47.2713C85.3769 46.5784 84.8099 46.0113 84.117 46.0113C83.424 46.0113 82.857 46.5784 82.857 47.2713C82.857 47.9643 83.424 48.5313 84.117 48.5313C84.8099 48.5313 85.3769 47.9643 85.3769 47.2713Z" fill="var(--fill-0, #781029)"/>
<path id="Vector_16" d="M16.9698 73.8639C16.9698 73.163 16.4028 72.6038 15.7098 72.6038C15.0169 72.6038 14.4499 73.1709 14.4499 73.8639C14.4499 74.5568 15.0169 75.1239 15.7098 75.1239C16.4028 75.1239 16.9698 74.5568 16.9698 73.8639Z" fill="var(--fill-0, #781029)"/>
<path id="Vector_17" d="M5.72528 62.5876C5.72528 61.8867 5.15833 61.3275 4.46536 61.3275C3.77239 61.3275 3.20539 61.8946 3.20539 62.5876C3.20539 63.2805 3.77239 63.8476 4.46536 63.8476C5.15833 63.8476 5.72528 63.2805 5.72528 62.5876Z" fill="var(--fill-0, #781029)"/>
<path id="Vector_18" d="M111.851 62.5876C111.851 61.8867 111.284 61.3275 110.591 61.3275C109.898 61.3275 109.331 61.8946 109.331 62.5876C109.331 63.2805 109.898 63.8476 110.591 63.8476C111.284 63.8476 111.851 63.2805 111.851 62.5876Z" fill="var(--fill-0, #781029)"/>
<path id="Vector_19" d="M28.1204 93.1095C28.1204 92.4086 27.5534 91.8495 26.8605 91.8495C26.1675 91.8495 25.6005 92.4165 25.6005 93.1095C25.6005 93.8024 26.1675 94.3695 26.8605 94.3695C27.5534 94.3695 28.1204 93.8024 28.1204 93.1095Z" fill="var(--fill-0, #781029)"/>
<path id="Vector_20" d="M89.488 93.0388C89.488 92.3458 88.921 91.7788 88.2281 91.7788C87.5351 91.7788 86.9681 92.3458 86.9681 93.0388C86.9681 93.7318 87.5351 94.2988 88.2281 94.2988C88.921 94.2988 89.488 93.7318 89.488 93.0388Z" fill="var(--fill-0, #781029)"/>
<path id="Vector_21" d="M100.725 73.7932C100.725 73.1002 100.158 72.5332 99.4648 72.5332C98.7718 72.5332 98.2048 73.1002 98.2048 73.7932C98.2048 74.4861 98.7718 75.0532 99.4648 75.0532C100.158 75.0532 100.725 74.4861 100.725 73.7932Z" fill="var(--fill-0, #781029)"/>
<path id="Vector_22" d="M58.8629 31.9473C58.8629 31.2464 58.2959 30.6872 57.6029 30.6872C56.91 30.6872 56.343 31.2543 56.343 31.9473C56.343 32.6402 56.91 33.2073 57.6029 33.2073C58.2959 33.2073 58.8629 32.6402 58.8629 31.9473Z" fill="var(--fill-0, #781029)"/>
<path id="Vector_23" d="M58.8947 1.26002C58.8947 0.567051 58.3277 0 57.6348 0C56.9418 0 56.3748 0.567051 56.3748 1.26002C56.3748 1.95299 56.9418 2.51965 57.6348 2.51965C58.3277 2.51965 58.8947 1.95299 58.8947 1.26002Z" fill="var(--fill-0, #781029)"/>
<path id="Vector_24" d="M58.7215 62.6191C58.7215 61.9183 58.1545 61.3591 57.4616 61.3591C56.7686 61.3591 56.2017 61.9261 56.2017 62.6191C56.2017 63.3121 56.7686 63.8787 57.4616 63.8787C58.1545 63.8787 58.7215 63.3121 58.7215 62.6191Z" fill="var(--fill-0, #781029)"/>
<path id="Vector_25" d="M5.71692 93.1095C5.71692 92.4086 5.14997 91.8495 4.457 91.8495C3.76403 91.8495 3.19708 92.4165 3.19708 93.1095C3.19708 93.8024 3.76403 94.3695 4.457 94.3695C5.14997 94.3695 5.71692 93.8024 5.71692 93.1095Z" fill="var(--fill-0, #781029)"/>
<path id="Vector_26" d="M111.891 93.0149C111.891 92.322 111.324 91.7553 110.631 91.7553C109.938 91.7553 109.371 92.322 109.371 93.0149C109.371 93.7079 109.938 94.275 110.631 94.275C111.324 94.275 111.891 93.7079 111.891 93.0149Z" fill="var(--fill-0, #781029)"/>
<path id="Vector_27" d="M58.7846 93.2434C58.7846 92.5425 58.2177 91.9837 57.5247 91.9837C56.8318 91.9837 56.2647 92.5504 56.2647 93.2434C56.2647 93.9363 56.8318 94.5034 57.5247 94.5034C58.2177 94.5034 58.7846 93.9363 58.7846 93.2434Z" fill="var(--fill-0, #781029)"/>
</g>
</svg>
