<svg preserveAspectRatio="xMidYMid meet" width="5" height="16" overflow="visible" style="display: block;" viewBox="0 0 5 16" fill="none" xmlns="http://www.w3.org/2000/svg">
<path id="Vector" d="M3.41756 13.8594C3.41756 14.4264 3.53569 14.8123 3.77193 15.0249C4.00817 15.2375 4.40977 15.3478 4.99249 15.3478V15.7808C3.72468 15.7257 2.89785 15.702 2.49625 15.702C2.09464 15.702 1.26782 15.7257 0 15.7808V15.3478C0.574848 15.3478 0.98432 15.2454 1.22056 15.0249C1.4568 14.8123 1.57493 14.4264 1.57493 13.8594V7.40208C1.57493 6.77211 1.4568 6.30751 1.22056 6.02402C0.98432 5.73266 0.582723 5.59107 0 5.59107V5.15773C0.44098 5.19711 0.866206 5.22079 1.27569 5.22079C2.1419 5.22079 2.85847 5.12659 3.41756 4.92972V13.8594ZM3.26794 0.393732C3.52781 0.653595 3.66168 0.960844 3.66168 1.32308C3.66168 1.68531 3.52781 1.99218 3.26794 2.25204C3.00808 2.5119 2.70098 2.64577 2.33874 2.64577C1.97651 2.64577 1.66941 2.5119 1.40954 2.25204C1.14968 1.99218 1.01581 1.68531 1.01581 1.32308C1.01581 0.960844 1.14968 0.653595 1.40954 0.393732C1.66941 0.133869 1.97651 0 2.33874 0C2.70098 0 3.00808 0.133869 3.26794 0.393732Z" fill="var(--fill-0, #781029)"/>
</svg>
