<svg preserveAspectRatio="xMidYMid meet" width="30" height="30" overflow="visible" style="display: block;" viewBox="0 0 30 30" fill="none" xmlns="http://www.w3.org/2000/svg">
<path id="Vector" d="M23.079 16.0894C23.079 16.0894 25.1343 14.4515 23.7956 10.5457C22.5908 7.25406 20.315 6.50605 19.5275 4.52164C18.7637 2.57661 18.118 0.332274 14.0232 0.521265C14.5823 0.83625 15.2122 1.11186 15.5823 1.11186C16.2202 1.11186 16.6612 1.22986 16.9762 1.57634C17.2912 1.92283 17.299 2.54491 17.3778 2.93864C17.4487 3.28512 17.5747 3.57653 17.5747 3.57653C17.5747 3.57653 17.8187 4.13555 18.0392 4.6789C18.4645 5.7341 17.8581 6.14386 17.8581 6.14386C18.2676 5.56901 17.7085 4.24578 17.4407 3.87568C17.173 3.50557 17.1022 3.30083 16.921 2.49761C16.7399 1.6944 16.1415 1.53712 16.1415 1.53712C15.9603 1.48988 15.2831 1.45056 15.1571 1.40332C12.7947 0.56073 12.9916 0.0329146 11.9049 0.00141609C11.3458 -0.0143332 10.8733 0.103817 10.5504 0.229811C10.4244 0.300683 10.3142 0.37157 10.2276 0.442442C10.0937 0.552687 9.99925 0.655149 9.94413 0.733896C9.84176 0.875639 9.70785 0.993528 9.56611 1.08802C8.88889 1.53688 7.26674 2.93072 8.11721 5.4506C8.11721 5.4506 8.63691 7.82871 12.6766 9.75012C13.1255 9.96274 13.5428 10.1677 13.9366 10.3488C13.5507 10.9394 12.9837 11.9947 12.8341 13.3806C12.7632 14.05 12.8184 14.6877 12.9522 15.2704C12.5743 15.0185 12.1805 14.7193 11.7632 14.3649C7.62111 10.845 5.21146 11.3174 4.36887 11.3804C3.52629 11.4434 -0.426781 12.5538 0.0378221 16.121C0.541799 19.9638 4.78624 19.3336 6.05406 19.4438C7.18013 19.5383 9.7315 19.6251 12.7396 21.3418C14.0389 21.9245 15.417 21.7196 16.5824 21.2156C16.8502 21.0975 20.882 18.6407 23.8428 19.7195C26.8037 20.7905 27.4258 23.0428 26.4179 25.1926C25.4099 27.3423 20.8426 28.4445 17.1179 26.8302C12.6609 24.9009 10.7001 27.161 10.1804 28.0744C9.66063 28.9879 9.99138 29.8228 10.4875 29.8228C10.4875 29.8228 10.8103 29.8464 10.9442 29.4133C11.078 28.9802 11.2277 28.0666 12.9837 27.6964C14.7398 27.3263 16.3698 28.2162 17.2124 28.4997C18.0629 28.7832 20.0787 29.4998 22.701 29.1533C25.3233 28.8068 29.426 26.7675 29.9536 21.8143C30.0008 16.6722 23.8034 16.0656 23.0947 16.0971M23.2995 15.3412C22.6774 16.2861 21.5986 16.1367 21.5986 16.1367C20.7324 15.9399 21.1182 14.8531 21.6379 14.8452C22.1577 14.8373 23.3389 14.3807 23.5987 13.9712C23.6853 13.8373 23.9216 14.4043 23.2995 15.3493M23.6617 13.4198C23.1814 14.2939 21.5749 14.4357 21.5749 14.4357C21.1261 14.4278 20.7245 13.4279 21.4883 13.0342C22.575 12.9397 23.5121 12.2308 23.6145 12.1364C23.7169 12.0419 24.1342 12.5379 23.6538 13.4198M22.9688 10.278C23.142 10.0261 23.5672 10.4591 23.6775 10.9552C23.7877 11.4513 23.5751 11.9395 22.8034 12.3175C22.0317 12.6954 21.512 12.5931 21.512 12.5931C21.512 12.5931 20.8583 12.5852 20.6378 12.2859C20.3701 11.9316 20.3229 11.5773 21.1182 11.3962C21.9136 11.2151 22.7955 10.53 22.9688 10.278ZM22.7089 9.3091C22.8034 9.59258 22.89 10.1442 21.9214 10.6718C21.2836 11.0183 20.7717 11.1599 20.3386 11.1993C19.3779 11.3017 18.6456 10.341 19.3937 10.278C20.1418 10.215 21.3151 9.3959 21.6931 8.90768C22.0711 8.41945 22.6144 9.02561 22.7089 9.3091ZM21.449 8.64006C21.2757 8.89992 21.0001 9.13587 20.7323 9.32486C20.1654 9.71859 19.4488 9.89999 19.0078 10.0024C18.748 10.0654 18.3148 10.0731 18.0392 9.87624C17.6376 9.58488 17.488 9.02583 17.9999 8.9392C17.9999 8.9392 19.4645 8.77374 20.7481 7.46656C20.9135 7.29331 21.9844 7.82877 21.449 8.63199M16.7005 13.3964C16.6218 12.6877 16.4407 12.0653 16.2202 11.5534C17.6691 12.4039 18.2912 13.1363 18.2912 14.3569C18.2912 15.4436 17.5431 16.42 16.1729 16.4593C16.5352 15.6089 16.8265 14.5618 16.7005 13.3964ZM18.8897 6.07273C19.0551 5.89949 20.7875 6.67123 20.252 7.48232C20.0788 7.74218 19.5512 8.02562 19.1259 8.22249C18.496 8.50598 17.8817 8.72657 17.2596 8.72657C16.9919 8.72657 16.4486 8.67928 16.1808 8.48241C15.7792 8.19105 15.6296 7.632 16.1415 7.54538C16.1415 7.54538 17.6061 7.37992 18.8897 6.07273ZM14.0389 6.19885C14.3066 5.95473 14.913 5.93123 14.913 5.93123C14.913 5.93123 15.2201 6.04917 15.4091 6.13579C15.8344 6.33265 16.4801 6.90755 16.6454 6.97055C16.4486 7.00992 15.4879 7.26172 14.7634 7.1751C14.3618 7.12785 14.0625 6.86038 13.9523 6.65564C13.8342 6.45877 13.9208 6.30122 14.0389 6.19885ZM13.0861 5.74206C12.3695 5.54519 12.4719 4.9073 12.4719 4.9073C12.5349 4.61594 13.5743 4.74196 13.5743 4.74196C13.9444 5.51368 14.3776 5.6317 14.3776 5.6317C14.3776 5.6317 13.7948 5.93911 13.0861 5.73437M14.9603 3.9072C14.9603 3.9072 15.3697 3.88373 15.3068 4.45858C15.3068 4.45858 14.9367 4.35617 14.8737 4.21442C14.8107 4.07268 14.9524 3.9072 14.9524 3.9072M14.1964 4.02525C14.4326 4.86783 15.2989 5.03342 15.2989 5.03342C15.9997 5.20666 16.1415 5.71057 16.5824 6.15155C17.0155 6.58466 17.6691 6.35611 17.6691 6.35611C17.6691 6.35611 17.1967 6.64778 16.7242 6.47454C16.2596 6.30129 15.9052 5.65537 15.4406 5.48213C14.976 5.30889 14.2358 4.99398 14.1334 4.57663C13.8421 3.41118 12.968 2.24576 12.968 2.24576C13.2908 2.4505 13.9602 3.17479 14.1885 4.02525M13.2751 3.86799C13.346 4.12785 13.4011 4.26172 13.4011 4.26172C13.4011 4.26172 12.4089 4.45065 12.1648 4.00179C11.9207 3.55294 12.1018 3.35615 12.1648 3.29315C12.4168 3.08054 12.8577 3.1905 12.9444 3.20625C12.9444 3.20625 13.2121 3.60025 13.283 3.86799M12.6845 2.78907C12.6845 2.78907 11.5505 2.71827 11.6608 1.88356C11.6608 1.88356 12.4246 2.31659 12.6845 2.78907ZM12.5113 9.38023C8.32196 7.19108 7.82583 4.21439 8.8889 2.4111C9.38501 1.57639 9.96774 1.13532 10.5268 1.13532C11.4639 1.13532 11.9207 1.54481 11.9207 1.54481C11.9207 1.54481 11.3537 1.38754 10.8182 1.37179C10.0307 1.34816 8.96764 2.02532 8.77865 3.67112C8.48729 6.26187 10.2827 7.75018 11.6057 8.59277C12.5664 9.20699 13.8263 9.94702 15.1571 10.5691L14.3381 10.2465C13.7554 9.9709 13.2279 9.75014 12.5113 9.37216M13.653 12.7819C13.8657 11.9157 14.2121 11.3488 14.4405 11.0417C14.5823 10.8527 14.7634 10.6402 14.7634 10.6402C14.7634 10.6402 14.9288 10.8448 15.0626 11.0101C15.291 11.3094 15.6532 11.8844 15.8737 12.7742C15.9288 12.9947 15.9761 13.2149 16.0076 13.4433C15.7477 13.0338 15.291 12.7585 14.7634 12.7585C14.2358 12.7585 13.7791 13.0338 13.5192 13.4433C13.5507 13.2149 13.5979 12.9947 13.653 12.7742M14.7634 12.9473C15.48 12.9473 16.0627 13.5299 16.0627 14.2465C16.0627 14.9631 15.48 15.5461 14.7634 15.5461C14.0468 15.5461 13.4641 14.9631 13.4641 14.2465C13.4641 13.5299 14.0468 12.9473 14.7634 12.9473ZM16.0233 14.9871C15.9288 15.6958 15.6768 16.5068 15.1807 17.499C15.0784 17.7038 14.7634 18.2626 14.7634 18.2626C14.7634 18.2626 14.4405 17.7038 14.3381 17.499C13.842 16.5147 13.5901 15.7035 13.4956 14.9948C13.7555 15.4279 14.2201 15.7192 14.7634 15.7192C15.3068 15.7192 15.7713 15.4279 16.0233 14.9948M27.9613 24.9799C27.1975 26.736 25.2918 28.1691 22.6223 28.6258C19.9528 29.0825 16.606 27.4996 16.606 27.4996C16.606 27.4996 14.1964 26.2397 12.1569 27.2162C10.1174 28.1927 10.3851 29.3187 10.3851 29.3187L10.3457 29.3817C9.88901 28.2714 11.6608 26.6097 13.5901 26.4837C15.5194 26.3499 15.9131 27.1767 18.9763 27.8303C22.0474 28.4838 24.2681 27.9012 26.2368 26.1058C27.8432 24.6332 27.2132 22.145 27.1344 21.5859C27.0557 21.0268 27.4494 21.4282 27.5676 20.9715C27.6857 20.5226 25.4808 17.8375 21.9844 17.7982C18.4881 17.7509 17.299 18.8377 16.7084 19.4046C16.1257 19.9716 16.3383 20.7039 16.3383 20.7039C16.3383 20.7039 15.1886 21.1607 14.3224 21.1607C13.4562 21.1607 12.653 20.7273 12.653 20.7273C13.5192 19.9005 12.9995 18.7982 12.086 18.5541C11.1725 18.3179 9.62126 18.1998 6.44779 18.0266C5.47133 17.9714 3.14045 17.7038 2.07737 16.3651C1.53402 15.7037 1.06938 14.4594 1.64423 13.5932C3.43177 10.8844 7.31398 12.1049 8.10144 12.4278C8.88103 12.7507 9.55826 13.0499 11.708 14.7902C12.6609 15.5619 13.1412 16.1918 13.3381 16.4832C13.3617 16.5383 13.3853 16.5853 13.4089 16.6404C11.8655 15.6246 8.1723 14.4276 6.7155 14.4276C5.25869 14.4276 4.2429 14.9948 4.2429 14.9948C6.32968 14.9081 9.08576 15.5144 11.6844 16.8373C12.5585 17.2783 13.3223 17.5621 13.9759 17.7274C14.0704 17.8928 14.1571 18.0346 14.2279 18.1527C14.3461 19.326 13.9602 19.3103 13.7082 19.3339C13.3853 19.3575 13.1412 18.7432 13.6846 18.6802C13.6846 18.6802 13.3932 18.5382 13.1964 18.8217C12.9916 19.1052 13.2672 19.6407 13.7948 19.6249C14.3066 19.6171 14.7476 19.1446 14.7476 18.2942H14.7555C14.7555 19.1368 15.1571 19.6486 15.7477 19.6407C16.2832 19.6407 16.4879 19.0975 16.2911 18.814C16.0863 18.5305 15.8265 18.6721 15.8265 18.6721C16.3698 18.7351 16.1572 19.3181 15.8265 19.3181C15.5351 19.3181 15.1571 19.3181 15.2831 18.1527C15.3225 18.0818 15.3697 18.0028 15.417 17.9162C15.9761 17.9162 16.4013 17.7982 16.7163 17.6486C17.5274 17.2549 24.1106 15.0813 27.3471 17.8374C30.5835 20.5935 29.5205 23.3023 29.5205 23.3023C29.5205 23.3023 28.7173 23.2316 27.9613 24.9876" fill="var(--fill-0, #781029)"/>
</svg>
