<svg preserveAspectRatio="xMidYMid meet" width="729" height="51" overflow="visible" style="display: block;" viewBox="0 0 729 51" fill="none" xmlns="http://www.w3.org/2000/svg">
<g id="Group">
<path id="Vector" d="M24.5945 9.45269C24.5945 4.95389 23.4345 4.12306 20.2211 2.35176V1.80316H35.1126V2.35176C31.8992 4.12306 30.8019 4.95389 30.8019 9.45269V35.2071C30.8019 44.769 24.1085 50.3024 15.0953 50.3024C6.08199 50.3024 7.0259e-06 45.0512 7.0259e-06 38.2795C7.0259e-06 34.1883 2.86856 31.5235 6.42684 31.5235C7.86897 31.5235 9.02894 31.931 9.78135 32.6207C7.80627 33.9218 6.36415 35.7558 6.36415 39.2513C6.36415 44.1734 9.92244 47.6533 15.1109 47.6533C21.867 47.6533 24.6101 42.6058 24.6101 34.8779V9.46838L24.5945 9.45269Z" fill="var(--fill-0, white)"/>
<path id="Vector_2" d="M51.3205 2.35176V1.80316H66.212V2.35176C62.9986 4.12306 61.8386 4.95389 61.8386 9.45269V41.9631C61.8386 46.4776 62.9986 47.2928 66.212 49.0641V49.6127H51.3205V49.0641C54.534 47.2928 55.6312 46.4619 55.6312 41.9631V9.45269C55.6312 4.95389 54.534 4.12306 51.3205 2.35176Z" fill="var(--fill-0, white)"/>
<path id="Vector_3" d="M117.031 8.90372C117.642 7.53998 117.783 7.19507 117.783 6.30158C117.783 4.85945 116.42 3.98169 113.41 2.33579V1.7871H126.248V2.33579C123.238 4.45195 122.282 5.47083 120.37 9.57775L101.795 50.2863H101.45L82.8746 9.57775C81.0249 5.48651 80.0688 4.45195 77.0748 2.33579V1.7871H91.9663V2.33579C89.1604 3.55846 88.2826 4.3892 88.2826 5.81565C88.2826 6.70914 88.6275 7.38317 89.1761 8.74691L103.174 40.1602L117.031 8.88803V8.90372Z" fill="var(--fill-0, white)"/>
<path id="Vector_4" d="M137.66 49.6122H124.822V49.0636C127.832 46.9475 128.992 45.9286 130.904 41.8217L150.028 0.987566H150.373L169.496 41.8217C171.471 45.9129 172.302 46.9475 175.296 49.0636V49.6122H160.405V49.0636C163.273 47.841 164.167 47.0101 164.167 45.5837C164.167 44.6902 163.9 44.0161 163.211 42.6524L159.119 33.8429H138.083L134.117 42.5897C133.506 43.8908 133.302 44.6431 133.302 45.4582C133.302 46.9004 134.666 47.6372 137.676 49.0793V49.6279L137.66 49.6122ZM139.369 31.0371H157.803L148.523 11.0198L139.369 31.0371Z" fill="var(--fill-0, white)"/>
<path id="Vector_5" d="M228.968 1.80316H240.788V2.35176C237.574 4.12306 236.493 4.95389 236.493 9.45269V41.9631C236.493 46.4776 237.59 47.2928 240.788 49.0641V49.6127H225.974V49.0641C229.188 47.2928 230.27 46.4619 230.27 41.9631V6.17652L211.349 50.3651H211.067L191.944 6.17652V41.9005C191.944 46.3993 193.793 47.2928 197.069 49.0641V49.6127H183.542V49.0641C186.755 47.2928 188.605 46.3993 188.605 41.9005V9.45269C188.605 4.95389 187.507 4.12306 184.294 2.35176V1.80316H197.069L213.262 39.1573L228.968 1.80316Z" fill="var(--fill-0, white)"/>
<path id="Vector_6" d="M289.365 2.35176V1.80316H302.955V2.35176C299.742 4.12306 297.971 5.01656 297.971 9.51536V31.304C297.971 43.7972 290.055 50.2867 279.192 50.2867C265.664 50.2867 259.378 42.841 259.378 31.304V9.45269C259.378 4.95389 258.218 4.12306 255.005 2.35176V1.80316H269.959V2.35176C266.745 4.12306 265.586 4.95389 265.586 9.45269V30.4888C265.586 41.2734 270.852 46.6814 279.584 46.6814C288.315 46.6814 294.538 41.9004 294.538 30.5672V9.53105C294.538 5.01657 292.625 4.13875 289.349 2.36745L289.365 2.35176Z" fill="var(--fill-0, white)"/>
<path id="Vector_7" d="M316.561 49.6127V49.0641C319.775 47.2928 320.872 46.4619 320.872 41.9631V9.45269C320.872 4.95389 319.775 4.12306 316.561 2.35176V1.80316H331.453V2.35176C328.239 4.12306 327.079 4.95389 327.079 9.45269V27.1344L347.912 7.74404C348.868 6.78785 349.276 6.03547 349.276 5.22035C349.276 4.12309 348.053 3.37065 346.344 2.35176V1.80316H360.483V2.35176C355.969 4.46791 353.241 6.44304 350.028 9.45269L336.908 21.6167L354.119 41.9631C357.05 45.3803 359.715 47.763 362.662 49.0641V49.6127H347.504V49.0641C348.664 48.3744 349.62 47.8414 349.62 46.8068C349.62 45.8506 349.15 45.2393 347.975 43.7344L332.472 25.5669L327.079 30.4105V41.9474C327.079 46.4619 328.239 47.2771 331.453 49.0484V49.597H316.561V49.6127Z" fill="var(--fill-0, white)"/>
<path id="Vector_8" d="M408.121 1.80254C410.174 1.80254 411.193 1.59875 412.212 1.39497L414.469 14.233H413.858C409.892 8.29208 407.651 4.32624 401.286 4.32624H394.53V41.8842C394.53 46.383 395.753 47.2765 399.515 49.0478V49.5964H383.401V49.0478C387.163 47.2765 388.323 46.383 388.323 41.8842V4.32624H381.63C375.203 4.32624 372.961 8.29208 368.995 14.233H368.384L370.641 1.39497C371.66 1.59875 372.695 1.80254 374.733 1.80254H408.136H408.121Z" fill="var(--fill-0, white)"/>
<path id="Vector_9" d="M428.421 2.35176V1.80316H443.312V2.35176C440.099 4.12306 438.939 4.95389 438.939 9.45269V41.9631C438.939 46.4776 440.099 47.2928 443.312 49.0641V49.6127H428.421V49.0641C431.634 47.2928 432.716 46.4619 432.716 41.9631V9.45269C432.716 4.95389 431.618 4.12306 428.421 2.35176Z" fill="var(--fill-0, white)"/>
<path id="Vector_10" d="M517.408 8.55882C518.161 7.46155 518.364 6.44264 518.364 5.89401C518.364 4.59296 517.063 3.71521 514.885 2.33579V1.7871H526.907V2.33579C524.18 4.38925 522.816 5.89402 520.559 9.43663L507.721 29.6577V41.9471C507.721 46.4615 508.881 47.2767 512.643 49.048V49.5966H496.654V49.048C500.416 47.2767 501.576 46.4459 501.576 41.9471V29.6577L488.738 9.43663C486.481 5.87835 485.18 4.38925 482.39 2.33579V1.7871H496.325V2.33579C494.554 3.43306 494.068 4.24817 494.068 5.47084C494.068 6.48973 494.334 7.44586 495.087 8.54313L506.294 26.3032L517.424 8.54313L517.408 8.55882Z" fill="var(--fill-0, white)"/>
<path id="Vector_11" d="M561.472 1.11292C575.125 1.11292 585.173 11.3645 585.173 25.7074C585.173 40.0502 575.14 50.2862 561.472 50.2862C547.803 50.2862 537.771 40.0346 537.771 25.7074C537.771 11.3802 547.803 1.11292 561.472 1.11292ZM561.472 4.201C551.095 4.201 544.809 12.8067 544.809 25.7074C544.809 38.6081 551.095 47.2139 561.472 47.2139C571.849 47.2139 578.134 38.6081 578.134 25.7074C578.134 12.8067 571.849 4.201 561.472 4.201Z" fill="var(--fill-0, white)"/>
<path id="Vector_12" d="M636.18 34.4542C636.18 29.9397 635.02 29.203 631.806 27.3533V26.8047H646.76V27.3533C643.484 29.203 642.324 29.9554 642.324 34.4542V50.2235H640.757L637.136 43.3891C634.471 47.4177 629.016 50.2862 622.323 50.2862C608.529 50.2862 598.418 40.3794 598.418 25.9738C598.418 11.5683 608.936 1.11292 623.342 1.11292C628.875 1.11292 633.17 2.82156 635.976 4.87502L639.66 1.11292H640.145V15.3931H639.597C635.709 8.9662 631.195 4.05988 623.686 4.05988C612.902 4.05988 605.519 12.8693 605.519 25.7701C605.519 38.6708 612.965 46.6652 623.953 46.6652C628.938 46.6652 633.17 44.9566 636.18 40.8653V34.4385V34.4542Z" fill="var(--fill-0, white)"/>
<path id="Vector_13" d="M668.628 49.6122H655.79V49.0636C658.8 46.9475 659.96 45.9286 661.872 41.8217L680.996 0.987566H681.341L700.465 41.8217C702.44 45.9129 703.27 46.9475 706.264 49.0636V49.6122H691.373V49.0636C694.241 47.841 695.135 47.0101 695.135 45.5837C695.135 44.6902 694.853 44.0161 694.179 42.6524L690.087 33.8429H669.051L665.086 42.5897C664.474 43.8908 664.27 44.6431 664.27 45.4582C664.27 46.9004 665.634 47.6372 668.644 49.0793V49.6279L668.628 49.6122ZM670.337 31.0371H688.771L679.491 11.0198L670.337 31.0371Z" fill="var(--fill-0, white)"/>
<path id="Vector_14" d="M728.382 9.65601C728.382 14.9699 724.055 19.3119 718.71 19.3119C713.365 19.3119 709.038 14.9699 709.038 9.65601C709.038 4.3421 713.396 0 718.71 0C724.024 0 728.382 4.29507 728.382 9.65601ZM727.566 9.65601C727.566 4.87506 723.507 0.768168 718.694 0.768168C713.882 0.768168 709.853 4.87506 709.853 9.65601C709.853 14.437 713.913 18.5438 718.694 18.5438C723.475 18.5438 727.566 14.4056 727.566 9.65601ZM714.337 4.1226L717.754 3.98157C720.089 3.88752 721.955 4.4361 721.955 6.56793C721.955 8.69977 720.669 9.29547 719.023 9.45222C720.136 9.54627 721.422 10.5182 721.61 12.3365C721.845 14.6878 722.55 14.6721 723.961 14.6721L723.82 15.111C720.952 15.8477 719.98 14.6721 719.666 13.4024C719.384 12.2424 719.995 9.9695 717.864 9.54627C717.566 9.48357 717.236 9.54627 717.236 9.54627V14.2332C717.236 14.4683 717.236 14.5624 717.331 14.5624L718.193 14.6721V15.111H714.337V14.6721L715.136 14.5624C715.277 14.5624 715.277 14.4683 715.277 14.2332V5.00041C715.277 4.7496 715.277 4.67129 715.136 4.67129L714.337 4.53017V4.107V4.1226ZM717.236 9.02896H717.566C719.556 9.02896 719.995 7.85331 719.995 6.67767C719.995 4.43611 718.177 4.18535 717.252 4.4675V9.04465L717.236 9.02896Z" fill="var(--fill-0, white)"/>
</g>
</svg>
