<svg preserveAspectRatio="xMidYMid meet" width="73" height="73" overflow="visible" style="display: block;" viewBox="0 0 73 73" fill="none" xmlns="http://www.w3.org/2000/svg">
<g id="Group">
<path id="Vector" d="M58.411 49.1835C56.0168 48.6514 52.8244 48.5508 49.8981 49.2913C43.3984 50.9306 41.4571 55.7839 41.4571 55.7839C41.5434 56.582 42.1258 56.2656 43.3409 55.9996C44.556 55.7335 48.0431 57.3225 48.0431 57.3225C48.0431 57.3225 53.1192 58.6958 56.9802 55.1008C60.834 51.5058 63.1636 51.0457 63.1636 51.0457C63.1636 51.0457 61.3301 49.8306 58.4038 49.1835H58.411ZM51.0126 56.4813C49.2942 56.4813 47.9065 55.0936 47.9065 53.3752C47.9065 52.1457 48.6183 51.096 49.6465 50.5855C50.3223 50.4848 50.9407 50.3914 51.5158 50.3051C52.997 50.5424 54.1258 51.8222 54.1258 53.368C54.1258 55.0864 52.731 56.4741 51.0126 56.4741V56.4813ZM45.5123 55.5825C43.8226 54.9498 42.3774 55.5753 42.3774 55.5753C42.3774 55.5753 43.8226 52.3327 48.5752 50.8228C47.8993 51.4627 47.4823 52.3686 47.4823 53.3752C47.4823 54.8707 48.4098 56.1433 49.7256 56.661C48.1006 56.5747 46.7777 56.0571 45.5051 55.5825H45.5123ZM55.0173 55.1583C54.3846 55.5682 53.8095 55.8629 53.2774 56.0858C54.0539 55.4387 54.55 54.4681 54.55 53.3752C54.55 51.9588 53.7232 50.7437 52.5225 50.1829C53.1408 50.1182 53.7232 50.0751 54.2984 50.0822C58.2888 50.1541 60.3523 51.2614 60.3523 51.2614C59.9425 51.2901 58.7418 52.0666 57.4404 53.0589C56.8364 53.519 55.7364 54.7054 55.0245 55.1583H55.0173Z" fill="var(--fill-0, #1E1E1E)"/>
<path id="Vector_2" d="M52.5008 53.3751C52.5008 54.1948 51.8321 54.8635 51.0125 54.8635C50.1928 54.8635 49.5242 54.1948 49.5242 53.3751C49.5242 52.5555 50.1928 51.8868 51.0125 51.8868C51.8321 51.8868 52.5008 52.5555 52.5008 53.3751Z" fill="var(--fill-0, #1E1E1E)"/>
<path id="Vector_3" d="M17.8882 48.975C14.9619 48.2344 11.7696 48.3351 9.37533 48.8672C6.44902 49.5215 4.61559 50.7293 4.61559 50.7293C4.61559 50.7293 6.94512 51.1895 10.8061 54.7845C14.6671 58.3795 19.7432 57.0062 19.7432 57.0062C19.7432 57.0062 23.2304 55.4172 24.4455 55.6832C25.6606 55.9493 26.2429 56.2656 26.3292 55.4675C26.3292 55.4675 24.3879 50.6143 17.8882 48.975ZM16.7738 56.1649C15.0554 56.1649 13.6605 54.7773 13.6605 53.0589C13.6605 51.5059 14.7894 50.2332 16.2705 49.996C16.8457 50.075 17.464 50.1757 18.1399 50.2764C19.168 50.7797 19.8798 51.8366 19.8798 53.0661C19.8798 54.7845 18.485 56.1721 16.7738 56.1721V56.1649ZM10.3532 52.7354C9.05177 51.7432 7.85825 50.9666 7.44123 50.9379C7.44123 50.9379 9.50474 49.8306 13.4952 49.7587C14.0704 49.7515 14.6527 49.7875 15.2711 49.8594C14.0704 50.4202 13.2435 51.6425 13.2435 53.0517C13.2435 54.1446 13.7396 55.1152 14.5161 55.7623C13.9769 55.5394 13.4089 55.2447 12.769 54.8348C12.0572 54.3819 10.9499 53.1955 10.3532 52.7354ZM22.2741 55.2662C21.0015 55.7407 19.6785 56.2584 18.0536 56.3447C19.3694 55.8342 20.304 54.5616 20.304 53.0589C20.304 52.0523 19.8798 51.1464 19.2112 50.5065C23.9709 52.0163 25.4089 55.259 25.4089 55.259C25.4089 55.259 23.9637 54.6335 22.2741 55.2662Z" fill="var(--fill-0, #1E1E1E)"/>
<path id="Vector_4" d="M15.2856 53.0588C15.2856 53.8785 15.9543 54.5471 16.774 54.5471C17.5936 54.5471 18.2623 53.8785 18.2623 53.0588C18.2623 52.2392 17.5936 51.5705 16.774 51.5705C15.9543 51.5705 15.2856 52.2392 15.2856 53.0588Z" fill="var(--fill-0, #1E1E1E)"/>
<g id="Group_2">
<path id="Vector_5" d="M56.2401 39.1678C56.2401 39.1678 61.2443 35.1773 57.9872 25.6579C55.0537 17.6482 49.5031 15.822 47.5977 10.9903C45.7284 6.24497 44.1538 0.780611 34.2029 1.24077C35.5546 2.01009 37.0932 2.68596 38.0064 2.68596C39.5666 2.68596 40.6307 2.96637 41.3928 3.81478C42.1621 4.6632 42.1765 6.17308 42.3706 7.12934C42.5432 7.97775 42.8596 8.68959 42.8596 8.68959C42.8596 8.68959 43.442 10.0557 43.9812 11.3858C45.0237 13.9526 43.5354 14.952 43.5354 14.952C44.5348 13.5572 43.1759 10.3361 42.5216 9.43733C41.8674 8.53858 41.702 8.04968 41.249 6.07963C40.796 4.11678 39.3509 3.7429 39.3509 3.7429C38.9195 3.62786 37.273 3.53438 36.9494 3.41934C31.1903 1.37021 31.6792 0.0832073 29.0189 0.00411789C27.6528 -0.0390218 26.5024 0.25578 25.7115 0.557758C25.4024 0.730317 25.1363 0.902848 24.9278 1.06822C24.9278 1.06822 24.9206 1.07542 24.9134 1.08261H24.9063C24.5755 1.34864 24.3598 1.59309 24.216 1.79441C23.9644 2.13953 23.6408 2.42714 23.2885 2.66441C21.642 3.76447 17.6947 7.15091 19.7654 13.2839C19.7654 13.2839 21.0309 19.0718 30.8667 23.7525C31.9668 24.2774 32.9806 24.7591 33.9368 25.2193C32.9878 26.6501 31.6217 29.2241 31.2478 32.5962C31.068 34.2355 31.219 35.7813 31.5426 37.1905C30.6223 36.5722 29.6588 35.8388 28.6522 34.9832C18.5647 26.4056 12.7049 27.556 10.6414 27.7142C8.57789 27.8723 -1.04227 30.5686 0.0937429 39.2684C1.31603 48.6297 11.648 47.0911 14.7469 47.3571C17.4862 47.5872 23.7055 47.8029 31.0249 51.9802C34.1957 53.4039 37.539 52.9006 40.379 51.6639C41.0333 51.3835 50.8476 45.4014 58.0591 48.0186C65.2706 50.6357 66.7805 56.1073 64.3216 61.3416C61.8626 66.5759 50.7469 69.2577 41.6732 65.3248C30.8164 60.6226 26.0423 66.1301 24.7697 68.3446C23.5042 70.5663 24.3095 72.5939 25.5246 72.5939C25.5246 72.5939 26.3155 72.6442 26.6318 71.5873C26.9482 70.5303 27.3221 68.3086 31.6001 67.4099C35.8781 66.5112 39.847 68.6825 41.9105 69.3655C43.974 70.0486 48.8919 71.7958 55.2838 70.9545C61.6757 70.1061 71.6697 65.1379 72.9351 53.0875C73.043 40.5626 57.9657 39.0815 56.2257 39.1606L56.2401 39.1678ZM56.7793 37.3343C55.2622 39.6279 52.6451 39.2612 52.6451 39.2612C50.5312 38.7795 51.4731 36.1408 52.7386 36.112C54.004 36.0905 56.8728 34.9832 57.5127 33.9766C57.7212 33.6387 58.2964 35.0335 56.7793 37.3271V37.3343ZM57.6565 32.6465C56.4845 34.7819 52.5804 35.127 52.5804 35.127C51.4803 35.1054 50.5169 32.6752 52.3791 31.7118C55.0178 31.4817 57.3114 29.7561 57.563 29.5261C57.8147 29.296 58.8284 30.5111 57.6565 32.6465ZM55.9668 24.9964C56.391 24.3852 57.4192 25.435 57.6996 26.6429C57.9728 27.8508 57.448 29.0443 55.5642 29.9646C53.6804 30.8849 52.415 30.6261 52.415 30.6261C52.415 30.6261 50.8332 30.6045 50.2796 29.8855C49.6253 29.0299 49.5175 28.1671 51.4515 27.7142C53.3785 27.2612 55.5426 25.6003 55.9668 24.9892V24.9964ZM55.3341 22.6453C55.5714 23.3355 55.7799 24.68 53.4144 25.9598C51.8614 26.801 50.6103 27.1462 49.5534 27.2397C47.2095 27.4841 45.4336 25.1474 47.2526 24.9964C49.0717 24.8454 51.9405 22.8394 52.8464 21.6674C53.7595 20.4883 55.0897 21.955 55.3269 22.6525L55.3341 22.6453ZM52.2712 21.006C51.847 21.6459 51.1855 22.221 50.524 22.6812C49.1508 23.6447 47.3964 24.0833 46.3179 24.3349C45.678 24.4859 44.6283 24.5075 43.9668 24.0329C42.9818 23.3283 42.6151 21.9622 43.8662 21.7465C43.8662 21.7465 47.4396 21.3367 50.5672 18.1587C50.977 17.7417 53.5726 19.0287 52.264 21.006H52.2712ZM40.7098 32.5962C40.5156 30.8778 40.0699 29.3607 39.545 28.1025C43.0753 30.1732 44.5852 31.9635 44.5852 34.9329C44.5852 37.586 42.7733 39.9587 39.4228 40.0593C40.3071 37.9958 41.0189 35.4362 40.7026 32.589L40.7098 32.5962ZM46.0375 14.7579C46.4473 14.3409 50.6607 16.2174 49.3521 18.1947C48.9279 18.8346 47.6481 19.5176 46.6127 19.9922C45.0813 20.6896 43.5929 21.2217 42.0758 21.2217C41.4216 21.2217 40.1058 21.1066 39.4371 20.6321C38.4521 19.9275 38.0854 18.5614 39.3365 18.3457C39.3365 18.3457 42.9099 17.9359 46.0375 14.7579ZM34.2172 15.0671C34.8643 14.4775 36.3527 14.4056 36.3527 14.4056C36.3527 14.4056 37.1076 14.686 37.5606 14.9089C38.5887 15.3978 40.1777 16.7855 40.566 16.9508C40.0771 17.0515 37.7403 17.6698 35.9932 17.4613C35.0081 17.3391 34.2892 16.6848 34.0087 16.1887C33.714 15.7142 33.9297 15.3259 34.2101 15.0671H34.2172ZM31.8949 13.9526C30.1549 13.4709 30.3994 11.9251 30.3994 11.9251C30.5576 11.2205 33.0884 11.5296 33.0884 11.5296C33.9872 13.4062 35.0513 13.701 35.0513 13.701C35.0513 13.701 33.642 14.4415 31.9021 13.9598L31.8949 13.9526ZM36.4605 9.49486C36.4605 9.49486 37.4599 9.44453 37.3089 10.8394C37.3089 10.8394 36.4102 10.5877 36.2592 10.2426C36.1082 9.89029 36.4605 9.49486 36.4605 9.49486ZM34.6055 9.78243C35.1735 11.8388 37.3017 12.2414 37.3017 12.2414C39.0057 12.6656 39.3581 13.8951 40.4222 14.9592C41.4863 16.0233 43.0681 15.4553 43.0681 15.4553C43.0681 15.4553 41.9105 16.1671 40.7745 15.7357C39.6385 15.3115 38.79 13.7513 37.654 13.3271C36.518 12.9029 34.7133 12.1335 34.4617 11.1269C33.7499 8.29411 31.6289 5.45411 31.6289 5.45411C32.4054 5.95022 34.0375 7.72611 34.6055 9.78243ZM32.3622 9.38699C32.5348 10.0197 32.6714 10.3505 32.6714 10.3505C32.6714 10.3505 30.2628 10.8178 29.6588 9.71055C29.0549 8.61049 29.5006 8.14312 29.6444 7.98494C30.2628 7.46727 31.3341 7.74769 31.5354 7.77645C31.5354 7.77645 32.1897 8.73989 32.3622 9.3798V9.38699ZM30.9314 6.76984C30.9314 6.76984 28.1633 6.59009 28.4437 4.56972C28.4437 4.56972 30.3059 5.63383 30.9314 6.76984ZM30.5 22.825C20.2975 17.4829 19.0824 10.2426 21.6708 5.85675C22.8715 3.82199 24.3023 2.75788 25.6684 2.75788C27.9404 2.75788 29.0692 3.7501 29.0692 3.7501C29.0692 3.7501 27.6816 3.36902 26.373 3.33307C24.4533 3.28274 21.8577 4.92921 21.4119 8.92683C20.7001 15.2396 25.0716 18.8634 28.2855 20.9053C30.6223 22.3936 33.6996 24.2055 36.935 25.7297L34.9506 24.9533C33.5414 24.2846 32.2472 23.7453 30.4928 22.825H30.5ZM33.2826 31.1007C33.8002 28.994 34.6414 27.6135 35.2023 26.8658C35.5474 26.4128 35.986 25.8951 35.986 25.8951C35.986 25.8951 36.3958 26.3841 36.7122 26.8011C37.273 27.5345 38.1502 28.9365 38.6822 31.1007C38.8116 31.6399 38.9267 32.1791 39.0129 32.7399C38.3802 31.7333 37.2586 31.0647 35.986 31.0647C34.7134 31.0647 33.5917 31.7333 32.9518 32.7399C33.0381 32.1863 33.1531 31.6399 33.2897 31.1007H33.2826ZM35.9788 31.4961C37.7259 31.4961 39.1424 32.9125 39.1424 34.6525C39.1424 36.3925 37.7259 37.8161 35.9788 37.8161C34.2316 37.8161 32.8152 36.3996 32.8152 34.6525C32.8152 32.9053 34.2316 31.4961 35.9788 31.4961ZM39.0561 36.4715C38.826 38.2043 38.2148 40.1816 36.9997 42.5974C36.7481 43.0935 35.9788 44.4452 35.9788 44.4452C35.9788 44.4452 35.1951 43.0791 34.9434 42.5758C33.7355 40.1672 33.1316 38.1971 32.9015 36.4715C33.527 37.5213 34.6702 38.2259 35.9788 38.2259C37.2874 38.2259 38.4306 37.5213 39.0561 36.4715ZM68.1394 60.8095C66.2916 65.0875 61.6397 68.5818 55.14 69.6891C48.6403 70.7963 40.4941 66.9354 40.4941 66.9354C40.4941 66.9354 34.6271 63.8724 29.6516 66.2451C24.6762 68.6178 25.3376 71.3644 25.3376 71.3644L25.237 71.5154C24.1226 68.8191 28.4365 64.764 33.1387 64.4476C37.841 64.1313 38.7972 66.1373 46.2676 67.7263C53.738 69.3152 59.1592 67.906 63.9549 63.5273C67.8734 59.9467 66.3419 53.8784 66.1406 52.5267C65.9465 51.175 66.9171 52.1312 67.1975 51.0384C67.4779 49.9455 62.1071 43.4098 53.5942 43.3092C45.0813 43.2013 42.1765 45.8472 40.7529 47.2205C39.3293 48.5938 39.8542 50.3913 39.8542 50.3913C39.8542 50.3913 37.0501 51.4985 34.9362 51.4985C32.8224 51.4985 30.8667 50.4416 30.8667 50.4416C32.9806 48.4284 31.7151 45.7394 29.4934 45.157C27.2717 44.5746 23.4898 44.2942 15.7535 43.87C13.3736 43.7406 7.69352 43.0791 5.10514 39.8293C3.775 38.2115 2.64617 35.1989 4.04102 33.0779C8.39094 26.4703 17.8601 29.4542 19.7583 30.2522C21.6636 31.0431 23.3029 31.7693 28.5444 36.0042C30.8667 37.888 32.0387 39.4122 32.5204 40.1312C32.5779 40.2606 32.6283 40.3901 32.6858 40.5123C28.9182 38.039 19.938 35.1199 16.379 35.1199C12.8199 35.1199 10.3538 36.4931 10.3538 36.4931C15.4299 36.2774 22.1453 37.7585 28.4868 40.9868C30.6151 42.0653 32.4701 42.7484 34.0735 43.1438C34.3035 43.5393 34.5192 43.8844 34.6846 44.172C34.9794 47.0192 34.0303 46.9976 33.4192 47.0408C32.6355 47.0983 32.0387 45.5956 33.3616 45.4518C33.3616 45.4518 32.657 45.0995 32.1681 45.7897C31.6792 46.4728 32.3335 47.7741 33.6349 47.7526C34.8859 47.731 35.9644 46.5806 35.9644 44.5171H35.9932C35.9932 46.5806 36.9782 47.8173 38.409 47.7957C39.7104 47.7813 40.2209 46.4728 39.7319 45.7897C39.243 45.0995 38.5959 45.4518 38.5959 45.4518C39.9261 45.6028 39.4084 47.0192 38.5959 47.0192C37.8841 47.0192 36.971 47.0192 37.2658 44.172C37.3593 43.9994 37.4671 43.8053 37.5893 43.5968C38.9482 43.5824 39.998 43.3092 40.7529 42.9425C42.7373 41.979 58.7637 36.6872 66.6367 43.3954C74.5169 50.1109 71.9357 56.704 71.9357 56.704C71.9357 56.704 69.9872 56.5243 68.1322 60.8095H68.1394Z" fill="var(--fill-0, #1E1E1E)"/>
<path id="Vector_6" d="M35.9713 36.0833C36.791 36.0833 37.4596 35.4146 37.4596 34.595C37.4596 33.7753 36.791 33.1067 35.9713 33.1067C35.1517 33.1067 34.483 33.7753 34.483 34.595C34.483 35.4146 35.1517 36.0833 35.9713 36.0833Z" fill="var(--fill-0, #1E1E1E)"/>
</g>
</g>
</svg>
