<svg preserveAspectRatio="xMidYMid meet" width="335" height="24" overflow="visible" style="display: block;" viewBox="0 0 335 24" fill="none" xmlns="http://www.w3.org/2000/svg">
<g id="Group">
<path id="Vector" d="M11.2807 4.3356C11.2807 2.27209 10.7486 1.891 9.27468 1.07853V0.826903H16.1051V1.07853C14.6312 1.891 14.1279 2.27209 14.1279 4.3356V16.1487C14.1279 20.5346 11.0578 23.0726 6.92357 23.0726C2.78934 23.0726 -0.000349526 20.664 -0.000349526 17.5579C-0.000349526 15.6814 1.3154 14.4591 2.94752 14.4591C3.609 14.4591 4.14105 14.646 4.48617 14.9624C3.58024 15.5591 2.91877 16.4003 2.91877 18.0037C2.91877 20.2613 4.55089 21.8575 6.93076 21.8575C10.0296 21.8575 11.2879 19.5423 11.2879 15.9977V4.3428L11.2807 4.3356Z" fill="var(--fill-0, #1E1E1E)"/>
<path id="Vector_2" d="M23.5392 1.07853V0.826903H30.3696V1.07853C28.8957 1.891 28.3636 2.27209 28.3636 4.3356V19.2476C28.3636 21.3183 28.8957 21.6922 30.3696 22.5046V22.7562H23.5392V22.5046C25.0131 21.6922 25.5164 21.3111 25.5164 19.2476V4.3356C25.5164 2.27209 25.0131 1.891 23.5392 1.07853Z" fill="var(--fill-0, #1E1E1E)"/>
<path id="Vector_3" d="M53.6796 4.08393C53.96 3.45841 54.0247 3.3002 54.0247 2.89038C54.0247 2.2289 53.3991 1.82629 52.0187 1.07134V0.819668H57.9072V1.07134C56.5268 2.04199 56.0882 2.50933 55.211 4.3931L46.6909 23.0654H46.5327L38.0126 4.3931C37.1642 2.51652 36.7257 2.04199 35.3524 1.07134V0.819668H42.1828V1.07134C40.8958 1.63216 40.4932 2.0132 40.4932 2.66749C40.4932 3.07732 40.6514 3.38648 40.903 4.01201L47.3236 18.4207L53.6796 4.07674V4.08393Z" fill="var(--fill-0, #1E1E1E)"/>
<path id="Vector_4" d="M63.1422 22.7562H57.2536V22.5046C58.6341 21.534 59.1661 21.0666 60.0433 19.1828L68.815 0.452993H68.9732L77.7449 19.1828C78.6509 21.0594 79.032 21.534 80.4052 22.5046V22.7562H73.5748V22.5046C74.8905 21.9438 75.3004 21.5627 75.3004 20.9084C75.3004 20.4986 75.1781 20.1894 74.8618 19.5639L72.9852 15.5231H63.3363L61.5172 19.5351C61.2368 20.1319 61.1434 20.477 61.1434 20.8509C61.1434 21.5124 61.7689 21.8503 63.1494 22.5118V22.7634L63.1422 22.7562ZM63.9259 14.2362H72.3812L68.1248 5.05458L63.9259 14.2362Z" fill="var(--fill-0, #1E1E1E)"/>
<path id="Vector_5" d="M105.023 0.826903H110.444V1.07853C108.97 1.891 108.474 2.27209 108.474 4.3356V19.2476C108.474 21.3183 108.977 21.6922 110.444 22.5046V22.7562H103.65V22.5046C105.123 21.6922 105.62 21.3111 105.62 19.2476V2.83288L96.9413 23.1014H96.8119L88.0402 2.83288V19.2188C88.0402 21.2823 88.8886 21.6922 90.3913 22.5046V22.7562H84.1863V22.5046C85.6603 21.6922 86.5087 21.2823 86.5087 19.2188V4.3356C86.5087 2.27209 86.0054 1.891 84.5315 1.07853V0.826903H90.3913L97.8185 17.9606L105.023 0.826903Z" fill="var(--fill-0, #1E1E1E)"/>
<path id="Vector_6" d="M132.726 1.07853V0.826903H138.96V1.07853C137.486 1.891 136.673 2.30083 136.673 4.36435V14.3584C136.673 20.0888 133.043 23.0654 128.06 23.0654C121.855 23.0654 118.972 19.6502 118.972 14.3584V4.3356C118.972 2.27209 118.44 1.891 116.966 1.07853V0.826903H123.825V1.07853C122.351 1.891 121.819 2.27209 121.819 4.3356V13.9845C121.819 18.9312 124.235 21.4117 128.24 21.4117C132.244 21.4117 135.099 19.2188 135.099 14.0204V4.37154C135.099 2.30084 134.222 1.89819 132.719 1.08573L132.726 1.07853Z" fill="var(--fill-0, #1E1E1E)"/>
<path id="Vector_7" d="M145.201 22.7562V22.5046C146.675 21.6922 147.178 21.3111 147.178 19.2476V4.3356C147.178 2.27209 146.675 1.891 145.201 1.07853V0.826903H152.031V1.07853C150.557 1.891 150.025 2.27209 150.025 4.3356V12.4459L159.581 3.55188C160.019 3.11329 160.206 2.76818 160.206 2.39431C160.206 1.89101 159.645 1.54588 158.862 1.07853V0.826903H165.347V1.07853C163.276 2.04918 162.025 2.95513 160.551 4.3356L154.533 9.91501L162.428 19.2476C163.773 20.815 164.995 21.9079 166.347 22.5046V22.7562H159.394V22.5046C159.926 22.1883 160.364 21.9438 160.364 21.4693C160.364 21.0307 160.149 20.7503 159.61 20.06L152.499 11.7269L150.025 13.9486V19.2404C150.025 21.3111 150.557 21.685 152.031 22.4974V22.7491H145.201V22.7562Z" fill="var(--fill-0, #1E1E1E)"/>
<path id="Vector_8" d="M187.197 0.826843C188.139 0.826843 188.606 0.733367 189.073 0.639897L190.109 6.52847H189.828C188.009 3.80348 186.981 1.98441 184.062 1.98441H180.963V19.2116C180.963 21.2751 181.524 21.6849 183.25 22.4974V22.749H175.858V22.4974C177.584 21.6849 178.116 21.2751 178.116 19.2116V1.98441H175.046C172.098 1.98441 171.07 3.80348 169.251 6.52847H168.97L170.006 0.639897C170.473 0.733367 170.948 0.826843 171.882 0.826843H187.204H187.197Z" fill="var(--fill-0, #1E1E1E)"/>
<path id="Vector_9" d="M196.508 1.07853V0.826903H203.339V1.07853C201.865 1.891 201.333 2.27209 201.333 4.3356V19.2476C201.333 21.3183 201.865 21.6922 203.339 22.5046V22.7562H196.508V22.5046C197.982 21.6922 198.478 21.3111 198.478 19.2476V4.3356C198.478 2.27209 197.975 1.891 196.508 1.07853Z" fill="var(--fill-0, #1E1E1E)"/>
<path id="Vector_10" d="M237.325 3.92573C237.67 3.42243 237.764 2.95508 237.764 2.70343C237.764 2.10667 237.167 1.70406 236.167 1.07134V0.819668H241.682V1.07134C240.431 2.01323 239.806 2.70344 238.77 4.32837L232.882 13.6034V19.2403C232.882 21.311 233.414 21.6849 235.139 22.4974V22.749H227.806V22.4974C229.531 21.6849 230.063 21.3038 230.063 19.2403V13.6034L224.175 4.32837C223.139 2.69625 222.542 2.01323 221.263 1.07134V0.819668H227.655V1.07134C226.842 1.57464 226.619 1.94852 226.619 2.50933C226.619 2.97668 226.741 3.41524 227.087 3.91853L232.227 12.0648L237.332 3.91853L237.325 3.92573Z" fill="var(--fill-0, #1E1E1E)"/>
<path id="Vector_11" d="M257.537 0.510571C263.799 0.510571 268.408 5.2128 268.408 11.7916C268.408 18.3704 263.806 23.0654 257.537 23.0654C251.267 23.0654 246.666 18.3632 246.666 11.7916C246.666 5.21999 251.267 0.510571 257.537 0.510571ZM257.537 1.92701C252.777 1.92701 249.894 5.87428 249.894 11.7916C249.894 17.7089 252.777 21.6562 257.537 21.6562C262.297 21.6562 265.18 17.7089 265.18 11.7916C265.18 5.87428 262.297 1.92701 257.537 1.92701Z" fill="var(--fill-0, #1E1E1E)"/>
<path id="Vector_12" d="M291.804 15.8036C291.804 13.7329 291.272 13.395 289.798 12.5465V12.2949H296.657V12.5465C295.155 13.395 294.623 13.7401 294.623 15.8036V23.0367H293.904L292.243 19.9019C291.02 21.7497 288.518 23.0654 285.448 23.0654C279.121 23.0654 274.483 18.5214 274.483 11.9138C274.483 5.30626 279.308 0.510571 285.915 0.510571C288.454 0.510571 290.424 1.29429 291.711 2.23618L293.4 0.510571H293.623V7.06061H293.371C291.588 4.11273 289.518 1.86229 286.074 1.86229C281.127 1.86229 277.741 5.90302 277.741 11.8203C277.741 17.7377 281.156 21.4046 286.196 21.4046C288.482 21.4046 290.424 20.6209 291.804 18.7443V15.7964V15.8036Z" fill="var(--fill-0, #1E1E1E)"/>
<path id="Vector_13" d="M306.687 22.7562H300.798V22.5046C302.179 21.534 302.711 21.0666 303.588 19.1828L312.359 0.452993H312.518L321.289 19.1828C322.195 21.0594 322.576 21.534 323.95 22.5046V22.7562H317.119V22.5046C318.435 21.9438 318.845 21.5627 318.845 20.9084C318.845 20.4986 318.715 20.1894 318.406 19.5639L316.53 15.5231H306.881L305.062 19.5351C304.781 20.1319 304.688 20.477 304.688 20.8509C304.688 21.5124 305.313 21.8503 306.694 22.5118V22.7634L306.687 22.7562ZM307.47 14.2362H315.926L311.669 5.05458L307.47 14.2362Z" fill="var(--fill-0, #1E1E1E)"/>
<path id="Vector_14" d="M334.095 4.42903C334.095 6.86643 332.111 8.85802 329.659 8.85802C327.207 8.85802 325.223 6.86643 325.223 4.42903C325.223 1.99164 327.221 0 329.659 0C332.096 0 334.095 1.97007 334.095 4.42903ZM333.721 4.42903C333.721 2.2361 331.859 0.352344 329.652 0.352344C327.444 0.352344 325.597 2.2361 325.597 4.42903C325.597 6.62197 327.459 8.50572 329.652 8.50572C331.845 8.50572 333.721 6.60759 333.721 4.42903ZM327.653 1.89096L329.22 1.82628C330.292 1.78314 331.147 2.03476 331.147 3.01259C331.147 3.99042 330.558 4.26366 329.803 4.33556C330.313 4.3787 330.903 4.8245 330.989 5.65853C331.097 6.73702 331.42 6.72983 332.068 6.72983L332.003 6.93112C330.687 7.26905 330.241 6.72983 330.097 6.14744C329.968 5.61539 330.248 4.57283 329.271 4.3787C329.134 4.34994 328.983 4.3787 328.983 4.3787V6.52849C328.983 6.63634 328.983 6.67949 329.026 6.67949L329.422 6.72983V6.93112H327.653V6.72983L328.02 6.67949C328.084 6.67949 328.084 6.63634 328.084 6.52849V2.2936C328.084 2.17856 328.084 2.14264 328.02 2.14264L327.653 2.07791V1.88381V1.89096ZM328.983 4.14142H329.134C330.047 4.14142 330.248 3.60217 330.248 3.06293C330.248 2.03476 329.414 1.91974 328.99 2.04916V4.14862L328.983 4.14142Z" fill="var(--fill-0, #1E1E1E)"/>
</g>
</svg>
