<svg preserveAspectRatio="xMidYMid meet" width="131" height="130" overflow="visible" style="display: block;" viewBox="0 0 131 130" fill="none" xmlns="http://www.w3.org/2000/svg">
<g id="Group">
<path id="Vector" d="M104.6 88.0766C100.313 87.1239 94.5958 86.9435 89.3555 88.2697C77.7159 91.2054 74.2396 99.8964 74.2396 99.8964C74.3941 101.326 75.437 100.759 77.6129 100.283C79.7889 99.8063 86.0336 102.652 86.0336 102.652C86.0336 102.652 95.1237 105.111 102.038 98.6732C108.939 92.2354 113.111 91.4114 113.111 91.4114C113.111 91.4114 109.828 89.2354 104.587 88.0766H104.6ZM91.3512 101.145C88.2739 101.145 85.7889 98.6603 85.7889 95.583C85.7889 93.3813 87.0636 91.5015 88.9048 90.5873C90.1151 90.4071 91.2224 90.2397 92.2525 90.0852C94.9048 90.5101 96.9263 92.8019 96.9263 95.5702C96.9263 98.6474 94.4285 101.132 91.3512 101.132V101.145ZM81.5014 99.5359C78.4756 98.4028 75.8876 99.523 75.8876 99.523C75.8876 99.523 78.4756 93.7161 86.9864 91.0122C85.7761 92.1582 85.0293 93.7805 85.0293 95.583C85.0293 98.2612 86.6902 100.54 89.0465 101.467C86.1366 101.313 83.7675 100.386 81.4885 99.5359H81.5014ZM98.5229 98.7762C97.3898 99.5101 96.3598 100.038 95.407 100.437C96.7976 99.2784 97.686 97.5401 97.686 95.583C97.686 93.0466 96.2053 90.8706 94.0551 89.8663C95.1624 89.7504 96.2053 89.6732 97.2353 89.6861C104.381 89.8148 108.077 91.7976 108.077 91.7976C107.343 91.8491 105.192 93.2397 102.862 95.0165C101.78 95.8406 99.8104 97.9651 98.5357 98.7762H98.5229Z" fill="var(--fill-0, white)"/>
<path id="Vector_2" d="M94.0159 95.5828C94.0159 97.0506 92.8185 98.248 91.3507 98.248C89.8829 98.248 88.6855 97.0506 88.6855 95.5828C88.6855 94.1149 89.8829 92.9175 91.3507 92.9175C92.8185 92.9175 94.0159 94.1149 94.0159 95.5828Z" fill="var(--fill-0, white)"/>
<path id="Vector_3" d="M32.0333 87.703C26.7929 86.3768 21.0762 86.5571 16.7886 87.5099C11.5483 88.6816 8.26501 90.8446 8.26501 90.8446C8.26501 90.8446 12.4367 91.6687 19.3509 98.1064C26.265 104.544 35.3552 102.085 35.3552 102.085C35.3552 102.085 41.5998 99.2395 43.7758 99.7159C45.9518 100.192 46.9947 100.759 47.1492 99.3296C47.1492 99.3296 43.6728 90.6386 32.0333 87.703ZM30.0376 100.579C26.9603 100.579 24.4625 98.0935 24.4625 95.0163C24.4625 92.2352 26.4839 89.9562 29.1363 89.5313C30.1663 89.6729 31.2736 89.8532 32.484 90.0334C34.3252 90.9347 35.5998 92.8274 35.5998 95.0292C35.5998 98.1064 33.102 100.591 30.0376 100.591V100.579ZM18.5397 94.4369C16.2092 92.6601 14.0719 91.2696 13.3251 91.218C13.3251 91.218 17.0204 89.2352 24.1663 89.1064C25.1964 89.0936 26.2393 89.158 27.3466 89.2867C25.1964 90.291 23.7157 92.4798 23.7157 95.0034C23.7157 96.9605 24.6041 98.6987 25.9947 99.8575C25.029 99.4584 24.0118 98.9305 22.8659 98.1966C21.5912 97.3854 19.6084 95.261 18.5397 94.4369ZM39.8874 98.9691C37.6084 99.8189 35.2393 100.746 32.3295 100.9C34.6857 99.9863 36.3595 97.7073 36.3595 95.0163C36.3595 93.2137 35.5998 91.5914 34.4024 90.4455C42.926 93.1493 45.5011 98.9562 45.5011 98.9562C45.5011 98.9562 42.9132 97.836 39.8874 98.9691Z" fill="var(--fill-0, white)"/>
<path id="Vector_4" d="M27.3727 95.0163C27.3727 96.4841 28.5701 97.6816 30.0379 97.6816C31.5057 97.6816 32.7031 96.4841 32.7031 95.0163C32.7031 93.5485 31.5057 92.3511 30.0379 92.3511C28.5701 92.3511 27.3727 93.5485 27.3727 95.0163Z" fill="var(--fill-0, white)"/>
<g id="Group_2">
<path id="Vector_5" d="M100.712 70.1407C100.712 70.1407 109.673 62.9948 103.84 45.9476C98.5872 31.6042 88.6472 28.3338 85.2352 19.6814C81.8876 11.1835 79.0678 1.39808 61.248 2.22212C63.6686 3.5998 66.424 4.81012 68.0592 4.81012C70.8532 4.81012 72.7588 5.31228 74.1236 6.83159C75.5013 8.35091 75.527 11.0548 75.8746 12.7672C76.1837 14.2865 76.7502 15.5613 76.7502 15.5613C76.7502 15.5613 77.7931 18.0076 78.7588 20.3896C80.6258 24.9862 77.9605 26.7758 77.9605 26.7758C79.7502 24.278 77.3167 18.5097 76.1451 16.9003C74.9734 15.2909 74.6772 14.4153 73.8661 10.8874C73.0549 7.3724 70.4669 6.70287 70.4669 6.70287C69.6944 6.49686 66.7459 6.32946 66.1665 6.12345C55.8532 2.45392 56.7287 0.149189 51.9647 0.00755802C49.5184 -0.0696954 47.4583 0.458228 46.042 0.999002C45.4883 1.30802 45.0119 1.61698 44.6385 1.91312C44.6385 1.91312 44.6256 1.92602 44.6128 1.93889H44.5999C44.0076 2.41529 43.6214 2.85305 43.3638 3.21356C42.9132 3.83159 42.3338 4.34664 41.7029 4.77153C38.7544 6.7415 31.6857 12.8058 35.3939 23.7887C35.3939 23.7887 37.66 34.1535 55.2737 42.5355C57.2437 43.4754 59.0592 44.3381 60.7716 45.1622C59.0721 47.7244 56.6257 52.3339 55.9561 58.3725C55.6343 61.3082 55.9046 64.0763 56.484 66.6C54.836 65.4927 53.1107 64.1794 51.3081 62.6472C33.2437 47.2867 22.7501 49.3467 19.0548 49.63C15.3595 49.9132 -1.86801 54.7416 0.166328 70.321C2.35517 87.085 20.8574 84.3296 26.4067 84.806C31.3123 85.218 42.4497 85.6043 55.557 93.085C61.2351 95.6344 67.2223 94.7331 72.3081 92.5185C73.4798 92.0163 91.055 81.3038 103.969 85.9906C116.883 90.6773 119.587 100.476 115.184 109.849C110.78 119.222 90.8747 124.025 74.6257 116.982C55.1836 108.561 46.6343 118.424 44.3553 122.39C42.0892 126.368 43.5312 129.999 45.7072 129.999C45.7072 129.999 47.1235 130.089 47.6901 128.197C48.2566 126.304 48.9261 122.325 56.5871 120.716C64.248 119.107 71.3553 122.995 75.0506 124.218C78.7459 125.441 87.5528 128.57 98.9992 127.064C110.446 125.544 128.343 116.647 130.609 95.0679C130.802 72.6387 103.802 69.9863 100.686 70.1279L100.712 70.1407ZM101.677 66.8575C98.9606 70.9648 94.2738 70.3081 94.2738 70.3081C90.4884 69.4455 92.1751 64.7201 94.4412 64.6686C96.7073 64.63 101.845 62.6472 102.991 60.8446C103.364 60.2395 104.394 62.7373 101.677 66.8446V66.8575ZM103.248 58.4627C101.149 62.2867 94.158 62.9047 94.158 62.9047C92.188 62.866 90.4627 58.5141 93.7975 56.7888C98.5228 56.3768 102.63 53.2867 103.081 52.8746C103.531 52.4626 105.347 54.6386 103.248 58.4627ZM100.222 44.763C100.982 43.6686 102.823 45.5484 103.325 47.7115C103.815 49.8746 102.875 52.012 99.5013 53.66C96.1279 55.3081 93.8618 54.8446 93.8618 54.8446C93.8618 54.8446 91.0292 54.806 90.0378 53.5184C88.8661 51.9862 88.673 50.4411 92.1365 49.63C95.5871 48.8188 99.4627 45.8446 100.222 44.7502V44.763ZM99.0893 40.5527C99.5142 41.7888 99.8876 44.1965 95.6515 46.4883C92.8704 47.9948 90.6301 48.6128 88.7374 48.7802C84.5399 49.218 81.3597 45.0334 84.6172 44.763C87.8747 44.4927 93.012 40.9004 94.6344 38.8017C96.2696 36.6901 98.6516 39.3167 99.0764 40.5656L99.0893 40.5527ZM93.6043 37.6171C92.8447 38.763 91.6601 39.793 90.4755 40.6171C88.0163 42.3424 84.8747 43.1279 82.9434 43.5785C81.7974 43.8489 79.9176 43.8875 78.733 43.0377C76.9691 41.7759 76.3124 39.3295 78.5528 38.9433C78.5528 38.9433 84.952 38.2094 90.5528 32.5184C91.2867 31.7716 95.9348 34.0763 93.5914 37.6171H93.6043ZM72.9004 58.3725C72.5528 55.2953 71.7545 52.5785 70.8146 50.3253C77.1365 54.0335 79.8403 57.2395 79.8403 62.5571C79.8403 67.3082 76.5957 71.5571 70.5957 71.7374C72.1794 68.0421 73.4541 63.4584 72.8875 58.3596L72.9004 58.3725ZM82.4412 26.4282C83.1751 25.6815 90.7202 29.0419 88.3769 32.5827C87.6172 33.7287 85.3253 34.9518 83.4713 35.8016C80.7288 37.0506 78.0635 38.0034 75.3467 38.0034C74.1751 38.0034 71.8189 37.7974 70.6214 36.9476C68.8575 35.6858 68.2008 33.2394 70.4412 32.8531C70.4412 32.8531 76.8403 32.1193 82.4412 26.4282ZM61.2738 26.9819C62.4326 25.9261 65.0978 25.7973 65.0978 25.7973C65.0978 25.7973 66.4497 26.2994 67.2609 26.6986C69.1021 27.5741 71.9476 30.0591 72.6429 30.3553C71.7674 30.5355 67.5828 31.6428 64.454 31.2694C62.6901 31.0505 61.4025 29.8789 60.9004 28.9905C60.3725 28.1407 60.7588 27.4454 61.2609 26.9819H61.2738ZM57.115 24.9862C53.9991 24.1235 54.4368 21.3553 54.4368 21.3553C54.7201 20.0935 59.2523 20.6471 59.2523 20.6471C60.8617 24.0076 62.7673 24.5355 62.7673 24.5355C62.7673 24.5355 60.2437 25.8617 57.1278 24.999L57.115 24.9862ZM65.2909 17.0033C65.2909 17.0033 67.0807 16.9132 66.8103 19.411C66.8103 19.411 65.2008 18.9604 64.9304 18.3424C64.66 17.7115 65.2909 17.0033 65.2909 17.0033ZM61.9691 17.5183C62.9862 21.2007 66.7974 21.9218 66.7974 21.9218C69.8489 22.6815 70.4798 24.8831 72.3854 26.7887C74.291 28.6943 77.1236 27.6771 77.1236 27.6771C77.1236 27.6771 75.0506 28.9518 73.0163 28.1793C70.9819 27.4196 69.4626 24.6256 67.4283 23.8659C65.3939 23.1063 62.1622 21.7286 61.7115 19.926C60.4368 14.853 56.6385 9.76726 56.6385 9.76726C58.0291 10.6557 60.9519 13.8359 61.9691 17.5183ZM57.9519 16.8102C58.2609 17.9432 58.5055 18.5355 58.5055 18.5355C58.5055 18.5355 54.1922 19.3724 53.1107 17.3896C52.0291 15.4196 52.8274 14.5827 53.0849 14.2994C54.1922 13.3724 56.1107 13.8745 56.4712 13.926C56.4712 13.926 57.6429 15.6513 57.9519 16.7973V16.8102ZM55.3896 12.1234C55.3896 12.1234 50.4325 11.8015 50.9347 8.18351C50.9347 8.18351 54.2694 10.0891 55.3896 12.1234ZM54.6171 40.8746C36.3467 31.3081 34.1707 18.3424 38.8059 10.4883C40.9561 6.8445 43.5184 4.93892 45.9647 4.93892C50.0334 4.93892 52.0548 6.71576 52.0548 6.71576C52.0548 6.71576 49.5699 6.03333 47.2265 5.96895C43.7887 5.87882 39.1407 8.82729 38.3424 15.9861C37.0677 27.2909 44.896 33.7802 50.6514 37.4368C54.836 40.1021 60.3467 43.3467 66.1407 46.0763L62.5871 44.6858C60.0635 43.4884 57.7459 42.5227 54.6042 40.8746H54.6171ZM59.6 55.6944C60.527 51.9218 62.0334 49.4497 63.0377 48.1107C63.6557 47.2995 64.4412 46.3725 64.4412 46.3725C64.4412 46.3725 65.1751 47.248 65.7416 47.9948C66.7459 49.3081 68.3167 51.8188 69.2695 55.6944C69.5013 56.6601 69.7073 57.6257 69.8618 58.63C68.7287 56.8274 66.7202 55.63 64.4412 55.63C62.1622 55.63 60.1536 56.8274 59.0077 58.63C59.1622 57.6386 59.3682 56.6601 59.6128 55.6944H59.6ZM64.4283 56.4025C67.5571 56.4025 70.0935 58.939 70.0935 62.0549C70.0935 65.1708 67.5571 67.7202 64.4283 67.7202C61.2995 67.7202 58.763 65.1837 58.763 62.0549C58.763 58.9262 61.2995 56.4025 64.4283 56.4025ZM69.939 65.3124C69.527 68.4154 68.4326 71.9562 66.2566 76.2824C65.806 77.1708 64.4283 79.5914 64.4283 79.5914C64.4283 79.5914 63.0248 77.1451 62.5742 76.2438C60.4111 71.9305 59.3296 68.4025 58.9175 65.3124C60.0377 67.1922 62.0849 68.454 64.4283 68.454C66.7716 68.454 68.8189 67.1922 69.939 65.3124ZM122.021 108.896C118.712 116.557 110.381 122.815 98.7417 124.798C87.1022 126.78 72.5141 119.866 72.5141 119.866C72.5141 119.866 62.0077 114.381 53.0978 118.63C44.1879 122.879 45.3724 127.798 45.3724 127.798L45.1922 128.068C43.1965 123.24 50.9218 115.978 59.3424 115.411C67.763 114.845 69.4755 118.437 82.8532 121.283C96.2309 124.128 105.939 121.604 114.527 113.763C121.544 107.351 118.802 96.4842 118.441 94.0636C118.094 91.643 119.832 93.3554 120.334 91.3983C120.836 89.4412 111.218 77.7373 95.9734 77.5571C80.7288 77.3639 75.527 82.1022 72.9776 84.5614C70.4283 87.0206 71.3682 90.2396 71.3682 90.2396C71.3682 90.2396 66.3467 92.2224 62.5613 92.2224C58.7759 92.2224 55.2737 90.3297 55.2737 90.3297C59.0592 86.7245 56.7931 81.909 52.8145 80.8661C48.836 79.8232 42.0634 79.3211 28.2093 78.5614C23.9475 78.3296 13.7758 77.1451 9.1406 71.3253C6.75862 68.4283 4.73714 63.0335 7.235 59.2352C15.0247 47.4025 31.9819 52.7459 35.381 54.1751C38.793 55.5914 41.7287 56.8918 51.115 64.4755C55.2738 67.8489 57.3725 70.5785 58.2351 71.8661C58.3381 72.0979 58.4283 72.3297 58.5313 72.5485C51.7845 68.1193 35.7029 62.8919 29.3295 62.8919C22.9561 62.8919 18.5397 65.3511 18.5397 65.3511C27.6299 64.9648 39.6557 67.6172 51.0119 73.3983C54.8231 75.3296 58.145 76.5528 61.0163 77.261C61.4283 77.9691 61.8145 78.5871 62.1107 79.1022C62.6386 84.2009 60.939 84.1622 59.8446 84.2395C58.4412 84.3425 57.3725 81.6516 59.7416 81.3941C59.7416 81.3941 58.4798 80.7631 57.6042 81.9992C56.7287 83.2223 57.9004 85.5528 60.2308 85.5142C62.4712 85.4755 64.4025 83.4155 64.4025 79.7202H64.454C64.454 83.4155 66.218 85.63 68.7802 85.5914C71.1107 85.5657 72.0249 83.2223 71.1493 81.9992C70.2738 80.7631 69.115 81.3941 69.115 81.3941C71.497 81.6644 70.5699 84.2009 69.115 84.2009C67.8403 84.2009 66.2051 84.2009 66.733 79.1022C66.9004 78.7931 67.0935 78.4455 67.3124 78.0721C69.7459 78.0464 71.6257 77.5571 72.9776 76.9004C76.5313 75.1751 105.231 65.6987 119.33 77.7116C133.441 89.7374 128.819 101.544 128.819 101.544C128.819 101.544 125.33 101.222 122.008 108.896H122.021Z" fill="var(--fill-0, white)"/>
<path id="Vector_6" d="M64.4154 64.6169C65.8832 64.6169 67.0806 63.4195 67.0806 61.9517C67.0806 60.4839 65.8832 59.2864 64.4154 59.2864C62.9475 59.2864 61.7501 60.4839 61.7501 61.9517C61.7501 63.4195 62.9475 64.6169 64.4154 64.6169Z" fill="var(--fill-0, white)"/>
</g>
</g>
</svg>
